<?xml version="1.0" encoding="utf-8"?>
<!-- Generator: Adobe Illustrator 30.3.0, SVG Export Plug-In . SVG Version: 9.03 Build 0)  -->
<svg version="1.1" id="Layer_1" xmlns="http://www.w3.org/2000/svg" xmlns:xlink="http://www.w3.org/1999/xlink" x="0px" y="0px"
	 viewBox="0 0 40.552 38.471" style="enable-background:new 0 0 40.552 38.471;" xml:space="preserve">
<g>
	<path style="fill:#FFFFFF;" d="M20.276,35.925c9.217,0,16.689-7.472,16.689-16.689c0-9.218-7.472-16.69-16.689-16.69
		c-9.217,0-16.69,7.472-16.69,16.69C3.587,28.453,11.06,35.925,20.276,35.925"/>
	<path style="fill:#00ADEE;" d="M20.276,35.925V35.17c4.402,0,8.381-1.782,11.267-4.667c2.885-2.886,4.667-6.864,4.667-11.267
		c0-4.403-1.782-8.381-4.667-11.267c-2.886-2.885-6.865-4.667-11.267-4.667c-4.402,0-8.381,1.782-11.267,4.667
		c-2.885,2.886-4.667,6.865-4.667,11.267c0,4.402,1.783,8.381,4.667,11.267c2.886,2.885,6.865,4.667,11.267,4.667V35.925v0.755
		c-9.634,0-17.445-7.81-17.445-17.445c0-9.635,7.811-17.445,17.445-17.445c9.635,0,17.444,7.81,17.445,17.445
		c0,9.635-7.81,17.444-17.445,17.445V35.925z"/>
	<path style="fill:#231F20;" d="M29.164,10.987h-1.618c-1.156,1.233-2.953,2.44-4.058,3.184l1.001,1.438
		c1.772-1.207,2.106-1.541,2.799-2.054v15.383h1.875V10.987z M15.064,10.987h-1.618c-1.156,1.233-2.953,2.44-4.058,3.184
		l1.001,1.438c1.772-1.207,2.106-1.541,2.799-2.054v15.383h1.875V10.987z"/>
</g>
<g>
</g>
<g>
</g>
<g>
</g>
<g>
</g>
<g>
</g>
<g>
</g>
<g>
</g>
<g>
</g>
<g>
</g>
<g>
</g>
<g>
</g>
<g>
</g>
<g>
</g>
<g>
</g>
<g>
</g>
</svg>
