<?xml version="1.0" encoding="utf-8"?>
<!-- Generator: Adobe Illustrator 30.3.0, SVG Export Plug-In . SVG Version: 9.03 Build 0)  -->
<svg version="1.1" id="Layer_1" xmlns="http://www.w3.org/2000/svg" xmlns:xlink="http://www.w3.org/1999/xlink" x="0px" y="0px"
	 viewBox="0 0 40.552 38.471" style="enable-background:new 0 0 40.552 38.471;" xml:space="preserve">
<g>
	<path style="fill:#FFFFFF;" d="M20.277,36.336c9.444,0,17.1-7.656,17.1-17.1c0-9.445-7.656-17.101-17.1-17.101
		S3.176,9.791,3.176,19.236C3.176,28.68,10.833,36.336,20.277,36.336"/>
	<path style="fill:#00ADEE;" d="M20.277,36.336v-0.774c4.511,0,8.587-1.826,11.544-4.782c2.956-2.957,4.781-7.033,4.782-11.544
		c0-4.511-1.826-8.588-4.782-11.545c-2.957-2.956-7.033-4.781-11.544-4.782c-4.511,0-8.588,1.826-11.545,4.782
		C5.776,10.648,3.95,14.725,3.95,19.236c0,4.511,1.826,8.587,4.782,11.544c2.957,2.956,7.034,4.781,11.545,4.782V36.336v0.774
		c-9.872-0.001-17.875-8.002-17.875-17.874c0-9.873,8.003-17.875,17.875-17.875c9.872,0,17.873,8.002,17.874,17.875
		c0,9.872-8.002,17.873-17.874,17.874V36.336z"/>
	<path style="fill:#231F20;" d="M21.905,10.778h-1.658c-1.184,1.263-3.027,2.501-4.159,3.264l1.027,1.474
		c1.816-1.237,2.158-1.579,2.869-2.106v15.766h1.922V10.778z"/>
</g>
<g>
</g>
<g>
</g>
<g>
</g>
<g>
</g>
<g>
</g>
<g>
</g>
<g>
</g>
<g>
</g>
<g>
</g>
<g>
</g>
<g>
</g>
<g>
</g>
<g>
</g>
<g>
</g>
<g>
</g>
</svg>
