<?xml version="1.0" encoding="utf-8"?>
<!-- Generator: Adobe Illustrator 30.3.0, SVG Export Plug-In . SVG Version: 9.03 Build 0)  -->
<svg version="1.1" id="Layer_1" xmlns="http://www.w3.org/2000/svg" xmlns:xlink="http://www.w3.org/1999/xlink" x="0px" y="0px"
	 viewBox="0 0 40.552 38.471" style="enable-background:new 0 0 40.552 38.471;" xml:space="preserve">
<g>
	<path style="fill:#FFFFFF;" d="M20.277,36.336c9.444,0,17.1-7.656,17.1-17.1c0-9.445-7.656-17.101-17.1-17.101
		S3.176,9.791,3.176,19.236C3.176,28.68,10.833,36.336,20.277,36.336"/>
	<path style="fill:#00ADEE;" d="M20.277,36.336v-0.774c4.511,0,8.587-1.826,11.544-4.782c2.956-2.957,4.781-7.034,4.782-11.544
		c0-4.511-1.826-8.588-4.782-11.545c-2.957-2.956-7.033-4.781-11.544-4.782c-4.511,0-8.588,1.826-11.545,4.782
		C5.776,10.648,3.95,14.725,3.95,19.236c0,4.511,1.826,8.587,4.782,11.544c2.957,2.956,7.034,4.781,11.545,4.782V36.336v0.774
		C10.405,37.11,2.402,29.108,2.402,19.236c0-9.873,8.003-17.874,17.875-17.875c9.872,0,17.873,8.002,17.874,17.875
		c0,9.872-8.002,17.874-17.874,17.874V36.336z"/>
	<path style="fill:#231F20;" d="M16.666,20.544c0,0,1.5-0.053,1.737-0.053c3.553,0,4.948,1.316,4.948,3.764
		c0,2.079-1.5,3.474-3.711,3.474c-1.79,0-3.08-0.711-4.685-2.527l-1.395,1.263c1.606,2.132,3.474,3.053,6.054,3.053
		c3.501,0,5.843-2.053,5.843-5.185c0-2.606-1.263-4.238-3.606-4.712c2.237-0.948,3.132-2.211,3.132-4.343
		c0-2.843-2.08-4.738-5.212-4.738c-2.237,0-4.264,0.921-5.501,2.501l1.342,1.421c1.237-1.448,2.474-2.132,4.054-2.132
		c1.948,0,3.316,1.211,3.316,2.895c0,2.053-1.632,3.474-4.554,3.474c-0.553,0-0.948,0-1.816-0.053L16.666,20.544z"/>
</g>
<g>
</g>
<g>
</g>
<g>
</g>
<g>
</g>
<g>
</g>
<g>
</g>
<g>
</g>
<g>
</g>
<g>
</g>
<g>
</g>
<g>
</g>
<g>
</g>
<g>
</g>
<g>
</g>
<g>
</g>
</svg>
