<?xml version="1.0" encoding="UTF-8"?>
<svg id="Layer_2" data-name="Layer 2" xmlns="http://www.w3.org/2000/svg" viewBox="0 0 101.3 329.02">
  <defs>
    <style>
      .cls-1 {
        fill: #231f20;
      }

      .cls-2 {
        fill: #fff;
      }

      .cls-3 {
        fill: none;
        stroke: #231f20;
      }

      .cls-4 {
        fill: #c7c8ca;
      }
    </style>
  </defs>
  <g id="Layer_1-2" data-name="Layer 1">
    <g>
      <path class="cls-4" d="M67.73,54.57L62.24,2.3l-3.86.4c.06,1.54-.63,2.82-1.63,2.93-1,.11-1.94-1.01-2.2-2.52l-4.3.45c.06,1.54-.63,2.82-1.63,2.93-1,.11-1.94-1.01-2.2-2.52l-4.3.45c.06,1.54-.63,2.82-1.63,2.93-1,.11-1.94-1.01-2.2-2.52l-4.3.45c.06,1.54-.63,2.82-1.63,2.93-1,.11-1.94-1.01-2.2-2.52l-4.3.45c.06,1.54-.63,2.82-1.63,2.93-1,.11-1.94-1.01-2.2-2.52l-4.3.45c.06,1.54-.63,2.82-1.63,2.93-1,.11-1.94-1.01-2.2-2.52l-3.86.41,5.49,52.26,52.24-5.49Z"/>
      <path class="cls-2" d="M65.28,52.81L59.79.55l-3.86.4c.06,1.54-.63,2.82-1.63,2.93-1,.11-1.94-1.01-2.2-2.52l-4.3.45c.06,1.54-.63,2.82-1.63,2.93-1,.11-1.94-1.01-2.2-2.52l-4.3.45c.06,1.54-.63,2.82-1.63,2.93-1,.11-1.94-1.01-2.2-2.52l-4.3.45c.06,1.54-.63,2.82-1.63,2.93-1,.11-1.94-1.01-2.2-2.52l-4.3.45c.06,1.54-.63,2.82-1.63,2.93-1,.11-1.94-1.01-2.2-2.52l-4.3.45c.06,1.54-.63,2.82-1.63,2.93-1,.11-1.94-1.01-2.2-2.52l-3.86.41,5.49,52.26,52.24-5.49Z"/>
      <path class="cls-3" d="M65.28,52.81L59.79.55l-3.86.4c.06,1.54-.63,2.82-1.63,2.93-1,.11-1.94-1.01-2.2-2.52l-4.3.45c.06,1.54-.63,2.82-1.63,2.93-1,.11-1.94-1.01-2.2-2.52l-4.3.45c.06,1.54-.63,2.82-1.63,2.93-1,.11-1.94-1.01-2.2-2.52l-4.3.45c.06,1.54-.63,2.82-1.63,2.93-1,.11-1.94-1.01-2.2-2.52l-4.3.45c.06,1.54-.63,2.82-1.63,2.93-1,.11-1.94-1.01-2.2-2.52l-4.3.45c.06,1.54-.63,2.82-1.63,2.93-1,.11-1.94-1.01-2.2-2.52l-3.86.41,5.49,52.26,52.24-5.49Z"/>
    </g>
    <path class="cls-1" d="M38.07,21.39l2.43,23.17-7.04.74-2.43-23.17,7.04-.74Z"/>
    <g>
      <path class="cls-1" d="M19.08,17.78c-1.39.15-2.46-.53-2.6-1.67l.96-.1c.12.57.59,1.1,1.55,1,.87-.09,1.34-.64,1.27-1.3-.2-1.87-3.82-.28-4.09-2.86-.12-1.14.72-2.01,2.09-2.16,1.32-.14,2.26.5,2.48,1.54l-.99.1c-.11-.46-.6-.94-1.45-.86-.75.06-1.29.51-1.21,1.25.19,1.79,3.81.28,4.08,2.85.1.98-.6,2.04-2.1,2.2Z"/>
      <path class="cls-1" d="M27.55,16.82l-.9.09-.08-.8c-.29.6-.92.99-1.65,1.07-1.25.13-2.32-.54-2.48-2.1l-.33-3.19.89-.09.32,3.07c.12,1.1.78,1.61,1.7,1.51.93-.1,1.5-.74,1.38-1.91l-.31-2.99.9-.09.57,5.45Z"/>
      <path class="cls-1" d="M32.74,13.16c-.12-1.11-.78-1.62-1.7-1.52-.92.1-1.5.74-1.38,1.91l.32,3.01-.9.09-.57-5.45.91-.09.08.78c.3-.61.92-.98,1.66-1.06,1.26-.13,2.31.54,2.47,2.1l.34,3.21-.89.09-.32-3.08Z"/>
      <path class="cls-1" d="M37.12,10.21c.85-.09,1.69.27,2.13.85l-.3-2.88.91-.1.77,7.35-.92.1-.11-1.02c-.26.64-.92,1.22-1.91,1.33-1.46.15-2.7-.87-2.88-2.56-.18-1.7.83-2.91,2.3-3.07ZM37.37,10.98c-.99.1-1.76.92-1.63,2.2s1.06,1.95,2.05,1.84,1.77-.94,1.64-2.22c-.13-1.26-1.07-1.93-2.06-1.82Z"/>
      <path class="cls-1" d="M43.83,9.51c1.01-.11,1.76.34,2.14.87l-.1-.99.91-.1.57,5.45-.92.1-.11-1.01c-.27.62-.92,1.21-1.92,1.32-1.45.15-2.69-.87-2.87-2.56-.18-1.7.83-2.91,2.29-3.07ZM44.09,10.28c-.99.1-1.76.92-1.63,2.2s1.06,1.95,2.05,1.84,1.77-.94,1.64-2.22c-.13-1.26-1.07-1.93-2.06-1.82Z"/>
      <path class="cls-1" d="M52.08,8.73l.93-.1-2.44,8.36-.93.1.8-2.74-2.76-5.16,1-.11,2.17,4.23,1.23-4.59Z"/>
    </g>
    <g>
      <path class="cls-4" d="M91.18,112.3l9.12-51.75-3.82-.67c-.37,1.5-1.38,2.54-2.37,2.36-.99-.18-1.59-1.5-1.42-3.03l-4.26-.75c-.37,1.5-1.38,2.54-2.38,2.36-.99-.17-1.59-1.5-1.42-3.03l-4.26-.75c-.37,1.5-1.38,2.54-2.38,2.36-.99-.17-1.59-1.5-1.42-3.03l-4.26-.75c-.36,1.5-1.38,2.54-2.37,2.36-.99-.18-1.59-1.5-1.42-3.03l-4.26-.75c-.37,1.5-1.38,2.54-2.38,2.36-.99-.18-1.59-1.5-1.42-3.03l-4.26-.75c-.36,1.5-1.38,2.54-2.38,2.36-.99-.17-1.59-1.5-1.42-3.03l-3.82-.67-9.12,51.75,51.73,9.12Z"/>
      <path class="cls-2" d="M89.31,109.94l9.12-51.75-3.82-.67c-.37,1.5-1.38,2.54-2.37,2.36-.99-.17-1.59-1.5-1.42-3.03l-4.26-.75c-.37,1.5-1.38,2.54-2.38,2.36-.99-.18-1.59-1.5-1.42-3.03l-4.26-.75c-.37,1.5-1.38,2.54-2.38,2.36-.99-.17-1.59-1.5-1.42-3.03l-4.26-.75c-.36,1.5-1.38,2.54-2.37,2.36-.99-.18-1.59-1.5-1.42-3.03l-4.26-.75c-.37,1.5-1.38,2.54-2.38,2.37-.99-.18-1.59-1.5-1.42-3.03l-4.26-.75c-.36,1.5-1.38,2.54-2.38,2.36-.99-.18-1.59-1.5-1.42-3.03l-3.82-.67-9.12,51.75,51.73,9.12Z"/>
      <path class="cls-3" d="M89.31,109.94l9.12-51.75-3.82-.67c-.37,1.5-1.38,2.54-2.37,2.36-.99-.17-1.59-1.5-1.42-3.03l-4.26-.75c-.37,1.5-1.38,2.54-2.38,2.36-.99-.18-1.59-1.5-1.42-3.03l-4.26-.75c-.37,1.5-1.38,2.54-2.38,2.36-.99-.17-1.59-1.5-1.42-3.03l-4.26-.75c-.36,1.5-1.38,2.54-2.37,2.36-.99-.18-1.59-1.5-1.42-3.03l-4.26-.75c-.37,1.5-1.38,2.54-2.38,2.37-.99-.18-1.59-1.5-1.42-3.03l-4.26-.75c-.36,1.5-1.38,2.54-2.38,2.36-.99-.18-1.59-1.5-1.42-3.03l-3.82-.67-9.12,51.75,51.73,9.12Z"/>
    </g>
    <path class="cls-1" d="M56.14,88.68c6.82-2.96,14.02-5.81,14.7-9.69.29-1.67-.46-2.91-2.51-3.27-2.01-.35-3.41.7-3.8,2.87l-6.5-1.15c1.18-5.54,6.13-7.14,11.37-6.22,6.54,1.15,8.91,4.72,8.23,8.6-.89,5.04-7.23,8.08-12.29,10.08l10.63,1.88-.77,4.38-19.77-3.49.71-4Z"/>
    <g>
      <path class="cls-1" d="M52.24,56.03l.96.17,1.53,6.07,3.51-5.19.96.17-1.2,6.81-.9-.16.9-5.08-3.16,4.68-.63-.11-1.38-5.49-.9,5.09-.9-.16,1.2-6.81Z"/>
      <path class="cls-1" d="M61.86,64.84c-1.53-.27-2.5-1.56-2.19-3.27.3-1.7,1.69-2.56,3.22-2.3,1.54.27,2.54,1.55,2.24,3.26-.3,1.71-1.72,2.58-3.26,2.31ZM62,64.05c.93.17,1.96-.31,2.2-1.68.24-1.36-.54-2.16-1.47-2.32-.94-.17-1.91.32-2.15,1.68-.24,1.37.48,2.16,1.42,2.32Z"/>
      <path class="cls-1" d="M70.31,63.09c.19-1.1-.31-1.77-1.21-1.93-.92-.16-1.65.3-1.85,1.46l-.53,2.98-.9-.16.95-5.39.9.16-.14.77c.45-.5,1.16-.69,1.88-.56,1.25.22,2.07,1.16,1.8,2.7l-.56,3.18-.89-.16.54-3.05Z"/>
      <path class="cls-1" d="M75.33,61.47c.85.15,1.55.72,1.81,1.41l.5-2.85.91.16-1.28,7.28-.91-.16.18-1.01c-.43.54-1.22.92-2.2.75-1.45-.25-2.36-1.58-2.06-3.26.3-1.68,1.6-2.57,3.06-2.31ZM75.36,62.28c-.98-.17-1.95.4-2.17,1.67-.22,1.27.48,2.17,1.46,2.34.98.17,1.96-.42,2.19-1.69.22-1.25-.49-2.15-1.48-2.32Z"/>
      <path class="cls-1" d="M81.98,62.64c1,.18,1.6.81,1.82,1.43l.17-.98.91.16-.95,5.39-.91-.16.18-1c-.43.52-1.22.91-2.21.74-1.44-.25-2.35-1.58-2.06-3.25.3-1.68,1.6-2.57,3.05-2.31ZM82.02,63.45c-.98-.17-1.95.4-2.17,1.67-.22,1.27.48,2.17,1.46,2.34.98.17,1.96-.42,2.19-1.69.22-1.25-.49-2.15-1.48-2.32Z"/>
      <path class="cls-1" d="M90.11,64.17l.92.16-4.65,7.36-.93-.16,1.52-2.41-1.23-5.72.99.17.92,4.67,2.44-4.08Z"/>
    </g>
    <g>
      <path class="cls-4" d="M66.73,150.37l-5.49-52.26-3.86.4c.06,1.54-.63,2.82-1.63,2.93s-1.94-1.01-2.2-2.52l-4.3.45c.06,1.54-.63,2.82-1.63,2.93-1,.11-1.94-1.01-2.2-2.52l-4.3.45c.06,1.54-.63,2.82-1.63,2.93-1,.1-1.94-1.01-2.2-2.52l-4.3.45c.06,1.54-.63,2.82-1.63,2.93-1,.11-1.94-1.01-2.2-2.52l-4.3.45c.06,1.54-.63,2.82-1.63,2.93-1,.1-1.94-1.01-2.2-2.52l-4.3.45c.06,1.54-.63,2.82-1.63,2.93-1,.11-1.94-1.01-2.2-2.52l-3.86.41,5.49,52.26,52.24-5.49Z"/>
      <path class="cls-2" d="M64.28,148.61l-5.49-52.26-3.86.4c.06,1.54-.63,2.82-1.63,2.93s-1.94-1.01-2.2-2.52l-4.3.45c.06,1.54-.63,2.82-1.63,2.93-1,.11-1.94-1.01-2.2-2.52l-4.3.45c.06,1.54-.63,2.82-1.63,2.93-1,.1-1.94-1.01-2.2-2.52l-4.3.45c.06,1.54-.63,2.82-1.63,2.93-1,.11-1.94-1.01-2.2-2.52l-4.3.45c.06,1.54-.63,2.82-1.63,2.93-1,.1-1.94-1.01-2.2-2.52l-4.3.45c.06,1.54-.63,2.82-1.63,2.93-1,.11-1.94-1.01-2.2-2.52l-3.86.41,5.49,52.26,52.24-5.49Z"/>
      <path class="cls-3" d="M64.28,148.61l-5.49-52.26-3.86.4c.06,1.54-.63,2.82-1.63,2.93s-1.94-1.01-2.2-2.52l-4.3.45c.06,1.54-.63,2.82-1.63,2.93-1,.11-1.94-1.01-2.2-2.52l-4.3.45c.06,1.54-.63,2.82-1.63,2.93-1,.1-1.94-1.01-2.2-2.52l-4.3.45c.06,1.54-.63,2.82-1.63,2.93-1,.11-1.94-1.01-2.2-2.52l-4.3.45c.06,1.54-.63,2.82-1.63,2.93-1,.1-1.94-1.01-2.2-2.52l-4.3.45c.06,1.54-.63,2.82-1.63,2.93-1,.11-1.94-1.01-2.2-2.52l-3.86.41,5.49,52.26,52.24-5.49Z"/>
    </g>
    <path class="cls-1" d="M34.2,116.88c6.12-.64,9.72,1.81,10.09,5.31.32,3.05-1.9,4.93-3.83,5.68v.13c3,.46,5.17,2.03,5.49,5.09.41,3.91-2.79,7.08-8.88,7.72-6.05.63-10.66-1.2-11.41-6.43l6.6-.69c.23,1.81,1.59,2.89,4.1,2.63,2.11-.22,3.15-1.42,2.99-2.95-.22-2.07-1.86-2.73-5.39-2.36l-1.27.13-.46-4.42,1.27-.13c2.31-.24,4.49-.92,4.27-3.02-.16-1.56-1.41-2.3-3.24-2.1-2.19.23-2.85,1.59-2.83,2.87l-6.64.7c-.24-4.61,3.23-7.51,9.16-8.14Z"/>
    <g>
      <path class="cls-1" d="M12.46,107.1l4.69-.49.08.73-1.89.2.65,6.19-.91.1-.65-6.19-1.9.2-.08-.73Z"/>
      <path class="cls-1" d="M23.82,112.9l-.91.1-.08-.8c-.29.6-.92.99-1.65,1.07-1.25.13-2.32-.54-2.48-2.1l-.34-3.19.89-.09.32,3.07c.12,1.1.78,1.61,1.7,1.51.93-.1,1.5-.74,1.38-1.91l-.31-2.99.91-.1.57,5.45Z"/>
      <path class="cls-1" d="M27.72,112.59c-1.55.16-2.81-.81-2.99-2.54-.18-1.72.81-2.92,2.4-3.09,1.58-.17,2.73.84,2.89,2.33.02.2.03.36.03.55l-4.35.46c.19,1.1,1.02,1.62,1.95,1.52.82-.09,1.29-.56,1.43-1.17l.97-.1c-.17,1.02-.97,1.89-2.32,2.03ZM25.62,109.56l3.44-.36c-.1-1.06-.96-1.57-1.89-1.47-.88.09-1.56.76-1.55,1.83Z"/>
      <path class="cls-1" d="M33.46,111.98c-1.27.13-2.24-.47-2.4-1.46l.93-.1c.11.52.61.87,1.38.79.72-.08,1.08-.47,1.03-.92-.13-1.21-3.27-.17-3.49-2.2-.09-.83.63-1.6,1.84-1.73,1.2-.13,2.07.44,2.24,1.49l-.9.1c-.1-.54-.56-.9-1.28-.82-.67.07-1.03.43-.98.87.14,1.29,3.22.25,3.47,2.2.09.89-.62,1.65-1.82,1.78Z"/>
      <path class="cls-1" d="M38.39,105.78c.86-.09,1.69.26,2.13.85l-.3-2.88.91-.1.77,7.35-.91.1-.11-1.02c-.26.64-.92,1.22-1.91,1.33-1.46.15-2.71-.87-2.88-2.56-.18-1.7.83-2.91,2.3-3.07ZM38.64,106.54c-.99.1-1.76.92-1.63,2.2.13,1.28,1.06,1.95,2.05,1.84.99-.1,1.77-.94,1.64-2.22-.13-1.26-1.07-1.93-2.06-1.82Z"/>
      <path class="cls-1" d="M45.1,105.07c1.01-.11,1.76.34,2.14.87l-.1-.99.91-.1.57,5.45-.91.1-.11-1.01c-.27.62-.92,1.21-1.92,1.32-1.45.15-2.7-.87-2.87-2.56-.18-1.7.83-2.91,2.29-3.06ZM45.36,105.84c-.99.1-1.76.92-1.63,2.2.13,1.28,1.06,1.95,2.05,1.84.99-.1,1.77-.94,1.64-2.22-.13-1.26-1.07-1.93-2.06-1.82Z"/>
      <path class="cls-1" d="M53.34,104.3l.93-.1-2.44,8.36-.93.1.8-2.74-2.76-5.16,1-.11,2.17,4.23,1.23-4.59Z"/>
    </g>
    <g>
      <path class="cls-4" d="M91.18,203.37l9.12-51.75-3.82-.67c-.37,1.5-1.38,2.54-2.37,2.36-.99-.18-1.59-1.5-1.42-3.03l-4.26-.75c-.37,1.5-1.38,2.54-2.38,2.36-.99-.18-1.59-1.5-1.42-3.03l-4.26-.75c-.37,1.5-1.38,2.54-2.38,2.36-.99-.17-1.59-1.5-1.42-3.03l-4.26-.75c-.36,1.5-1.38,2.54-2.37,2.36-.99-.18-1.59-1.5-1.42-3.03l-4.26-.75c-.37,1.5-1.38,2.54-2.38,2.37-.99-.18-1.59-1.5-1.42-3.03l-4.26-.75c-.36,1.5-1.38,2.54-2.38,2.36-.99-.18-1.59-1.5-1.42-3.03l-3.82-.67-9.12,51.75,51.73,9.12Z"/>
      <path class="cls-2" d="M89.31,201.01l9.12-51.75-3.82-.67c-.37,1.5-1.38,2.54-2.37,2.36-.99-.18-1.59-1.5-1.42-3.03l-4.26-.75c-.37,1.5-1.38,2.54-2.38,2.36-.99-.18-1.59-1.5-1.42-3.03l-4.26-.75c-.37,1.5-1.38,2.54-2.38,2.36-.99-.17-1.59-1.5-1.42-3.03l-4.26-.75c-.36,1.5-1.38,2.54-2.37,2.36-.99-.18-1.59-1.5-1.42-3.03l-4.26-.75c-.37,1.5-1.38,2.54-2.38,2.37-.99-.18-1.59-1.5-1.42-3.03l-4.26-.75c-.36,1.5-1.38,2.54-2.38,2.36-.99-.18-1.59-1.5-1.42-3.03l-3.82-.67-9.12,51.75,51.73,9.12Z"/>
      <path class="cls-3" d="M89.31,201.01l9.12-51.75-3.82-.67c-.37,1.5-1.38,2.54-2.37,2.36-.99-.18-1.59-1.5-1.42-3.03l-4.26-.75c-.37,1.5-1.38,2.54-2.38,2.36-.99-.18-1.59-1.5-1.42-3.03l-4.26-.75c-.37,1.5-1.38,2.54-2.38,2.36-.99-.17-1.59-1.5-1.42-3.03l-4.26-.75c-.36,1.5-1.38,2.54-2.37,2.36-.99-.18-1.59-1.5-1.42-3.03l-4.26-.75c-.37,1.5-1.38,2.54-2.38,2.37-.99-.18-1.59-1.5-1.42-3.03l-4.26-.75c-.36,1.5-1.38,2.54-2.38,2.36-.99-.18-1.59-1.5-1.42-3.03l-3.82-.67-9.12,51.75,51.73,9.12Z"/>
    </g>
    <path class="cls-1" d="M75.98,182.17l-2.6-.46-.94,5.36-6.26-1.1.94-5.36-12.45-2.19.71-4.03,11.75-11.61,6.07,1.07-11.62,11.53,6.26,1.1.9-5.1,6.14,1.08-.9,5.1,2.72.48-.73,4.13Z"/>
    <g>
      <path class="cls-1" d="M48.13,146.32l.76.13.17,6.03,2.35-5.58.8.14.24,6.02,2.23-5.58.77.14-2.8,6.58-.8-.14-.3-5.75-2.3,5.29-.8-.13-.32-7.14Z"/>
      <path class="cls-1" d="M56.89,155.03c-1.23-.22-1.94-1.46-1.64-3.17.3-1.7,1.36-2.62,2.62-2.4,1.25.22,1.88,1.47,1.62,2.94-.03.2-.07.35-.12.54l-3.45-.61c-.14,1.1.37,1.81,1.1,1.94.65.11,1.13-.23,1.39-.78l.77.14c-.39.95-1.22,1.59-2.29,1.4ZM56.06,151.61l2.72.48c.19-1.05-.33-1.74-1.07-1.87-.7-.12-1.39.35-1.65,1.39Z"/>
      <path class="cls-1" d="M62.68,150.31c.68.12,1.22.66,1.41,1.34l.5-2.85.72.13-1.28,7.28-.72-.13.18-1.01c-.37.55-1.01.96-1.8.82-1.16-.21-1.85-1.49-1.55-3.17.3-1.68,1.38-2.61,2.54-2.4ZM62.67,151.11c-.79-.14-1.58.46-1.81,1.73-.22,1.27.31,2.14,1.1,2.27s1.59-.48,1.82-1.75c.22-1.25-.32-2.12-1.11-2.26Z"/>
      <path class="cls-1" d="M68.94,153.92c.19-1.1-.19-1.75-.91-1.88-.73-.13-1.34.35-1.54,1.51l-.53,2.98-.72-.13.95-5.39.72.13-.13.77c.38-.51.96-.72,1.54-.62,1,.18,1.63,1.08,1.36,2.62l-.56,3.18-.71-.12.54-3.05Z"/>
      <path class="cls-1" d="M72.14,157.72c-1.23-.22-1.94-1.46-1.64-3.17.3-1.7,1.36-2.62,2.62-2.4,1.25.22,1.88,1.47,1.62,2.94-.04.2-.07.35-.12.54l-3.45-.61c-.14,1.1.37,1.81,1.1,1.94.65.11,1.13-.23,1.39-.78l.77.14c-.39.95-1.22,1.59-2.29,1.4ZM71.31,154.3l2.72.48c.19-1.05-.33-1.74-1.07-1.87-.7-.12-1.39.35-1.65,1.39Z"/>
      <path class="cls-1" d="M76.69,158.52c-1.01-.18-1.6-.99-1.47-1.98l.74.13c-.05.53.25.99.85,1.09.57.1.94-.2,1.02-.64.21-1.2-2.46-.95-2.11-2.96.15-.83.89-1.4,1.85-1.23.95.17,1.47.92,1.33,1.98l-.72-.13c.06-.55-.2-1-.77-1.1-.53-.09-.9.17-.97.6-.23,1.28,2.4,1.02,2.09,2.96-.16.89-.9,1.45-1.85,1.28Z"/>
      <path class="cls-1" d="M82.04,153.73c.68.12,1.22.66,1.41,1.33l.5-2.85.72.13-1.28,7.28-.72-.13.18-1.01c-.37.55-1.01.96-1.8.82-1.16-.2-1.85-1.49-1.55-3.17.3-1.68,1.38-2.61,2.54-2.4ZM82.04,154.53c-.79-.14-1.58.46-1.81,1.73-.22,1.27.31,2.14,1.1,2.27s1.59-.48,1.82-1.75c.22-1.25-.32-2.12-1.11-2.26Z"/>
      <path class="cls-1" d="M87.36,154.66c.8.14,1.26.75,1.42,1.36l.17-.98.72.13-.95,5.39-.72-.13.18-1c-.36.54-1.01.95-1.81.81-1.15-.2-1.84-1.49-1.54-3.16.3-1.68,1.38-2.61,2.54-2.4ZM87.37,155.46c-.79-.14-1.58.46-1.81,1.73-.22,1.27.31,2.14,1.1,2.27.79.14,1.6-.48,1.82-1.75.22-1.25-.33-2.12-1.11-2.26Z"/>
      <path class="cls-1" d="M93.87,155.9l.74.13-4,7.47-.74-.13,1.31-2.45-.8-5.64.79.14.58,4.61,2.11-4.13Z"/>
    </g>
    <g>
      <path class="cls-4" d="M67.73,240.69l-5.49-52.26-3.86.4c.06,1.54-.63,2.82-1.63,2.93s-1.94-1.01-2.2-2.52l-4.3.45c.06,1.54-.63,2.82-1.63,2.93-1,.11-1.94-1.01-2.2-2.52l-4.3.45c.06,1.54-.63,2.82-1.63,2.93-1,.1-1.94-1.01-2.2-2.52l-4.3.45c.06,1.54-.63,2.82-1.63,2.93-1,.11-1.94-1.01-2.2-2.52l-4.3.45c.06,1.54-.63,2.82-1.63,2.93-1,.1-1.94-1.01-2.2-2.52l-4.3.45c.06,1.54-.63,2.82-1.63,2.93-1,.11-1.94-1.01-2.2-2.52l-3.86.41,5.49,52.26,52.24-5.49Z"/>
      <path class="cls-2" d="M65.28,238.93l-5.49-52.26-3.86.41c.06,1.54-.63,2.82-1.63,2.93-1,.11-1.94-1.01-2.2-2.52l-4.3.45c.06,1.54-.63,2.82-1.63,2.93-1,.11-1.94-1.01-2.2-2.52l-4.3.45c.06,1.54-.63,2.82-1.63,2.93-1,.11-1.94-1.01-2.2-2.52l-4.3.45c.06,1.54-.63,2.82-1.63,2.93-1,.11-1.94-1.01-2.2-2.52l-4.3.45c.06,1.54-.63,2.82-1.63,2.93-1,.1-1.94-1.01-2.2-2.52l-4.3.45c.06,1.54-.63,2.82-1.63,2.93-1,.11-1.94-1.01-2.2-2.52l-3.86.41,5.49,52.26,52.24-5.49Z"/>
      <path class="cls-3" d="M65.28,238.93l-5.49-52.26-3.86.41c.06,1.54-.63,2.82-1.63,2.93-1,.11-1.94-1.01-2.2-2.52l-4.3.45c.06,1.54-.63,2.82-1.63,2.93-1,.11-1.94-1.01-2.2-2.52l-4.3.45c.06,1.54-.63,2.82-1.63,2.93-1,.11-1.94-1.01-2.2-2.52l-4.3.45c.06,1.54-.63,2.82-1.63,2.93-1,.11-1.94-1.01-2.2-2.52l-4.3.45c.06,1.54-.63,2.82-1.63,2.93-1,.1-1.94-1.01-2.2-2.52l-4.3.45c.06,1.54-.63,2.82-1.63,2.93-1,.11-1.94-1.01-2.2-2.52l-3.86.41,5.49,52.26,52.24-5.49Z"/>
    </g>
    <path class="cls-1" d="M43.39,206.85l.44,4.2-8.63.91v2.7c3.22-.34,5.81.16,7.72,1.51,1.91,1.34,2.97,3.03,3.19,5.1.24,2.32-.66,4.48-2.74,6.43-2.09,1.93-4.67,3.07-7.73,3.39-1.47.16-2.76.13-3.91-.07-1.15-.23-2.48-.61-3.91-1.23l.09-5.29c3.32,1.35,5.83,1.93,7.62,1.74,1.27-.13,2.31-.63,3.18-1.46.88-.83,1.26-1.74,1.16-2.73-.11-1.08-.68-1.92-1.72-2.55-1.03-.63-2.26-.86-3.69-.71-1.71.18-3.51.69-5.38,1.56l.18-12.02,14.12-1.48Z"/>
    <g>
      <path class="cls-1" d="M11.5,197.62l4.69-.49.08.74-1.89.2.65,6.19-.9.09-.65-6.19-1.9.2-.08-.74Z"/>
      <path class="cls-1" d="M17.26,196.58l.9-.1.28,2.69c.3-.61.94-.99,1.71-1.07,1.21-.13,2.26.55,2.42,2.11l.34,3.21-.89.09-.32-3.08c-.12-1.11-.78-1.62-1.7-1.52-.92.1-1.5.74-1.38,1.91l.32,3.01-.91.1-.77-7.36Z"/>
      <path class="cls-1" d="M29.23,202.76l-.91.09-.08-.81c-.29.6-.92.99-1.65,1.07-1.25.13-2.32-.54-2.48-2.1l-.33-3.19.89-.09.32,3.07c.12,1.1.78,1.61,1.7,1.51.93-.1,1.5-.74,1.38-1.91l-.31-2.99.9-.09.57,5.45Z"/>
      <path class="cls-1" d="M31.67,202.51l-.91.1-.57-5.45.9-.1.09.88c.24-.64.79-1.08,1.66-1.17l.1.93-.24.03c-.86.09-1.48.55-1.35,1.81l.31,2.96Z"/>
      <path class="cls-1" d="M36.41,202.1c-1.27.13-2.24-.47-2.4-1.46l.93-.1c.11.52.61.87,1.38.79.71-.08,1.08-.47,1.03-.92-.13-1.21-3.27-.17-3.49-2.2-.09-.83.63-1.6,1.84-1.73,1.2-.13,2.07.44,2.24,1.49l-.9.1c-.1-.54-.56-.9-1.28-.82-.67.07-1.03.43-.98.87.14,1.29,3.22.25,3.47,2.2.09.89-.62,1.65-1.82,1.78Z"/>
      <path class="cls-1" d="M41.34,195.89c.85-.09,1.69.26,2.13.85l-.3-2.88.91-.1.77,7.36-.92.1-.11-1.02c-.26.64-.92,1.22-1.91,1.33-1.46.15-2.7-.87-2.88-2.56-.18-1.7.83-2.91,2.3-3.07ZM41.59,196.66c-.99.1-1.76.92-1.63,2.2.13,1.28,1.06,1.95,2.05,1.85.99-.1,1.77-.94,1.64-2.22-.13-1.26-1.07-1.93-2.06-1.82Z"/>
      <path class="cls-1" d="M48.05,195.19c1.01-.11,1.76.34,2.14.87l-.1-.99.91-.1.57,5.45-.92.1-.11-1.01c-.27.62-.92,1.21-1.92,1.32-1.45.15-2.69-.87-2.87-2.56-.18-1.7.83-2.91,2.29-3.06ZM48.32,195.95c-.99.1-1.76.92-1.63,2.2.13,1.28,1.06,1.95,2.05,1.84s1.77-.94,1.64-2.22c-.13-1.26-1.07-1.93-2.06-1.82Z"/>
      <path class="cls-1" d="M56.3,194.41l.93-.1-2.44,8.36-.93.1.8-2.74-2.76-5.16,1-.11,2.17,4.23,1.23-4.59Z"/>
    </g>
    <g>
      <path class="cls-4" d="M92.18,293.8l9.12-51.75-3.82-.67c-.37,1.5-1.38,2.54-2.37,2.36-.99-.18-1.59-1.5-1.42-3.03l-4.26-.75c-.37,1.5-1.38,2.54-2.38,2.36-.99-.18-1.59-1.5-1.42-3.03l-4.26-.75c-.37,1.5-1.38,2.54-2.38,2.36-.99-.17-1.59-1.5-1.42-3.03l-4.26-.75c-.36,1.5-1.38,2.54-2.37,2.36-.99-.18-1.59-1.5-1.42-3.03l-4.26-.75c-.37,1.5-1.38,2.54-2.38,2.37-.99-.18-1.59-1.5-1.42-3.03l-4.26-.75c-.36,1.5-1.38,2.54-2.38,2.36-.99-.17-1.59-1.5-1.42-3.03l-3.82-.67-9.12,51.75,51.73,9.12Z"/>
      <path class="cls-2" d="M90.31,291.44l9.12-51.75-3.82-.67c-.37,1.5-1.38,2.54-2.37,2.36-.99-.17-1.59-1.5-1.42-3.03l-4.26-.75c-.37,1.5-1.38,2.54-2.38,2.36-.99-.18-1.59-1.5-1.42-3.03l-4.26-.75c-.37,1.5-1.38,2.54-2.38,2.36-.99-.18-1.59-1.5-1.42-3.03l-4.26-.75c-.36,1.5-1.38,2.54-2.37,2.36-.99-.18-1.59-1.5-1.42-3.03l-4.26-.75c-.37,1.5-1.38,2.54-2.38,2.36-.99-.18-1.59-1.5-1.42-3.03l-4.26-.75c-.36,1.5-1.38,2.54-2.38,2.36-.99-.18-1.59-1.5-1.42-3.03l-3.82-.67-9.12,51.75,51.73,9.12Z"/>
      <path class="cls-3" d="M90.31,291.44l9.12-51.75-3.82-.67c-.37,1.5-1.38,2.54-2.37,2.36-.99-.17-1.59-1.5-1.42-3.03l-4.26-.75c-.37,1.5-1.38,2.54-2.38,2.36-.99-.18-1.59-1.5-1.42-3.03l-4.26-.75c-.37,1.5-1.38,2.54-2.38,2.36-.99-.18-1.59-1.5-1.42-3.03l-4.26-.75c-.36,1.5-1.38,2.54-2.37,2.36-.99-.18-1.59-1.5-1.42-3.03l-4.26-.75c-.37,1.5-1.38,2.54-2.38,2.36-.99-.18-1.59-1.5-1.42-3.03l-4.26-.75c-.36,1.5-1.38,2.54-2.38,2.36-.99-.18-1.59-1.5-1.42-3.03l-3.82-.67-9.12,51.75,51.73,9.12Z"/>
    </g>
    <path class="cls-1" d="M76.45,254.38l-8.32,6.4c.97,0,1.85.1,2.64.24,2.44.43,4.4,1.52,5.92,3.29,1.52,1.76,2.08,3.65,1.72,5.67-.41,2.33-1.78,4.11-4.13,5.25-2.36,1.18-5.13,1.47-8.32.9-2.95-.52-5.23-1.67-6.89-3.52-1.66-1.85-2.31-3.95-1.9-6.28.29-1.67,1.11-3.28,2.36-4.88,1.26-1.6,2.59-2.95,4-4.04l5.47-4.33,7.44,1.31ZM71.23,266.03c-.71-.84-1.63-1.36-2.81-1.57-1.3-.23-2.42-.07-3.45.46-.99.57-1.58,1.35-1.76,2.36-.18,1.01.11,1.94.85,2.78.75.85,1.79,1.39,3.09,1.62,1.14.2,2.19,0,3.14-.55.95-.58,1.54-1.35,1.71-2.33.18-1.01-.11-1.94-.77-2.77Z"/>
    <g>
      <path class="cls-1" d="M58.26,238.36l3.88.68-.13.73-2.98-.53-.41,2.31,2.42.43-.13.73-2.42-.43-.54,3.09-.9-.16,1.21-6.86Z"/>
      <path class="cls-1" d="M62.91,246.26l-.9-.16.95-5.39.9.16-.15.88c.41-.55,1.06-.82,1.91-.67l-.16.92-.24-.04c-.86-.15-1.57.12-1.79,1.37l-.52,2.93Z"/>
      <path class="cls-1" d="M66.64,241.36l.9.16-.95,5.39-.9-.16.95-5.39ZM66.76,239.84c.06-.34.37-.56.72-.5.33.06.54.37.48.71-.06.34-.37.56-.7.51-.34-.06-.56-.37-.5-.72Z"/>
      <path class="cls-1" d="M71.31,242.09c.85.15,1.55.72,1.81,1.41l.5-2.85.91.16-1.28,7.28-.91-.16.18-1.01c-.43.54-1.22.92-2.2.75-1.45-.25-2.36-1.58-2.06-3.26.3-1.68,1.6-2.57,3.06-2.31ZM71.34,242.89c-.98-.17-1.95.4-2.17,1.67-.22,1.27.48,2.17,1.47,2.34.98.17,1.96-.42,2.19-1.68.22-1.25-.49-2.15-1.48-2.32Z"/>
      <path class="cls-1" d="M77.96,243.26c1,.18,1.6.81,1.82,1.43l.17-.98.91.16-.95,5.39-.91-.16.18-1c-.43.52-1.22.91-2.21.74-1.44-.25-2.35-1.58-2.05-3.25.3-1.68,1.6-2.57,3.05-2.31ZM78,244.07c-.98-.17-1.95.4-2.17,1.67-.22,1.27.48,2.17,1.46,2.34.98.17,1.96-.42,2.19-1.68.22-1.25-.49-2.15-1.48-2.32Z"/>
      <path class="cls-1" d="M86.1,244.79l.93.16-4.65,7.36-.93-.16,1.52-2.41-1.23-5.72.99.17.92,4.67,2.44-4.08Z"/>
    </g>
    <g>
      <path class="cls-4" d="M60.73,323.53l-5.49-52.26-3.86.4c.06,1.54-.63,2.82-1.63,2.93s-1.94-1.01-2.2-2.52l-4.3.45c.06,1.54-.63,2.82-1.63,2.93-1,.11-1.94-1.01-2.2-2.52l-4.3.45c.06,1.54-.63,2.82-1.63,2.93-1,.11-1.94-1.01-2.2-2.52l-4.3.45c.06,1.54-.63,2.82-1.63,2.93-1,.11-1.94-1.01-2.2-2.52l-4.3.45c.06,1.54-.63,2.82-1.63,2.93-1,.1-1.94-1.01-2.2-2.52l-4.3.45c.06,1.54-.63,2.82-1.63,2.93-1,.11-1.94-1.01-2.2-2.52l-3.86.41,5.49,52.26,52.24-5.49Z"/>
      <path class="cls-2" d="M58.28,321.77l-5.49-52.26-3.86.4c.06,1.54-.63,2.82-1.63,2.93-1,.1-1.94-1.01-2.2-2.52l-4.3.45c.06,1.54-.63,2.82-1.63,2.93-1,.11-1.94-1.01-2.2-2.52l-4.3.45c.06,1.54-.63,2.82-1.63,2.93-1,.11-1.94-1.01-2.2-2.52l-4.3.45c.06,1.54-.63,2.82-1.63,2.93-1,.11-1.94-1.01-2.2-2.52l-4.3.45c.06,1.54-.63,2.82-1.63,2.93-1,.1-1.94-1.01-2.2-2.52l-4.3.45c.06,1.54-.63,2.82-1.63,2.93-1,.11-1.94-1.01-2.2-2.52l-3.86.41,5.49,52.26,52.24-5.49Z"/>
      <path class="cls-3" d="M58.28,321.77l-5.49-52.26-3.86.4c.06,1.54-.63,2.82-1.63,2.93-1,.1-1.94-1.01-2.2-2.52l-4.3.45c.06,1.54-.63,2.82-1.63,2.93-1,.11-1.94-1.01-2.2-2.52l-4.3.45c.06,1.54-.63,2.82-1.63,2.93-1,.11-1.94-1.01-2.2-2.52l-4.3.45c.06,1.54-.63,2.82-1.63,2.93-1,.11-1.94-1.01-2.2-2.52l-4.3.45c.06,1.54-.63,2.82-1.63,2.93-1,.1-1.94-1.01-2.2-2.52l-4.3.45c.06,1.54-.63,2.82-1.63,2.93-1,.11-1.94-1.01-2.2-2.52l-3.86.41,5.49,52.26,52.24-5.49Z"/>
    </g>
    <path class="cls-1" d="M38.05,289.58l.42,4.04-7.97,20.21-6.96.73,8.15-19.61-12.37,1.3-.49-4.65,19.21-2.02Z"/>
    <g>
      <path class="cls-1" d="M8.24,287.14c-1.39.15-2.46-.53-2.6-1.67l.96-.1c.12.57.59,1.1,1.55,1,.88-.09,1.34-.64,1.27-1.3-.2-1.87-3.82-.28-4.09-2.86-.12-1.14.72-2.02,2.09-2.16,1.32-.14,2.26.5,2.48,1.54l-.99.1c-.11-.46-.6-.94-1.45-.86-.75.06-1.29.51-1.21,1.25.19,1.79,3.81.28,4.08,2.85.1.98-.6,2.04-2.1,2.2Z"/>
      <path class="cls-1" d="M13.54,280.92c1.01-.11,1.76.34,2.14.87l-.1-.99.91-.1.57,5.45-.91.1-.11-1.01c-.27.62-.92,1.21-1.92,1.32-1.45.15-2.7-.87-2.87-2.56-.18-1.7.83-2.91,2.29-3.07ZM13.8,281.68c-.99.1-1.76.92-1.63,2.2s1.06,1.95,2.05,1.84c.99-.1,1.77-.94,1.64-2.22-.13-1.26-1.07-1.93-2.06-1.82Z"/>
      <path class="cls-1" d="M18.3,281.26l-.71.07-.08-.75.71-.07-.14-1.37.9-.1.14,1.37,1.42-.15.08.75-1.42.15.34,3.21c.06.54.28.7.83.65l.67-.07.08.77-.81.09c-.96.1-1.55-.24-1.67-1.33l-.34-3.21Z"/>
      <path class="cls-1" d="M27.05,285.1l-.9.09-.08-.8c-.29.6-.92.99-1.65,1.07-1.25.13-2.32-.54-2.48-2.1l-.34-3.19.89-.09.32,3.07c.12,1.1.78,1.6,1.7,1.51.93-.1,1.5-.74,1.38-1.91l-.31-2.99.9-.09.57,5.45Z"/>
      <path class="cls-1" d="M29.48,284.84l-.9.09-.57-5.45.9-.1.09.88c.24-.64.79-1.08,1.66-1.17l.1.93-.24.02c-.87.09-1.48.55-1.35,1.81l.31,2.96Z"/>
      <path class="cls-1" d="M33.96,278.77c.85-.09,1.69.27,2.13.85l-.3-2.88.92-.1.77,7.35-.91.1-.11-1.02c-.26.64-.92,1.22-1.91,1.33-1.46.15-2.7-.87-2.88-2.56-.18-1.7.83-2.91,2.3-3.07ZM34.21,279.54c-.99.1-1.76.92-1.63,2.2.13,1.28,1.06,1.95,2.05,1.84.99-.11,1.77-.94,1.64-2.22-.13-1.26-1.07-1.93-2.06-1.82Z"/>
      <path class="cls-1" d="M40.68,278.06c1.01-.11,1.76.34,2.14.87l-.1-.99.92-.1.57,5.45-.92.1-.11-1.01c-.27.62-.92,1.21-1.92,1.32-1.45.15-2.7-.87-2.87-2.56-.18-1.7.83-2.91,2.29-3.07ZM40.94,278.83c-.99.1-1.76.92-1.63,2.2s1.06,1.95,2.05,1.84,1.77-.94,1.64-2.22c-.13-1.26-1.07-1.93-2.06-1.82Z"/>
      <path class="cls-1" d="M48.92,277.29l.93-.1-2.44,8.36-.93.1.8-2.74-2.76-5.16,1-.11,2.17,4.23,1.23-4.59Z"/>
    </g>
  </g>
</svg>