<?xml version="1.0" encoding="UTF-8"?>
<svg id="Layer_2" data-name="Layer 2" xmlns="http://www.w3.org/2000/svg" viewBox="0 0 79.23 75.01">
  <defs>
    <style>
      .cls-1 {
        fill: none;
        stroke: #231f20;
        stroke-width: .82px;
      }

      .cls-2 {
        fill: #231f20;
      }

      .cls-3 {
        fill: #fff;
      }

      .cls-4 {
        fill: #c7c8ca;
      }
    </style>
  </defs>
  <g id="Layer_1-2" data-name="Layer 1">
    <polygon class="cls-4" points="76.59 0 70.17 73.37 0 67.23 5.36 5.95 9.02 10.18 10.68 6.18 15.29 8.95 18.46 4.01 23.14 7.27 27.52 3.26 33.22 7.2 35.82 1.97 40.56 5.95 44.23 1.29 46.95 5.65 52.51 1.75 55.95 4.92 58.99 1.87 64.65 5.66 67.26 1.1 71.25 4.81 76.59 0"/>
    <polygon class="cls-3" points="78.73 1.19 72.31 74.56 2.14 68.42 7.51 7.15 11.17 11.37 12.82 7.37 17.44 10.14 20.61 5.2 25.29 8.46 29.67 4.46 35.37 8.39 37.96 3.17 42.71 7.14 46.37 2.48 49.1 6.84 54.65 2.94 58.09 6.11 61.14 3.06 66.8 6.85 69.4 2.29 73.39 6 78.73 1.19"/>
    <polygon class="cls-1" points="78.73 1.19 72.31 74.56 2.14 68.42 7.51 7.15 11.17 11.37 12.82 7.37 17.44 10.14 20.61 5.2 25.29 8.46 29.67 4.46 35.37 8.39 37.96 3.17 42.71 7.14 46.37 2.48 49.1 6.84 54.65 2.94 58.09 6.11 61.14 3.06 66.8 6.85 69.4 2.29 73.39 6 78.73 1.19"/>
    <path class="cls-2" d="M26.67,54.42c8.52-7.04,17.6-14.02,17.6-20.79,0-2.92-1.32-4.78-4.18-4.78s-4.45,2.2-4.45,5.99h-9.07c.27-9.73,6.6-13.91,13.91-13.91,9.13,0,13.2,5.33,13.2,12.1,0,8.8-7.86,15.84-14.24,20.73h14.85v7.64h-27.61v-6.98Z"/>
  </g>
</svg>