<?xml version="1.0" encoding="UTF-8"?>
<svg id="Layer_2" data-name="Layer 2" xmlns="http://www.w3.org/2000/svg" viewBox="0 0 79.23 75.01">
  <defs>
    <style>
      .cls-1 {
        fill: none;
        stroke: #231f20;
        stroke-width: .82px;
      }

      .cls-2 {
        fill: #231f20;
      }

      .cls-3 {
        fill: #fff;
      }

      .cls-4 {
        fill: #c7c8ca;
      }
    </style>
  </defs>
  <g id="Layer_1-2" data-name="Layer 1">
    <polygon class="cls-4" points="2.64 0 9.06 73.37 79.23 67.23 73.87 5.95 70.21 10.18 68.56 6.18 63.94 8.95 60.77 4.01 56.09 7.27 51.71 3.26 46.01 7.2 43.42 1.97 38.67 5.95 35 1.29 32.28 5.65 26.72 1.75 23.28 4.92 20.24 1.87 14.58 5.66 11.97 1.1 7.99 4.81 2.64 0"/>
    <polygon class="cls-3" points=".5 1.19 6.92 74.56 77.09 68.42 71.73 7.15 68.07 11.37 66.41 7.37 61.8 10.14 58.63 5.2 53.94 8.46 49.56 4.46 43.86 8.39 41.27 3.17 36.52 7.14 32.86 2.48 30.14 6.84 24.58 2.94 21.14 6.11 18.09 3.06 12.44 6.85 9.83 2.29 5.84 6 .5 1.19"/>
    <polygon class="cls-1" points=".5 1.19 6.92 74.56 77.09 68.42 71.73 7.15 68.07 11.37 66.41 7.37 61.8 10.14 58.63 5.2 53.94 8.46 49.56 4.46 43.86 8.39 41.27 3.17 36.52 7.14 32.86 2.48 30.14 6.84 24.58 2.94 21.14 6.11 18.09 3.06 12.44 6.85 9.83 2.29 5.84 6 .5 1.19"/>
    <path class="cls-2" d="M49.44,20.19l-9.73,13.31c1.32-.27,2.53-.38,3.63-.38,3.41,0,6.32,1.26,8.8,3.79,2.47,2.53,3.68,5.55,3.68,9.07,0,4.07-1.43,7.48-4.34,10.12-2.92,2.69-6.6,4.01-11.05,4.01-4.12,0-7.48-1.26-10.17-3.9-2.69-2.64-4.07-5.99-4.07-10.06,0-2.92.71-5.88,2.03-8.96,1.32-3.08,2.8-5.77,4.45-8.03l6.38-8.96h10.39ZM45.15,41.48c-1.16-1.21-2.53-1.81-4.18-1.81-1.81,0-3.3.61-4.56,1.81-1.21,1.27-1.81,2.75-1.81,4.51s.6,3.25,1.81,4.45c1.21,1.21,2.75,1.82,4.56,1.82,1.59,0,2.97-.66,4.12-1.87,1.15-1.26,1.76-2.75,1.76-4.45s-.6-3.25-1.7-4.46Z"/>
  </g>
</svg>