<?xml version="1.0" encoding="UTF-8"?>
<svg id="Layer_2" data-name="Layer 2" xmlns="http://www.w3.org/2000/svg" viewBox="0 0 65.93 205.15">
  <defs>
    <style>
      .cls-1 {
        fill: #6cbe45;
      }

      .cls-2 {
        opacity: .8;
      }
    </style>
  </defs>
  <g id="Layer_1-2" data-name="Layer 1">
    <g class="cls-2">
      <path class="cls-1" d="M62.52,30.86l-.27.02c-.02-.58-.27-1.23-.54-1.76-.38.42-.24.89-.62,1.1-.07-1.93.55-3.98-1.16-4.98.09-.15.25-.22.41-.29,1.14.79,1.08,2.03,1.45,3.22.3.97.57,1.73.73,2.68Z"/>
      <path class="cls-1" d="M62.52,30.86c.39,2.38.34,4.8.29,7.24-.13-.11-.31-.22-.47-.28.04-2.31-.01-4.62-.09-6.93l.27-.02Z"/>
      <path class="cls-1" d="M59.93,25.25c1.71,1,1.09,3.05,1.16,4.98.38-.21.24-.68.62-1.1.26.52.52,1.18.54,1.76.08,2.31.13,4.62.09,6.93-2.63-.96-5.07-.35-7.14,1.49-2.04-1.43-2.93-.94-3.45-3.45l-.28-1.38c-.23-1.11-.64-2.11-1.62-2.91-.69-.57-1.23-1.62-.45-2.4.62-.61,2.12-.51,2.56.28.29.53.63.78.89,1.12,1.62,2.12,6-.87,6.62-2.03-.9-.05-.77,1.03-1.45.88.23-1.07.14-2.18.26-3.39.07-.67,1.17-.72,1.64-.78Z"/>
      <path class="cls-1" d="M51.48,34.47l.28,1.38c.51,2.51,1.41,2.02,3.45,3.45,0,.07.01.14,0,.2-.7-.14-1.16-.8-1.92-.75-.08,0-.17-.03-.26-.03-.12-.49-.53-.68-1-.67s-.57.41-.87.72l-.22.02c-.13-2.78.67-1.28.27-4.34l.27.02Z"/>
      <path class="cls-1" d="M40.04,23.67c-.14.14-.29.36-.15.5l.39.4c3.53,3.58,1.88,10.96-1.18,15.56-1.38,2.07-3.53,2.83-5.79,2.49-.94-.14-1.97-.46-3.07-.31-.94.13-1.1,1.22-1.01,1.99-4.52-.98-9.07-1.74-13.79-2.16-.42-.04-.77-.18-.85-.51.69-.05,1.61-.46,2.35-.18.83.32,1.45.56,2.39.31,1.88-.49,3.45-1.56,4.93-2.96.22.29.11.63.22.91.63,1.57,3.48-4.42,3.14-5.04.22.04.43.05.65.03.31.49.92.55,1.43.7.21.14.4.46.66.48.75.05,2.21-.95,1.64-1.93-.24.48-.26,1.08-.71,1.25-.54.21-1.07.21-1.58.19l-.65-.8c-.05-.06-.93-4.57-.42-5.96.29-.8.97-1.23,1.69-1.26,1.82-.08,1.68,1.99,2.32,2.23.12.05.18.21.3.17.86-.3,1.09-1.92,1.31-2.83.89-.43,1.33-1.4,1.64-2.31.08-.25.39-.45.38-.75,1.27-.45,1.64-1.9,2.06-3.12.3-.65.91,3.27,1.72,2.91ZM30.5,30.24c-.04-.42.25-.69.47-.75.15-.04.28.04.53,0-.3-.26-.61-.29-.89-.22-1.03.26-.25,5.58.13,4.67.06-.15.12-.29.1-.46l-.34-3.25Z"/>
      <path class="cls-1" d="M24.48,39.71l.3-.29c.09-.09.42-.04.55-.25.9-1.47,1.72-2.94,2.07-4.54.09-.1.17-.08.22.04.35.62-2.51,6.61-3.14,5.04Z"/>
      <path class="cls-1" d="M33.31,42.61v.24h-.24c-.38,0-.77-.04-1.15.03-.08.01-.21-.05-.29-.07-.42-.13-1.08-.48-1.51-.09-.46.41-.51,1.1-.65,1.58-.08-.01-.16.02-.24,0-.09-.76.07-1.86,1.01-1.99,1.1-.15,2.13.17,3.07.31Z"/>
      <path class="cls-1" d="M42.35,32.05c.02.08,0,.2,0,.27-.64.88-.3,2.09-.68,3.07-.14.36-.22.76-.19,1.15-.65,1.35-1.14,2.73-2.11,4.01-1.38,1.81-3.68,2.92-5.82,2.31-.07-.02-.16,0-.24,0v-.24c2.26.34,4.41-.42,5.79-2.49,3.06-4.6,4.72-11.98,1.18-15.56.08-.12.15-.12.22,0,1.36,2.29,1.33,4.94,1.84,7.49Z"/>
      <g>
        <path class="cls-1" d="M50.59,195.01c.06-.03.17,0,.24,0,0,.08-.05.27,0,.35-.03-.03,4.3.41,5.27,1.82.4,2.15-6.04,3.99-7.84,4.46-5.52,1.44-11.06,2.44-16.63,2.97-1.22.12-5.32.31-4.77-2.09.18-.78.49-1.42.69-2.07,7.14,1.07,13.53,0,18.52-5.55,1.14.09,3.52.54,4.52.11Z"/>
        <path class="cls-1" d="M43.14,169.33c.12-.03.22.07.22.27.09,6.39.27,12.66.77,19.03.19,2.46,3.26,2.29,2.07,5.94-.03.1-.18.2-.14.34-4.99,5.54-11.37,6.62-18.52,5.55-.1-.2-.3-.31-.46-.44-1.07-.89-.2-3.71-.95-4.76,0-.06-.02-.19,0-.26.25-.75.04-1.6,0-2.38,0-.16-.02-.32-.01-.48.05-1.71-.14-3.46.1-5.29.37-2.74.69-5.37.61-8.16-.14-4.78-.03-9.37.16-14.16.16-4,.17-7.84-.23-11.67l.19-.02c.15.53,2.16,3.09,1.25,3.31-.35-.17-.18-.88-.84-.74.54,7.45-.45,13.98-.08,21.6.17,3.59-.23,6.95-.62,10.47s.25,6.91.33,10.41c.03,1.11.19,1.86,1.39,2.17,1.36.35,2.8.14,4.22.19,2.84.1,5.42-.49,7.94-1.77,1.89-.96,3.73-2.04,4.91-3.81.81-1.22.68-2.54-.41-3.46s-1.43-2.05-1.49-3.41l-.54-12.7c-.09-2.01-.16-3.87.13-5.76Z"/>
        <path class="cls-1" d="M54.17,112.2c-1.21,1.72-3.24,3.13-3.38,3.85-.11.31-.52.09-.73.23-1.64,1.33-3.45,2.44-5.47,3.36-3.78,1.73-8.03,3.46-12.26,3.02-3.75-.39-7.33-1.14-11.02-1.83-.19-.04-.34.26-.24.35-.06-.03-.14-.01-.2-.03-.1-.25-.35-.6-.74-.64-1.71-.15-3.07-.99-4.6-1.59-1.71-.67-3.3-1.25-4.7-2.53-.39-.36-.85-.67-1.29-.81-.16-.05-.29-.18-.43-.25-.32-.68-.95-1.13-1.46-1.67.04-.09.12-.17.21-.21,2.08,2.33,6.87,4.92,10.15,5.96,4.13,1.31,8.36,1.78,12.62,2.55,2.59.47,5.1.33,7.62-.39,3.16-.91,6.12-2.13,8.97-3.79,2.67-1.56,4.87-3.63,6.86-5.85.15.03.12.18.09.3Z"/>
        <path class="cls-1" d="M49.57,123.91l-.38,2.59-3.98,26.26c-.84,5.51-1.33,10.77-1.62,16.27,0,.13-.42.07-.4.06.22-5.68.85-11.25,1.73-17.04l3.92-25.75.38-2.4h.35Z"/>
        <path class="cls-1" d="M31.63,205.09v-.48c5.57-.53,11.11-1.52,16.63-2.97,1.8-.47,8.24-2.31,7.84-4.46-.02-.11.18-.22.26-.26.47.89-.16,1.8-1.04,2.35-5.95,3.74-16.82,4.92-23.69,5.82Z"/>
        <path class="cls-1" d="M27.55,200.45c-.2.65-.51,1.29-.69,2.07-.55,2.4,3.55,2.21,4.77,2.09v.48c-1.16.15-4.02.08-4.82-1.28-.91-1.55.22-2.42.28-3.81.16.14.36.25.46.44Z"/>
        <path class="cls-1" d="M50.79,116.04c-.52,2.6-.84,5.24-1.22,7.86h-.35s1.11-7.05,1.11-7.05c.03-.18.09-.32.03-.4-.08-.1-.19-.16-.29-.18.2-.13.62.08.73-.23Z"/>
        <path class="cls-1" d="M56.36,196.93c-.08.04-.28.15-.26.26-.96-1.41-5.29-1.86-5.27-1.82-.06-.07,0-.26,0-.35,1.34.11,4.87.65,5.53,1.91Z"/>
        <path class="cls-1" d="M50.59,195.01c-1,.43-3.38-.02-4.52-.11-.04-.14.1-.23.14-.34,1.45.32,2.99-.04,4.39.44Z"/>
        <g>
          <path class="cls-1" d="M20.88,121.14c.6.67,1.03,1.48,1.21,2.36-1.21-.25-4.89-2.45-6.22-1.08,2.41.1,4.41.44,6.19,1.59.17.25.16.58.67.97.03-1.39-.3-3.13-1.65-3.81-.1-.09.05-.38.24-.35,3.69.69,7.27,1.44,11.02,1.83,4.23.44,8.48-1.3,12.26-3.02,2.02-.92,3.83-2.03,5.47-3.36.1.02.21.08.29.18.06.08,0,.22-.03.4l-1.11,7.05-.38,2.4-3.92,25.75c-.88,5.79-1.52,11.36-1.73,17.04,0,.08-.03.16-.04.24-.29,1.89-.21,3.75-.13,5.76l.54,12.7c.06,1.36.42,2.5,1.49,3.41s1.22,2.24.41,3.46c-1.18,1.77-3.01,2.84-4.91,3.81-2.53,1.29-5.1,1.87-7.94,1.77-1.42-.05-2.86.16-4.22-.19-1.2-.3-1.36-1.06-1.39-2.17-.09-3.5-.72-6.92-.33-10.41s.79-6.88.62-10.47c-.37-7.62.63-14.15.08-21.6.66-.15.49.57.84.74.91-.23-1.1-2.79-1.25-3.31-.17-.63-.66-.51-1.29-.83-.76-.38-.31-1.6.28-2.02.52-.38.87-.86.79-1.52l-1.7-13.12c-.18-1.39-.28-2.66-.6-3.92-.55-2.17-.57-4.52-1.61-6.62.13,2.4,1.1,4.48,1.37,6.62.19,1.55.26,3.11.56,4.79.75,4.16,1.14,8.27,1.62,12.45.07.63-2.64,2.34-1.03,3.63.42.34,1.07.24,1.41.57.4,3.84.38,7.67.23,11.67-.19,4.79-.3,9.38-.16,14.16.08,2.8-.23,5.43-.61,8.16-.25,1.83-.05,3.58-.1,5.29l-3.92-.4c-1.94-.2-3.91.12-5.69.64-1.19-.1-2.42.15-3.6-.04s-2.25-.43-3.36-.71c-.07-.02-.17-.01-.24,0-.32-.35-1.68-.39-1.53-1.66.22-1.9.43-3.72.76-5.49.29-1.54.37-3.06.76-4.65.48.72.39,1.37.53,1.94.1.42-.34.97.23,1.4.39-.5.14-.94.2-1.34.02-.15-.06-.31-.05-.46,0-.11,0-.24-.13-.26.28-1.12-.51-2.21-.57-3.41l-.5-10.51c-.46-9.82.46-10.12,1.19-18.73.02-.2.13-.36.28-.24l1.18,2.9c.15-1.36-.33-2.55-1.23-3.37-.5-.57-.45-1.45-.73-2.13-.84-2.05,2.24-2.25,2.03-3.45-.17-.98-1.53-.54-2.18-1.66s.37-2.1.33-3.12l-.49-13.75c-.08-2.18-.35-6.29.13-8.07.44.14.9.46,1.29.81,1.4,1.28,2.99,1.86,4.7,2.53,1.53.6,2.89,1.45,4.6,1.59.39.03.64.38.74.64Z"/>
          <path class="cls-1" d="M10.05,192.12c.9.19,1.91.58,2.86.5,1.16-.1,2.46.22,3.6,0,4.96-.96,4.65-.37,9.62,0,.05.79.26,1.64,0,2.38l-4.8,1.33c-.22.06-.44.11-.51.25-.04.09.01.22.03.31l-.26.06c.04-.22-.22-.23-.42-.21-4.24.59-9.07,1.34-13.04-.02-.39-.97.83-3.44,1.3-4.76.6-.03,1.13.06,1.63.16Z"/>
          <path class="cls-1" d="M9.73,145.61c.28.67.23,1.56.73,2.13.05.14,0,.33.05.46-.16-.12-.27.04-.28.24-.73,8.61-1.66,8.92-1.19,18.73l.5,10.51c.06,1.2.84,2.28.57,3.41-.02.09-.03.35.13.26-.01.15.07.31.05.46l-.44-.06c-.14-.57-.04-1.22-.53-1.94-.39,1.59-.47,3.12-.76,4.65h-.27c.93-7.56.74-9.21.25-16.81-.34-5.33-.07-10.41.84-15.65.39-2.22.45-4.32.06-6.42.1.03.21.04.31.02Z"/>
          <path class="cls-1" d="M9.55,115.56c-.48,1.77-.2,5.89-.13,8.07l.49,13.75c.04,1.02-.99,2.01-.33,3.12s2.02.67,2.18,1.66c.2,1.2-2.88,1.4-2.03,3.45-.1.02-.21.01-.31-.02-1.19-2.34,2.62-2.75,1.77-3.51-.59-.54-1.58-.47-1.94-1.23-.53-1.13-.17-2.37.33-3.5l-.46-8.35-.16-6.12c-.04-1.66-.27-3.36,0-5,.15-.92.05-1.75.14-2.57.15.07.28.2.43.25Z"/>
          <path class="cls-1" d="M20.59,196.94c-3.91.84-7.94,1.46-11.97.63-.72-.15-1.35-.31-1.69-.83.06,0,.15-.04.2-.02,3.97,1.36,8.8.61,13.04.02.21-.03.47-.01.42.21Z"/>
          <path class="cls-1" d="M8.54,184.47c-.33,1.77-.54,3.59-.76,5.49-.15,1.28,1.21,1.31,1.53,1.66-.4.04-.77,0-1.11-.18-1.69-.91-.06-5.87.07-6.96h.27Z"/>
          <path class="cls-1" d="M9.31,191.62c.07,0,.17-.01.24,0,.14.19.31.35.5.49-.5-.1-1.03-.19-1.63-.16-.47,1.32-1.69,3.79-1.3,4.76-.06-.02-.14.03-.2.02-.13-.2-.44-.23-.31-.68.64-2.39,1.19-2.88,1.58-4.61.35.19.71.22,1.11.18Z"/>
          <path class="cls-1" d="M26.13,195c-.01.06,0,.19,0,.26-1.78.5-3.48,1.24-5.29,1.63-.02-.09-.07-.22-.03-.31.07-.14.29-.19.51-.25l4.8-1.33Z"/>
          <path class="cls-1" d="M26.95,152.83l-.19.02c-.34-.33-.99-.23-1.41-.57-1.61-1.29,1.1-3,1.03-3.63-.48-4.18-.87-8.29-1.62-12.45-.3-1.68-.37-3.24-.56-4.79h.24c.32,1.25.42,2.53.6,3.92l1.7,13.12c.09.66-.27,1.14-.79,1.52-.58.42-1.03,1.64-.28,2.02.63.32,1.12.2,1.29.83Z"/>
          <path class="cls-1" d="M24.43,131.41h-.24c-.27-2.14-1.24-4.22-1.37-6.62,1.04,2.1,1.05,4.45,1.61,6.62Z"/>
          <path class="cls-1" d="M22.06,124.01c.24.12.24-.15.2-.31-.02-.07-.15-.12-.17-.21-.18-.88-.61-1.69-1.21-2.36.06.02.14,0,.2.03,1.35.68,1.68,2.42,1.65,3.81-.51-.38-.49-.72-.67-.97Z"/>
          <path class="cls-1" d="M26.12,192.13c0,.16,0,.32.01.48-4.97-.37-4.66-.96-9.62,0v-.24c1.77-.53,3.75-.84,5.69-.64l3.92.4Z"/>
          <path class="cls-1" d="M12.91,192.34v.28c-.95.08-1.96-.31-2.86-.5-.19-.14-.36-.3-.5-.49,1.11.28,2.23.53,3.36.71Z"/>
          <path class="cls-1" d="M16.51,192.37v.24c-1.14.22-2.44-.1-3.6,0v-.28c1.18.18,2.41-.06,3.6.04Z"/>
          <path class="cls-1" d="M10.51,148.2c-.06-.14,0-.33-.05-.46.9.82,1.38,2,1.23,3.37l-1.18-2.9Z"/>
          <path class="cls-1" d="M10.27,181.81c-.06.41.19.84-.2,1.34-.58-.43-.13-.98-.23-1.4l.44.06Z"/>
          <path class="cls-1" d="M10.22,181.35c-.16.09-.15-.17-.13-.26.13.02.13.15.13.26Z"/>
          <path class="cls-1" d="M22.09,123.5c.02.08.15.14.17.21.05.15.04.42-.2.31-1.78-1.15-3.78-1.49-6.19-1.59,1.32-1.37,5.01.83,6.22,1.08Z"/>
        </g>
      </g>
      <path class="cls-1" d="M43.62,36.83l-.23.24c-.62-.22-1.25-.48-1.9-.53-.03-.38.05-.79.19-1.15-.06,1.37.91.75,1.94,1.44Z"/>
      <g>
        <path class="cls-1" d="M.53,20.53c-.12.71-.14,1.56-.11,2.42.17,4.89,1.73,9.52,4.35,13.59.96,1.49,4.08,2.33,6.21,3.48s4.4,1.26,6.72.63c.18.31.03.56.14.66.19.16.56.15.81.11,2.43-.32,4.27-1.82,6.02-3.5.24.56.03,1.04.11,1.49l-.3.29c-.11-.28,0-.62-.22-.91-1.48,1.4-3.05,2.46-4.93,2.96-.94.24-1.56.01-2.39-.31-.74-.29-1.66.13-2.35.18l-.48.03-2.61-.83c-1.67-.53-3.15-1.48-4.78-2.15-1.21-.5-2.1-1.33-2.76-2.44C1.67,32.39.36,28.15.02,23.68c-.09-1.2.19-2.14.3-3.14h.21Z"/>
        <path class="cls-1" d="M20.81,2.1c-.13.1-.54.01-.55.27s.11.5.29.6c-.6.33-1.04.93-1.87,1.15-.11-.67,2.72-2.26,1.72-3.5-1.52.2-4.05,2.9-4.12,4.59-3.94-.68-10.76,2.62-13.6,5.5.62.53.89-.51,1.57-.3-.29.75-1.06.99-1.45,1.45-.21-.23-.54-.29-.84-.26-.09-.18-.36-.29-.23-.51.09-.15.13-.37.3-.53,3.49-3.06,8.98-6.12,13.76-6.03.94-2.07,2.62-3.94,4.76-4.53.64.18.73,1.73.28,2.1Z"/>
        <path class="cls-1" d="M39.96,13.28l-.4.02c-.17-1.11-1.12-1.95-2.22-2.13-.2-.03-.2-.32-.27-.45.89-.05,1.69-.2,2.91.02-.43-1.31-1.47-2.38-2.69-3.09-2.9-1.68-3.23-4.54-9.5-5.33v-.51c7.8,1.7,6.65,3.74,9.49,5.22,1.97,1.04,3.47,2.94,3.72,5.11-1.02-.39-1.24-1.22-2.25-.91.64.62,1.11,1.26,1.21,2.05Z"/>
        <path class="cls-1" d="M2.78,11.86c-.58.69-2.83,2.82-2.38,3.48.22.33.63.26,1,.23.85-.05.6-1.09,1.46-1.29-1.07,2.1-1.95,4.06-2.33,6.25h-.21c.18-1.53.56-2.98,1.27-4.53-.68-.17-1.01-.06-1.35-.22-.22-.1-.3-.61-.17-.96.64-1.72,2.35-2.34,1.87-3.22.31-.03.63.02.84.26Z"/>
        <path class="cls-1" d="M27.79,1.8v.51c-.85-.05-1.77.52-2.76.3l1.59-.69c-2.14-.49-4.18,0-6.07,1.04-.18-.1-.3-.34-.29-.6s.42-.17.55-.27c-.11.15.06.2.2.21,2.22-1.27,4.55-1,6.78-.51Z"/>
        <path class="cls-1" d="M39.96,13.28c.11.9-.07,1.79.04,2.7l.03.28c-.84.12-.61,1.65-1.24,2.12-.38-.32-.09-.78-.11-1.17.66-.06.99-3.15.87-3.91l.4-.02Z"/>
        <path class="cls-1" d="M20.55,2.97c1.89-1.04,3.93-1.54,6.07-1.04l-1.59.69c1,.22,1.92-.35,2.77-.3,6.27.79,6.6,3.66,9.5,5.33,1.22.71,2.26,1.78,2.69,3.09-1.22-.22-2.03-.07-2.91-.02-.44-.21-.62-.89-1.1-1.04.38,1.09,1.37,1.91,1.65,2.93.69,2.57.62,5.27.35,7.9-.1.99-.69,2.07-1.29,2.91-.2.12-.36-.35-.25-.49.2-.74.22-1.52.26-2.4.16-3.27-.37-6.63-2.35-9.09-.5-.62-.72-1.58-1.74-1.86.59.76,1.1,1.44,1.73,2.04,1.57,3.11,2.16,6.49,1.81,10.13-.1,1.01-.57,1.93-.5,2.89-.51.45-.43,1.56-1.23,1.61.42-3.68.42-.99.04-4.29-.19-1.62-.48-3.19-.89-4.85-.29,1.83.53,3.37.51,5.02,0,.46.2.99.16,1.52-.17,1.93-.46,3.71-1.19,5.59-.34-.09-.25-.46-.46-.56-.22-.95-1.11-1.78-2.05-1.81-1.05-.03-2.03.62-2.37,1.73-2.53,1.78-1.9,3.83-.78,6.03-.35,1.6-1.17,3.07-2.07,4.54-.13.21-.46.16-.55.25-.08-.45.14-.93-.11-1.49-1.75,1.69-3.58,3.18-6.02,3.5-.25.03-.62.05-.81-.11-.11-.1.04-.35-.14-.66-2.32.62-4.65.49-6.72-.63s-5.26-1.99-6.21-3.48C2.16,32.47.59,27.84.42,22.95c-.03-.86-.01-1.71.11-2.42.38-2.18,1.26-4.15,2.33-6.25-.86.19-.61,1.23-1.46,1.29-.37.02-.78.09-1-.23-.45-.66,1.8-2.8,2.38-3.48.39-.47,1.16-.7,1.45-1.45-.67-.22-.95.83-1.57.3,2.84-2.88,9.66-6.18,13.6-5.5.07-1.68,2.6-4.39,4.12-4.59,1,1.24-1.83,2.83-1.72,3.5.84-.22,1.28-.82,1.87-1.15ZM2.79,13.72c.03.38.25.41.4.34.13-.07.19-.22.12-.36s-.27-.27-.52.02ZM9,22.34c-.02-2.42.81-4.35,1.22-6.61-1.62,2.53-1.99,5.76-1.22,8.52.62-.59,0-1.19,0-1.91ZM11.99,25.1c.26.65.28,1.45.92,2.03,0-.73-.36-1.38-.68-2.02-.22-1.95-.6-3.91-.97-5.94-.17-.92.36-1.8-.13-2.66-.77,2.93.21,5.74.86,8.6Z"/>
        <path class="cls-1" d="M39.56,13.29c.11.76-.22,3.85-.87,3.91-.09-1.66-.14-3.32-.84-4.84-.18-.4-.41-.78-.5-1.21,1.09.18,2.05,1.02,2.22,2.13Z"/>
        <path class="cls-1" d="M37.07,10.72c.07.12.06.41.27.45.09.43.32.81.5,1.21-.08.07-.15.15-.22.24-.27-1.01-1.27-1.84-1.65-2.93.48.15.66.83,1.1,1.04Z"/>
        <path class="cls-1" d="M38.68,17.2c.02.39-.27.85.11,1.17l.02.46c0,.08.03.19,0,.27-.06.16-.19.31-.21.48-.04.35-.12.69-.28,1l-.35-.06c.27-2.64.35-5.34-.35-7.9.07-.08.14-.16.22-.24.7,1.52.75,3.18.84,4.84Z"/>
        <path class="cls-1" d="M32.59,28.67c.07.31.07.63.04.94-.64-.24-.51-2.31-2.32-2.23-.72.03-1.4.47-1.69,1.26-.51,1.38.38,5.9.42,5.96l.65.8c-.51-.15-1.12-.21-1.43-.7.3-.08.3-.38.25-.73l-.64-4.81c-1.58,1.57-1.16,3.99.39,5.54-.22.01-.44,0-.65-.03-.06-.12-.13-.14-.22-.04-1.12-2.2-1.76-4.25.78-6.03.34-1.11,1.32-1.76,2.37-1.73.95.02,1.83.86,2.05,1.81Z"/>
        <path class="cls-1" d="M36.43,22.93c-.08.3-.31.59-.16.94.01.3-.3.5-.38.75h-.24c-.08-.95.4-1.87.5-2.88.35-3.64-.24-7.01-1.81-10.13v-.18c1.99,2.46,2.53,5.83,2.36,9.09-.04.88-.07,1.66-.26,2.4Z"/>
        <path class="cls-1" d="M12.23,25.11h-.24c-.65-2.86-1.63-5.68-.86-8.61.5.86-.03,1.75.13,2.66.37,2.04.74,4,.97,5.94Z"/>
        <path class="cls-1" d="M9,22.34c0,.72.63,1.31,0,1.91-.77-2.75-.4-5.98,1.22-8.52-.42,2.27-1.24,4.2-1.22,6.61Z"/>
        <path class="cls-1" d="M34.42,26.25c-.18.17-.12.48-.17.7-.21.92-.44,2.53-1.31,2.83-.13.04-.18-.12-.3-.17.02-.31.03-.64-.04-.94.21.1.13.47.46.56.73-1.87,1.02-3.66,1.19-5.59.05-.53-.16-1.06-.16-1.52.12-.07.24-.13.37-.17.38,3.31.37.61-.04,4.29Z"/>
        <path class="cls-1" d="M34.46,21.96c-.13.04-.26.1-.37.17.02-1.65-.81-3.19-.51-5.02.41,1.66.7,3.23.89,4.85Z"/>
        <path class="cls-1" d="M38.32,20.57c-.01.06.02.13,0,.19-.42,1.22-.79,2.67-2.06,3.12-.14-.35.08-.64.16-.94-.11.14.04.61.25.49.6-.84,1.19-1.93,1.29-2.91l.35.06Z"/>
        <path class="cls-1" d="M35.88,24.63c-.3.91-.75,1.88-1.64,2.31.05-.21,0-.53.17-.7.8-.05.72-1.16,1.23-1.61h.24Z"/>
        <path class="cls-1" d="M34.34,11.44v.18c-.64-.6-1.15-1.28-1.74-2.04,1.02.28,1.24,1.24,1.74,1.86Z"/>
        <path class="cls-1" d="M11.99,25.1h.24c.32.64.69,1.3.68,2.03-.65-.58-.66-1.38-.92-2.03Z"/>
        <path class="cls-1" d="M2.79,13.72c.25-.29.45-.16.52-.02s0,.29-.12.36c-.14.08-.37.05-.4-.34Z"/>
      </g>
      <path class="cls-1" d="M30.5,30.24l.34,3.25c.02.17-.04.31-.1.46-.38.9-1.16-4.41-.13-4.67.28-.07.59-.04.89.22-.26.03-.38-.05-.53,0-.22.06-.52.33-.47.75Z"/>
      <path class="cls-1" d="M29.7,35.4c.51.02,1.04.01,1.58-.19.45-.17.47-.77.71-1.25.58.98-.89,1.98-1.64,1.93-.26-.02-.45-.33-.66-.48Z"/>
      <g>
        <path class="cls-1" d="M3.02,47.61c-.46,1.55-1.68,3.53-1.55,5.3.4,5.26,2.46,14.97,4.25,19.7-.05.05-.11.09-.17.13-1.18-2.74-2.18-5.54-2.79-8.65-.73-3.7-1.55-7.37-1.72-11.16-.1-2.06,1.01-3.88,1.88-5.45.08-.02.08.07.1.12Z"/>
        <path class="cls-1" d="M34.53,59.36c-.17,1.08-.43,8.76.43,9.87l-.15.3c.39,2.99,2.06,8.63,4.95,10.07l-.2.19c-.57-.41-1.27-.56-1.83-1.3-3.81-5.1-4.5-13.51-3.41-19.33.12-.02.18.1.21.21Z"/>
        <path class="cls-1" d="M14.59,41.62c.08.33.43.48.85.51,4.72.42,9.27,1.18,13.79,2.16.08.02.16-.01.24,0-.04.15.03.33,0,.48-.08-.01-.17.02-.24,0-4.02-1.12-8.17-1.62-12.45-2.01-1.51-.14-3.03-.6-4.44-.03l-.65,3.45-.19.02c-.65-.36-.18-.61-.45-1.62.48-.22.58-.8.65-1.37.2-1.77,1.86-.83,2.43-1.56l.48-.03Z"/>
        <path class="cls-1" d="M7.86,113.43c-.09.04-.17.12-.21.21-1.3-1.37-2.12-1.36-1.57-3.53.5-1.97,1.11-3.83,1.32-5.86.34-3.27.58-6.44,1.01-9.57h.22c-.76,3.47-.07,9.14-2.17,15.5-.29.88-.02,1.67.6,2.36l.8.89Z"/>
        <path class="cls-1" d="M49.39,73.33c.64,5.2,2.02,10.28,2.92,15.45-.04.14-.1.12-.18,0-1.53-5.06-2.38-10.25-3.22-15.46h.48Z"/>
        <path class="cls-1" d="M33.55,42.85c.03,1.98-.24,3.77-1.18,5.91l7.21,3.03v.42c-2.82.22-4.72,5.07-5.06,7.14-.02-.1-.09-.22-.21-.21.56-3,1.69-5.54,4.62-7.13-1.02-.57-4.08-2.04-4.62-1.78,0-.19-.09-.39-.28-.46-1.12-.38-2.18-.98-3.37-.7.04-.1-.03-.44.09-.4.44.16.63.02.9-.08s.57-.11.67-.55l.59-2.75c.19-.87.3-1.67.15-2.45h.24c.08,0,.17-.02.24,0Z"/>
        <path class="cls-1" d="M9.29,44.76l-.02.18c-.12.08-.25.25-.16.46l1.06,2.34c.57,1.27,1.06,2.44,2.02,3.33-.06.03-.11.07-.14.12-.78-.53-1.33-1.06-1.77-2.09l-1.66-3.94c-2.73.17-4.16.4-5.6,2.45-.02-.05-.02-.14-.1-.12.66-1.21,1.45-2.13,3.11-2.37,1.09-.16,2.19-.46,3.26-.36Z"/>
        <path class="cls-1" d="M55.36,101.72c.39,2.06,1.29,4.18,1.24,6.44-.04,1.59-1.61,2.88-2.43,4.04.03-.12.06-.27-.09-.3.86-.97,1.59-2.2,2.18-3.44.31-.65-.1-1.54-.33-2.09-.71,1.07-4.18,4.44-5.02,3.17-.55-.84-.69-1.77-1-2.6.22-.05.1-.37.14-.53-.06-.19,1.03,2.83,1.37,2.96.16.06.68.05.68-.33,0-.29-.16-.64-.24-.84h.19c.06.27.18.6.38.68.5.19,3.19-1.94,3.32-3.27s-.56-2.65-.75-3.87l.35-.02Z"/>
        <path class="cls-1" d="M53.73,95.62l-1.46-.2c.21-.25.3-.65.73-.38.24.15.64.27.73.59Z"/>
        <path class="cls-1" d="M54.42,98.06c-.23-.07-.35.09-.48.24-.29.31-.66.54-1.07.66-.12.09-.2.07-.11-.07.19-.12.49-.37.82-.63-1.21-.65-2.15-1.87-1.32-2.84-.07.51.04,1.14.39,1.57.22.27.82.8,1.15.28s-.26-1.19-.08-1.66c.4-.46.15-1.27-.05-1.86.05-.13-.04-.49.17-.46.23.83,1.62,3.13.57,4.77Z"/>
        <path class="cls-1" d="M8.39,80.97l-.14-.02c-.94-2.71-1.56-5.56-2.69-8.19.06-.04.11-.09.17-.13,1.03,2.72,2.42,5.38,2.67,8.35Z"/>
        <path class="cls-1" d="M8.92,84.52c-.12,0-.24-.14-.37-.15.2-.21.43-.64.2-1-.51-.79-.25-1.72-.5-2.43l.14.02c.23,2.79,2.64,4.97,2.63,6.53-.46-.8-1.38-3.01-2.11-2.98Z"/>
        <path class="cls-1" d="M10.48,88.45c-.35.1-.6.58-.71,1.04l-1.13,5.18h-.22s.4-2.89.4-2.89l1.03-3.72c.23.08.42.26.62.39Z"/>
        <path class="cls-1" d="M8.92,84.52c-2.01,2.34,2.48,3.31,2.6,4.62-.48-.14-.57-.7-1.04-.68-.21-.12-.4-.3-.62-.39-.77-.28-1.4-.83-1.7-1.62-.28-.73-.15-1.49.4-2.07.12,0,.25.15.37.15Z"/>
        <path class="cls-1" d="M53.85,93.29c-.21-.03-.12.33-.17.46-.41-1.28-.88-2.55-1.16-3.87.05-.08.11-.16.17-.24.47,1.2.83,2.42,1.17,3.64Z"/>
        <path class="cls-1" d="M54.42,98.06c.54,1.13.71,2.42.94,3.65l-.35.02c-.06-.36-.54-3.76-1.07-3.44.13-.14.25-.31.48-.24Z"/>
        <path class="cls-1" d="M11.04,44.58c.28,1.01-.19,1.26.45,1.62l-.47.07c-.11-.31-.48-.73-.67-1.12-.17-.36-.85-.13-1.09-.2l.02-.18c.5.05,1.18-.51,1.75-.18Z"/>
        <path class="cls-1" d="M52.69,89.65c-.06.08-.12.16-.17.24-.43.05-.65.43-.96.7.09-.65.72-1.11.56-1.8.07.11.14.13.18,0,.05.3.27.59.38.87Z"/>
        <path class="cls-1" d="M55.21,39.51c-.2,1.17-.44,2.35-.48,3.54-.12,3.36-.99,6.67-1.32,10.09l-.19,1.97c-.05.52-.95.87-.93,1.63-.97-.34-2.51-.61-2.45-1.46.21-.4.25-.85.4-1.27,1.3-3.84,2.62-11.13,3.06-15.25.75-.05,1.22.61,1.92.75Z"/>
        <g>
          <path class="cls-1" d="M62.35,37.82c.16.06.34.17.47.28.75.67,1.27,1.69,1.39,2.86.71,6.62.87,13.18.6,19.87-.09,2.2-.69,4.3-.52,6.49.2,2.55-.99,4.57-3.56,5.35-3.2.98-6.29.53-9.7.36,1.79-.62,1.99-.32,3.9-.26l1.4.04c1.63.05,3.31-.12,4.87-.77,2.03-.85,2.79-2.62,2.64-4.73-.17-2.24.39-4.43.48-6.69.16-3.93.05-7.73-.03-11.53l-.02-.76c-.04-2,.05-4.1-.53-6.19-1.49-1.96-6.79-.04-8.59.92h-.42c.04-1.2.29-2.38.48-3.55.01-.07,0-.14,0-.2,2.07-1.84,4.51-2.45,7.14-1.49ZM63.78,41.53c-.13-1.01-.15-2.2-.95-2.8-2.12-1.6-5.47-1.24-7.09.88-.66.86-.48,2-.54,3.08,2.98-1.47,5.51-2.59,8.58-1.16Z"/>
          <path class="cls-1" d="M53.71,55.1c1.62-.09,3.15.56,4.47,1.54-.94-.24-5.63-2.27-5.5.1.02.39.59.48.79.58-.04.09-.12.15-.21.18l-4.83-1.67c.1-.19.3-.25.49-.28s.36-.18.53-.28c.11-.06.27.02.39,0-.06.85,1.48,1.13,2.45,1.46-.02-.76.88-1.11.93-1.63h.25s.24,0,.24,0Z"/>
          <path class="cls-1" d="M55.15,43.06c.13,2.59-1.45,10.29-1.44,11.8-.09.08-.17.16-.24.26h-.25s.19-1.98.19-1.98c.33-3.42,1.19-6.73,1.32-10.09h.42Z"/>
          <path class="cls-1" d="M47.46,54.89l.02.46c-2.74-.76-5.26-2.1-7.9-3.13v-.42s7.88,3.09,7.88,3.09Z"/>
          <path class="cls-1" d="M43.59,71.85v.22c-1.66-.31-3.36-.59-5.08-1.05-1.35-.36-2.44-1.23-3.7-1.48l.15-.3c2.77,1.19,5.65,2.23,8.63,2.61Z"/>
          <path class="cls-1" d="M49.39,73.33h-.48c.4-.62-2.66-1.07-2.44-.28-.13-.05-.27-.06-.4,0,0-.7-1.1-.73-2.48-.99v-.22l7.11.92c-.45.38-1.1.05-1.31.56Z"/>
          <path class="cls-1" d="M53.26,57.5c.09-.03.17-.09.21-.18,1.35.62,4.16,1.84,4.65,3.5-1.32-1.32-3.02-2.68-4.85-3.32Z"/>
          <path class="cls-1" d="M56.33,72.82l-1.4-.04c-.01-.46.38-.68.81-.64.36.04.6.31.59.68Z"/>
          <path class="cls-1" d="M48.67,53.17c-.16.61-.63,1.16-.7,1.87.36.28.8.2.95.51-.2.03-.39.09-.49.28-.3-.11-.66-.39-.95-.48l-.02-.46c.44-.48.82-1.32.97-1.96.07.09.15.17.24.24Z"/>
          <path class="cls-1" d="M58.87,62.17c-.5-.3-.57-.66-.59-1.08.48-.06.81.51.59,1.08Z"/>
          <path class="cls-1" d="M64.27,48.33l.02.76c-.17.02-.46.05-.49-.13-.04-.25-.06-.48.11-.6.12-.08.25-.14.36-.04Z"/>
          <path class="cls-1" d="M53.71,55.1h-.24c.07-.08.15-.17.24-.25v.25Z"/>
          <path class="cls-1" d="M63.78,41.53c-3.07-1.43-5.6-.31-8.58,1.16.06-1.08-.12-2.21.54-3.08,1.62-2.12,4.97-2.48,7.09-.88.8.61.82,1.79.95,2.8Z"/>
        </g>
        <path class="cls-1" d="M12.04,51.19c2.11,1.43,4.85,2.27,7.57,2.08,1.8-.13,3.52-.76,5.24-1.21s3.25-.61,4.86-.8,3.2-.34,4.61-1.01c.54-.26,3.61,1.21,4.62,1.78-2.94,1.58-4.06,4.12-4.62,7.13-1.09,5.82-.41,14.23,3.41,19.33.56.74,1.25.89,1.83,1.3,1.58,1.13,3.72.64,5.09-.91s1.98-3.74,1.83-5.82c-.22-.8,2.84-.34,2.44.28.84,5.21,1.69,10.4,3.22,15.46.16.69-.47,1.16-.56,1.8-.96.85-1.44,2.12-2.29,3.08-.76.85-1.65,1.56-2.7,2.39.78,3.75,2,7.35,3.34,10.87.31.83.45,1.76,1,2.6.84,1.27,4.3-2.1,5.02-3.17.23.55.64,1.44.33,2.09-.59,1.23-1.32,2.47-2.18,3.44-1.99,2.23-4.18,4.29-6.86,5.85-2.85,1.67-5.81,2.89-8.97,3.79-2.52.72-5.03.86-7.62.39-4.27-.77-8.49-1.24-12.62-2.55-3.28-1.04-8.07-3.63-10.15-5.96l-.8-.89c-.62-.69-.89-1.49-.6-2.36,2.11-6.36,1.41-12.03,2.17-15.51l1.13-5.18c.1-.46.36-.93.71-1.04.47-.02.56.55,1.04.68-.11-1.31-4.61-2.28-2.6-4.62.73-.02,1.65,2.19,2.11,2.98,0-1.56-2.4-3.74-2.63-6.53-.25-2.97-1.64-5.63-2.67-8.35-1.79-4.73-3.85-14.44-4.25-19.7-.14-1.77,1.08-3.76,1.55-5.3,1.44-2.06,2.87-2.28,5.6-2.45l1.66,3.94c.44,1.04.98,1.56,1.77,2.09ZM11.56,58.5c-.12.58-.13,1.41-.82,1.43-1.26-.74-2.52-1.41-3.84-2.31.93,1.23,2.27,1.89,3.6,2.48.56.25.75.39.69,1.16-.33,4.02-.01,8.04.83,11.89.31,1.44.51,2.89,1.21,4.4-.15-1.58-.57-2.94-.83-4.39-.74-4.07-1.01-8.19-.69-12.52,4.74,1.69,8.05,1.1,12.54,1.63,1.22-.02,2.02,1,3.44,1.23-.85-1.16-2.29-1.2-3.44-1.61-.69-.25-1.21-.19-2.02-.15-.74.03-9.11-.77-10.36-1.49-.13-.62-.1-1.2-.04-1.74.25-2.06.99-3.93,1.5-6.2-1.44,1.79-1.36,4.13-1.78,6.2ZM19.03,88.03c1.66.26,3.14.81,4.86.94-3.32-1.38-6.72-1.96-10.1-1.97,1.81.57,3.5.76,5.23,1.03ZM24.41,91.06c-3.36-.87-6.42-.24-9.59-.15-.27-.07-.61-.15-.71.06-.08.16.03.33.13.36.16.05.36-.07.58-.08l9.59-.2Z"/>
        <path class="cls-1" d="M43.59,72.07c1.38.26,2.48.28,2.48.99,0,1.62-.18,3.26-1.05,4.76-1.08,1.87-3.35,2.74-5.27,1.79-2.89-1.44-4.56-7.08-4.95-10.07,1.26.25,2.36,1.12,3.7,1.48,1.72.47,3.42.74,5.08,1.05Z"/>
        <path class="cls-1" d="M46.47,73.06c.15,2.09-.4,4.2-1.83,5.82s-3.5,2.03-5.09.91l.2-.19c1.92.95,4.18.09,5.27-1.79.86-1.5,1.06-3.14,1.05-4.76.13-.06.27-.05.4,0Z"/>
        <path class="cls-1" d="M29.23,44.77c.55,1.18.06,2.54.15,3.82v.2s-.87.06-.87.06c-1.93-.71-4.05-.82-6.2-1.15-3.45-.52-6.81-1.04-10.18-.89-.21-.07-.5-.37-.45-.64l.65-3.45c1.41-.57,2.94-.11,4.44.03,4.29.39,8.43.89,12.45,2.01Z"/>
        <path class="cls-1" d="M31.63,42.81c-.24,1.52-1.15,2.8-1.23,4.51,1.04-1.38,1.26-2.96,1.51-4.44.38-.07.77-.03,1.15-.03.15.79.04,1.58-.15,2.45l-.59,2.75c-.1.45-.41.45-.67.55-.42-.46-1.05.06-1.54-.23-.48-1.58.28-3.72-.65-3.6.03-.15-.04-.33,0-.48.14-.48.18-1.17.65-1.58.44-.38,1.1-.03,1.51.09Z"/>
        <path class="cls-1" d="M30.12,48.37c-.22.15-.48.19-.74.22-.09-1.28.4-2.64-.15-3.82.07.02.16-.01.24,0,.93-.12.18,2.02.65,3.6Z"/>
        <path class="cls-1" d="M27.55,49.09l.96-.24.88-.06c.16.14.27.33.32.54-2.38-.28-14.69,3.04-16.76-.51,1.7,2.06,13.25.61,14.6.27Z"/>
        <path class="cls-1" d="M11.49,46.2l.19-.02c-.05.27.24.57.45.64,0,.16.12.34.1.5-.13.91.55.73.71,1.5-1.01-.42-1.57-1.57-1.93-2.56l.47-.07Z"/>
        <path class="cls-1" d="M43.38,37.07c2.52.88,5.08,1.62,7.69,2.19.99-.05-.14,1.45,0,2.16.11.55-.19.97-.32,1.56l-2.32,9.96c-.15.64-.53,1.47-.97,1.96l-7.88-3.09-7.21-3.03c.94-2.14,1.2-3.93,1.18-5.91,2.13.61,4.44-.5,5.82-2.31.97-1.27,1.47-2.66,2.11-4.01.65.05,1.28.32,1.9.53Z"/>
        <path class="cls-1" d="M27.55,49.09c-1.35.34-12.91,1.79-14.6-.27-.16-.78-.84-.59-.71-1.5,3.95-.27,7.92.38,11.93,1.07,1.21.21,2.4.21,3.38.7Z"/>
        <path class="cls-1" d="M11.02,46.27c.36.99.92,2.14,1.93,2.56,2.07,3.54,14.39.23,16.76.51.32.04.82.11.96-.24,1.19-.29,2.25.31,3.37.7.11.62-4.14.91-4.57.98l-2.54.43-7.3,1.54c-2.62.55-5.11-.75-7.45-1.66-.97-.89-1.45-2.06-2.02-3.33l-1.06-2.34c-.09-.21.04-.38.16-.46.24.07.91-.16,1.09.2.19.39.56.81.67,1.12Z"/>
        <path class="cls-1" d="M34.32,50.25c-1.4.66-3.05.82-4.61,1.01l-.24-.48c.43-.07,4.67-.36,4.57-.98.19.06.29.27.28.46Z"/>
        <path class="cls-1" d="M31.66,48.61c-.26.1-.45.24-.9.08-.13-.03-.06.3-.09.4-.14.35-.64.28-.96.24-.04-.21-.16-.4-.32-.54v-.2c.25-.03.51-.07.73-.22.49.3,1.12-.22,1.54.23Z"/>
        <path class="cls-1" d="M53.04,38.73l-2.24,11.7c-.24,1.27-.79,2.42-.73,3.58-.24.41-.63.76-.62,1.26-.17.1-.32.25-.53.28-.15-.31-.6-.23-.95-.51.07-.71.54-1.26.7-1.87,1-3.89,2.29-7.77,2.64-11.76.56-1,.65-2.22.73-3.36.47,0,.88.18,1,.67Z"/>
        <path class="cls-1" d="M49.84,55.28c-.11.02-.28-.07-.39,0,0-.5.38-.85.62-1.26.03.16.09.12.16,0-.14.42-.19.87-.4,1.27Z"/>
        <path class="cls-1" d="M29.47,50.77l.24.48c-1.61.19-3.18.36-4.86.8s-3.43,1.08-5.24,1.21c-2.72.19-5.46-.65-7.57-2.08.04-.05.09-.09.14-.12,2.34.92,4.83,2.21,7.45,1.66l7.3-1.54,2.54-.43Z"/>
        <path class="cls-1" d="M55.01,101.74c.19,1.22.87,2.59.75,3.87s-2.82,3.46-3.32,3.27c-.2-.08-.32-.41-.38-.68-.55-2.5-1.69-4.94-1.73-7.49.9-.5,1.92-.94,2.55-1.76.41-.12.78-.35,1.07-.66.53-.32,1.01,3.08,1.07,3.44Z"/>
        <path class="cls-1" d="M53.73,95.62c-.18.47.4,1.15.08,1.66s-.93-.02-1.15-.28c-.36-.44-.46-1.07-.39-1.57l1.46.2Z"/>
        <path class="cls-1" d="M52.52,89.89c.28,1.32.75,2.59,1.16,3.87.19.6.45,1.4.05,1.86-.09-.32-.49-.44-.73-.59-.43-.27-.52.13-.73.38-.84.98.11,2.19,1.32,2.84-.32.26-.62.51-.82.63l-2.45,1.53c-.45-.56-.4-1.29-.75-1.9-.51-.89-.49-2.21-1.7-2.74.59,1.18,1.27,2.14,1.51,3.27.67,3.09,1.26,6.23,2.48,9.15.09.21.24.56.24.84,0,.37-.51.39-.68.33-.34-.13-1.43-3.15-1.37-2.96l-3.01-10.08c1.01-.66,1.61-1.57,2.31-2.36.62-.69,2.09-2.51,2.21-3.38.3-.27.52-.65.96-.7Z"/>
        <path class="cls-1" d="M50.95,38.8l.22-.02c-.1.1,0,.36-.1.48-2.61-.57-5.17-1.31-7.69-2.19l.23-.24c1.28-.02,6.56,2.05,7.33,1.97Z"/>
        <path class="cls-1" d="M50.24,54.01c-.07.12-.13.16-.16,0-.06-1.16.48-2.31.73-3.58l2.24-11.7c.09,0,.17.04.26.03-.44,4.12-1.76,11.41-3.06,15.25Z"/>
        <path class="cls-1" d="M52.04,38.05c-.08,1.14-.17,2.36-.73,3.36h-.24c-.14-.7,1-2.2,0-2.16.09-.12,0-.38.1-.48.31-.31.42-.72.87-.72Z"/>
        <path class="cls-1" d="M11.83,58.5c-.07.54-.09,1.11.04,1.74,1.25.73,9.62,1.52,10.36,1.49.81-.03,1.32-.1,2.02.15v.38c-4.49-.53-7.8.05-12.54-1.63-.31,4.33-.05,8.45.69,12.52h-.38c-.84-3.86-1.16-7.88-.83-11.9.06-.76-.13-.91-.69-1.16.07-.05.15-.17.24-.17.68-.02.7-.84.82-1.43h.28Z"/>
        <path class="cls-1" d="M49.36,93.97c-.7.79-1.3,1.7-2.31,2.36l3.01,10.08c-.04.16.08.48-.14.53-1.34-3.52-2.55-7.12-3.34-10.87,1.04-.83,1.94-1.54,2.7-2.39.13.05.12.17.08.29Z"/>
        <path class="cls-1" d="M24.41,91.06l-9.59.2c-.21,0-.42.12-.58.08-.1-.03-.21-.2-.13-.36.1-.21.44-.13.71-.06,3.16-.09,6.23-.73,9.59.15Z"/>
        <path class="cls-1" d="M19.03,88.03c-1.74-.27-3.42-.46-5.23-1.03,3.38.01,6.78.59,10.1,1.97-1.72-.13-3.2-.68-4.86-.94Z"/>
        <path class="cls-1" d="M11.83,58.5h-.28c.42-2.06.34-4.41,1.78-6.2-.52,2.26-1.25,4.14-1.5,6.2Z"/>
        <path class="cls-1" d="M12.4,73.15c.27,1.45.68,2.81.83,4.39-.71-1.51-.9-2.96-1.21-4.4h.38Z"/>
        <path class="cls-1" d="M10.74,59.92c-.09,0-.17.12-.24.17-1.33-.59-2.67-1.25-3.6-2.48,1.32.9,2.58,1.57,3.84,2.31Z"/>
        <path class="cls-1" d="M24.25,62.26v-.38c1.14.42,2.58.45,3.44,1.61-1.42-.23-2.21-1.25-3.44-1.23Z"/>
        <path class="cls-1" d="M49.36,93.97c.04-.13.05-.25-.08-.29.85-.96,1.33-2.23,2.29-3.08-.12.87-1.59,2.69-2.21,3.38Z"/>
        <path class="cls-1" d="M28.51,48.85l-.96.24c-.98-.49-2.17-.5-3.38-.7-4.01-.68-7.99-1.34-11.93-1.07.02-.16-.09-.34-.1-.5,3.37-.16,6.73.37,10.18.89,2.15.32,4.27.43,6.2,1.15Z"/>
        <path class="cls-1" d="M31.63,42.81c.08.02.21.08.29.07-.25,1.48-.47,3.06-1.51,4.44.08-1.7.99-2.99,1.23-4.51Z"/>
        <path class="cls-1" d="M48.67,53.17c-.09-.07-.17-.15-.24-.24l2.32-9.96c.14-.59.43-1.01.32-1.56h.24c-.35,3.99-1.64,7.87-2.64,11.76Z"/>
        <path class="cls-1" d="M50.32,100.42v.3c.04,2.55,1.18,4.99,1.73,7.49h-.19c-1.22-2.92-1.81-6.06-2.48-9.15.05-.16-.05-.52.19-.54.35.61.3,1.35.75,1.9Z"/>
        <path class="cls-1" d="M52.88,98.96c-.63.82-1.65,1.26-2.55,1.76v-.3s2.44-1.53,2.44-1.53c-.1.14-.02.16.11.07Z"/>
        <path class="cls-1" d="M49.57,98.52c-.24.02-.13.37-.19.54-.25-1.14-.92-2.1-1.51-3.27,1.21.53,1.19,1.84,1.7,2.74Z"/>
      </g>
      <g>
        <path class="cls-1" d="M60.34,24.96c-.16.07-.31.14-.41.29-.47.06-1.57.11-1.64.78-.12,1.21-.03,2.32-.26,3.39-.08-.02-.16,0-.24,0l.13-8.24-5.25.79-.2,6.96-.44-.27.08-6.65-8.01-1.76c.05-.1.13-.17.22-.23l8.21,1.43c1.77.31,3.61-.7,5.6-.64-1.17-.76-2.33-.66-3.46-1v-.32c.47.05,1.11.14,1.77.03-1.26-1.56-3.04-2.12-4.95-2.46,3.2-1.65,6.36-2.81,9.74-3.51.8-.17,1.7.51,2.2,1.07,1.71,1.96,4.07,6.25,1.05,8.26-1.32.88-2.76,1.46-4.15,2.06ZM65.44,19.62c-.39-1.73-2.29-6.1-4.67-5.5-1.99.51-3.82.96-5.77,1.8,4.05,1.5,5.13,4.89,4.86,8.79,2.46-1.01,6.24-2.17,5.58-5.09ZM58.63,19.73c-.78-1.64-2.14-3.11-3.97-3.54-.68-.16-1.41.39-1.98.7,2.17.32,3.4,1.45,4.59,2.96.21.27,1.23.03,1.22.7-.17,8.48,2.22,3.54.14-.82Z"/>
        <path class="cls-1" d="M50.37,18.17c.31.4-1.58.27-1.24.93.38.73,1.69.94,2.35.58.76-.42-1.44-1.14-.43-1.15.25.15.66.29.95.36,0,.16.08.32.06.47-.02.22-.05.64-.39.79-.99.42-2.41.17-2.95-.8-.21-.37.25-.8.2-1.15-3.1-.47-6.01-1.16-8.88-1.94l-.03-.28,10.37,2.19Z"/>
        <path class="cls-1" d="M51.04,18.53c-1.01,0,1.2.73.43,1.15-.66.36-1.97.14-2.35-.58-.34-.66,1.55-.53,1.24-.93.3.06.43.22.67.36Z"/>
        <path class="cls-1" d="M54.67,19.5v.32c-.84-.25-1.76-.3-2.62-.46.02-.15-.07-.32-.06-.47.91.23,1.88.13,2.68.61Z"/>
        <path class="cls-1" d="M51,17.76c-.21.01-.42-.15-.53-.12-.15.03-.16-.24,0-.21s.29-.06.48-.22c.15-.05.2.55.04.56Z"/>
        <circle class="cls-1" cx="51.43" cy="17.53" r=".12"/>
        <path class="cls-1" d="M44.09,20.25l8.01,1.76-.08,6.65c-.75-.47-1.86-.57-2.75-.05-.61.36-.74,1.03-.73,1.62.03,1.55,2.4,2.18,2.67,4.22.4,3.06-.4,1.56-.27,4.34-.77.08-6.05-2-7.33-1.97-1.03-.69-2.01-.07-1.94-1.44.38-.98.04-2.19.68-3.07,1.65.45,3.43.58,5.27.37.56-3.08.69-6.04.92-9.09-.4-.1-.98-.05-1.25-.26-.12-.91-.51-1.35-1.23-1.62-.54-.21-1.13-.92-1.89-.65-.28.1-.23.67-.29.89-.04.17.06.69-.19.68-1.09-.05-3.41-1.03-3.4-.44-.34.1-.14.58-.32,1-.9-1.06-1.05-2.37-1.35-3.63.02-.17.14-.33.21-.48,1.71.57,3.52.77,5.28,1.16Z"/>
        <path class="cls-1" d="M65.44,19.62c.66,2.92-3.12,4.08-5.58,5.09.27-3.89-.81-7.29-4.86-8.79,1.95-.83,3.78-1.29,5.77-1.8,2.37-.6,4.28,3.77,4.67,5.5Z"/>
        <path class="cls-1" d="M40.03,16.25c2.87.78,5.78,1.47,8.88,1.94.05.35-.41.78-.2,1.15.55.98,1.96,1.23,2.95.8.34-.14.36-.57.39-.79.86.16,1.78.21,2.62.46,1.13.34,2.29.24,3.46,1-1.99-.06-3.84.95-5.6.64l-8.21-1.43c-1.8-.31-3.62-1.22-5.51-1.2l-.02-.46c.63-.47.4-1.99,1.24-2.12Z"/>
        <path class="cls-1" d="M57.79,29.41c-.6.85-1.68,1.11-2.64,1.44.42-1.52.29-3.26.91-4.61l.53-1.16c.19-.41-.09-.85-.49-.86.01-.39-.3-.74-.7-.75-1.32-.04-1.55.9-1.65,1.85-.13,1.36-.58,2.7-.34,4.22.54-.92.4-1.89.64-2.87.03-.37.26-.59.53-.66.28.24.65.36,1.01.3l-.73,4.51c-.73.4-1.1-.19-1.65-.6-.43-.32-.84-.66-.77-1.29l.2-6.96,5.25-.79-.13,8.24Z"/>
        <path class="cls-1" d="M56.11,24.21c.12.46.18,1.04-.3,1.39-.28.2-.8.16-1.19.07-.12-.03-.35-.11-.21-.28.37-.15.79,0,1.2-.31,0-.51.04-.94.5-.87Z"/>
        <path class="cls-1" d="M58.63,19.73c2.08,4.37-.31,9.31-.14.82.01-.67-1.01-.43-1.22-.7-1.18-1.51-2.42-2.64-4.59-2.96.57-.31,1.29-.86,1.98-.7,1.82.43,3.19,1.9,3.97,3.54Z"/>
        <path class="cls-1" d="M52.02,28.66l.44.27c-.07.63.34.96.77,1.29-.08.16-.18.33-.37.34-.26-.34-.6-.59-.89-1.12-.43-.78-1.94-.89-2.56-.28-.79.78-.25,1.83.45,2.4.98.8,1.4,1.8,1.62,2.91l-.27-.02c-.27-2.04-2.64-2.67-2.67-4.22-.01-.59.12-1.26.73-1.62.89-.53,2-.42,2.75.05Z"/>
        <path class="cls-1" d="M52.86,30.56c.19-.02.29-.19.37-.34.55.41.92,1.01,1.65.6.08-.01.19.06.27.03.96-.33,2.04-.59,2.64-1.44.08,0,.16-.01.24,0,.69.15.55-.94,1.45-.88-.63,1.16-5,4.15-6.62,2.03Z"/>
        <path class="cls-1" d="M44.32,20.02c-.09.06-.17.13-.22.23-1.76-.39-3.57-.59-5.28-1.16.03-.07,0-.19,0-.27,1.89-.02,3.7.88,5.51,1.2Z"/>
        <path class="cls-1" d="M42.35,32.32c0-.07.02-.19,0-.27,1.5.2,2.98.32,4.81.34l1.04-8.51c-1.63-.95-3.91,1.19-4.66-.84-.79-.38-1.88-.22-2.81-.42l-.22,1.94c-.08-.13-.15-.12-.22,0l-.39-.4c-.14-.14.01-.36.15-.5.39-.38.2-.96.23-1.46,0-.59,2.31.4,3.4.44.25.01.15-.51.19-.68h.3c.02.43-.01.85.08,1.44.77.05,1.82.07,2.37-.55.12-.38-.55-.76-.84-.86.08-.1.16-.19.26-.27.72.27,1.11.71,1.23,1.62.27.21.85.16,1.25.26-.23,3.04-.35,6-.92,9.09-1.84.21-3.62.08-5.27-.37Z"/>
        <path class="cls-1" d="M40.28,22.21c-.03.5.15,1.08-.23,1.46-.81.36-1.42-3.56-1.72-2.91.02-.06-.01-.13,0-.19.17-.31.25-.65.28-1,.3,1.26.45,2.57,1.35,3.63.19-.42-.02-.89.32-1Z"/>
        <path class="cls-1" d="M46.05,21.73c-.1.08-.19.17-.26.27-.44-.16-.99-.7-1.39-.38-.09.07-.16.19-.23.34h-.3c.05-.21,0-.79.29-.89.76-.27,1.35.44,1.89.65Z"/>
        <path class="cls-1" d="M56.06,26.24l-.46.07c-.36.05-.73-.06-1.01-.3,0-.11,0-.22.02-.33.39.09.91.13,1.19-.07.48-.34.43-.93.3-1.39.4.01.67.46.49.86l-.53,1.16Z"/>
        <path class="cls-1" d="M56.11,24.21c-.46-.07-.49.37-.5.87-.41.3-.83.16-1.2.31-.18.07-.45-.14-.64-.08.09-.95.33-1.89,1.65-1.85.4.01.71.37.7.75Z"/>
        <path class="cls-1" d="M54.41,25.39c-.14.17.09.25.21.28-.01.11-.02.22-.02.33-.27.06-.5.29-.53.66-.24.98-.1,1.94-.64,2.87-.24-1.51.21-2.85.34-4.22.19-.06.47.15.64.08Z"/>
        <path class="cls-1" d="M56.06,26.24c-.62,1.36-.49,3.1-.91,4.61-.08.03-.19-.05-.27-.03l.73-4.51.46-.07Z"/>
        <path class="cls-1" d="M42.35,32.05c-.52-2.55-.48-5.2-1.84-7.49l.22-1.94c.93.2,2.02.04,2.81.42.75,2.03,3.03-.11,4.66.84l-1.04,8.51c-1.83-.03-3.31-.15-4.81-.34Z"/>
        <path class="cls-1" d="M45.79,22c.29.11.96.49.84.86-.55.62-1.6.6-2.37.55-.09-.59-.06-1.01-.08-1.45.07-.15.14-.27.23-.34.4-.32.94.21,1.39.38Z"/>
      </g>
      <path class="cls-1" d="M28.27,34.7c-1.54-1.55-1.96-3.97-.39-5.54l.64,4.81c.05.35.05.66-.25.73Z"/>
    </g>
  </g>
</svg>