<?xml version="1.0" encoding="UTF-8"?>
<svg id="Layer_2" data-name="Layer 2" xmlns="http://www.w3.org/2000/svg" viewBox="0 0 132.56 208.83">
  <defs>
    <style>
      .cls-1 {
        opacity: .75;
      }

      .cls-2 {
        fill: #6cbe45;
      }
    </style>
  </defs>
  <g id="Layer_1-2" data-name="Layer 1">
    <g class="cls-1">
      <path class="cls-2" d="M52.95,95.95c-1.16,2.13-.74.48-1.92,1.45l-.54.04c-.46.03-3.67-.39-4.54-1.24,2.01.31.19-.47,3.87-1.43,1.32.47,2.17,1.15,3.12,1.18Z"/>
      <path class="cls-2" d="M49.55,94.23c.04.21.26.32.27.53-1.04-.37-2.04-.45-3.13-.26.67-.9,1.84-.32,2.86-.28Z"/>
      <path class="cls-2" d="M46.45,94.51c-.17.25-.44.39-.72.48.13-.31.35-.51.72-.48Z"/>
      <g>
        <path class="cls-2" d="M59.9,86.5c.23,1.52-.66,3.26.27,4.15.02.07.02.14.02.21-.34.16-.56.49-.77.79-.05-1.08-3.31,2.71-3.65,3.3l-1.84,3.17c-1.46,2.52,4.27,4.22,5.77,4.54.53.14,1.04.51,1.59.52-.16.22.09.37.22.41.21.07.42-.03.59,0l1.62.3c-.1.18.16.21.28.22l.42.03c-.13.15,0,.33.18.44.14.08.27-.19.4-.23.37-.09.75.27,1.11.25-.05.15.04.37.29.44l6.92,1.93c2.37.66,4.74.87,7.14,1.29.14.03.09.39.08.4-9.85-.53-18.36-4-27.35-7.75l-1.84-1.33c-.15.3-.43.75-.41,1.17-.32.15-.64-.14-.89-.2.13-.1.21.04.31.02-.09.02.24-2.6.66-3.18,1.18-.96.76.68,1.92-1.45,1.54-2.81,3.26-5.56,5.25-8.18.48-.63,1.02-1.19,1.71-1.27Z"/>
        <path class="cls-2" d="M72.58,89.44c-.65.43-1.53.09-2.35.37-.61.21-.25,1.24.11,1.67,2.73,3.29,3.88,7.38,3.72,11.66-.1,2.58-.98,1.97-.69,2.72.33.84,6.7,1.15,7.36,2.04.03.1.17.17.22.27-.11.19-.24.38-.42.5.01-.01.07-.38-.08-.4-2.41-.42-4.77-.63-7.14-1.29l-6.92-1.93c-.26-.07-.34-.29-.29-.44,1.28-.1,2.48.49,3.98.76.24-.61-.16-1.16-.09-1.71.55-.48,1.23-1.8.75-2.44-1.06-.53-6.4-1.48-6.33-3.08,1.06-.4,3.75.86,3.89.24,1.34.55,2.3,1.48,2.47.94.12.47.54.95.53,1.67.33-.11,1.17-.29,1.26-.77,1.19-6.16-3.95-8.06-3.25-10.08.44-1.26,2.13-.65,2.37-1.18.33.17.6.27.91.5Z"/>
        <path class="cls-2" d="M63.51,101.69l4.98,1.7c.53.18,1,.42,1.5.27-.08.55.33,1.1.09,1.71-1.49-.27-2.7-.86-3.98-.76-.36.03-.74-.33-1.11-.25-.03-.25-.39-.2-.58-.21l-.42-.03c.1-.16-.18-.2-.28-.22l-1.62-.3c.15-.22-.08-.38-.21-.42-.22-.07-.42,0-.6,0-.55,0-1.06-.38-1.59-.52-.08-.27-.25-.46-.66-.57-1.35-.37-2.58-1.03-3.75-1.74-.68-.42-.83-1.15-.55-1.87,1-2.52,2.28-4.93,4.47-6.37-.5,2.43-1.41,4.79-1.56,7.49,1.9,1.04,3.96,1.44,5.87,2.09Z"/>
        <path class="cls-2" d="M80.53,108.67c.18-.13.3-.32.42-.5.16.33.32.66.28,1.08-.11,1.02-1.59,1.31-2.36,1.55-1.14-.04-2.27-.05-3.4-.23-.36-.55,3.21.28,3.91-.39l-5.44-1.12c-3.69-.76-7.18-1.7-10.73-2.99-2.73-.99-9.75-2.66-10.03-5.15,8.98,3.74,17.5,7.21,27.35,7.75Z"/>
        <path class="cls-2" d="M60.19,90.87c.31.24.84.14,1.15.35.43.29.77.74,1.15,1.09.26.24.42.61.8.72v.29c-2.7-.18-4.12,2-4.59,4.49-.03.18-.21.21.14.31.27.08.42-.16.57-.17,1.23-.12,3.84-.02,3.66-1.48.72.15,1.38.46,2.07.7-.45.34-1.04.18-1.61.51-.89,2.83-.55,1.85-.03,4.01-1.91-.65-3.97-1.05-5.87-2.09.15-2.69,1.06-5.06,1.56-7.49.16-.11.13-.32.22-.46.21-.31.43-.64.77-.79Z"/>
        <path class="cls-2" d="M53.19,100.92c.28,2.48,7.3,4.16,10.03,5.15,3.55,1.29,7.03,2.23,10.73,2.99l5.44,1.12c-.7.67-4.27-.15-3.91.39-1.4-.23-2.74-.4-4.05-.95.01-.01.06-.34-.11-.39l-15.04-4.86c-1.47-.48-2.95-.99-4.37-1.87-.62-.38-.92-1.08-.96-1.74-.02-.42.26-.87.41-1.17l1.84,1.33Z"/>
        <path class="cls-2" d="M59.42,91.66c-.09.13-.05.35-.22.46-2.19,1.44-3.47,3.85-4.47,6.37-.28.72-.14,1.45.55,1.87,1.18.71,2.41,1.37,3.75,1.74.41.11.58.3.66.57-1.49-.32-7.23-2.02-5.77-4.54l1.84-3.17c.34-.59,3.6-4.38,3.65-3.3Z"/>
        <path class="cls-2" d="M62.1,103.6c-.17-.03-.38.07-.59,0-.13-.04-.39-.19-.22-.41.18,0,.38-.08.6,0,.13.04.36.2.21.42Z"/>
        <path class="cls-2" d="M64.99,104.36c-.13.03-.26.31-.4.23-.19-.11-.32-.29-.18-.44.18.01.55-.04.58.21Z"/>
        <path class="cls-2" d="M63.99,104.11c-.12,0-.38-.04-.28-.22.1.02.38.06.28.22Z"/>
        <path class="cls-2" d="M65.19,93.48c.32.11.75-.02,1.13.17.42.22-.32,1.92.84,2.36.39.15.97.09,1.32-.35l1.07-1.37c.83,1.51,1,3.33,1.22,5.03-.16.55-1.13-.39-2.47-.94-1.04-.43-2.09-.83-3.15-1.2-.69-.24-1.34-.56-2.07-.7l-.24-.05c.14-1.03.45-2.05.45-3.1v-.29c.09,0,.18-.07.27-.06.18.02.35.09.64,0,.06-.44.08-.79.09-1.15.46-.3-.16,1.28.91,1.65Z"/>
        <path class="cls-2" d="M78.95,104.88c.27.6-.16,1.18-.7,1.36s-1.28.26-1.68-.32c-.6-.87-.38-2.23.69-2.76-.13.89-.45,1.86.48,2.34.4.21.74-.3,1.22-.62Z"/>
        <path class="cls-2" d="M71.43,109.62c-1.71-.71-3.65-.65-5.5-1.28-1.06-.36-2.09-.51-3.1-.42.16-.34-.19-.53-.55-.66-2.16-.76-4.36-1.42-6-2.89l15.04,4.86c.17.05.12.38.11.39Z"/>
        <path class="cls-2" d="M71.67,88.95c-.24.52-1.93-.08-2.37,1.18-.7,2.02,4.44,3.92,3.25,10.08-.09.48-.94.66-1.26.77,0-.72-.42-1.2-.53-1.67-.22-1.7-.39-3.52-1.22-5.03-.76-1.38-.49-.44-2.69-1.45-.21-.45,1.39-3.64,1.78-4.49,1.11-.24,2.15.14,3.04.6Z"/>
        <path class="cls-2" d="M68.29,98.37c-.13.62-2.82-.63-3.89-.24-.07,1.6,5.27,2.55,6.33,3.08.47.64-.21,1.95-.75,2.44-.49.15-.96-.09-1.5-.27l-4.98-1.7c-.52-2.16-.86-1.18.03-4.01.57-.34,1.16-.17,1.61-.51,1.06.37,2.11.77,3.15,1.2Z"/>
        <path class="cls-2" d="M63.28,93.32c0,1.04-.3,2.06-.45,3.1-.03.25,0,.56-.23.69-.46.24-3.83.59-3.19.84-.15.01-.3.25-.57.17-.35-.1-.18-.13-.14-.31.47-2.5,1.89-4.68,4.59-4.49Z"/>
        <path class="cls-2" d="M59.41,97.95c-.64-.26,2.73-.6,3.19-.84.24-.13.2-.44.23-.69l.24.05c.17,1.47-2.44,1.36-3.66,1.48Z"/>
      </g>
      <g>
        <path class="cls-2" d="M49.83,94.77c-3.68.95-1.87,1.73-3.87,1.43-.16-.15-.39-.16-.44-.4-.07-.34.11-.54.22-.8.28-.09.55-.23.72-.48.08,0,.17.01.24,0,1.1-.19,2.09-.12,3.13.26Z"/>
        <g>
          <path class="cls-2" d="M114.63,186.46l.25,2.41c.04.38.13,1.01.21,1.4.31,1.48,1.08,2.94,2.33,3.82s2.47,1.11,3.44.27c.9-.77,1.61-1.64,1.92-2.87.18.02.41.15.45.44l1.18,7.92c.22,1.47.09,2.74-.39,4.09-.1.28.3.75.1,1.13-1.83,3.6-7.27,4.06-10.67,3.59-2.82-.39-4.67-2.39-4.88-5.2-.07-.88.17-1.56.31-2.45l.21-1.38c.97.47,1.9,2.92,3.08,3.9,1.49,1.23,4.19,1.19,5.44-.37.37-.47,2.4-4.62.55-5.42-5.57-2.43-4.27-7.77-4.62-7.96-.09-.05-.28,0-.37,0,.24-.45.12-.77.18-1.24.57-.46.74-1.36.83-2.07h.45ZM114.85,207.31h3.36c1.08,0,2.16-.35,3.14-.89-1.13.03-2.07.65-3.14.65h-3.36c-.85-.4-1.81-.72-2.92-.67.92.58,1.92.76,2.92.91Z"/>
          <path class="cls-2" d="M109.1,199.65c.38-2.48.97-2.55,1.64-4.84,1.48-1.04,1.24-2.32,1.75-3.82.37-.34.45-.76.69-1.21.09,0,.28-.04.37,0,.35.19-.95,5.53,4.62,7.96,1.85.8-.18,4.96-.55,5.42-1.25,1.56-3.95,1.6-5.44.37-1.18-.98-2.11-3.42-3.08-3.9Z"/>
          <path class="cls-2" d="M117.49,193.63c.4.81,1.54,1.1,2.38.84.32-.1.65-.15,1-.11-.98.84-2.24.58-3.44-.27s-2.02-2.35-2.33-3.82c.82-.31.35,2.37,2.39,3.36Z"/>
          <path class="cls-2" d="M114.85,207.07v.24c-1-.15-1.99-.33-2.92-.91,1.11-.05,2.07.28,2.92.67Z"/>
          <path class="cls-2" d="M118.21,207.31v-.24c1.07,0,2.01-.62,3.14-.65-.98.54-2.06.89-3.14.89Z"/>
          <rect class="cls-2" x="114.85" y="207.07" width="3.36" height=".24"/>
        </g>
        <g>
          <path class="cls-2" d="M112.93,188.59l-.44,2.4c-.51,1.51-.27,2.78-1.75,3.82-3.96,1.34-12.76,1.05-17.22.72-1.96-.14-5.97-.81-6.73-2.62-.2-.54.22-.97.35-1.44,5.61,1.34,8.79,2.3,14.6.31.66-.22,1.34-.68,1.58-1.3.03-.8-4.47-.2-5.54-1.16,1.75.01,7.11-.12,8.43-.97,1.18-.76,3.1-.12,5.04-2.64.42.95,1.34,1.83,1.68,2.88ZM90.51,193.3l-.06.32,1.57.31.06-.32-1.57-.31ZM96.13,194.83c2.65.35,5.28.29,8.16,0,1.08-.11,2.18-.28,3.38-.59-1.09-.46-2.24.35-3.38.35h-8.16c-1.17-.2-2.45-.88-3.88-.63,1.25.55,2.58.64,3.88.87Z"/>
          <path class="cls-2" d="M87.14,191.47c-.13.47-.55.9-.35,1.44-.09-.2-.39-.31-.52-.48.36-.83.52-1.7,1.22-2.46-.06.64-.23,1.06-.35,1.5Z"/>
          <path class="cls-2" d="M113.36,188.54c-.07.47.06.79-.18,1.24s-.31.86-.69,1.21l.44-2.4.43-.05Z"/>
          <path class="cls-2" d="M104.29,194.59v.24c-2.88.29-5.51.35-8.16,0v-.24h8.16Z"/>
          <path class="cls-2" d="M106.21,188.35c-1.32.85-6.67.98-8.43.97,0-.08,0-.15,0-.23,1.72.08,3.39-.08,5.03-.57,1.55.28,1.78-.33,3.4-.17Z"/>
          <path class="cls-2" d="M96.13,194.59v.24c-1.3-.24-2.62-.33-3.88-.87,1.43-.25,2.7.43,3.88.63Z"/>
          <path class="cls-2" d="M104.29,194.83v-.24c1.14,0,2.29-.81,3.38-.35-1.2.31-2.3.48-3.38.59Z"/>
          <rect class="cls-2" x="91.1" y="192.82" width=".33" height="1.6" transform="translate(-116.49 245.14) rotate(-78.69)"/>
        </g>
        <path class="cls-2" d="M91.97,107.2c-2.15.17-3.88-1.33-5.08-.5-.41.28-.73.38-1.09.53-.35-.27,2.63-1.18,1.09-1.57-2.93-.74-2.77-2.19-7.52-1.26-.14-.37-.77-.6-.47-1.3,2.3.15,2.39-.72,4.96.26l7.49,2.86c.49.19.68.56.61.98Z"/>
        <g>
          <g>
            <path class="cls-2" d="M129.05,149.78c.08.45.88,1.07.37,1.61-.93.99-2.46,1.59-3.77,1.9-1.21.29-2.52.65-3.87.67l-9.11.11c-.42,0-.76-.06-.93-.33.4-.1.68-.6.5-1.12l-3.44-10.01c-.23-.66-.86-1.12-1.38-1.29l3.06-8.17c.14-.37.3-1.11.51-1.43.59-.88.85-3.17,1.58-3.93,1.99-1.53,5.23-2.08,4.17-5.44.79-.74.63-2.11.3-3.1-.29-.87-1.22-1.22-1.94-1.71-.29-.2-.53-.68-.96-.69-.22-.54-.87-.97-1.21-1.41.39-.47.98-.06,1.5-.08,3.28-.12,6.69,1.35,8.8,3.91,1.9,2.3,2.46,3.83,2.44,7.19,0,.99.24,2.07.3,3.06l.22,3.39c.1,1.47,0,5.83-.27,7.2-.07.35.17,1.51-.53,1.35-.85-.19-.99-1.5-1.67-2.11-.48,1.14.65,1.93.95,2.95-.23.56-1.06.05-1.44-.21-5.65-3.8-5.03-6.63-7.25-6.56-1.96.07-1.62,4.76.79,6.75.59.49.78,1.42,1.31,2.02,1.74,1.99,3.67,3.63,5.88,5.38-.98.93-4.26-.51-4.94-.06-.3.2-.99.64-.73,1.23.73,1.65,2.7,2.48,4.48,2.24,1.41-.19,2.72-.63,4.01-1s1.62-1.36,2.26-2.35Z"/>
            <path class="cls-2" d="M128.79,108.86c-.36-.7-.06,3.3.44,2.5-.03.32,0,.8.03,1.11-.28-.49-.54,2.87.2,2.26l.05,3.75c-.42.43-.44,1.34,0,1.76v4.01c-.45.57-.46,1.66,0,2.22l-.11,4.5c-.38.21-.16.63-.16.96v2.66c-.15,0-.38-.08-.49.12-.08.14.16.28.24.36l.02,3.58c0,.19.05.37.19.3l-.18,1.61c-.25,2.22-.5,4.63-.34,7l1.25,1.14c-.19.46-.64.69-.9,1.09-.65.98-.94,1.98-2.26,2.35s-2.6.81-4.01,1c-1.77.24-3.75-.59-4.48-2.24-.26-.59.42-1.03.73-1.23.68-.46,3.96.99,4.94.06-2.21-1.75-4.15-3.4-5.88-5.38-.52-.6-.71-1.53-1.31-2.02-2.41-1.99-2.75-6.69-.79-6.75,2.22-.08,1.6,2.75,7.25,6.56.39.26,1.21.78,1.44.21-.3-1.02-1.43-1.8-.95-2.95.68.61.82,1.92,1.67,2.11.7.15.46-1,.53-1.35.28-1.38.37-5.74.27-7.2l-.22-3.39c-.07-1-.3-2.07-.3-3.06.01-3.35-.55-4.89-2.44-7.19-2.11-2.56-5.52-4.04-8.8-3.91-.52.02-1.11-.38-1.5.08-.64-1.15-7.9-2.88-7.95-2.89-.56-.4.89-.18,1-.56l.69.02c.09,0,.17.02.26.01,1.14-.09,2.36.14,3.6-.04,2.21-.33,2.89-.09,5.52-.47,4.06-.59,7.92-1.67,11.76-3,.29-.1.45-.36.78-.23.23.09.09.39.19.57Z"/>
            <path class="cls-2" d="M129.7,131.01l-.28-.05.11-4.5c.35-.67.35-1.56,0-2.22v-4.01c.34-.52.34-1.24-.01-1.76l-.05-3.75c-.01-.77.24-1.59-.2-2.26-.03-.31-.06-.78-.03-1.11.08-.86-.02-1.73-.44-2.5-.1-.18.04-.48-.19-.57-.34-.13-.49.13-.78.23-3.84,1.33-7.69,2.41-11.76,3-2.63.38-3.31.14-5.52.47-1.24.19-2.46-.05-3.6.04-1.71-.14,4.35-.46,3.35-.44,5.33-.1,14.03-1.79,18.72-4.07,2.53-1.23,2.35-3.85,2.61-6.39-1.71,1.43-1.2.24-2.34,1.8-1.79-1.17,1.86-2.06,2.25-4.22.36-2-2.21-4.08-2.92-6.41-.06-.21-.49-.27-.19-.48.13-.09.28-.14.43-.19.36.81,1.22,2,1.87,3.1,3.07,5.18,1.41,4.96,1.42,5.78.03,2.23,0,4.28-.91,6.28l-1.29,22.03c-.05.83.32,1.65-.23,2.19Z"/>
            <path class="cls-2" d="M129.95,148.7l-1.25-1.14c-.16-2.36.09-4.77.34-7,.28,1.92-.15,3.92-.09,6.01.05,1.61,2.24,1.16,1.31,1.89l-.31.24Z"/>
            <path class="cls-2" d="M129.67,131.9c-.03,1.33.01,2.69-.18,4.12-.14,1.07.28,2.1-.27,2.93-.14.07-.19-.11-.19-.3l-.02-3.58c.22-.05.24-.29.24-.48v-2.66s.42-.03.42-.03Z"/>
            <path class="cls-2" d="M129.42,130.96l.28.05-.02.89-.41.03c0-.33-.23-.75.16-.96Z"/>
            <path class="cls-2" d="M111.74,153.74c-.4,0-.81.09-1.21.05,0-.1.04-.26-.01-.35-.14-.23-1.46-.24-1.67.11h-.48c.32-.55-4.51-.88-5.28-1.2v-.26s4.33-10.77,4.33-10.77c.52.16,1.16.63,1.38,1.29l3.44,10.01c.18.52-.1,1.02-.5,1.12Z"/>
            <path class="cls-2" d="M129.53,126.46c-.47-.57-.46-1.65,0-2.22.35.67.35,1.55,0,2.22Z"/>
            <path class="cls-2" d="M129.46,114.72c-.74.61-.48-2.75-.2-2.26.44.67.19,1.49.2,2.26Z"/>
            <path class="cls-2" d="M129.52,120.23c-.44-.42-.43-1.33,0-1.76.35.52.35,1.24,0,1.76Z"/>
            <path class="cls-2" d="M129.25,134.59c0,.19-.02.43-.24.48-.08-.07-.31-.22-.24-.36.11-.2.34-.12.48-.12Z"/>
            <path class="cls-2" d="M107.17,130.03c.12,1.67-2.12,7.31-2.91,9.12-1.03,2.33-1.77,4.69-2.59,7.01l-1.17,3.33c-.17.06-.45.5-.62.42-1.25-.58-1.29-1.85-1.37-3.08l-.98-14.33c3.27,0,6.5-1.32,9.64-2.46Z"/>
            <path class="cls-2" d="M97.53,132.49l.98,14.33c.08,1.23.12,2.49,1.37,3.08.17.08.45-.35.62-.42-.18.5-.25.97-.56,1.42-1.23-.43-2.4-1.66-2.48-3.1l-.8-15.31h.87Z"/>
          </g>
          <path class="cls-2" d="M75.27,121.06c-.55.69-1.12,1.41-1.45,2.23l-.48.02c-.08,0-.16,0-.24,0-.24-.54-.87-.73-1.43-.75-.05-.27.11-.67.49-.73,1.79-.32,3.08-1.72,3.12-.77Z"/>
          <g>
            <path class="cls-2" d="M105,113.13l2.97.91c.94.29,1.68.61,2.48,1.15.67.46,1.54.49,1.99,1.3-2.2.18-4.12.76-6.21,1.29l-14.56,3.73-5.76,1.86c-1.24.4-2.8,1.94-3.24,3.6-1.77,6.71-2.53,13.54-3,20.47-.12,1.73-.23,3.35-.04,5.05.07.6.09,1.11-.31,1.51-.38.07-1.19-.12-1.67-.2-1.49-.58-3.53-5.96-3.57-7.48-.11-3.74-.11-7.41.07-11.11l.23-4.78c.14-2.8.46-5.57,1.91-8.01.42-.71.7-1.64-.11-2.03.72-1.11,1.89-1.85,2.81-2.92.25-.29.3-.69.52-.89.41.25.89-.08,1.45-.03.79,1.22,1.96,1.26,3.21,1.06,1.87-.3,3.82.24,5.68-.18,1.55-.35,2.82-1.34,4.31-1.84,3.6-1.2,7.23-1.77,10.83-2.47Z"/>
            <path class="cls-2" d="M60.17,118.97c-1.54-.63-1.12,3.58-1.25,4.85l-1.87,19.39c-.04.46-.11.75-.51.75-.62.09-1.39-.46-1.97-.53-.23-.77-.41-1.67-.42-2.62l-.09-18.67c0-1.12.07-6.56.19-7.13.31-1.46.44-2.84.62-4.21.84-.85,4.89-1.16,6.19-2.1,1.41,1.03,4.11.4,5.9,1.64l-3.98,1.73c-1.12.49-2.07,1.83-2.72,2.9-.75,1.22-.28,2.75-.09,4Z"/>
            <path class="cls-2" d="M112.93,115.44c.34.44.99.87,1.21,1.41-.23.27-.6.4-.95.49l-27.11,7.36c-1.25.34-1.23.88-1.44,1.78l-1.33,5.68c-.6,2.55-1.15,5.17-1.43,7.92l-1.32,13.2c-.03.32-.34.58-.48.71-.16.15-.58-.02-.77.01.4-.39.37-.91.31-1.51-.19-1.71-.08-3.33.04-5.05.46-6.93,1.22-13.76,3-20.47.44-1.66,2-3.2,3.24-3.6l5.76-1.86,14.56-3.73c2.09-.53,4.01-1.11,6.21-1.29-.44-.81-1.31-.84-1.99-1.3-.79-.54-1.53-.86-2.48-1.15l-2.97-.91c-.09-.19-.15-.39-.21-.59l.18.02c.05,0,7.3,1.74,7.95,2.89Z"/>
            <path class="cls-2" d="M77.66,153.8c-2.34-.36-4.7-1-6.84-2.23-.17-1.41-.06-2.7.05-4.07l.69-8.94.75-7.4c.06-.63.5-1.23.04-1.69l.27-.87c.26-.83.51-2.51.54-3.36,0-.25.16-.67.2-.94.05-.3.34-.7.46-1,.33-.82.91-1.54,1.45-2.23.21-.27.74-.38.93-.68.81.39.53,1.32.11,2.03-1.45,2.44-1.77,5.21-1.91,8.01l-.23,4.78c-.18,3.7-.19,7.37-.07,11.11.05,1.52,2.08,6.9,3.57,7.48Z"/>
            <path class="cls-2" d="M54.87,110.81c-.18,1.37-.31,2.75-.62,4.21-.12.57-.19,6-.19,7.13l.09,18.67c0,.95.19,1.84.42,2.62-1.09-.13-2.14-.53-3.07-1.16-.61-1.7-.19-3.6-.05-5.5l.77-11.06.99-13.43c.04-.53-.03-.94.28-1.25.37-.37.99-.09,1.38-.22Z"/>
            <path class="cls-2" d="M61.06,108.53v.18c-1.3.94-5.35,1.25-6.19,2.1-.39.12-1.01-.15-1.38.22-.31.31-.24.72-.28,1.25l-.99,13.43-.77,11.06c-.13,1.9-.56,3.8.05,5.5-.27-.19-.7-.11-.72-.77-.11-5.84.28-11.59.74-17.45.12-1.48.08-2.77.18-4.08l.32-4.09c.17.04.13-.13.13-.24,0-.22,0-.46,0-.69l.02-.92c.4-.63.2-1.55.22-2.2,0-.43.58-1.26,1.07-1.41,2.58-.78,5.06-1.58,7.61-1.88Z"/>
            <path class="cls-2" d="M60.17,118.97c.05.32.33.63.23.99.11,1-.55,2.8,0,3.56-.55.79-.46,1.8-.58,2.84l-2.05,17.13c-.05.46-.21.7-.63.73-.2.02-.43-.17-.6-.26.4,0,.47-.29.51-.75l1.87-19.39c.12-1.27-.3-5.48,1.25-4.85Z"/>
            <path class="cls-2" d="M62.82,107.91c1.01-.09,2.04.06,3.1.42,1.85.64,3.8.57,5.5,1.28,1.31.55,2.65.72,4.05.95,1.12.18,2.25.19,3.4.23-.22,1.65-6.93-.29-5.35,1.63-.15-.06-.48-.18-.78.1,1.08.41,2.1.96,3.21,1.21,2.24.51,3.35-1.09,5.06-1.43-.04.55.31.98.7,1.15.27.12.49.67.93.47.05.56.45.91,1.01,1.08.48.14,1.03,0,1.46-.29l.45-.02c.04.42-.14,1.07.19,1.45.46.54,1.09.12,1.51-.02s1.15-.06,1.42-.52c.82.94,1.69.76,2.65.26.84-.44,1.89-.77,2.64-1.43.76-.02,1.49-.88,2.43-.73,1.19.55,3.39.22,3.81-.71.07-.15.33-.39.48-.48.37-.22.72-.91.72-1.44.5-.05.97.13,1.44.27.05.08.18.12.22.21.3.65,1.09.92,1.73.99.05.2.12.4.21.59-3.6.7-7.23,1.27-10.83,2.47-1.49.5-2.77,1.49-4.31,1.84-1.86.42-3.8-.12-5.68.18-1.25.2-2.42.16-3.21-1.06-.56-.06-1.04.28-1.45.03.83-.75,1.62-1.51,2.43-2.33-.97.59-1.81,1.26-2.62,2.05-.47-.5-.68-1.1-1.22-1.38-1.45.16-2.4,1.28-3.64,1.89-1.64.8-3.57,1.23-5.4,1.18-.92-.03-1.66-.81-2.49-.65-.62-.12-1.26-.9-1.11-1.7.28-1.51,1.74-2.58,3.2-2.98,1-.27,1.95-.32,2.82-1.1-2.19-2-5.52.71-7.5,1.47-.42-.25-3.1,2.43-2.66,3.1-.73.71.37,1.68-.49,2.89-.19.26-.32.67-.45.96.09-.36-.18-.67-.23-.99-.19-1.25-.66-2.78.09-4,.66-1.07,1.6-2.41,2.72-2.9l3.98-1.73c-1.79-1.24-4.49-.61-5.9-1.64v-.18s.09-.3.09-.3c.53.15,1.15-.27,1.68-.32Z"/>
            <path class="cls-2" d="M79.52,116.58c-.22.2-.27.6-.52.89-.92,1.07-2.09,1.82-2.81,2.92-.19.29-.72.41-.93.68-.03-.95-1.33.45-3.12.77-.37.07-.54.47-.49.73l-.7-.02c.01-.12-.17-.23-.27-.24-.15,0-.3-.02-.46,0,.15-.01-4.43-.07-3.86-.67h.24l3.36.33c2.37.23,10.46-4.06,8.56-6.12-1.3-1.42-2.88,1.68-7.13,2.38-1.01.17-4.3.22-4.83-.89.83-.16,1.57.62,2.49.65,1.82.05,3.75-.38,5.4-1.18,1.24-.6,2.19-1.73,3.64-1.89.54.28.75.88,1.22,1.38.82-.79,1.65-1.45,2.62-2.05-.81.83-1.6,1.58-2.43,2.33Z"/>
            <path class="cls-2" d="M105.98,112c-.11.38-1.57.16-1,.56l-.18-.02c-.64-.07-1.42-.34-1.73-.99l1.69.34c.46.09.92-.17,1.22.11Z"/>
            <path class="cls-2" d="M52.02,115.87c0-.1-.03-.27.13-.24,0,.11.04.28-.13.24Z"/>
            <path class="cls-2" d="M73.81,123.29c-.12.3-.41.7-.46,1l-.02-.98.48-.02Z"/>
            <path class="cls-2" d="M63.29,119.94l-.53.02c-.33-.33-.79-.54-1-.99-.36-.75-.43-1.56-.43-2.39.26-.27.26-.66.48-.96-.66,3.91,2.48,2.32,1.47,4.31Z"/>
            <path class="cls-2" d="M61.33,116.59c0,.83.07,1.64.43,2.39-.3-.1-.62-.06-.91.02.86-1.21-.24-2.18.49-2.89v.48Z"/>
            <path class="cls-2" d="M63.29,119.94c.19.97,2.95,1.29,3.33,1.69h-.24c-1.36,0-2.67-.71-3.62-1.66l.53-.02Z"/>
            <path class="cls-2" d="M85.81,107.23c-1.6.65-4.68,3.26-4.8,5.08-1.71.34-2.82,1.93-5.06,1.43.03-.11.03-.24-.02-.34s-.2-.14-.38-.21l-2.03-.76c-1.58-1.92,5.12.03,5.35-1.63.77-.24,2.25-.52,2.36-1.55.05-.42-.12-.75-.28-1.08-.05-.1-.19-.17-.22-.27-.31-1.21-.9-2.33-1.36-3.5,4.75-.93,4.59.52,7.52,1.26,1.54.39-1.44,1.3-1.09,1.57Z"/>
            <path class="cls-2" d="M66.58,117.33c.53,1.12,3.82,1.06,4.83.89,4.25-.7,5.83-3.8,7.13-2.38,1.9,2.07-6.19,6.36-8.56,6.12l-3.36-.33c-.38-.4-3.14-.72-3.33-1.69,1-1.99-2.13-.41-1.47-4.31.15-.2.11-.59.37-.83.67-.61,1.35-1.11,1.81-1.79,1.98-.76,5.3-3.48,7.5-1.47-.87.78-1.82.83-2.82,1.1-1.47.4-2.92,1.47-3.2,2.98-.15.8.48,1.59,1.11,1.7Z"/>
            <path class="cls-2" d="M73.52,112.42l2.03.76c.18.07.32.11.38.21s.05.24.02.34c-1.11-.25-2.13-.8-3.21-1.21.3-.28.63-.15.78-.1Z"/>
            <path class="cls-2" d="M63.99,113.01c-.47.68-1.15,1.19-1.81,1.79-.25.23-.22.63-.37.83-.22.3-.22.69-.48.96v-.48c-.44-.67,2.24-3.35,2.66-3.1Z"/>
          </g>
        </g>
        <g>
          <path class="cls-2" d="M125.65,153.59c1.64-.36.04,11.73-.17,12.98l-2.33,13.83c-.92,5.47.08,9.38-.36,11.1-.31,1.23-1.03,2.1-1.92,2.87-.34-.04-.67,0-1,.11.27-3.8.86-5.35.36-9.54-.13-1.13-.1-2.37-.03-3.53l.24-4.1.23-4.31c.27-4.94,1.11-11.39-3.63-14.2-1.25-.74-5.13-2.37-6.25-1.25-.41.41-.27,1-.27,1.52v.74c-.06,3.51,3.95,19.2,3.39,23.49.42.8-2.68-5.04-1.94-3.33.89.68-2.7-6.22-2.4-5.52l-2.37-5.52c.1.04.17-.12.17-.26l-1.04-6.54c-.32-2.03-2.62-5.57-4-6.83-.27-.24-.1-.8-.2-1.04.18-.16.15-.5.24-.69.11-.04.22-.13.26-.25.01-.05.03-.16,0-.21,3.53.93,8.11,1.18,11.97,1.36,3.3.15,8.21.24,11.04-.86Z"/>
          <path class="cls-2" d="M103.09,152.35s0,.16-.02.38c1.73.51,3.53.82,5.3.82h.48c.38.47,1.12.18,1.68.24.4.04.81-.06,1.21-.05.17.26.51.33.93.33l9.11-.11c1.35-.02,2.66-.38,3.87-.67v.3c-2.84,1.1-7.74,1-11.05.86-3.86-.17-8.44-.43-11.97-1.36-.18-.46.16-.8.47-1v.26Z"/>
          <path class="cls-2" d="M129.23,111.35c-.51.81-.81-3.2-.44-2.5.42.76.52,1.63.44,2.5Z"/>
          <path class="cls-2" d="M117.49,193.63c-2.04-.99-1.57-3.67-2.39-3.36-.08-.39-.17-1.02-.21-1.4.15.03.59.04.62-.27.05-.63.31-5.67-.43-5.54l-3.76-20.91c-.16-.89-.22-2.78-.8-2.36v-.74c.49.12.53-.59.87-.78,1.46-.81,6.05,1.42,7.1,3.16,1.23,2.04.45,4.53.29,6.73l-.22,2.93-.19,4.64c-.04,1.01-.31,9.89-.27,10.13.23,1.25-.19,6.57-.61,7.77Z"/>
          <path class="cls-2" d="M119.87,194.47c-.84.25-1.98-.03-2.38-.84.42-1.2.85-6.52.61-7.77-.04-.24.23-9.12.27-10.13l.19-4.64.22-2.93c.16-2.2.94-4.69-.29-6.73-1.05-1.75-5.64-3.97-7.1-3.16-.34.19-.38.9-.86.78,0-.52-.13-1.11.27-1.52,1.11-1.12,5,.51,6.25,1.25,4.73,2.81,3.89,9.26,3.63,14.2l-.23,4.31-.24,4.1c-.07,1.15-.1,2.39.03,3.53.5,4.19-.09,5.75-.36,9.54Z"/>
          <path class="cls-2" d="M107.2,168.91c-1.25-1.38-.9-2.24-2.67-4.8-.23-.74-.52-1.51-.96-2.16h-.26c-.21-.5-.31-1.08-.72-1.44.05-.13-.05-.34-.03-.48.01-.1-.06-.34-.2-.25-.1-.28-.95-2.63-1.4-2.33.14-.37-.16-.99.18-1.35.5-.54.42-1.36.99-1.85.1.23-.07.79.2,1.04,1.38,1.26,3.68,4.8,4,6.83l1.04,6.54c0,.14-.07.29-.17.26Z"/>
          <path class="cls-2" d="M115.07,183.06c-.25,1.13-.55,2.3-.44,3.4h-.45c.02-.15-.08-.33-.07-.5.83-1.03-.22-1.76-.2-2.67.57-4.3-3.45-19.98-3.4-23.49.59-.42.64,1.47.8,2.36l3.76,20.91Z"/>
          <path class="cls-2" d="M114.88,188.87l-.25-2.41c-.11-1.1.19-2.27.44-3.4.74-.14.48,4.91.43,5.54-.02.31-.47.3-.62.27Z"/>
          <path class="cls-2" d="M106.4,176.65c.22.74,1.73,3.07,1.97,3.31l.53,1.37c.28.72.53,1.36,1.15,1.75.56.86.79,1.71,1.2,2.64-1.94,2.52-3.86,1.88-5.04,2.64-1.62-.16-1.85.46-3.4.17.03-.26.33-.45.65-.54,4.5-1.3,3.8-7.35,2.62-10.84-.07-.21-.19-.42,0-.49.1-.04.24.01.31-.01Z"/>
          <path class="cls-2" d="M108.37,153.55c-1.77,0-3.57-.32-5.3-.82.02-.22.02-.33.02-.38.77.32,5.6.65,5.28,1.2Z"/>
          <path class="cls-2" d="M110.53,153.79c-.56-.06-1.3.23-1.68-.24.21-.35,1.53-.34,1.67-.11.05.09.02.24.01.35Z"/>
          <path class="cls-2" d="M104.09,171.79c.15.57.29,1.07.72,1.65.59.79.8,1.73,1.4,2.43.06.26.11.52.19.77-.08.03-.21-.03-.31.01-.18.07-.06.27,0,.49,1.18,3.49,1.88,9.53-2.62,10.84-.32.09-.62.28-.65.54-1.65.49-3.31.65-5.03.57-.66-.03-1.52-.15-1.9-.67.63-.81,1.87-.73,2.67-1.23-.07.55,2.59-.21,3.28-.36,1.25-.28,2.94-.99,3.41-2.34.77-2.21.09-4.58-.64-6.71-.45-1.29-.85-2.64-1.88-3.36l-1.88-7.29c-.08-.32.11-.52.35-.59.59.49,2.75,4.62,2.91,5.25Z"/>
          <path class="cls-2" d="M98.55,187.19c1.76-1.09,3.69-1.9,5.41-3.24.44-.34.75-.73.61-1.35l-1.86-8.18c1.04.71,1.43,2.06,1.88,3.36.73,2.12,1.41,4.5.64,6.71-.47,1.36-2.16,2.07-3.41,2.34-.69.15-3.35.91-3.28.36Z"/>
        </g>
        <g>
          <path class="cls-2" d="M117.04,44.77c1.14.02,2.24.49,3.45.7,3.99.7,6.81,3.1,9.36,6.18.28.34.34.89.81.87.66,1.76.64,3.45.4,5.34-.34,2.68-.73,5.17-1.32,7.85-1.34,6.04-2.45,12-2.79,18.18.36,2.05,3.62,4.63,3.63,6.44,0,.82-1.21,1.1-1.75,1.28-.14.05-.3.1-.43.19-.3.21.13.27.19.48.72,2.33,3.29,4.41,2.92,6.41-.39,2.15-4.04,3.05-2.25,4.22,1.13-1.56.63-.37,2.34-1.8-.26,2.54-.08,5.16-2.61,6.39-4.68,2.28-13.39,3.97-18.72,4.07,1-.02-5.06.3-3.35.44-.09,0-.17,0-.26-.01.06-.97,5.42-1.14,6.68-1.88-1.62-.85-2.5.21-5.62-.38-.62-.12-1.13-.48-1.69-.34-.36-1.73,1.61.27,4.91-.83.57-.19,1.11-.11,1.76-.22-.16-.26-.45-.19-.5-.42.23-.38.68-.1,1.2-.24,0,.15-.03.28,0,.37.06.15.27.1.47.11,3.05.14,5.84-.79,8.65-1.92,2.15-.87,4.33-1.73,6.18-3.09-1.45.11-2.14,1.31-3.34,1.59-1.04.24-1.84.98-2.84,1.26l-3.36.95c-1.93.54-3.75.84-5.76.73,3.24-.91,6.54-1.61,9.74-2.93,2.01-.83,3.52-2.17,5.17-3.49,1.28-1.02,1.81-2.45,1.28-3.93-.15-.42-.5-1.4-1.02-1.18-1.61,2.07-2.85,4.34-4.99,5.85-2.33,1.64-4.5,3.36-7.3,4.01-.24.06-.57,0-.67-.17-.73-1.09,7.49-2.19,11.24-10.9.08-.19,0-.49,0-.61,0-.16-.48-.22-.67-.04-1.71,1.56-3.54,2.75-5.64,3.71-.92.42-4.56,2.18-5.14.92-.1-.22.23-.55.52-.7,3.44-1.66,6.67-3.54,9.54-6.05.94-.82,2.06-2.86,1.44-3.57-2-2.3-1.51,1-4.2-1.1-1.64,1.63-2.94,3.79-4,5.76-.49.91-.98,1.94-1.88,2.63l-.74.57c2.78-4.5,4.67-9.5,6.47-14.45,1.62-4.44,3.23-8.89,4.62-13.53.34-1.13,1.13-2.02,1.06-3.3-.79.85-1.04,3.32-1.66,3.63-.12-1.11.92-1.84.46-3.11l-4.29,11.88c-.99,2.74-1.63,5.47-2.74,8.05-.42.64-.71,1.66-1.09,2.37l-2.02,3.75-2.07,3.44c-.12-.11-.23-.05-.33.03-.16.13-.17.33-.14.5,0,.06,0,.12,0,.17-.13-.14-.22-.03-.31.05-.19.14-.13.35-.17.51-.09.33-.42.59-.48.9-.12-.05-.23-.02-.32.04-.18.13-.11.35-.16.49-.2.56-.67.95-1,1.45-.36.02-.6.31-.63.67l-1.06,1.24c-.65.13-.86.73-1.17,1.22-.45.72-1.27,1.17-1.67,1.93-.4-.01-.8-.28-1.29-.15l-1.35,4.66c-.51.56-2.67,1.08-2.61,1.85-.24-.01-.5.12-.74.08.21-2.04-.37-4.06-1.99-5.31-1.12-.86-2.65-1.22-4.01-.69-2.89,1.15-1.09.84-2.88,1.44,0-.07.02-.17,0-.24.03-.78.82-1.27,1.42-1.68,1.32-.64,4.3-1.06,5.81-.76s3.45-2.05,4.54-3.05c1.31-1.21,2.52-2.4,3.68-3.85,2.79-3.49,4.72-9.74,6.04-10.89,1.09-.95,1.96-1.85,2.25-3.34.26-1.33,1.57-2.23,2.01-3.46l3.36-9.54c.71-2.01,1.58-3.26,3.19-4.65,1.15-.99.73-3.24.82-4.58.22-3.25-.04-9.87-4.47-9.78-.78,1.17-1.85,2.17-2.03,3.48-2.3,3.47-2.19,8.45-3.87,12.33-.65.21-.67.95-.89,1.61l-1.7,5.28c-.17-.01-2.04,4.49-.7,3.16,1.3-.42,2.08-1.73,3.19-2.59s2.22-1.64,3.09-2.83c.13-.17.56-.14.64,0,.22.38-.96,1.39-.89,2.03-.35.13-.5.69-.76.93-.11-.02-.22,0-.32.05-.18.07-.08.37-.16.47-.65.74-1.27,1.54-2.15,2.17-.37.27-.78.47-.79.9-.3.01-.6,0-.9.04-.66.09-1.05.65-1.78.84-1.27.32-2.2,1.53-3.5,1.77-.69-.7-2.86-2-1.99-3.36,1.33.24,3.86,2.04,4.37.26.27-.21.32-.56.3-.89.14.14.23.05.31-.05.13-.18.11-.36.11-.53,0-.12,0-.26.02-.38.66-1.05.84-2.35,1.23-3.63l2.12-6.98,1.55-5.52c.52-1.85,1.19-3.59,2.1-5.3.41-.78,1.77-1.48,1.74-2.47-.03-1.07-1.79-1-2.52-.49l-6.13,4.25c-.24.16-.34.38-.37.59-1.19.27-4.92,2.8-5.94,2.92-.56.07-1.12.28-1.7.24,3.53-1.83,7.25-4.59,10.28-7.22.81-.71,1.99-1.12,2.44-2.14.09-.2.73-.2.37-.61-.64-.73-1.68.09-2.58.77-2.4,1.83-4.89,3.38-7.57,4.71-.73.36-1.15.7-1.91.65,1.03-1.37,3.97-2.56,4.98-3.79.62-.26,4.43-2.8,4.08-3.41,1.39-.57,1.29-2.16,2.22-3.2.63.07,1.26.25,1.89.26ZM128.89,63.55c-.51-.24-.79,1.54-.47,1.46.02-.58.97-1.22.47-1.46Z"/>
          <path class="cls-2" d="M99.77,47.78c.15.49-.36.83-.55,1.28-.4.97,0,1.99.01,2.99.03,2.02.12,6.35,2.05,7.26.78.36,3.73-.36,3.27-.8,1.01-.12,4.75-2.65,5.94-2.92,2.2.5,5.93-1.93,5.27.67l-1.91,7.5c-.99,3.9-2.54,7.57-3.08,11.37-.02.12-.02.26-.02.38-.19-.15-.38.04-.41.2-.03.14,0,.27,0,.38.02.33-.04.67-.3.89-1.57.68-4.61-.75-5.72-2.18l-2.09-2.7c-.14-.18-.36-.32-.49-.36-.21-.07-.53.42-.35.72l3.7,6.03c-1.17,1.17-2.79.62-4.17.24-1.73-.47-3.13-1.08-4.41-2.38-.65-.66-1.55-1.07-2.01-2.07-.58.32.11.88-.1,1.56-.04.12-.2.21-.37.19-.6-.52-.73-1.33-1.25-1.92-.32-.26-.5-.5-.48-.96-.03-1.11-.98-2.17-.89-3.37.12-1.78.55-3.44.45-5.27-.04-.72.5-1.54.13-2.18-.3-.52.19-.9.23-1.47.11-1.38.08-2.74.08-4.03v-.24c0-.99.39-1.7-.37-2.09-.51.73-.6,1.42-.74,2.1-.03.14-.08.33-.06.48-1.46,2.41-1.1,8.69-1.87,11.17-.2.65-.69,1.14-.64,1.96.11,1.77-1.97-.19-2.33.93-.33,1.05,2.91,2.02,2.94,4.06-1.81-.75-3.31-1.64-5.03-1.63-.08-.61.22-1.15.47-1.79l4.82-12.68,2.42-6.96c.26-.74.69-1.6,1.18-2.2.68-.84,3.21-.18,3.25-1.25.44.23,2.65-.72,3.16-.95l.27.05Z"/>
          <path class="cls-2" d="M83.9,75.81c-.31.75,1.74.73,2.84,2.46.84,1.33,1.5,5.67-.39,5.66l-1.21-3.87c-.24-.76-1.18-2.08-2.17-1.53-2.13,1.16-.59,5.74-1.56,7.65l-1.07-1.02c-.04-.14-.1-.29-.12-.44-.17-1.12-1.32-2.27-2.47-2.18-.15.36-.32.93-.36,1.18.41.5.88,1.24,1.43,1.44-.02.21.12.44.09.66-.13.99.23,2-.34,3.1-.76-2.43-5.05-6.43-7.06-4.82.02-.2-.08-.41-.08-.62,1.3-1.67,4.46-.49,4.81-.6.19-.06.14-.41.3-.55,2.41-2.03,4.67-4.06,6.8-6.38.15-.17.48-.08.58-.14Z"/>
          <path class="cls-2" d="M84.65,74.81c-.1.32.09.39.41.54,1.86.89,3.7,2.4,4.25,4.5-.99.02-.81-1.17-1.69-1.39.33,1.73,1.31,3.38.73,5.18-.08.23-1.76,3.02-2.82,2.69-.79-.25-.48-4.17-1.96-3.81-.95.23-.43,2.83-1.87,5.47-.15.27-.54.33-.74.22-.33-.19-.4-2.33-.62-3.05l1.07,1.02c.98-1.91-.56-6.49,1.56-7.65.99-.54,1.94.78,2.17,1.53l1.21,3.87c1.9,0,1.24-4.34.39-5.66-1.1-1.73-3.16-1.71-2.84-2.46.14-.34.29-.65,0-.98.22-.07.54.08.76-.02Z"/>
          <path class="cls-2" d="M88.45,75.55c-1.07-.49-1.97-1.51-3.34-1.4-.41.03-1.06.53-1.22-.04.11-.12.11-.45.3-.55,1.72-.01,3.22.88,5.03,1.63-.03-2.04-3.27-3-2.94-4.06.36-1.13,2.44.83,2.33-.93-.05-.81.43-1.3.64-1.96.77-2.48.41-8.76,1.87-11.17.28,2.51-.66,4.99-.71,7.65-.1,4.72-1.72,3.89-.66,7.88.34,1.29.47,2.57.61,3.96-.93-.11-1.28-.72-1.91-1.01Z"/>
          <path class="cls-2" d="M119.44,44.37h.22c.18.26.47.34.76.4.5.1,1.15.09,1.63.29l2.88,1.22c.97.41,1.68,1.3,2.67,1.66.74.6,1.19,1.77,2.14,2.12l.92,2.46c-.47.01-.52-.53-.81-.87-2.55-3.08-5.37-5.48-9.36-6.18-1.21-.21-2.31-.69-3.45-.7.02-.2.02-.41,0-.61.8.04,1.59.19,2.39.2Z"/>
          <path class="cls-2" d="M88.45,75.55c.06.23.43.27.24.74-1.21-.52-2.74-2.1-4.05-1.48-.21.1-.53-.04-.76.02-.21-.24-.28-.54,0-.72.16.57.81.08,1.22.04,1.36-.11,2.27.91,3.34,1.4Z"/>
          <path class="cls-2" d="M93.95,104.36c.58-1.76,5.42-1.17,6.59-2.09l3.08-2.4c.98-.76,2.1-1.46,2.62-2.72-1.66.42-5.28,3.32-6.37,3.13-.22-.04-.3-.36-.58-.56-.2-.14-.64.17-.78.33-.29,0-.55-.11-.82-.42-1.03.99-1.91.5-3.11.83.93-.77,2.2-1.36,3.42-1.39.18,0,.31.07.56.02,2.65-.56,5.01-1.93,7.4-3.4,2.08-1.27,3.39-3.16,4.56-5.3,2.16-3.92-1.26-6.17,1.23-7.11,1.66-.62,2.27.54,3.07.1.21-.12.58-.44.48-.85-.16-.7-.81-1.37-1.5-1.57-2.59-.74-3.83,1.14-4.68.46-.11-.09.07-.41.26-.54l2.15-1.44c.31-.21.37-.47.19-.71-.45.21,1.72-1.19,1.21-1.26.3-.04.6-.03.9-.04,0,.34-.22.61-.43,1.1.41.09,3.76.3,3.84.25.21-.13.46-.45.56-.8l1.94-6.29c-1.02.09-1.05.99-1.73,1.24-.07-.65,1.11-1.65.89-2.03-.08-.14-.51-.17-.64,0-.87,1.19-1.95,1.94-3.09,2.83s-1.89,2.18-3.19,2.59c-.02-.71.3-1.41.73-1.96l.15.37c.26.63,6.45-6.54,6.96-7.15,2.34-2.83,4.01-9.23,2.85-12.62-.46-1.34-2.47-1.18-3.54-1.02.18-1.31,1.25-2.31,2.03-3.48,4.43-.09,4.69,6.53,4.47,9.78-.09,1.33.32,3.58-.82,4.58-1.6,1.39-2.48,2.64-3.19,4.65l-3.36,9.54c-.43,1.23-1.75,2.13-2.01,3.46-.29,1.49-1.16,2.38-2.25,3.34-1.32,1.16-3.24,7.4-6.04,10.89-1.16,1.45-2.37,2.63-3.68,3.85-1.09,1-3.02,3.35-4.54,3.05s-4.49.12-5.81.76Z"/>
          <path class="cls-2" d="M113.41,107.71c-.52.14-.97-.14-1.2.24-2.04.42-3.98.89-5.9.08l4.7-4.85c2.01-2.07,3.58-4.36,5.07-6.7l.74-.57c0,.29-.06.58,0,1,1.39.25,6.41-3.76,7.44-4.71.48-.45.36-1.26.21-1.66-.94-2.55-4.29,1.26-5.18,2.4-.19.24-.35.36-.58.34,1.06-1.96,2.36-4.12,4-5.76,2.7,2.1,2.2-1.2,4.2,1.1.62.71-.5,2.75-1.44,3.57-2.87,2.51-6.1,4.39-9.54,6.05-.29.14-.62.48-.52.7.57,1.27,4.22-.5,5.14-.92,2.11-.96,3.94-2.15,5.64-3.71.19-.17.66-.12.67.04,0,.12.08.42,0,.61-3.75,8.71-11.98,9.81-11.24,10.9.11.16.43.22.67.17,2.8-.65,4.97-2.37,7.3-4.01,2.14-1.51,3.38-3.77,4.99-5.85.52-.22.88.76,1.02,1.18.53,1.48,0,2.91-1.28,3.93-1.65,1.32-3.16,2.65-5.17,3.49-3.2,1.33-6.5,2.03-9.74,2.93ZM116.82,103.97c4.34-1.77,5.44-4.72,4.33-4.64-.14.01-.49-.18-.73-.07-2.03.95-4.24,1.45-6.18,2.53-1.24.7-1.91,2.12-3.08,2.9-.6.4-1.26.8-1.37,1.59.97.23,5.8-1.82,7.03-2.32Z"/>
          <path class="cls-2" d="M110.03,76.97c-.51,1.78-3.03-.01-4.37-.26-.87,1.35,1.3,2.66,1.99,3.36-.06.43-.79.54-.48,1,.18.37-.09.91.03,1.4.28.06.49,0,.69.02-.45.3-.46.47-.65.85-.56,1.12-1.07,2.16-1.53,3.25-1.29,3.06-2.92,6.04-4.99,8.63-2.27-1.23-.33-3.57-3.75-7.3-.39-.43.19-2.92-.35-5.43,1.91.33,3.18,1.62,6.01,1.44.9-.06,1.22-1.14,1.23-1.78.04-2.06-2.71-1.88-4.47-2.91-1.55-.91-2.89-1.94-4.25-3.32-.42.49-.05.99-.23,1.49-.77-.09-.53-1.07-.88-1.38.18.02.34-.07.37-.19.2-.68-.48-1.24.1-1.56.46,1,1.36,1.41,2.01,2.07,1.27,1.3,2.67,1.91,4.41,2.38,1.38.37,3,.92,4.17-.24l-3.7-6.03c-.18-.3.14-.79.35-.72.13.04.35.18.49.36l2.09,2.7c1.11,1.44,4.14,2.86,5.72,2.18Z"/>
          <path class="cls-2" d="M112.72,74.35c-.03-.32-.04-.64-.03-.96.72-.85,2.48-5.94,2.59-7.13,1.68-3.88,1.57-8.86,3.87-12.33,1.07-.15,3.08-.32,3.54,1.02,1.16,3.38-.51,9.79-2.85,12.62-.51.62-6.7,7.78-6.96,7.15l-.15-.37Z"/>
          <path class="cls-2" d="M110.77,75.13c.55-3.8,2.09-7.47,3.08-11.37l1.91-7.5c.66-2.61-3.07-.17-5.27-.67.03-.21.14-.43.37-.59l6.13-4.25c.73-.51,2.49-.58,2.52.49.03,1-1.33,1.69-1.74,2.47-.91,1.71-1.58,3.45-2.1,5.3l-1.55,5.52-2.12,6.98c-.39,1.28-.56,2.58-1.23,3.63Z"/>
          <path class="cls-2" d="M93.95,104.36c-.6.41-1.39.9-1.42,1.68-.5-1.4-.46-3.67.9-4.58,1.19-.8,4.66-.91,5.09-1.41.14-.16.58-.47.78-.33.27.2.36.52.58.56,1.09.19,4.71-2.71,6.37-3.13-.52,1.26-1.64,1.96-2.62,2.72l-3.08,2.4c-1.18.92-6.01.34-6.59,2.09Z"/>
          <path class="cls-2" d="M119.4,88.75c-.11.11-.05.38-.22.48-.24.14-.27.47-.24.72-1.94,4.98-6.21,10.73-10.01,14.72-.35.36-.57.91-1.04.97-.29.01-.52-.19-.51-.45,0-.24-.09-.58.03-.8.41-.76,1.22-1.2,1.67-1.93.58-.14,1.03-.64,1.17-1.22l1.06-1.24c.36-.03.59-.32.63-.67.32-.49.79-.89,1-1.45.18.14.39-.04.41-.18l.07-.35c.06-.31.39-.57.48-.9.18.15.37-.05.44-.19.06-.12.05-.26.05-.37,0-.06.01-.12,0-.17.19.1.39-.02.41-.17l.05-.36,2.07-3.44,2.02-3.75c.2-.08.35.05.38.17.06.23.07.4.08.56Z"/>
          <path class="cls-2" d="M116.84,95.91c.9-.68,1.39-1.72,1.88-2.63.23.02.39-.1.58-.34.89-1.14,4.24-4.95,5.18-2.4.15.4.27,1.22-.21,1.66-1.03.95-6.05,4.97-7.44,4.71-.05-.42,0-.7,0-1Z"/>
          <path class="cls-2" d="M107.4,104.39c-.12.22-.03.55-.03.8,0,.26.22.46.51.45-.35.64-.82,1.37-1.67,1.66-.18-.74.4-1.11.17-1.76-.68,1.16-.79,2.48-.97,3.83-.16,1.15-1.54.93-2.48,1.51,1.26.39,2.76-.35,3.12-1.46.56-.13,1.07.23,1.69.34,3.11.59,4-.47,5.62.38-1.26.74-6.61.91-6.68,1.88l-.69-.02c-.3-.28-.76-.02-1.22-.11l-1.69-.34c-.04-.09-.17-.12-.22-.21,0-.17-.02-.38-.16-.47-.17-.1-.37-.11-.54-.12-.05-.76,2.1-1.29,2.61-1.85l1.35-4.66c.5-.13.9.14,1.29.15Z"/>
          <path class="cls-2" d="M122.56,82.03c-1.8,4.95-3.69,9.95-6.47,14.45-1.5,2.34-3.07,4.63-5.07,6.7l-4.7,4.85c1.91.82,3.86.34,5.9-.08.05.23.34.16.5.42-.65.11-1.19.03-1.76.22-3.29,1.1-5.26-.91-4.91.83-.36,1.11-1.86,1.85-3.12,1.46.94-.58,2.32-.36,2.48-1.51.19-1.35.29-2.68.97-3.83.24.66-.35,1.02-.17,1.76.86-.29,1.32-1.02,1.67-1.66.47-.06.69-.6,1.04-.97,3.8-3.98,8.06-9.74,10.01-14.72.09-.23.37-.42.24-.72.17-.1.12-.37.22-.48.71-.72.73-1.8,1.18-2.64.75-1.41.98-3.09,1.95-4.32l.03.24Z"/>
          <path class="cls-2" d="M102.85,53.71c.28.69.25,1.15,1.02,1.2s1.18-.28,1.91-.65c2.68-1.33,5.17-2.88,7.57-4.71.9-.68,1.94-1.5,2.58-.77.36.41-.28.41-.37.61,0-.34-2.53,1.78-2.4,1.88-2.06,1.31-4.01,2.79-6.03,4.33-.22.17-.48.19-.66.25-.1-.7,1.95-1.59.44-1.58-.93.47-1.79,1.16-2.88,1.25-2.61.22-2.43-7.14-3.1-8.72l.22-.06c.23-.05.42.02.47.16.09.28-.03.53,0,.81l.72,5.03c.07.51.36.69.5.97Z"/>
          <path class="cls-2" d="M113.83,77.43c0-.44.41-.64.79-.9.88-.63,1.5-1.43,2.15-2.17.17.03.35-.02.43-.16.06-.1,0-.29.06-.35.26-.24.41-.8.76-.93.68-.25.71-1.15,1.73-1.24l-1.94,6.29c-.11.35-.36.67-.56.8-.08.05-3.43-.16-3.84-.25.21-.48.42-.76.43-1.1Z"/>
          <path class="cls-2" d="M126.59,68.82c.09.86-.69,1.9-.94,2.65-.99,2.94-2.16,5.87-2.85,8.9-.11.46-.37.91-.27,1.42-.98,1.22-1.21,2.91-1.95,4.32-.28.02-.57-.14-.55-.45,1.1-2.58,1.74-5.31,2.74-8.05l4.29-11.88c.45,1.27-.58,2-.46,3.11Z"/>
          <path class="cls-2" d="M100.45,53.95c-.08.86.07,1.68.24,2.65.11.61-.25,1.4.28,1.88s1.3.23,1.87.27,1.14-.17,1.7-.24c.47.44-2.49,1.16-3.27.8-1.93-.91-2.02-5.24-2.05-7.26-.02-.99-.41-2.01-.01-2.99.19-.45.69-.79.55-1.28.23.04.42.3.42.64v4.58c0,.39.18.71.26.94Z"/>
          <path class="cls-2" d="M113.17,51.27l-.04.26c-3.03,2.63-6.75,5.38-10.28,7.22-.58-.03-1.37.19-1.87-.27-.53-.48-.18-1.28-.28-1.88-.17-.96-.32-1.79-.24-2.65h.24c.44.31.09,3.04.64,4.48,1.86-.11,3.25-1.18,4.64-2.08.09-.06.16-.16.24-.24.09-.08.18-.17.26-.26.18-.05.44-.08.66-.25,2.02-1.54,3.97-3.02,6.03-4.33Z"/>
          <path class="cls-2" d="M122.56,82.03l-.03-.24c-.09-.51.16-.96.27-1.42l2.65-7.65c.16-.45.22-.86.2-1.24.25-.74,1.03-1.79.94-2.65.62-.31.87-2.77,1.66-3.63.06,1.29-.73,2.18-1.06,3.3-1.39,4.65-3,9.09-4.62,13.53Z"/>
          <path class="cls-2" d="M122.53,106.03v.24c-2.8,1.13-5.59,2.06-8.65,1.92-.2,0-.41.04-.47-.11-.04-.09,0-.22,0-.37,2.01.11,3.83-.19,5.76-.73l3.36-.95Z"/>
          <path class="cls-2" d="M115.28,66.26c-.11,1.19-1.86,6.28-2.59,7.13,0-.08-.02-.17,0-.24l1.7-5.28c.21-.66.24-1.4.89-1.61Z"/>
          <path class="cls-2" d="M112.93,77.47c.52.07-1.66,1.47-1.21,1.26-1.54.71-3.12,1.42-4.55,2.34-.31-.45.43-.57.48-1,1.29-.24,2.23-1.45,3.5-1.77.73-.18,1.12-.74,1.78-.84Z"/>
          <path class="cls-2" d="M120.03,85.65c-.01.31.27.47.55.45-.45.85-.47,1.92-1.18,2.64,0-.16-.02-.33-.08-.56-.03-.12-.18-.24-.38-.17.38-.71.66-1.73,1.09-2.37Z"/>
          <path class="cls-2" d="M101.41,110.83c-.42-.07-.23-.66-.24-.96-.04-1.52-.75-3.1-1.96-4.14l.21-.21c1.62,1.25,2.2,3.27,1.99,5.31Z"/>
          <path class="cls-2" d="M99.42,105.52l-.21.21c-.89-.77-2.51-.68-3.56-.66-.09-.07-.17-.15-.24-.24,1.36-.54,2.89-.17,4.01.69Z"/>
          <path class="cls-2" d="M112.69,73.39c0,.32,0,.64.03.96-.43.55-.75,1.25-.73,1.96-1.34,1.33.53-3.18.7-3.16-.02.07,0,.16,0,.24Z"/>
          <path class="cls-2" d="M122.53,106.27v-.24c1-.28,1.81-1.02,2.84-1.26,1.2-.27,1.88-1.48,3.34-1.59-1.85,1.36-4.03,2.22-6.18,3.09Z"/>
          <path class="cls-2" d="M115.57,49.39c-.45,1.02-1.63,1.44-2.44,2.14l.04-.26c-.13-.1,2.41-2.22,2.4-1.88Z"/>
          <path class="cls-2" d="M117.05,44.16c.01.2.01.41,0,.61-.64-.01-1.26-.19-1.89-.26,0-.13-.03-.27-.06-.4.65-.12,1.3.02,1.96.05Z"/>
          <path class="cls-2" d="M95.41,104.83c.07.09.15.17.24.24-.41.05-.83.59-1.2.72-.39.14-.67.14-.96.48-.19.22-.79.14-.96.48v-.48c1.79-.6-.01-.29,2.88-1.44Z"/>
          <path class="cls-2" d="M110.24,101.24c-.13.58-.58,1.08-1.17,1.22.3-.49.51-1.09,1.17-1.22Z"/>
          <path class="cls-2" d="M128.89,63.55c.5.23-.45.88-.47,1.46-.32.08-.04-1.7.47-1.46Z"/>
          <path class="cls-2" d="M102.15,110.75c.17,0,.37.01.54.12.14.09.16.3.16.47-.47-.14-.94-.31-1.44-.27,0-.08,0-.16,0-.24.24.04.5-.09.74-.08Z"/>
          <path class="cls-2" d="M111.94,99.34c-.04.35-.27.64-.63.67.04-.35.27-.64.63-.67Z"/>
          <path class="cls-2" d="M113.41,97.36l-.07.35c-.03.14-.23.32-.41.18.05-.15-.01-.37.16-.49.09-.06.2-.09.32-.04Z"/>
          <path class="cls-2" d="M110.75,75.51c0,.17.03.35-.11.53-.08.11-.17.19-.31.05,0-.11-.04-.24,0-.38.04-.16.22-.35.41-.2Z"/>
          <path class="cls-2" d="M117.26,73.85c-.06.06,0,.25-.06.35-.08.14-.26.19-.43.16.09-.1-.02-.39.16-.47.1-.04.22-.07.32-.05Z"/>
          <path class="cls-2" d="M114.38,95.91c0,.11.01.24-.05.37-.07.14-.26.33-.44.19.04-.16-.02-.36.17-.51.1-.08.19-.19.31-.05Z"/>
          <path class="cls-2" d="M114.85,95.21l-.05.36c-.02.16-.23.28-.41.17-.03-.17-.02-.37.14-.5.1-.08.21-.15.33-.03Z"/>
          <path class="cls-2" d="M92.29,56.59v.24c-.56,1.83-.38,3.78-.67,5.66-.01.09,0,.26-.05.34-.26.36-.21.79-.24,1.2-.07,1.01-.74,5.67-.53,6.58.67,2.93,2.33,5.37,3.37,8.05l-.81.59c-3.1,7.26-5.52,8.28-11.84,11.72-.6.33-1.15.66-1.51,1.12-.15.04-.4-.15-.58-.14-.22,0-.26.27-.38.37l-1.72.65c-.39.15-.7.42-.68.79l-.88.02c-.13-.47.13-.78.51-1.16,1.51-1.48.64-3.17.41-4.6-.09-.58-.77-1.03-.68-1.66,1.45.8,1.9,2.48,2.55,4.26.88-.32,1.09-5.67.34-4.81.03-.22-.11-.44-.09-.66.03-.44-.48-.75-.3-1.26.85.05,1.11.73,1.69.83.02.15.08.29.12.44.22.72.29,2.86.62,3.05.2.11.6.05.74-.22,1.44-2.64.92-5.24,1.87-5.47,1.49-.36,1.17,3.56,1.96,3.81,1.06.34,2.75-2.45,2.82-2.69.58-1.8-.4-3.45-.73-5.18.88.22.7,1.41,1.69,1.39-.55-2.09-2.38-3.61-4.25-4.5-.32-.15-.51-.22-.41-.54,1.31-.62,2.84.96,4.05,1.48.19-.46-.18-.51-.24-.74.63.29.98.9,1.91,1.01-.14-1.39-.27-2.67-.61-3.96-1.05-3.99.57-3.15.66-7.88.05-2.66,1-5.14.71-7.65-.02-.14.03-.33.06-.48.18-.05.33-.44.49-.4.25.07.4.37.62.39Z"/>
          <path class="cls-2" d="M94.02,76.03c.35.3.11,1.28.88,1.38.18-.49-.19-1,.23-1.49,1.36,1.38,2.7,2.41,4.25,3.32,1.76,1.03,4.51.86,4.47,2.91-.01.63-.33,1.72-1.23,1.78-2.83.18-4.1-1.11-6.01-1.44-.1-.46-.25-.78-.69-.94-.13-.67-.27-1.4-.76-1.93-.08-.52-.23-1.06-.64-1.53l-1.45-2.86c-.2-.4-.34-.76-.31-1.13.52.59.65,1.4,1.25,1.92Z"/>
          <path class="cls-2" d="M92.29,73.15c-.02.46.16.7.48.96-.03.37.1.73.31,1.13l1.45,2.86c.41.47.56,1.01.64,1.53-.14-.15-.38-.28-.52-.43l-.47-.54c-1.05-2.68-2.71-5.12-3.37-8.05-.21-.91.45-5.57.53-6.58h.24c.15.89-.16,1.89-.2,2.87-.14,3.25-.89,3.67.92,6.25Z"/>
          <path class="cls-2" d="M100.45,47.23c.15.6.31,5.84.24,6.72h-.24c-.08-.23-.26-.56-.26-.94v-4.58c0-.34-.2-.6-.43-.64l-.27-.05c.29-.13.5-.64.96-.51Z"/>
          <path class="cls-2" d="M91.98,62.33c-.13.03-.25.09-.36.16.29-1.89.11-3.84.67-5.66,0,1.29.03,2.65-.08,4.03-.05.58-.53.95-.23,1.47Z"/>
          <path class="cls-2" d="M92.29,56.59c-.22-.02-.37-.32-.62-.39-.16-.04-.31.35-.49.4.14-.68.23-1.37.74-2.1.76.4.37,1.11.37,2.09Z"/>
          <path class="cls-2" d="M92.29,73.15c-1.81-2.59-1.06-3-.92-6.25.04-.97.35-1.97.2-2.87.4-.25.29-1.36,0-1.2.05-.07.04-.24.05-.34.11-.08.23-.13.36-.16.37.65-.17,1.46-.13,2.18.1,1.82-.33,3.48-.45,5.27-.08,1.2.86,2.26.89,3.37Z"/>
          <path class="cls-2" d="M106.48,55.85c-.08.09-.17.18-.26.26-.08.08-.16.16-.24.24-1.4.9-2.78,1.97-4.64,2.08-.55-1.44-.19-4.17-.64-4.48.07-.88-.09-6.12-.24-6.72-.02-.08.01-.16,0-.24.17,0,.33-.15.48-.19.67,1.58.48,8.94,3.1,8.72,1.09-.09,1.95-.78,2.88-1.25,1.51,0-.54.88-.44,1.58Z"/>
          <path class="cls-2" d="M78.9,85.82c.75-.87.54,4.49-.34,4.81-.66-1.78-1.1-3.45-2.55-4.26-.11-.06-.17-.19-.28-.26-.08-.05-.14-.22-.24-.24-.4-.08-.44-.72-1.15-.66.92.54,1.33,1.57,1.62,2.58.04.44.17.92-.13,1.48-.46-.27-.62-.7-1.04-.79,0-.05-.01-.11-.03-.16-.05-.11-.16-.18-.23-.28-.41-.66-.84-1.51-1.64-1.71-.27-.45-.77-.76-.8-1.43.2-.28.75-.06.69-.44-.65-.09-1.35.22-1.29-.36,2-1.6,6.29,2.39,7.06,4.82.58-1.09.21-2.11.34-3.1Z"/>
          <path class="cls-2" d="M80.2,84.72c-.59-.1-.84-.78-1.69-.83-.19.51.33.82.3,1.26-.55-.19-1.02-.94-1.43-1.44.04-.25.21-.82.36-1.18,1.15-.09,2.3,1.06,2.47,2.18Z"/>
          <path class="cls-2" d="M111.72,78.73c.18.24.12.5-.19.71l-2.15,1.44c-.18.12-.37.45-.26.54.85.68,2.09-1.21,4.68-.46.69.2,1.34.87,1.5,1.57.09.41-.27.73-.48.85-.81.44-1.42-.72-3.07-.1-2.49.93.93,3.19-1.23,7.11-1.17,2.13-2.48,4.03-4.56,5.3-2.39,1.46-4.75,2.84-7.4,3.4.04-.14-.1-.36-.04-.48.56-.1.87-.66.96-1.2.62-.08.58-.61.94-1,1.37-1.5,2.36-3.34,3.57-5.05,1.03-1.46,1.4-3.01,1.97-4.51.7-1.84,1.77-3.48,3.19-5.17l-1.27.83c-.2-.02-.41.04-.69-.02-.12-.5.15-1.03-.03-1.4,1.43-.92,3.01-1.63,4.55-2.34Z"/>
          <path class="cls-2" d="M96.62,82.49c.54,2.51-.04,5,.35,5.43,3.41,3.73,1.48,6.07,3.75,7.3-.21.27-.22.72-.5.97-.37.32-.64.72-.72,1.2-.52.06-.75.82-.96,1.2-.23.04-.41.28-.52.46-1.22.03-2.49.62-3.42,1.39l-1.1.31c-.15.04-.33-.03-.48,0-.13-.81-.32-1.6-.27-2.42.33-3.28,2.91-9.36,3.64-13.41.11-.61-.12-1.03-.57-1.39-.65-.5-.56-1.63.11-1.98.44.16.59.48.69.94Z"/>
          <path class="cls-2" d="M94.65,79.2c-3.83,7.56-6.53,10.08-14.63,12.89.35-.47.9-.8,1.51-1.12,6.32-3.44,8.74-4.46,11.84-11.72l.81-.59.47.54Z"/>
          <path class="cls-2" d="M76.45,88.51c1.03,1.51.21,3.5-1.19,4.8-.15.16-.49.26-.55,0-.04-.15-.09-.57.01-.7.42-.53.61-1.32.46-2.09l-.39-2.05c.42.1.59.52,1.04.79.29-.55.17-1.04.13-1.48l.49.72Z"/>
          <path class="cls-2" d="M93.49,106.27c.95-.06,1.92.06,2.85.5l.44.85c-1.38-.09-2.89-.34-4.25-.63-.08-.02-.16.01-.24,0,.07-.09.19-.14.24-.24.17-.34.77-.26.96-.48Z"/>
          <path class="cls-2" d="M98.53,100.04c-.43.5-3.9.61-5.09,1.41l.06-.47v-.23s1.1-.31,1.1-.31c1.2-.33,2.08.15,3.11-.83.27.31.54.43.82.42Z"/>
          <path class="cls-2" d="M75.77,93.79l-.5-.48c1.4-1.3,2.22-3.29,1.19-4.8,0-.19.05-.4.24-.48.23,1.43,1.09,3.11-.41,4.6-.39.38-.64.69-.51,1.16Z"/>
          <path class="cls-2" d="M76.65,93.77c-.01-.37.29-.64.68-.79l1.72-.65c-.04,1.07-1.43,1.42-2.41,1.44Z"/>
          <path class="cls-2" d="M93.49,100.75v.23s-.48,0-.48,0c0-.08.01-.16,0-.24.15-.03.33.04.48,0Z"/>
          <path class="cls-2" d="M100.43,96.39c-.36.39-.32.93-.94,1,.08-.48.35-.88.72-1.2.03.1.11.2.22.2Z"/>
          <path class="cls-2" d="M98.53,98.59c.21-.38.44-1.14.96-1.2-.09.54-.4,1.1-.96,1.2Z"/>
          <path class="cls-2" d="M98.57,99.07c-.25.05-.38-.03-.56-.02.12-.18.29-.42.52-.46-.06.12.07.34.04.48Z"/>
          <path class="cls-2" d="M116.82,103.97c-1.23.5-6.06,2.55-7.03,2.32.11-.79.77-1.19,1.37-1.59,1.17-.78,1.84-2.2,3.08-2.9,1.94-1.09,4.14-1.58,6.18-2.53.24-.11.58.08.73.07,1.11-.09,0,2.86-4.33,4.64Z"/>
          <path class="cls-2" d="M105.97,86.83c-.57,1.5-.94,3.05-1.97,4.51-1.21,1.71-2.19,3.55-3.57,5.05-.12,0-.19-.09-.22-.2.28-.25.29-.7.5-.97,2.08-2.59,3.7-5.57,4.99-8.63.1.07.19.15.27.24Z"/>
          <path class="cls-2" d="M105.97,86.83c-.08-.09-.17-.17-.27-.24.46-1.08.97-2.13,1.53-3.25.19-.38.2-.56.65-.85l1.27-.83c-1.41,1.69-2.49,3.33-3.19,5.17Z"/>
          <path class="cls-2" d="M118.93,89.95c-.03-.25,0-.58.24-.72.13.3-.15.49-.24.72Z"/>
          <path class="cls-2" d="M122.8,80.37c.69-3.02,1.86-5.95,2.85-8.9.03.38-.04.79-.2,1.24l-2.65,7.65Z"/>
          <path class="cls-2" d="M105.97,56.35c.08-.08.16-.16.24-.24-.08.08-.15.18-.24.24Z"/>
          <path class="cls-2" d="M99.21,105.73c1.21,1.04,1.93,2.62,1.96,4.14-.43.04-.64-.41-1.06-.63l-2.53-1.31c.29-.08.46-.37.47-.59.07-1.16-2.78-1.4-3.59-1.55.37-.13.79-.67,1.2-.72,1.05-.02,2.66-.11,3.56.66Z"/>
          <path class="cls-2" d="M94.45,105.79c.81.15,3.66.38,3.59,1.55-.01.23-.18.51-.47.59-.22-.06-.64-.06-.8-.31l-.44-.85c-.93-.44-1.9-.56-2.85-.5.29-.34.57-.34.96-.48Z"/>
          <path class="cls-2" d="M75.49,85.87c.07.09.15.17.24.24.1.07.17.2.28.26-.08.64.59,1.08.68,1.66-.19.08-.25.29-.24.48l-.49-.72c-.28-1-.69-2.04-1.62-2.58.7-.06.75.58,1.15.66Z"/>
          <path class="cls-2" d="M91.57,64.03h-.24c.03-.41-.02-.84.24-1.2.29-.16.4.95,0,1.2Z"/>
          <path class="cls-2" d="M75.73,86.11c-.09-.07-.17-.15-.24-.24.1.02.16.19.24.24Z"/>
        </g>
        <g>
          <path class="cls-2" d="M118.01,27.56l-.62-.12c-.2-.04-.44-.56-.48-.78-.48-2.72-1.82-4.85-3.11-7.17-.62-1.11-1.47-1.79-2.82-1.72-.53.03-1.07-.09-1.6-.02-.19.02-.56-.04-.57.22-.2,0-.43.01-.63.02-.18,0-.56-.03-.57.22-4.07.82-8.42.62-12.43-.75-.55-.19-.9-.65-1.47-.42-.21.09-.47.02-.61.15-.66.58-.26,4.74.39,5.92.43-.7.61-1.06,1.24-.74s.88.7.5,1.47c-.12.25.07.6.04.78-.45,1.45-.71,2.91-.07,4.32-1.08,1.24-.66,3.19-.56,4.86.2,3.4,2.32,5.72,4.79,7.76,1.29,1.07,2.54,1.97,4.48,2,2.41.04,5.22-.69,7.2-2.22,3.65-2.81,3.75-3.78,5.69-7.49.29-.55-.04-1.38.42-1.81,1.04-.96,2.84,1.15,4.51-.85.64-.77.09-1.74-.19-2.7.08-.33.75-.28,1-.15.33.18.4.6.6,1.03.23.47.9.3,1.28.35-.38,1.57-1.37,2.97-2.84,3.84-1.13.66-2.38.51-3.44-.06-.39,1.88-.42,3.86-1.54,5.41-1.44,1.99-5,3.46-4.83,4.11.03.13.06.44.29.47l2.52.37c.2,1.71-.95,2.7-1.65,3.84.35.61-3.46,3.15-4.08,3.41-1.85.78-3.34,2.15-5.39,3.27-.82-2.82-.9-5.64-.83-8.37.13-.23.41-.31.75-.63l-2.67-1.06c-1.58-.63-7.68-6.02-7.47-11.99.25-7.08-3.28-14.05.63-17,1.69.55,3.63,1.53,5.61,1.48,1.27-.03,2.43.19,3.68,0,4.23-.68,8.11-2.26,11.66-4.66-.58,1.82-.25,3.63,1.12,5,.1,2.94.76,5.74,1.99,8.45.29.64.46,1.43.07,1.95ZM104.53,45.43c0-.07-.05-.12-.12-.12s-.12.05-.12.12.05.12.12.12.12-.05.12-.12ZM105.05,46.03c-.14-.09-.59-.34-.52-.05l.48,2.2c.04.19.06.41.14.71.07.27.49-.11.77.06.79.48,1.91.65,2.87.34.7-.23,1.65-1.09,1.67-2.1.03-1.23-1.22-1.82-2.3-1.91-1.18-.09-2.16.02-3.12.75Z"/>
          <path class="cls-2" d="M102.62,46.02c-.06,2.72.02,5.55.83,8.37,2.05-1.11,3.55-2.48,5.39-3.27-1.01,1.23-3.94,2.42-4.98,3.79-.77-.05-.74-.51-1.02-1.2-.46-2.1-.59-4.21-.46-6.5.02-.36.04-.87-.26-.94.05-.21.42-.13.49-.25Z"/>
          <path class="cls-2" d="M115.09,44.11c.03.13.05.27.06.4-.93,1.03-.82,2.62-2.22,3.2.7-1.14,1.85-2.13,1.65-3.84.19.03.37.12.51.24Z"/>
          <path class="cls-2" d="M118.01,27.56c.21,2.39,1.63-1.39,2.88-2.12.9-.53,2.3.17,2.97.62,1.1.72.68,1.86.83,2.92-.02.27-.21.5-.27.76-.38-.05-1.04.12-1.28-.35-.21-.42-.28-.85-.6-1.03-.25-.14-.92-.18-1,.15.28.96.84,1.93.19,2.7-1.67,2-3.47-.12-4.51.85-.46.43-.13,1.26-.42,1.81-1.94,3.71-2.04,4.68-5.69,7.49-1.99,1.53-4.79,2.26-7.2,2.22-1.94-.03-3.18-.93-4.48-2-2.47-2.04-4.59-4.36-4.79-7.76-.1-1.67-.53-3.62.56-4.86h.25c-.25.68-.29,1.43-.05,2.22s-.32,1.6-.26,2.4c.34,4.23,3.38,7.51,7.29,8.84,1.61.55,3.12.43,4.71-.19l2.05-.79c1.49-.58,2.4-1.56,3.51-2.59,2.25-2.09,3.66-4.91,3.05-8.04-1.47-1.75.14-3.27-.58-3.69-.48-.29-1.13.63-1.74.47-.25-1.51-1.5-3.9-3.21-3.54-1.39.29-1.63,2.98-1.61,4.27-2.78.14-1.2-7.01.75-8.17,1.27.04,2.51.16,3.5,1.14.19-.56-.18-.84-.44-1.11-.07-.11.03-.42-.15-.46l-.33-.07c-.07-.02-.19-.14-.21-.21-.07-.54-.79-1.03-.78-1.64,1.34-.07,2.2.6,2.82,1.72,1.29,2.32,2.63,4.45,3.11,7.17.04.22.28.74.48.78l.62.12Z"/>
          <path class="cls-2" d="M102.13,46.28c.3.07.28.58.26.94-.13,2.29,0,4.4.46,6.5-.14-.28-.43-.47-.5-.97l-.72-5.03c-.04-.28.09-.53,0-.81-.05-.14-.24-.21-.47-.16.12-.42.57-.51.97-.47Z"/>
          <path class="cls-2" d="M107.61,18.21c.1.11.27.25.38.2.19-.08.35-.27.19-.42.2,0,.43-.02.63-.02.11.07.25.26.37.2.2-.1.34-.27.19-.42.53-.06,1.07.05,1.6.02-.02.61.7,1.09.78,1.64-.69-.12-1.31-.91-2.13-.59-.41.15-.18.98-.25,1.31-1.96,1.16-3.53,8.32-.75,8.17.08,1.58,3.15,1.03,4.19.73.57-.17.74-.79.63-1.45.61.16,1.25-.76,1.74-.47.71.42-.89,1.94.58,3.69.61,3.12-.8,5.95-3.05,8.04-1.11,1.03-2.01,2.01-3.51,2.59l-2.05.79c-1.59.62-3.1.74-4.71.19-3.91-1.33-6.95-4.62-7.29-8.84-.06-.8.51-1.58.26-2.4s-.2-1.54.05-2.23c1.48-.04,3.11.12,4.25-.91.1-.04.4,0,.5-.22,1.19-2.63.93-6.85-1.95-7.67-.08-.36-.06-.73-.28-1.24-1.35.12-3.69.77-3.69,2.33-.94.7-1.25-3.01-.57-4.2.57-.24.92.23,1.47.42,4.01,1.37,8.36,1.57,12.43.75ZM98.35,31.62c-.72.56-.24,1.4.39,1.97,1.73,1.55,3.58.35,3.89-.16s.32-1.04.02-1.54c-.63.72-2.17.59-2.46.39-.19-.13-.27-.42-.27-.68.23.03.87.03.72-.45-.17-.52-.92-.46-1.42-.45-.41.02-.51.63-.87.91ZM105.78,37.54c-1.4.38-2.23.93-3.24.46.35-.34.78.09,1.05-.28-.7-.33-1.25.06-1.8.42-.79-.59-1.63-1.31-2.6-.86,1.34,1.33,1.07,2.23,1.93,2.68.26.13.76-.31.98-.24.97.34,1.5.24,2.28-.36.62-.47,1.88-.86,1.4-1.84Z"/>
          <path class="cls-2" d="M93.71,17.04c-.68,1.19-.37,4.9.57,4.2,2.58-1.92,3.16-.14,3.96-1.1,2.88.81,3.13,5.03,1.95,7.67-.1.22-.4.18-.5.22-.44-1.58-.82-4.24-2.97-4.32-.55-.02-1.03.42-1.45.92.04-.18-.16-.53-.04-.78.38-.77.1-1.16-.5-1.47s-.81.04-1.24.74c-.65-1.18-1.05-5.34-.39-5.92.15-.13.4-.06.61-.15Z"/>
          <path class="cls-2" d="M99.69,28.03c-1.14,1.02-2.76.86-4.25.91h-.25c-.64-1.4-.37-2.86.07-4.31.43-.5.91-.94,1.45-.92,2.15.08,2.53,2.74,2.97,4.32Z"/>
          <path class="cls-2" d="M105.01,48.18c.21.07.28-.23.25-.48l-.21-1.67c.96-.73,1.94-.85,3.12-.75,1.08.09,2.33.67,2.3,1.91-.02,1.01-.97,1.88-1.67,2.1-.95.31-2.08.14-2.87-.34-.28-.17-.7.2-.77-.06-.08-.3-.1-.51-.14-.71Z"/>
          <path class="cls-2" d="M105.05,46.03l.21,1.67c.03.24-.05.55-.25.48l-.48-2.2c-.06-.29.38-.04.52.05Z"/>
          <path class="cls-2" d="M108.18,17.99c.16.15,0,.34-.19.42-.11.05-.27-.1-.38-.2.01-.25.39-.21.57-.22Z"/>
          <path class="cls-2" d="M109.38,17.75c.15.16,0,.32-.19.42-.12.06-.26-.13-.37-.2.01-.26.38-.2.57-.22Z"/>
          <circle class="cls-2" cx="104.41" cy="45.43" r=".12"/>
          <path class="cls-2" d="M113.44,27.58c.11.66-.06,1.29-.63,1.45-1.04.3-4.11.85-4.19-.73-.01-1.29.22-3.98,1.61-4.27,1.71-.35,2.95,2.03,3.21,3.54Z"/>
          <path class="cls-2" d="M111.76,19.41c.02.07.14.2.21.21.08.23.26.41.47.53.26.27.63.55.44,1.11-1-.97-2.24-1.1-3.5-1.14.07-.33-.15-1.16.25-1.31.82-.31,1.44.48,2.13.59Z"/>
          <path class="cls-2" d="M112.44,20.15c-.21-.12-.39-.29-.47-.53l.33.07c.18.04.08.35.15.46Z"/>
          <g>
            <path class="cls-2" d="M91.97,107.2c.12,0,.25-.12.32-.21.08.01.16-.02.24,0-.19.91,1.93.49,2.42,1.03.02.99,3.33,1.72,2.28,2.78s-3.55,1.12-6.44,3.37c-.36.28-.86.25-1.18.19.54-.93,1.57-1.52,2.47-2.14.7-.49,1.78-.45,2.33-1.38-.91.04-1.95.19-2.4.89-.77-.36-5.6,3.63-4.74,4.39-.42.14-1.05.56-1.51.02-.33-.38-.15-1.04-.19-1.45,1.34-1.76,3.13-3.06,5.01-4.37.23-.16.29-.44.31-.59.28-1.94-8.46,5.04-5.77,4.97-.43.3-.98.44-1.46.29-.56-.17-.96-.51-1.01-1.08,1.38-1.85,3.03-3.55,5.1-4.81.49-.3,1.52-.71,1.43-1.44-1.1-1.68-7.81,4.78-7.47,5.78-.38-.17-.73-.6-.7-1.15.12-1.81,3.2-4.43,4.8-5.08.36-.14.68-.24,1.09-.53,1.2-.83,2.93.67,5.08.5Z"/>
            <path class="cls-2" d="M96.78,107.62c.15.25.58.25.8.31l2.53,1.31c.42.22.63.67,1.06.63,0,.3-.18.89.24.96,0,.08,0,.16,0,.24,0,.53-.35,1.22-.72,1.44.17-.71.54-1.68,0-2.4-.69-.92-1.87-1.38-2.91-1.4-.82-.55-1.85-.84-2.83-.69-.48-.54-2.6-.13-2.42-1.03,1.36.29,2.87.55,4.25.63Z"/>
            <path class="cls-2" d="M100.69,112.51c-.15.09-.41.33-.48.48-3.31,1.43-3.69-.79-6.24,1.44-.75.65-1.8.99-2.64,1.43-.53.06-1.09.04-1.58-.16.4-.54,1.04-.69,1.55-1.08,4.08-3.07,5.86-1.49,7.27-4.24-.17-.73-.74-1.07-.79-1.67,1.03.02,2.22.48,2.91,1.4.54.72.17,1.69,0,2.4Z"/>
            <path class="cls-2" d="M97.78,108.71c.05.6.62.94.79,1.67-1.41,2.75-3.19,1.17-7.27,4.24-.51.38-1.15.53-1.55,1.08.49.2,1.04.22,1.58.16-.96.5-1.84.68-2.65-.26.25-.46.31-1.11.93-1.24.33.06.82.09,1.18-.19,2.88-2.25,5.35-2.28,6.44-3.37s-2.25-1.79-2.28-2.78c.98-.15,2.01.14,2.83.69Z"/>
            <path class="cls-2" d="M82.64,113.93c-.44.2-.67-.35-.93-.47-.34-1,6.36-7.46,7.47-5.78.09.73-.94,1.14-1.43,1.44-2.07,1.26-3.71,2.96-5.1,4.81Z"/>
            <path class="cls-2" d="M85.56,114.69l-.45.02c-2.7.06,6.05-6.91,5.77-4.97-.02.15-.08.43-.31.59-1.87,1.31-3.67,2.61-5.01,4.37Z"/>
            <path class="cls-2" d="M92,111.73l.08.49c-.9.63-1.93,1.21-2.47,2.14-.62.13-.68.78-.93,1.24-.27.46-1.02.39-1.42.52-.86-.77,3.97-4.75,4.74-4.39Z"/>
            <path class="cls-2" d="M100.21,112.99c-.42.93-2.62,1.26-3.81.71-.94-.15-1.67.71-2.43.73,2.55-2.23,2.93-.01,6.24-1.44Z"/>
            <path class="cls-2" d="M92.08,112.22l-.08-.49c.45-.7,1.49-.85,2.4-.89-.55.93-1.63.89-2.33,1.38Z"/>
          </g>
          <path class="cls-2" d="M105.78,37.54c.48.97-.79,1.36-1.4,1.84-.78.6-1.31.7-2.28.36-.22-.08-.72.37-.98.24-.86-.45-.59-1.35-1.93-2.68.98-.45,1.81.27,2.6.86.55-.36,1.1-.76,1.8-.42-.27.37-.7-.06-1.05.28,1,.47,1.84-.08,3.24-.46Z"/>
          <path class="cls-2" d="M99.92,31.61c0,.26.08.55.27.68.29.2,1.83.33,2.46-.39.3.51.29,1.05-.02,1.54s-2.16,1.71-3.89.16c-.63-.57-1.12-1.41-.39-1.97.07.4.05.86.34,1.22.02-.47-.1-.85.27-1.14.23-.18.64-.14.97-.1Z"/>
          <path class="cls-2" d="M98.25,20.15c-.81.96-1.39-.82-3.96,1.1,0-1.56,2.34-2.22,3.69-2.33.21.51.19.87.28,1.24Z"/>
          <path class="cls-2" d="M99.92,31.61c-.33-.04-.74-.09-.97.1-.36.29-.25.67-.27,1.14-.29-.35-.27-.81-.34-1.22.36-.28.45-.89.87-.91.5-.02,1.26-.07,1.42.45.15.47-.48.48-.72.45Z"/>
          <g>
            <path class="cls-2" d="M71.42,83.47c0,.2.1.41.08.62-.07.58.63.27,1.29.36.06.37-.5.16-.69.44.03.67.53.98.8,1.43-.38-.1-.63-.44-1.04-.6-.5-.2-1.08.45-1.65.41-3.45-.22-4.9,4.89-5.01,7.35-1.07-.37-.45-1.94-.91-1.65.06-2.49,1.26-4.76,3.33-6.45-.32-.38-.87-.18-1.18.13-2,1.98-3.06,4.73-2.88,7.47-.08-.01-.18.06-.27.06-.37-.11-.54-.48-.8-.72.05.09.2.14.33.01-.15-1.94.69-3.43,1.19-5.28.38.14,1.54-2.02.41-1.86-.19.03-.38.06-.72.18-.47-.06-.78-.46-.71-.93,1.3-.5,7.02-1.83,8.02-.26.12-.28.26-.5.42-.7Z"/>
            <path class="cls-2" d="M62.99,84.44c-.06.47.25.87.71.93-.2.87-1.07,1.55-1.13,2.66,0,.18-.22.31-.28.44-.61.19-.4-2.53,0-3.09.6-.86-2.57-.4-2.12,5.28-.93-.89-.03-2.63-.27-4.15.45-.05.6-.7.78-1.04.51-1,1.57-.74,2.31-1.02Z"/>
            <path class="cls-2" d="M62.29,88.47c-.18.83-.22,1.66-.25,2.57-.36-.01-.61-.03-.71.18-.3-.21-.83-.11-1.15-.35,0-.07,0-.14-.02-.21-.45-5.68,2.72-6.14,2.12-5.28-.4.56-.61,3.28,0,3.09ZM60.99,89.93c.09-1.16.34-1.76.55-2.82-.64.84-1.18,1.88-.55,2.82ZM61.36,90.43c0-.08-.07-.15-.15-.15s-.15.07-.15.15.07.15.15.15.15-.07.15-.15Z"/>
            <path class="cls-2" d="M72.89,86.32c.8.2,1.23,1.05,1.64,1.71v.29c-.3-.25-.45-.61-.7-.71-.42-.18-.88.04-1.27.1-1.17.18-3.47-1.53-4.82.77-.82,1.4-1.33,2.93-1.71,4.66.38.17.6-.16.82-.31,2.2,1.01,1.93.07,2.69,1.45l-1.07,1.37c-.34.44-.93.5-1.32.35-1.16-.44-.42-2.14-.84-2.36-.38-.19-.81-.06-1.13-.17.11-2.45,1.56-7.57,5.01-7.35.57.04,1.14-.61,1.65-.41.42.16.66.51,1.04.6Z"/>
            <path class="cls-2" d="M64.28,91.83c0,.36-.03.71-.09,1.15-.29.08-.47.01-.64,0-.18-2.73.87-5.49,2.88-7.47.31-.31.86-.5,1.18-.13-2.07,1.69-3.27,3.96-3.33,6.45Z"/>
            <path class="cls-2" d="M64.42,85.19l-.92,1.83c.19.09.25-.1.35-.1.06,0,.13.05.17.13-.5,1.85-1.35,3.34-1.19,5.28-.13.13-.28.08-.33-.01l.08-4.28c.06-1.12.93-1.79,1.13-2.66.33-.12.53-.15.72-.18Z"/>
            <path class="cls-2" d="M64.01,87.05c-.04-.08-.11-.13-.17-.13-.1,0-.16.19-.35.1l.92-1.83c1.13-.16-.03,2-.41,1.86Z"/>
            <path class="cls-2" d="M62.49,92.31c-.38-.35-.72-.8-1.15-1.09.1-.21.34-.19.71-.18.04-.91.08-1.74.25-2.57.05-.13.28-.26.28-.44l-.08,4.28Z"/>
            <path class="cls-2" d="M74.52,88.33h.24s.02.1.03.15l.39,2.05c.15.77-.04,1.56-.46,2.09-.87-.09-.68-2.14-2.14-3.18-.31-.22-.57-.32-.91-.5-.89-.46-1.93-.84-3.04-.6-.39.84-1.99,4.03-1.78,4.49-.22.15-.44.48-.82.31.38-1.73.89-3.27,1.71-4.66,1.35-2.3,3.65-.59,4.82-.77.39-.06.85-.28,1.27-.1.25.1.4.46.69.71Z"/>
            <path class="cls-2" d="M60.99,89.93c-.63-.94-.09-1.98.55-2.82-.21,1.07-.45,1.66-.55,2.82Z"/>
            <circle class="cls-2" cx="61.21" cy="90.43" r=".15"/>
            <path class="cls-2" d="M74.76,88.32h-.24s.01-.28.01-.28c.06.1.18.17.23.28Z"/>
          </g>
        </g>
        <g>
          <path class="cls-2" d="M129.74,50.07c-.94-.35-1.39-1.52-2.14-2.12.29-.59.15-1.32.79-1.93.11.52.32,1.19.99,1.09.43-.06.32-.99.51-1.39.57-1.2.68-2.33.58-3.52-.05-.54-.06-1.14,0-1.68.07-.58.05-1.12.02-1.7-.04-1.1,0-2.2-.21-3.29.26.13.32-.12.4-.24.17-.25-.16-.68-.14-.9.23-2.37-.23-4.48-.92-6.71-.58-1.89-.98-3.74-1.59-5.63l-2.63-8.15c-.52-1.6-2.77-3.5-4.21-2.26l-2,1.72c-.74.64-.69.84-.77,1.72-.15,1.53-.33,2.89.12,4.41.36,1.2.27,2.59,1,3.67.75-.33.65-1.03,1.33-1.19-.12,1.37-.5,2.42,0,3.46-1.25.74-2.67,4.51-2.88,2.12.39-.51.22-1.31-.07-1.95-1.23-2.7-1.89-5.51-1.99-8.45-1.37-1.37-1.7-3.18-1.12-5-3.55,2.4-7.43,3.98-11.66,4.66-1.25.2-2.42-.02-3.68,0-1.98.05-3.92-.93-5.61-1.48-3.92,2.95-.38,9.92-.63,17-.21,5.98,5.89,11.37,7.47,11.99l2.67,1.06c-.35.31-.62.4-.75.63-.07.12-.44.05-.49.25-.4-.04-.85.05-.97.47l-.22.06c-.16.04-.32.2-.48.19-1.64-.06-1.91,1.74-3.35.36-.77-.73.11-1.22.35-1.75-.54-2.46-2.75-3.94-3.4-5.85-.05-.13-.31-.37-.4-.32-.11.06-.06.42-.26.61-.54-1.02-.64-2.11-.99-3.39-.21,1.43-.26,2.85-.02,4.34.05.33-.24.5-.45.49-.57-.02-.39-1.26-.8-1.71.04-3.19-.15-6.47.36-9.71.19-1.17.47-2.08.09-3.2-.29-.87.42-2.14-.83-2.77-.33.67-.25,4.28-1.37,3.25-.06-.27,0-.69-.03-.97.61-.57.77-1.71.32-2.42.09-.14.03-.49.03-.66.29.13.45-.16.45-.42,0-.21-.07-.44-.24-.61-.03-.13.07-.3.02-.42.12.09.23.01.3-.05.14-.12.09-.27.12-.48l1-6.88c.15-1.02.83-1.84.91-2.76.44-.92.96-1.83,1.72-2.58.23-.03.68.08.91-.15.12-.12.26-.45.18-.6-.37.1-.5.17-.7.18-.09,0-.2-.02-.17-.19l.31-.67c.8.1,1.79-2.56,3.17-3.52.57-.61,4.65-2.81,4.25-3.18,5.57-1.83,11.47-.86,16.89,1.23,2.72,1.05,3.69,3.05,5.14,5.23,3.06,4.61,5.8,9.29,6.91,14.85.56,2.8,1.51,5.47,1.45,8.41l-.3,15.04c-.04,1.87-.87,3.3-2.27,4.34ZM109.8,3.72c.85.1,1.6.06,2.33.19,1.15.22,2.11,1.08,3.4.67-1.28-1.08-2.49-2.06-3.92-2.57-1.53-.54-4.24-.87-5.84-.53-.4.09-.52.8-1.24.63-1.44-.33-5.34,1.21-6.12,2.68.61.45,1.19.13,1.79-.08,3.04-1.08,6.27-1.39,9.6-1ZM105.49,4.45c-3.13-.43-8.05,1.82-10.08,3.66-.05.05,0,.28,0,.36,0,.1.14.19.24,0,.04-.07.02-.22.05-.32,1.42-.39,2.73-1.19,4.21-1.31,2.9-.22,4.07-.64,6.8-.41,9.66.83,10.65,4.27,12.22,4.77.43.13.97.12,1.2-.15.69-.8-.49-2.48-.93-2.99-2.93-3.32-9.95-3.96-13.71-3.61ZM115.81,4.87c0-.07-.05-.12-.12-.12s-.12.05-.12.12.05.12.12.12.12-.05.12-.12ZM103.32,15.24c.4-.16.59-.37.79-.35.12.01.38.4.51.37,1.9-.48,3.7-1.1,5.63-1.77,1.31-.45,2.39-1.52,3.68-2.33-1.1-3.4-3.41-1.62-4.36-3.15-.66.07-1.51.25-2.24,0-1.15-.41-2.33-.24-3.48-.42-2.04-.3-5.02.03-6.86,1.02-1.03.55-4.31,3.17-2.54,5.13.4-.55.85-.55,1.31-.66.61-.14.67.5,1.16.76l2.11,1.11c1.58-.88,1.12.74,3.39-.16.34.05.57.58.9.45ZM93.69,14.52c-.74-1.08-.7-2.17-.46-3.58-.78,1.11-.78,2.7.46,3.58Z"/>
          <path class="cls-2" d="M100.45,46.99c.01.08-.02.16,0,.24-.45-.13-.66.37-.96.51-.5.23-2.72,1.17-3.16.95l-3.66-.92c-1.16-.29-2.07-.79-2.78-1.58-.25-.62-.42-1.31.23-1.88-.32-.75-.19-1.52.16-2.15.57-1.04-.16-1.47-.6-2.13-.55-.82-.23-2.05-.42-2.92,1.41-.24-.04,1.75,1.88,2.65.41.46.22,1.7.8,1.71.22,0,.51-.16.45-.49-.24-1.49-.2-2.91.02-4.34.35,1.28.44,2.38.99,3.39.2-.19.15-.55.26-.61.1-.05.36.19.4.32.66,1.91,2.87,3.39,3.4,5.85-.25.54-1.12,1.02-.35,1.75,1.44,1.38,1.71-.42,3.35-.36ZM93.76,40.51c0-.08-.07-.15-.15-.15s-.15.07-.15.15.07.15.15.15.15-.07.15-.15Z"/>
          <path class="cls-2" d="M89.47,31.15c.09.49-.22,1.19-.02,1.65-.46-.43-.25,3.03-.24,3.19.02.37-.03.76.05,1.12.2.87-.12,2.1.42,2.92.44.66,1.17,1.09.6,2.13-.35.64-.48,1.41-.16,2.15-.66.56-.49,1.26-.23,1.88-.36-.4-.87-.52-1.02-1.33-.6-3.19-.17-13.15.26-16.35.49-.26.2,1.82.34,2.64Z"/>
          <path class="cls-2" d="M101.92.97c.4.37-3.69,2.57-4.25,3.18-1.38.96-2.37,3.61-3.17,3.52,1.46-3.13,4.17-5.63,7.42-6.7Z"/>
          <path class="cls-2" d="M91.58,26.84c-.27-.04-.53-.2-.83-.2-.74,1.29-.14,5.13-1.28,4.5-.14-.82.15-2.9-.34-2.64.05-.41,0-.85.26-1.19,1.12,1.03,1.04-2.58,1.37-3.25,1.24.64.54,1.9.83,2.77Z"/>
          <path class="cls-2" d="M92.26,11.67c-.09.92-.76,1.74-.91,2.76l-1,6.88c-.03.21.02.36-.12.48-.07.06-.17.14-.3.05-.18-.43,1-6.93,1.25-8.12.18-.86.79-1.45,1.07-2.05Z"/>
          <path class="cls-2" d="M89.36,26.35c-.06-.79-.1-1.72.32-2.42.45.7.29,1.85-.32,2.42Z"/>
          <path class="cls-2" d="M93.98,9.09c-.08-.28.11-.54.21-.76-.03.17.08.19.17.19.2,0,.33-.08.7-.18.07.15-.06.48-.18.6-.23.23-.68.12-.91.15Z"/>
          <path class="cls-2" d="M89.71,23.28c-.01-.32-.22-.88.21-1.03.17.17.24.4.24.61,0,.26-.16.54-.45.42Z"/>
          <path class="cls-2" d="M130.28,35.53c.22,1.08.17,2.19.21,3.29-.31.2-.12.81-.72.74-.19-.9.2-1.82-.61-2.57-.24.92.14,1.63-.3,2.44-.46-.34-.73-.66-1.16-.57l-.27,1.65c-.37.06-.69-.17-.98-.21-.47,1.59-.35,3.24-1.11,4.54l.92-9.65c.8-8.41-.94-7.58-.96-9.19-.01-1.28-1.22-1.72-1.8-2.45-.83-1.04-1.31-2.18-2.3-3.05-.59-4.29-.99-2.18-1.4-3.65-.17-.6.32-.9.42-1.4.17-.82.06-1.68.75-2.48.63-.74,1.91-.35,2.47.44.61.87.68,1.84,1.07,2.77,1.42,3.41,2.09,5.95,3.37,9.44.52,1.43,1.2,2.74,1.18,4.32-.01.81.5,1.43.71,2.17.33,1.17.28,2.34.5,3.43Z"/>
          <path class="cls-2" d="M130.28,35.53c-.22-1.09-.18-2.26-.5-3.43-.21-.74-.72-1.35-.71-2.17.02-1.58-.66-2.89-1.18-4.32-1.27-3.49-1.95-6.04-3.37-9.44-.39-.93-.46-1.9-1.07-2.77-.56-.79-1.83-1.19-2.47-.44-.69.81-.59,1.66-.75,2.48-.1.51-.59.8-.42,1.4.41,1.47.81-.64,1.4,3.65.99.87,1.47,2.01,2.3,3.05.58.73,1.78,1.16,1.8,2.45.02,1.61,1.76.78.96,9.19-.12.02-.94-.07-.94.24,0,2.73-.14,5.29-.71,8.05.24.57-.48.56-.48-.02.32-1.11.31-2.13.35-3.18.07-1.93.52-3.75.05-5.71-.82.84.01,1.91-.8,2.35-.59,0,.65-3.24-.5-2.92.07-.6.58-1.03,1.09-1.49,1.09-.98.51-2.48.36-3.53s.27-2.2-.83-2.92c-.67-.44-2.07-1.14-2.97-.62-.51-1.04-.13-2.09,0-3.46-.68.16-.58.86-1.33,1.19-.73-1.08-.64-2.47-1-3.67-.46-1.53-.27-2.88-.12-4.41.08-.88.03-1.08.77-1.72l2-1.72c1.44-1.24,3.69.65,4.21,2.26l2.63,8.15c.61,1.89,1,3.73,1.59,5.63.69,2.23,1.14,4.34.92,6.71-.02.22.3.65.14.9-.08.12-.13.37-.4.24Z"/>
          <path class="cls-2" d="M103.32,15.24c-.33.13-.56-.4-.9-.45-2.26.9-1.8-.72-3.39.16l-2.11-1.11c-.48-.26-.55-.89-1.16-.76-.46.1-.91.1-1.31.66-1.77-1.96,1.51-4.58,2.54-5.13,1.84-.98,4.83-1.32,6.86-1.02,1.15.17,2.33,0,3.48.42.73.26,1.58.08,2.24,0,.95,1.54,3.27-.25,4.36,3.15-1.29.81-2.37,1.87-3.68,2.33-1.93.67-3.73,1.29-5.63,1.77-.13.03-.39-.36-.51-.37-.2-.02-.39.19-.79.35ZM105.61,13.56c.89.1,1.49-.74,2.14-1.28,2.12-1.74,1.93-.38,3.04-2.09-1.07-.92-2.5-1.21-3.97-1.25-2.29-.08-3.35-1.98-8.86-.08-.08.73-.51,1.38-.85,1.87.99,1.12.63,2.41,2.15,2.03l.49.66c.5-.12.82-.41,1.35-.47.17.68.59.61,1.05.66,2.89.3,2.81-1.6,3.46-.03Z"/>
          <path class="cls-2" d="M106.72,6.44c.36-.28-1.35-.13-1.18-.67,1.85-.34,3.63.53,4.89-.05-.14-.33-4.94-1.27-4.93-1.27,3.76-.35,10.78.29,13.71,3.61.45.51,1.62,2.19.93,2.99-.23.27-.77.28-1.2.15-1.57-.49-2.55-3.94-12.22-4.77Z"/>
          <path class="cls-2" d="M130.5,38.81c.02.58.04,1.12-.02,1.7-.45.35-.44,1.32,0,1.68.11,1.19,0,2.32-.58,3.52-.19.4-.08,1.33-.51,1.39-.68.1-.89-.56-.99-1.09-.63.61-.49,1.34-.79,1.93-.99-.36-1.7-1.25-2.67-1.66.06-.52.15-1.01.41-1.45.76-1.31.64-2.95,1.11-4.54.29.04.61.27.98.21l.27-1.65c.43-.09.69.24,1.16.57.44-.8.06-1.51.3-2.44.81.75.42,1.67.61,2.57.6.07.41-.54.72-.74ZM128.8,40.27c0-.08-.07-.15-.15-.15s-.15.07-.15.15.07.15.15.15.15-.07.15-.15Z"/>
          <path class="cls-2" d="M109.8,3.72c-3.32-.39-6.56-.08-9.6,1-.6.21-1.18.53-1.79.08.77-1.47,4.68-3.01,6.12-2.68.72.16.84-.55,1.24-.63,1.6-.34,4.31-.01,5.84.53,1.43.51,2.64,1.48,3.92,2.57-1.29.41-2.26-.45-3.4-.67-.73-.14-1.48-.09-2.33-.19Z"/>
          <path class="cls-2" d="M91.58,26.84c.38,1.13.1,2.03-.09,3.2-.51,3.25-.32,6.52-.36,9.71-1.92-.9-.46-2.89-1.88-2.65-.08-.36-.03-.75-.05-1.12.66.55.55-2.47.24-3.19-.2-.46.11-1.16.02-1.65,1.14.62.54-3.22,1.28-4.5.3,0,.57.16.83.2Z"/>
          <path class="cls-2" d="M105.49,4.45s4.8.94,4.93,1.27c-1.26.58-3.04-.29-4.89.05-1.48.27-2.95.47-4.56.46-.43,0-1.09.24-1.06.61-1.48.11-2.79.91-4.21,1.31l-.29-.04c2.03-1.84,6.95-4.09,10.08-3.66Z"/>
          <path class="cls-2" d="M105.53,5.77c-.17.53,1.54.39,1.18.67-2.73-.23-3.9.18-6.8.41-.03-.37.64-.61,1.06-.61,1.61,0,3.08-.19,4.56-.46Z"/>
          <path class="cls-2" d="M93.69,14.52c-1.23-.88-1.24-2.47-.46-3.58-.24,1.41-.29,2.5.46,3.58Z"/>
          <path class="cls-2" d="M130.47,42.19c-.43-.36-.44-1.33,0-1.68-.06.54-.06,1.14,0,1.68Z"/>
          <path class="cls-2" d="M95.41,8.11l.29.04c-.03.1,0,.25-.05.32-.1.18-.23.09-.24,0,0-.07-.06-.31,0-.36Z"/>
          <circle class="cls-2" cx="115.69" cy="4.87" r=".12"/>
          <circle class="cls-2" cx="93.61" cy="40.51" r=".15"/>
          <path class="cls-2" d="M89.21,35.99c0-.17-.22-3.63.24-3.19.31.72.42,3.75-.24,3.19Z"/>
          <path class="cls-2" d="M123.24,33.99c-.69.78-1.67,1.3-2.45,1.99-.34.3-.87.21-1.02.78-.13.52.06.88.09,1.41.1,1.64-.82,3.11-1.13,4.65.17.5.79,1.02.7,1.55-.8,0-1.59-.16-2.39-.2-.65-.03-1.3-.17-1.96-.05-.15-.12-.32-.21-.51-.24l-2.52-.37c-.24-.04-.26-.35-.29-.47-.17-.65,3.39-2.13,4.83-4.11,1.12-1.54,1.15-3.52,1.54-5.41,1.06.57,2.32.72,3.44.06,1.47-.86,2.46-2.26,2.84-3.84.06-.25.26-.48.27-.76.15,1.05.74,2.55-.36,3.53-.51.46-1.02.89-1.09,1.49Z"/>
          <path class="cls-2" d="M126.27,35.17l-.92,9.65c-.26.45-.35.93-.41,1.45l-2.88-1.22c.69-1.04,1.66-6.45,1.58-7.17-.03-.32.1-.65.1-.97.81-.44-.02-1.51.8-2.35.47,1.96.02,3.78-.05,5.71-.04,1.05-.03,2.07-.35,3.18,0,.57.72.58.48.02.57-2.76.7-5.32.71-8.05,0-.32.82-.23.94-.24ZM124.12,45.48c.29-.43.6-1.13.07-1.11-.36.01-.29,1.02-.07,1.11Z"/>
          <path class="cls-2" d="M123.74,36.92c0,.32-.14.65-.1.97-1.21-.06-1.12,4.12-1.97,4.99-.39.59-1.55.87-1.25,1.89-.29-.06-.58-.13-.76-.39.18.02.55-.15.49-.48-.16-.8.48-6.85.65-7.91.78-.68,1.76-1.21,2.45-1.99,1.15-.31-.09,2.92.5,2.92Z"/>
          <path class="cls-2" d="M120.79,35.98c-.17,1.07-.81,7.11-.65,7.91.07.32-.3.5-.49.48h-.22c.08-.53-.53-1.06-.7-1.55.31-1.54,1.23-3.01,1.13-4.65-.03-.53-.22-.89-.09-1.41.15-.57.67-.48,1.02-.78Z"/>
          <path class="cls-2" d="M123.64,37.88c.07.72-.89,6.13-1.58,7.17-.48-.21-1.13-.2-1.63-.29-.3-1.02.85-1.3,1.25-1.89.85-.88.76-5.06,1.97-4.99Z"/>
          <path class="cls-2" d="M105.61,13.56c-.66-1.57-.57.33-3.46.03-.46-.05-.88.03-1.05-.66-.53.06-.86.35-1.35.47l-.49-.66c-1.52.38-1.15-.91-2.15-2.03.34-.49.77-1.14.85-1.87,5.52-1.9,6.57,0,8.86.08,1.47.05,2.9.33,3.97,1.25-1.11,1.72-.92.35-3.04,2.09-.65.54-1.25,1.38-2.14,1.28Z"/>
          <circle class="cls-2" cx="128.65" cy="40.27" r=".15"/>
          <path class="cls-2" d="M124.12,45.48c-.22-.08-.3-1.09.07-1.11.54-.02.22.68-.07,1.11Z"/>
        </g>
      </g>
      <g>
        <g>
          <path class="cls-2" d="M110.48,133.16c-1.41.5-2.33,1.65-2.89,3.13l-4.18,11.08-3.29,9c.52.22.75-.1,1.02-.28-.34.36-.04.98-.18,1.35-.57,1.51-1.04,3.14-1.9,4.51-.32.52-.54,1.01-.79,1.61-.67-.14.67-2.04.02-2.47l-3.61,8.07-6.89,15.92-4.39,10.01c-.17.38-.33.72-.7.76.29-4.66,3.66-8.84,5.6-13.37l6-13.94c.31-.72,3.1-8.07,1.87-7.81.26-.57.24-1.37.7-1.95.36-.46-.11-.6-.24-.89-.75-1.69-1.53-3.34-1.92-5.06,1.14-.55-.74-5.19-1.18-6.28l-2.09-5.14c-.66-1.64-1.78-5.65.1-6.34.22.68.46,1.25.74,1.89-.11-.04-.23-.01-.3.04-.19.14-.08.38-.07.6.08,1.83.67,3.41,1.36,5.08l2.75,6.61,1.6,4.38c.56-.43.97-.65,1.41-.88.64-.35.53-1.33.91-1.88.31-.45.38-.92.56-1.42l1.17-3.33c.16.1.38.15.48.05.09-.09.37-.24.42-.41,1.09-3.2,2.48-6.11,3.99-9.13,1.03-2.07,2.49-3.85,4.42-4.94-.21.32-.37,1.06-.51,1.43Z"/>
          <path class="cls-2" d="M82.7,195.85l-.04.62c-.19-.15-.35.05-.4.2-.05.13,0,.26-.02.37-.31,1.81-.99,1.89-1.27,3.74-.34-.56-1.43,2.66-1.2,2.72-.75-.02-1.51-.2-2.16-.75-.55-.46-.72-1.21-.38-1.9l6.32-12.69,12.61-27.44c1.23-.26-1.56,7.09-1.87,7.81l-6,13.94c-1.95,4.53-5.31,8.71-5.6,13.37Z"/>
          <path class="cls-2" d="M98.28,163.56l-10.97,26.49c3.82-.01,5.63-1.12,8.57-1.63.39.52,1.25.64,1.9.67,0,.08,0,.15,0,.23,1.06.96,5.56.36,5.54,1.16-.25.62-.93,1.08-1.58,1.3-5.81,1.99-8.99,1.03-14.6-.31.12-.44.29-.86.35-1.5-.7.76-.86,1.63-1.22,2.46l-4.35,10.06c-.35.8-1.09,1.22-1.86.99.26-.91.78-1.76.92-2.7.27-1.85.96-1.93,1.27-3.74.19.16.35-.06.4-.2.05-.14,0-.26.02-.37l.04-.62c.37-.05.54-.38.7-.76l4.39-10.01,6.89-15.92,3.61-8.07c.65.43-.69,2.33-.02,2.47Z"/>
          <path class="cls-2" d="M90.87,132.99l.67,2.08c-1.88.69-.76,4.7-.1,6.34l2.09,5.14c.44,1.09,2.32,5.72,1.18,6.28-1.1-2.06-1.78-4.32-2.69-6.62l-5.25-13.23c2.25-.18,1.15.38,4.09.02Z"/>
          <path class="cls-2" d="M80.98,200.78c-.14.94-.66,1.79-.92,2.7-.08-.02-.19.02-.28.02-.23-.07.85-3.28,1.2-2.72Z"/>
          <path class="cls-2" d="M107.42,141.32l-4.32,10.77c-.3.2-.64.54-.47,1,.02.05,0,.16,0,.21-.09.07-.2.14-.26.25-.1.2-.06.54-.24.69-.57.49-.49,1.31-.99,1.85-.27.17-.49.49-1.02.28l3.29-9,4.18-11.08c.56-1.48,1.47-2.63,2.89-3.13l-3.06,8.17Z"/>
          <path class="cls-2" d="M104.53,164.11c.37,1.18,1.02,2.29,1.52,3.53.79,1.96,1.75,3.75,2.82,5.58.29.5.21,1.19.7,1.45,0,.46.16.99.47,1.45.84,1.25,1.37,2.54,1.93,3.83-.74-1.71,2.36,4.13,1.94,3.33-.02.92,1.03,1.64.2,2.67-.97-.97-1.41-2.38-2.1-3.64l-2.8-5.1-4.04-7.53c-1.18-2.19-2.17-4.69-1.62-7.02.43.41.66.96.99,1.44Z"/>
          <path class="cls-2" d="M107.2,168.91l2.37,5.52v.24c-.49-.26-.41-.95-.7-1.45-1.07-1.84-2.03-3.62-2.82-5.58-.5-1.24-1.15-2.35-1.52-3.53,1.77,2.56,1.42,3.42,2.67,4.8Z"/>
          <path class="cls-2" d="M111.97,179.95c-.56-1.29-1.09-2.58-1.93-3.83-.31-.46-.47-.99-.47-1.45v-.24c-.3-.7,3.29,6.2,2.4,5.52Z"/>
          <path class="cls-2" d="M102.37,153.55c.05-.1.17-.18.26-.25-.03.12-.14.21-.26.25Z"/>
          <path class="cls-2" d="M103.31,161.95c.04.1.18.17.26.24-.03.16,0,.33-.03.48-.55,2.33.45,4.83,1.62,7.02l4.04,7.53,2.8,5.1c.69,1.26,1.14,2.67,2.1,3.64,0,.17.09.34.07.51-.08.72-.25,1.61-.83,2.07.1-.72-.08-1.19-.45-1.9l-4.17-7.98-3.39-6.92c-1.04-2.11-1.94-4.11-2.48-6.42-.38-1.62-.87-3.32-.27-4.81.42.36.52.94.72,1.44Z"/>
          <path class="cls-2" d="M107.41,129.79c-.15.03-.33-.04-.48,0,1.46-.58,2.85-1.44,4.65-1.65-1.31.85-2.76,1.37-4.17,1.65Z"/>
          <path class="cls-2" d="M102.36,159.78c.03.1.14.17.2.25-.02.14.08.35.03.48-.6,1.49-.11,3.19.27,4.81.54,2.31,1.44,4.31,2.48,6.42l3.39,6.92,4.17,7.98c.37.71.55,1.18.45,1.9l-.43.05c-.34-1.05-1.26-1.93-1.68-2.88s-.64-1.78-1.2-2.64c-.61-.94-.82-2.28-1.68-3.12-.54-1.42-1.17-2.92-2.16-4.08-.29-1.16-1.47-2.99-2.12-4.08-.17-.63-2.32-4.76-2.91-5.25-.28-1.26-2.09-3.42-2.11-4.59.86-1.37,1.32-3,1.9-4.51.45-.3,1.3,2.06,1.4,2.33Z"/>
          <path class="cls-2" d="M92.28,136.96l6.63,15.05c.13.29.08.57.12.77-.43.24-.84.46-1.41.88l-1.6-4.38-2.75-6.61c-.69-1.66-1.28-3.25-1.36-5.08,0-.22-.13-.45.07-.6.07-.05.19-.08.3-.04Z"/>
          <path class="cls-2" d="M82.66,196.47c0,.11.03.23-.02.37-.05.15-.21.36-.4.2.02-.11-.03-.24.02-.37.05-.15.21-.35.4-.2Z"/>
          <path class="cls-2" d="M104.53,164.11c-.34-.48-.57-1.03-.99-1.44.04-.15,0-.32.03-.48.01-.08,0-.16,0-.24.44.65.73,1.42.96,2.16Z"/>
          <path class="cls-2" d="M102.56,160.03c-.07-.08-.17-.15-.2-.25.14-.09.22.15.2.25Z"/>
          <path class="cls-2" d="M103.57,162.19c-.08-.07-.21-.14-.26-.24h.26c0,.08.01.16,0,.24Z"/>
          <path class="cls-2" d="M108.37,179.95c-.24-.24-1.75-2.57-1.97-3.31-.08-.25-.12-.52-.19-.77.99,1.16,1.62,2.66,2.16,4.08Z"/>
          <path class="cls-2" d="M110.05,183.07c-.63-.38-.87-1.02-1.15-1.75l-.53-1.37c.86.84,1.07,2.18,1.68,3.12Z"/>
          <path class="cls-2" d="M106.21,175.87c-.6-.7-.81-1.64-1.4-2.43-.43-.58-.57-1.08-.72-1.65.65,1.09,1.83,2.92,2.12,4.08Z"/>
        </g>
        <g>
          <g>
            <path class="cls-2" d="M12.42,104.36c1.73.24,3.33.83,4.88,1.57-.76-1.11-5.21-2.27-6.12-2.31.09.16.14.34.23.49.38.09.75.05,1.01.25Z"/>
            <path class="cls-2" d="M11.18,103.62c.09.16.14.34.23.49l-1.9-.45c.06-.15-.06-.36-.02-.52.63.24,1.03.46,1.69.49Z"/>
          </g>
          <path class="cls-2" d="M70.96,122.55c-.15,0-.28-.07-.27-.24.1,0,.28.11.27.24Z"/>
          <path class="cls-2" d="M73.09,123.31c-.54-.02-1.31-.14-1.43-.75.57.02,1.19.2,1.43.75Z"/>
        </g>
        <g>
          <path class="cls-2" d="M15.02,88.67c-1.19.97-3.47,1.08-5.6,2.39l-1.94,1.2c-1.85,1.15,2.2,2.18,3.38,2.82,1.74.94,3.65,1.15,5.54,1.69,2.82.8,5.59,1.48,8.3,2.43,1.59.56,3.1,1,4.65,1.32,1.16.24,2.25.72,3.44,1.1,1.81.57,3.63.96,5.47,1.32,1.03.2,1.94-.19,2.39-1.05s1.15-1.59,1.77-2.33-.14-1.65.04-2.39c.22-.86.61-1.61.42-2.48l.72-1.41c1.61-1.37,4.14-1.89,6.1-.87.58.3.22,1.55-.17,1.8-1.02-.04-2.19-.62-2.86.28-.07.01-.16,0-.24,0-.37-.03-.59.17-.72.48-.11.25-.29.45-.22.8.05.25.28.25.44.4.87.85,4.08,1.28,4.54,1.24-.21,1.04-.59,2.05-.44,3.12-2.01-.04-4.06-.5-5.83-1.69-.27-.18-.2-.85-.72-.69.51,1.94,2.46,3.17,4.46,3.36,1.54.15,2.31.82,3.39,1.75,1.88,1.63,4.23,2.67,6.44,3.81,1.11.57,2.26.83,3.34,1.13l-.08.3c-2.55.29-5.03,1.09-7.61,1.88-.49.15-1.06.98-1.07,1.41-5.19-1.88-10.47-3.39-15.89-4.95-3.88-1.12-7.52-2.77-11.8-4.02-3.58-1.04-6.96-2.25-10.37-3.8-2.14-.97-4.18-1.94-6.54-2.41,1.19,1.03,2.73,1.2,3.99,2.06.94.65,3.39,1.52,3.49,1.58.71.42,4.71,2.34,5.28,2.16.91.64,1.99,1.01,3.13,1.44l8.18,3.1c1.31.5,2.53.98,3.81,1.22.83.78,2.07.9,3.22,1.34s2.15.94,3.26.99c.08,0,.16.02.24.03-.02.14.05.23.15.23h.33s9.32,3.24,9.32,3.24l-.02.92c-2.71-1.2-5.69-1.64-8.56-2.72l-6.58-2.48c-3.32-1.25-6.62-2.11-9.97-3.27l-12.09-4.2c-2.08-.72-3.81-1.87-5.73-2.89-2.54-1.35-5.18-2.36-7.59-3.93-.35-.23-.39-.76-.28-1,.43-.9,1.75.81,2.83.5-.16-1.76,1.69-2.98,2.2-4.04,2.66-1.34,5.74-1.63,8.63-2.24Z"/>
          <path class="cls-2" d="M43.62,93.3l-.72,1.41c-.7-1.64-4.96-.23-6.49.44-2.12.93-3.41,2.99-4.44,5.03-.47.94-2.6-.41-2.61.36-1.55-.32-3.06-.77-4.65-1.32-2.71-.95-5.48-1.63-8.3-2.43-1.89-.54-3.8-.75-5.54-1.69-1.18-.64-5.23-1.67-3.38-2.82l1.94-1.2c2.12-1.32,4.4-1.42,5.6-2.39,3.72-.78,7.54-1.21,11.51-1.13,5.02.1,12.05,2.86,16.65,4.93.38.17.49.53.43.83Z"/>
          <path class="cls-2" d="M43.6,112.23l-6.58-2.48c-3.32-1.25-6.62-2.11-9.97-3.27l-12.09-4.2c-2.08-.72-3.81-1.87-5.73-2.89-2.54-1.35-5.18-2.36-7.59-3.93-.35-.23-.39-.76-.28-1,.43-.9,1.75.81,2.83.5-.16-1.76,1.69-2.98,2.2-4.04-2.64.4-6.7,2.76-6.37,5.84.13,1.21.72,2.68,1.99,3.28,2.51,1.18,4.99,2.18,7.48,3.11.63.24,1.03.46,1.69.49.92.04,5.37,1.2,6.12,2.31.9.43,1.79.9,2.68,1.38l7.87,3.28c1.32.32,2.41.76,3.31,1.31l2.34.82,16.68,6.77c.57.23,1,.51,1.52.47l.32-4.09c0-.1-.03-.27.13-.24,0-.22,0-.46,0-.69-2.71-1.2-5.69-1.64-8.56-2.72Z"/>
          <path class="cls-2" d="M116.75,122.36c1.06,3.35-2.18,3.91-4.17,5.44-.73.77-.99,3.05-1.58,3.93-1.93,1.09-3.39,2.87-4.42,4.94-1.51,3.03-2.9,5.94-3.99,9.13-.06.17-.33.32-.42.41-.1.1-.32.05-.48-.05.81-2.31,1.56-4.67,2.59-7.01.8-1.81,3.03-7.45,2.91-9.12.11-.04.18-.16.24-.24,1.41-.28,2.85-.8,4.17-1.65-1.79.21-3.19,1.07-4.65,1.65-3.43.9-6.84,1.82-10.33,2.43-1.87.33-3.82.46-5.71.52-1.38.05-2.79-.22-4.17,0-.39.06-3.3.05-3.4-.59l1.33-5.68c.73.08,1.44-.31,2.28.06-.61,1.29-.24,2.6.95,3.18,1.45.71,3.24.69,4.92.38,4.67-.85,9.29-1.25,13.85-2.54,1.92-.54,8.85-4,10.05-5.67.15.2,0,.37.06.48Z"/>
          <path class="cls-2" d="M61.76,118.98c.21.45.67.66,1,.99.95.96,2.25,1.66,3.62,1.66-.56.6,4.01.66,3.86.67.13,1.24-4.82.39-5.05.91-.49,1.1,4.59,3.94,5.62,4.56.61.37,1.16.8,1.81.81l-.27.87-11.95-5.95c-.55-.76.12-2.56,0-3.56.12-.29.26-.7.45-.96.3-.08.62-.12.91-.02Z"/>
          <path class="cls-2" d="M90.89,132.74c.02.07-.04.19-.03.25-2.94.35-1.84-.2-4.09-.02l-.05-.23c1.38-.22,2.79.05,4.17,0Z"/>
          <path class="cls-2" d="M113.19,117.34l-.05.62-.64.1c-.11.02-.23-.03-.37.02-.15.05-.36.21-.2.4-1.05.21-2.03.65-3.03,1.02l-7.06,2.61-12.34,3.45c-.18.05-.31.22-.17.31-.11-.04-.28.05-.4.05-.6.01-1.2-.07-1.94.41.86.11,1.53.95,2.48,1.01,1.39.1,2.85.21,4.27.04,2.72-.33,5.34-.53,8.02-1.1,4.35-.92,8.31-2.73,12.2-4.78.46-.24.69-.73.72-1.1.77-.42,1.54-.87,2.37-1.16.34,1,.49,2.36-.3,3.1-.07-.12.09-.28-.06-.48-1.2,1.68-8.13,5.13-10.05,5.67-4.56,1.29-9.19,1.69-13.85,2.54-1.68.31-3.47.33-4.92-.38-1.18-.58-1.55-1.89-.95-3.18-.84-.37-1.55.03-2.28-.06.21-.9.19-1.44,1.44-1.78l27.11-7.36Z"/>
          <path class="cls-2" d="M115.1,117.54c.72.49,1.65.84,1.94,1.71-.83.29-1.59.74-2.37,1.16-.49.27-1.33.39-1.76.74.57-.5-2.7.41-2.39.66-1.38-.06-6.27,1.32-7.49.6l5.24-2.33c.32-.14.72-.18.62-.58,1-.37,1.98-.81,3.03-1.02.16-.03.36.06.52-.11.09-.09.17-.18.05-.31l.64-.1c.68-.1,1.25-.56,1.96-.42Z"/>
          <path class="cls-2" d="M115.1,117.54c-.71-.14-1.28.32-1.96.42l.05-.62c.35-.09.71-.22.95-.49.43.01.67.5.96.69Z"/>
          <path class="cls-2" d="M42.9,94.7c.19.86-.2,1.62-.42,2.48-.19.73.55,1.68-.04,2.39s-1.31,1.44-1.77,2.33-1.36,1.25-2.39,1.05c-1.84-.36-3.66-.75-5.47-1.32-1.19-.38-2.28-.86-3.44-1.1,0-.77,2.14.58,2.61-.36,1.03-2.04,2.32-4.1,4.44-5.03,1.52-.67,5.79-2.08,6.49-.44Z"/>
          <path class="cls-2" d="M52.38,111.82c-.02.65.18,1.57-.22,2.2l-9.32-3.24c-.1-.17-.3-.21-.48-.23-.08,0-.16-.02-.24-.03-.67-.6-1.63-.66-2.5-1.02-1.37-.57-2.68-1.06-3.98-1.54l-14.88-5.52c-1.77-.84-3.62-1.67-5.52-2.16-.1-.06-2.54-.93-3.49-1.58-1.25-.86-2.79-1.03-3.99-2.06,2.36.47,4.39,1.43,6.54,2.41,3.41,1.55,6.79,2.76,10.37,3.8,4.28,1.25,7.92,2.9,11.8,4.02,5.42,1.56,10.7,3.07,15.89,4.95Z"/>
          <path class="cls-2" d="M50.05,100.56c.25.07.57.35.89.2.04.66.34,1.35.96,1.74,1.42.88,2.9,1.39,4.37,1.87,1.64,1.47,3.84,2.13,6,2.89.36.13.71.32.55.66-.53.05-1.15.47-1.68.32-1.09-.3-2.24-.56-3.34-1.13-2.21-1.14-4.56-2.18-6.44-3.81-1.08-.94-1.85-1.61-3.39-1.75-2-.19-3.95-1.42-4.46-3.36.52-.16.44.51.72.69,1.77,1.19,3.81,1.65,5.83,1.69Z"/>
          <path class="cls-2" d="M35.65,107.95v.24c-1.29-.24-2.5-.72-3.81-1.22l-8.18-3.1c-1.13-.43-2.22-.79-3.13-1.44.06-.02.18-.02.24,0l14.88,5.52Z"/>
          <path class="cls-2" d="M42.13,110.52c-1.11-.05-2.14-.56-3.26-.99s-2.38-.56-3.22-1.34v-.24c1.29.48,2.61.97,3.98,1.54.87.36,1.83.43,2.5,1.02Z"/>
          <path class="cls-2" d="M20.77,102.43c-.06-.02-.18-.02-.24,0-.57.18-4.57-1.74-5.28-2.16,1.9.49,3.75,1.32,5.52,2.16Z"/>
          <path class="cls-2" d="M42.85,110.78h-.33c-.1,0-.17-.1-.15-.23.18.02.38.06.48.23Z"/>
          <path class="cls-2" d="M106.93,129.79c.15-.04.33.03.48,0-.06.08-.13.2-.24.24-3.14,1.14-6.38,2.46-9.64,2.46h-.87s-.06-.27-.06-.27c3.5-.61,6.9-1.52,10.33-2.43Z"/>
          <path class="cls-2" d="M70.69,122.31c0,.17.12.23.27.24-.19,1.73,2.19,1.18,2.19,2.68-.02.85-.28,2.53-.54,3.36-.65,0-1.2-.44-1.81-.81-1.03-.62-6.1-3.46-5.62-4.56.23-.52,5.18.33,5.05-.91.15-.01.3,0,.46,0Z"/>
          <path class="cls-2" d="M71.66,122.57c.12.61.89.73,1.43.75.08,0,.16,0,.24,0l.02.98c-.05.27-.2.7-.2.94,0-1.5-2.38-.95-2.19-2.68l.7.02Z"/>
          <path class="cls-2" d="M108.9,119.5c.1.4-.3.44-.62.58l-5.24,2.33c1.23.72,6.12-.66,7.49-.6l.03.28c-2.21.71-4.44,1.34-6.79,1.88-.21.05-.33.24-.44.3-1.85.1-3.67.52-5.52.72-1.22.13-7.43,1.23-8.48.88-.15-.09-.02-.26.17-.31l12.34-3.45,7.06-2.61Z"/>
          <path class="cls-2" d="M114.67,120.41c-.03.37-.26.85-.72,1.1-3.88,2.05-7.85,3.85-12.2,4.78-2.68.57-5.3.77-8.02,1.1-1.42.17-2.88.06-4.27-.04-.95-.07-1.62-.9-2.48-1.01.74-.48,1.33-.4,1.94-.41-.44.74,8.86-.25,8.88-.69,1.86.12,3.68-.42,5.52-.72,2.51-.41,4.84-1.42,7.24-2.22.87-.29,1.64-.55,2.35-1.14.42-.35,1.26-.47,1.76-.74Z"/>
          <path class="cls-2" d="M97.81,124.99v.24c-.02.44-9.32,1.43-8.88.69.12,0,.29-.09.4-.05,1.05.35,7.26-.75,8.48-.88Z"/>
          <path class="cls-2" d="M112.5,118.06c.12.13.04.23-.05.31-.16.16-.37.07-.52.11-.15-.19.06-.35.2-.4.13-.04.26,0,.37-.02Z"/>
          <path class="cls-2" d="M112.92,121.15c-.71.58-1.48.85-2.35,1.14v-.2s-.04-.28-.04-.28c-.31-.24,2.96-1.16,2.39-.66Z"/>
          <path class="cls-2" d="M110.56,122.09v.2c-2.39.8-4.72,1.81-7.23,2.22v-.24c.11-.06.23-.25.44-.3,2.35-.54,4.58-1.18,6.79-1.88Z"/>
          <path class="cls-2" d="M103.33,124.27v.24c-1.84.3-3.66.84-5.52.72v-.24c1.85-.2,3.67-.62,5.52-.72Z"/>
        </g>
      </g>
    </g>
  </g>
</svg>