<?xml version="1.0" encoding="UTF-8"?>
<svg id="Layer_2" data-name="Layer 2" xmlns="http://www.w3.org/2000/svg" viewBox="0 0 129.09 118.37">
  <defs>
    <style>
      .cls-1, .cls-2 {
        fill: #6cbe45;
      }

      .cls-3, .cls-2 {
        opacity: .8;
      }
    </style>
  </defs>
  <g id="Layer_1-2" data-name="Layer 1">
    <path class="cls-2" d="M43.96,12.61c-.5,0-1,.03-1.49.07.02-.21-.24-.19-.36-.17-.13.01-.44-.01-.38.2l-5.91.1c-2.37.04-3.61.93-4.86,2.33-1.54,1.72-2.61,3.67-3.57,6.02-2.93,7.21-5.12,14.6-7.04,22.16-.22.07-.34-.08-.47-.13-.52-1.22-1.72-1.86-2.89-2.34-1.57-.64-3.31-.68-4.98.12-1.47.18-2.78,1.15-3.11,2.5-.31.33-.49.8-.56,1.37-.49,3.69.75,7.48,3.47,10,.83.77,1.77,1.18,2.76,1.24.18.01.36.13.54.15l-7.88,8.62-1.24,1.91c-.85,1.31-1.63,2.69-2.14,4.35-1.63,5.23-2.06,10.7-1.46,16.05-2.44.08-2.25,2.9-2.32,3.79-.31,3.86.35,7.82,1.91,11.48.43,1,1.22,1.72,2.23,2.06,1.83.62,3.61,1.3,5.42,1.67-.07.6.45,1.11.53,1.65s.59.96.68,1.42c.28,1.5,1.48,2.48,2.33,3.58s1.7,2.07,3.11,2.62c1.04.41,2,.89,3.26,1.13,1.99.38,9.98,2.41,10.78-.25.64-2.11.6-4.28.65-6.37l6.44.44c2.8.19,5.59.56,8.41.75l9.17.61,6.06.21c3.95.14,7.8.19,11.65.14l7.44-.09,2.15-.16c6-.44,12.08-.38,18.03-1.19-.05,1.77.09,3.56.64,5.35.24.78.84,1.22,1.65,1.43,3.08.81,13,2.2,14.02-1.7.29-.16.48-.44.49-.77.46-.21.63-.71.7-1.18.41-.39.47-.96.66-1.47.15-.41.35-.79.41-1.23.04-.3.21-.59.14-.91.51-.75.63-1.7.69-2.59,2.05-.34,4.09-1.08,6.18-1.61,3.32-.85,3.21-9.2,3-11.69-.07-.74.04-2.49-1.22-2.82.37-1.25.67-2.57.69-3.87.69-2.16.59-4.49.65-6.73.07-2.49.23-5-.44-7.41-.29-1.05-.48-2.06-1.12-3.14-2.2-3.73-4.45-7.38-6.99-10.78-.48-.64-.83-1.45-1.23-2.14.53.06,1.11.28,1.73-.05,1.48.13,2.86-.7,3.52-2.14,1.24-2.72,1.98-5.67,1.73-8.64-.14-1.67-1.05-4.39-3.13-4.48-1.77-1.23-4.15-.48-5.32,1.38-.68,1.09-1.96,2.36-1.84,4.04-.34.33-.18.86-.27,1.48-.11.02-.26.03-.34-.03-.36-.25-3.12-24.95-9.94-32.66-1.04-1.18-2.34-1.81-3.92-2.06-4.09-.64-8.16-.76-12.19-1.03.08-.22-.24-.21-.38-.22-.12,0-.44-.05-.38.17-.11,0-.34-.09-.44-.05-.3-3.43-.96-6.88-2.19-10.17-.35-.92-.92-1.27-1.66-1.46-3.76-.95-7.69-.89-11.64-1.07l-4.02-.19c-1.36-.06-2.71.3-4.1-.13L50.63,0c-.99,0-1.51.26-1.98,1.17-1.93,3.69-3.4,7.56-4.69,11.45Z"/>
    <g class="cls-3">
      <path class="cls-1" d="M50.87,15.62c-1.49-.02-2.96.19-4.55.22l-4.07.08c-.36,0-7.95.41-7.29,1.33-4.64,2.74-8.91,15.09-10.32,20.33-.91,3.39-1.4,6.72-1.96,10.17-.12.73.06,1.23.35,1.69.43.67,1.11.41,1.91.54,1.19.2,5.27.55,6.22.42.08-.01.16,0,.24,0,.1.07.46.41.69.34,1.46-.47,2.66.3,3.86.41-.12.37-.56.56-.94.52-1.22-.14-2.48.14-3.8.13-2.32-.01-5.86.95-6.91.76-3.47-.62-2.49,2.14-8.03,3.12-.38.07-.73.74-1.16.56-.18-.02-.36-.14-.54-.15.82-.8.84-2.83-.46-3.17-1.93-.5-3.49-1.34-4.12-3.41-.26-.84-.88-1.83-.16-2.8.67,1.7,2.58,2.4,3.87,1.4,1.11-.87,1.37-2.14.84-3.25s-1.75-1.65-3.02-1.3c-1.13.31-1.64,1.21-1.84,2.65-.69-.34-.14-2.53-.76-2.73.33-1.35,1.64-2.32,3.11-2.5,1.67-.8,3.41-.76,4.98-.12-.23.47-.72.52-1.32,1.03.58.64,1.33,1.9,2.27,1.98.7.06,1.29-.87,1.94-.68.13.05.25.21.47.13,1.92-7.56,4.11-14.95,7.04-22.16.96-2.35,2.03-4.3,3.57-6.02l12.59.13c2.32.02,4.52.12,6.85.1.25,0,.49.07.47.25Z"/>
      <g>
        <g>
          <path class="cls-1" d="M30.97,109.94c-.05,2.09-.02,4.26-.65,6.37-.8,2.65-8.79.63-10.78.25-1.26-.24-2.22-.72-3.26-1.13-.02-.16.02-.34.17-.39,0,0,5.58.72,6.14.59-.08-2.43-.59-4.45-1.34-6.53-3.6-.59-7.04-.98-10.62-1.1-.2,0-.35-.17-.46-.19-.07-.55-.6-1.05-.53-1.65,5.86,1.19,11.74,2.14,17.75,3.17l3.58.62Z"/>
          <path class="cls-1" d="M16.27,115.44c-1.41-.55-2.24-1.49-3.11-2.62l8.65.87c.17-1.05-.03-2.34-.78-3.16-.58-.24-1.41-.05-2.04-.14l-8.16-1.14c-.09-.46-.61-.89-.68-1.42.11.02.25.18.46.19,3.58.11,7.02.51,10.62,1.1.76,2.08,1.27,4.1,1.34,6.53-.55.13-6.13-.59-6.14-.59-.15.05-.2.23-.17.39Z"/>
          <path class="cls-1" d="M13.17,112.81c-.84-1.1-2.05-2.07-2.33-3.58l8.16,1.14c.64.09,1.46-.1,2.04.14.74.82.95,2.11.78,3.16l-8.65-.87Z"/>
        </g>
        <g>
          <path class="cls-1" d="M107.26,109.73c-.03.22.08.47.02.68-.08.3-.02.68-.02.96-.3.41-.3.92-.28,1.42,0,.08-.04.16-.04.23-.47.13-.42.69-.34,1.05.13.56.61.55,1.14.61l8.89,1.06c-1.02,3.9-10.94,2.51-14.02,1.7-.81-.21-1.41-.66-1.65-1.43-.55-1.78-.7-3.58-.64-5.35l6.93-.93Z"/>
          <path class="cls-1" d="M118.5,112.33c-.19.51-.25,1.08-.66,1.47l-10.85-1c-.03-.5-.02-1.01.28-1.42,1.32-.14,2.65.05,4.07.2l7.16.76Z"/>
          <path class="cls-1" d="M119.74,107.6c-.06.89-.18,1.84-.69,2.59-.89.08-5.13-.28-6.03-.46-1.05-.21-3.5.36-3.12-.48l9.84-1.65Z"/>
          <path class="cls-1" d="M118.91,111.1c-.06.44-.26.82-.41,1.23l-7.16-.76c-1.43-.15-2.75-.34-4.07-.2,0-.28-.06-.66.02-.96,1.55-.1,3.11.06,4.77.23l3.15.31c1.3.13,2.51.37,3.71.16Z"/>
          <path class="cls-1" d="M109.9,109.25c-.38.85,2.06.28,3.12.48.9.18,5.14.54,6.03.46.07.32-.1.61-.14.91-1.2.21-2.41-.03-3.71-.16l-3.15-.31c-1.66-.16-3.21-.32-4.77-.23.05-.21-.06-.46-.02-.68l2.64-.48Z"/>
          <path class="cls-1" d="M117.84,113.8c-.07.48-.24.98-.7,1.18-1.05-.55-2.33-.41-3.58-.54l-5.85-.62c-.26-.03-.51-.1-.61-.23-.12-.16-.11-.38-.14-.55,0-.08.04-.16.04-.23l10.85,1Z"/>
          <path class="cls-1" d="M106.95,113.04c.02.17.02.39.14.55.1.13.35.21.61.23l5.85.62c1.25.13,2.53,0,3.58.54-.02.33-.21.61-.49.77l-8.89-1.06c-.53-.06-1.01-.05-1.14-.61-.08-.36-.14-.91.34-1.05Z"/>
        </g>
      </g>
      <g>
        <path class="cls-1" d="M120.98,57.34c-.46-1.95,3.91-2.5,3.88-6.72-1.52.35-3.08.57-4.37-.19-1.06-.62-1.46-1.83-2.08-2.84-1.82.28-.97-.11-2.47-.1-.13-1.68,1.15-2.95,1.84-4.04.53.31,1.63.83,2.21.55,1-.93,1.95-1.55,3.11-1.93,2.08.09,2.99,2.8,3.13,4.48.25,2.97-.49,5.92-1.73,8.64-.66,1.45-2.04,2.27-3.52,2.14Z"/>
        <path class="cls-1" d="M120.98,57.34c-.62.33-1.19.11-1.73.05-.42-.11-.59-.34-.78-.62l-2.08-2.97c-.68-.97-.88-3.76-.72-4.83.09-.61-.07-1.15.27-1.48,1.5-.01.65.38,2.47.1.61,1.01,1.01,2.21,2.08,2.84,1.3.76,2.85.54,4.37.19.04,4.22-4.33,4.77-3.88,6.72Z"/>
        <path class="cls-1" d="M123.1,42.09c-1.16.37-2.11.99-3.11,1.93-.58.29-1.68-.24-2.21-.55,1.17-1.86,3.56-2.61,5.32-1.38Z"/>
      </g>
      <g>
        <path class="cls-1" d="M14.57,56.08c-.99-.06-1.93-.47-2.76-1.24-2.71-2.52-3.96-6.31-3.47-10,.08-.57.26-1.05.56-1.37.62.2.07,2.39.76,2.73.2-1.43.72-2.34,1.84-2.65,1.27-.35,2.48.14,3.02,1.3s.27,2.38-.84,3.25c-1.28,1-3.2.3-3.87-1.4-.72.97-.1,1.96.16,2.8.64,2.07,2.19,2.91,4.12,3.41,1.3.34,1.29,2.37.46,3.17Z"/>
        <path class="cls-1" d="M19.88,43.19c-.66-.19-1.25.74-1.94.68-.93-.09-1.68-1.34-2.27-1.98.6-.51,1.09-.56,1.32-1.03,1.17.48,2.37,1.12,2.89,2.34Z"/>
      </g>
      <path class="cls-1" d="M42.47,12.68c-.25.02-.49.02-.74.02-.07-.21.25-.18.38-.2.12-.01.38-.04.36.17Z"/>
      <path class="cls-1" d="M89.29,13.21l-.76-.05c-.06-.22.27-.18.38-.17.13,0,.46,0,.38.22Z"/>
      <g>
        <path class="cls-1" d="M2.39,87.16c.26,2.27,4.78,3.67,6.82,4.18,5.29,1.32,10.6,2.23,15.93,2.52,2.15.12,4.38,1.1,6.55.68,2.23.89,5.59.76,7.66.97s4.33.29,6.5.37c3.3.12,6.6.5,10.09.4-.11-.62-.64-.9-.53-1.35.22.02.47-.12.68-.12.09,0,.24-.01.32,0,.26.03.87.25,1.06-.1.31-.57.05-1.24.07-1.77.19,0,.39-.02.57-.05,0,.28.07.55.07.83l-.02,1.28c1.37.26,2.68.15,3.97.24l6.52.48c-.87,1.86,3.15,1.07,4.56,1.22,1.84.19,3.67.16,5.51.22l7.67.23c3.02.09,5.93-.11,8.8-.03l3.22.09c.9.03,1.82-.24,2.64-.26,3.63-.09,12.42-.83,15.76-1.64.46-.11,1.02.11,1.48-.03.11-.03.23-.04.26-.17,1.5-.2,3.05-.3,4.53-.59-.61,1.04-1.78,2.08-3.06,2.47-3.79,1.15-7.54,1.74-11.47,2.04l-9.53.72c-1.25.1-4.59-.02-4.28.35-.7-.18-2.08-.15-2.79,0,.08-.14-.12-.21-.31-.26l-15.06.03c-.53,0-3.22.17-3.67.56-.24.21-.39,5.88-.44,5.63.48,2.79-.02,2.98.23,5.79-3.85.05-7.71,0-11.65-.14l-6.06-.21-9.17-.61-.05-11.15c-1.27-.89-2.66-1.01-4.07-1.31l-6.92-1.48c-.86-.18-1.65-.19-2.4-.22l-1.16-.04c-.02-.22-.4-.22-.57-.19-.82.16-1.72-.56-2.53-.32.16-.08.05-.3-.14-.33l-7.83-1.09c-1.85-.26-3.55-.61-5.29-.67-2.11-.07-12.5-2.21-14.79-3.39.07-.89-.12-3.72,2.32-3.79Z"/>
        <path class="cls-1" d="M128.91,94.29c.22,2.49.33,10.84-3,11.69-2.09.53-4.12,1.27-6.18,1.61l-9.84,1.65-2.64.48-6.93.93c-5.96.8-12.03.75-18.03,1.19-.38-.58-.05-1.23-.03-1.93.04-1.6.15-3.19,0-4.78-.1-1-.07-3.51.35-3.88,1.54-1.35,5.96-.24,9.35-.92.71-.14,2.09-.17,2.79,0,1.62.41,3.28.1,5.08,0l3.6-.2,5-.17c4.26-.15,8.42-.95,12.53-2.11,1.69-.48,3.22-1.22,4.81-1.88.77-.32,2.64-1.95,3.14-1.7Z"/>
        <path class="cls-1" d="M14.87,94.35c.03,1.1,9.16,1.92,10.4,2.03,1.05.09,1.97.33,2.87.06.8-.24,1.71.48,2.53.32-.1.11-.05.2.04.33.07.1.2.17.3.08l.23-.23,1.16.04c0,.31.31.43.67.52l2.96.8c1.34.36,1.94,1.18,1.93,2.52v8.15c-.01.61-.17,1.07-.54,1.41l-6.44-.44-3.58-.62c-6-1.03-11.89-1.97-17.75-3.17-1.81-.37-3.59-1.05-5.42-1.67-1.01-.34-1.8-1.06-2.23-2.06-1.56-3.65-2.22-7.61-1.91-11.48,2.29,1.18,12.68,3.32,14.79,3.39Z"/>
        <path class="cls-1" d="M91.96,100.35c-3.39.68-7.81-.43-9.35.92-.42.37-.45,2.87-.35,3.88.15,1.59.05,3.17,0,4.78-.02.71-.36,1.35.03,1.93l-2.15.16-7.44.09c-.25-2.81.25-3-.23-5.79.04.25.2-5.43.44-5.63.45-.39,3.14-.56,3.67-.56l15.06-.03c.19.05.39.12.31.26Z"/>
        <path class="cls-1" d="M45.82,111.14c-2.82-.19-5.61-.56-8.41-.75.37-.34.53-.8.53-1.41v-8.15c.01-1.34-.58-2.15-1.92-2.52l-2.96-.8c-.36-.1-.67-.21-.67-.52.75.03,1.54.03,2.4.22l6.92,1.48c1.41.3,2.79.42,4.07,1.31l.05,11.15Z"/>
        <path class="cls-1" d="M128.91,94.29c-.5-.25-2.37,1.39-3.14,1.7-1.59.66-3.12,1.41-4.81,1.88-4.11,1.16-8.27,1.97-12.53,2.11l-5,.17-3.6.2c-1.8.1-3.46.41-5.08,0-.31-.37,3.03-.26,4.28-.35l9.53-.72c3.92-.3,7.68-.89,11.47-2.04,1.28-.39,2.45-1.43,3.06-2.47,1.06-.21,2.25-.55,3.32-1.07.67-.33,1.1-1.57,1.29-2.23,1.26.34,1.16,2.08,1.22,2.82Z"/>
        <path class="cls-1" d="M28.14,96.44c-.89.27-1.82.02-2.87-.06-1.24-.11-10.37-.93-10.4-2.03,1.74.06,3.44.41,5.29.67l7.83,1.09c.19.03.3.25.14.33Z"/>
        <path class="cls-1" d="M31.23,96.95l-.23.23c-.09.09-.23.02-.3-.08-.09-.13-.14-.23-.04-.33.16-.03.55-.03.57.19Z"/>
        <path class="cls-1" d="M118.29,95.53c-.09-.17.16-.16.26-.17-.03.13-.15.14-.26.17Z"/>
      </g>
      <g>
        <path class="cls-1" d="M84.24,1.48l2.48,10.44c.1.41.3.81-.05,1.03-2.24.12-4.5-.1-6.85-.14l-8.08-.13-27.77-.07c1.29-3.89,2.76-7.76,4.69-11.45C49.12.26,49.64,0,50.63,0l13.85.09c1.39.43,2.74.06,4.1.13l4.02.19c3.95.19,7.88.13,11.64,1.07ZM65.51,3.38c0,2.01,1.16,5.82.56,7.76-.07.1-.38.12-.46.17-.12.08-.19.42.02.47.17.05.44-.12.61-.26.75-.6.46-1.62.33-2.49-.3-2.04-.27-4.1-1.07-5.9-.13-.29-.11-.62-.35-.77-.48-.3-3.34-.53-3.46.78.48-.59,3.81-.97,3.81.23ZM75.88,5.44c.62-.37.88-.79,1.27-1.39-.68-.5-1.44-.79-2.29-.88-.36-.04-.67.52-.38.65.76-.53,1.5,0,2.04.41-.21.54-.61.7-.65,1.21ZM55.46,9.9c.32-1.73.08-3.29.16-4.88.47-.68,1.69-.27,2.46-.56-.85-.24-1.84-.23-2.84-.04l-.13,5.19c-.85.27-1.73.13-2.51-.22-.09.26-.08.42-.01.72.98-.1,1.92.06,2.88-.21ZM75.61,10.83c-1.24.49-2.23-.02-3-1.34-.04.74.63,1.71,1.33,1.88.85.2,1.64-.45,2.45-.36-.11-.54-.36-.45-.53-.47-.92-1.78-1.88-3.56-3.22-5.39-.29.97,2.81,4.17,2.96,5.69ZM62.03,7.49c.76-.27,1.57-.06,2.02-.53.31-.33-.18-1.14-.36-1.42-.28.47.37.83.12,1.15-.52.65-1.47.52-2.09.05.03.26.18.42.31.76ZM79.05,6.49c.21-.57.23-.84-.04-.98-.1.43-.15.72.04.98ZM75.59,5.9c0-.07-.05-.12-.12-.12s-.12.05-.12.12.05.12.12.12.12-.05.12-.12ZM72.39,9.41c-.41-1.08-1.1-1.82-1.83-2.64.52.98.73,2.05,1.83,2.64ZM81.51,10.75c-.6.45-1.81.54-2.56.36.1-1.45.4-2.56.2-3.89-.72-.32-.33,3.34-.46,4.36.95-.07,2.53.21,3.17-.51.63-.8-.14-2.27-.1-3.13l-.24,2.82Z"/>
        <path class="cls-1" d="M88.09,13.11c-.45.3-1.03-.18-1.43-.16.35-.22.14-.62.05-1.03l-2.48-10.44c.74.19,1.32.53,1.66,1.46,1.23,3.29,1.9,6.75,2.19,10.17Z"/>
        <path class="cls-1" d="M55.46,9.9c-.95.27-1.89.11-2.88.21-.06-.3-.08-.46.01-.72.78.35,1.66.49,2.51.22l.13-5.19c1.01-.19,1.99-.2,2.84.04-.77.3-1.99-.11-2.46.56-.08,1.59.17,3.15-.16,4.88Z"/>
        <path class="cls-1" d="M81.51,10.75l.24-2.82c-.04.86.74,2.33.1,3.13-.64.72-2.22.44-3.17.51.13-1.01-.26-4.68.46-4.36.2,1.34-.1,2.45-.2,3.89.75.18,1.97.09,2.56-.36Z"/>
        <path class="cls-1" d="M65.51,3.38v-.24c.8,1.8.77,3.86,1.07,5.9.13.86.42,1.89-.33,2.49-.17.14-.44.3-.61.26-.21-.06-.15-.39-.02-.47.07-.05.39-.07.46-.17.6-1.93-.56-5.74-.56-7.76Z"/>
        <path class="cls-1" d="M75.61,10.83c.13-.05.21-.18.25-.3.16.02.42-.07.53.47-.81-.09-1.6.57-2.45.36-.7-.17-1.37-1.14-1.33-1.88.77,1.33,1.76,1.83,3,1.34Z"/>
        <path class="cls-1" d="M75.88,5.44c.03-.51.44-.67.65-1.21-.53-.42-1.28-.94-2.04-.41-.3-.13.01-.69.38-.65.85.09,1.61.38,2.29.88-.39.6-.66,1.02-1.27,1.39Z"/>
        <path class="cls-1" d="M75.86,10.53c-.05.12-.13.25-.25.3-.15-1.52-3.26-4.72-2.96-5.69,1.33,1.83,2.3,3.61,3.22,5.39Z"/>
        <path class="cls-1" d="M65.51,3.14v.24c0-1.2-3.33-.81-3.81-.23.12-1.31,2.98-1.08,3.46-.78.23.14.21.47.35.77Z"/>
        <path class="cls-1" d="M72.39,9.41c-1.1-.6-1.31-1.67-1.83-2.64.74.82,1.42,1.57,1.83,2.64Z"/>
        <path class="cls-1" d="M62.03,7.49c-.13-.34-.29-.49-.31-.76.61.47,1.57.6,2.09-.05.25-.32-.4-.68-.12-1.15.18.28.67,1.09.36,1.42-.45.47-1.26.26-2.02.53Z"/>
        <path class="cls-1" d="M79.05,6.49c-.19-.25-.14-.55-.04-.98.28.14.26.41.04.98Z"/>
        <circle class="cls-1" cx="75.47" cy="5.9" r=".12"/>
      </g>
      <path class="cls-1" d="M113.77,52.32c-.04-.17-.25-.3-.29-.47-1.44-6.96-3.21-13.81-5.32-20.72-1.17-3.82-2.48-7.4-4.21-10.93-.84-1.71-2.01-2.74-3.87-3.28-2.52-.72-5.14-1.07-7.7-1.07.03-.23-.24-.24-.37-.25-.23-.01-.58-.03-.59.25-.24,0-.48-.03-.72,0-.05-.22-.29-.24-.48-.24-.02-.13.22-.31.48-.29,3.33.28,6.67-.34,9.99.23,4.53.78,8.04,9.99,9.01,14.18l1.26,5.47c1.3,5.66,2.52,11.21,4.09,16.84-.43.39-.91.14-1.28.27Z"/>
      <path class="cls-1" d="M84.95,15.62c-.32.33-.78.25-1.2.24-2.57-.09-5.17.17-7.8-.11-2.26-.25-4.44-.04-6.73,0l-18.45.25-6.36.16c-.88.02-1.72.34-2.66.19-.29-.05-6.26.32-6.46.99-.09-.05-.22-.04-.32-.09-.66-.92,6.93-1.33,7.29-1.33l4.07-.08c1.59-.03,3.05-.24,4.55-.22,2.81.05,5.58-.1,8.54-.12l24.07-.14c.57,0,1.02.43,1.47.26Z"/>
      <path class="cls-1" d="M92.39,15.86h-.96c0-.28.35-.26.59-.25.13,0,.4.02.37.25Z"/>
      <g>
        <path class="cls-1" d="M119.74,80.68c1.22.63,1.58,1.78,2.25,2.65-.02.34-.09.69-.32.95-.42-.5-.8-.99-1.27-1.44-.42-.41-.68-.94-1.47-1.13-.44-.11-.86-.06-1.03.36-1.06-.1-2.12-.28-3.19-.2-.12,0-.36-.03-.26.18h-.25c0-.11-.02-.37-.25-.39-.79-.09-1.61.22-1.87.9-.74.02-1.07.77-1.74.96,1.87-3.6,5.84-4.47,9.41-2.82Z"/>
        <path class="cls-1" d="M112.08,82.54c.14.11.21.28.21.46-2.46,2.34-2.54,5.71-.22,8.19.05.11.14.22.25.26.06.03.14,0,.2.02.26.45.34,1,.03,1.43-3.36-1.95-3.85-6.28-2.22-9.41.67-.18,1-.94,1.74-.96Z"/>
        <path class="cls-1" d="M118.31,91.98v1.58s-.02.25-.02.25l-1.21.36c-.77.23-1.34-.05-1.91-.07.09-.75-.06-1.34-.74-1.72,1.3.03,2.65.07,3.88-.4Z"/>
        <path class="cls-1" d="M113.76,92.17c.18.25.45.51.46.86,0,.27-.21.49-.48.57-.69-.03-.85-.49-1.19-.69.31-.44.24-.99-.03-1.43.45.15.86.41,1.23.69Z"/>
        <path class="cls-1" d="M114.43,92.39c.69.37.84.96.74,1.72-.71-.03-1.09-.18-1.42-.5.27-.09.49-.3.48-.57-.01-.35-.28-.61-.46-.86.21.05.46.11.66.22Z"/>
        <path class="cls-1" d="M120.4,82.84c.47.45.85.94,1.27,1.44.65,1.23.64,4.04,1.21,3.84-.25,1.69-.76,3.21-2.12,4.1-.2-.56-.43-1.33-.34-1.93.92-2,1.35-4.37-.17-6.06-.22-.25-.26-.67-.51-.91.18-.21.39-.41.67-.48Z"/>
        <path class="cls-1" d="M122.88,88.12c-.56.2-.56-2.62-1.21-3.84.23-.26.3-.61.32-.95,1.11,1.47,1.13,3.14.89,4.79Z"/>
        <path class="cls-1" d="M119.74,93.15c-.42.14-.63.41-.96.47l-.46-.05v-1.58c.56-.22,1.02-.85,1.46-1.24-.35.78-.2,1.58-.03,2.4Z"/>
        <path class="cls-1" d="M120.42,90.29c-.09.61.13,1.37.34,1.93-.45.29-.56.77-1.01.92-.16-.82-.31-1.62.03-2.4.2-.18.38-.36.64-.46Z"/>
        <path class="cls-1" d="M118.79,93.61c-.21.04-.39.18-.49.21l.03-.25.46.05Z"/>
        <path class="cls-1" d="M114.2,82.03h.25s.27.06.27.06c-.59.57-1.34.93-1.45,1.61-.35,2.2,2.3,2.22,2.9,3.47.49,1.01,1.55,2.15,2.81,1.78,1.95-.56,1.53-3.4,1.26-4.73,1.52,1.69,1.09,4.05.17,6.06-.25.09-.44.28-.64.46-.43.39-.9,1.02-1.47,1.24-1.24.48-2.58.44-3.88.4-.2-.11-.46-.17-.66-.22-.38-.29-.78-.54-1.23-.69-.06-.02-.14,0-.2-.02-.08-.09-.17-.18-.25-.26-2.32-2.47-2.24-5.84.22-8.19l1.91-.97Z"/>
        <path class="cls-1" d="M117.89,82.06c.37.51,1.09.63,1.33,1.23-.32-.21-.85-.51-1.24-.44-.13.02-.27-.04-.4-.04,0-.1.02-.23-.03-.34-.08-.18-.3-.11-.45-.14-.48-.1-.95.05-1.43.07-.71.03-1.41.5-1.62,1.1-.7,1.95,1.83,1.86,2.87,3.36.57.82,1.96,1.18,2.62.33.97-1.25.1-2.69-.32-3.9l.5.02c.25.24.29.67.51.91.27,1.33.69,4.17-1.26,4.73-1.26.36-2.33-.78-2.81-1.78-.6-1.24-3.25-1.26-2.9-3.47.11-.68.85-1.05,1.45-1.61v-.24c1.06-.08,2.11.11,3.18.2Z"/>
        <path class="cls-1" d="M120.4,82.84c-.27.08-.48.27-.67.48l-.5-.02c-.25-.6-.97-.73-1.33-1.23.17-.42.59-.46,1.03-.36.79.19,1.05.73,1.47,1.13Z"/>
        <path class="cls-1" d="M114.2,82.03l-1.91.97c0-.18-.07-.35-.21-.46.25-.68,1.08-.99,1.87-.9.23.03.26.29.25.39Z"/>
        <path class="cls-1" d="M114.71,82.09l-.27-.05c-.1-.22.15-.17.26-.18v.24Z"/>
        <path class="cls-1" d="M112.33,91.45c-.12-.05-.2-.15-.25-.26.08.09.18.17.25.26Z"/>
        <path class="cls-1" d="M117.11,82.34c-.03.16-.01.37.14.44.11.05.24.04.34.04.13,0,.27.06.4.04.22.49,1.86,2.02,1.08,2.99-1.18,1.48-1.79-.14-3.79-.94-.44-.17-.6-.63-.61-1,0-.92.85-.88,1.01-1.5.48-.02.95-.17,1.43-.07Z"/>
        <path class="cls-1" d="M115.68,82.41c-.16.62-1.02.58-1.01,1.5,0,.36.17.82.61,1,2.01.8,2.61,2.41,3.79.94.78-.97-.87-2.49-1.08-2.99.39-.07.92.23,1.24.44.42,1.22,1.29,2.66.32,3.9-.66.85-2.06.49-2.62-.33-1.04-1.5-3.58-1.41-2.87-3.36.22-.6.91-1.06,1.62-1.1Z"/>
        <path class="cls-1" d="M117.59,82.82c-.1,0-.23.01-.34-.04-.16-.07-.17-.28-.14-.44.15.03.37-.04.45.14.05.11.04.24.03.34Z"/>
      </g>
      <g>
        <path class="cls-1" d="M34.96,17.25c.1.05.23.03.32.09,3.31,1.93,6.66,3.75,9.8,5.96l-.02.44h-4.27c.04-.13-.05-.19-.13-.2-.16-.03-.5.03-.37.23-1.59.06-3.17,1.23-3.11,2.87-.46.64-.17,1.46-.18,2.2-.01,1.1.7,1.94,1.57,2.57-.98.32-1.89,1.06-2.6,1.72-.45.42-1.11.71-1.15,1.42-1.26.73-3.64,6.52-3.66,7.95-.15.4-.58,1.01-.59,1.64l-6.37,4.3c-.39.27-.69.58-.75.95l-.42.03c-.29-.45-.47-.95-.35-1.69.57-3.44,1.05-6.77,1.96-10.17,1.41-5.24,5.67-17.59,10.32-20.33ZM36.25,23.78c0-.15-.12-.27-.27-.27s-.27.12-.27.27.12.27.27.27.27-.12.27-.27ZM35.51,24.79c.27-.12.31-.28.24-.41s-.22-.18-.36-.12c-.15.06-.14.23-.13.42-.27.12-.31.28-.24.41s.22.18.36.12c.15-.06.14-.23.13-.42ZM34.94,25.82c0-.08-.07-.15-.15-.15s-.15.07-.15.15.07.15.15.15.15-.07.15-.15ZM29,41.1c1.44-5.23,3.61-9.86,5.49-14.81-2.42,3.72-3.5,7.76-4.91,11.76-.1,1.07-1.15,1.9-.58,3.04ZM28.82,41.54c0-.08-.07-.15-.15-.15s-.15.07-.15.15.07.15.15.15.15-.07.15-.15Z"/>
        <path class="cls-1" d="M23.45,49.4l3.19.32c1.58.16,3.13.32,4.53.67-.95.12-5.03-.23-6.22-.42-.8-.13-1.49.13-1.91-.54l.42-.03Z"/>
        <path class="cls-1" d="M90.71,15.86c.24-.03.48,0,.72,0h.96c2.56,0,5.18.34,7.7,1.07,1.86.53,3.03,1.57,3.87,3.28,1.73,3.53,3.04,7.11,4.21,10.93,2.11,6.9,3.88,13.76,5.32,20.72h-.27c-.35-.11-.56-.43-.88-.75l-11.02-11.03c-.49-.49-.92-.98-1.5-1.15-1.04-.31-.54-2.5-1.53-3.78-.9-1.16-2.39-1.44-3.72-1.48.11-.38.41-.89.64-1.21.64.55,1.47.7,1.68.15.34-.88,1.6-5.43.06-5.25l.06-2.62c.05-2.4-.85-4.95-2.9-6.04-.22-.2-.39-.56-.73-.66-.17-.05-.19-.51-.48-.47-.07.01-.18.02-.24-.01-.63-.51-1.35-1.09-2.19-.98-.08.01-.16-.02-.24,0-.07-.54-.64-.38-1.39-.56.64-.32,1.26-.08,1.88-.15Z"/>
        <path class="cls-1" d="M29,41.1c-.57-1.14.49-1.97.58-3.04,1.41-4,2.49-8.05,4.91-11.76-1.89,4.95-4.05,9.57-5.49,14.81Z"/>
        <path class="cls-1" d="M35.51,24.79c.02.2.02.36-.13.42-.14.06-.29.01-.36-.12s-.03-.3.24-.41c-.02-.2-.02-.36.13-.42.14-.06.29-.01.36.12s.03.3-.24.41Z"/>
        <circle class="cls-1" cx="35.99" cy="23.78" r=".27"/>
        <g>
          <path class="cls-1" d="M77.05,38.23c-.17.15-.28.51-.49.62-.77.33-1.21,1.07-1.56,1.89l-1.37,3.22c-2.43.31-5.01,1.03-5.46,3.84-1.39-.11-2.82.13-4.31-.12-1.24-.21-2.34-.64-3.62-.57-.02,1.08-.09,2.1.17,3.05,2.44-.99,4.58-1.72,6.82-.05.36.27.47.76.68,1.04.3.4.45.94.47,1.43-.89.02-1.62-.21-2.38-.3-.08-.7.08-1.74-.5-2.39-.63-.72-1.96-.42-2.75,0-.25.85-.1,1.61-.21,2.38-.63-.13-1.41.16-2.08.08-5.15-.62-12.44-.85-18.1-1.27l-3.61-.27c-.88-.07-6.27-.5-6.65-.63-.29-.1-.62.03-.7.22-.08,0-.16-.01-.24,0-1.4-.35-2.95-.51-4.53-.67l-3.19-.32c.06-.37.36-.69.75-.95l6.37-4.3c.01-.63.43-1.25.59-1.64l4.52.03h3.49c2.4.02,4.7.04,7.1.03l9.42-.03c1.34,0,2.64.24,3.97-.16.19-1.98-1.52-4.86-.04-4.94.37-.02.43.43.85.91.47-.56.12-1.14.47-1.69,1.3.32,2.56.47,3.85.29.92-.12,1.62.39,2.46.42l2.09.07c.85.03,1.64-.07,2.2.73,3.05-1.02,2.61.25,4.6-.41.38-.12.8.22.92.47Z"/>
          <path class="cls-1" d="M60.47,52.34c-.19,0-.4.05-.48.24l-12.02-.77-4.31-.27c-1.02-.06-2.11-.07-3.11-.22-1.62-.24-3.11-.04-4.6-.18-1.2-.11-2.4-.87-3.86-.41-.23.07-.58-.27-.69-.34.08-.19.42-.32.7-.22.38.13,5.76.56,6.65.63l3.61.27c5.67.42,12.95.65,18.1,1.27Z"/>
          <path class="cls-1" d="M113.21,51.85c.76.88-4.8.32-6.83.59-1.59.21-3.07.17-4.66.02.4-.65.93-.77,1.33-1.24.13-1.35-.55-2.57-1.2-3.71-1.33-2.35-1.15-.47-2.04-2.36.56-2.17.13-4.03,0-6.22.58.17,1.01.66,1.5,1.15l11.02,11.03c.32.32.53.64.88.75Z"/>
          <path class="cls-1" d="M99.81,38.92c.13,2.19.57,4.05,0,6.22-.39.07-.78.07-1.17.04-.24-.37-.26-.93-.47-1.3.21-.55-.12-1.17-.32-1.81-.31-.99-.11-2.24-.73-3.14-.37-.54-4.11-.5-3.24-.08-.42-.09-.82-.26-1.25-.21-.29-.18-.62-.54-.94-.7,1.14-1.33,2.39-2.56,2.86-4.27,1.33.04,2.83.32,3.72,1.48.99,1.28.49,3.48,1.53,3.78Z"/>
          <path class="cls-1" d="M54.95,25.27c.4.61.44,1.42.67,2.32l5.56-.28c.87-.04,1.64.12,2.48.16,4.19.24,8.34.1,12.37.86.07.53.08,1.15.28,1.65l-7.2-.76c-1.97-.21-3.81-.29-5.78-.06s-4.17.01-6.15.75c-.24.09.28.76.65.67,1.09-.28,2.09.07,3.14.13,1.68.1,3.29-.05,4.93.16s3.39,0,5.14.14c1.65.12,3.15.29,4.87.24.31,0,.89.36,1.18.46.48.16,1.28.56,1.88.7.67,1.56,1.82,2.94,2.62,4.34-.04.34-.16.66-.42.9-1.36-.36-2.73.38-4.11.57-.12-.25-.55-.59-.92-.47-1.98.65-1.55-.61-4.6.41-.56-.8-1.35-.7-2.2-.73l-2.09-.07c-.83-.03-1.53-.55-2.46-.42-1.29.17-2.55.03-3.85-.29-.35.56,0,1.14-.47,1.69-.42-.49-.47-.94-.85-.91-1.48.09.23,2.97.04,4.94-1.33.4-2.63.15-3.97.16l-9.42.03c-2.4,0-4.69,0-7.1-.02h-3.49s-4.52-.04-4.52-.04c.03-1.43,2.41-7.22,3.66-7.95.73.01,1.42.19,2.23.13,3.4-.24,6.76-.11,10.21-.09.69,0,1.22.16,1.95,0,.83-.17,2.75.54,3.34-.18.07-.09.13-.47-.07-.54-4.98-1.73-11.45-.77-16.51-.76.71-.66,1.62-1.41,2.6-1.72,1.72-.56,11.95-.26,14.79.64-.26-1.18.31-3.02-1.06-3.02h-14.16c-.46,0-.82-.12-1.14-.2,0-.74-.28-1.56.18-2.2h15.53c.46-.43.53-1.79.07-2.04-1.14-.63-6.41-.86-7.72-.85l.02-.44c1.97-.07,8.74.24,9.87,1.97ZM60.47,32.42h-.24v4.2h.24v-4.2Z"/>
          <path class="cls-1" d="M68.17,47.8c.43.13.62.78.74,1.16-.23.79-.98,1.34-1,2.19-.21-.28-.32-.77-.68-1.04-2.24-1.67-4.38-.95-6.82.05-.26-.95-.19-1.98-.17-3.05,1.28-.07,2.38.37,3.62.57,1.48.25,2.92.02,4.31.12Z"/>
          <path class="cls-1" d="M66,52.28c-1.14-.13-2.31.22-3.46-.02.11-.77-.04-1.52.21-2.38.79-.41,2.12-.71,2.75,0,.57.65.41,1.68.5,2.39Z"/>
          <path class="cls-1" d="M34.83,34.55c.04-.71.71-1.01,1.15-1.42,5.06-.02,11.54-.98,16.51.76.2.07.15.45.07.54-.59.72-2.52.02-3.34.18-.73.15-1.26,0-1.95,0-3.45-.02-6.81-.15-10.21.09-.81.06-1.5-.12-2.23-.13Z"/>
          <path class="cls-1" d="M76.3,29.98c.23.59.76,1.07.78,1.73-.29-.1-.87-.47-1.18-.46-1.72.05-3.22-.12-4.87-.24-1.75-.13-3.43.08-5.14-.14s-3.25-.06-4.93-.16c-1.06-.06-2.05-.41-3.14-.13-.37.1-.89-.58-.65-.67,1.97-.74,4.09-.52,6.15-.75s3.82-.14,5.78.06l7.2.76Z"/>
          <rect class="cls-1" x="60.23" y="32.42" width=".24" height="4.2"/>
          <g>
            <path class="cls-1" d="M40.29,23.77l.5-.02h4.27c1.31-.01,6.57.21,7.72.84.46.25.39,1.61-.07,2.04h-15.53c-.06-1.64,1.52-2.81,3.11-2.87Z"/>
            <path class="cls-1" d="M38.58,31.41c-.87-.63-1.59-1.47-1.57-2.57.32.09.68.21,1.14.21h14.16c1.38,0,.81,1.83,1.06,3.01-2.84-.9-13.06-1.2-14.79-.64Z"/>
            <path class="cls-1" d="M40.79,23.75l-.5.02c-.13-.2.21-.26.37-.23.08.01.17.08.13.21Z"/>
          </g>
        </g>
        <circle class="cls-1" cx="34.79" cy="25.82" r=".15"/>
        <circle class="cls-1" cx="28.67" cy="41.54" r=".15"/>
        <path class="cls-1" d="M76.13,25.49c.18.31.47.74.47,1.16,0,.61-.66,1.05-.57,1.68-4.02-.76-8.18-.62-12.37-.86-.83-.05-1.61-.21-2.48-.16l-5.56.28c-.23-.9-.27-1.71-.67-2.32,7.08-.25,14.13.16,21.18.23Z"/>
        <path class="cls-1" d="M83.75,15.86c-.05.24-.39.13-.5.48l1.88-.18c.06.24-.13.31-.39.39-3.77,1.18-4.12,2.57-7.01,4.37.57-1.37,1.88-1.92,2.85-2.91.59-.6,1.2-.84,1.94-1.16.09-.04.24.02.38-.02.12-.03.18-.2.13-.36-.07-.19-.26-.07-.36-.13-.28-.17-.23.22-.38.29-1.55.76-3.17,1.38-4.5,2.63-2.39,2.25-1.63,2.97-1.66,6.24-7.05-.06-14.1-.47-21.18-.23-1.13-1.73-7.9-2.04-9.87-1.97-3.13-2.22-6.49-4.04-9.8-5.96.2-.67,6.17-1.04,6.46-.99.94.15,1.78-.17,2.66-.19l6.36-.16,18.45-.25c2.29-.03,4.47-.24,6.73,0,2.64.29,5.24.02,7.8.11Z"/>
        <g>
          <path class="cls-1" d="M99.82,45.14c.89,1.89.71.01,2.04,2.36.65,1.15,1.33,2.36,1.2,3.71-.4.47-.93.59-1.33,1.24,1.59.15,3.08.19,4.66-.02,2.02-.27,7.59.29,6.83-.59h.27c.03.17.25.31.29.48-.25.08-.51.41-.96.29-.86-.23-1.63.15-2.44.16l-8.48.14-7.75.19-3.18-.04v-.24c.73.07,1.46-.04,2.18-.09.3-.02.64.08.94.09,1.27.04,2.54-.03,3.81-.06.44-.01,6.36.11,2.42-1.12-.4-.97-2.3-1.31-3.04-2.88l.19-.92c.31-.04.77,0,1-.31.18-.23,0-.65-.06-.95-.11-.46.24-.97.26-1.41.39.03.78.04,1.17-.04Z"/>
          <path class="cls-1" d="M90.23,15.62c.19,0,.43.02.48.24-.62.07-1.24-.17-1.88.15.75.17,1.31.02,1.39.56-.45.09-1.61-.75-5.09-.41l-1.88.18c.11-.34.45-.23.5-.48.42.01.88.09,1.2-.24h5.28Z"/>
          <path class="cls-1" d="M90.95,52.82v.24h-11.28v-.24l2.83-.06c1.46-.03,2.87.16,4.18-.6.77-.44,1.23.22,1.73.46.79.39,1.77.11,2.54.19Z"/>
          <path class="cls-1" d="M95.28,49.2l-.03,2.6c-.7-.11-.98.39-1.18,1.01-.3,0-.64-.11-.94-.09-.18-.9-2.36-1.61-3.15-1.81-.28-.07-.5-.35-.85-.31-.48.06-.32.53-.32.91-.14-.03-.33.03-.48.02-.01-.23-.36-.12-.52-.13-.64-.04-1.27.08-1.9.15.45-.23-.9-.06-.94-.33l-.11-.74c-.08-.56-1.53-.46-1.88.09-.52-.35-3.95,1.59-3.76,2.17-.49.09-.98.04-1.47.04.31-.26.63-.53.73-.94.51-.18.95-.58,1.22-1.05-.45-.21-.66-.37-.75-.64.32-.16.9.3,1.26.25,1.49-.72,2.94-1.28,4.48-1.66.2-.05.49,0,.7,0,.56.01,1.12.2,1.51-.26s1.06-.65,1.54-1.05c2.01-1.66,1.84-.21,2.28-1.34.17-.02.34-.09.47-.2.99.19,1.97.27,3.1.78-.83.99-1.83,1.83-2.88,2.79-.09.37.67.6.93.67.68.19,1.07-1.38,1.83-1.37.4.01.8.2,1.11.43Z"/>
          <path class="cls-1" d="M93.88,38.85c2.72.57,2.92,2.6,4.3,5.02.21.37.23.94.47,1.3-.02.44-.36.94-.26,1.41-2.92-1.21-5.94-2.35-9.09-2.63-.57-.05-1.5-.65-2.1-.05-.41.42.31,1.22.61,1.55-.48.29-1.36-.1-1.42.43-.07.64.38,1.23.24,1.89-.53-.21-1.08-.33-1.63-.47-.02-.35-.2-.77-.32-1.2-.09-.34-.53-.23-.71-.23-1,.01-2.08-.13-3.08-.03-.03-.33.33-.33.69-.49.38-.17.41-1.23.06-1.34-.88-.26-1.72.16-2.43.19-1.75.08-3.37.71-5.05,1.17-.06-.28-.38-.57-.21-.92,3.8-.42,7.08-1.43,11.23-1.43.29,0,.64-.14.68-.33.03-.16-.2-.35-.19-.46.13.07.35-.05.49-.01-.05.16-.24.31-.21.65.88.26,1.62.13,2.37.1.25.22.7.1.93.21.3.35.65.22,1.05.26,1.43.16,2.8.72,4.24.74.58.48,1.35.7,2.16.79-.42-1.14-.75-2.06-1.05-3.1-.74-2.57-3.59-1.3-3.02-3.25.44-.05.84.13,1.25.21Z"/>
          <path class="cls-1" d="M98.39,46.58c.07.3.24.72.06.95-.24.31-.69.27-1,.31-.47-.78-1.2,1.06-2.17,1.37-.3-.23-.7-.42-1.11-.43-.76-.02-1.15,1.55-1.83,1.37-.26-.07-1.02-.3-.93-.67,1.05-.96,2.04-1.8,2.88-2.79-1.13-.52-2.11-.6-3.1-.78-.5-.09-1.17-.23-1.63-.56-.44-.32-.25-.99-.26-1.38,3.16.28,6.17,1.41,9.09,2.63Z"/>
          <path class="cls-1" d="M82.98,50.58c.3.29.31.72.38,1.3l2.55-.32c.63-.08,1.26-.2,1.9-.15-.03.28.36.12.52.13.15.02.33-.05.48-.02.43.1.82.34,1.37.28l-.2-.88c.78.21,2.96.91,3.15,1.81-.72.05-1.46.16-2.18.09-.77-.08-1.75.2-2.54-.19-.5-.25-.97-.91-1.73-.46-1.31.76-2.72.57-4.18.6l-2.83.06c-.14,0-.31-.09-.45-.07-.19-.58,3.24-2.52,3.76-2.17Z"/>
          <path class="cls-1" d="M97.45,47.84l-.19.92c.74,1.57,2.64,1.91,3.04,2.88-1.11.67-2.96-.52-3.63.23-.46-.13-.95,0-1.41-.06l.03-2.6c.97-.31,1.69-2.14,2.17-1.37Z"/>
          <path class="cls-1" d="M100.3,51.64c3.94,1.23-1.98,1.11-2.42,1.12.14-.62-1.08-.25-1.22-.89.67-.75,2.52.44,3.63-.23Z"/>
          <path class="cls-1" d="M95.25,51.81c.46.07.95-.06,1.41.06.14.64,1.36.27,1.22.89-1.27.03-2.54.1-3.81.06.2-.62.48-1.12,1.18-1.01Z"/>
          <path class="cls-1" d="M81.05,40.35c.18.3-.02.93.26,1.23.13.13-.11.56.12.7.78.49,1.14-.3,2.13-.32.7.18,1.46-.07,2.11.29,0,.11.23.3.19.46-.04.19-.39.33-.68.33-4.15,0-7.43,1.01-11.23,1.43-.13-.15-.24-.32-.32-.5l1.37-3.22c.35-.82.78-1.56,1.56-1.89.42.03.96-.03,1.42-.17,1.57-.49,2.35.49,3.08,1.67Z"/>
          <path class="cls-1" d="M73.63,43.96c.08.18.19.35.32.5-.17.35.15.63.21.92.11.5.19,1.03.71,1.28.23,1.76-1.31.14-1.43,1.4-.1.07-.2.15-.28.25-.63-.02-1.36.22-1.42.91-.34,0-.67.08-.96.27-.21-.06-.48.05-.69-.03-.4-.16-.76-.42-1.19-.49-.12-.38-.31-1.03-.74-1.16.45-2.81,3.03-3.53,5.46-3.84Z"/>
          <path class="cls-1" d="M70.1,49.44c-.04,1.07.12,2.14.65,3.07l-2.37.07c-.02-.49-.17-1.03-.47-1.43.02-.85.77-1.4,1-2.19.43.07.79.32,1.19.49Z"/>
          <path class="cls-1" d="M81.16,37.66c.18.9-.1,1.79-.11,2.69-.72-1.18-1.51-2.16-3.08-1.67-.46.14-1,.2-1.42.17.21-.11.32-.47.49-.62,1.38-.19,2.75-.93,4.11-.57Z"/>
          <path class="cls-1" d="M71.75,49.21c1.34,1.14,5.11,1.91,6.73,2.63-.09.41-.42.68-.73.94-.8,0-1.6.09-2.4.03.02-.19-.22-.24-.47-.24h-2.17c-.19,0-.58-.15-.76-.08-.91-.75-1.29-1.85-1.16-3.01.29-.18.62-.28.96-.27Z"/>
          <path class="cls-1" d="M70.79,49.48c-.14,1.17.24,2.27,1.16,3.01-.32.12-.85.01-1.19.02-.53-.93-.69-2-.65-3.07.2.08.48-.02.69.03Z"/>
          <path class="cls-1" d="M75.35,52.82c-.84-.06-1.91.23-2.64-.24h2.17c.25,0,.48.05.47.24Z"/>
          <path class="cls-1" d="M87.58,21.84c-.06.23.05.54.23.61.33.13.65.09.94.15.8.17,1.4-.87,2.22-.89,2.67-.08,3.13,3.59,4,3.78.1.68.42,1.31.46,2.1.57.29,1.25.31,1.49-.24,1.54-.17.29,4.38-.06,5.25-.21.54-1.04.39-1.68-.15-.23.32-.54.83-.64,1.21-.48,1.71-1.73,2.94-2.86,4.27-.16.18-.64.14-.7.47l-.54.26c-.35.09-.77.06-1.08.22-.35.17-.37.66-.44,1.07-.14.87-.8,1.22-1.54,1.13s-3.39.22-4.12-.93c-.9-1.41.71-2.28-.68-2.51-.16-.41-.7-.67-1.02-.88-.8-1.4-1.95-2.78-2.62-4.34-.61-.14-1.4-.54-1.88-.7-.02-.67-.55-1.14-.78-1.73-.19-.51-.2-1.12-.28-1.65-.08-.63.57-1.06.57-1.68,1.26.05,1.07,1.12,2.1.99.09.31.15.69.45.99.59-.46.55-.98.5-1.47.78-.74,1.14-3.07,2.64-3.16.12.11-.06.57.16.63.19.06,2.14.12,2.35-.17.08-.11.25-.56.05-.63-.76-.28-1.58-.14-2.55.17,0-.82,3.63-2.04,4.36-3.08.05.06.26-.02.37-.02s.37.09.14.3c-.19.18-.56.12-.71.32-.1.13-.29.48-.07.57.48.02.84-.21,1.21-.25ZM93.47,25.92c-.64-1.1-1.79-1.08-2.58-1.01-.19.02-.17.8.03.8.81,0,1.72.8,2.55.22ZM83.95,30.82c.13-.25-.2-.57-.15-.82.45-2.32-.37-4.24-1.34-3.99-.17.05-.45.18-.59.46-1.59,3.1-.3,2.53-.16,4.41.03.35.52.68.77.75.17.05,1.34-.56,1.47-.81ZM92.12,27.31c-1.58-.28-2.03,2.27-1.74,3.36.13.51-.42.97,0,1.27.49.35,1.58.35,2.09-.04.26-.19,1.34-4.29-.35-4.59ZM88.53,31.84l.03-1.81c.02-.87.57-1.66.06-2.47.14,1-.85,1.12-1.13,1.5-.35.97-.01,2.42.08,3.37.03.33.62.26.71.08.06-.12.24-.29.24-.67Z"/>
          <path class="cls-1" d="M89.27,20.45c-.21.73-.94,1.3-1.68,1.39.2-.72,1.05-1.07,1.68-1.39Z"/>
          <path class="cls-1" d="M90.08,19.44c-.04.06,0,.16-.03.22-.33.19-.44.61-.78.78.07-.23-.09-.55.1-.76.18-.2.46-.24.71-.24Z"/>
          <path class="cls-1" d="M92.64,17.55c-.74-.29-1.61-.42-2.19-.98.84-.11,1.56.48,2.19.98Z"/>
          <path class="cls-1" d="M93.36,18.03c-.22-.09-.4-.24-.48-.47.29-.05.31.41.48.47Z"/>
          <path class="cls-1" d="M80.9,45.85c1-.11,2.08.04,3.08.03l.71,2.86c-1.54.38-2.99.94-4.48,1.66-.36.05-.94-.41-1.26-.25-.12.06-.29,0-.42.02-.61-.87-1.98-.95-3.03-1.35l-2.04-.77c.11-1.26,1.66.37,1.43-1.4,1.31.08,2.57-.44,3.85-.58l2.17-.23Z"/>
          <path class="cls-1" d="M73.17,48.3c.55,1.22,3.83,2.16,5.35,1.87.13-.03.3.03.42-.02.09.27.3.43.75.64-.28.47-.71.88-1.22,1.05-1.61-.72-5.38-1.49-6.73-2.63.06-.69.79-.93,1.42-.91Z"/>
          <path class="cls-1" d="M90.72,46.09c-.44,1.12-.27-.32-2.28,1.34-.48.4-1.15.59-1.54,1.05-.02-.22-.31-.48-.26-.71.13-.65-.32-1.24-.24-1.89,1.45-.06,2.88.1,4.33.2Z"/>
          <path class="cls-1" d="M89.3,43.95c.01.38-.18,1.06.26,1.38.47.33,1.13.47,1.63.56-.13.11-.3.18-.47.2-1.44-.1-2.87-.26-4.33-.2.06-.54.94-.14,1.42-.43-.3-.33-1.02-1.14-.61-1.55.59-.6,1.52,0,2.1.05Z"/>
          <path class="cls-1" d="M85.91,51.56l-2.55.32c-.07-.58-.08-1.01-.38-1.3.34-.55,1.79-.65,1.88-.09l.11.74c.04.27,1.39.11.94.33Z"/>
          <path class="cls-1" d="M85,47.3c.03.49.12.89.92,1.06-.14.29-.25-.11-.29-.05-.09.13-.22.38-.23.42-.21,0-.49-.05-.7,0l-.71-2.86c.18,0,.62-.12.71.23.11.44.29.85.32,1.2Z"/>
          <path class="cls-1" d="M86.64,47.77c-.05.23.24.49.26.71-.39.46-.95.27-1.51.26,0-.04.14-.29.23-.42.05-.07.15.34.29.05-.79-.17-.88-.57-.92-1.06.55.13,1.11.26,1.63.47Z"/>
          <path class="cls-1" d="M89.98,50.92l.2.88c-.55.06-.94-.18-1.37-.28,0-.38-.15-.86.32-.91.35-.04.57.23.85.31Z"/>
          <path class="cls-1" d="M88.33,51.54c-.16-.02-.55.14-.52-.13.16.01.51-.1.52.13Z"/>
          <path class="cls-1" d="M91.69,37.93c.33.16.66.52.94.7-.56,1.95,2.29.68,3.02,3.25.3,1.04.63,1.96,1.05,3.1-.81-.08-1.58-.31-2.16-.79.08-.53.44-1.25.16-1.86-.57-1.25-1.97-1.63-3.18-1.52-.08-.82-.22-1.66-.54-2.42.07-.33.55-.29.7-.47Z"/>
          <path class="cls-1" d="M94.54,44.2c-1.44-.03-2.81-.59-4.24-.74.28-.69,1.37-1.05,1.22-2.63,1.21-.11,2.61.27,3.18,1.52.28.61-.08,1.33-.16,1.86Z"/>
          <path class="cls-1" d="M79.21,44.21c-.02.66-.36,1.24-.49,1.87-1.28.14-2.54.66-3.85.58-.52-.25-.61-.78-.71-1.28,1.68-.46,3.29-1.09,5.05-1.17Z"/>
          <path class="cls-1" d="M98.18,43.87c-1.37-2.42-1.57-4.45-4.3-5.02-.87-.43,2.87-.46,3.24.08.62.9.42,2.15.73,3.14.2.64.53,1.27.32,1.81Z"/>
          <path class="cls-1" d="M90.98,38.4c.32.75.46,1.6.54,2.42.16,1.59-.94,1.95-1.22,2.63-.41-.04-.75.08-1.05-.26.1-.79-.7-.56-1.17-1.18.22-.52,2.63.46,2.52-1.18l-.15-2.15.54-.26Z"/>
          <path class="cls-1" d="M80.9,45.85l-2.17.23c.12-.64.47-1.21.49-1.87.71-.03,1.56-.46,2.43-.19.35.1.31,1.17-.06,1.34-.35.16-.71.16-.69.49Z"/>
          <path class="cls-1" d="M87.32,41.59c.24.07.42.47.76.41.47.63,1.26.39,1.17,1.18-.23-.1-.68.01-.93-.21-.58-.51-1.44-.55-2.16-.74-.14-.04-.37.08-.49.01-.66-.36-1.41-.12-2.11-.29.99-.92,2.51-.74,3.77-.36Z"/>
          <path class="cls-1" d="M88.33,42.98c-.75.03-1.49.16-2.37-.1-.04-.33.15-.48.21-.65.72.19,1.58.24,2.16.74Z"/>
          <path class="cls-1" d="M82.52,16.84l-.23-.22c.15-.08.1-.46.38-.29.1.06.29-.06.36.13.05.16,0,.32-.13.36-.14.04-.3-.01-.38.02Z"/>
          <path class="cls-1" d="M81.17,20.19l.18-.26-.18.26Z"/>
          <path class="cls-1" d="M90.21,16.56c.08-.01.16.02.24,0,.58.56,1.45.69,2.19.98.06.03.17.02.24.01.08.22.26.38.48.47.33.1.51.47.73.66.28,1.16,1.13,1.5,1.46,3.16-.37-.04-.51-.33-.91-.68.08.76.64,1.3.55,2.18-.38-1.01-.78-1.2-1.4-1.43-.94-.36-1.25-1.73-2.35-1.74-.11-.63-.85-.52-1.38-.51.03-.07,0-.16.03-.22.22-.35-.1-.65-.29-.9-.68-.97-1.79,2.27-3.52,1.74-.68-.43.27-1.27.86-1.61-.67-.34-.92.65-1.55.71-.95.08-1.59.58-2.31,1.02l-2.7,1.63c1.26-1.29,2.76-1.89,4.1-2.69-.25-.16-.43-.03-.7-.23.56-.33,1.16-.55,1.69-1.08-1.46.15-3.48,1.94-4.34,1.91.15-.21.38-.36.45-.72-.92.45-1.57,1.13-2.08,1.87.63-.37.85-.97,1.45-.9l-1.79,2.19c.18.31.46-.1.83-.07.32.16-.19.26-.28.69,1.78-.74,3.72-1.2,5.48-2.33.15-.1.25-.2.39-.27.2-.1.22.16.33.27-1.25,1.03-2.77,1.74-4.44,2.14-.76.18-1,.6-1.34,1.23-.53.99-1.47,1.74-1.58,2.83-.02.23-.14.55-.08.77-1.03.13-.84-.95-2.1-.99,0-.42-.29-.85-.47-1.16.03-3.27-.73-3.99,1.66-6.24,1.33-1.25,2.95-1.88,4.5-2.63l.23.22c-.74.32-1.35.56-1.94,1.16-.97.99-2.27,1.54-2.85,2.91,2.89-1.79,3.23-3.19,7.01-4.37.26-.08.44-.15.39-.39,3.47-.34,4.64.5,5.09.41ZM86.15,17.9c0-.07-.05-.12-.12-.12s-.12.05-.12.12.05.12.12.12.12-.05.12-.12ZM79.39,21.62c0-.11-.09-.21-.21-.21s-.21.09-.21.21.09.21.21.21.21-.09.21-.21Z"/>
          <path class="cls-1" d="M90.08,19.44c-.26,0-.53.04-.71.24-.19.22-.04.53-.1.76-.64.32-1.49.67-1.68,1.39-.36.05-.72.27-1.21.25-.22-.09-.03-.44.07-.57.15-.2.52-.14.71-.32.23-.22-.04-.31-.14-.3-.11,0-.32.08-.37.02-.12-.16-.37-.16-.52-.25-.11-.11-.12-.36-.33-.27-.14.07-.24.17-.39.27-1.76,1.13-3.7,1.59-5.48,2.33.09-.43.6-.53.28-.69-.37-.03-.65.38-.83.07l1.79-2.19.18-.26c.85.03,2.88-1.76,4.34-1.91-.53.53-1.13.75-1.69,1.08.26.2.45.07.7.23-1.34.8-2.84,1.4-4.1,2.69l2.7-1.63c.73-.44,1.36-.93,2.31-1.02.62-.05.88-1.05,1.55-.71-.59.34-1.54,1.18-.86,1.61,1.73.53,2.83-2.71,3.52-1.74.18.26.51.55.29.9Z"/>
          <path class="cls-1" d="M81.35,19.94l-.18.26c-.6-.07-.82.53-1.45.9.52-.74,1.17-1.42,2.08-1.87-.07.36-.3.51-.45.72Z"/>
          <path class="cls-1" d="M91.43,20.18c-.98-.1-.77,1.26-2.67,2.42-.29-.06-.61-.02-.94-.15-.18-.07-.29-.37-.23-.61.75-.09,1.48-.67,1.68-1.39.35-.17.46-.59.78-.78.53-.01,1.26-.12,1.38.51Z"/>
          <path class="cls-1" d="M86.65,20.92c-.73,1.04-4.35,2.26-4.36,3.08-1.5.09-1.86,2.43-2.64,3.16-.3-.08-.59-.18-.87-.3.1-1.09,1.05-1.85,1.58-2.83.33-.62.57-1.05,1.34-1.23,1.67-.39,3.19-1.1,4.44-2.14.15.09.39.09.52.25Z"/>
          <path class="cls-1" d="M91.43,20.18c1.1,0,1.41,1.37,2.35,1.74.32,1.6.88,1.43,1.19,3.57-.87-.19-1.34-3.86-4-3.78-.82.02-1.43,1.06-2.22.89,1.91-1.15,1.7-2.52,2.67-2.42Z"/>
          <path class="cls-1" d="M79.65,27.17c.05.49.09,1.01-.5,1.47-.3-.3-.36-.68-.45-.99-.06-.22.06-.55.08-.77.29.11.58.22.87.3Z"/>
          <circle class="cls-1" cx="79.19" cy="21.62" r=".21"/>
          <path class="cls-1" d="M96.93,27.35c-.24.55-.92.53-1.49.24-.04-.79-.36-1.43-.46-2.1-.31-2.14-.87-1.97-1.19-3.57.62.24,1.02.42,1.4,1.43.09-.88-.47-1.42-.55-2.18.4.35.55.65.91.68-.33-1.66-1.18-2-1.46-3.16,2.05,1.09,2.95,3.64,2.9,6.04l-.06,2.62Z"/>
          <circle class="cls-1" cx="86.03" cy="17.9" r=".12"/>
          <path class="cls-1" d="M82.59,37.65c-.81.81-.35,2.09.4,3.08-.28.59-1.07.85-1.68.85-.28-.3-.07-.92-.26-1.23,0-.9.29-1.79.11-2.69.25-.23.37-.56.42-.9.32.21.86.47,1.02.88Z"/>
          <path class="cls-1" d="M87.39,41.09l-.07.51c-1.26-.38-2.77-.56-3.77.36-.98.03-1.35.82-2.13.32-.22-.14.01-.57-.12-.7.62,0,1.4-.26,1.68-.85-.75-.99-1.21-2.27-.4-3.08,1.39.23-.22,1.1.68,2.51.73,1.15,3.4.85,4.12.93Z"/>
          <path class="cls-1" d="M78.52,50.17c-1.52.3-4.8-.64-5.35-1.87.08-.1.18-.18.28-.25l2.04.77c1.06.4,2.42.48,3.03,1.35Z"/>
          <path class="cls-1" d="M83.95,30.82c-.12.24-1.3.86-1.47.81-.25-.07-.74-.4-.77-.75-.15-1.88-1.43-1.31.16-4.41.14-.28.42-.41.59-.46.96-.25,1.79,1.66,1.34,3.99-.05.25.27.57.15.82Z"/>
          <path class="cls-1" d="M92.12,27.31c1.68.3.6,4.39.35,4.59-.51.39-1.61.39-2.09.04-.41-.3.14-.76,0-1.27-.28-1.09.16-3.64,1.74-3.36Z"/>
          <path class="cls-1" d="M90.45,38.67l.15,2.15c.12,1.64-2.3.67-2.52,1.18-.34.06-.52-.34-.76-.41l.07-.51c.74.08,1.4-.27,1.54-1.13.07-.41.08-.89.44-1.07.31-.15.73-.12,1.08-.22Z"/>
          <path class="cls-1" d="M88.53,31.84c0,.38-.18.55-.24.67-.09.18-.67.26-.71-.08-.1-.96-.43-2.41-.08-3.37.28-.38,1.27-.5,1.13-1.5.51.8-.05,1.59-.06,2.47l-.03,1.81Z"/>
          <path class="cls-1" d="M93.47,25.92c-.83.58-1.74-.22-2.55-.22-.2,0-.22-.78-.03-.8.78-.06,1.93-.08,2.58,1.01Z"/>
          <path class="cls-1" d="M82.29,24c.97-.31,1.79-.45,2.55-.17.21.08.03.52-.05.63-.21.29-2.16.22-2.35.17-.22-.07-.04-.52-.16-.63Z"/>
        </g>
      </g>
      <g>
        <path class="cls-1" d="M41.73,12.7c.25,0,.49,0,.74-.02.5-.03.99-.07,1.49-.07l27.77.07,8.08.13c2.35.04,4.61.25,6.85.14.4-.02.97.46,1.43.16.1-.05.33.04.44.05l.76.05c4.03.27,8.09.39,12.19,1.03,1.58.25,2.88.88,3.92,2.06,6.82,7.71,9.58,32.41,9.94,32.66.08.06.23.05.34.03-.16,1.08.04,3.86.72,4.83l2.08,2.97c.2.28.36.51.78.62.4.69.75,1.5,1.23,2.14-.03.5.37.85.01,1.62-2.32-1.18-6.57-.59-8.03,1.22-.44.54-1.43.62-2,1.1-1.55,1.3-3.18,2.3-4.84,3.26-2.11-3.65-4.66-7.23-8.15-9.58-.06-.27-.28-.52-.48-.69-.33-1.87-2.65-2.47-2.86-3.37l7.75-.19,8.48-.14c.82-.01,1.58-.39,2.44-.16.45.12.71-.21.96-.29.37-.12.85.13,1.28-.27-1.57-5.63-2.79-11.18-4.09-16.84l-1.26-5.47c-.96-4.19-4.47-13.41-9.01-14.18-3.32-.57-6.65.05-9.99-.23-.26-.02-.5.16-.48.29h-5.28c-.46.17-.9-.26-1.47-.26l-24.07.14c-2.96.02-5.72.16-8.54.12.02-.18-.22-.25-.47-.25-2.33.02-4.53-.08-6.85-.1l-12.59-.13c1.25-1.4,2.49-2.29,4.86-2.33l5.91-.1Z"/>
        <path class="cls-1" d="M128.59,73.47c-1.29.69-2.78.35-4.29.49l-6.61.61c-2.6.24-5.22.25-7.75-.4-.72-.18-1.28-.83-1.99-.71-.45-.96-1.84-5.89-2.32-6.72,1.66-.96,3.29-1.96,4.84-3.26.57-.48,1.56-.56,2-1.1,1.46-1.81,5.71-2.39,8.03-1.22.36-.77-.04-1.13-.01-1.62,2.54,3.41,4.78,7.05,6.99,10.78.64,1.08.82,2.09,1.12,3.14Z"/>
        <path class="cls-1" d="M35.01,51.66c.32.46-1.76,2.75-2.2,3.8-1.37.24-2.56,1.1-3.83,1.9-4.31,2.73-7.53,6.63-9.31,11.31-1.53.94-7.51-.85-9.61-1.4-1.16-.3-3.54.34-4.06-.51l1.24-1.91,7.88-8.62c.43.18.77-.49,1.16-.56,5.54-.98,4.55-3.74,8.03-3.12,1.05.19,4.59-.78,6.91-.76,1.32,0,2.58-.27,3.8-.13Z"/>
        <path class="cls-1" d="M129.03,80.87c-.06,2.24.04,4.57-.65,6.73-3.84-1.06-2.92-8.2-4.61-8.2-1.44,0-2.78.79-4.03,1.27-3.56-1.65-7.53-.78-9.41,2.82-1.63,3.12-1.14,7.46,2.22,9.41.34.2.5.66,1.19.69.33.32.71.47,1.42.5.57.03,1.14.3,1.91.07.04.49-.64.93-.28,1.38-3.34.81-12.13,1.55-15.76,1.64,1.24-2.39,2.19-3.34,3.33-5.99.51-1.18,1.45-2.24,1.54-3.57,1.16-2.28,1.72-4.89,1.89-7.44.04-.54.34-1.11.19-1.72-.08-.36,0-.78-.01-1.15v-1.92c2.35.13,5.56.44,8.08.12l7.45-.93c.84-.1,2.17-.33,2.5.72l.97,3.1c.34,1.09.93,2.18,2.03,2.45Z"/>
        <path class="cls-1" d="M19.67,68.67c-.38.99-.52,2.21-.74,3.34-.39,2.02-.34,3.88-.03,5.77l-.42-.77c-.66,1.1-2.92.37-3.11.27-3.16-1.68-6.94-1.29-9.18,1.71-.24.33-.21.66.03.9-.31,0-.57.12-.78.36-.19.22-.04.61-.16.85-1.19,2.33-.34,5.14,1.23,7.17.44.57.78,1.01,1.58,1.22.37.09.76.7,1.25.54,1.3,1.14,3.16.57,4.79.23.82,1.05,8.09.99,9.56.97.45.87,1.34,1.61,1.45,2.64-5.33-.29-10.64-1.2-15.93-2.52-2.04-.51-6.57-1.91-6.82-4.18-.61-5.34-.17-10.82,1.46-16.05.52-1.66,1.3-3.04,2.14-4.35.53.85,2.9.21,4.06.51,2.1.54,8.08,2.33,9.61,1.4Z"/>
        <path class="cls-1" d="M128.38,87.6c-.02,1.29-.32,2.61-.69,3.87-.19.66-.63,1.9-1.29,2.23-1.06.52-2.26.87-3.32,1.07-1.49.29-3.04.38-4.53.59-.1.01-.35,0-.26.17-.47.14-1.03-.08-1.48.03-.36-.46.33-.89.28-1.38l1.21-.36c.1-.03.28-.17.49-.21.33-.06.54-.33.96-.47.45-.15.56-.64,1.01-.92,1.37-.88,1.87-2.4,2.12-4.1s.23-3.33-.89-4.79c-.66-.87-1.03-2.02-2.25-2.65,1.25-.49,2.59-1.27,4.03-1.27,1.69,0,.77,7.14,4.61,8.2Z"/>
        <path class="cls-1" d="M128.59,73.47c.68,2.41.51,4.92.44,7.41-1.1-.28-1.69-1.36-2.03-2.45l-.97-3.1c-.33-1.04-1.66-.82-2.5-.72l-7.45.93c-2.52.32-5.73,0-8.09-.12,0-.24-.01-.49-.01-.73.02-.33.01-.66-.03-.99v-.23c.72-.12,1.27.52,2,.71,2.54.65,5.15.64,7.75.4l6.61-.61c1.51-.14,3,.2,4.29-.49Z"/>
        <path class="cls-1" d="M32.81,55.46c-2.9,6.89,1.43,11.77,7.11,15.26,4.4,2.7,9.14,4.47,14.11,5.81.39.1.91.17,1.15.29.96.48,4.31.67,5.52.72,2.64.1,4.5-.15,6.96-.46,4.72-.58,9.22-2,13.66-3.68.87.52,5.13.64,6.03.51,1.64-.25,3.16-.03,4.77-.11l2.66-.12c2.83-.13,5.56-.04,8.32-.33.29-.03.64.74.98.57-.06,1.72.73.91.33,3.09-.03.17-.07.37-.01.6.03.13.19.38.41.22l.02,1.83c0,.21-.29.41-.26.64.04.31.05.82.48.66.11,1.43-.09,2.83-.2,4.26-.02.23-.41.53-.29.95.24.85-.18,1.66-.12,2.47.07.91.43,1.77-.35,2.49.17.1.25.12.28.08-1.14,2.66-2.09,3.6-3.33,5.99-.82.02-1.74.29-2.64.26l-3.22-.09c-.13-.2.28-.37.5-.45,4.46-1.67,5.06-6.38,3.49-10.06-.69-1.62-2.13-2.23-3.46-2.82-4.99-2.23-14.12-3.17-19.69-3.25l-6.23-.09c-11.66-.17-17.88-1.62-30.95-.48-3.44.3-6.88.66-9.83,2.13-.57.28-.97.63-1.44.98-2.3,1.69-2.76,4.78-.85,7.11,1.25,1.52,2.81,2.65,4.56,3.64.23.13.45.25.4.48-2.17.42-4.4-.57-6.55-.68-.11-1.03-1.01-1.77-1.45-2.64-2.05-4-3.77-8.09-4.76-12.45-.05-.24.04-.51-.03-.75-.02-.08.01-.16,0-.24-.31-1.89-.36-3.75.03-5.77.22-1.13.37-2.35.74-3.34,1.77-4.68,5-8.58,9.31-11.31,1.27-.8,2.45-1.66,3.83-1.9ZM28.06,60.04c-.25.35-.79.45-.95.88-.16.04-.37.1-.42.23-.08.22-.08.41-.09.6-.07.05-.13.14-.21.17-.1.04-.21.05-.33.08-.19.06-.09.33-.17.43-.36.44-.62.88-.73,1.42-.51-.47-2.04,3.77-2.2,4.28-.33,1.05-.09,2.31,1.12,2.59,1.92.44,3.91.24,5.87.42,1.46.13,2.87.27,4.33.1.72-.28-2.78-5.4-2.87-5.52-.09-.12-.1-.31-.21-.42-.07-.07-.01-.25-.07-.33-.09-.14-.19-.39-.38-.21.07-.53-.25-.95-.51-1.38-.08-.14.04-.39-.07-.56-.08-.12-.19-.38-.4-.21.01-.15,0-.31-.03-.46-.12-.73-.15-1.74-.96-1.93-.09-.02-.15-.15-.23-.19-.02-.13.03-.28-.01-.37-.06-.14-.21-.15-.35-.12-.24.04-.05.38-.14.5Z"/>
        <path class="cls-1" d="M105.62,66.74c.48.83,1.87,5.76,2.32,6.72v.23c-.29.28-.26.72.03.99,0,.24,0,.49.01.73v1.92c-.92.36-.08-1.62-.65-2.24-3.14-1.07-3.68-5.36-5.58-5.39l-5.52-.1c.62.01-6.89-.62-6.46-.71.84-.47,1.6-1.43,2.45-2.08,2.66-2.02,6.07-6.19,5.25-9.64,3.49,2.35,6.05,5.93,8.15,9.58Z"/>
        <path class="cls-1" d="M89.76,68.88c-.43.1,7.08.72,6.46.71l5.52.1c1.9.03,2.44,4.32,5.58,5.39.57.62-.26,2.61.66,2.24,0,.37-.07.8.01,1.15-.79.05-.11,1.08-.19,1.72-.17,2.55-.74,5.15-1.89,7.44-.38-.79-.52-1.74-1.05-2.43.12-1.43.32-2.83.2-4.26-.03-.42.26-1.04-.22-1.29l-.02-1.83c0-.17.07-.4.02-.59-.04-.14-.19-.39-.41-.23.4-2.18-.39-1.37-.33-3.09.08-2.43-4.59-.46-8.48-1.03-1.41-.2-2.82-.23-4.24-.24h-2.75c-.71-.02-1.27-.07-2.01.08-1,.21-1.93-.3-2.83-.3.09-.15.24-.29.46-.42l5.52-3.13Z"/>
        <path class="cls-1" d="M105.91,87.63c-.09,1.33-1.03,2.39-1.54,3.57-.03.04-.11.03-.28-.08.78-.72.42-1.58.35-2.49-.06-.81.36-1.62.12-2.47-.12-.42.27-.72.29-.95.53.69.67,1.64,1.05,2.43Z"/>
        <path class="cls-1" d="M107.8,80.2c.08-.64-.59-1.67.19-1.72.14.61-.16,1.18-.19,1.72Z"/>
        <path class="cls-1" d="M18.9,77.78c.01.08-.02.16,0,.24-.24-.04-.2.23-.19.37,0,.17.06.34.22.39.99,4.36,2.71,8.45,4.76,12.45-1.46.02-8.74.09-9.56-.97l.04-.27c.68-.19,1.34-.53,1.68-1.16,1.4-.72,2-2.34,2.33-3.82.22-.99.51-2.07-.04-3.03l.03-.59c0-.11-.04-.36-.2-.29-.29-1.58-1.51-2.69-2.62-3.81.19.1,2.45.83,3.11-.27l.42.77Z"/>
        <path class="cls-1" d="M107.97,74.68c-.29-.27-.31-.71-.03-.99.04.33.05.66.03.99Z"/>
        <path class="cls-1" d="M25.17,63.85c-.38,1.99-2.01,3.81-.52,4.19,1.03.26,6.37.72,7.8.56.01-.61-1.78-3.33-1.01-2.87.09.11,3.59,5.23,2.87,5.52-1.47.17-2.87.03-4.33-.1-1.96-.18-3.95.03-5.87-.42-1.21-.28-1.45-1.54-1.12-2.59.16-.51,1.69-4.76,2.2-4.28Z"/>
        <path class="cls-1" d="M29.74,63.14l.52.24c.26.43.58.85.51,1.38-.02.15-.09.41.08.53.1.07.28,0,.38.02.12.11.12.3.21.42-.77-.45,1.03,2.26,1.01,2.87-1.43.16-6.76-.29-7.8-.56-1.49-.38.14-2.2.52-4.19.11-.55.37-.99.73-1.42.16.02.38,0,.47-.15.06-.11.04-.25.02-.35.08-.03.14-.12.21-.17l.25.02c.08.96-1.73,2.62-1.39,3.71.23.74,1.31.41,1.88.51,1.13.19,2.15.54,3.3.11-.24-1.14-.99-1.98-.9-2.95Z"/>
        <path class="cls-1" d="M83.78,72.43c.9,0,1.83.51,2.83.3.74-.15,1.3-.1,2.01-.09h2.75c1.42.02,2.83.05,4.24.26,3.89.57,8.56-1.41,8.48,1.03-.35.17-.69-.6-.98-.57-2.76.3-5.49.21-8.32.33l-2.66.12c-1.61.07-3.13-.14-4.77.11-.9.14-5.17.02-6.03-.51.81-.31,1.54-.97,2.45-.97Z"/>
        <path class="cls-1" d="M28.96,60.97c.15.53.14,1.14.79,1.18.02.15.04.31.03.46l-.05.53c-.09.97.67,1.81.9,2.95-1.15.43-2.17.08-3.3-.11-.58-.09-1.66.23-1.88-.51-.34-1.09,1.47-2.75,1.39-3.71,0-.1.16-.27.26-.28.87-.09.61-1.07,1.86-.51Z"/>
        <path class="cls-1" d="M28.56,60.02c.08.04.14.17.23.19.06.25.1.51.17.76-1.25-.56-.99.42-1.86.51v-.57c.16-.43.7-.53.95-.88h.5Z"/>
        <path class="cls-1" d="M29.75,62.15c-.65-.04-.64-.65-.79-1.18-.07-.25-.12-.51-.17-.76.81.2.84,1.21.96,1.93Z"/>
        <path class="cls-1" d="M105.06,80.95c-.43.16-.43-.34-.48-.66-.03-.23.26-.43.26-.64.48.25.19.87.22,1.29Z"/>
        <path class="cls-1" d="M104.83,77.83c-.22.16-.38-.08-.41-.22-.05-.23-.02-.43.01-.6.22-.16.37.09.41.23.06.2-.02.42-.02.59Z"/>
        <path class="cls-1" d="M30.25,63.38l-.52-.24.05-.53c.21-.17.32.1.4.21.11.17-.01.42.07.56Z"/>
        <path class="cls-1" d="M27.1,60.91v.57c-.09,0-.26.19-.25.28l-.25-.02c0-.19,0-.37.09-.6.05-.13.26-.19.42-.23Z"/>
        <path class="cls-1" d="M28.56,60.02h-.5c.09-.11-.1-.45.14-.49.14-.02.29-.02.35.12.04.09,0,.24.01.37Z"/>
        <path class="cls-1" d="M31.21,65.3c-.09,0-.28.05-.38-.02-.17-.12-.1-.37-.08-.53.2-.18.3.07.38.21.05.09,0,.27.07.33Z"/>
        <path class="cls-1" d="M26.39,61.92c.02.1.04.25-.02.35-.09.16-.31.17-.47.15.08-.1-.02-.37.17-.43.12-.04.23-.04.33-.08Z"/>
        <path class="cls-1" d="M18.93,78.77c-.17-.05-.22-.22-.22-.39,0-.14-.04-.41.19-.37.07.24-.02.51.03.75Z"/>
        <g>
          <path class="cls-1" d="M96.99,56.47c.19.17.42.42.48.69.81,3.45-2.6,7.62-5.25,9.64-.85.65-1.61,1.61-2.45,2.08l-5.52,3.13c-.22.13-.37.27-.46.42-.92,0-1.64.67-2.45.97-4.44,1.67-8.94,3.1-13.66,3.68.32-.61-2.43.43-2.13-.26,7.71-1.96,13.84-3.24,20.65-7.69.74-.48,1.76-.62,2.28-1.81-1.55-.83-3.29-.44-4.98-.6l-3.08-.29-2.89-.22-3.13-.25c-1.07-.09-2.05-.1-3.14-.2l-7.18-.67c-.77-.07-1.64-.27-2.33-.22-.91.08-.61,1.37-.78,1.87-.68,2.01-.62,8.01-.29,10.25-.29-.01-.62.1-.91.02-.07,0-.16-.04-.22-.02-.19-2.08-.23-4.16-.25-6.37-.05-4.72,2.29-8.13-.11-7.99-.97.06-.98,1.58-1.58,2.88l-19.2-1.67c-.36-.03-.68,0-.85-.24-.08-.11-.13-.3-.15-.48,2.9-2.51,6.57-4.04,10.14-5.68s11.9-3.31,15.8-3.5l5.27-.26c1.67-.08,3.14-.06,4.82,0l4.21.15c4.64.16,12.26,2.69,16.16,3.02.43.04,3.23.15,3.18-.41Z"/>
          <path class="cls-1" d="M59.99,52.58l4.48.09,7.86.26c2.49.08,4.94.13,7.34.13h11.28l3.18.04c.2.9,2.52,1.5,2.86,3.37.05.56-2.75.44-3.18.41-3.91-.32-11.52-2.85-16.16-3.02l-4.21-.15c-1.68-.06-3.15-.09-4.82,0l-5.27.26c-3.9.19-12.42,1.94-15.8,3.5-3.57,1.64-7.24,3.17-10.14,5.68-.81.19-1.65.67-1.98,1.7,2.51.48,3.71.42,6.33.63l2.65.22,2.62.26,3.6.26c1.06.08,5.39.28,6,.54.3.13.7-.12.87-.25.3-.23,0-.71.11-.98.59-1.3.6-2.83,1.58-2.88,2.39-.14.06,3.26.11,7.99.02,2.2.06,4.29.25,6.37-1.47.35-3.64-.65-4.35-.18-.25-.12-.77-.19-1.15-.29-4.97-1.33-9.71-3.11-14.11-5.81-5.69-3.49-10.01-8.36-7.11-15.26.44-1.05,2.52-3.34,2.2-3.8.38.04.82-.15.94-.52,1.49.14,2.98-.07,4.6.18,1,.15,2.1.16,3.11.22l4.31.27,12.02.77Z"/>
          <path class="cls-1" d="M67.67,77.08c-2.46.3-4.32.56-6.96.46l-.94-.52c.29.08.62-.03.91-.02l2.4.09c1.01.04,1.68-.07,2.47-.27-.3.7,2.44-.35,2.13.26Z"/>
          <path class="cls-1" d="M59.54,77c.07-.02.15.03.22.02l.94.52c-1.21-.05-4.56-.24-5.52-.72.72-.47,2.89.53,4.35.18Z"/>
          <path class="cls-1" d="M86.19,69.12c-6.81,4.45-12.94,5.73-20.65,7.69-.79.2-1.45.31-2.47.27l-2.4-.09c-.33-2.25-.39-8.24.29-10.25l7.44.53,4.15.4c1.01.1,1.86.12,2.83.19l5.21.41,4.6.41c.44.04,1.03-.02.99.43Z"/>
          <path class="cls-1" d="M86.19,69.12c.03-.45-.55-.4-.99-.43l-4.6-.41-5.21-.41c-.97-.08-1.82-.1-2.83-.19l-4.15-.4-7.44-.53c.17-.5-.14-1.79.78-1.87.69-.06,1.56.14,2.33.22l7.18.67c1.09.1,2.07.11,3.14.2l3.13.25,2.89.22,3.08.29c1.68.16,3.43-.23,4.98.6-.52,1.19-1.54,1.33-2.28,1.81Z"/>
          <path class="cls-1" d="M37.41,63.14c.02.18.07.36.15.48.17.24.49.21.85.24l19.2,1.67c-.12.27.18.75-.11.98-.16.12-.57.37-.87.25-.61-.26-4.95-.47-6-.54l-3.6-.26-2.62-.26-2.65-.22c-2.61-.22-3.81-.16-6.33-.63.32-1.03,1.16-1.51,1.98-1.7Z"/>
          <path class="cls-1" d="M60.47,52.34c.66.08,1.45-.21,2.08-.08,1.15.24,2.32-.11,3.46.02.76.09,1.49.32,2.38.3l2.37-.07c.34,0,.87.1,1.19-.02.18-.07.58.08.76.09.73.47,1.8.18,2.64.24s1.6-.04,2.4-.03c.49,0,.98.05,1.47-.04.14-.02.31.07.45.07v.24c-2.4,0-4.85-.05-7.34-.13l-7.86-.26-4.48-.09c.08-.19.29-.25.48-.24Z"/>
        </g>
        <g>
          <path class="cls-1" d="M95.72,84.04c1.32.59,2.77,1.2,3.46,2.82,1.57,3.68.97,8.39-3.49,10.06-.21.08-.63.24-.5.45-2.87-.08-5.78.12-8.8.03l-7.67-.23c-.21-1.04,1.22-.31,1.43-.91.08-.01.16,0,.24,0,.19,0,.42-.03.48-.24,1.67.14,3.37.09,5.04,0,.56.43,1.52.3,2.23.18.63-.1,1.26-.28,1.86-.47,1.98-.64,4.19-.84,5.88-2.68-2.33-.24-4.47-.15-6.57-.06-.36.01-.73-.17-1.19,0-.07.79.81,2.89.04,2.87-.22-.05-.48,0-.8-.13.31-.63.57-1.72-.25-1.86,0-.22.04-.56-.13-.87l-7.55-.08c.09-.25-.02-.56-.34-.51-.13.02-.28.09-.38.25l-.64-.08-.34-1.89c3.57-.15,7.18-.36,10.77-.18,2.49.13,5.05.44,7.75.16.3-.03.55.12.63.25s-.01.3.17.56c.35-.51.15-1.1-.32-1.29.03-.46-.07-1.02-.4-1.37-.39-.42-.88-.54-1.53-.54-2.16-.01-4.2-.34-6.21-.1-.21.03-.57-.05-.77-.06-.42-.28-.94-.03-1.4-.05l-6.3-.19c.01-.4-.54-.39-.93-.61-.17-.69.59-.63.71-1.11,2.15-.03,4.3-.01,6.44.18.15.01.46.18.52-.05.06-.2,0-.42,0-.6.02-.26-.29-.27-.48-.24.02-.13-.1-.49.13-.42.27.02.57-.03.84.09.55.23-.13,1.24.69,1.24,1.19,0,2.35.22,3.74.07-1.17-.89-2.45-.89-3.61-1.16-.21-.73-1.05-.64-1.67-.45l-.16-.02c.12-.36.03-.6-.32-.57s-.86-.12-.84.34c-.12-.06-.35-.06-.48-.05.3-1.06-1.53-.1-2.82-.79-.12.28-.06.4-.06.52-.31.04-.7.04-1-.04.02-1.05-2.19-.31-2.91-.91-.28-.23-.4-.74-.41-1.17,4.33.03,8.74.29,13.05,1.28l3.74.86c.53.12,1.12.11,1.42-.24Z"/>
          <path class="cls-1" d="M42,81.11c.02.68-.35,1.25-.3,1.94-.29.03-.59.01-.89.03-.11,0-.23-.15-.37-.13-.18.03-.32.14-.42.29-1.05-.13-8.11.27-8.35,1.54-.26.16-.96.05-.9.69l8.1.04c1.72,0,3.36-.07,4.97.11.49.06,1.13.19,1.71.03,1.24-.34,2.34.21,3.39.23-.05,1.58-1.71.42-1.7,1.46-.25,0-6.36-.26-5.96-.15l-.7-.19c-.26-.07-.55-.03-.76.15l-9.7-.43c-.42,1.27-.24,2.49.58,3.29-.02.08,0,.48.24.48h10.07c2.41.02,4.71-.13,6.96.19-.12.35-.23.75-.34,1.03-.37.92-2.08,0-1.81.95-1.61-.09-3.22-.12-4.83-.1-.64,0-1.24-.14-1.89-.08-1.4.12-2.83-.36-4.44.15,1.28.96,2.68.84,3.93,1.08-.24.61.76.74.76,1.8-2.07-.21-5.43-.08-7.66-.97.05-.23-.16-.35-.4-.48-1.76-.99-3.31-2.12-4.56-3.64-1.91-2.32-1.45-5.41.85-7.11l1.43-.67c1.82.04,5.63-.56,7.2-1.1l.45.02c.45.02.96.15,1.29-.21,1.32-.31,2.74-.04,4.05-.24Z"/>
          <path class="cls-1" d="M62.68,92.85c2.63-.03,5.26.2,7.89-.01.76-.06,1.62.24,2.36.1-.01.07.02.14,0,.21-.27.82-.24,1.6-.25,2.71-1.41-.18-2.74-.03-4.03-.12l-6.52-.48-.02-1.18-3.92-.34c0-.27-.07-.55-.07-.83,1.51-.24,3.04-.04,4.57-.06Z"/>
          <path class="cls-1" d="M45.83,92.67c2,.11,4.02.04,6.02,0,1.42-.03,2.9-.07,4.3.31-.11.82-.3,1.36-.05,1.84-.22,0-.46.14-.68.12l-4.55-.39c-1.84-.16-3.57-.11-5.27-.25-1.4-.12-2.96-.49-4.47-.47-.29-.28-.22-1.02-.14-1.27,1.62-.02,3.22.01,4.83.1Z"/>
          <path class="cls-1" d="M62.68,92.85c-1.53.02-3.06-.18-4.57.06-.18.03-.38.04-.57.05-.32,0-.64-.04-1.06.06l-.06,1.81c-.08-.01-.23,0-.32,0-.25-.49-.06-1.02.05-1.84-1.39-.39-2.88-.34-4.3-.31-.24-.39-.74.54-.5-.29.06-.2.28-.22.47-.26.71-.15.5-.93.49-1.43,2.47-.33,5.05-.23,7.71-.02.43.03.18,1.39-.25,1.46-.6.1-1.08-.11-1.5.23.63.29,5.15-.33,4.4.5Z"/>
          <path class="cls-1" d="M55.41,94.94c-.1.45.43.73.53,1.35-3.49.1-6.79-.28-10.09-.4l-.26-1.59c1.69.14,3.42.1,5.27.25l4.55.39Z"/>
          <path class="cls-1" d="M40.99,92.56c-.08.25-.15.99.14,1.27,1.51-.02,3.07.35,4.47.47l.26,1.59c-2.17-.08-4.33-.16-6.5-.37,0-1.06-1-1.19-.76-1.8.57-.12.51-.74.51-1.23.65-.06,1.24.09,1.89.08Z"/>
          <path class="cls-1" d="M80.15,96.26c-.21.6-1.64-.13-1.43.91-1.85-.05-3.68-.03-5.51-.22l.06-.86c.55-.08,1.16.05,1.63-.29l3.05.25c.79.06,1.49.32,2.2.21Z"/>
          <path class="cls-1" d="M73.2,95.72c-.04.13-.12.27.06.37l-.06.86c-1.41-.15-5.43.64-4.56-1.22,1.29.09,2.63-.06,4.03.12.02-1.11-.01-1.89.25-2.71l.28-.02v2.6Z"/>
          <path class="cls-1" d="M62.12,95.25c-1.29-.09-2.6.02-3.97-.24l.02-1.28,3.92.34.02,1.18Z"/>
          <path class="cls-1" d="M57.54,92.95c-.01.53.24,1.2-.07,1.77-.19.35-.8.13-1.06.1l.06-1.81c.42-.1.74-.05,1.06-.06Z"/>
          <path class="cls-1" d="M95.72,84.04c-.3.35-.89.36-1.42.24l-3.74-.86c-4.31-.99-8.72-1.25-13.05-1.28-.23,0-.46-.08-.68-.07.71-.5-2.96-.79-3.37-.68-.74.2-1.31.75-2.21.55.13.03-5.36.18-5.54.59.37.67,2.14.25,1.97.98-2.85.13-5.47-.33-8.44-.24-.33.01-.25.38-.22.71.04.42-.11.84.06,1.43l11.98.31c.47.72-2.02.26-2.82.89.48.77,1.2.27,1.84.66-.15.34-4.31-.29-3.68.38l-7.84-.15-.02.8-.03,1.49,7.45.14,7.02.13,1.37.03.04-2.29-.98-.02c.03.12.06,0,.07-.12.46-.27.98.22,1.34.22.06.64-.03,1.26.14,2.05,1.9.05,3.73.11,5.65.1l5.76-.03h.52c.26,0,.52.05.87-.06-.01-.58-.09-1.07-.18-1.55.1-.03.18-.19.23-.28.21,0,.56.08.77.06.15.66.18,1.34.2,2.02-.12,0-.34.19-.29.31-3.58-.18-7.2.03-10.77.18-.8.03-1.83.05-2.63,0-1.82-.09-3.84-.32-5.78-.02-.36.1-.35,1.34,0,1.47.52.19,1.25.1,1.26.68-2.63.22-5.26-.01-7.89.01.75-.82-3.77-.21-4.4-.5.42-.35.9-.13,1.5-.23.43-.07.68-1.43.25-1.46-2.66-.21-5.24-.31-7.71.02-1.4-.29-2.94-.3-4.34,0-2.25-.32-4.55-.17-6.96-.17h-10.07c-.25-.01-.26-.42-.24-.5,3.03.01,6.06.02,9.08-.22.09,0,.17.09.24.09.56,0,.5-1.15.52-1.78l.02-.73v-.37s.71.19.71.19v1.13c.01.49-.16.95-.09,1.53,1.21.14,2.41.25,3.68.17,3.77-.22,7.41-.27,11.06-.2.22,0,.46.02.67-.02s.68.06.87-.12c.19-.69.26-1.53-.14-2.06.08-.37.62-.28.85-.59.21-.28-.05-.76-.19-.97-.48-.71-2.71.5-2.82-.67.42.03.83-.06,1.24-.12.35-.05.66.13,1.11.12.03-.66.25-1.38-.06-2-.15-.29-.65-.25-.86-.27-1.61-.15-4.75.01-6.45-.3-.06-.33.29-.4.59-.62.26-.2.24-1-.1-1.1-1.03-.33-1.98-.1-2.89-.13-1.93-.08-3.86-.13-5.75.16-1.32.2-2.73-.08-4.05.24-.06-.27-.43-.2-.64-.23-.28-.04-.8.03-.65.44l-.45-.02c-1.23-.83-5.64.89-7.18.79,2.95-1.47,6.39-1.83,9.83-2.13,13.07-1.14,19.29.31,30.95.48l6.23.09c5.58.08,14.7,1.02,19.69,3.25Z"/>
          <path class="cls-1" d="M36.21,81.55c-1.57.54-5.38,1.14-7.2,1.1l-1.43.67c.48-.35.87-.7,1.44-.98,1.54.1,5.96-1.61,7.18-.79Z"/>
          <path class="cls-1" d="M78.71,92.9l.72.02,7.55.08c.18.31.13.65.13.87v2.13c-.49.09-.84,0-1.2.03-1.67.09-3.37.14-5.04,0-.18-.02-.46.02-.48.24-.08,0-.16-.01-.24,0-.71.11-1.41-.15-2.2-.21l-3.05-.25.05-2.85,3.76-.05Z"/>
          <path class="cls-1" d="M80.12,87.88l6.3.19-.02,1.95-5.76.03c-1.91.01-3.75-.05-5.65-.1-.17-.79-.08-1.42-.14-2.05.93,0,1.9-.16,2.92.1.85.21,1.64-.13,2.36-.11Z"/>
          <path class="cls-1" d="M80.82,84.22c.31.08.69.08,1,.04.98-.12,1.9.32,2.88.27.13,0,.36,0,.48.05.36.18.76.18,1.16.22l.16.02c-.12.08-.15.16,0,.21-.23-.07-.11.3-.13.42-.01.08,0,.16,0,.24l-.05.65c-2.14-.2-4.29-.22-6.44-.18-.83-.47-3.42-.02-4.81-.28-.02-.59-.02-1.19-.16-1.78.83-.2,5.19-.07,5.89.12Z"/>
          <path class="cls-1" d="M96.74,90.19c-2.64.12-5.3.11-7.95,0-.01-.68-.04-1.35-.2-2.02,2.01-.24,4.06.08,6.21.1.65,0,1.14.12,1.53.54.33.36.43.91.4,1.37Z"/>
          <path class="cls-1" d="M75.11,90.7c.11.41.07,1.13.41,1.5.8.35,1.76.29,2.55.38l.64.08v.24l-3.76.05c-.61-.58-1.37-.14-2.01,0-.75.14-1.61-.16-2.36-.1,0-.58-.74-.5-1.26-.68-.35-.13-.35-1.37,0-1.47,1.94-.3,3.96-.07,5.78.02Z"/>
          <path class="cls-1" d="M90,95.72c-.83.3-.35-1.74-.69-2.74,2.1-.09,4.24-.18,6.57.06-1.69,1.84-3.9,2.04-5.88,2.68Z"/>
          <path class="cls-1" d="M79.89,86.17c-.12.47-.88.41-.71,1.11.39.22.94.2.93.61-.71-.02-1.51.32-2.36.11-1.02-.26-1.99-.1-2.92-.1-.36,0-.88-.48-1.34-.22-.01-.25-.43-.51-.51-.8.33-.47.95-.55,1.38-.77.2-.1.53-.08.72-.22,1.38.26,3.98-.19,4.81.28ZM75.59,86.3c0-.07-.05-.12-.12-.12s-.12.05-.12.12.05.12.12.12.12-.05.12-.12Z"/>
          <path class="cls-1" d="M76.83,82.07c.23-.01.46.07.68.07,0,.43.13.94.41,1.17.72.6,2.93-.14,2.91.91-.71-.18-5.07-.32-5.89-.12-.23-.22-.57-.2-.84-.33-.84-.41-1.82-.31-2.75-.9-.04-1.05,4.7-.76,5.49-.8Z"/>
          <path class="cls-1" d="M77.73,90.69l.34,1.89c-.79-.1-1.75-.03-2.55-.38-.35-.37-.31-1.09-.41-1.5.79.04,1.83.03,2.63,0Z"/>
          <path class="cls-1" d="M96.74,90.19c.47.2.68.79.32,1.29-.19-.26-.09-.42-.17-.56s-.34-.28-.63-.25c-2.7.28-5.26-.04-7.75-.16-.05-.13.17-.32.29-.31,2.65.1,5.31.12,7.95,0Z"/>
          <path class="cls-1" d="M89.31,92.98c.34,1.01-.15,3.04.69,2.74-.6.19-1.23.37-1.86.47.01-.12.02-.24.01-.36.77.03-.11-2.08-.04-2.87.46-.16.83.02,1.19,0Z"/>
          <path class="cls-1" d="M88.05,86.36c.02-.37.08-.73.14-1.09,1.15.28,2.44.27,3.61,1.16-1.39.15-2.55-.07-3.74-.07Z"/>
          <path class="cls-1" d="M88.15,95.84c0,.12,0,.24-.01.36-.71.12-1.67.25-2.23-.18.36-.02.71.06,1.19-.03v-2.13c.83.14.57,1.23.26,1.86.31.13.58.08.8.13Z"/>
          <path class="cls-1" d="M87.82,88.12c-.04.09-.13.25-.23.28-.17.04-.73-.09-.72.16l.04,1.46h-.52s.02-1.95.02-1.95c.46.01.98-.23,1.4.05Z"/>
          <path class="cls-1" d="M84.71,84.54c-.98.05-1.9-.39-2.88-.27,0-.12-.05-.24.06-.52,1.29.69,3.11-.27,2.82.79Z"/>
          <path class="cls-1" d="M88.19,85.27c-.06.36-.12.72-.14,1.09-.83,0-.15-1.01-.69-1.24-.27-.11-.57-.07-.84-.09-.15-.06-.12-.13,0-.21.62-.19,1.46-.28,1.67.45Z"/>
          <path class="cls-1" d="M86.35,84.81c-.4-.04-.8-.05-1.16-.22-.01-.46.48-.31.84-.34s.44.21.32.57Z"/>
          <path class="cls-1" d="M79.43,92.92l-.72-.02v-.24c.1-.16.25-.23.38-.25.32-.06.42.26.34.51Z"/>
          <path class="cls-1" d="M86.87,85.7c-.01.17.05.4,0,.6-.06.23-.37.07-.52.05l.05-.65h.48Z"/>
          <path class="cls-1" d="M86.87,85.7h-.48c0-.08-.01-.16,0-.24.19-.03.5-.02.48.24Z"/>
          <path class="cls-1" d="M80.87,96.02c-.06.21-.29.24-.48.24.02-.22.3-.26.48-.24Z"/>
          <path class="cls-1" d="M39.83,87.16c-.1.88-.22,1.77-.04,2.64-3.02.24-6.05.23-9.08.22-.82-.8-1-2.02-.58-3.29l9.7.43Z"/>
          <path class="cls-1" d="M55.17,85.38c.11,1.17,2.35-.04,2.82.67.14.21.39.7.19.97-.24.32-.77.23-.85.59-.22.04-.46.08-.68.05l-.49-.06c-2-.25-4.03-.26-6.05-.27-.36-.71,1.3-.2,2.37-.78,2.34-1.27-5.31-.71-3.54-.69-1.05-.01-2.14-.56-3.39-.23-.58.16-1.22.02-1.71-.03l.02-.41c.13.03,10.21-.11,11.3.17Z"/>
          <path class="cls-1" d="M47.25,87.34h2.87c2.02.01,4.04.02,6.05.28.05.25,0,.53-.21.68l-14.65.02v-1.13c-.41-.11,5.7.15,5.95.15Z"/>
          <path class="cls-1" d="M40.02,83.24l-.13,1.48c-.28.36-.73.35-1.25.32-2.61-.19-4.84.17-6.96-.26.24-1.27,7.29-1.67,8.35-1.54Z"/>
          <path class="cls-1" d="M47.75,80.95c-.1.56-.28,1.11-.23,1.68-1.91.37-3.88.18-5.82.42-.05-.68.31-1.26.3-1.94,1.89-.29,3.82-.24,5.75-.16Z"/>
          <path class="cls-1" d="M52.32,90.68c.01.5.22,1.28-.49,1.43-.2.04-.42.07-.47.26-.25.83.25-.1.5.29-2,.04-4.02.12-6.02,0-.27-.95,1.44-.03,1.81-.95.11-.28.22-.68.34-1.03,1.4-.3,2.94-.3,4.34,0Z"/>
          <path class="cls-1" d="M41.7,83.05c.05.6-.13,1.21-.19,1.89.49.32.97.11,1.42.08l.94.19-.02.41c-1.61-.18-3.25-.1-4.97-.11l-8.1-.04c-.06-.64.64-.53.9-.69,2.12.43,4.35.07,6.96.26.52.04.98.04,1.25-.32.23.12.48.25.85.17.15-.63.16-1.23.08-1.82.29-.02.59,0,.89-.03Z"/>
          <path class="cls-1" d="M50.11,87.35h-2.87c0-1.05,1.65.11,1.7-1.47-1.78-.02,5.88-.59,3.54.69-1.07.58-2.73.07-2.37.78Z"/>
          <path class="cls-1" d="M39.11,92.48c0,.49.06,1.11-.51,1.23-1.25-.24-2.65-.12-3.93-1.08,1.62-.51,3.04-.03,4.44-.15Z"/>
          <path class="cls-1" d="M40.58,87v.37c-.18-.01-.46-.07-.51.17-.03.16-.08.43.11.55.08.05.26-.01.36,0-.02.63.05,1.79-.52,1.78-.08,0-.15-.09-.24-.09-.18-.87-.07-1.76.04-2.64.21-.19.5-.22.76-.15Z"/>
          <path class="cls-1" d="M40.82,83.08c.08.59.07,1.19-.08,1.82-.37.07-.61-.05-.85-.17l.13-1.48c.1-.15.24-.26.42-.29.14-.03.26.13.37.13Z"/>
          <path class="cls-1" d="M37.94,81.35c-.33.37-.84.23-1.29.21-.16-.41.37-.48.65-.44.21.03.58-.04.64.23Z"/>
          <path class="cls-1" d="M74.94,92.94l-.05,2.85c-.47.34-1.08.22-1.63.29-.19-.1-.1-.24-.06-.37.36.02.68.1,1.19.03-.07-.87.26-1.75-.1-2.56-.15-.33-.81-.09-1.07-.07l-.28.02c.02-.06-.01-.14,0-.21.64-.13,1.4-.57,2.01,0Z"/>
          <path class="cls-1" d="M73.2,95.72v-2.6c.28-.02.94-.26,1.09.07.36.8.03,1.69.1,2.56-.5.07-.83,0-1.19-.03Z"/>
          <path class="cls-1" d="M76.83,82.07c-.79.04-5.53-.25-5.49.8.94.59,1.92.49,2.75.9v.28c-.7-.37-.61,1.47-.6,1.48.17.27.62.15.86.17v.4c-.42.22-1.04.3-1.37.77.08.3.5.55.51.8-.02.12-.04.23-.07.12h-.21s-6.8-.13-6.8-.13c-.63-.67,3.53-.04,3.68-.38-.64-.39-1.36.11-1.84-.66.8-.63,3.29-.18,2.82-.89.57.02,1.18.23,1.84.12.36-.06.21-1.01.24-1.39.01-.17.15-.62-.17-.64-1.8-.1-3.47,0-5.29-.3.17-.73-1.61-.31-1.97-.98.19-.41,5.67-.56,5.54-.59.9.19,1.47-.35,2.21-.55.41-.11,4.08.18,3.37.68Z"/>
          <path class="cls-1" d="M55.94,88.3c.06.5.06,1.01-.01,1.52-3.65-.07-7.29-.02-11.06.2-1.27.07-2.47-.04-3.68-.17-.07-.58.1-1.04.1-1.53l14.65-.02Z"/>
          <path class="cls-1" d="M66.4,87.66l6.8.13-.22,2.29-7.02-.13c-.11-.59.11-1.01.28-1.51-2.59-.27-5.05-.13-7.7-.13l.02-.8,7.84.15Z"/>
          <path class="cls-1" d="M73.14,84.45c-.03.38.12,1.32-.24,1.39-.66.12-1.26-.1-1.84-.12l-11.98-.31c-.17-.58-.02-1-.06-1.43,1.7,0,3.42.01,5.23.09l8.89.38Z"/>
          <path class="cls-1" d="M56.42,83.79c.1.49.09.99,0,1.48-.41.06-.82.15-1.24.12-1.09-.28-11.17-.14-11.3-.17l-.94-.19c-.09-.14-.19-.84.23-.87,4.52-.27,8.88-.47,13.25-.37Z"/>
          <path class="cls-1" d="M47.52,82.63c.74.32,1.85.04,2.62.18,1.7.31,4.85.15,6.45.3,0,.24-.06.47-.18.67-4.37-.1-8.74.1-13.25.37-.42.03-.33.72-.23.87-.45.03-.93.24-1.42-.08.06-.69.23-1.3.19-1.89,1.94-.23,3.91-.05,5.82-.42Z"/>
          <path class="cls-1" d="M65.97,89.94l-7.45-.14.03-1.49c2.66,0,5.11-.14,7.7.13-.17.5-.39.92-.28,1.51Z"/>
          <path class="cls-1" d="M67.68,83.51c1.82.3,3.49.2,5.29.3.32.02.18.47.17.64l-8.89-.38c-1.81-.08-3.53-.1-5.23-.09-.03-.33-.11-.7.22-.71,2.97-.09,5.58.37,8.44.24Z"/>
          <path class="cls-1" d="M50.14,82.81c-.78-.14-1.88.14-2.62-.18-.05-.57.13-1.12.23-1.68.9.04,1.86-.2,2.89.13.34.11.35.91.1,1.1-.3.23-.65.29-.59.62Z"/>
          <path class="cls-1" d="M56.41,85.27c.09-.49.11-.99,0-1.48.12-.2.18-.43.18-.67.21.02.71-.01.86.27.31.62.09,1.33.06,2-.44,0-.76-.17-1.11-.12Z"/>
          <polygon class="cls-1" points="72.99 90.08 73.21 87.79 74.4 87.81 74.36 90.1 72.99 90.08"/>
          <path class="cls-1" d="M57.33,87.63c.4.52.33,1.37.14,2.06-.19.18-.67.08-.87.12-.15-.7-.14-1.43.04-2.12.23.03.46,0,.68-.05Z"/>
          <path class="cls-1" d="M56.64,87.68c-.18.69-.2,1.42-.04,2.12-.21.04-.45.02-.67.02.07-.5.07-1.01.01-1.52.22-.16.26-.43.21-.68l.49.06Z"/>
          <path class="cls-1" d="M87.59,88.4c.09.49.17.97.18,1.55-.34.11-.61.06-.87.06l-.04-1.46c0-.25.55-.12.72-.16Z"/>
          <path class="cls-1" d="M40.57,87.37l-.02.73c-.1-.02-.28.04-.36,0-.19-.11-.14-.39-.11-.55.05-.24.33-.18.5-.17Z"/>
          <path class="cls-1" d="M74.93,84.11c.14.58.13,1.18.16,1.78-.19.14-.52.12-.72.22v-.4c-.03-.57.21-1.25-.29-1.65v-.28c.28.13.62.11.85.33Z"/>
          <circle class="cls-1" cx="75.47" cy="86.3" r=".12"/>
          <path class="cls-1" d="M74.08,84.06c.5.4.26,1.08.28,1.65-.24-.02-.69.1-.86-.17,0,0-.09-1.85.59-1.48Z"/>
        </g>
        <g>
          <path class="cls-1" d="M15.37,77.28c1.11,1.12,2.33,2.22,2.62,3.81.02.12.12.22.2.29l-.03.59c-.21.47-.62.5-1.09.38-.23-.98-.8-1.83-1.3-2.68-.68-1.16-1.62-1.57-2.97-1.31-.8.15-1.76-.35-2.47.12-.17.08-.52-.15-.71-.05,0-.15-.03-.64-.3-.64-.8,0-2.95,1.5-2.63,2.15-.08-.01-.16-.05-.24-.05-.08,0-.15,0-.23,0-.24-.24-.27-.57-.03-.9,2.24-3,6.02-3.39,9.18-1.71Z"/>
          <path class="cls-1" d="M14.18,89.98l-.04.27c-1.64.34-3.49.92-4.79-.23.42-.48-.13-.95-.26-1.48,1.63.82,3.81.42,5.36-.67.02.71-.14,1.41-.26,2.11Z"/>
          <path class="cls-1" d="M6.94,79.98c-1.69,3.19-1.75,4.12.01,7.19.03.44.11,1.05-.44,1.1-1.58-2.03-2.42-4.84-1.23-7.17.45-.34.9-.71,1.17-1.21.08,0,.16.04.24.05l.25.04Z"/>
          <path class="cls-1" d="M7.88,87.93c.13.51.33,1.02.21,1.55-.79-.2-1.13-.65-1.58-1.22.55-.06.47-.67.44-1.1l.93.77Z"/>
          <path class="cls-1" d="M9.09,88.54c.13.53.68,1,.26,1.48-.5.16-.89-.45-1.25-.54.12-.53-.08-1.04-.21-1.55l1.2.61Z"/>
          <path class="cls-1" d="M6.22,79.89c.08,0,.15,0,.23,0-.27.5-.72.87-1.17,1.21.12-.24-.03-.63.16-.85.21-.24.47-.35.78-.36Z"/>
          <path class="cls-1" d="M15.77,79.66c.5.85,1.08,1.7,1.3,2.68.2.85.24,3.07,1.13,2.65-.33,1.48-.93,3.1-2.33,3.82.39-.77-.04-1.57,0-2.4.83-2.44,1.29-3.84-.5-6.02-.02-.31.07-.67.42-.73Z"/>
          <path class="cls-1" d="M15.87,88.82c-.34.63-1.01.97-1.68,1.16.11-.7.28-1.39.26-2.11.51-.36.8-1.15,1.42-1.45-.03.82.4,1.63,0,2.4Z"/>
          <path class="cls-1" d="M18.2,85c-.88.41-.93-1.81-1.13-2.65.46.12.88.09,1.09-.38.55.97.26,2.04.04,3.03Z"/>
          <path class="cls-1" d="M18.19,81.38c-.09-.07-.18-.17-.2-.29.16-.07.21.18.2.29Z"/>
          <path class="cls-1" d="M10.33,78.47c-.38.54-2.4,1.6-1.54,3,.47.77,1.54.66,2.25.58.61-.1.66.44.94.77,0,1.03.03,3.08,1.34,3.34s3.24-2.41,2.24-4.6c-.13-.28.02-.66-.27-.9,0-.09.06-.18.05-.26,1.8,2.18,1.34,3.58.5,6.02-.61.29-.9,1.09-1.42,1.45-1.55,1.09-3.73,1.5-5.36.67l-1.2-.61-.93-.77c-1.76-3.07-1.7-3.99-.01-7.19.79-.57,1.82-1.09,2.69-1.55.19-.1.54.13.71.05Z"/>
          <path class="cls-1" d="M15.77,79.66c-.34.07-.44.42-.42.73,0,.09-.05.18-.05.26-.91-.78-1.74-1.79-3.08-1.93-1.46-.15-2.72,1.01-2.62,1.78.13.97,1.27.76,1.44,1.54-.71.08-1.78.18-2.25-.58-.86-1.4,1.15-2.46,1.54-3,.71-.47,1.67.03,2.47-.12,1.35-.26,2.29.15,2.97,1.31Z"/>
          <path class="cls-1" d="M9.62,78.42c-.86.46-1.89.98-2.69,1.55l-.25-.04c-.31-.65,1.83-2.15,2.63-2.15.27,0,.3.49.3.64Z"/>
          <path class="cls-1" d="M15.3,80.66c.29.25.14.62.27.9-.54.17.39,2.46-1.43,3.15-.65.25-1.41-.25-1.4-.9.01-.72-.52-.71-.75-.99-.27-.32-.33-.87-.94-.77-.17-.78-1.32-.57-1.44-1.54-.1-.77,1.16-1.94,2.62-1.78,1.34.14,2.16,1.15,3.08,1.93ZM13.02,82.74c.25.39.78.64,1.13.45.26-.13.65-.46.71-.91.21-1.72-1.36-3.2-3.08-3.06-.59.05-.97.41-1.01.85-.1,1.12,1.36,1.27,2.25,2.66Z"/>
          <path class="cls-1" d="M11.99,82.82c.24.28.77.27.75.99-.01.64.74,1.15,1.4.9,1.82-.7.9-2.98,1.43-3.15,1,2.18-.97,4.84-2.24,4.6s-1.35-2.3-1.34-3.34Z"/>
          <path class="cls-1" d="M13.02,82.74c-.89-1.4-2.35-1.55-2.25-2.66.04-.44.42-.8,1.01-.85,1.71-.15,3.29,1.34,3.08,3.06-.06.45-.45.78-.71.91-.35.18-.88-.07-1.13-.45Z"/>
        </g>
      </g>
    </g>
  </g>
</svg>