<?xml version="1.0" encoding="UTF-8"?>
<svg id="Layer_2" data-name="Layer 2" xmlns="http://www.w3.org/2000/svg" viewBox="0 0 153.86 152.68">
  <defs>
    <style>
      .cls-1, .cls-2 {
        fill: #6cbe45;
      }

      .cls-2, .cls-3 {
        opacity: .7;
      }
    </style>
  </defs>
  <g id="Layer_1-2" data-name="Layer 1">
    <path class="cls-2" d="M77.93.26c-.37.24-.69.55-.95.92-.27-.08-.51.19-.75.21-.84.09-1.41.91-1.48,1.76-.34-.1-.47.34-.68.43-1.21.49-.37.69-1.19,1.95l-.05.7c-.4.2-.32.65-.26.98.21,1.03,1.43,1,1.73,1.41.09.12.08.43.21.55.03.73.6,1.17,1.27,1.33.46.11,1.08.32,1.27.73-.1.9-.2,1.86.18,2.69-.06.8-.7,1.4-.91,2.24-.29,1.14-.02,2.14,1.22,2.43l.81,1.81c2.71,6.04-.07,1.03,1.35,7.25-.96.86,1.02,3.38,2.51,3.55.05.18.04.4-.23.5-2.96,1.1-5.93,1.92-8.63,3.33-.38-.2-.97.44-1.35.53-1.01.24-.8.96-.85,1.63-.08,1.18.01,2.33.15,3.64l1.78,16.51c.03.33-.06.67.02,1-1.42,1.06-3.12,1.58-4.76,2.5-3.08,1.73-5.63,4.17-7.78,7.02l-6.69,8.88c-.59.78-1.11,1.61-1.26,2.47-.02.09-.14.16-.17.25-1.33-.01-2.66-.17-4.06.34-.84-1.02-1.57-1.93-2.62-2.45-1.65-.82-3.2-.09-3.82,1.41-.47,1.15-1.15,2.27-1.03,3.56-1.3.42-2.91,2.37-4.82,2.64-2.61.37-5.14-.09-7.75-.08-1.55.95-2.81,2.25-3.66,3.72-5.8-.29-11.59-.81-17.48-.38-2.19.16-3.92.79-5.68,2.01-.61.43-.68.72-.97,1.23-.44.77-.41,1.5-.46,2.4l-.08,1.4c-.5,8.82,5.78,30.49,8.93,39.34.43,1.22.63,2.59,1.39,3.79.62.99,11.7,2.21,13.29,2.45l19.26,2.89,20.34,3.53c.41.07.69.04,1.09.18,2.33.81,4.82.87,7.12,1.36l16.74,3.6c.8.17,1.82.5,2.51.06l4.99-3.2c.32-.2.54-.44.66-.7.48-.07.87-.3,1.35-.68l27.19-18.8c6.91-4.78,13.89-9.46,20.94-13.8l1.2-29.37c.65-16,3.45-31.86,6.67-47.66.28-1.35.26-2.15-1.01-2.95-5.34-3.33-17.52-5.99-23.85-7.05.02-.21-.13-.48-.05-.68l1.7-4.18c1.2-.29,2.66-1.06,2.77-2.2.08-.78.06-1.67-.63-2.02l.39-1.69,1.96.26c.79.11,1.3-.38,1.78-.73.61-.45.25-1.5.73-1.96s1.55-.29,1.66-1.12c.08-.6.04-1.39-.61-1.68.23-.33-.06-.89.1-1.21.43-.86-.51-1.19-.77-1.81-.4-.95-.52-1.95-1.91-1.98-.68-.01-1.02-.46-1.13-1.18-.16-1.01-3.28-.56-4.38,2.49-.54,1.51-1.26,2.88-1.49,4.37-.82.31-3.02-.31-3.56.93-.38.87-.24,1.89-.08,2.74-.7.37-1.18,1.35-1.39,2.15l-4.21,7.01c-.3.5-1.12.57-1.28,1.11-.67.3-1.21.95-1.66,1.49l-.46-.12c1.3-1.12,2.02-2.52,1.52-4.21,2.32-3.61,3.79-6.72.31-10.3.99-.48,1.46-.08,2.05-.56-.61-.91-1.62-1.14-2.54-1.7.15-.6.72-.99.53-1.73-1.22.11-1.82,1.08-2.73,1.84-1.79-2.46-2.87-3.31-4.52-6.11-.45.6.04,1.12-.2,1.76-9.19-4.8-12.75-.17-15.2.56l-3.44,1.02c-1.8.53-.98,2.13-1.22,3.29-.59,2.85-.78,5.64.5,8.3-.19.04-.35.17-.53.26-1.6.76,0,4.58-1.48,4.24-.58-1.71-2.04-3.03-3.38-4.23.02-.09-.05-.19-.04-.28.13-.36.26-.77.1-1.23-.7-1.97-1.5-3.82-2.11-5.82-.18-.59.35-1.33-.03-1.88-.31-.45-1.1-.22-1.47-.7-.29-.62-.61-1.75-1.4-1.62-.29-1.08,1.62-2.14,1.59-3.63-.02-.75-.86-.99-1.35-1.22.02-.16-.11-.32-.12-.48-.07-1.17-.59-2.35-1.38-3.32-.51-.63-1.33-.58-1.87-.23Z"/>
    <g class="cls-3">
      <g>
        <g>
          <path class="cls-1" d="M85.34,73.4c-.05.03-6.47,5.18-8.45,6.3-.88.5-1.61,1.07-2.39,1.89-.89.94-2.35,1.13-3.3,2.48,2.01,1.03,3.96,1.89,5.46,3.26.08.3.12.76.47,1.01,1.49,1.07,2.72,2.35,4.12,3.52,1.48,1.23,7.31,4.5,9.21,5.45.59.29,1.29.33,1.6.85-5.65-1.17-11.31-2.31-17.02-3.14l-2.06-1.07c-.57-.3-.3-1.04-.07-1.43,1.31-2.24,5.07,1.83,7.08,1.99-.09-.96-.9-1.25-1.38-1.69-.64-.6-.88-1.62-1.68-2.08-1.01-1.58-2.3-3.09-3.71-4.41-2.2-2.06-5.34-1.82-7.25.36-.73.83-1.58,1.52-1.8,2.55-.18.04-.42.09-.61.31-1.36,1.57-3.13,2.82-5.12,3.11l-14.85-2.01c-.27-.39-.73-.66-.78-1.06-.08-.65.37-1.07.87-1.62-.36-.57-3.85-3.33-2.46-4.06,1.27,1.4,2.74,2.61,4.08,3.83,2.09,1.89,9.52,2.66,12.21,1.37-1.14-.28-2.01.61-2.91-.04,1.56-.16,2.86-.29,4.16-1.1-2.39-.44-4.55-1.1-6.5-2.32-.56-.97-1.49-1.79-2.2-2.65-.53-.64-.7-1.67-1.17-2.36.22-.05.24-.29.25-.48l.9.17.06.7c0,.11-.05.24,0,.39.05.17.29.18.46.15.16.67.85.95,1.21,1.41.54.69,1.12,1.22,2.09,1.55,1.83.62,3.59,1.4,5.55,1.57-.06-2.48.91-1.31.97-2.61.15.02.46-.04.67-.16.12-.07.29-.26-.02-.51-.79-.1-1.84-.34-2.56-.07-.29-.12-.68-.09-.97-.21l-3.17-1.35c-.47-.2-.74-.69-1.17-.83-.17-.35-.64-.52-.7-.92.03-.09.15-.16.17-.25.16.04.37-.05.52,0,.74.29,1.54.68,2.31,1.06,1.22.6,2.25.5,3.51.69,2.67.4,5.31,1.07,8.04.52,5.95-1.21,9.46-3.18,14.41-6.6.81-.56,3.34-2.14,3.92-1.46Z"/>
          <path class="cls-1" d="M43.87,78.21c-.59,1.9-.13,6.18,1.25,7.85.96,1.16,2.49,1.7,3.88,2.04.78-.67,1.09-2.14,1.67-2.19.4-.03.77.65,1.4.41.18-.07.17-.44.2-.66,1.95,1.22,4.11,1.88,6.5,2.32-1.3.82-2.6.95-4.16,1.1.9.65,1.77-.24,2.91.04-2.69,1.28-10.12.52-12.21-1.37-1.34-1.21-2.81-2.43-4.08-3.83-1.39.72,2.1,3.48,2.46,4.06-.5.55-.95.97-.87,1.62.05.4.52.67.78,1.06l-7.91-.95c-1.41-.76.43-2.31.24-3.62,1.43-.32,5.18-1.91,5.01-3.78-.12-1.3.56-2.42,1.03-3.56.7-.15,1.15-.61,1.91-.53Z"/>
          <path class="cls-1" d="M73.79,58.25c.32.03.64.1.96.08l3.1,1.91c.29.18.48.52.72.75-2.74-.55-3.55-2.92-5.58-.56-.28-.07-.56.02-.84.02-1.28.02-5.43,3.1-6.73,4.32-1.03.97-2.31,1.68-3.21,2.8l-4.07,5.08-2.4,3.85c-.62.07-.84.64-1.19,1.03s-.74.72-.84,1.28c-.22.07-.44.19-.57.39-.15-.06-.36.04-.52,0,.15-.86.67-1.68,1.26-2.47l6.69-8.88c2.15-2.85,4.69-5.29,7.78-7.02,1.64-.92,3.35-1.44,4.76-2.5.22,0,.45-.1.68-.08Z"/>
          <path class="cls-1" d="M40.93,82.3c.17,1.87-3.57,3.47-5.01,3.78-2.94.65-8.08-.53-9.6,2.69-.49-.05-1.16-.17-1.62-.2.85-1.46,2.11-2.77,3.66-3.72,2.61,0,5.14.45,7.75.08,1.91-.27,3.52-2.22,4.82-2.64Z"/>
          <path class="cls-1" d="M52.46,79.44c.06.41.53.58.7.92.72,1.51,3.75,2.82,4.33,2.18.29.12.68.09.97.21-4.02,1.5-5.89-1.91-8.43-2.4l-.9-.17c-.1-.02-.24-.08-.39-.04-.1.03-.16.19-.13.35.02.09.22.08.27.16.47.69.64,1.71,1.17,2.36.22.21,0,1.34-.51,1.01-1.2-.79-1.82-2.29-2.48-3.47-1.99-3.54-3.31-2.36-3.19-2.35-.76-.08-1.21.38-1.91.53.62-1.5,2.17-2.23,3.82-1.41,1.05.52,1.78,1.44,2.62,2.45,1.4-.51,2.72-.35,4.06-.34Z"/>
          <path class="cls-1" d="M101.65,107.71c.23,1.1.9,7.72,1.96,8.11,5.59-5.22,5.07-1.31,7.69-4.32.71.59.23,3.49,1.06,3.87-.05.73-.18,1.55-.56,2.28-.35.68-.17,1.31-.31,1.89-.75,3.29-1.21,6.61-1.11,10.1-4.01,1.94-9.76,3.53-13.93,2.34.53-9.94,1.23-19.92,2.64-29.77.02.03.1.04.24.02.94,1.75,1.9,3.55,2.3,5.47Z"/>
          <path class="cls-1" d="M87.98,66.47h.96c.21.38.93.36,1.2.06.53.04,1.09.11,1.62.1,3.83-.05,7.54.66,11.19,2.03,3,1.13,4.96,2.91,6.13,5.72.75,1.78.62,6.2.25,7.92-.2.96-.01,2.08.48,2.88.18.29.48.36.79.47.22.08.41.45.65.47-.64,2.05.32,4.46,2.41,5.06.49.14.84.54,1.39.52-.68.24,3.6,1.61,3.91,1.65.43.05.9.62,1.39.51.91,1.09,2.46,1.63,3.24,2.94,1.45,2.43,1.53,6.07,2.65,5.92,2.24-.3.25-4.03,1.54-4.06,0,.07,0,.13.02.2.03.12.05.36.22.27.1,1.71.65,3.67-.16,5.37-1.85,3.87-7.45,3.16-7.01,5.82.13.82,1.14,1.38,1.07,2.26-.12,1.59-1.13,2.96-2.32,4.02-1.93,1.72-4.46,2.25-6.89,2.69l-.26.05h-.48c.51-4.76,2.48-5.84.75-11.36-.46-1.48-1.35-1.92-2.44-2.92-1.15-1.06-2.23-2.24-3.78-3.16-.59-.35-3.91-2.9-4.78-3.02.04-.25-.17-.41-.46-.55l-1.33-.64c-.58-.28-1.17-.67-1.81-.78-.17-.86-2.43-1.31-2.77-2.31,3.56.48,10.92,5.63,14.17,7.93,2.24,1.59,3.98,3.51,5.57,5.69.21.29.86-.21.73-.36-.09-.11-.01-.66.12-.71,2.27-.93,1.32-2.95,3-.87-.48-1.89-1.56-3.72-2.68-5.46-.57-.88-1.31-1.59-1.68-2.68,2.07.79,3.27,2.46,4.16,4.31l2.87,5.94c.47-.9-.1-1.74.42-2.3.1-.1.27-.2.27-.47v-3.6c0-1.61-.11-3.05-.72-4.38-.52-1.12-1.59-1.36-2.45-1.9-3.16-1.98-6.03-2.32-9.26-4.33-.77-1.46-1.55-2.69-1.56-4.52-.02-3.03,1.13-3.93.73-8.91-.23-2.91-1.41-5.83-3.74-7.7-1-.8-2.59-.77-3.68-1.35-.17-.09-.45-.05-.64-.09.13-.13.05-.23-.05-.31-.17-.14-.36-.09-.53-.1-.8-.06-1.54-.4-2.34-.5-.37-.65-6.71-.59-7.22-.48-2.21.46-4.3,1.2-6.24,2.09-1.39.26-2.71.43-4.08,0-.3-.44-3.52-1.22-3.11-2.34,1.32.44,2.43,1.4,3.85,1.4,1.18,0,4.8-.59,5.23-1.54.17-.38-1.95-.49-2.31-1.36,1.57.21,1.89.79,3.77.79Z"/>
          <path class="cls-1" d="M124.92,92.38c.13.21.3.55.48.73.2,1.32,1.1,2.42,1.52,3.79.16.53.37,1.11.83,1.27-.01.16.04.32.04.48-1.29.02.69,3.76-1.54,4.06-1.12.15-1.2-3.49-2.65-5.92-.79-1.31-2.34-1.85-3.24-2.94.35-.11.88-.56.78-1,1.41-.68,1.51-.57,2.89-1.2.3-.03.75.48.9.72Z"/>
          <path class="cls-1" d="M126.88,94.06c-.09.24.12.5.14.71.13,1.18.84,2.22.73,3.41-.46-.16-.67-.74-.83-1.27-.41-1.38-1.32-2.48-1.52-3.79.08-.01.12-.06,0,0-.18-.19-.36-.52-.48-.73.2.03.4-.04.45-.17.08-.22.1-.45.12-.62.71.69.75,1.74,1.39,2.47Z"/>
          <path class="cls-1" d="M111.98,119.33c-.02.19-.34.34-.48.21.13-.58-.04-1.21.31-1.89.38-.73.51-1.55.56-2.28.97-2.15.51-5.19.37-7.41,1.72,5.52-.24,6.6-.75,11.37Z"/>
          <path class="cls-1" d="M128.03,99.13c-.17.1-.19-.15-.22-.27.2-.12.22.15.22.27Z"/>
          <path class="cls-1" d="M73,60.43c1.74,2.13,2.73,4.74,5.64,5.3.59.11,1.72-.8,1.57-1.3-.3-.81-1.43-1.11-1.6-2.07.71.33,1.29.66,1.87.98,1.11.64,2.03,1.72,3.36,1.73.05.19.18.33.35.41,0,.06,0,.14.02.19.36.88,2.48.99,2.31,1.36-.43.94-4.05,1.54-5.23,1.54-1.42,0-2.53-.96-3.85-1.4-.41,1.13,2.81,1.9,3.11,2.34.43.57.9.49,1.64.58,1.12.13,1.69-.23,2.43-.57,1.94-.89,4.03-1.63,6.24-2.09.51-.11,6.86-.17,7.22.48-2.64.53-3.73-.17-7.28.61-.46.1-1.4.77-1.09,1.17.49.63,1.47.3,2.12.38l5.13.66c2.51.32,4.65,1.28,6.67,3.11.02-.63.63-1.23.58-1.65-.21-1.71-2.6-2.62-2.58-3.28,1.09.57,2.67.54,3.68,1.35,2.33,1.87,3.51,4.79,3.74,7.7.4,4.97-.75,5.88-.73,8.91.01,1.83.8,3.05,1.56,4.52.29.55.13,1.1.93,1.49-.07.45-.54.73-1.05,1.06.56,1.63,2.24,2.16,3.59,3.04.94.61,1.91,1.03,2.73.15.36.04.75,0,1.12-.28,1.26-.92,2-.35,1.94-1.14.87.54,1.94.78,2.45,1.9.36,1.39.13,2.85.25,4.39.12,1.41.33,2.74.19,4.06-.52.56.05,1.39-.42,2.3l-2.87-5.94c-.89-1.84-2.09-3.52-4.16-4.31.37,1.1,1.11,1.8,1.68,2.68,1.12,1.74,2.2,3.58,2.68,5.46-1.69-2.07-.74-.05-3,.87-.13.05-.21.61-.12.71.13.15-.52.65-.73.36-1.6-2.18-3.33-4.1-5.57-5.69-3.26-2.31-10.61-7.46-14.17-7.93.34.99,2.6,1.45,2.77,2.31-.07,1.64-.96.92-.33,2.71-1.95-.28-3.81-1.03-5.74-1.43-.31-.53-1.01-.56-1.6-.85-1.9-.95-7.73-4.23-9.21-5.45-1.4-1.16-2.63-2.44-4.12-3.52-.35-.25-.4-.72-.47-1.01.93.2,4.05,3.91,4.62,2.95.97-1.62.14-2.22,3.62-2.81-.09-1.15-2.52-4.21-1.51-4.98,3.2,1.81,2.28,3.83,4.86,5.57.75.51,1.24,1.31,2.13,1.72,1.18.54,2.9.17,3.5-1.1.33-.69,0-1.86-.46-2.43-1.03-1.27-1.32-2.85-2.18-4.1-2.1-3.03-7.51-3.16-7.05-4.27.09-.22.57-.52.93-.46,4.33.81,7.93,3.25,10.83,6.57.38.44,1.4.03,1.76-.25.46-.35.62-1.21.51-1.8l-.64-3.52c-.24-1.29.73-2.38,1.59-3.02,1.04-.77,2.17-.42,3.47-.43-1.02-1.96-2.75-2.99-4.56-3.5-4.49-1.27-8.7-.16-12.73,1.92-.58-.68-3.11.9-3.92,1.46-4.95,3.42-8.46,5.39-14.41,6.6-2.74.56-5.37-.11-8.04-.52-1.26-.19-2.29-.08-3.51-.69-.77-.38-1.57-.77-2.31-1.06.13-.2.35-.31.57-.39.16-.19,2.35,1.37,2.06.27-.05-.2-1.14-.64-1.22-1.55.35-.39.57-.96,1.19-1.03.76.99,5.85,3.03,7.21,2.32s2.64-2.53,3.18-3.79c.66-1.52,1.13-2.26,2.83-2.49,1.08-.15,2.03-1.41,3-1.87s1.28-1.17,1.61-2.09c.45-1.22,4.29-.15,2.62-1.86-2.02-2.07-2.92-3.82-4.05-6.28.28,0,.56-.09.84-.02ZM107.9,90.94c-1.14-3.99-.16-6.33-2.78-13.05-.39-1.01-.74-2.09-1.97-2.58,3.01,5.75.79,11.07,2.06,16.73.37,1.64,1.72,2.9,3,3.99.32.27,1.12-.23,1.29-.6.62-1.38-.64-1.17-1.59-4.48ZM113.26,101.53l.16-.03c.16.49.55,1.29,1.18,1.34,1.16.09.87-2.2-.24-3.26-1.01-.97-2.26-1.57-3.53-2.13l-2.1-.93c-1.25-.55-2.02,1.4-2,1.47.06.19.24.47.47.62,1.85,1.21,3.47,2.53,4.92,4.19.22.25.67.18.82.05.47-.41-.02-.99.31-1.33Z"/>
          <path class="cls-1" d="M76.93,90.74c.79.45,1.04,1.48,1.68,2.08-1.13.85-1.44-.93-5.93-1.93-2.95-.66-5.8.32-7.47,2.72l-6.76-.94c1.98-.29,3.76-1.54,5.12-3.11.19-.22.43-.27.61-.31.88,2.3,1.94-4.56,7.1-2.44,3.56,1.46,5.22,5.59,5.67,3.94Z"/>
          <path class="cls-1" d="M99.94,97.67c-.02.52.68.52.75.99-.16.09-.32.54-.03.72l4.63,2.97c1.13.73,2.25,1.16,3.12,2.01.49.97-2.21,1.25-4.25,2.25-1.19.58-.87,1.74-2.5,1.09-.4-1.92-1.36-3.72-2.3-5.47-.14.01-.22,0-.24-.02.08-.57.13-1.14.15-1.88l-1.47-.73c-.63-1.79.26-1.07.33-2.71.65.11,1.23.5,1.81.78Z"/>
          <path class="cls-1" d="M78.61,92.82c.48.45,1.29.73,1.38,1.69-2-.16-5.77-4.23-7.08-1.99-.23.39-.51,1.14.07,1.43l2.06,1.07-9.84-1.43c1.67-2.4,4.52-3.38,7.47-2.72,4.49,1,4.8,2.78,5.93,1.93Z"/>
          <path class="cls-1" d="M35.92,86.08c.19,1.31-1.65,2.86-.24,3.62l-9.36-.93c1.52-3.22,6.66-2.05,9.6-2.69Z"/>
          <path class="cls-1" d="M76.66,87.34c-1.5-1.38-3.45-2.24-5.46-3.26.96-1.36,2.41-1.55,3.3-2.48.78-.82,1.51-1.39,2.39-1.89.15.69-1.58.7-1.04,1.7,1.37-.62,2.41-1.57,3.67-2.05,1.08-.41,1.99-.72,2.92-1.41,1.59-1.19,3.37-2.12,4.72-3.64.39-.43.52-.91,1.2-1.08,2.6-.64,5.27-1.03,7.98-.72.89.1,1.66.67,2.54.38-.35-.69-.73-.94-.81-1.41,1.81.51,3.54,1.55,4.56,3.5-1.3,0-2.43-.35-3.47.43-.86.64-1.82,1.73-1.59,3.02l.64,3.52c.11.59-.05,1.45-.51,1.8-.37.28-1.38.68-1.76.25-2.9-3.32-6.5-5.76-10.83-6.57-.36-.07-.84.24-.93.46-.46,1.11,4.96,1.24,7.05,4.27.86,1.24,1.15,2.83,2.18,4.1.46.57.78,1.74.46,2.43-.6,1.28-2.33,1.64-3.5,1.1-.89-.41-1.38-1.22-2.13-1.72-2.58-1.74-1.66-3.76-4.86-5.57-1.01.77,1.42,3.83,1.51,4.98-3.48.6-2.66,1.19-3.62,2.81-.57.96-3.69-2.75-4.62-2.95Z"/>
          <path class="cls-1" d="M50.06,83.02c.71.86,1.65,1.69,2.2,2.65-.02.22-.01.59-.2.66-.62.24-1-.44-1.4-.41-.59.04-.89,1.51-1.67,2.19-1.38-.34-2.92-.88-3.88-2.04-1.38-1.67-1.84-5.96-1.25-7.85-.12-.01,1.2-1.19,3.19,2.35.66,1.18,1.28,2.68,2.48,3.47.5.33.74-.8.51-1.01Z"/>
          <path class="cls-1" d="M98.08,71.47c.08.47.46.72.81,1.41-.88.29-1.64-.28-2.54-.38-2.71-.3-5.38.09-7.98.72-.68.17-.82.64-1.2,1.08-1.35,1.52-3.13,2.45-4.72,3.64-.93.69-1.84,1-2.92,1.41-1.27.48-2.3,1.43-3.67,2.05-.55-1,1.19-1.01,1.04-1.7,1.98-1.12,8.4-6.27,8.45-6.3,4.03-2.08,8.24-3.19,12.73-1.92Z"/>
          <path class="cls-1" d="M76.93,90.74c-.45,1.65-2.11-2.48-5.67-3.94-5.16-2.12-6.22,4.74-7.1,2.44.22-1.04,1.07-1.72,1.8-2.55,1.91-2.18,5.05-2.42,7.25-.36,1.41,1.32,2.7,2.83,3.71,4.41Z"/>
          <path class="cls-1" d="M58.46,82.76c.72-.27,1.77-.03,2.56.07.31.25.14.44.02.51-.21.12-.52.18-.67.16-.3-.04-.58.08-.78.41-1.11,1.79-5.19.14-6.67-.63-.41-.21-.78-.34-1.16-.28-.35-.46-1.05-.74-1.21-1.41-.04-.15-.02-.34-.16-.49-.08-.08-.18-.13-.3-.05l-.06-.7c2.54.49,4.4,3.91,8.43,2.4Z"/>
          <path class="cls-1" d="M60.38,83.5c-.05,1.31-1.02.14-.97,2.61-1.97-.17-3.72-.95-5.55-1.57-.97-.33-1.56-.85-2.09-1.55.38-.06.75.07,1.16.28,1.48.77,5.56,2.42,6.67.63.2-.33.48-.45.78-.41Z"/>
          <path class="cls-1" d="M57.49,82.55c-.59.64-3.61-.67-4.33-2.18.43.14.69.62,1.17.83l3.17,1.35Z"/>
          <path class="cls-1" d="M49.14,80.18c0,.19-.03.43-.25.48-.06-.08-.26-.07-.27-.16-.03-.17.03-.33.13-.35.15-.04.29.02.39.04Z"/>
          <path class="cls-1" d="M50.56,81.59c-.17.03-.41.02-.46-.15-.04-.14.01-.28,0-.39.12-.08.22-.03.3.05.14.15.12.34.16.49Z"/>
          <path class="cls-1" d="M72.15,60.45c1.13,2.46,2.04,4.21,4.05,6.28,1.67,1.71-2.18.64-2.62,1.86-.34.92-.61,1.61-1.61,2.09s-1.92,1.72-3,1.87c-1.7.23-2.17.98-2.83,2.49-.54,1.26-1.89,3.12-3.18,3.79-1.35.7-6.45-1.33-7.21-2.32l2.4-3.85,4.07-5.08c.9-1.13,2.18-1.83,3.21-2.8,1.29-1.22,5.44-4.3,6.73-4.32Z"/>
          <path class="cls-1" d="M78.58,60.99c.26.05.47.38.75.42.08.09.13.22.23.29.08.06.16.18.25.21-.05.6.63.86.67,1.43-.57-.33-1.16-.65-1.87-.98.17.97,1.29,1.26,1.6,2.07.14.5-.98,1.42-1.57,1.3-2.91-.57-3.9-3.17-5.64-5.3,2.03-2.36,2.84.01,5.58.56Z"/>
          <path class="cls-1" d="M53.72,78.81c.1-.56.5-.9.84-1.28.08.91,1.16,1.34,1.22,1.55.29,1.1-1.9-.45-2.06-.27Z"/>
          <path class="cls-1" d="M128,88.28c.72,1.98.37,4.24-1.12,5.79-.64-.73-.69-1.78-1.39-2.47-.43-.42-.54-1.13-1.21-1.36-.26-.09-.4-.62-.92-.72-.81-.16-1.58-.29-2.31-.64,1.41-.47,2.58.21,3.85.6.92-1.3-.92-2.27-1.14-2.93,1.56.03,2.92.95,4.24,1.73Z"/>
          <path class="cls-1" d="M123.46,85.42c.66.11,1.57.26,2.18.53,1.12.49,1.97,1.26,2.36,2.34-1.32-.78-2.69-1.7-4.24-1.73-.15,0-.32-.22-.5-.18-.07.02-.17,0-.24,0-.73-.14-3.05-.15-4.06-.16l-4.11-.07c-.53,0-.89.18-1.26.26-.8.17-1.54-.34-2.34-.27-.24-.02-.44-.39-.65-.47l-.02-.22c2.38.09,11.98-.17,12.87-.01Z"/>
          <path class="cls-1" d="M110.59,85.43l.02.22c-.3-.11-.61-.17-.79-.47.27-.03.52.23.76.24Z"/>
          <path class="cls-1" d="M110.3,105.04c1.09,1,1.98,1.44,2.44,2.92.14,2.22.61,5.26-.37,7.41-.83-.38-.35-3.28-1.06-3.87-2.63,3-2.1-.9-7.69,4.32-1.06-.4-1.74-7.01-1.96-8.11,1.64.64,1.32-.51,2.5-1.09,2.04-1,4.75-1.28,4.25-2.25.53.52,1.58.73,2.13,1.78.31-.57-.25-.71-.24-1.1ZM111.77,107.03c0-.08-.07-.15-.15-.15s-.15.07-.15.15.07.15.15.15.15-.07.15-.15Z"/>
          <path class="cls-1" d="M113.59,86.39c-.58,1.33,8.52,1.86,9.24,1.78-1.42-.78-3.01-.84-3.87-1.97,1.01.02,3.33.02,4.06.16-.02.3.25.31.24,0,.18-.05.35.18.5.18.22.66,2.06,1.63,1.14,2.93-1.27-.4-2.44-1.07-3.85-.6.73.35,1.5.48,2.31.64.52.1.66.63.92.72-4.36-1.14-5.61.17-10.38-1.23-.34-.1-.54.3-.63.51-.32.75.18,1.04.4,1.66-2.08-.6-3.04-3-2.41-5.06.79-.07,1.54.44,2.34.27Z"/>
          <path class="cls-1" d="M113.9,89.01c2.14,2.19,7.68.59,9.3,2.3-1.09.14-2.28.57-2.07,1.55.09.43-.44.89-.78,1-.49.1-.95-.46-1.39-.51.11-.22-.14-.5-.45-.55-1.29-.19-2.25-1.14-3.46-1.1-.55.02-.9-.38-1.39-.52-.22-.62-.71-.91-.4-1.66.09-.21.29-.61.63-.51Z"/>
          <path class="cls-1" d="M119.14,95.71c.06.79-.69.23-1.94,1.14-.37.27-.76.32-1.12.28-.07-.54.09-.99.34-1.78-2.12-.47-3.8-1.57-5.61-2.47-.8-.4-.65-.95-.93-1.49,3.23,2.01,6.1,2.34,9.26,4.33Z"/>
          <path class="cls-1" d="M101.73,98.86c.87.13,4.2,2.68,4.78,3.02,1.55.92,2.63,2.1,3.78,3.16,0,.39.55.53.24,1.1-.55-1.04-1.6-1.26-2.13-1.78-.87-.85-1.98-1.28-3.12-2.01l-4.63-2.97c-.29-.18-.13-.64.03-.72.35.03.69.15,1.03.2Z"/>
          <path class="cls-1" d="M122.04,106.06c.14-1.33-.08-2.65-.19-4.06-.13-1.54.11-3-.25-4.39.61,1.33.71,2.77.71,4.38v3.6c0,.27-.17.37-.27.47Z"/>
          <path class="cls-1" d="M118.96,93.35c-.31-.04-4.59-1.4-3.91-1.65,1.21-.04,2.17.91,3.46,1.1.3.05.56.33.45.55Z"/>
          <path class="cls-1" d="M101.73,98.86c-.35-.05-.68-.17-1.03-.2-.08-.48-.77-.47-.75-.99l1.33.64c.29.14.5.3.46.55Z"/>
          <path class="cls-1" d="M124.28,90.24c.67.23.79.94,1.21,1.36-.02.17-.04.39-.12.62-.05.14-.25.21-.45.17-.15-.24-.59-.74-.9-.72-1.39.62-1.49.51-2.89,1.2-.21-.98.98-1.41,2.07-1.55-1.62-1.71-7.16-.11-9.3-2.3,4.76,1.4,6.02.09,10.38,1.23Z"/>
          <path class="cls-1" d="M125.4,93.12c.06-.03.08-.03.08-.03s-.04.02-.08.03Z"/>
          <path class="cls-1" d="M107.9,90.94c.95,3.32,2.22,3.11,1.59,4.48-.17.37-.97.87-1.29.6-1.27-1.09-2.63-2.34-3-3.99-1.27-5.66.95-10.98-2.06-16.73,1.23.49,1.58,1.57,1.97,2.58,2.62,6.73,1.64,9.07,2.78,13.05Z"/>
          <path class="cls-1" d="M100.42,68.42c-.12.13-.04.23.05.32.17.17.37.05.53.09.19.05.46,0,.64.09-.02.66,2.37,1.57,2.58,3.28.05.42-.56,1.02-.58,1.65-2.02-1.84-4.16-2.79-6.67-3.11l-5.13-.66c-.64-.08-1.63.25-2.12-.38-.31-.4.62-1.07,1.09-1.17,3.56-.78,4.64-.08,7.28-.61.79.1,1.54.44,2.34.5Z"/>
          <path class="cls-1" d="M110.84,97.46c-.98,1.34,2.31,2.46,2.42,4.07-.34.34.16.92-.31,1.33-.15.13-.6.19-.82-.05-1.45-1.66-3.08-2.98-4.92-4.19-.23-.15-.41-.43-.47-.62-.02-.07.75-2.02,2-1.47l2.1.93Z"/>
          <path class="cls-1" d="M116.08,97.14c-.82.88-1.79.46-2.73-.15-1.36-.88-3.04-1.4-3.59-3.04.52-.33.99-.62,1.05-1.06,1.81.9,3.49,2,5.61,2.47-.25.79-.41,1.24-.34,1.78Z"/>
          <path class="cls-1" d="M114.36,99.59l.35,1.83c.1.53-.95.15-1.29.09l-.16.03c-.11-1.61-3.4-2.73-2.42-4.07,1.27.56,2.52,1.16,3.53,2.13Z"/>
          <path class="cls-1" d="M81.57,63.12s2.61,1.93,2.27,1.95c-1.33,0-2.24-1.1-3.36-1.73-.05-.57-.72-.83-.67-1.43.7.23,1.1.91,1.76,1.21Z"/>
          <path class="cls-1" d="M113.42,101.51c.34.06,1.4.44,1.29-.09l-.35-1.83c1.11,1.07,1.4,3.35.24,3.26-.63-.05-1.02-.85-1.18-1.34Z"/>
          <path class="cls-1" d="M84.62,69.53c-.75.34-1.31.71-2.43.57-.75-.09-1.21-.01-1.64-.58,1.37.44,2.68.26,4.08,0Z"/>
          <path class="cls-1" d="M84.19,65.48c-.17-.08-.3-.23-.35-.41.13.1.33.21.35.41Z"/>
          <path class="cls-1" d="M118.96,86.2c.86,1.13,2.45,1.19,3.87,1.97-.72.08-9.81-.45-9.24-1.78.37-.08.73-.27,1.26-.26l4.11.07Z"/>
          <path class="cls-1" d="M123.02,86.36c.07.01.17.02.24,0,.01.31-.26.29-.24,0Z"/>
          <circle class="cls-1" cx="111.62" cy="107.03" r=".15"/>
          <path class="cls-1" d="M100.99,68.83c-.16-.04-.36.08-.53-.09-.09-.09-.16-.19-.05-.32.16.01.35-.05.53.1.1.08.18.18.05.31Z"/>
        </g>
        <g>
          <path class="cls-1" d="M117.86,24.03l-.83-.47c-.23-.26-.57-.43-.7-.76l.73-.92c.25-.31.18-.63-.05-.82-.02-.71.55-1.22.64-2.01.2.09.3.37.51.36.35-1.3-.13-2.45.02-3.57.27-2.04-1.49-2.91-2.94-4.03-3.3-2.55-6.63-4.99-10.99-5.28-.08,0-2.66.14-2.13.59-2.36-.18-2.76,1.49-6.02,1.54-1.34.02-2.82.35-3.62,1.79,1.18.19,2.12-.59,3.15-.62l.71-.02c-.04.16-.1.32-.17.47-1.63.49-3.3.9-3.89,2.23-.01.03-.74.7-.62,2.63.1-.76,2.15-1.6,3.02-1.5.24.64-2.08,2.28-2.11,3.43l-.16,5.43-1.01-2.1c-1.28-2.66-1.09-5.45-.5-8.3.24-1.15-.57-2.76,1.22-3.29l3.44-1.02c2.45-.72,6.01-5.36,15.2-.56.24-.64-.24-1.16.2-1.76,1.65,2.8,2.74,3.65,4.52,6.11.91-.76,1.52-1.73,2.73-1.84.19.74-.38,1.12-.53,1.73.92.56,1.93.78,2.54,1.7-.59.47-1.07.08-2.05.56,3.48,3.58,2.01,6.69-.31,10.3ZM118.22,13.55c0-.07-.05-.12-.12-.12s-.12.05-.12.12.05.12.12.12.12-.05.12-.12Z"/>
          <path class="cls-1" d="M128.97,12.92c.8,1.84,1.97,3.27,3.66,4.35-.95-.49-2.1-1.18-2.95-1.91-.16-.26-.24-1.05-.77-1.06-1.95,1.6-.4,1.95-1.06,2.68-.21-.06-.32-.42-.65-.26.45,1.85,1.86,3.22,3.4,4.27.24.16.29.39.34.56l-.05.72c-2.38,1.09-1.66,1.28-1.86,1.5-.68.74-2.63,1.63-3.13,2.6-.9.29-1.93,1.3-1.87,2.29.42.39,1.16-.16,1.53-.67.61.44.23,1.16.08,1.77-.13.54-.49.82-.96.68-.53-.7-2.23-2.61-3.22-2.3-.25.08-.1.45-.1.68.04,1.55.48,2.03-.3,2.36-.7-.64-1.56-.99-2.4-1.42.12-.87,1.8-2.46,1.39-3.62-.55.35-1.11.49-1.61.71.16-.54.98-.61,1.28-1.11l4.21-7.01c-.12.47-.02.93-.31,1.5-.52,1.04-1.34,1.87-1.55,3.22l2.4-3.41c.45.35.14,1.05.72,1.41.74-1.21.27-2.47.44-3.72.08-.58-.26-.83-.32-1.16-.16-.85-.3-1.87.08-2.74.54-1.24,2.74-.62,3.56-.93ZM122.06,23.87c0-.07-.05-.12-.12-.12s-.12.05-.12.12.05.12.12.12.12-.05.12-.12Z"/>
          <path class="cls-1" d="M85.97,20.38c-1.14-.15-1.07,1.97-1.77,2.16-.5.03-1.04-.48-1.46-.27-.14-.31-.32-.63-.68-.7.01-.11-.03-.34-.06-.45.75.05.77-4.01,1.45-5.26.3.15.49-.14.48-.42,0-.22-.06-.46-.24-.62l-.07-.41c-.12-.73-.06-1.53-.47-2.35-.81.57-1.16,1.42-1.99,1.74-.69.27-1.21-.46-1.56-.91.17-.32.38-.61.49-.96.61-.36,1.27-.63,1.97-1.13-.91-.43-1.43.26-2.38.26-.29-.71.58-.74,1.11-1.16-1.16-.11-2.05.62-3.13.85.03-.6,3.03-1.59,3.4-1.65.79-.13,1.11,1,1.4,1.62.37.48,1.16.25,1.47.7.38.55-.15,1.28.03,1.88.6,2.01,1.4,3.85,2.11,5.82.16.46.03.87-.1,1.23Z"/>
          <path class="cls-1" d="M79.31,19.89c0,.75.92.89,1.66,1.19-.56.82-.28,1.85-.35,2.79s-.51,4,.75,4.86c.47.32.97,1.05,1.61,1.19,1.41.31,3.08.09,4.33-.61.48-.27.44-1.09.92-1.26.35.59.53,1.28.8,1.91-.26.76-1.11.95-1.78,1.29-.52-.62-1.2-.38-1.85-.06-.23.06-.56.17-.8.2-.8.11-1.59-.11-2.38-.2-1.49-.17-3.46-2.69-2.51-3.55-1.42-6.23,1.36-1.21-1.35-7.25.37-.04.13-.53.26-.67.2-.19.56.1.7.17Z"/>
          <path class="cls-1" d="M78.18,13.64c-.17,1.31-.81,2.59-.16,3.92,1.6,3.32,1.87-4.78,5.6-3.14l.07.41c-.22.3-.27.67-.24,1.04-.67,1.25-.69,5.3-1.45,5.26-.33-.28-.38-2.45-1.09-2.41-.92.05-.86,1.16-1.6,1.17-.13-.07-.49-.36-.7-.17-.13.14.1.63-.26.67l-.81-1.81c-1.24-.29-1.5-1.29-1.22-2.43.21-.84.84-1.44.91-2.24.3-.15.62-.22.95-.26ZM77.92,17.98c-.4-1.07-.51-1.64-.66-2.45-.6.38-.76.96-.55,1.54.14.39.59.85,1.21.91Z"/>
          <path class="cls-1" d="M132.63,17.27l.41.21-.39,1.69c-.08.35-.49.59-.22,1.25.23.58-.07,1.61-.75,1.67-.26.02-.48-.6-.74-.54-.05-.17-.1-.4-.34-.56-1.54-1.05-2.96-2.42-3.4-4.27.33-.16.44.2.65.26.16.72.79,1.75,1.62,1.85-.34-.78-1.08-1.19-.9-2,.14-.67.71-1.07,1.11-1.47.85.73,1.99,1.42,2.95,1.91Z"/>
          <path class="cls-1" d="M89.4,24.9c-.08.14-.18.26-.29.38-.11.04-.28.08-.38,0-1.09-.77-2.31-1.06-3.62-1.05l.91-3.56c1.34,1.2,2.8,2.52,3.38,4.23Z"/>
          <path class="cls-1" d="M80.09,11.95c-.55.33-1.48.35-1.49,1.23l-.41.46c-.33.04-.65.11-.95.26-.38-.83-.29-1.8-.18-2.69.22-.08.38-.37.61-.42,1.08-.24,1.96-.96,3.13-.85-.52.42-1.4.44-1.11,1.16.95,0,1.46-.7,2.38-.26-.69.5-1.35.76-1.97,1.13Z"/>
          <path class="cls-1" d="M125.34,16.59c.06.32.4.58.32,1.16-.17,1.25.3,2.51-.44,3.72-.58-.36-.27-1.06-.72-1.41l-2.4,3.41c.21-1.35,1.03-2.18,1.55-3.22.29-.58.18-1.04.31-1.5.21-.8.69-1.78,1.39-2.15Z"/>
          <path class="cls-1" d="M128.8,27.57h-.36c-.03.08,1.68-4.32.59-3.8.2-.22-.51-.41,1.86-1.5.02.18.12.37,0,0l.05-.72c.25-.06.47.56.74.54.68-.06.98-1.09.75-1.67-.27-.67.14-.9.22-1.25.68.35.7,1.24.63,2.02-.11,1.14-1.57,1.91-2.77,2.2l-1.7,4.18Z"/>
          <path class="cls-1" d="M118.68,29.78l-1.66.24c.04-.55.16-1.23-.22-1.66.46-.54.99-1.19,1.66-1.49.5-.22,1.06-.36,1.61-.71.4,1.16-1.27,2.75-1.39,3.62Z"/>
          <path class="cls-1" d="M85.97,20.38c0,.09.06.2.04.28l-.91,3.56c-1.07,0-1.96-1.05-2.36-1.95.43-.2.96.31,1.46.27.7-.19.63-2.31,1.77-2.16Z"/>
          <path class="cls-1" d="M118.19,15.83c-.9-1-1.47-2.6-2.94-2.97-1-.26-2.22.65-2.99,1.11.61.39,1.22.32,1.44.78.26.54.14,1.05-.02,1.66-.12.46.51.82.48,1.33-.08,1.57.16,3.11,1.34,4.1.53-.41,1-.69,1.51-.78.23.19.29.51.05.82l-.73.92c-.11.13-.35.15-.49.26-1-.06-1.44-1.14-1.86-2.03-1.22-2.6-.13-2.28-.81-3.04l-.27-.3c-.13-.58-.12-1.16.04-1.95-.48-.07-.84.18-1.21.36.28-.24.4-.52.18-.98-.74.16-1.52.17-2.2-.12-.13-.12.01-.56.06-.66,1.15-.26,2.33-1.14,3.55-1.54.19-.17-.35-.54-.59-.41.07-.29.45-.55.4-.81-.24-1.1-2.38-2.25-3.48-2.75-2.42-1.09-5.01-1.53-7.53-1.72-.53-.45,2.05-.59,2.13-.59,4.36.29,7.69,2.73,10.99,5.28,1.45,1.12,3.21,1.99,2.94,4.03Z"/>
          <path class="cls-1" d="M110.98,12.48c.17.17.38.24.62.23.19,0,.28-.22.42-.28.22-.08.52.07.72-.04.24-.13.78.24.59.41-1.21.4-2.39,1.29-3.55,1.54-4.29.96-8.86.79-12.91-.91.3-.61,5.13-.51,5.94-.43.23.02.31.66.55.73,1.34.11,2.63-.1,3.97-.12.46,0,.73-.34,1.02-.42.54-.14,1.11-.23,1.65-.28.15-.01.35.05.47-.12.06-.07.08-.19.1-.29h.39Z"/>
          <path class="cls-1" d="M108.36,13.19c-.29.08-.56.41-1.02.42-1.34.03-2.64.24-3.97.12-.24-.06-.32-.71-.55-.73-.81-.08-5.64-.18-5.94.43-.1-.1-.21-.41-.43-.41-.59,0-1.24.67-1.77.61-.87-.1-2.92.74-3.02,1.5-.12-1.93.61-2.6.62-2.63.25.28.18.63.33,1.25,2-1.46,4.07-1.72,6.4-1.35,3,.47,4.93-.59,7.7.67.44.2,1.3-.45,1.63.11Z"/>
          <path class="cls-1" d="M89.11,25.28c.14.94-.65,2.38.56,3.24.01.12.27.91.6.63.13-.51-.12-2.4.73-2.5.18-.02.42.07.61.28.4.44-.99.94.46,3.49-.48.31-1.07.43-1.62.32l-.28-.05c-.29-.36-.67-.67-1.14-.72-.28-.63-.45-1.32-.8-1.91l-.02-1.17c.15-.54.59-1.02.53-1.6.11.08.27.04.38,0Z"/>
          <path class="cls-1" d="M102.12,7.11c2.53.19,5.11.64,7.53,1.72,1.1.49,3.25,1.65,3.48,2.75.06.26-.33.52-.4.81-.21.11-.51-.04-.72.04.29-.3-1.33-.28-1.04.04h-.39c-.11,0-.23-.01-.37.03-.15.04-.37.2-.21.4-.55.05-1.11.14-1.65.28-.34-.56-1.19.09-1.63-.11-2.77-1.26-4.7-.2-7.7-.67-2.33-.37-4.41-.11-6.4,1.35-.15-.62-.08-.97-.33-1.25.59-1.32,2.26-1.73,3.89-2.23.75-.23,1.78.2,2.3-.63-.96-.01-1.67-.4-2.14.15l-.71.02c.15-.4.37-.76.47-1.18,3.26-.05,3.67-1.72,6.02-1.54Z"/>
          <path class="cls-1" d="M118.19,15.83c-.15,1.12.33,2.27-.02,3.57-.21,0-.31-.26-.51-.36-.09.78-.66,1.3-.64,2.01-.52.09-.99.37-1.51.78-1.18-.99-1.42-2.53-1.34-4.1.03-.51-.6-.87-.48-1.33.16-.61.28-1.12.02-1.66-.22-.46-.83-.39-1.44-.78.76-.46,1.98-1.36,2.99-1.11,1.47.38,2.04,1.97,2.94,2.97Z"/>
          <path class="cls-1" d="M96.1,8.65c-.1.41-.32.78-.47,1.18-1.03.03-1.97.8-3.15.62.8-1.44,2.28-1.77,3.62-1.79Z"/>
          <path class="cls-1" d="M96.18,10.28c.07-.15.12-.31.17-.47.47-.56,1.17-.16,2.14-.15-.52.83-1.56.4-2.3.63Z"/>
          <circle class="cls-1" cx="118.1" cy="13.55" r=".12"/>
          <path class="cls-1" d="M125.91,26.37c-.13.49.68.73.88,1.07.07.56-1.08,3.65-1.71,3.51-.19-.04-.27-.35-.38-.5.47.14.83-.14.96-.68.14-.61.52-1.33-.08-1.77-.37.51-1.11,1.06-1.53.67-.06-.99.97-2,1.87-2.29Z"/>
          <path class="cls-1" d="M129.69,15.36c-.4.4-.97.8-1.11,1.47-.17.81.56,1.22.9,2-.83-.1-1.46-1.13-1.62-1.85.67-.73-.89-1.09,1.06-2.68.53,0,.61.8.77,1.06Z"/>
          <circle class="cls-1" cx="121.94" cy="23.87" r=".12"/>
          <path class="cls-1" d="M82,21.13c.03.11.07.33.06.45-.04.39-.06,1.03-.57,1.4-.18-.24-.09-.56-.44-.69-.11.47-.25,1.05,0,1.42.52.78,1.57.55,2.28.87,1.04.46,2.06.68,3.07,1.05.68.26,1.08,1.18,1.8,1.26l.02,1.17c-.48.17-.43.98-.92,1.26-1.25.7-2.92.92-4.33.61-.64-.14-1.14-.88-1.61-1.19-1.26-.86-.82-3.9-.75-4.86s-.21-1.97.35-2.79c-.74-.3-1.66-.44-1.66-1.19.73-.01.68-1.12,1.6-1.17.72-.04.77,2.13,1.09,2.41ZM87.29,28.13c-.36-1.75-1.86-1.48-3.14-1.91l-2.9-.98c0,1,.11,2.58.96,3.33.94.83,2.64.8,3.78.6.56-.1.86-.89,1.3-1.04Z"/>
          <path class="cls-1" d="M83.62,14.43c-3.73-1.64-4,6.45-5.6,3.14-.64-1.34-.01-2.61.16-3.92l.41-.46c.34-.09.66-.24,1.01-.27.35.45.86,1.18,1.56.91.83-.32,1.18-1.18,1.99-1.74.41.82.35,1.62.47,2.35Z"/>
          <path class="cls-1" d="M82.74,22.27c.4.91,1.29,1.96,2.36,1.95,1.31-.01,2.53.28,3.62,1.05.06.59-.38,1.06-.53,1.6-.72-.07-1.12-1-1.8-1.26-1.01-.38-2.04-.6-3.07-1.05-.71-.31-1.77-.08-2.28-.87-.24-.37-.1-.95,0-1.42.36.12.26.45.44.69.51-.37.53-1.01.57-1.4.36.07.54.39.68.7Z"/>
          <path class="cls-1" d="M80.09,11.95c-.11.34-.31.64-.49.96-.35.03-.67.18-1.01.27.02-.88.94-.9,1.49-1.23Z"/>
          <path class="cls-1" d="M83.45,15.87c-.03-.36.02-.74.24-1.04.18.16.24.4.24.62,0,.27-.18.57-.48.42Z"/>
          <path class="cls-1" d="M77.92,17.98c-.62-.06-1.07-.52-1.21-.91-.21-.58-.05-1.16.55-1.54.15.81.26,1.38.66,2.45Z"/>
          <path class="cls-1" d="M130.9,22.27c.06.18.06.23.05.2s-.04-.11-.05-.2Z"/>
          <g>
            <path class="cls-1" d="M96.88,13.44c4.05,1.7,8.63,1.87,12.91.91-.05.1-.19.53-.06.66.67.29,1.46.27,2.2.12.22.46.1.74-.18.98-.84.4-1.24,1.57-.86,2.46l2.02-.88.27.3c-.63,2.48-.79,5.06,0,7.59.04.12-.21.44-.07.5.19.08.39-.14.53-.16.76.73.07,1.95,1.07,2.01.19.01.73-.06.55-.34s-.36-.41-.38-.61c-.06-.53.81-.27,1.13-.76.1-.15.19-.57-.06-.62s-.5.13-.84-.11c.57-.38,1.3-.46,2.1-.33l-.18-1.61.83.47c.5,1.69-.22,3.09-1.52,4.21-.21.18-.6.14-.7.63-.25,1.32-1.19,2.31-.51,2.6-.1.42-.96.66-1.18.2.44-.79,1.07-1.9.85-2.77l-1.42-.49c-.46,1.02-.69,2.46-1.48,3.21-1.33,1.26-3.09,1.95-4.51,3.08-.22.17-.7.03-.89.26-.63.75.39,1.79-1.17,3.25l-2.75,2.59c-.41.39-.84.88-1.41,1.28-.86-.32-1.05-1.12-1.64-1.54-1.48-2.73-1.29-1.81-.84-5.02-1.69-.73-3.36-1.57-4.67-2.91-.33-.33-.5-.79-.97-.76,0-.13-.01-.27-.06-.39-.18-.45-.46-.88-.93-1.04-1.44-2.54-.06-3.05-.46-3.49-.19-.2-.43-.3-.61-.28-.85.11-.6,1.99-.73,2.5-.33.28-.59-.51-.6-.63.59-.26-.09-2.37,1.36-2.72-.59-2.75,1.66-1.49-.15-5.14.18-.08.33-.21.53-.26l1.01,2.1.16-5.43c.03-1.15,2.35-2.8,2.11-3.43.53.06,1.18-.62,1.77-.61.22,0,.32.31.43.41ZM99.22,17.07l1.44,2.11c.33.99-.12,2.17-.42,3.1-.38.05-.7.52-1.16.48.66-1.6-1.89.38-3.59-1.01-.21-.17-.27-.42-.44-.46-.39-.09-.33.48-.42.71-.89,2.26-.79,4.35-.28,6.6.35,1.54.66,2.99,2.14,3.99,2.76,1.86,3.07,2.24,7.53,1.39,1.73-.33,3.3-1.45,4.67-2.46,1.18-.87,1.57-2.07,2.06-3.27.73-1.78.51-3.41.41-5.19-.13-2.37-.67-4.44-2.75-5.33-1.02-.44-1.98-2.43-3.61-1.04,1.33.37,2.69.41,3.56,1.27.97.95,1.64,2.78,1.19,4.01s-1.68,1.24-2.63,1.12c-2.08-.27-3.26-3.63-2.24-5.98-1.9-.37-3.71-.65-5.46-.57-1.28.06-2.92-.05-3.51,1.77,1.19-.89,2.25-1.45,3.52-1.24ZM100.89,40.23c1.23-.24.8-1.74.44-2.33-.33-.55-1.6-1.23-2-.43s.72,2.92,1.56,2.76Z"/>
            <path class="cls-1" d="M89.67,28.52c-1.21-.86-.41-2.3-.56-3.24.11-.11.21-.24.29-.38,1.49.34-.12-3.48,1.48-4.24,1.81,3.65-.44,2.39.15,5.14-1.45.35-.78,2.46-1.36,2.72Z"/>
            <path class="cls-1" d="M108.35,17.96l.05-.23c2.08.9,2.62,2.97,2.75,5.33.1,1.78.32,3.41-.41,5.19-.49,1.2-.89,2.4-2.06,3.27-1.36,1.01-2.94,2.12-4.67,2.46-4.46.86-4.77.47-7.53-1.39-1.47-.99-1.79-2.45-2.14-3.99-.51-2.25-.61-4.34.28-6.6.09-.23.02-.79.42-.71.17.04.23.29.44.46,1.7,1.39,4.25-.59,3.59,1.01.47.04.78-.42,1.16-.48.15.14.36.35.56.32.92-.13,1.54-2.73.18-3.86-.15-.12-.39.42-.33.44l-1.44-2.11v-.53c1.74-.08,3.55.2,5.45.57-1.02,2.35.16,5.71,2.24,5.98.95.12,2.2.06,2.63-1.12s-.22-3.05-1.19-4.01ZM99.73,24.59c-.39-.26-.31-.62,0-.98-.15-.18-.51-.07-.7.03-.31.17-.44,1.63.42,1.95.33.12.87.12.98-.43.05-.29-.41-.4-.69-.58ZM99.02,29.36c.07.88.46,1.65.69,2.71,1.01-.82,1.93-1.01,3.2-.8.1-.82-.1-1.56-.6-2.28-.19-.27-.26-.66-.77-.77-.92-.2-1.96-.41-2.9.01-.29.13.04.91.38,1.13Z"/>
            <path class="cls-1" d="M115.13,31.47c.46-.07.98-.31,1.42-.54.54,1.08-1.75,2.49-2.84,2.21-.61-.5-1.29-.92-1.81-1.52.79-.75,1.02-2.19,1.48-3.21l1.42.49c.22.87-.41,1.98-.85,2.77.22.46,1.07.21,1.18-.2Z"/>
            <path class="cls-1" d="M115.85,23.05c-.94.78-2.04,1.62-2.21,2.87-.14.02-.34.25-.53.16-.14-.06.11-.38.07-.5-.79-2.53-.63-5.11,0-7.59.68.76-.41.44.81,3.04.42.89.85,1.97,1.86,2.03Z"/>
            <path class="cls-1" d="M117.03,23.56l.18,1.61c-.8-.13-1.53-.05-2.1.33.34.24.58.07.84.11s.15.47.06.62c-.32.49-1.19.22-1.13.76.02.2.2.34.38.61s-.36.35-.55.34c-1-.06-.31-1.28-1.07-2.01.17-1.24,1.27-2.09,2.21-2.87.13-.11.38-.13.49-.26.13.33.47.5.7.76Z"/>
            <path class="cls-1" d="M100.89,40.23c-.83.16-1.93-2.01-1.56-2.76.4-.8,1.67-.12,2,.43.36.6.79,2.09-.44,2.33Z"/>
            <path class="cls-1" d="M116.34,28.24l.46.12c.38.42.26,1.1.22,1.66-.02.31-.47.58-.46.92-.44.23-.96.47-1.42.54-.68-.29.26-1.28.51-2.6.09-.49.48-.45.7-.63Z"/>
            <path class="cls-1" d="M112.91,17.68l-2.02.88c-.39-.89.01-2.06.86-2.46.37-.18.73-.43,1.21-.36-.16.79-.17,1.37-.04,1.95Z"/>
            <path class="cls-1" d="M100.24,22.29c.3-.93.75-2.12.42-3.1-.06-.02.18-.56.33-.44,1.36,1.13.74,3.73-.18,3.86-.21.03-.41-.18-.56-.32Z"/>
            <path class="cls-1" d="M99.21,16.54v.53c-1.26-.21-2.32.35-3.51,1.24.59-1.82,2.23-1.71,3.51-1.77Z"/>
            <path class="cls-1" d="M108.4,17.73l-.05.23c-.87-.86-2.24-.9-3.56-1.27,1.63-1.39,2.59.6,3.61,1.04Z"/>
            <g>
              <path class="cls-1" d="M138.67,11.03c-1.57-.33-1.44,1.36-3.09,1.29-.57-.87,1.38-.9,1.59-1.97.11-.59.06-1.4-.49-1.71-1.03-.57-1.19,1.37-1.78,1.4-1.8.09-.18-1.18-.13-3.15.01-.49-.61-.72-1.02-.69-.31.02-1.11.28-.75.7.24.11.58-.14.71-.16.19-.02.38.08.3.31-.4,1.18-1.07.34-1.21,2.01l-1.54-.19c.09.85-.53,1.84-.23,2.52.49.81,1.37-.37,1.83-.55,1.99,1.6,3.36,3.16,5.73,1.39.65.3.68,1.09.61,1.68-.11.83-1.17.65-1.66,1.12s-.12,1.51-.73,1.96c-.47.35-.98.84-1.78.73l-1.96-.26-.41-.21c-1.69-1.07-2.87-2.51-3.66-4.35.24-1.48.95-2.86,1.49-4.37,1.1-3.04,4.22-3.5,4.38-2.49.11.72.46,1.16,1.13,1.18,1.39.03,1.51,1.03,1.91,1.98.26.62,1.2.96.77,1.81ZM133.83,14.57c-.46-.75-.71-1.42-1.3-1.78-.51-.31-1.18-.08-1.8,0-.04.68,0,1.65.66,2.1.69.47,1.91.4,2.44-.31ZM135.95,16.19c.2-.65-.88-1.03-1.19-1.35-.62.49-1.16.83-1.71,1.51.68.78,2.51,1.08,2.9-.16Z"/>
              <path class="cls-1" d="M138.67,11.03c-.16.32.13.87-.1,1.21-2.37,1.77-3.73.21-5.73-1.39-.46.17-1.34,1.36-1.83.55-.3-.68.32-1.67.23-2.52l1.54.19c.14-1.67.81-.82,1.21-2.01.08-.24-.11-.33-.3-.31-.13.01-.46.27-.71.16-.36-.42.44-.68.75-.7.41-.02,1.03.21,1.02.69-.05,1.97-1.67,3.24.13,3.15.6-.03.75-1.96,1.78-1.4.55.3.6,1.12.49,1.71-.2,1.07-2.15,1.1-1.59,1.97,1.65.07,1.52-1.62,3.09-1.29Z"/>
              <path class="cls-1" d="M133.83,14.57c-.53.71-1.75.78-2.44.31-.65-.44-.69-1.41-.66-2.1.62-.07,1.28-.3,1.8,0,.59.36.84,1.03,1.3,1.78Z"/>
              <path class="cls-1" d="M135.95,16.19c-.38,1.24-2.21.93-2.9.16.55-.68,1.09-1.02,1.71-1.51.3.32,1.39.7,1.19,1.35Z"/>
            </g>
            <g>
              <path class="cls-1" d="M76.98,1.17c-.66,1.09.61,4.65,1.57,3.28.33.19,1.05.38,1.23.86.04.55.47,1.84,1.24,1.53.94-.38.2-1.78.28-2.55.5.22,1.34.47,1.35,1.22.03,1.49-1.88,2.55-1.59,3.63-.38.06-3.38,1.05-3.4,1.65-.23.05-.39.34-.61.42-.18-.4-.81-.62-1.27-.73.2-.3.6-.37.94-.67.41-.36.25-1.83-.21-1.61l-2.01.96c-.13-.12-.12-.43-.21-.55.21-.08.65-.39.68-.75l-2.15-1.64.05-.7c.72-.06.71,1.1,2.25,1.38.92-1.07-.59-1.14-1.06-3.33.21-.08.34-.53.68-.43-.09,1.05.97,2,2.08,2.05-.68-1.46-.83-2.57-.6-3.81.24-.02.47-.29.75-.21ZM78.49,7.19c-.27-.08-.73-.13-.85.29-.16.56.05,1.78.7,1.86.84.11.69-2,.15-2.15Z"/>
              <path class="cls-1" d="M81.18,3.8c.01.16.14.33.12.48-.08.77.66,2.17-.28,2.55-.77.31-1.2-.98-1.24-1.53-.18-.48-.9-.68-1.23-.86-.95,1.37-2.23-2.18-1.57-3.28.26-.37.57-.67.95-.92.18.24.5.19,1.07.27-.41,1.85.55,2.65,2.18,3.27Z"/>
              <path class="cls-1" d="M81.18,3.8c-1.63-.62-2.59-1.42-2.18-3.27-.57-.09-.88-.04-1.07-.27.55-.36,1.37-.4,1.87.23.79.97,1.3,2.15,1.38,3.32Z"/>
              <path class="cls-1" d="M74.07,3.57c.46,2.19,1.97,2.27,1.06,3.33-1.54-.29-1.53-1.44-2.25-1.38.83-1.26-.01-1.46,1.19-1.95Z"/>
              <path class="cls-1" d="M76.23,1.39c-.23,1.24-.08,2.35.6,3.81-1.11-.05-2.17-1-2.08-2.05.07-.86.65-1.68,1.48-1.76Z"/>
              <path class="cls-1" d="M75.78,10.48c-.67-.15-1.24-.6-1.27-1.33l2.01-.96c.46-.22.62,1.25.21,1.61-.35.3-.75.37-.94.67Z"/>
              <path class="cls-1" d="M74.3,8.61c-.3-.4-1.51-.38-1.73-1.41-.07-.33-.15-.79.26-.98l2.15,1.64c-.03.36-.46.66-.68.75Z"/>
              <path class="cls-1" d="M78.49,7.19c.54.15.69,2.26-.15,2.15-.65-.08-.86-1.31-.7-1.86.12-.42.58-.37.85-.29Z"/>
            </g>
            <path class="cls-1" d="M102.32,28.99c.5.73.7,1.46.6,2.28-1.27-.22-2.19-.02-3.2.8-.23-1.06-.63-1.82-.69-2.71,1.11.56,2.22.15,3.29-.37Z"/>
            <path class="cls-1" d="M102.32,28.99c-1.08.52-2.18.93-3.29.37-.34-.21-.67-1-.38-1.13.94-.42,1.98-.21,2.9-.01.51.11.59.5.77.77Z"/>
            <path class="cls-1" d="M99.73,24.59c.28.19.75.3.69.58-.1.54-.64.55-.98.43-.86-.32-.72-1.78-.42-1.95.19-.11.55-.21.7-.03-.31.35-.39.71,0,.98Z"/>
          </g>
          <path class="cls-1" d="M112.02,12.44c-.14.05-.24.27-.42.28-.23.01-.45-.06-.62-.23-.29-.32,1.33-.35,1.04-.04Z"/>
          <path class="cls-1" d="M110.59,12.49c-.02.1-.05.22-.1.29-.12.16-.32.1-.47.12-.16-.19.06-.36.21-.4.14-.04.26-.03.37-.01Z"/>
          <path class="cls-1" d="M120.89,33.6c1.53-.45,1.35-2.87,1.16-4.12.41-.33,1.74,1.88,1.37,2.31-1.38,1.57-2.37,3.81-2.53,1.81Z"/>
          <path class="cls-1" d="M87.29,28.13c-.44.15-.75.94-1.3,1.04-1.15.2-2.85.23-3.78-.6-.84-.75-.96-2.33-.96-3.33l2.9.98c1.28.43,2.78.16,3.14,1.91Z"/>
          <path class="cls-1" d="M90.14,66.53c-.27.3-.99.32-1.2-.06.4,0,.8.03,1.2.06Z"/>
          <g>
            <path class="cls-1" d="M110.98,36.16l-.26.22c-1.62,1.36.06,4.65,1.2,6.28.47-1.02.24-1.94.74-2.63.52.34.12.92.02,1.47-.2,1.09.31,2.13-.22,3.25-1-1.19-3.5-6.31-3.16-7.53-.93-.45-2.98,4.55-4.25,4.75-.27-1.94-2.37.68-4,.33-2.96-.63-4.66-3.29-4.8-6.25-3.82-.51-1.63,6.67-3.88,11.25-.2.4-.31.81-.3,1.18-.21-.1-.52.06-.74-.02,0-1.03.4-2.02.28-3.06.06,0,.12-.04.18-.05.68-.81-.12-2.02.27-3.14,1.3-3.66-.03-4.26,2.1-6.58.46-.51,2.19-1.19,2.44-.22.49,1.98.9,4.39,2.93,5.13.59.42.78,1.22,1.64,1.54.56-.4.99-.89,1.41-1.28-.14.18.03.32.21.21l3.45-2.33c1.06-.72,2.11-1.48,2.41-2.68,1.79,1.05.73-2.29,3.48-2.1-.47.75-.95,1.44-1.15,2.27Z"/>
            <path class="cls-1" d="M99.53,40.54c-2.03-.73-2.44-3.15-2.93-5.13-.24-.97-1.97-.28-2.44.22-2.13,2.32-.79,2.92-2.1,6.58-.4,1.12.4,2.33-.27,3.14.09-2.45-.32-1.51-.85-2.27-.66-.96-1.04-1.97-1.74-2.77-.2-.33-.17-.92-.47-1.23-.08-.08-.16-.17-.26-.23-.02-.07,0-.15-.02-.22-.09-.39-.24-.76-.29-1.16.19,0,.43.03.6-.1.23-.17.18-.54.27-.9.14-.54.74-.2,1.04-.04.02.37.15.76.13,1.13-.09.16-.46.34-.29.62.08.13.29.17.46.18.1.73.06,2.74.72,2.88.08.02.16-.01.24,0,0,.17-.11.44.23.48l-.02-3.84c0-1.38-.12-2.77.31-4.1.23-.72.83-1.32,1.19-1.96.47-.03.64.43.97.76,1.31,1.34,2.98,2.19,4.67,2.91-.45,3.21-.64,2.29.84,5.02Z"/>
            <path class="cls-1" d="M111.9,31.62c.52.6,1.2,1.02,1.81,1.52-.04.53-.11,1.07-.04,1.6-.53-.03-.65.59-.64,1.03l-.12.9c-.08.07-.38.04-.41.21s.13.31.24.39l-.06.4c-.39.06-.55.44-.95.8-.75-.48-.21-2.11-.75-2.3.19-.83.67-1.52,1.15-2.27-2.75-.19-1.69,3.16-3.48,2.1-.3-.55-.87-.82-1.25-1.3,1.41-1.13,3.18-1.82,4.51-3.08Z"/>
            <path class="cls-1" d="M107.39,34.7c.38.48.95.75,1.25,1.3-.3,1.2-1.34,1.96-2.41,2.68l-3.45,2.33c-.17.12-.35-.03-.21-.21l2.75-2.59c1.55-1.46.53-2.5,1.17-3.25.2-.24.68-.09.89-.26Z"/>
            <path class="cls-1" d="M92.99,31.45c-.78-.33-1.65,1.72-1.83,2.38l-.57,2.1-.39.03c.01-.13-.04-.29,0-.41.06-.13.2-.25.18-.41s-.12-.29-.22-.4v-.44c.05.32.72-3.88.29-3.57.55.11,1.14-.01,1.62-.32.47.17.75.6.93,1.04Z"/>
            <path class="cls-1" d="M92.99,31.45c.05.12.06.26.06.39-.36.65-.95,1.25-1.19,1.96l-.7.03c.18-.67,1.05-2.71,1.83-2.38Z"/>
            <path class="cls-1" d="M128.45,27.59c-2.41,5.34-1.25,2.26-3.22,4.61-.54.64-4.06,3.37-2.28,3.52-.01.29-.14.5-.44.69l2.23.49c-.74.95-1.71,1.19-2.6,1.41-.35-2.88-1.52-2.51-3.21-4.78-.64.26-1.18.09-1.79.24l-.39,1.6c.93.19.44,1.44.78,1.79.6.6,1.76.49,2.33,1.36.2.31,1.09-.03,1.21.42-.7.27-1.44.25-2.18.13.06-.55-4.34-2.37-3.01-4.48s.09-.79,2.97-2.79c-.16.76.23.84.75,1.18.35.23.63,1.1,1.02.61.09-.01.19.05.28.03.15,2,1.15-.23,2.53-1.81.38-.43-.95-2.63-1.37-2.31-.16-.23-.35-.58-.67-.66,0-.23-.15-.61.1-.68.99-.31,2.69,1.6,3.22,2.3.11.15.19.45.38.5.63.14,1.78-2.95,1.71-3.51-.2-.34-1.01-.58-.88-1.07.49-.97,2.45-1.85,3.13-2.6,1.09-.52-.62,3.88-.59,3.81Z"/>
            <path class="cls-1" d="M118.68,29.78c.84.43,1.7.78,2.4,1.42,0,.19.13.43.09.56-.1.38-.85-.36-.94.05-.03.13.63.54.78,1,.1.3-.17.56-.4.78-.39.49-.67-.38-1.02-.61-.52-.34-.9-.42-.75-1.18-2.88,2-1.67.72-2.97,2.79s3.07,3.93,3.01,4.48l-.89-.15c-1.22-.21-2.59-.86-3.21-2.05l-1.11-2.12c-.07-.53,0-1.06.04-1.6,1.09.28,3.39-1.13,2.84-2.21,0-.34.44-.61.46-.92l1.66-.24Z"/>
            <path class="cls-1" d="M122.05,29.49c.19,1.24.38,3.67-1.16,4.12-.08.02-.19-.04-.28-.03.23-.22.5-.48.4-.78-.16-.45-.81-.86-.78-1,.09-.4.84.34.94-.05.03-.13-.1-.37-.09-.56.78-.33.34-.81.3-2.36.32.08.51.43.67.66Z"/>
            <path class="cls-1" d="M85.39,31.18c.34.1,3.36,4.65,3.71,2.1.03-.21.37-.58.56-.34.29.35.11,1.02.49,1.36v.44c-.24-.05-.26.26-.25.4,0,.2.06.48.3.41-.04.12.02.28,0,.41-.01.16-.12.33-.11.5-.3-.16-.9-.49-1.04.04-.09.36-.04.73-.27.9-.17.13-.41.1-.6.1-.76-.65-3.32-5.11-3.58-6.11.24-.03.57-.14.8-.2Z"/>
            <path class="cls-1" d="M87.24,31.25l1.21,1.45c.82-.81.93-2,1.71-2.02l.28.05c.44-.31-.23,3.88-.29,3.57-.38-.34-.2-1-.49-1.36-.19-.24-.53.13-.56.34-.35,2.55-3.37-2-3.71-2.1.65-.32,1.33-.56,1.85.06Z"/>
            <path class="cls-1" d="M90.16,30.68c-.77.02-.89,1.2-1.71,2.02l-1.21-1.45c.67-.35,1.52-.53,1.78-1.29.47.06.85.36,1.14.72Z"/>
            <path class="cls-1" d="M101.18,67.16c.08.02.21-.01.28.02l3.58,1.75c.43.21,4.64,3.78,4.31,5.45h-.26c-1.17-2.81-3.13-4.59-6.13-5.72-3.65-1.37-7.36-2.09-11.19-2.03-.08-.56.61-.35,1.01-.38,2.98-.25,5.68.16,8.41.91Z"/>
            <path class="cls-1" d="M118.89,39.05c-.02.16-.08.44-.21.54-.6.08-.77.84-1.13,1.17-.81.77-1.42,1.69-1.96,2.67-.19.34-.39.55-.49.95s-.62.81-.75,1.21c-1.6.22.61-2.03.56-2.91,1.05-1.07,1.7-2.64,2.81-3.56l.27-.23.89.15Z"/>
            <path class="cls-1" d="M105.06,41.98c-.76,1.21-1.32,2.54-2.66,3.52,1.36-.15,2.64-1.57,4.01-2.34,1.43-.14,2.15,1.26,2.66,2.52.8,1.95,1.28,4.07.02,5.9-.2.29-.39.6-.64.66-1.32.33-4.08-3.93-5.55-2.89-.35.25-.46.99-.1,1.35l2.51,2.54c.92.93,1.53,2.14,2.24,3.24,1.31,2.03-1.24,4.72-2.08,4.88s-1.75-1.74-2.85-1.29c-1.23.5.32,3.49.8,4.62l-1.95,2.5c-.07-.03-.2,0-.28-.02-4.9-2.64-8.72-.76-12.72-1.18-.14-.01-.31-.09-.44-.07-.63-4.23-.36-8.58,1.5-12.55,1.21-2.58,3.95,4.93,4.84,5.23.33-1.31-.62-2.16-1-3.21-.46-1.28-2.43-4.84-3.21-5.16-.26-.11-.27-.36-.25-.59,2.4-.25,4.08,1.08,5.48,1.27-.12.13-.05.23.05.31.17.14.36.09.52.11l.63.06c-.02.54.61.63,1.05.66.22.01.45.05.68.05,1.1.86,2.53,1.67,4.25,1.75-2.62-2.66-6.03-4.26-9.49-5.42-.2.12-.41.16-.33.3-.21-.08-.44-.13-.65-.23,0-.37.1-.78.3-1.18,2.25-4.59.06-11.77,3.88-11.25.14,2.96,1.84,5.62,4.8,6.25,1.62.35,3.73-2.28,4-.33Z"/>
            <path class="cls-1" d="M91.61,45.42c.12,1.04-.28,2.03-.28,3.06-.58,1.02-1.38.29-1.44,1.15-.01.23,0,.48.25.59-1.53,2.81-2.83,5.63-3.52,8.89-.32,1.5-.63,2.99-1.3,4.24-.02-4.42,2.93-10.23,4.17-14.73.8-.96.94-2.15.92-3.26.39.04.79.05,1.18.06Z"/>
            <path class="cls-1" d="M92.08,48.49c.21.1.44.15.65.23,1.89.75,3.82,1.38,5.55,2.63.14.1.45.48.38.53l-.36.22c-.23,0-.45-.04-.68-.05.02-.54-.6-.62-1.05-.66l-.63-.06c.15-.19-.05-.35-.2-.4-.13-.05-.26,0-.37-.02-1.39-.19-3.07-1.53-5.48-1.27.05-.86.85-.13,1.44-1.15.22.08.53-.08.74.02Z"/>
            <path class="cls-1" d="M110.72,36.38c.28.9-.36,3.65.98,4.3.6-.78.4-1.72.98-2.29l.26.06c-.09.53-.29,1.04-.28,1.59-.51.69-.28,1.61-.74,2.63-1.15-1.64-2.83-4.92-1.2-6.28Z"/>
            <path class="cls-1" d="M112.68,37.67v.72c-.58.57-.38,1.52-.98,2.29-1.35-.65-.7-3.39-.98-4.3l.26-.22c.54.19,0,1.81.75,2.3.4-.36.57-.73.95-.8Z"/>
            <path class="cls-1" d="M91.86,33.8c-.43,1.34-.32,2.72-.31,4.1-.11-.02-.19.09-.2.25l-.02,3.11c-.08-.01-.16.02-.24,0l-.52-3.85c-.07-.55.27-1.07,0-1.49l.57-2.1.7-.03Z"/>
            <path class="cls-1" d="M90.59,35.93c.27.41-.08.94,0,1.49l.52,3.85c-.66-.14-.62-2.15-.72-2.88-.06-.24.17-.75-.17-.8.02-.37-.11-.76-.13-1.13,0-.16.1-.33.11-.5l.39-.03Z"/>
            <path class="cls-1" d="M91.34,41.27l.02-3.11c0-.16.09-.28.2-.25l.02,3.84c-.35-.04-.24-.31-.23-.48Z"/>
            <path class="cls-1" d="M90.38,38.39c-.17-.01-.37-.05-.46-.18-.17-.27.2-.46.29-.62.33.05.11.56.17.8Z"/>
            <path class="cls-1" d="M117.73,39.13c-1.11.91-1.76,2.49-2.81,3.56-.45-.26-.54-.78-.6-1.35l-.35-3.25-1.01.37-.26-.06v-.72s.05-.4.05-.4c.11-.04.16-.22.27-.24.29-.05.55-.54.91-.52,1.28.06.3,2.9.99,4.08,1.46-.38,1.39-2.3,2.82-1.45Z"/>
            <path class="cls-1" d="M118,38.9l-.27.23c-1.44-.85-1.36,1.07-2.82,1.45-.68-1.18.29-4.02-.99-4.08-.36-.02-.63.47-.91.52l-.09-.36.12-.9c.53-.01.7-.56.64-1.03l1.11,2.12c.62,1.18,2,1.84,3.21,2.05Z"/>
            <path class="cls-1" d="M113.67,34.74c.06.47-.11,1.01-.64,1.03,0-.44.11-1.05.64-1.03Z"/>
            <path class="cls-1" d="M112.92,36.66l.09.36c-.11.02-.16.21-.27.24-.11-.08-.27-.22-.24-.39s.34-.13.41-.21Z"/>
            <path class="cls-1" d="M90.19,35.55c-.24.07-.29-.21-.3-.41,0-.14.02-.46.26-.4.11.11.2.24.22.4s-.11.28-.18.41Z"/>
            <path class="cls-1" d="M122.14,38.3l-.28.35c-.2.25-.53.18-.79.28-.12-.45-1-.11-1.21-.42-.56-.87-1.73-.76-2.33-1.36-.35-.35.15-1.59-.78-1.79l.39-1.6c.61-.15,1.15.02,1.79-.24,1.69,2.27,2.86,1.9,3.21,4.78Z"/>
            <path class="cls-1" d="M105.04,68.94l-3.58-1.75,1.95-2.5c-.48-1.13-2.03-4.12-.8-4.62,1.1-.45,1.99,1.45,2.85,1.29s3.4-2.85,2.08-4.88c-.71-1.1-1.32-2.31-2.24-3.24l-2.51-2.54c-.36-.37-.25-1.1.1-1.35,1.47-1.04,4.22,3.23,5.55,2.89.25-.06.44-.37.64-.66,1.26-1.83.78-3.95-.02-5.9-.52-1.25-1.23-2.65-2.66-2.52.24-.29.63-1.19,1.23-.86,2.93,1.61,3.61,7.43,3.51,7.76l-1.21,3.68c-.08.24.24.61.08.81-.35.43-1.44-.4-1.85.04-1.11,1.22,1.77,3.98,1.86,7.59.03,1.02-1.15,2.31-2.09,2.54-1.12.27-1.95-2.1-3.28-1.17-1.09.76,2,4.85.39,5.38Z"/>
            <path class="cls-1" d="M101.18,67.16c-2.73-.75-5.43-1.16-8.41-.91-.4.03-1.08-.18-1.01.38-.54,0-1.09-.06-1.62-.1-.4-.03-.8-.06-1.2-.06h-.96l.48-.48c4,.42,7.82-1.46,12.72,1.18Z"/>
            <path class="cls-1" d="M88.02,65.92c-.94.14-1.99.06-2.95-.4-.36-.17-.15-.72-.15-.95.48-.19.23-.87.42-1.22.67-1.25.98-2.74,1.3-4.24.69-3.26,1.98-6.08,3.52-8.89.77.32,2.75,3.88,3.21,5.16.38,1.05,1.33,1.9,1,3.21-.89-.3-3.64-7.81-4.84-5.23-1.86,3.97-2.13,8.32-1.5,12.55Z"/>
            <path class="cls-1" d="M98.3,52.09l.36-.22c.07-.04-.24-.43-.38-.53-1.73-1.25-3.66-1.88-5.55-2.63-.08-.14.13-.18.33-.3,3.46,1.17,6.87,2.76,9.49,5.42-1.73-.08-3.15-.89-4.25-1.75Z"/>
            <path class="cls-1" d="M97.62,52.04c-.44-.03-1.07-.12-1.05-.66.45.04,1.07.12,1.05.66Z"/>
            <path class="cls-1" d="M95.95,51.32c-.17-.02-.35.04-.52-.11-.1-.08-.17-.18-.05-.31.11.02.24-.03.37.02.15.05.35.21.2.4Z"/>
            <path class="cls-1" d="M112.66,40.03c-.01-.54.19-1.06.28-1.59l1.01-.37.35,3.25c.06.56.16,1.08.6,1.35.05.88-2.16,3.13-.56,2.91-.7,2.14-1.21,4.34-1.49,6.69l-.67,5.56c-.34,2.81-.55,5.64-.04,8.56-.3.75-.93,1.26-.89,2.03-.3-.12-.33.33-.48.39-1.17-.11.33,4.46-.96,5.98-.2-.08-.37-.22-.47-.41.33-1.66-3.88-5.24-4.31-5.45,1.61-.53-1.48-4.62-.39-5.38,1.33-.93,2.16,1.45,3.28,1.17.94-.23,2.11-1.52,2.09-2.54-.1-3.61-2.98-6.37-1.86-7.59.41-.45,1.5.39,1.85-.04.16-.2-.15-.57-.08-.81l1.21-3.68c.11-.32-.57-6.14-3.51-7.76-.6-.33-.99.57-1.23.86-1.37.77-2.65,2.19-4.01,2.34,1.34-.99,1.91-2.31,2.66-3.52,1.27-.2,3.33-5.21,4.25-4.75-.34,1.21,2.16,6.33,3.16,7.53.53-1.12.02-2.16.22-3.25.1-.55.5-1.12-.02-1.47Z"/>
          </g>
        </g>
      </g>
      <g>
        <path class="cls-1" d="M8.96,134.59C5.81,125.73-.47,104.07.03,95.25c.81.14,1.62-.16,2.52-.18l10.28-.16c1.14-.02,2.08-.19,3.22.01,1.61.29,3.27-.03,4.92.13l7.51.72c2.46.24,4.83.61,7.22,1.13,5.51,1.19,10.02,1.3,15.47,2.76,2.15.58,4.34.79,6.29,1.86.99.54,2.3,1.24,2.76,2.22.71,1.52-.71,2.56-1.52,3.49-1.79,2.07-5.26,7.15-6.33,9.67l-1.6,3.77-.68,3.19c-.58,2.7-.53,7.23-4.33,9.12s-10.96,1.37-15.07,1.33l-2.27-.02c-2-.02-3.91-.14-5.95-.13l-10.09.04c-1.21,0-2.39.12-3.42.39Z"/>
        <path class="cls-1" d="M147.04,85.91l-1.2,29.37c-7.06,4.34-14.03,9.02-20.94,13.8l-27.19,18.8c-.48.38-.87.6-1.35.68-.22-5.51-.18-11.05.12-16.57,4.17,1.19,9.92-.4,13.93-2.34-.11-3.49.36-6.82,1.11-10.1.14.13.46-.02.48-.21h.48c0,.26.33.19.26-.05,2.43-.44,4.96-.96,6.89-2.69,1.19-1.06,2.19-2.43,2.32-4.02.07-.88-.94-1.44-1.07-2.26-.44-2.66,5.16-1.95,7.01-5.82.81-1.7.27-3.66.16-5.37,0-.12-.02-.38-.22-.27-.02-.06-.02-.13-.02-.2,0-.16-.05-.32-.04-.48.1-1.19-.6-2.23-.73-3.41l14.54-6.71,5.48-2.14Z"/>
        <path class="cls-1" d="M73.82,99.27c-1.34.4-3.74-.62-4.94-.17,3.84,1.97,14.58,3.89,17.34,6.33,1.05.92.98,2.64.93,3.83-.1,2.41-.94,4.31-1.65,6.52-.85,2.63-1.78,5.11-2.89,7.66l-2.42,5.58c-1.42,3.26-2.64,6.58-5,9.37-.7.82-1.82,1.21-2.59,1.95-.39.38-.7.83-1.33.9-1.63.18-3.21.76-4.88.83-2.19.1-5-.03-7.43-.04-5.14-.03-10.16.11-15.18,1.18-.41.09-.78.19-.88.51l-19.26-2.89c-.1-.75,5.21-.7,6.03-.65,1.18.06,2.25-.12,3.38-.22l2.87-.25,2.64-.19c1.34-.1,2.54-.28,3.84-.47l3.19-.45c5.08-.71,10.42-1.12,13.89-4.94.82-.9,1-2.3,1.67-3.33l1.76-2.73c.99-1.53,1.69-3.16,2.43-4.86l2.53-5.8,1.48-3.67c.85-2.11,2.09-4.15,2.24-6.48.12-1.88-1.33-2.84-2.77-3.67-4.51-2.6-14.3-4.87-19.47-5.7l-6.01-.97-10.4-1.53-5.95-.75-7.17-.53c-3.73-.28-8.28-.46-12-.24l-3.86.24c-1.33.08-2.6.37-3.85.19.05-.91.02-1.63.46-2.4,6.53.17,13,.34,19.65,1.07l33.19,3.63,17.7,2.53c.98.14,1.9.31,2.71.59Z"/>
        <path class="cls-1" d="M24.7,88.58c.47.02,1.14.15,1.62.2l9.36.93,7.91.95,14.85,2.01,6.76.94,9.84,1.43c5.71.83,11.37,1.97,17.02,3.14,1.93.4,3.79,1.14,5.74,1.43l1.47.73c-.02.74-.07,1.31-.15,1.88-1.41,9.85-2.11,19.83-2.64,29.77-.3,5.51-.34,11.05-.12,16.57-.13.26-.35.5-.66.7l-4.99,3.2c-.69.44-1.7.12-2.51-.06l-16.74-3.6c-.71-.18,3.27-1.01,3.5-1.06,2.17-.47,4.35-1.15,5.99-2.59,2.1-1.84,3.47-8.01,3.92-10.78s1.18-5.11,1.82-7.7l.57-2.33,1.07-4.23c.22-.89.49-1.69.77-2.57.42-1.29.41-2.64,1.28-3.72l.41,1.39c.46-3.83,1.03-7.62,1.77-11.53.06-.33-.01-.77-.17-.96-.13-.16-.46-.25-.81-.31l-15.12-2.82c-.31-.06-.65.04-.96-.05-.07-.03-.18.02-.24-.03-.34-.26-.79-.17-1.2-.21-.07,0-.17-.05-.24-.03-.81-.28-1.73-.45-2.71-.59l-17.7-2.53-33.19-3.63c-6.64-.73-13.11-.9-19.65-1.07.29-.52.36-.81.97-1.23,1.76-1.22,3.49-1.86,5.68-2.01,5.89-.43,11.68.09,17.48.38Z"/>
        <path class="cls-1" d="M23.64,140.84c-1.59-.24-12.67-1.47-13.29-2.45-.76-1.21-.95-2.57-1.39-3.79,1.03-.27,2.21-.38,3.42-.39l10.09-.04c2.04,0,3.95.11,5.95.13l2.27.02c4.11.04,11.45.48,15.07-1.33,3.8-1.9,3.76-6.42,4.33-9.12l.68-3.19,1.6-3.77c1.07-2.52,4.54-7.6,6.33-9.67.81-.94,2.23-1.97,1.52-3.49-.46-.98-1.77-1.68-2.76-2.22-1.95-1.07-4.14-1.28-6.29-1.86-5.46-1.47-9.97-1.57-15.47-2.76-2.39-.52-4.76-.89-7.22-1.13l-7.51-.72c-1.65-.16-3.3.16-4.92-.13-1.14-.2-2.08-.03-3.22-.01l-10.28.16c-.9.01-1.71.32-2.52.18l.08-1.4c1.25.18,2.53-.11,3.85-.19l3.86-.24c3.72-.23,8.28-.04,12,.24l7.17.53,5.95.75,10.4,1.53,6.01.97c5.17.83,14.97,3.1,19.47,5.7,1.44.83,2.89,1.79,2.77,3.67-.15,2.33-1.39,4.37-2.24,6.48l-1.48,3.67-2.53,5.8c-.74,1.69-1.44,3.32-2.43,4.86l-1.76,2.73c-.67,1.03-.85,2.43-1.67,3.33-3.47,3.82-8.81,4.23-13.89,4.94l-3.19.45c-1.3.18-2.51.37-3.84.47l-2.64.19-2.87.25c-1.13.1-2.2.28-3.38.22-.82-.04-6.13-.1-6.03.65Z"/>
        <path class="cls-1" d="M73.82,99.27c.07-.02.17.02.24.03.13.51.81.26,1.2.21.06.04.17,0,.24.03.07.17.21.28.37.3.24.03.59.04.59-.25l15.12,2.82c.35.06.68.15.81.31.16.19.23.63.17.96-.73,3.91-1.3,7.7-1.77,11.53l-.41-1.39c-.88,1.08-.86,2.42-1.28,3.72-.29.88-.55,1.69-.77,2.57l-1.07,4.23-.57,2.33c-.63,2.59-1.39,5.04-1.82,7.7s-1.82,8.94-3.92,10.78c-1.65,1.44-3.82,2.12-5.99,2.59-.23.05-4.21.88-3.5,1.06-2.3-.49-4.79-.55-7.12-1.36-.4-.14-.67-.1-1.09-.18l-20.34-3.53c.1-.32.47-.42.88-.51,5.02-1.07,10.04-1.21,15.18-1.18,2.43.01,5.24.14,7.43.04,1.67-.08,3.25-.65,4.88-.83.62-.07.93-.52,1.33-.9.77-.74,1.89-1.13,2.59-1.95,2.36-2.79,3.59-6.11,5-9.37l2.42-5.58c1.11-2.55,2.04-5.03,2.89-7.66.71-2.21,1.56-4.11,1.65-6.52.05-1.19.12-2.91-.93-3.83-2.76-2.43-13.5-4.35-17.34-6.33,1.2-.45,3.6.57,4.94.17Z"/>
        <path class="cls-1" d="M112.46,119.33l.26-.05c.07.24-.26.31-.26.05Z"/>
        <path class="cls-1" d="M75.26,99.51c-.39.05-1.07.3-1.2-.21.41.04.86-.05,1.2.21Z"/>
        <path class="cls-1" d="M76.46,99.59c0,.29-.36.28-.59.25-.16-.02-.3-.13-.37-.3.31.08.65-.01.96.05Z"/>
      </g>
      <g>
        <g>
          <path class="cls-1" d="M110.78,68.82c3.3,2.61,7.22,2.03,10.82,1.05.47.1.67.65,1.26,1.65.22.37.37.67.78.66s.74-.38,1.07-.31l5.75,1.34c1.59.75,3.34,1.16,5.04,1.66,2.1.61,4.2,1.22,6.42,2.11l-.36,11.07-14.54,6.71c-.02-.21-.23-.47-.14-.71,1.49-1.54,1.84-3.8,1.12-5.79-.39-1.07-1.24-1.85-2.36-2.34.9-.09,1.95.92,2.83.27.24-.18.59-.82.17-1.14-2.65-2.02-5.76-3.14-9.01-3.74l-3.24-.61c-.33-.06-.59-.06-.74.13-1.09,1.32,7.44,3.53,7.81,4.56-.9-.15-10.49.1-12.87.01-.25,0-.5-.27-.76-.24-.49-.8-.68-1.92-.48-2.88-.03.01.45.05.45-.06l.03-7.44c1.3-1.52-.2-6.09.96-5.98ZM122.32,75.02l9.86,2.22c-2.19-.7-7.31-2.26-9.86-2.22ZM119.07,77.41c-.35-.09-.65-.47-.6-.72s.32-.67.69-.63c2.24.23,9,2.21,11.52,3.03.35-.56.45-.96.44-1.56-2.1-.51-4.07-1.21-6.21-1.46-2.94-.35-5.71-1.47-8.06-.89-1.02.25-4.22,1.85-3.03,3.58.56.81,4.09.87,5.35.96,3.41.25,6.43,1.73,9.65,2.72,1.07.33,2.1.25,3.05,1.17.18.17.61.32.82.28.26-.04.79-.15.64-.6-.07-.22-.35-.43-.35-.6,0-.1.25-.17.27-.37-4.37-2.84-9.1-3.53-14.2-4.92Z"/>
          <path class="cls-1" d="M135.5,74.87c-1.7-.5-3.45-.91-5.04-1.66.04.01,5.66.91,5.04,1.66Z"/>
          <path class="cls-1" d="M119.07,77.41c5.1,1.39,9.83,2.08,14.2,4.92-.02.2-.27.26-.27.37,0,.17.28.38.35.6.15.45-.38.56-.64.6-.21.03-.64-.11-.82-.28-.95-.92-1.98-.84-3.05-1.17-3.23-.99-6.24-2.47-9.65-2.72-1.26-.09-4.78-.15-5.35-.96-1.19-1.72,2.01-3.32,3.03-3.58,2.35-.58,5.11.54,8.06.89,2.14.25,4.12.95,6.21,1.46,0,.6-.1,1-.44,1.56-2.52-.82-9.28-2.8-11.52-3.03-.37-.04-.64.38-.69.63s.25.62.6.72Z"/>
          <path class="cls-1" d="M122.32,75.02c2.55-.04,7.67,1.52,9.86,2.22l-9.86-2.22Z"/>
          <path class="cls-1" d="M125.64,85.94c-.61-.26-1.52-.42-2.18-.53-.37-1.03-8.9-3.24-7.81-4.56.16-.19.41-.19.74-.13l3.24.61c3.24.61,6.35,1.72,9.01,3.74.42.32.07.96-.17,1.14-.89.65-1.93-.36-2.83-.27Z"/>
          <path class="cls-1" d="M109.82,74.8l-.03,7.44c0,.12-.48.08-.45.06.36-1.72.49-6.14-.25-7.92h.26c.1.19.27.33.47.41Z"/>
        </g>
        <path class="cls-1" d="M90.43,45.36c.02,1.11-.12,2.3-.92,3.26-1.24,4.49-4.19,10.31-4.17,14.73-.19.35.06,1.03-.42,1.22,0-.63-.2-1.87-.05-2.63l1.45-7.48c.43-2.2,1.21-4.51,2.33-6.55.42-.76,1.9-1.1,1.06-2.48.32-.09.52-.09.71-.07Z"/>
        <g>
          <path class="cls-1" d="M147.04,85.91l-5.48,2.14.36-11.07c-2.22-.89-4.32-1.5-6.42-2.11.62-.74-5-1.65-5.04-1.66l-5.75-1.34c.14-.87.4-1.7.71-2.52.24-.19.44-.43.52-.73.02-.08.01-.16.02-.24.1-.04.19-.13.22-.24.02-.09.02-.18.02-.27,2.32-3.24,3.16-9.5,3.23-13.44,0-.38.08-.77.03-1.15.78-1.63,1.01-3.44,1.29-5.21.53-.09,1.26.1,1.43-.53.17-.06.34-.14.49-.23-.02.92-.57,1.43-1.12,2.22-.95,1.37-.99,3.18-1.18,4.82-.35,2.98-.05,5.92.46,8.84s5.95,9.25,8.56,6.88c1.32-1.2,1.67-3.11,2.19-4.75.58-1.82,1.23-3.48,2.07-5.31l.18,3.33c1.61-9.16,3.84-18.3,6.24-27.59-.97-1.06-2.2-1.37-3.27-1.91-4.45-2.22-12.97-4.16-18.05-5.25-.07-.02.07-.37.11-.34,6.33,1.06,18.51,3.72,23.85,7.05,1.27.79,1.29,1.6,1.01,2.95-3.22,15.81-6.02,31.66-6.67,47.66ZM143.53,64.54c.21-.57.23-.84-.04-.98-.1.43-.15.72.04.98Z"/>
          <path class="cls-1" d="M85.42,34.48c.4.23.42.7.7,1.01-.81,1.15.2,3.93-.02,6.02-.54,5.11-2.11,9.84-4.21,14.46-1.84,4.07-5.76,1.43-7.13,2.34-.32.02-.64-.05-.96-.08,0-.22.01-.46-.12-.65-.12-.18-.36-.25-.58-.26l-1.78-16.51c-.14-1.31-.23-2.46-.15-3.64,2.66-.86,5.38-1.42,8.2-1.94,1.6-.29,3.09-1,4.75-.66.48.1,1.01.28,1.31-.1Z"/>
          <path class="cls-1" d="M128.85,28.26s-.18.32-.11.34c5.08,1.1,13.6,3.04,18.05,5.25.11.41-.67.63-.64,1l.26,2.94c.16,1.84-.71,3.53-1.47,5.19l-2.79,7.31-1.92,4.59-3.51,9.64c-.16.43-.52.73-.87.79-.42.07-.82-.32-1.2-.64-2.38-2.04-3.84-9.52-2.58-12.4.41-.94.53-2.02,1.16-2.92.82-1.16.98-2.47.82-3.79,1.02.73.61,2.4-.07,3.51-1.11,1.82-1.4,4.59-.1,5.07.93.35,1.56-.57,2.17-1.04,1.4-1.08,2.28-2.49,3.24-4l1.39-2.17c1.36-2.12,3.22-7.05,3.88-8.21.42-.73-.25-1.96-.98-2.48-2.91-2.05-6.34-2.98-9.79-3.81-1.67-.4-3.24-.84-4.94-1.08-.69-.1-1.21-.23-1.37-.92l-.82,1.48c-.82.56-3.65,2.87-3.7,3.79-1.78-.15,1.75-2.88,2.28-3.52,1.97-2.35.8.73,3.22-4.61h.36c-.08.18.07.46.05.67Z"/>
          <path class="cls-1" d="M84.59,31.39c.26,1.01,2.82,5.46,3.58,6.11.04.4.2.77.29,1.16-.62-.1-1.23-1.89-2.35-3.16-.27-.31-.29-.78-.7-1.01-.32-.18-.05-1.3-.78-1.24-3.79.31-6.36,1.4-9.72,1.68-.62.05-1.06.44-1.56.1,2.69-1.41,5.67-2.22,8.63-3.33.27-.1.28-.32.23-.5.78.09,1.58.31,2.38.2Z"/>
          <path class="cls-1" d="M85.42,34.48c-.3.38-.83.2-1.31.1-1.66-.34-3.15.37-4.75.66-2.82.51-5.54,1.08-8.2,1.94.04-.67-.16-1.39.85-1.63.37-.09.97-.73,1.35-.53.51.34.94-.05,1.56-.1,3.36-.28,5.93-1.37,9.72-1.68.73-.06.46,1.06.78,1.24Z"/>
          <path class="cls-1" d="M73.79,58.25c-.22-.02-.45.08-.68.08-.09-.33.01-.67-.02-1,.22.01.46.07.58.26.13.2.13.44.12.65Z"/>
          <path class="cls-1" d="M132.67,47.31c.01-.64.8-1.29.28-2.07-.91-1.38-2.89-1.66-4.28-.79-1.69,1.05-.9-1.45-7.81-1.74.05-.46-.52-.41-.9-.54-.96-.33-1.54-1.16-2.41-1.4.35-.33.53-1.09,1.13-1.17,4.02-.34,1.02.27,5.31,1.95,1.7.67,3.26,1.43,5.16,1.58,4.97.41,4.46,2.11,4.91,2.44.16,1.31,0,2.62-.82,3.79-.64.9-.75,1.98-1.16,2.92-1.26,2.88.2,10.36,2.58,12.4.37.32.78.71,1.2.64.35-.06.71-.37.87-.79l3.51-9.64,1.92-4.59,2.79-7.31c.76-1.66,1.64-3.34,1.47-5.19l-.26-2.94c-.03-.36.75-.58.64-1,1.07.53,2.3.84,3.27,1.91-2.4,9.29-4.63,18.43-6.24,27.59l-.18-3.33c-.84,1.83-1.49,3.49-2.07,5.31-.52,1.64-.87,3.55-2.19,4.75-2.61,2.37-8.07-4.03-8.56-6.88s-.81-5.86-.46-8.84c.19-1.64.23-3.45,1.18-4.82.55-.79,1.1-1.3,1.12-2.22Z"/>
          <path class="cls-1" d="M143.53,64.54c-.19-.25-.14-.55-.04-.98.28.14.26.41.04.98Z"/>
          <path class="cls-1" d="M88.46,38.66c.02.07,0,.15.02.22.04.11.12.24.26.23.3.31.27.9.47,1.23-.24-.03-.54-.05-.69.15-.17.22-.18.51-.22.85-.38,3.19-1.47,6.12-2.62,9.11-1.01,2.64-1.93,5.24-3.52,7.58-.46.68-1.5,1.24-2.2,1.6s-1.62-.03-2.11.62l-3.1-1.91c1.37-.91,5.29,1.73,7.13-2.34,2.1-4.63,3.67-9.36,4.21-14.46.22-2.1-.79-4.88.02-6.02,1.12,1.27,1.73,3.06,2.35,3.16Z"/>
          <path class="cls-1" d="M134.06,45.56c-.45-.32.06-2.03-4.91-2.44-1.9-.15-3.45-.91-5.16-1.58-4.29-1.68-1.29-2.29-5.31-1.95.13-.1.19-.39.21-.54.73.13,1.48.15,2.18-.13.25-.1.59-.03.79-.28.4.02.77.17,1.11.5.63.64,1.51.71,2.25,1.14,2.46,1.43,5.27,1.82,8.14,1.7,1.61-.07,3.31.3,4.83-.26,1.4-.51,4.71-4.48,2.74-5.65-.95-.57-2.08-1.14-3.16-1.39l-3.71-.84c-2.32-.52-4.51-1.09-6.85-1.35-.34-.04-.54-.37-.54-.58l.82-1.48c.16.69.69.82,1.37.92,1.7.24,3.27.68,4.94,1.08,3.46.83,6.88,1.76,9.79,3.81.73.52,1.4,1.74.98,2.48-.66,1.16-2.52,6.08-3.88,8.21l-1.39,2.17c-.96,1.51-1.84,2.92-3.24,4-.61.47-1.23,1.39-2.17,1.04-1.3-.48-1.01-3.25.1-5.07.68-1.11,1.09-2.78.07-3.51Z"/>
          <path class="cls-1" d="M89.21,40.33c.7.8,1.08,1.81,1.74,2.77.52.76.94-.18.85,2.27-.06,0-.12.05-.18.05-.39,0-.79-.02-1.18-.06-.19-.02-.39-.02-.71.07.83,1.37-.65,1.71-1.06,2.48-1.11,2.04-1.9,4.35-2.33,6.55-.43-.03-.64.49-.82.91-.97,2.23-2.15,4.25-3.74,6.1-.47.55-.58,1.12-.21,1.66-.65-.3-1.06-.99-1.76-1.21-.09-.03-.17-.15-.25-.21-.06-.08-.12-.27-.23-.29-.28-.04-.49-.37-.75-.42-.25-.23-.44-.57-.72-.75.49-.66,1.41-.25,2.11-.62s1.73-.92,2.2-1.6c1.59-2.34,2.51-4.94,3.52-7.58,1.14-2.99,2.24-5.92,2.62-9.11.04-.34.05-.63.22-.85.15-.2.45-.18.69-.15Z"/>
          <path class="cls-1" d="M86.33,54.45l-1.45,7.48c-.15.76.05,2,.05,2.63,0,.23-.21.78.15.95.96.46,2,.54,2.95.4.14-.02.3.05.44.07l-.48.48c-1.88,0-2.21-.58-3.77-.79-.02-.06-.02-.13-.02-.19-.02-.2-.22-.32-.35-.41.34-.02-2.3-1.96-2.27-1.95-.36-.54-.25-1.11.21-1.66,1.59-1.85,2.77-3.87,3.74-6.1.18-.42.39-.94.82-.91Z"/>
          <path class="cls-1" d="M120.86,42.71c-1.28-.05-2.65.32-3.83.68-.45.14-.98.05-1.43.05.54-.98,1.15-1.9,1.96-2.67.87.24,1.45,1.07,2.41,1.4.38.13.95.08.9.54Z"/>
          <path class="cls-1" d="M88.74,39.1c-.13.01-.22-.11-.26-.23.1.06.18.14.26.23Z"/>
          <path class="cls-1" d="M121.85,38.65l.28-.35c.9-.22,1.86-.46,2.6-1.41l-2.23-.49c.3-.19.43-.4.44-.69.04-.91,2.88-3.23,3.7-3.79,0,.21.2.54.54.58,2.35.25,4.54.82,6.85,1.35l3.71.84c1.08.24,2.22.82,3.16,1.39,1.96,1.17-1.35,5.14-2.74,5.65-1.51.56-3.22.19-4.83.26-2.87.12-5.68-.27-8.14-1.7-.74-.43-1.62-.5-2.25-1.14-.34-.34-.71-.49-1.11-.5Z"/>
          <path class="cls-1" d="M79.56,61.7c-.1-.07-.15-.2-.23-.29.12.02.17.21.23.29Z"/>
        </g>
        <g>
          <path class="cls-1" d="M120.86,42.71c6.91.28,6.12,2.79,7.81,1.74,1.39-.87,3.37-.58,4.28.79.52.78-.27,1.43-.28,2.07-.16.09-.32.17-.49.23l-.07-1.47c0-.2.33-.3.08-.5-.84-.67.08.32-2.96.56-1.08.08-1.39,1.51-.89,2.39-.27,3.87-2.62,7.01-6.12,8.54-1.43.63-2.83,1.31-4.49,1.24-.93-.04-1.76-1.05-1.82-2.03-.22-3.47-.19-7.67.78-11.03.19-.66.49-1.21.34-1.85,1.18-.36,2.56-.73,3.83-.68Z"/>
          <path class="cls-1" d="M129.46,53.28c.06.38-.02.77-.03,1.15-.23-.02-.5,0-.65.13-.38.31-.32,2.04-.32,2.06-.88-.67-3.75,3.2-4.61,1.93-.2-.3-.17-.91.17-1.19,1.67-1.42,3.75-3.91,4.53-5.77.11-.1.38-.11.46-.25.13.47-.15.92-.14,1.46,0,.3.42.41.59.48Z"/>
          <path class="cls-1" d="M129.43,54.44c-.07,3.94-.91,10.2-3.23,13.44.05-1.35.92-2.49,1.08-3.83-.1.81,1.31-4.96.8-3.56.45-1.24.57-2.53.39-3.86,0-.02-.06-1.75.32-2.06.15-.12.42-.15.65-.13Z"/>
          <path class="cls-1" d="M127.27,64.05c-.16,1.34-1.03,2.47-1.08,3.83,0,.09,0,.18-.02.27-.13.02-.2.12-.22.24,0,.08,0,.16-.02.24-.19-.04-.46.05-.56.27-.06.14-.35.42.04.45-.32.82-.57,1.65-.71,2.52-.32-.08-.67.3-1.07.31s-.56-.29-.78-.66c.03-.09.08-.18.15-.24.33.23.55-.13.78-.18.71-.16.38-.97.39-1.55.23-.53.4-1.38.77-1.85,1.24-1.56,1.49-3.08,2.32-3.64Z"/>
          <path class="cls-1" d="M132.11,46.08l.07,1.47c-.17.63-.9.43-1.43.53-1.27.23.12.01-1.74,3.27-.08.14-.35.15-.46.25-.21.07-.21-.27-.17-.43,1.95-3.73-.5-3.57,3.73-5.09Z"/>
          <path class="cls-1" d="M130.75,48.07c-.28,1.78-.51,3.59-1.29,5.21-.17-.07-.58-.18-.59-.48,0-.54.28-.99.14-1.46,1.86-3.26.46-3.05,1.74-3.27Z"/>
          <path class="cls-1" d="M125.94,68.63c-.08.3-.28.54-.52.73-.39-.04-.1-.32-.04-.45.1-.22.37-.32.56-.27Z"/>
          <path class="cls-1" d="M125.96,68.39c.01-.12.09-.22.22-.24-.02.11-.11.2-.22.24Z"/>
          <path class="cls-1" d="M111.26,68.43c2.2,1.28,4.36,2.07,6.93,1.43.45.31,1.31.4,1.71-.04h.96c.24,0,.5,0,.74.04-3.6.98-7.52,1.56-10.82-1.05.15-.06.18-.51.48-.39Z"/>
          <path class="cls-1" d="M123.02,71.27c-.07.07-.12.15-.15.24-.59-1-.8-1.55-1.26-1.65-.24-.05-.5-.04-.74-.04.21-.5,1.05-.42,1.43.02s.46,1.01.73,1.43Z"/>
          <path class="cls-1" d="M117.03,43.39c.15.64-.15,1.19-.34,1.85-.97,3.36-1,7.56-.78,11.03.06.98.89,2,1.82,2.03,1.66.07,3.05-.61,4.49-1.24,3.5-1.53,5.85-4.68,6.12-8.54-.5-.88-.19-2.3.89-2.39,3.04-.23,2.12-1.22,2.96-.56.25.2-.09.3-.08.5-4.23,1.52-1.77,1.36-3.73,5.09-.05.15-.04.5.17.43-.78,1.86-2.87,4.35-4.53,5.77-.33.28-.37.9-.17,1.19.86,1.27,3.73-2.6,4.61-1.93.18,1.33.06,2.62-.39,3.86-.26-.02-.38.14-.45.47-.41,1.76-1.23,3.51-2.85,4.4-1.94,1.07-4.22,2.11-6.45,1.44-1.18-.36-1.94-1.95-2.39-3.1-1.39-3.49-1.82-7.31-1.44-11.03l.47-4.67c.09-.92.21-1.88.03-2.69-.03-.14.37-.42.32-.57-.04-.11.1-.39-.19-.35.1-.4.31-.61.49-.95.46,0,.99.09,1.43-.05ZM120.03,64.6c4.56.82,6.83-4.11,5.88-4.78-.18-.12-.62-.2-.88-.01-1.68,1.23-3.41,2.21-5.28,3.11-.41.2-.69.62-.55.96.09.22.38.63.84.72Z"/>
          <path class="cls-1" d="M128.08,60.49c.51-1.4-.9,4.37-.8,3.56-.83.56-1.08,2.08-2.32,3.64.34-.83-1.81.57-2.89.62-1.16.05-2.43.18-3.55-.03-4.41-.85-5.27-7.73-5.64-11.25l-.68.81.67-5.56c.28-2.35.79-4.55,1.49-6.69.13-.39.65-.8.75-1.21.29-.04.15.24.19.35.05.14-.35.42-.32.57.18.81.06,1.78-.03,2.69l-.47,4.67c-.37,3.71.06,7.54,1.44,11.03.46,1.15,1.21,2.74,2.39,3.1,2.23.67,4.51-.36,6.45-1.44,1.63-.9,2.44-2.65,2.85-4.4.08-.33.19-.49.45-.47Z"/>
          <path class="cls-1" d="M124.95,67.69c-.37.47-.53,1.32-.77,1.85-.67.19-.46.94-.39,1.55-.22.05-.45.41-.78.18-.27-.42-.34-.99-.73-1.43s-1.22-.52-1.43-.02h-.96c-.54-.61-1.18-.1-1.71.04-2.57.64-4.73-.16-6.93-1.43-.04-.77.59-1.28.89-2.03-.51-2.92-.29-5.75.04-8.56l.68-.81c.36,3.51,1.23,10.4,5.64,11.25,1.12.22,2.39.09,3.55.03,1.09-.05,3.24-1.45,2.89-.62Z"/>
          <path class="cls-1" d="M124.19,69.54c0,.59.32,1.39-.39,1.55-.07-.61-.29-1.36.39-1.55Z"/>
          <path class="cls-1" d="M119.9,69.83c-.4.44-1.26.35-1.71.04.53-.13,1.17-.64,1.71-.04Z"/>
          <path class="cls-1" d="M120.03,64.6c-.46-.08-.75-.5-.84-.72-.13-.34.15-.77.55-.96,1.88-.91,3.6-1.88,5.28-3.11.26-.19.7-.11.88.01.95.67-1.32,5.6-5.88,4.78Z"/>
        </g>
      </g>
    </g>
  </g>
</svg>