<?xml version="1.0" encoding="UTF-8"?>
<svg id="Layer_2" data-name="Layer 2" xmlns="http://www.w3.org/2000/svg" viewBox="0 0 60.18 79.37">
  <defs>
    <style>
      .cls-1 {
        fill: #6cbe45;
      }

      .cls-2 {
        opacity: .8;
      }
    </style>
  </defs>
  <g id="Layer_1-2" data-name="Layer 1">
    <g class="cls-2">
      <g>
        <path class="cls-1" d="M38.79,12.22c2-.05,2.99.69,4.56,1.24-.59-.02,2.95,1.75,2.88,1.71,1.5.81,4.69,3.47,5.77,4.78,1.23,1.49,2.14,3.04,3.12,4.55.16.24.14.55-.04.79-.09.13-.42.16-.58.33-2.29,2.43-4.85,4.27-7.74,5.96-1.87,1.09-3.78,1.96-5.39,3.26-2.62,1.26-5.33,2.43-8.14,3.19-.51-1.38-.94-2.94-1.78-4.24-.4-.63-1.55.23-1.74.69l-1.18.6c-.14-.86-.37-1.82-.79-2.62-1.25-6.04-2.28-11.79-3.75-18l1.11-.68c.15-.04.31-.02.45-.06l4.35-1.19c.59-.16,1.46-.13,2.18-.15l6.7-.16ZM37.95,18.38c-.79,1.25-1.44,2.38-1.5,3.85.6-1.25,1.48-2.29,1.5-3.85Z"/>
        <path class="cls-1" d="M45.99,2.24c-.13.2-.35.41-.44.73-.74,2.82-1.85,5.41-2.98,8.1-.22.53.74.65,1.04.75,3.5,1.18,2.11-.97,6.15-1.57l-1.85-4.94c1.14,1.39,1.99,3.08,2.73,4.75,1.09,2.44,1.87,5.05,3.2,7.3-.01-.16,1.32,5.08,1.48,5.49.19.48.12,1.14.24,1.64h-.44c-.99-1.53-1.9-3.07-3.12-4.57-1.07-1.31-4.27-3.97-5.77-4.78.51-.39-2.7-1.65-2.88-1.71-1.57-.55-2.56-1.29-4.56-1.24-.8-.82-7.98-.37-8.88.31l-4.35,1.19c1.64-1.85,3.64-3.37,5.81-4.93,1,.93,2.07,1.07,3.31,1.21.64.07,1.22.34,1.92.45l4.07.59c1.49.22,2.22-3.58,2.36-4.7.19-1.5,1.82-4.04,1.74-5.14.82-.48.81.58,1.22,1.04Z"/>
        <path class="cls-1" d="M44.78,1.2c.08,1.1-1.55,3.64-1.74,5.14-.14,1.13-.87,4.92-2.36,4.7l-4.07-.59c-.7-.1-1.28-.37-1.92-.45-1.24-.14-2.3-.28-3.31-1.21-2.17,1.56-4.17,3.08-5.81,4.93-.15.04-.31.03-.45.06l-.45-.06c.05-.94,4.08-3.71,5.21-4.61,1.9-1.51,3.8-2.83,5.82-4.02.1-.02.33.03.25-.17.07,0,.15.01.22.01,1.2.02,7.2-2.92,8.63-3.75Z"/>
        <path class="cls-1" d="M55.32,22.87c-.17-.42-1.49-5.65-1.48-5.49-.09-1.38-1.92-6.58-3.2-7.3-.74-1.66-1.59-3.35-2.73-4.75-.43-1.14-1.11-2.17-1.92-3.09-.4-.46-.4-1.52-1.22-1.04-1.43.83-7.43,3.77-8.63,3.75.83-1.19,6.6-4.04,8.25-4.8.42-.19,1.37-.21,1.74,0,4.36,5.24,7.16,12.87,8.62,19.48.25,1.14.69,2.17.57,3.25Z"/>
        <path class="cls-1" d="M23.67,13.95c-.27.78-.29,1.59-.09,2.49l1.23,5.69c-1.12.01-2.45-.25-3.13-1.29-.37-.57.13-1.39-.41-1.77-.27.1-.57.22-.79.15-.31-.11-.42-.53-.45-.89-.07-.93.68-1.37,1.19-2,.67-.82,1.23-1.68,1.71-2.53.29.03.5-.03.75.17Z"/>
        <path class="cls-1" d="M56.3,30.78c-.31-.45-.5-.81-.67-1.21-.02-.6-.32-.54-.3,0-.02.16-.04.24-.03.28-.72.21-.21.97-1.57,1.39-.39.12-.78-.07-1.01-.47.11-.75-.27-1.72.21-2.2.99-1,2.4-1.54,2.92-2.82l.47-.22c.42.2.48.69.68,1.17l.98,2.42c.24.59.06,1.08-.44,1.51-.3.26-.73.38-1.23.14Z"/>
        <path class="cls-1" d="M22.92,13.79c-.47.84-1.04,1.71-1.71,2.53-.51.63-1.26,1.07-1.19,2,.03.37.13.78.45.89.22.08.52-.04.79-.15-.5.82-1.74,2.49-2.85,1.73s1.09-3.68,1.91-4.36c-.53-.24-1.22.16-1.66-.13-.68-.57-.16-1.58.56-1.94,1.23-.61,2.44-.74,3.69-.59Z"/>
        <path class="cls-1" d="M55.56,24.52c.09.4-.14.91.27,1.24-.51,1.28-1.92,1.83-2.92,2.82-.47.47-.09,1.45-.21,2.2-.04.25.07.51,0,.96-.48.19-.1-2.07-.3-2.72-2.07,1.27-4.06,2.49-6.26,3.54l-4.77,2.29c1.6-1.3,3.52-2.17,5.39-3.26,2.89-1.69,5.45-3.53,7.74-5.96.16-.17.49-.21.58-.33.17-.24.19-.55.04-.79h.44Z"/>
        <path class="cls-1" d="M25.11,13.79l-1.11.68c1.47,6.2,2.5,11.96,3.75,18-.79-1.5-2.52-8.4-2.94-10.33l-1.23-5.69c-.2-.9-.17-1.71.09-2.49.3.23.76,0,.98-.23l.45.06Z"/>
        <path class="cls-1" d="M56.3,30.78c.5.24.93.12,1.23-.14.5-.43.68-.92.44-1.51l-.98-2.42c-.19-.48-.25-.97-.68-1.17,1.18-.54,2.45-.84,3.54-.21.45.27.41,1.26.06,1.53-.63.49-1.37.51-2.13.6l1.29,2.18c.28.48.18,1.76-.26,2.09-1.06.79-1.96-.18-2.51-.97Z"/>
        <path class="cls-1" d="M55.29,29.85c.11.91.1,1.74-.37,2.43-.34.5-.96.71-1.46.48-.37-.17-.73-.56-.75-1.02.06-.45-.04-.71,0-.96.23.4.63.59,1.01.47,1.36-.42.85-1.18,1.57-1.39Z"/>
        <path class="cls-1" d="M55.63,29.57h-.3c-.02-.54.28-.6.3,0Z"/>
        <path class="cls-1" d="M35.68,5.1c.08-.05.14-.16.25-.17.08.19-.15.15-.25.17Z"/>
        <path class="cls-1" d="M38.79,12.22l-6.7.16c-.72.02-1.59,0-2.18.15.9-.68,8.08-1.14,8.88-.31Z"/>
        <path class="cls-1" d="M37.95,18.38c-.02,1.56-.9,2.6-1.5,3.85.06-1.47.72-2.6,1.5-3.85Z"/>
        <path class="cls-1" d="M46.23,15.17c.07.04-3.47-1.73-2.88-1.71.18.06,3.39,1.32,2.88,1.71Z"/>
        <path class="cls-1" d="M47.91,5.33l1.85,4.94c-4.03.59-2.65,2.74-6.15,1.57-.3-.1-1.26-.23-1.04-.75,1.13-2.7,2.24-5.28,2.98-8.1.09-.33.31-.54.44-.73.81.92,1.49,1.95,1.92,3.09Z"/>
        <path class="cls-1" d="M53.84,17.38c-1.33-2.25-2.12-4.87-3.2-7.3,1.28.72,3.11,5.92,3.2,7.3Z"/>
      </g>
      <g>
        <path class="cls-1" d="M29.66,54.07c1.84,2.62,7.31,2.2,6.88,7.46-.29,3.59-1.85,7.05-4.33,9.47-1.74.24-3.72,1.66-5.93,2.16-1.12.25-1.85.45-2.4,1.27s-1.53,1.4-1.38,2.65c.1.86.81,1.37,1.4,2.24-2.4.3-4.17-1.56-4.06-3.93.14-2.86,2.86-3.24,4.53-3.82.72.45,1.87.92,2.84.63,1.92-.57,4.75-2.45,5.53-4.44.14-.35.3-.93.55-1.22,1.87-1.99,2.06-5.44.14-7.62-.88-1-2.25-1.64-3.36-2.39-.63-.13-1.56.06-2.07.17-3.9-3.04-2.16-4.56-2.47-8.68.28-.54.52-1.51,1.12-1.88,2.76.45-1.32,4.75,2.75,8.39.15.04.37-.39.26-.48Z"/>
        <path class="cls-1" d="M33.24,38.04c.29.79,2.14,6.72,1.2,7.35-.78.7-2.41.28-3.3.02-1.67-1.18-3.39-1.24-4.86-2.2,0-.36.37-.54.69-.76.53-.36.33-1.09.62-1.56.66-1.08,1.43-2.01,2.22-3.05.13-1.14.27-2.34-.08-3.36.19-.45,1.34-1.31,1.74-.69.83,1.31,1.27,2.87,1.78,4.24Z"/>
        <path class="cls-1" d="M29.43,45.65c.14,1.08-1.86,5.43.23,8.42.11.09-.11.52-.26.48-4.07-3.64,0-7.94-2.75-8.39-.59.37-.84,1.33-1.12,1.88-1.2,2.3-1.88,4.89-2.31,7.44-.08.49-.53.99.07,1.79-.05.49-.74.56-.49,0-1.23-5.22,1.67-8.17,2.31-12.42-1.39.89-1.31,2.42-2.02,3.56-.38.61-.82,1.16-.5,1.91-.33-.02-.51.09-.62.24-.21.28-.08.66.29.75-1.03-.26-1.79,2.86-1.7,3.48-.68,1.11-1.88,1.93-3.11,2.41.36-.48.69-1.02.63-1.64,0-.09.06-.22.08-.31.24-.08.37-.27.49-.47.59-.95,1.26-1.95,1.73-3.07,1.08-2.56,1.76-3.13,2.38-5.1.18-.59,1.4-2.07,1.14-2.88.35,0,.82-.04,1.24.19,1.92,1.02,4.22,1.13,4.3,1.73Z"/>
        <path class="cls-1" d="M18.64,54.78c-.23.07-.42.24-.49.47-.03.09-.09.21-.08.31-.15.15-.28.34-.43.46-.22.18-.43,0-.7-.16-3.72,3.98-12.23.03-14.84,6.09-1.8,4.19,1.47,5.36-.51,10.11-.08.19.4.18.53.16.12-.02.32.06.46.05-.58.41-1.6.46-2.41.16-.99-.36,3.06-1.26,1.15-5.32-1.65-3.51-.37-7.29,3.04-9.12,1.19-.64,2.61-1.16,4.01-1.23l4.65-.22c2.54-.12,5.6-3.95,6.61-6.09-.05.72-.6,1.29-.44,2.21.68-.65,2.82-4.45,2.99-5.16.09-.39.32-.71.59-.87-.62,1.96-1.3,2.54-2.38,5.1-.47,1.12-1.15,2.11-1.73,3.07Z"/>
        <path class="cls-1" d="M26.27,43.22c-.51-.33-1.38-.37-1.92-.37h-1.38c-.81,0-1.67-.68-2.33-1.31.22-.97,5.78-4.63,5.85-4.68l2.06-1.77,1.18-.6c.34,1.03.21,2.22.08,3.36-.79,1.04-1.56,1.96-2.22,3.05-.29.47-.09,1.21-.62,1.56-.32.21-.69.39-.69.76Z"/>
        <path class="cls-1" d="M17.43,57.2c-.53.21-.96.09-1.54.59-.51.44-1.43.58-2.07.98-3.59,2.25-5.94-.3-8.39,2.2-.61-.08-.94.43-1.01.98l-.03.23c-1.46.39-1.65,6.72-1.61,8.19.02.74-.4,1.31-.67,1.84-.13.02-.61.03-.53-.16,1.97-4.75-1.29-5.92.51-10.11,2.61-6.06,11.12-2.11,14.84-6.09.28.16.48.35.7.16.15-.12.28-.31.43-.46.06.62-.27,1.16-.63,1.64Z"/>
        <path class="cls-1" d="M21.71,65.11c-.06.04-.14.14-.2.2-.09.08-.18.17-.25.27-.77,1.13-2.01,1.74-3.16,2.42-1.56-.41-4.93,3.28-5.82,4.63-1.02,1.54-1.29,3.6-.83,5.33.37.17.93.14,1.2.09-.34.44-1.14.29-1.64.05-1.89-.92-.09-6.16,1.27-8.28,1.47-2.29,4.65-.9,8.26-5.66,2.46-3.24.3-6.86.31-8.43.31-.14.52-.49.93-.73.41,1,0,2.01.33,3.03.55,1.73,1.07,3.62.35,5.35-.26.63-.8,1.1-.75,1.73Z"/>
        <path class="cls-1" d="M23.22,55.48c-.03,4.52,2.56,3.67.04,8.88l-1.55.76c-.05-.63.49-1.1.75-1.73.72-1.73.21-3.62-.35-5.35-.33-1.02.08-2.04-.33-3.03-.42.23-.62.59-.93.73,0-.34-.27-.63-.31-.94-.09-.62.67-3.74,1.7-3.48-.37-.09-.5-.47-.29-.75.11-.15.29-.26.62-.24-.32-.75.12-1.3.5-1.91.71-1.14.63-2.67,2.02-3.56-.63,4.25-3.53,7.21-2.31,12.42-.25.56.44.49.49,0-.6-.8-.15-1.3-.07-1.79Z"/>
        <path class="cls-1" d="M18.1,68c-.57.34-1.08,1.1-1.39,1.59-1.32.51-2.33,2.04-2.91,3.44-.69,1.66,2.03,2.43.42,3.98-.48.46-.97.92-1.57,1.03-.27.05-.83.08-1.2-.09-.46-1.73-.19-3.79.83-5.33.89-1.35,4.26-5.04,5.82-4.63Z"/>
        <path class="cls-1" d="M33.28,66.55c.52-1.34.29-2.79-.03-4.29-.43-2.02-2.01-3.43-3.75-4.47-.57-.34-.86-1.04-1.51-1.07.51-.11,1.44-.3,2.07-.17,1.12.75,2.48,1.39,3.36,2.39,1.92,2.18,1.73,5.63-.14,7.62Z"/>
        <path class="cls-1" d="M4.39,62.18c.18.19.17.47.07.79-1.55,4.78,1.82,8.64-1.89,9.3-.13,0-.34-.07-.46-.05.27-.53.68-1.1.67-1.84-.04-1.47.16-7.81,1.61-8.19Z"/>
        <path class="cls-1" d="M23.89,43.73c.26.81-.95,2.29-1.14,2.88-.27.16-.5.48-.59.87-.16.72-2.31,4.51-2.99,5.16-.16-.91.38-1.48.44-2.21,1.13-2.39,2.52-4.67,3.45-7.15.38-.12.66.19.83.43Z"/>
        <path class="cls-1" d="M24.36,71.58l2.51-.87c2.14-.74,4.3-1.38,5.85-2.94-.78,1.99-3.61,3.87-5.53,4.44-.97.29-2.13-.18-2.84-.63Z"/>
        <path class="cls-1" d="M16.71,69.59c.31-.49.82-1.25,1.39-1.59,1.15-.68,2.39-1.29,3.16-2.42.11-.06.2-.15.25-.27.06-.06.14-.15.2-.2l1.55-.76c-1.04,2.75-3.64,4.85-6.55,5.24Z"/>
        <path class="cls-1" d="M32.2,71c-1.48,1.45-3.24,3.17-5.64,3.08-.94-.03-1.98-.48-2.69.35.55-.82,1.29-1.02,2.4-1.27,2.21-.5,4.19-1.92,5.93-2.16Z"/>
        <path class="cls-1" d="M26.27,43.22c1.47.96,3.19,1.02,4.86,2.2-.39-.11-.84-.06-1.23.02.03-.67-6.25-1.71-5.56-2.59.55,0,1.41.04,1.92.37Z"/>
        <path class="cls-1" d="M24.35,42.85c-.69.88,5.59,1.92,5.56,2.59l-.48.22c-.08-.6-2.38-.72-4.3-1.73-.42-.22-.89-.18-1.24-.19-.17-.25-.45-.55-.83-.43l-.09-.45h1.38Z"/>
        <path class="cls-1" d="M5.43,60.97c-.26.42-.43,1.06-1.01.98.07-.55.4-1.06,1.01-.98Z"/>
        <path class="cls-1" d="M18.15,55.25c.07-.24.26-.4.49-.47-.12.2-.25.4-.49.47Z"/>
        <path class="cls-1" d="M21.25,65.58c.07-.1.17-.18.25-.27-.05.11-.14.2-.25.27Z"/>
      </g>
    </g>
  </g>
</svg>