<?xml version="1.0" encoding="UTF-8"?>
<svg id="Layer_2" data-name="Layer 2" xmlns="http://www.w3.org/2000/svg" viewBox="0 0 98.4 188.65">
  <defs>
    <style>
      .cls-1, .cls-2 {
        fill: #6cbe45;
      }

      .cls-2, .cls-3 {
        opacity: .7;
      }
    </style>
  </defs>
  <g id="Layer_1-2" data-name="Layer 1">
    <path class="cls-2" d="M39.9,23.61c-1.05,3.8,1.43,11.31,5.03,14.01-1.35,1.16-2.65,2.32-3.17,3.91-.47,0-.8.34-1.2.68-1.45,1.24-2.97,2.3-4.49,3.43-.86.64-1.4,1.33-1.69,2.37-.69,2.48-1.2,4.88-1.75,7.43l-3.72,17.34c-.17.8-.33,1.6-.56,2.39-.29-.15-.67-.27-1-.17-.77.23-.61,2.7-.17,2.56-.17.24-.18.64-.52.77-.22.09-.38.26-.57.52l-7.29,10.22c-.88.44-1.91.32-2.76.91-1.13.79-.78,2.7.19,3.54.33.29.4.57.44.86-1.2,1.4-2.1,3.21-2.6,4.99-.83.34-1.58.88-2.21,1.51-1.45.62-2.7,1.65-4.05,2.45-.92.55-1.7,1.09-1.33,2.31-2.12.35-4.27.52-6.47,1.11.17,1.12.68,1.96,1.25,2.8l6.68-1.08c.57-.09,1.04-.37,1.52-.48.57.91,1.53-.07,2.19-.23.97.04,1.96-.02,3.05-.12l4.76-.43c-.41-.94-.98-1.16-1.35-1.74,1.26.12,2.06-1.26,2.3-2.42.97.23,1.98.42,2.97.38-.39,1.55.47,3.53,1.63,4.36.03.37.34.45.52.69,1.39,1.86,3.29,3.44,5.42,4.61,1.02.56,2.3-1.54,2.69-1.71.34,1.26.46,2.58.66,3.87l3.07,19.4c.43,2.69,1.35,5.11,2.36,7.47.22.51.25,1.19.82,1.39-1.06,1.88-2.06,3.72-2.55,5.98-.67,3.11-.83,6.22-.87,9.44-.01.85-.33,1.73.08,2.38-.3,2.38-.7,4.74-1.72,7.02-.07.15,0,.33,0,.44s.22.16.35.18c-1.26,1.56-2.85.22-4.48,6.48.14.28.62.09.88.41-.48.22-1,.26-1.51.5l-2.02.94c3.96-.15,5.43,2.06,6.62,2.23.09.01.18.09.27.09-.02.47.41.47.71.63.61.31,1.15.86,1.46,1.46.01.6-.53.87-1,1.2-7.44,5.17-13.4-5.57-13.85.51-.84,2.09,3.82,3.78,5.23,4.25,4.25,1.41,9.01,1.36,13.21-.46.24-.1.38-.18.38-.36,0-.14,0-.31-.15-.39,1.11-.43,2.2-1.09,3.3-1.74,2.95-.49,5.92-.75,8.72-1.56,2.2-.2,14.46-2.32,15.24-4.03.19-.42-.13-.78-.18-1.05.13-1.37-.69-2.52-1.2-3.78.55.02,1.15-.32,1.75-.2.23-.51-.04-.92-.2-1.43-.96-3.05-2.44-5.82-3.21-8.8,5.07.24,10.05-.29,14.9-1.07,3.81-.3,11.69-1.22,15.11-2.98,2.17-1.12.81-3.96,1.44-5.47.54-1.02,1.47-1.64,1.05-3.02l-4.05-13.34c1.17-.6,1.81-1.55,1.63-2.86-.48-3.46-.98-6.91-2.12-10.06-.25-.7.01-1.56-.66-2.15-.33-.29-.39-.86-.98-1.1-1.2-.48-2.37-.92-3.72-.96-.16-2.63-.66-5.13-1.48-7.54-.53-1.56-1.95-6.69-4-6.93-.03-1.61-2.29-4.23-2.67-6.04,1.02-.69-.05-2.09.47-3.58.07,0,.17-.01.24-.04.15-.05.29-.2.46-.22,1.48-.25,2.52-1.7,2.02-3.29-.63-1.99-.89-3.94-1.08-6.07l-.91-9.87c-.36-3.91-1.29-7.49-2.85-11.08s-2.96-7.4-4.02-11.36c-.62-2.31-1.3-4.51-2.15-6.71-.58-1.49-1.48-2.62-2.9-3.28l-1.83-.85-3.58-2.25c-.75-1.36-2.78-4.8-4.29-5.28-.14-.12-.49-.17-.67-.14,1.13-1.42,2.7-1.78,3.34-4.19,1.84.09,3.61-.94,4.12-2.55,1.67-1.88,1.47-5,.46-7.29,1.66-1.26,3.14-2.97,4.01-5.03,1.41-3.33,1.32-10.2-2.71-11.38.7-.52,1.32-.74,1.21-1.47-.79-.44-3.46,1.08-3.04,0,.08-.21.65-.78.41-1.16-.69-1.09-2.53,1.69-2.87,2.07l-.71-1.69c-.5-1.21-1.15-3.07-2.68-3.45-2.47-.6-5.07.01-7.53.64-4.5,1.14-8.82,2.27-13.42,2.91-.06.96.59,1.19,1.21,1.72-1.33.62-2.2,1.54-2.84,2.76-2.92,5.56-1.68,9.61.99,14.73.2.39.44.7.84.62ZM19.56,110.63l-1.33,1.48c1.34-.09,2.43-.37,3.62-.83-.35-1.13-.96-2.1-1.68-3.02-.43-.54-1.3-.03-1.9.06l-16.24,2.41c.02.56.38,1.83,1.09,1.83,2.44,0,10.37-1.65,14.11-2.01.79-.08,1.62-.45,2.32.07ZM13.71,113.24l-1.4.37c-.38.1-.82.21-1.2.24-.26.02-.92-.06-1.05.27-.32.82.12,1.75.37,2.52.18.56.58.53.95.62.66.17,1.71-.88,1.38-1.59.12-.65,1.06.35,2.17.47.23.02.61.2.81.01.26-.26.19-.74.2-1.28.39-.15,1.08.29,1.43-.13.43-.52-.12-2.03-.88-1.95-1,.1-1.91.22-2.78.45ZM9.35,114.29c-.84-.1-1.6-.08-2.09.29-.44.33-.16,1.92.44,1.92,1.04,0,1.48-1.4,1.65-2.21Z"/>
    <g class="cls-3">
      <path class="cls-1" d="M11.84,100.88c2.42,1.04.1.78,2.12.78.63,0,.92.81.98,1.22.11.72-.29,1.22-.8,1.71-2.36,2.29-3.14,1.44-4.69,3.39-.48.1-.94.38-1.52.48l-6.68,1.08c-.57-.83-1.08-1.68-1.25-2.8,2.2-.59,4.34-.76,6.47-1.11.4-.07.79-.09,1.22-.19-.34-.81-.02-1.45.11-2.12,1.35-.8,2.6-1.83,4.05-2.45Z"/>
      <path class="cls-1" d="M19.56,110.63c-.7-.52-1.53-.15-2.32-.07-3.74.36-11.67,2-14.11,2.01-.72,0-1.08-1.27-1.09-1.83l16.24-2.41c.6-.09,1.47-.61,1.9-.06.72.92,1.33,1.89,1.68,3.02-1.19.45-2.28.74-3.62.83l1.33-1.48Z"/>
      <path class="cls-1" d="M18.1,105.47c.36.58.94.8,1.35,1.74l-4.76.43c-1.09.1-2.08.16-3.05.12,1.21-2.07.5-.58,3.87-2.44.8-.44,2.1-.62,2.59.15Z"/>
      <path class="cls-1" d="M14.92,116.14c-.11-.5-.56-3.07-1.21-2.9.86-.23,1.78-.35,2.78-.45.76-.08,1.31,1.43.88,1.95-.35.42-1.04-.03-1.43.13,0,.54.06,1.02-.2,1.28-.2.19-.58.01-.81-.01Z"/>
      <path class="cls-1" d="M13.71,113.24c.65-.17,1.1,2.4,1.21,2.9-1.12-.12-2.06-1.12-2.17-.47-.3-.63-.73-1.22-.44-2.06l1.4-.37Z"/>
      <path class="cls-1" d="M12.31,113.61c-.29.85.14,1.43.44,2.06.33.71-.72,1.76-1.38,1.59-.08-1.15-.39-2.26-.26-3.42.38-.03.83-.14,1.2-.24Z"/>
      <path class="cls-1" d="M9.35,114.29c-.17.81-.61,2.21-1.65,2.21-.61,0-.88-1.59-.44-1.92.49-.36,1.26-.39,2.09-.29Z"/>
      <path class="cls-1" d="M11.11,113.85c-.12,1.15.18,2.27.26,3.42-.36-.09-.77-.06-.95-.62-.24-.77-.69-1.71-.37-2.52.13-.33.78-.25,1.05-.27Z"/>
    </g>
    <path class="cls-2" d="M68.52,119.02l-.07,1.86c-2.08.1-3.49,1.76-3.67,3.88-.45,5.31-.56,10.54-.69,15.9,0,.31.3.65.17.92-.79,1.64-1.22,3.31-1.64,5.1l-1.62,6.99c-.33-.01-.37-.35-.52-.65l-3.69-7.46c-.26-.53-1.07-.89-1.24-1.53-.14-.54-.4-.68.19-2.16l10.84-26.95c.13-.33.04-.6.11-.81.66-.52,1.41-.92,2.21-1.21.26,2.01-.32,4.08-.4,6.14Z"/>
    <path class="cls-2" d="M80.66,109.49c0,.66.56,1.12.79,1.69,1.15,2.81,2.51,5.69,2.73,8.93-.41.41-1.22.19-1.81.15-3.19-.21-6.22-.71-9.27-.66.27-2.64.14-5.4.87-7.97h.26c.18.66.96.27,1.48.33s1.36.05,1.57-.66c.1-.36.02-.79.38-.87-.09.23-.07.54-.11,1.07.82.02,1.48-.58,1.75-1.28.25-.65.89-.72,1.36-.74Z"/>
    <g class="cls-3">
      <g>
        <path class="cls-1" d="M66.24,65.52c.49,1.78,2.4,4.94,3.43,6.54-.37,1.82-.83,3.66-1.39,5.53-.22.73-.81,1.32-.73,2.26.33,3.53.28,4.14,1.99,7.43.4.77,1.29,1.2,1.55,1.99.1.56-.01,1.1-.25,1.71l-1.57,3.94c-.37.94.39,1.44,1.09,1.85.74.44-.11,2.34.6,3.07.24.24.68.41,1.09.5l.24.24c-.27.79-.87,1.74-1.68,2.16-.71.36-1.21.68-1.36,1.82-.02.16-.31,4.08.16,3.7.03.26.13.47.25.7.49.94-.57,2.41-.74,3.91-.8.29-1.55.69-2.21,1.21-.32.25-1.2.08-1.49.58-.89,2.7-2.08,5.22-3.02,7.93l-2.96,8.6-3.06,8.18c-.28.76-.95,1.35-.73,2.2-.35-.24-1.8,2.88-1.88,3.37.82-.05.87-.78,1.4-1.44.18.35,0,.76.31.99,0,.56.05,1.12.22,1.66-.54.68-.58,1.59-.41,2.39.72-.81,1.23-1.49,1.12-2.39,1.22,1.47,1.52,3.49,2.5,5.24.68,1.21,1.34,2.35,2.05,3.42-.56,1.03.09,1.81.33,2.74.44,1.7-.07,3.96,1.64,5.14.8.56,1.74.99,2.12,1.97l3.39,8.83c-2.88-.55-5.55-.15-8.18.55l-5.73,1.24c-.17.04-4.84.57-5.13-.45-.07-.25.05-.55.03-.8.28.03.2-.38.2-.55l.02-.42c.27.04.21-.37.21-.55l.04-.65c.27.04.23-.37.21-.55-.01-.13.07-.31.02-.42.54-.82.72-1.94.73-2.93.04-2.17.77-1.9.51-3.57.46-.08.57-.49.7-1l.69-2.69c.57-2.22,1.83-4.26,1.39-6.7-.69,2.41-1.16,4.79-2.2,7.1-.5,1.12-.51,2.29-.88,3.28l-1.29,3.46-1.91,7.46-1.3,3.94c-.69.13-3.12-1.67-4.08-2.14-1.61-.79-3.36-1.56-5.25-1.78l-4.29-.48c.18-2.76,2.89-4.16,4.77-5.62.65.86-1.88,2.59-1.02,3.99-.04-.07,2.96,1.76,4.36-.96,1.3-2.52,2.09-5.2,2.76-8,.28-1.18,1.02-2.42.72-3.58-1.06-.91-1.65,2.86-3.71,4.43-.59.45-1.24.55-1.56,1.36-.23.58-.97.88-1.11,1.47-.6.25-1.67.44-2.12.99-.13-.02-.34-.06-.35-.18s-.07-.29,0-.44c1.01-2.28,1.42-4.64,1.72-7.02.35-2.82.59-5.63.81-8.58.27-3.66,1.56-7.32,4.51-9.88-.67,3-1.65,5.47-1,8.26.15.67.53.99,1.28.86,1.38-.23,2.71-.59,4.01-1.08,1.04-.4,2.83-1.8,2.78-2.67-.06-1.01-4.76-1.15-5.51-6.41-.03-.18-.36-.31-.47-.38-.34-.21-.42.92-.93.71-.13-.05-.13-.35-.18-.52.65-2.63,1.47-5.25,1.98-7.91,1.15-.22-.22,3.71,1.12,6.56.64,1.36,1.32,2.7,2.66,3.33.82.39,1.52.42,2-.39.91-1.52-3.08-3.62-2.53-6.04,1.14,1.19,1.66,2.46,2.98,3.38,2.23-3.22-.55-15.34-1.41-19.33-.15-.71.08-1.43-.12-2.12-.4-1.36-.47-2.48-.74-2.57-1.09-.34-1,2.52-1.14,3.4l-.81,5.07-.51-1.86c.12-1.03.08-2.11.23-3.13l.78-5.44c.03-.24.07-.42-.04-.55-1.04-1.21-1.2,2.91-1.35,3.75l-2.74,15.94c-.03.17.09.32.21.25l-1.64,7.15c-.17.73-.51,1.7-.89,2.37-.57-.2-.6-.88-.82-1.39.39-.07-.81-4.07-.93-4.87-.48-3.14-.9-6.17-1.59-9.28-.33-1.5-.53-2.95-.46-4.34.63.18,1.09.63,1.77.46s1.07-.67,1.47-1.36c.33-.58,3.72-5.52,2.88-5.52-.1,0-.39-.13-.52,0-1.61,1.44-3.14,2.88-4.55,4.53-.22.25-.37.52-.68.6-.21.06-.47-.11-.71-.19.03-.11.03-.34,0-.45.15.15.12-.1.19-.21-.28-.83.4-.96.75-1.37,1.59-1.83,3.13-3.45,5.13-5.02-1.14-.32-6,.94-6.53,1.62-.26-.59-.54-1.81,0-2.05l1.98-.87c1.33-.59,3.02-.49,4.17-1.42.33-.39-.6-.81-.93-.92l-5.78-1.8c-.27-.25-.2-1.26-.76-1.18-.21-1.19-.47-2.67.45-3.55,6.04,3.1,15.3,5.92,22.03,4.3l.16,4.26c.04,1.07.29,2.09.99,2.83.05-.35.24-.84.12-1.12l6.07-1.84c.99-.3,2.09-.49,2.62-1.55-3.27.56-5.65,1.97-8.88,1.71v-1.64c2.7-.26,5.32-1.17,8.06-2.41-2.72-1.22-5.07-2.48-6.81-4.66-.42-.53-.66-1.24-1.28-1.36-.01-.54.01-1.15,0-1.67,1.17-.11,4.41,5.13,5.85,3.63-1.99-2.49-4.25-6.35-3.81-9.56.08-.57,1.36-.23,1.56.16.12.25,4.19,5.59,4.74,4.14.15-1.55-.37-3.07-.39-4.61-.03-2.73-.55-5.32-.83-8.01-.23-2.18-.31-4.36-1.01-6.44-.31-.91-.36-1.82-.66-2.72l-2.94-8.63c-.49-1.45-1.31-3.1-.99-4.68.8-.67,2.37.36,2.7,1.37.53,1.59,1.31,3.06,2.53,4.23.38-.05.41-.67.32-1.03-1.1-4.52-1.99-5.15-2.28-10.05-.04-.7-.12-1.25-.02-1.98.19-1.34-1.2-4.82.29-4.43.26,2.66.87,5.33,1.58,7.9.44,1.59.52,3.23,1.49,4.45ZM66.02,111.45l-6.24,1.28c2.26.22,4.42-.35,6.24-1.28ZM53.77,124.6c-.06-.53-1.79-7.14-3.01-6.15.09,1.15.48,2.23.77,3.37l1.85,7.29c.87-.44.74-1.22.67-1.86l-.28-2.64ZM54.53,148.95c0-.07-.05-.12-.12-.12s-.12.05-.12.12.05.12.12.12.12-.05.12-.12ZM60.18,163.49c.45-.03,1.04-.27.85-.74-.45-1.13-3.99-10.94-5.83-9.19-.73.7-.32,1.83-.47,2.7-.14.8-1.19,7.49-.31,7.62l5.76-.4ZM64.21,172.34c.52-.02.5-.76.33-.95-.7-.82-1.62-1.05-1.42-1.3l.51-.66c.62-.81-1.58-1.84-2.84-1.96-1.76-.17-3.28-.33-5.08.04-.62.13-1.88-.12-2.16.72-.56,1.66-.67,3.45-1.38,5.12-.13.3.05.71.22.83.12.09.47.26.72.17,3.56-1.3,7.19-1.89,11.1-2.01Z"/>
        <path class="cls-1" d="M42.47,141.63c.05.17.05.47.18.52.52.21.59-.92.93-.71.1.06.44.2.47.38.75,5.26,5.45,5.39,5.51,6.41.05.86-1.74,2.27-2.78,2.67-1.3.49-2.63.86-4.01,1.08-.75.12-1.12-.2-1.28-.86-.65-2.79.33-5.26,1-8.26-2.95,2.56-4.24,6.21-4.51,9.88-.22,2.96-.45,5.77-.81,8.58-.41-.65-.09-1.53-.08-2.38.04-3.22.21-6.33.87-9.44.48-2.26,1.48-4.1,2.55-5.98.38-.67.72-1.64.89-2.37.22.12.15.54.35.66.19.12.51-.16.71-.17Z"/>
        <path class="cls-1" d="M36.38,121.7c-.53-.81-.81-6.17-2.1-6.45-.2-1.29-.32-2.61-.66-3.87.05-.4.32-.82.47-1.18.56-.38.63-1.06.52-1.71.56-.08.49.93.76,1.18l5.78,1.8c.34.1,1.26.53.93.92-1.15.93-2.84.84-4.17,1.42l-1.98.87c-.54.24-.27,1.46,0,2.05.53-.68,5.39-1.94,6.53-1.62-2,1.56-3.54,3.19-5.13,5.02-.35.41-1.03.54-.75,1.37-.07.11-.05.36-.19.21Z"/>
        <path class="cls-1" d="M36.38,121.7c.03.11.03.34,0,.45-.07.3.12,1.12.35,1.49-.07,1.39.13,2.84.46,4.34.69,3.1,1.12,6.13,1.59,9.28.12.79,1.32,4.79.93,4.87-1.01-2.36-1.93-4.78-2.36-7.47l-3.07-19.4c1.28.28,1.57,5.64,2.1,6.45Z"/>
        <path class="cls-1" d="M65.79,163.87c.77,2.99,2.25,5.75,3.21,8.8.16.51.43.91.2,1.43-.61-.12-1.2.21-1.75.2l-7.4-.23c2.63-.7,5.3-1.1,8.18-.55l-3.39-8.83c.28.34,0-.91.6-1,.12-.02.23.15.35.18Z"/>
        <path class="cls-1" d="M44.46,133.72c.36-1.86.68-3.76.92-5.76l.58-4.8.51,1.86.81-5.07c.14-.89.05-3.75,1.14-3.4.28.09.34,1.2.74,2.57.2.69-.03,1.4.12,2.12.86,3.99,3.64,16.11,1.41,19.33-1.32-.92-1.84-2.19-2.98-3.38-.55,2.42,3.44,4.51,2.53,6.04-.49.82-1.18.78-2,.39-1.33-.63-2.02-1.97-2.66-3.33-1.34-2.84.03-6.78-1.12-6.56Z"/>
        <path class="cls-1" d="M64.21,172.34c-3.91.12-7.54.71-11.1,2.01-.25.09-.6-.08-.72-.17-.16-.12-.34-.53-.22-.83.71-1.67.83-3.45,1.38-5.12.28-.84,1.53-.6,2.16-.72,1.8-.37,3.32-.21,5.08-.04,1.26.12,3.47,1.15,2.84,1.96l-.51.66c-.2.25.72.48,1.42,1.3.17.19.19.93-.33.95Z"/>
        <path class="cls-1" d="M60.18,163.49l-5.76.4c-.88-.13.18-6.82.31-7.62.15-.87-.25-2,.47-2.7,1.83-1.76,5.38,8.06,5.83,9.19.18.47-.4.71-.85.74Z"/>
        <path class="cls-1" d="M37.52,169.25c.22-.17.55-.26.65-.45.16-.32.12-.74-.22-.83.14-.59.88-.89,1.11-1.47.33-.81.97-.91,1.56-1.36,2.06-1.57,2.65-5.34,3.71-4.43.3,1.17-.44,2.41-.72,3.58-.66,2.8-1.46,5.48-2.76,8-1.4,2.72-4.4.89-4.36.96-.86-1.41,1.67-3.13,1.02-3.99Z"/>
        <path class="cls-1" d="M66.71,114.09c-.07.21.02.48-.11.81l-10.84,26.95-.31-.26c-.22-.85.45-1.45.73-2.2l3.06-8.18,2.96-8.6c.93-2.71,2.13-5.23,3.02-7.93.29-.5,1.17-.33,1.49-.58Z"/>
        <path class="cls-1" d="M46.18,120.03c-.15,1.02-.1,2.09-.23,3.13l-.58,4.8c-.24,2-.56,3.9-.92,5.76-.52,2.66-1.33,5.28-1.98,7.91-.2,0-.52.28-.71.17-.2-.12-.13-.54-.35-.66l1.64-7.15c.69-3,1.47-6.02,1.98-9.21.02-.15.7-6.09,1.15-4.75Z"/>
        <path class="cls-1" d="M36.73,123.64c-.23-.37-.42-1.19-.35-1.49.23.08.5.25.71.19.31-.08.47-.35.68-.6,1.41-1.65,2.94-3.09,4.55-4.53.13-.12.42,0,.52,0,.83,0-2.55,4.94-2.88,5.52-.4.69-.76,1.19-1.47,1.36s-1.14-.28-1.77-.46Z"/>
        <path class="cls-1" d="M46.18,120.03c-.45-1.34-1.12,4.6-1.15,4.75-.51,3.18-1.3,6.21-1.98,9.21-.12.07-.24-.08-.21-.25l2.74-15.94c.14-.84.3-4.96,1.35-3.75.11.13.07.31.04.55l-.78,5.44Z"/>
        <path class="cls-1" d="M53.77,124.6l.28,2.64c.07.64.19,1.42-.67,1.86l-1.85-7.29c-.29-1.14-.68-2.22-.77-3.37,1.22-.98,2.95,5.62,3.01,6.15Z"/>
        <path class="cls-1" d="M61.01,153.65c-.09.37-.07.84-.26,1.18-.71-1.07-1.37-2.21-2.05-3.42-.98-1.75-1.28-3.77-2.5-5.24h-.71c-.16-.54-.22-1.1-.22-1.66.13-.15.21-.32.28-.5.17.65.98,1.01,1.24,1.53l3.69,7.46c.15.3.19.64.52.65Z"/>
        <path class="cls-1" d="M51.17,164.42h-.3c.37-1,.38-2.17.88-3.29,1.04-2.31,1.5-4.69,2.2-7.1.44,2.44-.82,4.48-1.39,6.7l-.69,2.69c-.13.51-.24.92-.7,1Z"/>
        <path class="cls-1" d="M55.45,141.6l.31.26c-.59,1.48-.33,1.62-.19,2.16-.07.18-.16.36-.28.5-.31-.23-.12-.64-.31-.99-.54.66-.58,1.39-1.4,1.44.08-.49,1.53-3.61,1.88-3.37Z"/>
        <path class="cls-1" d="M56.2,146.18c.1.9-.4,1.58-1.12,2.39-.16-.8-.12-1.7.41-2.39h.71Z"/>
        <path class="cls-1" d="M50.66,167.98c-.02.99-.2,2.11-.73,2.93-.29-.66.43-3.56.73-2.93Z"/>
        <path class="cls-1" d="M49.91,171.34c.02.17.07.59-.21.55,0-.12-.27-.21-.19-.35.11-.18.24-.33.39-.2Z"/>
        <path class="cls-1" d="M49.66,172.54c0,.17.05.59-.21.55-.13-.08-.22-.23-.17-.34.07-.16.24-.36.39-.2Z"/>
        <path class="cls-1" d="M49.43,173.5c0,.17.07.58-.2.55,0-.12-.29-.21-.2-.36.11-.18.24-.32.4-.19Z"/>
        <circle class="cls-1" cx="54.41" cy="148.95" r=".12"/>
      </g>
      <g>
        <path class="cls-1" d="M67.04,22.34c-.2-.42-.92-.5-1.22-.74-.5-.39-1.1-.15-1.66.34-1.49,1.32-1.32,3.8-1.96,4.12-.41.2-.83.16-1.19.13-.22-1.88,1.31-3.78.51-5.52-.31-.69-.77-1.28-1.19-1.92-.5-1.94-.95-4.09-.13-6.07.37-.9.96-1.63,1.04-2.57.31-.19.16-.25-.13-.27-.25-.02-.23.19-.35.26-2.07,1.28-3.41,1.53-4.94,3.82-.8-.97,1.44-2.5,1.8-4.07-.88-.08-1.56.61-2.15,1.19-1.52,1.5-3.09,2.51-5.01,3.38-2.26,1.03-7.35.56-9.31-1.53-.33.79-.04,1.26-.05,1.78l-.03,4.59-1.19,4.33c-.4.08-.64-.23-.84-.62-2.66-5.12-3.91-9.16-.99-14.73.64-1.22,1.51-2.14,2.84-2.76-.61-.53-1.27-.76-1.21-1.72,4.61-.64,8.92-1.77,13.42-2.91,2.47-.63,5.07-1.24,7.53-.64,1.53.37,2.17,2.24,2.68,3.45l.71,1.69c.34-.38,2.18-3.16,2.87-2.07.24.38-.33.95-.41,1.16-.42,1.08,2.25-.44,3.04,0,.11.73-.51.95-1.21,1.47,4.03,1.18,4.11,8.05,2.71,11.38-.87,2.06-2.34,3.77-4.01,5.03ZM66.29,4.95c0-.07-.05-.12-.12-.12s-.12.05-.12.12.05.12.12.12.12-.05.12-.12Z"/>
        <path class="cls-1" d="M60.34,18.75c-1.31-1.97-1.31-4.6-.04-6.71.39-.64.57-1.28.47-1.93.12-.07.1-.28.35-.26.29.02.44.08.13.27-.09.94-.67,1.67-1.04,2.57-.82,1.97-.38,4.12.13,6.07Z"/>
        <path class="cls-1" d="M61.01,26.19c-.81-.05.81-4.61.51-5.52.8,1.74-.73,3.64-.51,5.52Z"/>
        <circle class="cls-1" cx="66.17" cy="4.95" r=".12"/>
      </g>
      <g>
        <path class="cls-1" d="M68.65,178.07c.04.28.37.64.18,1.05-.78,1.71-13.03,3.84-15.24,4.03.12-.37.26-.74.3-1.13,3.06-.34,6.07-.93,9.05-1.67,2.01-.5,4.04-.95,5.72-2.28Z"/>
        <path class="cls-1" d="M50.66,167.98c-.3-.63-1.03,2.27-.73,2.93.05.11-.03.29-.02.42-.16-.13-.29.02-.39.2-.09.14.19.23.19.35l-.04.65c-.14-.15-.32.05-.39.2-.05.11.04.26.17.34l-.02.42c-.16-.12-.29.02-.4.19-.09.15.19.24.2.36.01.25-.1.55-.03.8.29,1.02,4.96.49,5.13.45-.02.21.05.36.18.39,1.58.27,4.69-.74,8.51.13.37.08,1.23.82.74,1.14-1.3.84-7.82,4.32-8.75,3.37-.44-.45-.35-1.24-.65-1.7.89.21,5.86-.96,6.11-1.6.51-1.31-4.17-.21-5.47-.41-.67-.1-1.02.28-1.2.78-1.13-.7-.64-1.9-1.94-1.65-.29.06-.05.41.03.69l-3.11-.11c-.57,1.15-.57,3.72-1.51,3.75-.27.05-.51-.07-.82-.18-.41-.14-.18-.29-.08-.63l1.3-3.94,1.91-7.46,1.29-3.46h.3c.26,1.68-.47,1.41-.51,3.58Z"/>
        <path class="cls-1" d="M51.89,176.44c.26.45.46.91.51,1.43.04.43.51,1.35.07,1.72-1.89.61-3.4,1.12-5.15.75-.01-.09-.04-.18-.04-.27.94-.04.94-2.61,1.51-3.75l3.11.11Z"/>
        <path class="cls-1" d="M54.36,178.63c-.25-.38-.42-.82-.57-1.24.18-.5.53-.88,1.2-.78,1.31.2,5.98-.9,5.47.41-.25.65-5.22,1.81-6.11,1.6Z"/>
        <path class="cls-1" d="M47.31,180.34c1.75.37,3.26-.14,5.15-.75.44-.37-.03-1.29-.07-1.72.01-1.04,1.52,2.93,1.15,2.81-2.91-.33-5.95,2.14-6.23-.33Z"/>
        <path class="cls-1" d="M62.93,180.36c-2.98.74-5.98,1.33-9.05,1.67-.19.02-.5-.02-.8-.21l8.54-1.41c.49-.08.91-.23,1.3-.05Z"/>
        <circle class="cls-1" cx="52.49" cy="182.07" r=".12"/>
        <g>
          <path class="cls-1" d="M60.05,174.07l7.4.23c.51,1.25,1.33,2.4,1.2,3.78-1.68,1.33-3.71,1.78-5.72,2.28-.39-.18-.81-.03-1.3.05l-8.54,1.41c.29.2.6.24.8.21-.03.39-.18.76-.3,1.13-2.8.82-5.77,1.07-8.72,1.56-1.11.65-2.2,1.3-3.3,1.74-1.31.51-2.89,1.01-4.31,1.02.68-.25-2.77-.32-3.08-.33,0-.08.05-.29.22-.35,1.86-.64,3.68-1.22,5.36-2.44-.42-1.11-1.08-2.14-1.99-2.64-.31-.6-.86-1.15-1.46-1.46-.03-.38-.33-.64-.71-.63-.09,0-.18-.08-.27-.09-.32-1.68,3.38.02,4.43,1.84l1.45,2.5,1.53-1.51c.29-1.95-.5-3.82-1.93-5.21.57-.51,1.62.72,1.51-.02.96.47,3.39,2.27,4.08,2.14-.1.34-.34.49.08.63.32.11.55.23.82.18,0,.09.03.18.04.27.28,2.47,3.31,0,6.23.33.37.12-1.14-3.84-1.15-2.81-.04-.52-.25-.98-.51-1.43-.08-.28-.32-.64-.03-.69,1.3-.26.81.95,1.94,1.65.14.43.32.86.57,1.24.3.46.21,1.26.65,1.7.93.95,7.46-2.53,8.75-3.37.49-.32-.37-1.06-.74-1.14-3.82-.88-6.93.14-8.51-.13-.13-.02-.21-.18-.18-.39l5.73-1.24ZM52.61,182.07c0-.07-.05-.12-.12-.12s-.12.05-.12.12.05.12.12.12.12-.05.12-.12Z"/>
          <path class="cls-1" d="M37.94,167.96c.34.09.38.51.22.83-.1.2-.42.28-.65.45-1.87,1.46-4.59,2.87-4.77,5.62l4.29.48c1.89.21,3.64.99,5.25,1.78.11.74-.94-.49-1.51.02,1.44,1.39,2.23,3.26,1.93,5.21l-1.53,1.51-1.45-2.5c-1.05-1.82-4.76-3.52-4.43-1.84-1.19-.17-2.65-2.39-6.62-2.23l2.02-.94c.51-.24,1.03-.28,1.51-.5-.26-.33-.73-.13-.88-.41,1.63-6.26,3.21-4.93,4.48-6.48.45-.56,1.52-.74,2.12-.99Z"/>
          <path class="cls-1" d="M37.75,181.71c.92.49,1.57,1.52,1.99,2.64-1.68,1.22-3.5,1.81-5.36,2.44-.17.06-.21.27-.22.35-.54-.03-1.29,0-1.72.33-1.2-.12-2.74-.32-3.87-.7-2.11-.72-3.87-2.12-5.69-3.35.46-6.09,6.42,4.65,13.85-.51.47-.33,1.02-.6,1-1.2Z"/>
          <path class="cls-1" d="M41.57,186.46c.15.07.15.24.15.39,0,.18-.14.26-.38.36-4.2,1.82-8.95,1.87-13.21.46-.03-.37.1-.75.46-.9,1.13.38,2.67.58,3.87.7,1.56.16,3.23,0,4.8,0,1.42,0,3.01-.51,4.31-1.02Z"/>
          <path class="cls-1" d="M28.59,186.77c-.36.15-.48.53-.46.9-1.41-.47-6.07-2.16-5.23-4.25,1.81,1.23,3.58,2.63,5.69,3.35Z"/>
          <path class="cls-1" d="M36.29,180.25c-.3-.15-.73-.16-.71-.63.38-.01.68.24.71.63Z"/>
          <path class="cls-1" d="M34.17,187.14c.31.02,3.76.09,3.08.33-1.57,0-3.24.16-4.8,0,.43-.33,1.18-.36,1.72-.33Z"/>
        </g>
      </g>
      <g>
        <path class="cls-1" d="M60.77,10.11c.1.65-.09,1.29-.47,1.93-1.27,2.11-1.27,4.74.04,6.71.42.64.87,1.23,1.19,1.92.3.91-1.33,5.47-.51,5.52.37.02.78.07,1.19-.13.64-.32.47-2.8,1.96-4.12.55-.49,1.16-.73,1.66-.34-.16,2.91-3.23,2.78-2.84,7.43.04.47.71,1.08,1.09.97.92-.27,1.67-.55,2.51-.37-.51,1.61-2.28,2.64-4.12,2.55-.64,2.4-2.21,2.77-3.34,4.19-.43.06-.92.22-1.2.53-.32.35-.27.88-.27,1.31-.77.37-.63,2.99.05,3.84.31.39.45,1.03.94,1.26.11-.25.83-.44.73-.14-.59,1.45-1.81,2.3-2.96,3.1-.84.4-1.64.64-2.4,1.36,2.08.33,3.68,1.68,4.61,3.68,1.97-2.44,3.12-5.1,4.37-7.79.43-.92.45-1.89-.18-2.74-1.13-1.72-1.7-2.87-3-4.26,1.51.47,3.54,3.92,4.29,5.28-.03.11.01.25-.02.36-.75,2.36-1.57,4.75-2.79,6.87l-1.4,2.45c-2.09,3.65-2.17-3.05-6.99-2.72-1.18.08-1.46.92-1.53,1.94l-.23,3.11c-.11,1.44-.34,2.91-.67,4.32-.69-.05.12-4.58.21-5.5.11-1.03.07-1.99.28-2.98l-1.21.32v-.28c.69-.93,1.72-1.36,2.73-2.1.59-.63,1.91-4.5.54-4.69-.8-.11-5.95-.25-5.72-1.05l.52-2.44c2.75-.04,3.63.29,6.51-.83-.4-.27-.97-.07-1.45.09-1.9.66-3.68.5-5.53.32-.53-.05-1.1-.35-1.75-.64-4.92,3.08-2.45,10.11-5.23,9l.68-3.61.72-2.21c.52-1.6,1.82-2.75,3.17-3.91-3.6-2.7-6.08-10.21-5.03-14.01l1.19-4.33c1.09-1.45.95-.5,2.54-1.98.23.75.01,1.46.11,2.16-1.88.81-1.21,2-1.42,3.86-.24,0-.54-.04-.81.09-.66.3-.42,4.35-.26,5.27.31,1.81.89,3.35,1.92,4.84.74,1.07,1.37,2.45,2.64,3.04,4.47,2.06,10.88.4,13.14-3.55,2.84-4.96-.65-3.34-.26-7.73l.23-2.67c.23-2.68-.9-6.02-3.53-5.97-.73-.96-1.95-.51-3.02-.72l-1.44-.28-6.22.03c-1.39,0-2.67-.22-3.28-1.53-.16.33-.19.45-.31.55,0-.52-.29-.99.05-1.78,1.96,2.09,7.05,2.56,9.31,1.53,1.91-.87,3.49-1.88,5.01-3.38.6-.59,1.27-1.27,2.15-1.19-.36,1.58-2.6,3.1-1.8,4.07,1.53-2.29,2.87-2.54,4.94-3.82Z"/>
        <path class="cls-1" d="M67.04,22.34c1.01,2.28,1.21,5.41-.46,7.29-.84-.18-1.59.1-2.51.37-.38.11-1.05-.5-1.09-.97-.39-4.64,2.68-4.52,2.84-7.43.3.24,1.02.32,1.22.74Z"/>
        <path class="cls-1" d="M52.37,15.92c-.24.23-1.02.8-.43,1.04,3.15-.92,2.87.63,3.45-.32,2.62-.05,3.76,3.28,3.53,5.97l-.23,2.67c-.38,4.39,3.11,2.76.26,7.73-2.26,3.95-8.67,5.61-13.14,3.55-1.27-.59-1.9-1.97-2.64-3.04-1.03-1.5-1.6-3.04-1.92-4.84-.16-.92-.39-4.96.26-5.27.27-.12.57-.08.81-.09.28.3.08.96.34,1.4.77.47,2.48.54,3.24-.22.69-.69.65-2.09.61-2.98-.07-1.5-1.33-2.21-2.77-2.06-.1-.7.11-1.41-.11-2.16-1.58,1.47-1.45.52-2.54,1.98l.03-4.59c.12-.09.15-.22.31-.55.61,1.3,1.89,1.53,3.28,1.53l6.22-.03,1.44.28ZM46.75,17c-.21-.99-1.22-1.19-1.88-1.07-.58.1-1.32.54-1.55,1.14,1.29-.54,2.24-.14,3.43-.07ZM54.84,25.17c.86-.97.72-2.8.56-3.94-.21-1.42-1.6-1.9-2.66-1.75-2.53.36-1.59,4.09-1.33,6.07.95.16,2.62.53,3.43-.39ZM52.6,31.57c-1.42-.17-2.39.25-3.61.23,1.23.34,2.47.18,3.61-.23Z"/>
        <path class="cls-1" d="M49.74,49.68c-.22.3-.63.42-.7.99-.05.4-.38.75-.73.75-.61-3.36-2.23-3.81-2.08-8.81.44-.33.76-.5,1.05-.78-.23.8,4.92.95,5.72,1.05,1.37.18.05,4.06-.54,4.69-1,.74-2.04,1.18-2.73,2.1Z"/>
        <path class="cls-1" d="M43.74,19.46c1.44-.15,2.7.56,2.77,2.06.04.89.08,2.29-.61,2.98-.76.76-2.46.69-3.24.22-.26-.44-.06-1.1-.34-1.4.21-1.86-.46-3.05,1.42-3.86Z"/>
        <path class="cls-1" d="M55.39,16.64c-.58.95-.3-.59-3.45.32-.58-.24.2-.82.43-1.04,1.07.21,2.29-.24,3.02.72Z"/>
        <path class="cls-1" d="M47.8,39.39l-.47-.41c1.85.17,3.63.33,5.53-.32.48-.16,1.05-.37,1.45-.09-2.88,1.11-3.76.79-6.51.83Z"/>
        <path class="cls-1" d="M57.7,42.03c-.68-.85-.81-3.47-.05-3.84.02,1.28-.05,2.56.05,3.84Z"/>
        <g>
          <path class="cls-1" d="M14.05,99.37c.1-.04.15-.13.25-.01.09,1.32,4.82,3.4,6.1,3.7-.24,1.16-1.05,2.53-2.3,2.42-.49-.78-1.79-.59-2.59-.15-3.37,1.86-2.66.37-3.87,2.44-.65.16-1.62,1.14-2.19.23,1.55-1.95,2.33-1.1,4.69-3.39.51-.49.9-1,.8-1.71-.06-.41-.35-1.22-.98-1.22-2.02,0,.31.26-2.12-.78.63-.64,1.38-1.18,2.21-1.51Z"/>
          <path class="cls-1" d="M6.47,105.64c-.37-1.22.41-1.76,1.33-2.31-.13.67-.45,1.31-.11,2.12-.43.1-.82.13-1.22.19Z"/>
          <g>
            <path class="cls-1" d="M80.23,100.35c.38,1.8,2.64,4.43,2.67,6.04,0,.41-.36.63-.53.95-.18.08-.31.38-.52.41-.2.03-.31-.32-.44-.61-.22.52-.27,1.13-.67,1.64-.19-1.18.04-2.35-.7-3.3-2.19-2.84-5.67-3.99-9.12-2.59-.21.08-.36.09-.33-.14.81-.42,1.4-1.37,1.68-2.16,1.83.2,3.57.25,5.51.03l2.43-.27Z"/>
            <path class="cls-1" d="M80.23,100.35l-2.43.27c-1.95.22-3.68.17-5.51-.03l-.24-.24c-.05-.17.09-.17.16-.21-.36.2,4.42.35,6.74-.1.36-.07.76.21,1.25.03-.01-.91-.01-1.72-.14-2.68-1.8.53-3.32.66-4.9.52.12-.29.47-.18.72-.2,1.54-.18,3.2-.19,4.56-.96.08,0,.17.03.25.02-.52,1.49.55,2.89-.47,3.58Z"/>
            <path class="cls-1" d="M82.38,107.34c-.41.77-1.16,1.49-1.72,2.14-.47.02-1.1.1-1.36.74-.74-.85-.07-3-1.14-3.41-1.69-.63.08,2.21-.5,3.61-.36.08-.28.51-.38.87-.21.71-1.02.71-1.57.66.46-1.71.36-3.67-.73-5.2-.13,1.89.08,3.48-.75,4.88h-.26c.57-2.02,1.22-4.18-.08-6.23-.33-.08-1.14.07-1.41.28-.49-.68-1.5-.31-2.1.18-.82.67-1.08,1.45-.97,2.4-.47.38-.19-3.54-.16-3.7.15-1.14.66-1.45,1.36-1.82-.02.24.12.22.33.14,3.45-1.39,6.92-.25,9.12,2.59.73.95.51,2.12.7,3.3.4-.51.45-1.12.67-1.64.13.29.24.63.44.61.21-.03.34-.34.52-.41Z"/>
            <path class="cls-1" d="M72.48,105.69c-.6.57-1.25,1.76-1.6,2.59-.81.21-.41,1.04-1.21.7-.12-.23-.22-.44-.25-.7-.11-.96.16-1.73.97-2.4.6-.49,1.6-.86,2.1-.18Z"/>
            <path class="cls-1" d="M79.3,110.23c-.27.69-.93,1.29-1.75,1.28.04-.53.01-.84.11-1.07.58-1.4-1.19-4.24.5-3.61,1.07.4.4,2.56,1.14,3.41Z"/>
            <path class="cls-1" d="M75.71,111.96c-.52-.05-1.3.33-1.48-.32.83-1.4.62-2.99.75-4.88,1.09,1.54,1.19,3.49.73,5.2Z"/>
          </g>
        </g>
        <g>
          <path class="cls-1" d="M40.36,47.36l-.7,2.35c-.08.27-.32.52-.24.81.05.18.22.33.43.41.32,1.14,2.32.79,2.92,1.33.76.68-.29,4.62.02,5.95l1.31-2.7c.12.6-.11,1.35.61,1.47.53.38-.24,3.11-.31,3.79-.28-.04-.56-.06-.84-.06.25-.51.25-1.22.06-1.95-1.29,2.02-1.58,7.47-1.85,10.13-.31,3.03-.82,5.92-.93,8.84-.11-.09-.22-.04-.35.05-.1.07-.18.13-.09.31.04.09.26.09.29.18.06.23.01.49-.05.72-1.02-.41-.13,2.23-.75,4.8-.06.25.1.68.05.93-.57.1-.48.68-.62,1.2-.92,3.4-2.05,6.59-3.67,9.82-.69-.51-.46-1.26-.26-1.86.65-1.99,1.07-3.92,1.25-6.02l.3-3.58c.13-1.59.59-3.15-.19-4.83-.63,1.56-1.3,2.96-1.54,4.47-.58,3.61-1.31,7-2.49,10.49-1.29,3.84-2.01,7.65-2.4,11.87-1.8-.57-3.91-3.75-5-4.02l4.41-9.86,2.7-5.29c.31-.3.98-.1,1.35-.31.71-2.07.78-4.18,1.13-6.33,1.29-7.92,4.02-11.78,3.45-20.69-.08-1.26-1.56-5.78-1.85-4.39-.02.11-.13.4-.08.58l.55,2.15c-.71,0-.36.8-.31,1.34.23,2.69-.17,5.33-.86,7.96-1.01,3.87-2.13,7.57-3.4,11.36-.5,1.49-1.12,2.84-1.54,4.37-.45,1.6-.84,3.24-2.06,4.69-.48-.27.1-3.34-.98-2.86-.13.06-.24.26-.24.49,0,3.29-.54,6.42-2.11,9.52-1.12-1.49.47-6.55-1.26-6.59-1.06-.02-.3,5.06-1.47,8.7-.17.53-.26,1.49-.9,1.59-.87.14-1.53-1-2.49-.61.59.93,1.93,1.34,2.22,2.26-.58,1.72-5.3-.3-6.39-1.06-.3-.21-.68-.13-.89.05-.1-.12-.15-.03-.25.01.51-1.78,1.4-3.59,2.6-4.99.64.19.78,1.09,1.4,1.42.43.23,1.07.09,1.4.92.87-.33-1.86-2.95-1.66-4.18l1.43-1.1,5.18-7.76c1.25-1.88,2.76-3.17,2.25-5.35.33-.13.34-.53.52-.77.47-.65-.21-1.4.35-1.17.28.11.38.55.97.7.28.07.69-.04.59-.5-.11-.5-.88-.91-.73-1.42.23-.78.39-1.59.56-2.39.51.09,1-.17,1.12-.78l1.4-6.72c.79-3.8,1.62-7.45,2.45-11.23l1.48-6.7c2.11-1.03,4.16-1.97,5.68-3.59l-.68,3.61ZM42.81,58.83c0-.08-.07-.15-.15-.15s-.15.07-.15.15.07.15.15.15.15-.07.15-.15Z"/>
          <path class="cls-1" d="M67.77,44.89c1.07.58,2.64,1.88,3.27,2.95l6.76,17.49c2.66,6.87,2.75,10.22,3.35,16.97l.3,3.42c.23,2.56.53,4.98,1.18,7.44s-1.2,2.6-1.24,3.36c-.16.03-.3.17-.46.22.13-.17,0-.19-.13-.23-.21-.06-.4.05-.35.24-1.36.77-3.02.78-4.56.96-.53-.79,2.71-.46,4.26-1.08.64-.26.49-1.2.38-1.83-.2-1.18.2-3-.61-3.99-1.85-1.3-3.62-2.61-4.59-4.81-.08-.19-.29-.35-.14-.57.64-.97,2.36,3.33,4.72,3.78.03-1.68.15-4.1-.78-5.56-1.52-1.67-4.11-2.34-4.97-4.8,1.85,1.15,3.03,2.77,5.2,3.5.07-1.15.4-2.87-.54-3.87-3.7-3.94-6.46-8.39-8.09-13.55-.18-.58-2.1-4.33-1.02-4.14.63.11,1.33,2.51,2.65,4.25,1.94,2.54.17,1.65,3.33,5.29.25.29.73-.27.82-.47.2-.43-.39-2.58-.69-3.24-.81-1.77-1.44-3.55-2.14-5.4l-2.55-6.75c-.38-1.01-.75-2.1-1.3-3.04-2.12-3.59-7.45-3.16-8.1-2.61-.16.14-.32.38-.47.21,1.21-2.12,2.03-4.51,2.79-6.87.74,1.6,2.33,2.01,3.7,2.75Z"/>
          <path class="cls-1" d="M36.99,58.13c1.14,4.47.33,7.55-.67,11.98-.46.04-.89,2.45-.94,2.94-.13,1.3-.91,2.46-1.2,3.84-1.65,7.87-1.43,7.23-4.97,14.42l-3.57,7.26c-.77,1.57-1.85,3.21-2.26,4.86-.99.03-2-.15-2.97-.38-1.28-.3-6.01-2.38-6.1-3.7.21-.18.59-.26.89-.05,1.09.76,5.81,2.78,6.39,1.06-.29-.92-1.63-1.33-2.22-2.26.96-.39,1.62.75,2.49.61.63-.1.73-1.06.9-1.59,1.17-3.65.41-8.73,1.47-8.7,1.73.04.15,5.1,1.26,6.59,1.57-3.1,2.1-6.23,2.11-9.52,0-.22.11-.43.24-.49,1.08-.49.51,2.59.98,2.86,1.22-1.46,1.61-3.09,2.06-4.69s1.05-2.88,1.54-4.37c1.27-3.79,2.39-7.49,3.4-11.36.69-2.63,1.08-5.27.86-7.96-.05-.55-.4-1.34.31-1.34Z"/>
          <path class="cls-1" d="M25.33,102.27c-.18.4.18,1.06.4,1.41-.08.53-.64.14-.92.29-1.72.89.13,2.97.2,3.82-1.16-.83-2.02-2.81-1.63-4.36.42-1.66,1.49-3.29,2.26-4.86l3.57-7.26c3.54-7.2,3.32-6.56,4.97-14.42.29-1.38,1.07-2.54,1.2-3.84.6.58,1.01-3.23.94-2.94,1-4.43,1.82-7.51.67-11.98l-.55-2.15c-.05-.18.06-.46.08-.58.29-1.38,1.76,3.13,1.85,4.39.58,8.91-2.16,12.77-3.45,20.69-.35,2.15-.42,4.26-1.13,6.33-.38.21-1.04.01-1.35.31l-2.7,5.29-4.41,9.86Z"/>
          <path class="cls-1" d="M41.76,41.54l-.72,2.21c-1.51,1.63-3.57,2.56-5.68,3.59l-1.48,6.7c-.83,3.78-1.66,7.43-2.45,11.23l-1.4,6.72c-.13.61-.61.87-1.12.78l3.72-17.34c.55-2.55,1.06-4.94,1.75-7.43.29-1.04.83-1.73,1.69-2.37,1.52-1.13,3.05-2.19,4.49-3.43.4-.34.73-.69,1.2-.68Z"/>
          <path class="cls-1" d="M16.65,94.38c-.04-.29-.11-.57-.44-.86-.97-.83-1.31-2.75-.19-3.54.85-.6,1.88-.47,2.76-.91l7.29-10.22c.19-.26.35-.44.57-.52.51,2.18-1,3.47-2.25,5.35l-5.18,7.76-1.43,1.1c-.2,1.23,2.53,3.85,1.66,4.18-.32-.83-.97-.69-1.4-.92-.62-.33-.77-1.22-1.4-1.42Z"/>
          <path class="cls-1" d="M81.4,96.51c.04-.76,1.86-.99,1.24-3.36s-.96-4.88-1.18-7.44l-.3-3.42c-.6-6.75-.69-10.1-3.35-16.97l-6.76-17.49c-.63-1.07-2.21-2.37-3.27-2.95l-.1-.87,1.83.85c1.42.66,2.33,1.78,2.9,3.28.85,2.2,1.53,4.4,2.15,6.71,1.06,3.96,2.39,7.62,4.02,11.36s2.49,7.17,2.85,11.08l.91,9.87c.2,2.13.45,4.08,1.08,6.07.5,1.59-.54,3.03-2.02,3.29Z"/>
          <path class="cls-1" d="M27.22,105.59c.47,1.25,1.57,2.03,2.6,2.68,1.17.75,2.47,1.14,3.94.96v.23c-.54.56-1.39.1-2.1.19-2.09.26-4.09.07-5.79-1.33-.11-.09-.41-.02-.35.15-.18-.24-.49-.31-.52-.69-.07-.85-1.92-2.94-.2-3.82.28-.15.84.24.92-.29-.86-1.37,2.14,2.67,1.49,1.91Z"/>
          <path class="cls-1" d="M33.75,109.47c.15.22.25.47.34.72-.15.36-.42.78-.47,1.18-.39.17-1.66,2.26-2.69,1.71-2.13-1.16-4.03-2.75-5.42-4.61-.05-.17.24-.24.35-.15,1.7,1.39,3.7,1.58,5.79,1.33.71-.09,1.56.37,2.09-.19Z"/>
          <path class="cls-1" d="M28.34,75.16c-.15.51.62.91.73,1.42.1.46-.31.57-.59.5-.59-.15-.69-.58-.97-.7-.56-.23.12.52-.35,1.17-.44.14-.59-2.33.17-2.56.33-.1.71.02,1,.17Z"/>
          <path class="cls-1" d="M67.67,44.03l.1.87c-1.37-.74-2.96-1.15-3.7-2.75.04-.11,0-.25.02-.36l3.58,2.25Z"/>
          <path class="cls-1" d="M80.94,96.74c-.07.02-.16.03-.24.04-.08,0-.17-.02-.25-.02-.04-.2.14-.3.35-.24.13.03.26.06.13.23Z"/>
          <path class="cls-1" d="M75.89,97.71c-.25.03-.6-.09-.72.2-1.18-.1-2.32-.31-3.55-.59-.13.4-.12,1.5.41,1.52l5.48.2c.65.02,1.29-.37,2-.04-.01.47-.44.69-.54,1.06-2.33.45-7.1.3-6.74.1-.07.04-.22.04-.16.21-.41-.09-.85-.26-1.09-.5-.71-.73.14-2.63-.6-3.07s-1.47-.92-1.09-1.85l1.57-3.94c.24-.61.36-1.15.25-1.71.48.55.7-3.14.7-2.84.5.2.23.87.15,1.34-.48,2.79-1.15,5.34-2.41,7.87.95.48,1.48,1.12,2.3,1.26-.07-.73-1.18-.97-.99-1.54,2.52-6.03,2.33-7.91,1.79-14.13-.03-.4.76-.79.31-1.47-1.74-2.59-1.63-2.62-1.26-4.73.72.47,1.18.64,1.93,1.21-.08-1.12-.81-1.88-1.3-2.83l-2.11-4.1c-.81-1.57-2.07-2.78-2.79-4.43-.52-1.19-1.07-2.26-1.71-3.41-.43,1.27,1.25,4.04.53,4.06-.97-1.21-1.05-2.86-1.49-4.45-.71-2.57-1.32-5.24-1.58-7.9-1.49-.39-.1,3.08-.29,4.43-.1.73-.02,1.28.02,1.98.29,4.89,1.19,5.53,2.28,10.05.09.36.06.98-.32,1.03-1.22-1.17-1.99-2.64-2.53-4.23-.33-1-1.9-2.04-2.7-1.37-.32,1.57.5,3.23.99,4.68l2.94,8.63c.31.9.36,1.81.66,2.72.7,2.08.79,4.26,1.01,6.44.28,2.7.8,5.28.83,8.01.02,1.55.54,3.07.39,4.61-.55,1.44-4.62-3.9-4.74-4.14-.19-.4-1.48-.73-1.56-.16-.44,3.21,1.82,7.07,3.81,9.56-1.44,1.5-4.69-3.74-5.85-3.63l-.25-5.74c-.18-4.04-.51-7.95-.49-12.02,0-1.92-.69-3.67-.9-5.54-1.04-9.42-.08-13.49,1.24-22.76-.04-.33-.19-.68-.31-.26l-.24.02c-.77-.54-1.26-1.27-1.58-2.3s-1.91-2.11-2.82-1.11c-.69.78-.34,2.18-.62,3.1-.07-.02-.16,0-.23.01-.24-.17-.63-.18-.7-.39-.12-.33-.06-.74-.09-1l.23-3.11c.08-1.02.36-1.86,1.53-1.94,4.82-.33,4.9,6.37,6.99,2.72l1.4-2.45c.15.17.31-.07.47-.21.65-.55,5.98-.98,8.1,2.61.55.94.92,2.03,1.3,3.04l2.55,6.75c.7,1.85,1.33,3.63,2.14,5.4.3.66.89,2.8.69,3.24-.09.21-.57.77-.82.47-3.16-3.63-1.4-2.75-3.33-5.29-1.33-1.74-2.03-4.14-2.65-4.25-1.08-.19.84,3.56,1.02,4.14,1.63,5.17,4.39,9.61,8.09,13.55.94,1,.61,2.72.54,3.87-2.17-.72-3.35-2.35-5.2-3.5.86,2.46,3.45,3.14,4.97,4.8.92,1.46.81,3.87.78,5.56-2.36-.45-4.08-4.75-4.72-3.78-.15.23.05.39.14.57.97,2.2,2.74,3.51,4.59,4.81.81.99.4,2.81.61,3.99.11.63.26,1.57-.38,1.83-1.54.62-4.79.29-4.26,1.08ZM73.25,81.27c0-.07-.05-.12-.12-.12s-.12.05-.12.12.05.12.12.12.12-.05.12-.12ZM73.49,81.75c0-.07-.05-.12-.12-.12s-.12.05-.12.12.05.12.12.12.12-.05.12-.12Z"/>
          <path class="cls-1" d="M71.8,86.43c-.02-2.12-.05-4.23-.27-6.53-.03-.34.6-.09.71.04-1.24-2.03-2.5-2.71-.74-5.51-1.28-1.7-.42-1.46-1.57-2.42.23.04.26-.17.04-.29-.45-1.06-.94-2.01-1.68-2.83l1.37,2.9c.03.07.03.19.01.26-1.03-1.6-2.94-4.76-3.43-6.54.71-.03-.96-2.79-.53-4.06.63,1.15,1.19,2.22,1.71,3.41.72,1.66,1.98,2.86,2.79,4.43l2.11,4.1c.49.95,1.22,1.71,1.3,2.83-.75-.57-1.21-.74-1.93-1.21-.37,2.12-.48,2.14,1.26,4.73.46.68-.34,1.08-.31,1.47.54,6.22.73,8.1-1.79,14.13-.18.58.93.82.99,1.54-.82-.14-1.35-.78-2.3-1.26,1.26-2.53,1.94-5.07,2.41-7.87.08-.48.34-1.14-.15-1.34ZM67.97,68.07c0-.07-.05-.12-.12-.12s-.12.05-.12.12.05.12.12.12.12-.05.12-.12ZM68.21,68.55c0-.07-.05-.12-.12-.12s-.12.05-.12.12.05.12.12.12.12-.05.12-.12Z"/>
          <path class="cls-1" d="M58.17,111.9c0-.9.14-1.81.05-2.81-.17-1.93-.04-3.8-.09-5.63.62.13.86.84,1.28,1.36,1.75,2.18,4.1,3.45,6.81,4.66-2.74,1.24-5.36,2.15-8.05,2.41Z"/>
          <path class="cls-1" d="M58.35,115.21c-.25-.54-.19-1.09-.19-1.68,3.24.25,5.62-1.15,8.88-1.71-.53,1.06-1.63,1.25-2.62,1.55l-6.07,1.84Z"/>
          <path class="cls-1" d="M66.02,111.45c-1.83.94-3.99,1.5-6.24,1.28l6.24-1.28Z"/>
          <path class="cls-1" d="M39.95,84.73c.35.36.08.77-.01,1.24-1.44,7.33-4.21,11.42-5.88,18.51-.38,1.61-.28,3.23-.3,4.76-1.47.18-2.77-.22-3.94-.96-.98-.8-1.78-1.72-2.6-2.68.64.76-2.35-3.28-1.49-1.91-.22-.36-.58-1.01-.4-1.41,1.09.28,3.2,3.45,5,4.02.39-4.22,1.1-8.03,2.4-11.87,1.18-3.49,1.91-6.88,2.49-10.49.24-1.51.91-2.92,1.54-4.47.78,1.68.32,3.24.19,4.83l-.3,3.58c-.17,2.1-.6,4.04-1.25,6.02-.2.61-.43,1.35.26,1.86,1.62-3.23,2.76-6.42,3.67-9.82.14-.51.04-1.1.62-1.2Z"/>
          <path class="cls-1" d="M45.45,50.65l-1.15,4.14c-.05.19-.12.54-.19.72l-1.31,2.7c-.31-1.33.74-5.27-.02-5.95-.6-.54-2.6-.19-2.92-1.33l3.46-1.64c.52-.25,1.04-.97,1.69-.33.44.44.23,1.25.45,1.7Z"/>
          <path class="cls-1" d="M40.64,78.99c-.21.8.29,5.17-.75,4.8.61-2.57-.27-5.21.75-4.8Z"/>
          <path class="cls-1" d="M40.85,77.74c0,.18.07.49-.16.54-.02-.09-.24-.09-.29-.18-.09-.18,0-.25.09-.31.14-.09.25-.14.35-.05Z"/>
          <circle class="cls-1" cx="42.65" cy="58.83" r=".15"/>
          <path class="cls-1" d="M35.38,73.04c.05-.49.48-2.9.94-2.94.07-.3-.35,3.52-.94,2.94Z"/>
          <path class="cls-1" d="M29.81,108.27c-1.03-.65-2.12-1.44-2.6-2.68.82.96,1.62,1.88,2.6,2.68Z"/>
          <path class="cls-1" d="M75.17,97.92c1.58.13,3.1,0,4.9-.52.13.96.13,1.77.14,2.68-.5.19-.9-.1-1.25-.03.11-.37.53-.58.54-1.06-.7-.33-1.35.07-2,.04l-5.48-.2c-.54-.02-.54-1.12-.41-1.52,1.23.28,2.36.5,3.55.59Z"/>
          <circle class="cls-1" cx="73.13" cy="81.27" r=".12"/>
          <circle class="cls-1" cx="73.37" cy="81.75" r=".12"/>
          <path class="cls-1" d="M69.92,72.02l-.27-.22-1.37-2.9c.73.82,1.23,1.77,1.68,2.83.22.11.19.33-.04.29Z"/>
          <path class="cls-1" d="M69.92,72.02c1.15.95.29.71,1.57,2.42-1.76,2.8-.49,3.48.74,5.51-.11-.13-.74-.38-.71-.04.22,2.3.25,4.41.27,6.53,0-.3-.22,3.39-.7,2.84-.27-.79-1.15-1.22-1.55-1.99-1.71-3.29-1.66-3.91-1.99-7.43-.09-.93.51-1.53.73-2.26.57-1.87,1.02-3.72,1.39-5.53.02-.08.02-.2-.01-.26l.27.22Z"/>
          <circle class="cls-1" cx="68.09" cy="68.55" r=".12"/>
          <circle class="cls-1" cx="67.85" cy="68.07" r=".12"/>
        </g>
        <path class="cls-1" d="M54.84,25.17c-.81.91-2.48.54-3.43.39-.26-1.98-1.2-5.71,1.33-6.07,1.06-.15,2.46.32,2.66,1.75.16,1.14.3,2.97-.56,3.94Z"/>
        <path class="cls-1" d="M46.75,17c-1.2-.08-2.14-.48-3.43.07.23-.6.97-1.03,1.55-1.14.67-.12,1.68.08,1.88,1.07Z"/>
        <path class="cls-1" d="M52.6,31.57c-1.14.42-2.38.57-3.61.23,1.22.02,2.19-.4,3.61-.23Z"/>
      </g>
      <g>
        <path class="cls-1" d="M86.91,113.32c.82,2.42,1.32,4.91,1.48,7.54,1.35.04,2.52.48,3.72.96.59.24.65.81.98,1.1-.77-.47.59,2.63-.87,2.49s-.52-3.13-1.95-3.46c-.58-.14-1.09-.43-1.55.1-1.4-1.08-1.65,1.38-5.51,1.02-.37-.09-.99-1.1-1.51-.57.02.96.21,2.07.45,3.05.16.27.68.12.81.53-.25.34-.38,0-.57-.04-1.37-.36-.51-3.65-1.62-4.6-.2,1.89.18,3.62.61,5.39.27,1.08-.1,6.4-1.1,7.63.19,1.06,1.82,1.45,2.87,1.76-.21.65-.87.31-1.24.58-.32-.13-.95.23-1.29-.11-2.32-2.36-2.62-.86-2.61-2.73.13-.45-.5-5.71-.56-5.76-.07-.06-.18-.13-.3-.04l-.02-.44c.12-.11.21-.25.23-.4.03-.24-.1-.44-.27-.57-.01-.08,0-.16-.01-.24-.04-.15.04-.52-.2-.5-.28-1.36-.55-2.87-2-3.67,1.32,2.7,1.69,7.93,1.53,10.66-.01.23.07.59.25.53v.39s.03,8.45.03,8.45c-.72.17-.36-1.52-1.19-1.65l-.28-.04c.17-.53-.09-1.28-.48-1.44-.16-.06-.34-.37-.71-.29l-7.97,1.66c1.76.15,3.28-.4,4.87-.57-.7,1.41-1.28,2.91-1.16,4.65.03.38.51,1.31-.17,1.43l-3.99.7c1.3.27,2.59.11,4.02-.02l-1.83.62c1.07.35,1.79-.35,2.49.47-.84,1.17-1.04,2.51-1.32,3.82-.2.96-1.48,1.2-1.92,1.89-1.5,2.37-1.75.01-4.24,3.67,1,.88,5.62.37,6.89.29,1.92-.11,3.72-.26,5.53-1.03-1.74,2.01-9.68,1.3-12.44,1.44-.37.02-.35.88-.07.94,1.41.3,2.59.25,3.82.29.54.02,1.24.6,1.78.02.12-.02.26.04.37,0-.08.24.23.44.53.47,1.77.16,5.32,1.56,5.31,2.26-.01,1.16-3.65.42-4.21,1.35,2.05.13,4.04.03,5.86-.45.9-.03,3.7.05,4.56-.01-4.85.78-9.83,1.31-14.9,1.07-.12-.03-.24-.2-.35-.18-.6.09-.32,1.35-.6,1-.38-.98-1.32-1.42-2.12-1.97-1.7-1.18-1.2-3.45-1.64-5.14-.24-.93-.89-1.71-.33-2.74.18-.34.17-.81.26-1.18l1.62-6.99c.41-1.79.85-3.46,1.64-5.1.13-.26-.18-.61-.17-.92.13-5.36.24-10.58.69-15.9.18-2.12,1.59-3.78,3.67-3.88l.07-1.86c1.14-.25-.64,4.13,1.69,3.38.79-.25.8-8.91,1.78-10.07.28.28.18.56.15,1.04-.18,2.75-.45,5.4-1.1,8.09-.11.46-.68,7.04-.25,7.46.35.37,1.01-.1,1.62-.03-1.11.19-.72,1.96-1.79,2.91-1.28,1.13-2.91,1.66-4.51,1.74-.18-1.8.29-3.3.08-3.42-.07-.04-.34.21-.34.3l-.04,4.76c-.01,1.5,3.26.86,4.8.71,1.22-.12,2.65.11,3.61-.71.77-.67.3-1.79.27-2.65-.08-1.89.07-3.65-.53-5.31v-5.71c.15.07.15-.07.22-.18.14-.22-.17-.25-.19-.37-.17-.69-.81-.41-.93-.84-.05-.18.03-.36.05-.52,3.05-.05,6.08.45,9.27.66.58.04,1.4.26,1.81-.15-.22-3.25-1.58-6.13-2.73-8.93l1.63-.49c1.11.39,3.22,3.11,3.83,2.63ZM84.66,117.94c.79-.08,1.77-.45,2.16-1.03-.38-2.38-1.94-4.5-3.88-5.83-.39.82.2,1.36.36,1.99.41,1.63.64,3.16,1.36,4.87ZM74.93,122.07c0-.07-.05-.12-.12-.12s-.12.05-.12.12.05.12.12.12.12-.05.12-.12ZM68.01,144.77c.38-.17.58-.47.4-.8-.1-.18-.14-.47-.36-.68-.13.58-.07.92-.03,1.47ZM66.11,144.86c-.38-.33-.14-.88-.47-1.07-.2.62.2,1.2.54,1.46.43.34,1.2.42,1.69-.02-.56-.56-1.25.07-1.76-.37Z"/>
        <path class="cls-1" d="M87.44,131.36c.38,0,.87.25,1.28.32-.17.53-.31.75-.33.96-.05.43.36.53.6.58.36.08.87.09.85-.49,0-.33-.04-.66.1-.95.12-.24.56-.22.85-.25.8.31.35,1.42.68,3.02-.49.15-.88.07-1.21.32l.07,1.71c.02.4-.14.8-.07,1.2-1.18-.89-2.29-1.81-3.82-1.71-.31-.4-.24-.93-.23-1.41,1.11,0,2.57.06,3.86-.07-1.36-.87-4.49.04-5.2-.71-.46-.65-.15-1.76-.46-2.65,1.25-.14,2.07.11,3.03.12Z"/>
        <path class="cls-1" d="M80.69,162.8c-.85.07-3.66-.02-4.56.01,3.44-.9,6.97-1.56,10.48-2.75.94-.32,1.94-.19,2.8-.92-.38-.41-1.01-.46-1.51-.36-1.32.26-2.55-.07-3.83-.07-1.71,0-3.12-.1-4.59-.98-.76-.45-1.43-.92-1.57-2.01l-.28-2.1-.12-11.26c-.01-1.27-.53-7.26-.4-8.19.03-.2-.37-.43-.48-.27v-.39c.47-.38.08-2.62.61-2.41-.02.92.33,2.09.75,2.83,0,1.87.28.36,2.61,2.73.34.34.97-.01,1.29.11,1.36.54,2.85.14,4.28.3.31.51.18,1.15.33,1.65-.48.19-1.07.09-1.46.49-.01.16-.03.32-.03.47-2.6.23-4.81-.92-6.52-3.07-.02,1.24.08,2.1.14,3.05l.27,4.04.12,5.36c.04,1.61.26,3.28.2,5.02-.17,4.51,6.26,3.3,8.8,3.02,2.04-.22,4.13-.34,5.87-1.25.08.01.16-.03.24-.03.13-.09.26-.02.34-.05s.25-.11.02-.2c-.08-.03-.23-.02-.36-.03.4-.64.65-1.2.33-1.98-1.09-2.66-.8-6.08-3.78-7.56-2.27-1.13-4.84-1.05-4.9-1.93.39.03.77.18,1.16.17,1.53-.03,3.09.08,4.68-.07.23-1.32-.11-2.51-.09-3.77.01-.76-.18-1.07-.68-1.57-.29-.29-.25-.83-.57-1.08.1-.04.21.05.3.06,2.41.15,2.98-4.34,3.02-6.19l.16-6.59c1.15,3.16,1.64,6.6,2.12,10.06.18,1.3-.46,2.26-1.63,2.86l4.05,13.34c.42,1.39-.51,2-1.05,3.02-.63,1.51.73,4.35-1.44,5.47-3.41,1.75-11.3,2.68-15.11,2.98Z"/>
        <path class="cls-1" d="M82.37,126.03c.19,1.9,4.77,2.6,6.42,2.27,2.34-.47,1.84-4.82,1.47-6.36,1.43.34.46,3.32,1.95,3.46s.1-2.96.87-2.49c.67.59.4,1.45.66,2.15l-.16,6.59c-.04,1.85-.61,6.34-3.02,6.19-.07-.41.14-.97-.23-1.25l-.07-1.71c.33-.25.72-.18,1.21-.32-.32-1.59.12-2.7-.68-3.02-1.05-.41-2.25-.26-3.37-.4-.98-.12-1.93-.24-3.13-.12-.11.99-.14,2.31.3,3.26.6-.07,1.27.12,1.61.39,0,.48-.08,1.01.23,1.41.03.22-.12.54-.02.75-.07.1-.16.19-.25.26-1.43-.17-2.92.24-4.28-.3.37-.27,1.03.07,1.24-.58-1.05-.31-2.68-.7-2.87-1.76.99-1.23,1.36-6.55,1.1-7.63-.44-1.77-.82-3.5-.61-5.39,1.11.95.25,4.24,1.62,4.6Z"/>
        <path class="cls-1" d="M86.91,113.32c-.6.48-2.72-2.25-3.83-2.63l-1.63.49c-.23-.57-.8-1.03-.79-1.69.56-.65,1.31-1.37,1.72-2.14.17-.32.54-.53.53-.95,2.06.24,3.48,5.37,4,6.93Z"/>
        <path class="cls-1" d="M72,112.34c-.98,1.16-1,9.82-1.78,10.07-2.33.75-.56-3.64-1.69-3.38.08-2.06.66-4.12.4-6.14.18-1.5,1.24-2.97.74-3.91.8.34.4-.49,1.21-.7-.18.42-.64.86-.38,1.5.19-.42,1.08-1.3,1.36-.71.49,1.05-.04,2.29.14,3.27Z"/>
        <path class="cls-1" d="M76.13,162.82c-1.82.48-3.82.58-5.86.45.55-.94,4.19-.19,4.21-1.35,0-.71-3.54-2.1-5.31-2.26-.31-.03-.61-.22-.53-.47,2.61-.84,5.2.28,6.51.1.97-.14,2.29-1.63,2.06-2.74-.41-2.01-1.39-10.18-1.4-12.06,0-.35-.05-.73-.3-.82.06-.16-.13-.41-.1-.59.16-.15.26-.34.25-.57-.01-.16-.17-.28-.25-.39l.04-1.4c.83.13.47,1.82,1.19,1.65v-8.45c.1-.15.5.07.47.27-.14.92.38,6.92.4,8.19l.12,11.26.28,2.1c.14,1.09.81,1.56,1.57,2.01,1.47.87,2.88.98,4.59.98,1.27,0,2.51.33,3.83.07.51-.1,1.13-.05,1.51.36-.86.73-1.86.6-2.8.92-3.51,1.19-7.04,1.84-10.48,2.75Z"/>
        <path class="cls-1" d="M73.97,111.63c-.73,2.57-.6,5.33-.87,7.97-.02.16-.1.34-.05.52.12.43.76.15.93.84-.11,0-.18.07-.21.18-.03.14.1.27.17.36v5.71c-.54.19-.4.93-.88,1.21l-.05-4.54c.11-.9.7-1.98-.15-2.83l-.09,7.73c.59.14,1.09.36,1.2.85,0,.08.01.16,0,.24-.2,1.32-.34,2.59-.21,4.04-1.06.32-4.54.04-3.87.77-.39-.02-.81.33-1.2.09-.82-.21-1.67-.05-2.61-.1-.14-.44.06-.8.03-1.13,1.6-.08,3.23-.61,4.51-1.74,1.08-.95.68-2.72,1.79-2.91-.61-.07-1.28.4-1.62.03-.43-.42.14-7,.25-7.46.66-2.69.93-5.34,1.1-8.09.03-.48.13-.76-.15-1.04-.18-.99.35-2.23-.14-3.27-.27-.59-1.16.29-1.36.71-.26-.64.19-1.07.38-1.5.35-.82,1-2.02,1.6-2.59.27-.21,1.08-.36,1.41-.28,1.3,2.05.65,4.21.08,6.23Z"/>
        <path class="cls-1" d="M90.26,121.95c.37,1.53.87,5.89-1.47,6.36-1.65.33-6.23-.37-6.42-2.27.19.04.32.38.57.04-.13-.41-.65-.26-.81-.53-.24-.98-.43-2.09-.45-3.05.53-.53,1.14.48,1.51.57,3.86.37,4.12-2.1,5.51-1.02.46-.52.97-.23,1.55-.1ZM89.36,127.12l-6.41-.96c2.03.96,4.27,1.24,6.41.96Z"/>
        <path class="cls-1" d="M73.95,127.22c.6,1.67.45,3.43.53,5.31.04.86.51,1.98-.27,2.65-.96.82-2.39.59-3.61.71-1.54.15-4.82.79-4.8-.71.96-.07,1.93-.24,2.88-.41.39.24.81-.1,1.2-.09-.03,0,4.55-.27,4.19-.81.19.14.24-4.77-.11-4.01.01-.08,0-.16,0-.24.02-.24.11-.64-.15-.88-.16-.14-.53-.09-.76-.33.48-.27.33-1.02.89-1.21Z"/>
        <path class="cls-1" d="M84.66,117.94c-.72-1.71-.95-3.24-1.36-4.87-.16-.63-.75-1.16-.36-1.99,1.94,1.32,3.51,3.45,3.88,5.83-.39.58-1.37.95-2.16,1.03Z"/>
        <path class="cls-1" d="M76.85,126.01c.04.18-.07.49.2.5.02.08,0,.16.01.24l.05.96.02.44c.05,1.01.13,1.97.11,2.96-.54-.21-.14,2.03-.63,2.41-.18.06-.26-.3-.25-.53.16-2.73-.21-7.96-1.53-10.66,1.46.8,1.72,2.31,2,3.67Z"/>
        <path class="cls-1" d="M78,133.95c-.41-.75-.76-1.91-.75-2.83.02-.99-.06-1.95-.11-2.96.12-.08.23-.02.3.04.05.05.69,5.3.56,5.76Z"/>
        <path class="cls-1" d="M66.11,133.54c.03.32-.16.69-.03,1.13.93.05,1.79-.11,2.61.1-.95.17-1.92.34-2.88.41l.04-4.76c0-.08.27-.34.34-.3.21.12-.26,1.62-.08,3.42Z"/>
        <path class="cls-1" d="M68.27,159.18c-.54.58-1.24,0-1.78-.02.45-.41,1.35-.43,1.78.02Z"/>
        <path class="cls-1" d="M77.11,127.71l-.05-.96c.17.13.3.33.27.57-.02.14-.11.29-.23.4Z"/>
        <path class="cls-1" d="M73.95,121.51c-.08-.1-.21-.23-.17-.36.03-.11.1-.18.21-.18.03.11.34.15.19.37-.08.11-.07.25-.23.18Z"/>
        <path class="cls-1" d="M77.06,126.51c-.27-.02-.16-.33-.2-.5.24-.02.16.35.2.5Z"/>
        <circle class="cls-1" cx="74.81" cy="122.07" r=".12"/>
        <path class="cls-1" d="M85.01,139.71v3.83c0,.49.61.39.76.56.06.87,2.63.8,4.9,1.93,2.98,1.48,2.69,4.9,3.78,7.56.32.79.07,1.35-.33,1.98v.27c-.08,0-.16.05-.24.03-.8-.12-1.74.5-2.58.31-1.19-.27-2.15-.51-3.39-.3-1.9.31-3.97.2-5.77-.25-1.12-.28-1.24-1.09-1.28-2l-.34-7.43c-.04-.97-.54-7.42-1.24-8.05-.45.54.19,4.99.2,6.09.05,3.66.48,6.83.15,10.36-.49-.85.32-5.71-.62-5.52l-.12-5.36-.27-4.04c-.06-.95-.16-1.81-.14-3.05,1.71,2.16,3.91,3.3,6.52,3.07Z"/>
        <path class="cls-1" d="M93.89,155.88c-1.74.91-3.83,1.03-5.87,1.25-2.55.28-8.97,1.49-8.8-3.02.07-1.74-.16-3.41-.2-5.02.94-.19.13,4.67.62,5.52.33-3.53-.1-6.7-.15-10.36-.01-1.1-.65-5.54-.2-6.09.7.62,1.19,7.08,1.24,8.05l.34,7.43c.04.91.17,1.72,1.28,2,1.8.44,3.88.56,5.77.25,1.24-.21,2.21.03,3.39.3.84.19,1.78-.43,2.58-.31ZM90.76,156.4c-.33-.37-.74-.18-.97.03.39.13.64.18.97-.03Z"/>
        <path class="cls-1" d="M90.26,137.79c.32.24.29.79.57,1.08.5.5.69.81.68,1.57-.02,1.26.32,2.45.09,3.77-1.59.14-3.15.03-4.68.07l.96-.48c.8-.13,2.34.67,3.3-.15.02-.82-.4-1.77-1.18-1.98-1.43-.4-1.37.65-2.78-.77,0-.52-.3-1.04-.27-1.66.29-.24.69-.11.94-.41-.48-.15-.91-.04-1.13-.33-.39-.52.11-.75-.36-1.66-.11-.21.05-.53.02-.75,1.53-.1,2.64.82,3.82,1.71Z"/>
        <path class="cls-1" d="M90.56,137.85c-.09,0-.19-.1-.3-.06-.07-.4.09-.8.07-1.2.37.29.16.84.23,1.25Z"/>
        <path class="cls-1" d="M86.89,143.53s0,.14-.02.2c-.43,0-.81.13-1.4.04.05-.37-.24-4.82-.42-4.53.38-.4.98-.3,1.46-.49.44,1.56.54,3.17.39,4.79Z"/>
        <path class="cls-1" d="M87.24,140.9c0,.86.16,1.9-.35,2.64.15-1.62.05-3.23-.39-4.79-.14-.5-.02-1.14-.33-1.65.1-.08.18-.17.25-.26.46.91-.03,1.14.36,1.66.22.29.65.18,1.13.33-.26.3-.66.17-.94.41-.03.62.27,1.14.27,1.66Z"/>
        <path class="cls-1" d="M86.87,143.73c.34,0,.68.12,1.02.06l-.96.48c-.39,0-.77-.14-1.16-.17-.15-.17-.76-.07-.76-.56v-3.83c0-.16.02-.32.03-.47.18-.29.47,4.17.42,4.53.59.09.98-.03,1.4-.04Z"/>
        <path class="cls-1" d="M94.13,155.85v-.27c.13,0,.28,0,.35.03.23.09.06.17-.02.2s-.2-.05-.34.05Z"/>
        <path class="cls-1" d="M87.43,131.14v.22c-.95,0-1.77-.25-3.02-.12.31.89,0,2,.46,2.65.71.75,3.84-.16,5.2.71-1.28.12-2.74.07-3.86.07-.34-.26-1.01-.46-1.61-.39-.44-.95-.41-2.27-.3-3.26,1.19-.12,2.15,0,3.13.12Z"/>
        <path class="cls-1" d="M90.79,131.54c-.29.03-.73,0-.85.25-.14.29-.11.61-.1.95.01.58-.49.57-.85.49-.24-.05-.65-.15-.6-.58.02-.21.16-.43.33-.96-.41-.07-.9-.32-1.28-.32v-.22c1.11.14,2.31-.01,3.36.4Z"/>
        <g>
          <path class="cls-1" d="M74.69,139.23v1.92c-.03.2-.43.35-.16.74.19-.13.08-.43.42-.51.1,2.89.2,5.24.33,8.07l.21,4.36c.04.89.24,1.55-.1,2.49.99-.23.3-5.28.3-5.78l-.08-5.26c0-.6-.29-1.11-.11-1.6.25.1.29.47.3.82.01,1.88.99,10.04,1.4,12.06.23,1.11-1.1,2.6-2.06,2.74-1.32.19-3.9-.94-6.51-.1-.11.04-.26-.03-.37,0-.43-.45-1.33-.42-1.78-.02-1.23-.04-2.41.01-3.82-.29-.28-.06-.31-.92.07-.94,2.76-.14,10.7.57,12.44-1.44-1.8.77-3.6.92-5.53,1.03-1.26.07-5.89.59-6.89-.29,2.49-3.66,2.74-1.3,4.24-3.67.44-.69,1.72-.93,1.92-1.89.28-1.3.47-2.65,1.32-3.82-.7-.82-1.42-.11-2.49-.47l1.83-.62c-1.44.13-2.72.29-4.02.02l3.99-.7c.68-.12.19-1.05.17-1.43-.12-1.74.45-3.24,1.16-4.65,1.25-.14,2.51-.81,3.81-.79ZM74.25,142.83c0-.08-.07-.15-.15-.15s-.15.07-.15.15.07.15.15.15.15-.07.15-.15ZM74.01,143.55c0-.08-.07-.15-.15-.15s-.15.07-.15.15.07.15.15.15.15-.07.15-.15ZM73.37,144.99c.45-.3.5-.71.25-.95-.45.3-.5.71-.25.95ZM72.77,145.95c-1.21,3.09-1.22,6.6-.62,9.88.35-2.08-.18-4.04.17-6.02l.69-3.87c.17-.11.33-.41.24-.6-.1-.2-.17-.07-.25,0-.16.15-.21.28-.23.6Z"/>
          <path class="cls-1" d="M75.41,142.11v.96c-.03.18.16.43.1.59-.18.49.1,1,.11,1.6l.08,5.26c0,.5.69,5.55-.3,5.78.34-.94.14-1.61.1-2.49l-.21-4.36c-.13-2.83-.23-5.18-.33-8.07-.34.08-.23.38-.42.51-.28-.39.13-.54.16-.74.34,0,.43-.17.48-.48l.28.04-.04,1.4Z"/>
          <path class="cls-1" d="M74.69,139.23c-1.31-.02-2.56.66-3.81.79-1.59.17-3.11.72-4.87.57l7.97-1.66c.37-.08.56.23.71.29Z"/>
          <path class="cls-1" d="M75.17,140.67c-.05.31-.14.47-.48.48v-1.92c.39.16.65.91.48,1.44Z"/>
          <path class="cls-1" d="M66.11,144.86c.51.43,1.2-.19,1.76.37-.49.44-1.26.36-1.69.02-.34-.27-.74-.85-.54-1.46.33.19.09.75.47,1.07Z"/>
          <path class="cls-1" d="M68.01,144.77c-.04-.56-.09-.9.03-1.47.22.2.26.5.36.68.18.33-.02.63-.4.8Z"/>
          <path class="cls-1" d="M73.01,145.95l-.69,3.87c-.35,1.98.18,3.94-.17,6.02-.6-3.28-.59-6.8.62-9.88h.24Z"/>
          <path class="cls-1" d="M73.37,144.99c-.24-.24-.19-.65.25-.95.24.24.19.65-.25.95Z"/>
          <path class="cls-1" d="M73.01,145.95h-.24c.02-.32.07-.45.23-.6.08-.07.15-.2.25,0,.09.19-.07.49-.24.6Z"/>
          <circle class="cls-1" cx="74.09" cy="142.83" r=".15"/>
          <circle class="cls-1" cx="73.85" cy="143.55" r=".15"/>
        </g>
        <path class="cls-1" d="M75.41,143.07v-.96c.08.11.23.24.25.39.02.22-.09.42-.25.57Z"/>
        <path class="cls-1" d="M69.89,134.69c-.67-.74,2.81-.45,3.87-.77-.13-1.45.01-2.71.21-4.04.36-.77.31,4.14.11,4.01.35.54-4.23.81-4.19.81Z"/>
        <path class="cls-1" d="M73.07,128.42c.23.24.6.19.76.33.26.23.17.63.15.88-.11-.5-.61-.71-1.2-.85l.09-7.73c.86.85.26,1.93.15,2.83l.05,4.54Z"/>
        <path class="cls-1" d="M89.36,127.12c-2.14.28-4.38,0-6.41-.96l6.41.96Z"/>
        <path class="cls-1" d="M90.76,156.4c-.33.21-.59.16-.97.03.24-.21.64-.39.97-.03Z"/>
        <path class="cls-1" d="M87.89,143.79c-.34.05-.69-.07-1.02-.06.02-.06-.01-.15.02-.2.51-.74.35-1.77.35-2.64,1.41,1.41,1.35.37,2.78.77.77.22,1.2,1.16,1.18,1.98-.96.82-2.5.02-3.3.15Z"/>
      </g>
      <g>
        <path class="cls-1" d="M59.12,36.36c.18-.03.54.03.67.14,1.31,1.39,1.87,2.53,3,4.26.62.85.6,1.82.18,2.74-1.25,2.69-2.4,5.35-4.37,7.79-.92-2-2.53-3.35-4.61-3.68.77-.72,1.57-.96,2.4-1.36,1.15-.8,2.37-1.65,2.96-3.1.11-.3-.61-.12-.73.14-.5-.23-.63-.87-.94-1.26-.1-1.28-.02-2.56-.05-3.84,0-.43-.05-.96.27-1.31.29-.31.78-.47,1.2-.53Z"/>
        <path class="cls-1" d="M40.61,101.07c3.7,1.28,7.63,1.74,11.52,2.16,1.33-.46,2.98-.02,4.56-.22.29.9.27,2.26.31,3.33l.09,2.9c-6.73,1.62-15.99-1.21-22.03-4.3.15-1.75.62-3.61,1.51-5.1,1.37.32,2.72.78,4.04,1.24Z"/>
        <path class="cls-1" d="M58.12,101.79c.02.53,0,1.13,0,1.67.05,1.84-.08,3.7.09,5.63.09,1-.05,1.91-.05,2.81v1.64c0,.58-.07,1.14.18,1.68.13.27-.06.77-.12,1.12-.7-.74-.95-1.76-.99-2.83l-.16-4.26-.09-2.9c-.03-1.06-.02-2.43-.31-3.33-.01-.31-.05-.92.03-1.22.58.8-.3-5.82-.07-5.01-.24-.83-.13-1.6-.22-2.44-.26-2.34-.55-4.59-.45-6.95.01-.28-.38-.28-.49-.23-.23-1.61-.09-3.25-.5-4.81-.11-.41.47-2.91-.48-2.94.92-.57.22-3.06.16-4.32-2.33.35-3.92,2.14-3.49,4.31-.61.13-1.02.08-1.45.11-.12-.06-.39-.03-.53-.02-.11-.59-.76-6.69.5-6.25,1.58.43,3.37.28,5.04-.06.08-1.26.13-2.25.03-3.55-1.93.09-3.61.06-5.3-.19.94-.01.77-4.21.71-4.83l2.86.32c.81.09,1.55.26,2.28-.21.18-1.01.41-1.92.44-3.09-1.4-.07-3.12.57-4.12.11l.44-2.19c1.27-.28,2.67-.57,4.01.21.48-.5.59-1.19.63-1.85.52-.68.69-1.58.69-2.43.12-.43.27-.07.31.26-1.32,9.27-2.28,13.34-1.24,22.76.21,1.88.91,3.62.9,5.54-.02,4.06.31,7.97.49,12.02l.25,5.74Z"/>
        <path class="cls-1" d="M43.57,60.71c-.41.85-.08,1.8-.29,2.67-.36,1.5-.31,3.05-.46,4.57l-.3,2.87c-.26,2.48-.55,4.99-.46,7.48-.09.79-.29,2-.42,2.85-.44,2.73-.86,5.47-1.5,8.17-.19.78-.42,1.84-.69,2.58-.7,1.92-1.73,3.78-2.04,5.82-.88.28-.66,1.45-.84,2.12-.9,1.5-1.36,3.35-1.51,5.1-.92.88-.66,2.35-.45,3.55.11.65.04,1.33-.52,1.71-.1-.25-.2-.5-.34-.72v-.23c.03-1.52-.07-3.15.31-4.76,1.67-7.09,4.44-11.18,5.88-18.51.09-.47.36-.88.01-1.24.05-.25-.11-.69-.05-.93,1.04.37.53-4,.75-4.8.06-.23.11-.49.05-.72.23-.05.15-.36.16-.54.11-2.93.62-5.81.93-8.84.27-2.66.56-8.11,1.85-10.13.19.73.19,1.44-.06,1.95Z"/>
        <path class="cls-1" d="M47.33,38.99l.47.41-.52,2.44c-.29.28-.61.44-1.05.78-.16,5,1.46,5.45,2.08,8.81.16.86-.03,1.83.55,2.63.21-1.57-.03-3.02.88-4.09l1.21-.32c-.21.99-.18,1.94-.28,2.98-.09.91-.9,5.45-.21,5.5.14-.57-.28,4.61-.39,4.72-1.19.18-2.41.04-3.65.09-.26-2.41.48-3.92.15-6.48-.31.2-.13.72-.4.72-.55-.07-.98-.3-1.43-.17-.72-.12-.49-.87-.61-1.47.07-.18.13-.52.19-.72.68-.14,1.21.14,2.09.31-.35-1.65-.32-3.14-.94-4.44-.22-.46,0-1.27-.45-1.7-.65-.64-1.17.08-1.69.33l-3.46,1.64c-.22-.08-.38-.23-.43-.41-.08-.28.16-.54.24-.81l.7-2.35c2.78,1.1.31-5.92,5.23-9,.65.28,1.22.59,1.75.64Z"/>
        <path class="cls-1" d="M44.41,60.77c.17.62,1.18.25,1.54.66.27.39-.22,1.59.51,1.85.66.24,4.2.48,4.23-1.53.32.02.63.01.94-.03,1,.46,2.72-.18,4.12-.11-.02,1.17-.26,2.08-.44,3.09-.73.47-1.47.3-2.28.21l-2.86-.32-5.02-.76c-.25-.31-.65-.12-.97-.19-.3-.06-.59-.3-.92-.27.21-.86-.13-1.82.29-2.67.28,0,.56.02.84.06Z"/>
        <path class="cls-1" d="M51.92,55.19c-.17.01-.46-.02-.74.12.14.8-.22,1.59-.24,2.32s-.2,1.38-.21,2.19l-.03,1.94c-.03,2.02-3.57,1.77-4.23,1.53-.73-.27-.25-1.46-.51-1.85-.36-.42-1.37-.04-1.54-.66.07-.69.84-3.41.31-3.79.46-.13.88.09,1.43.17.27,0,.08-.51.4-.72.33,2.56-.41,4.07-.15,6.48,1.24-.04,2.46.1,3.65-.09.11-.11.53-5.29.39-4.72.34-1.41.57-2.88.67-4.32.04.26-.03.67.09,1,.08.21.46.22.7.39Z"/>
        <path class="cls-1" d="M51.92,55.19c.07,0,.16-.03.23-.01,1.62.46,3.36.47,5.02.32l.24-.02c0,.85-.17,1.75-.69,2.43-.87.16-1.75-.05-2.71-.17-.82-.11-1.59,0-2.32-.05-.25-.02-.5-.04-.76-.04.03-.73.38-1.53.24-2.32.29-.14.58-.11.74-.12Z"/>
        <path class="cls-1" d="M57.17,55.5c-1.67.15-3.4.14-5.02-.32.28-.91-.07-2.32.62-3.1.91-1,2.5.07,2.82,1.11s.81,1.76,1.58,2.3Z"/>
        <path class="cls-1" d="M37.41,97.72c2.31.98,4.81,1.52,7.28,1.95.09.25,5.38.87,5.28.46.32.04.64.02.96-.01.11.1.17.24.35.24.16,0,.27-.12.39-.2.12-.03.29-.04.42-.04.55-.01,1.14.09,1.68-.03.88-.18,1.77-.28,2.68-.21-.02.58.46,1.26.27,1.92-.08.3-.05.92-.03,1.22-1.57.2-3.23-.24-4.56.22.06-.24-.02-.41-.15-.46-.28-.1-.53.02-.81,0-3.66-.27-7.07-1.19-10.56-1.7-1.32-.46-2.67-.92-4.04-1.24.18-.67-.05-1.84.84-2.12Z"/>
        <path class="cls-1" d="M52.13,103.23c-3.89-.42-7.82-.88-11.52-2.16,3.48.51,6.9,1.43,10.56,1.7.28.02.53-.1.81,0,.14.05.22.22.15.46Z"/>
        <path class="cls-1" d="M43.47,68c.28.27.64.34,1,.44,1.65.45,3.33.74,5,.99s3.37.28,5.3.19c.1,1.3.05,2.29-.03,3.55-1.67.34-3.46.49-5.04.06s-3.29-.9-4.99-1.17c-.48-.08-.89-.52-1.42-.52-.3,0-.7-.49-.77-.72l.3-2.87.66.05Z"/>
        <path class="cls-1" d="M42.76,78.32c.94.5,2.07.46,3.1.67,1.1.23,2.21.57,3.35.49.14,0,.41-.04.53.02.92.49,2.04.09,3.13.01l1.65-.11c.95.04.37,2.53.48,2.94-1.27.23-2.56.12-3.82.25-.18-.34-.71-.27-1.14-.31l-4.62-.43c-.29-.03-.72.14-.98.08-.25-.25-.64-.2-.92-.35-.34-.18-.58-.22-.98-.21-.28.01-.58-.32-.9-.24.14-.85.34-2.07.42-2.85.2.07.51-.07.7.03Z"/>
        <path class="cls-1" d="M55,82.34c.41,1.56.27,3.2.5,4.81.11.76-.15,1.56.24,2.43.1.23.06.71-.12.89-.13.13-.39.09-.61.23l-1.2.05c-.64-.03-1.3.07-2-.13-.74-2.69-1.09-5.31-1.34-7.95l.7-.08c1.27-.14,2.55-.02,3.82-.25Z"/>
        <path class="cls-1" d="M50.19,64.59c.06.63.23,4.82-.71,4.83-1.68-.25-3.35-.54-5-.99-.32-.98.45-3.48.69-4.6l5.02.76Z"/>
        <path class="cls-1" d="M49.7,73.22c-1.26-.44-.61,5.66-.5,6.25-1.14.08-2.24-.26-3.35-.49-.2-2.3-1.15-4.51-1.14-6.94,1.69.27,3.35.73,4.99,1.17Z"/>
        <path class="cls-1" d="M54.51,79.4l-1.65.11c-1.1.08-2.21.48-3.13-.01.43-.03.84.02,1.45-.11-.43-2.17,1.16-3.96,3.49-4.31.05,1.27.76,3.75-.16,4.32Z"/>
        <path class="cls-1" d="M56.72,57.9c-.04.67-.15,1.35-.63,1.85-1.33-.78-2.74-.49-4.01-.21-.03-.56-.21-1.32-.39-1.87.73.05,1.5-.05,2.32.05.96.12,1.84.33,2.71.17Z"/>
        <path class="cls-1" d="M56.73,101.79c.18-.66-.29-1.34-.27-1.92.04-1.17-.07-2.32-.19-3.58l-.34-3.43c-.06-.63.09-1.37-.25-2.03-.11-.21-.51-.14-.66-.13.22-.14.48-.1.61-.23.18-.17.22-.65.12-.89-.39-.87-.14-1.67-.24-2.43.1-.05.5-.05.49.23-.1,2.37.19,4.61.45,6.95.09.84-.02,1.61.22,2.44-.24-.8.65,5.81.07,5.01Z"/>
        <path class="cls-1" d="M51.69,57.68c.18.55.37,1.31.39,1.87l-.44,2.19c-.31.04-.63.04-.94.03l.03-1.94c.01-.8.19-1.48.21-2.19.25,0,.5.03.76.04Z"/>
        <path class="cls-1" d="M42.53,92.72c1.13.73-.1,1.85.28,3.29,2.23.18,3.82,1.59,4.79,3.51l-2.91.14c-2.47-.44-4.98-.97-7.28-1.95.31-2.04,1.34-3.9,2.04-5.82,1.68.02,1.43.88,3.08.82Z"/>
        <path class="cls-1" d="M42.05,89.62c0,.24.3.08.45.07.06,0,.13,0,.19-.01.42.59,1.19.36,1.78.57.76.26,1.55.22,2.31.44,1.69.48,3.48.27,5.36.26.63,0,1.27.25,1.67-.19l1.2-.05c.15,0,.55-.08.66.13.34.66.19,1.4.25,2.03-.89-.08-1.71.3-2.59.31l-2.43.02c-2.23.02-4.47-.09-6.69-.3-.56-.05-1.11-.2-1.68-.18-1.65.06-1.4-.8-3.08-.82.27-.74.5-1.8.69-2.58.67-.08,1.26.3,1.92.3Z"/>
        <path class="cls-1" d="M42.53,81.39c.06.22.31.3.51.3-.01.12.02.28,0,.39-.01.07-.16.11-.19.21-.05.14.13.24.19.33.08.65-.14,1.44-.1,2.1-1.3.96.29,3.04-.25,4.95-.06,0-.13.01-.19.01.02-.24-.31-.07-.45-.07-.66,0-1.25-.38-1.92-.3.64-2.69,1.06-5.44,1.5-8.17.31-.08.61.26.9.24Z"/>
        <path class="cls-1" d="M43.29,71.54l-.03,6.28c0,.36-.26.54-.5.51-.19-.1-.5.04-.7-.03-.1-2.49.2-5,.46-7.48.07.24.47.73.77.72Z"/>
        <path class="cls-1" d="M44.2,63.65c-.24,1.45-.24,2.96-.73,4.35l-.66-.05c.16-1.52.1-3.06.46-4.57.33-.03.62.21.92.27Z"/>
        <path class="cls-1" d="M44.3,54.79l1.15-4.14c.62,1.3.59,2.79.94,4.44-.88-.16-1.41-.44-2.09-.31Z"/>
        <path class="cls-1" d="M49.74,49.96c-.9,1.07-.66,2.52-.88,4.09-.59-.8-.4-1.77-.55-2.63.35,0,.68-.35.73-.75.07-.57.48-.69.7-.99v.28Z"/>
        <path class="cls-1" d="M45.17,63.84c-.24,1.12-1.01,3.61-.69,4.6-.36-.1-.72-.17-1-.44.48-1.39.49-2.9.73-4.35.32.06.72-.13.97.19Z"/>
        <path class="cls-1" d="M55.93,92.86l.34,3.43c.12,1.27.23,2.41.19,3.58-.91-.06-1.79.03-2.68.21l-1.36-6.6c.4-.1.73-.08.91-.31.88,0,1.7-.39,2.59-.31Z"/>
        <path class="cls-1" d="M44.21,92.9c.14.46.82.22,1.15.51,1.17,1.03,2.33,5.89,4.6,6.72.1.41-5.19-.21-5.28-.46l2.91-.14c-.97-1.93-2.56-3.34-4.79-3.51-.38-1.44.85-2.56-.28-3.29.57-.02,1.12.13,1.68.18Z"/>
        <path class="cls-1" d="M50.9,93.2c-.07.49.25.92-.21,1.62-.37-.79-.42-1.01-.99-1.1-.51-.08-1-.49-1.63.04.74,1.95.84,4.52,2.34,5.89l.52.47c-.32.03-.64.05-.96.01-2.27-.83-3.43-5.7-4.6-6.72-.33-.29-1.01-.05-1.15-.51,2.22.2,4.46.32,6.69.3Z"/>
        <path class="cls-1" d="M53.33,93.17c-.18.23-.51.22-.91.31l1.36,6.6c-.54.11-1.14.01-1.68.03l.66-.38c-.31-1.06-.85-1.42-1.36-2.02-.92-1.1-1.44-2.67-1.69-3.99.56.09.62.31.99,1.1.46-.7.14-1.13.21-1.62l2.43-.02Z"/>
        <path class="cls-1" d="M49.7,93.72c.25,1.33.77,2.89,1.69,3.99.5.6,1.04.96,1.36,2.02l-.66.38c-.13,0-.3.01-.42.04-.24-.03-.49-.06-.74-.04l-.52-.47c-1.5-1.36-1.6-3.94-2.34-5.89.64-.54,1.12-.13,1.63-.04Z"/>
        <path class="cls-1" d="M51.67,100.16c-.12.08-.23.2-.39.2-.17,0-.23-.14-.35-.24.25-.03.5,0,.74.04Z"/>
        <path class="cls-1" d="M44.71,72.05c0,2.43.94,4.64,1.14,6.94-1.03-.21-2.16-.17-3.1-.67.24.03.5-.15.5-.51l.03-6.28c.53,0,.95.44,1.42.52Z"/>
        <path class="cls-1" d="M45.41,81.86c.17.45.85.09,1.24.41.2.16.26.64.51.56.12-.04.28-.45.42-.43,1.01.11,1.98.38,2.9.28.24,2.64.6,5.27,1.34,7.95.7.2,1.36.1,2,.13-.4.44-1.04.19-1.67.19-1.88.01-3.67.23-5.36-.26-1.2-2.35-1.85-6.08-2.35-8.74.26.06.69-.11.98-.08Z"/>
        <path class="cls-1" d="M43.51,81.6c.27.14.67.1.92.35.5,2.66,1.16,6.4,2.35,8.74-.76-.22-1.55-.18-2.31-.44-.04-1.27-.95-2.32-1.39-3.6-.21-.61-.12-1.35-.15-1.92-.03-.66.18-1.44.1-2.1.21.08.21-.21.19-.37,0-.11-.03-.25-.18-.17.02-.11-.01-.27,0-.39.16,0,.31-.07.47-.1Z"/>
        <path class="cls-1" d="M51.17,82.59l-.7.08c-.92.1-1.89-.16-2.9-.28-.13-.02-.3.39-.42.43-.24.09-.31-.4-.51-.56-.39-.32-1.07.05-1.24-.41l4.62.43c.43.04.95-.03,1.14.31Z"/>
        <path class="cls-1" d="M43.51,81.6c-.15.02-.31.1-.47.1-.21,0-.46-.08-.51-.3.4-.02.64.03.98.21Z"/>
        <path class="cls-1" d="M42.94,84.73c.03.57-.06,1.31.15,1.92.43,1.28,1.35,2.33,1.39,3.6-.59-.2-1.35.03-1.78-.57.54-1.91-1.06-3.99.25-4.95Z"/>
        <path class="cls-1" d="M42.5,89.69c-.14,0-.45.17-.45-.07.13,0,.47-.16.45.07Z"/>
        <path class="cls-1" d="M43.04,82.63c-.06-.09-.24-.19-.19-.33.03-.1.18-.14.19-.21.16-.08.18.05.18.17.01.17.02.45-.19.37Z"/>
      </g>
    </g>
  </g>
</svg>