<?xml version="1.0" encoding="UTF-8"?>
<svg id="Layer_2" data-name="Layer 2" xmlns="http://www.w3.org/2000/svg" viewBox="0 0 56.26 35.7">
  <defs>
    <style>
      .cls-1 {
        fill: #6cbe45;
      }

      .cls-2 {
        opacity: .8;
      }
    </style>
  </defs>
  <g id="Layer_1-2" data-name="Layer 1">
    <g class="cls-2">
      <path class="cls-1" d="M7.85,21.74c.63,1.77-3.86,1.1-4.23,3.87-.37,2.73,7.65,3.32,7.25,2.07.19.04.41-.03.59.03-2.93,2.19,11.42,2.45,11.42,2.45,9.55,1.28,19.35.58,29.14-.88,1.85-.28,2.44-1.87,2.16-3.28.48.56,1.59.42,1.93,1.21.4.92-.2,1.64-.15,2.41-13.5,5.24-32.2,3.05-47.08,1.09,6.83,3.04,14.3,2.72,21.66,3.86,5.31,1.61,14.22-1.34,15.84.26-3.02.32-6.04.73-9.08.72l-7.82-.02c-2.33,0-4.81.36-7.12-.04-6.19-1.08-12.49-1.73-18.55-4.23C1.36,30.26.66,28.27.02,25.97c-.44-2.15,6.7-3.98,7.83-4.22Z"/>
      <path class="cls-1" d="M14.3,21.22c-.36.41-.56,1.25-.51,1.79-1.41.41-3.76-.23-5.07,1.08-1.22,1.22.82,3.3,2.16,3.59.39,1.25-7.62.65-7.25-2.07.37-2.77,4.86-2.1,4.23-3.87,2.11-.45,4.32-.59,6.45-.52Z"/>
      <path class="cls-1" d="M55.97,29.63c.25,4.1-6.5,4.73-9.57,5.22-1.63-1.6-10.53,1.34-15.84-.26-7.36-1.14-14.83-.82-21.66-3.86,14.88,1.96,33.58,4.14,47.08-1.09Z"/>
      <path class="cls-1" d="M54.2,26.01c.27,1.41-.32,3-2.16,3.28-9.79,1.46-19.6,2.15-29.14.88.06-.24.31-.6.6-.6h4.21c.98,0,2.05-.17,3.01,0,1.47.26,11.32-.15,13.69-2.53,1.1-1.11.74-2.83.61-4.1,3.04.82,6.99.55,9.19,3.08Z"/>
      <path class="cls-1" d="M13.79,23.01c.5,6.18,7.5,2.58,8.39,5.78-3.64.58-7.2-.05-10.72-1.08-.18-.05-.4.01-.59-.03-1.34-.3-3.38-2.37-2.16-3.59,1.31-1.31,3.66-.68,5.07-1.08Z"/>
      <path class="cls-1" d="M22.18,28.8c.5.13.98.36,1.31.76-.29,0-.54.36-.6.6,0,0-14.35-.25-11.42-2.45,3.51,1.03,7.08,1.66,10.72,1.08Z"/>
      <g>
        <path class="cls-1" d="M25.95,9.68c4.61,3.64,5.24,4.71,10.85,1.9,2.43,2.32,4.84,9.23,8.2,11.35.14,1.27.5,2.99-.61,4.1-2.37,2.38-12.22,2.8-13.69,2.53-.52-.99-2.49-.99-3.01,0h-4.21c-.33-.41-.81-.64-1.31-.76-.89-3.2-7.89.4-8.39-5.78-.04-.54.15-1.38.51-1.79l6.65-7.47c1.55-1.74,2.72-3.85,5.01-4.07ZM39.39,18.42c-.75-1.55-.39-3.34-2.05-4.69-1.47,1.98.3,3.88,2.05,4.69ZM33.08,14.99l-1.09.4,1.15,3.16,1.09-.4-1.15-3.16Z"/>
        <path class="cls-1" d="M32.51.04l3.57.79c1.33,1.86,3.18,3.65,2.79,6.39-.21,1.45-1.3,3.24-2.07,4.37-5.61,2.8-6.24,1.74-10.85-1.9-1.12-3.69.51-7.39,3.59-9.41.96.15,2.07-.43,2.98-.23ZM31.36,6.37c0-.79-.64-1.43-1.43-1.43s-1.43.64-1.43,1.43.64,1.43,1.43,1.43,1.43-.64,1.43-1.43Z"/>
        <path class="cls-1" d="M39.39,18.42c-1.75-.8-3.52-2.7-2.05-4.69,1.66,1.35,1.3,3.13,2.05,4.69Z"/>
        <rect class="cls-1" x="32.53" y="15.08" width="1.16" height="3.36" transform="translate(-3.74 12.33) rotate(-19.98)"/>
        <path class="cls-1" d="M30.71,29.56c-.96-.17-2.03,0-3.01,0,.52-.99,2.49-.99,3.01,0Z"/>
        <circle class="cls-1" cx="29.93" cy="6.37" r="1.43"/>
      </g>
    </g>
  </g>
</svg>