<?xml version="1.0" encoding="UTF-8"?>
<svg id="Layer_2" data-name="Layer 2" xmlns="http://www.w3.org/2000/svg" viewBox="0 0 135.27 233.69">
  <defs>
    <style>
      .cls-1 {
        fill: #6cbe45;
        opacity: .8;
      }
    </style>
  </defs>
  <g id="Layer_1-2" data-name="Layer 1">
    <path class="cls-1" d="M126.54,233.69c-.05-.71-.94-1.16-.06-1.54l.06,1.54Z"/>
    <path class="cls-1" d="M91.23,178.97c2.72-6.29,5.41-12.44,6.97-19.1.1,1.64-.12,3.33-.1,5.25,4.33,1.3,11.26-2.86,12.45.84l-12.65.07-3.63,9.94c-.77,2.12-1.7,2.25-3.05,3Z"/>
    <path class="cls-1" d="M106.11,113.16l-2.71,24.53-1.06-12.53-1.27,16.24c-.86,11,2.31,4.06-.74,16.15-.65-.05-1.31-.07-1.96.02-1.16-8.96-.35-18.05-.13-27.76-9.87,2.17-25.23,10.98-34.57,12.22-.73-.96.4-1.84.75-2.79,1.31-.32,2.74-.53,4.28-1.16,9.42-3.89,18.83-6.99,28.73-9.64,1.29-.35.52-1.91.63-2.52.54-2.98,0-9.15,1.72-12.08,1.22-2.1,4.71-.78,6.34-.68Z"/>
    <path class="cls-1" d="M115.09,112.79c.32.2.43.44.18.76-2.08-.08-4.55.97-6.3-.41l6.12-.35Z"/>
    <path class="cls-1" d="M38.18,134.52c6.38,5.82,16.58,8.68,25.48,7.5,9.34-1.24,24.7-10.05,34.57-12.22-.22,9.71-1.03,18.8.13,27.76.1.75-.2,1.55-.16,2.31-1.57,6.65-4.25,12.81-6.97,19.1-4.04,2.25-8.74,2.58-13.17,3.89.43-3.7,2.55-7.04,3.5-10.99l3.72-15.52c.99-4.11.29-8.36.58-12.75-3.01,2.54-2.74,6.22-3.52,9.78l-4.54,20.59c-.68,3.08-1.48,5.84-1.25,8.71-7.66,2.71-16.09,2.59-24.26,4.41-1.97.44-2.92.74-5.04.87l-27.96,1.67c-.55-7.04-3.88-6.38-5.36-13.75-2.02-.58-3.31-2.54-4.77-3.14-2.7-6.42-7.15-9.96-5.24-19.55,2.36-11.87,6.32-22.99,11.01-34.74,2.65,4.02-.28,20.79,7.42,23.18-3.44-7.06-4.37-13.28-2.63-20.03,2.44-9.43,4.36-18.42,9.14-27.09,4.05-7.35,3.78-11.76,17.29-11.62-.59,2.72-1.32,4.91-2.36,7.32-4.37,10.09-10.92,28.94-8.67,39.54.58,2.71,1.57,3.4,3.08,4.77ZM42.92,148.4c-1.54.62-2.51,1.87-3.9,1-1.04-.65-1.56-1.56-1.65-2.96-.07-1.07,1.66-1.49,2.16-2.84.38-1.03-2.52-3.32-3.42-2.69-1.51,1.07-3.01,3.87-2.94,5.35.95,2.09,2.69,4.08,4.15,4.33,1.97.35,5.34.5,5.6-2.19ZM73.11,157.15c3.87-2.12,6.19-6.37,5.29-10.52-19.44,11.88-8.24,10.87-31.8,11.23,7.38,1.94,19.34,3.21,26.51-.71Z"/>
    <path class="cls-1" d="M103.54,5.77c-2.89-1.34-6.28-3.01-9.65-2.23-9.97,2.28-10.19,11.57-14.08,11.95.25,1.22-8.27,11.48-7.89,11.22.55-.03,1.08.73.75,1.4l-9.51,18.95c-1.21,2.41-2.36,4.65-3.92,6.5.52-.46.68.08.53.66l-11.67,26.16c-1.92-.46-4.05.26-5.39-1.04l-11.22,2.85c-3.84,4.26-5.67,10.19-8.69,15.28-6.59,11.1-12,23.83-16.71,36.38-.37,2.56-1.27,5.03-2.72,7.14-3.69,11.12-7.13,26.43,5.79,31.76-2.7-6.42-7.15-9.96-5.24-19.55,2.36-11.87,6.32-22.99,11.01-34.74,2.65,4.02-.28,20.79,7.42,23.18-3.44-7.06-4.37-13.28-2.63-20.03,2.44-9.43,4.36-18.42,9.14-27.09,4.05-7.35,3.78-11.76,17.29-11.62-.59,2.72-1.32,4.91-2.36,7.32-4.37,10.09-10.92,28.94-8.67,39.54.58,2.71,1.57,3.4,3.08,4.77-.05-.26.09-.58.01-.83-4.36-13.54,2.76-29.03,7.87-41.23,6.44-15.39,12.57-30.74,21.22-44.67.7-2.78,2-6.57,4.04-8.63,1.85-6.12,5.35-11.66,8.89-17.36,4.64-7.47.76-6.31,12.45-10.44,5.04,3.51,7.3,18.47,7.16,23.96-.18,7.37.42,14.56-.5,21.85-.68,5.34-.65,10.55-2.02,15.86-.27,1.06.71,1.78.93,2.27l-.02-.77c-.02-.61.08-1.37.77-1.54-.21-1.54.03-3.18.65-4.87,2.47-6.71,2.48-13.44,2.5-20.5.02-12.56-.92-31.25-10.68-40.75,2.47-1.18,6.84-2.06,8.31-.29,11.15,16.1,4.23,63.89,1.09,83.31-.24,1.51,1.19,3.05,1.39,4.5.32-7.47,3.11-15.17,3.94-23.25l1.86-18.14c.57-5.54-.12-10.97.18-16.15.3-5.21-1.31-23.05-3.83-28.43,2.73-1.49,5.02-3.04,7.77-3.22.84-1.59,2.69-2.11,4.41-2.25.58-.05,1.17.09,1.75.09-.17-1.07.04-2.17.7-3.04-5.14.04-10.45,4.61-15.45,5.77Z"/>
    <path class="cls-1" d="M71.93,26.7c.55-.03,1.08.73.75,1.4l-9.51,18.95c-1.21,2.41-2.36,4.65-3.92,6.5-4.74,5.61-8.43,11.96-12.58,17.99-1.28-1.81,3.22-12.87,4.16-14.41l10.38-17.2c2.19-3.63,7.48-11.01,10.73-13.22Z"/>
    <path class="cls-1" d="M46.66,71.54c-.87,1.26-1.7,2.47-2.28,3.85-7.62,1.5-7.59,3.68-12.26,5.2,3.03-7.69,22.79-33.08,29.08-40.67l-10.38,17.2c-.93,1.55-5.44,12.6-4.16,14.41Z"/>
    <path class="cls-1" d="M44.38,75.39l-1.67,3.95-11.22,2.85.63-1.59c4.68-1.52,4.64-3.7,12.26-5.2Z"/>
    <path class="cls-1" d="M78.06,182.86c-.45.13-1.09-.33-1.53-.18-.22-2.87.57-5.63,1.25-8.71l4.54-20.59c.79-3.56.52-7.24,3.52-9.78-.29,4.4.41,8.64-.58,12.75l-3.72,15.52c-.95,3.95-3.07,7.28-3.5,10.99Z"/>
    <path class="cls-1" d="M73.11,157.15c-7.16,3.92-19.12,2.65-26.51.71,23.55-.35,12.36.65,31.8-11.23.9,4.15-1.41,8.4-5.29,10.52Z"/>
    <path class="cls-1" d="M42.92,148.4c-.25,2.69-3.62,2.53-5.6,2.19-1.46-.26-3.2-2.24-4.15-4.33-.07-1.48,1.43-4.28,2.94-5.35.9-.64,3.8,1.66,3.42,2.69-.5,1.35-2.23,1.77-2.16,2.84.09,1.41.6,2.31,1.65,2.96,1.39.87,2.36-.39,3.9-1Z"/>
    <path class="cls-1" d="M102.18,95.29l-.04,2.31c-1.5,2.84-24.27,4.41-28.71,3.84,0-2.46,2.15-3.45,3.07-4.8,3.19-.34,7.75,3.21,9.58.81.21.01.43,0,.65.04.17.33.39.67.71.87.7.44,1.49.71,2.31.85.23.76.46.75.81.31.37-.46.67-.75.73-1.15.82-5.82,2.94-11.54,4.81-17.44.63-2,2.84-3.63,2.14-5.63l-.02-.77c.67-.12.85-.95.77-1.54-.21-1.54.03-3.18.65-4.87,2.47-6.71,2.48-13.44,2.5-20.5.02-12.56-.92-31.25-10.68-40.75,2.47-1.18,6.84-2.06,8.31-.29,11.15,16.1,4.23,63.89,1.09,83.31-.3,1.82,1.9,3.7,1.34,5.4Z"/>
    <path class="cls-1" d="M42.71,79.34l1.67-3.95c.58-1.38,1.42-2.59,2.28-3.85,4.15-6.03,7.85-12.37,12.58-17.99.52-.46.68.08.53.66l-11.67,26.16c-1.92-.46-4.05.26-5.39-1.04Z"/>
    <path class="cls-1" d="M98.21,74.53c-.02-.61.08-1.37.77-1.54.08.59-.1,1.42-.77,1.54Z"/>
    <path class="cls-1" d="M64.41,139.24c-.35.94-1.48,1.82-.75,2.79-8.9,1.18-19.1-1.68-25.48-7.5-.05-.26.09-.58.01-.83,8.03,6.32,16.12,8,26.21,5.55Z"/>
    <path class="cls-1" d="M86.05,95.29c-.26-3.8-.81-7.52-2.54-11.49-2.5,4.46-5.4,8.34-7.01,12.85-.92,1.35-3.07,2.34-3.07,4.8,4.44.57,27.2-1,28.71-3.84,6.11.42,10.98-2.68,18.89-.82-3.84,4.78-7.08,9.76-5.94,16.01l-6.12.35c-.99.06-1.88.08-2.87.02-1.62-.1-5.12-1.42-6.34.68-1.71,2.93-1.18,9.1-1.72,12.08l-34.27,11.79-13.28-8.53c-1.53-.98-5.26,1.34-3.55-12.85.33-2.73,3.12-3.74,4.72-5.34,2.72-2.73,5.48-4.15,9.03-5.54,2.88-1.13,5.07-4.14,8.31-4.55.84-.1,2.52.98,3.23.44,3.39-2.56-1.66-8.49-4.5-9.37-7.83-2.42-17.45,2.88-15.77-2.18,3.12-9.4,10-28.53,14.19-36.7,1.08-2.1.72-3.6,1.15-5.3.7-2.78,2-6.57,4.04-8.63,2.33-2.04,4.53-4.51,6.4-7.47,1.55-2.45,4.89-2.77,6.88-3.8.95-.49.64-4.37,2.85-3.3,2.53,1.22,3.65,4.79,4.75,7.45l-3.98-1.19c-.64,5.5,4.21,8.78,4.03,15.18.64-1.77,1.13-1.53,1.63-.11.89,4.4,1.04,9.26.15,13.71-1.23,6.15.06,10.84-2.5,7.22.14,1.49-1.76,2.83-1.84,4.14-.08,1.39.71,2.65-.71,4.35-6.62,7.88.02,12.6-2.94,19.96ZM84.69,62.92c-.12-1.91-1.89-2.4-3-2.33-1.37.08-2.46,1.39-2.24,3.12,1.02,7.86-.78,14.8-1.6,22.79,11.35-15.45,7.43-14.15,6.84-23.58Z"/>
    <path class="cls-1" d="M98.04,125.92c-.11.61.66,2.17-.63,2.52-9.9,2.65-19.31,5.74-28.73,9.64-1.54.64-2.97.84-4.28,1.16-10.1,2.46-18.18.78-26.21-5.55-4.36-13.54,2.76-29.03,7.87-41.23,6.44-15.39,12.57-30.74,21.22-44.67-.43,1.7-.07,3.2-1.15,5.3-4.2,8.18-11.07,27.3-14.19,36.7-1.68,5.06,7.95-.24,15.77,2.18,2.84.88,7.9,6.8,4.5,9.37-.71.54-2.39-.54-3.23-.44-3.24.4-5.43,3.42-8.31,4.55-3.54,1.39-6.31,2.81-9.03,5.54-1.6,1.6-4.39,2.61-4.72,5.34-1.71,14.18,2.02,11.87,3.55,12.85l13.28,8.53,34.27-11.79ZM50.07,105.14c5.38-4.36,11.04-6.42,17.76-7.15-.57-5.9-14.11-2.64-15.86-1.98-2.31.87-4.25,9.18-4.37,8.88.17.43,1.66.91,2.46.26Z"/>
    <path class="cls-1" d="M98.23,75.29c.7,2-1.51,3.63-2.14,5.63-1.87,5.91-3.99,11.62-4.81,17.44-.65-.05-1.35.17-1.54.85-.81-.14-1.61-.4-2.31-.85.05-.44-.29-.79-.71-.87-.21-.04-.43-.03-.65-.04.08-.72.02-1.44-.03-2.16,2.96-7.36-3.68-12.08,2.94-19.96,1.42-1.69.63-2.96.71-4.35.08-1.31,1.97-2.64,1.84-4.14,2.56,3.61,1.27-1.07,2.5-7.22.89-4.45.74-9.31-.15-13.71-.51-1.42-.99-1.66-1.63.11.19-6.4-4.67-9.68-4.03-15.18l3.98,1.19c-1.11-2.65-2.22-6.23-4.75-7.45-2.22-1.07-1.9,2.81-2.85,3.3-1.98,1.03-5.33,1.35-6.88,3.8-1.87,2.96-4.08,5.43-6.4,7.47,1.85-6.12,5.35-11.66,8.89-17.36,4.64-7.47.76-6.31,12.45-10.44,5.04,3.51,7.3,18.47,7.16,23.96-.18,7.37.42,14.56-.5,21.85-.68,5.34-.65,10.55-2.02,15.86-.27,1.06.71,1.78.93,2.27Z"/>
    <path class="cls-1" d="M84.69,62.92c.58,9.43,4.51,8.13-6.84,23.58.82-7.99,2.62-14.93,1.6-22.79-.23-1.74.87-3.04,2.24-3.12,1.11-.07,2.88.42,3,2.33Z"/>
    <path class="cls-1" d="M86.05,95.29c.05.72.11,1.44.03,2.16-1.83,2.4-6.39-1.14-9.58-.81,1.61-4.51,4.51-8.39,7.01-12.85,1.73,3.97,2.28,7.69,2.54,11.49Z"/>
    <path class="cls-1" d="M50.07,105.14c-.81.65-2.3.17-2.46-.26.12.31,2.05-8,4.37-8.88,1.75-.66,15.3-3.92,15.86,1.98-6.72.73-12.39,2.78-17.76,7.15Z"/>
    <path class="cls-1" d="M91.29,98.36c-.06.4-.35.69-.73,1.15s-.58.45-.81-.31c.19-.68.89-.9,1.54-.85Z"/>
    <path class="cls-1" d="M87.44,98.36c-.32-.2-.54-.54-.71-.87.42.08.76.43.71.87Z"/>
    <path class="cls-1" d="M133.71,87.67c0-1,.99-1.1,1.56-1.54-.39.63-.89,1.2-1.56,1.54Z"/>
  </g>
</svg>