<?xml version="1.0" encoding="UTF-8"?>
<svg id="Layer_2" data-name="Layer 2" xmlns="http://www.w3.org/2000/svg" viewBox="0 0 106.34 104.51">
  <defs>
    <style>
      .cls-1 {
        letter-spacing: .93em;
      }

      .cls-2 {
        letter-spacing: 0em;
      }

      .cls-3 {
        letter-spacing: .02em;
      }

      .cls-4, .cls-5, .cls-6, .cls-7, .cls-8, .cls-9, .cls-10 {
        font-family: MyriadPro-Regular, 'Myriad Pro';
      }

      .cls-4, .cls-7 {
        font-size: 7px;
      }

      .cls-4, .cls-9 {
        fill: #d2232a;
      }

      .cls-5, .cls-6, .cls-9 {
        font-size: 5px;
      }

      .cls-5, .cls-7, .cls-8 {
        fill: #231f20;
      }

      .cls-6, .cls-11 {
        fill: #ed1c2a;
      }

      .cls-12 {
        letter-spacing: -.06em;
      }

      .cls-8 {
        font-size: 4.5px;
      }

      .cls-13 {
        letter-spacing: .02em;
      }

      .cls-14 {
        letter-spacing: 0em;
      }

      .cls-15 {
        letter-spacing: .02em;
      }

      .cls-16 {
        letter-spacing: -.08em;
      }

      .cls-17 {
        fill: none;
        stroke: #d2232a;
      }

      .cls-18 {
        letter-spacing: .02em;
      }

      .cls-19 {
        letter-spacing: 0em;
      }

      .cls-20 {
        letter-spacing: 1.93em;
      }

      .cls-21 {
        letter-spacing: 0em;
      }

      .cls-22 {
        fill: #fff200;
      }

      .cls-10 {
        fill: #fff;
        font-size: 21.66px;
      }
    </style>
  </defs>
  <g id="Layer_1-2" data-name="Layer 1">
    <rect class="cls-22" y="3.99" width="106.34" height="100.52"/>
    <rect class="cls-11" y="3.99" width="106.34" height="35.46"/>
    <text class="cls-10" transform="translate(29.61 18.13) scale(1.2 1)"><tspan class="cls-19" x="0" y="0">M</tspan><tspan class="cls-16" x="17.22" y="0">A</tspan><tspan class="cls-21" x="28.77" y="0">Y</tspan></text>
    <g>
      <rect class="cls-22" x="1.72" y="31.02" width="12.89" height="6.7" rx="1.44" ry="1.44"/>
      <rect class="cls-22" x="16.72" y="31.02" width="12.89" height="6.7" rx="1.44" ry="1.44"/>
      <rect class="cls-22" x="31.72" y="31.02" width="12.89" height="6.7" rx="1.44" ry="1.44"/>
      <rect class="cls-22" x="46.72" y="31.02" width="12.89" height="6.7" rx="1.44" ry="1.44"/>
      <rect class="cls-22" x="61.73" y="31.02" width="12.89" height="6.7" rx="1.44" ry="1.44"/>
      <rect class="cls-22" x="76.73" y="31.02" width="12.89" height="6.7" rx="1.44" ry="1.44"/>
      <rect class="cls-22" x="91.73" y="31.02" width="12.89" height="6.7" rx="1.44" ry="1.44"/>
    </g>
    <text class="cls-9" transform="translate(2.73 34.76)"><tspan class="cls-15" x="0" y="0">SU</tspan><tspan x="5.89" y="0">N</tspan></text>
    <text class="cls-6" transform="translate(11.97 34.76)"><tspan x="0" y="0"> </tspan></text>
    <text class="cls-8" transform="translate(17.68 34.76) scale(1 1.11)"><tspan class="cls-3" x="0" y="0">MO</tspan><tspan x="6.9" y="0">N</tspan></text>
    <text class="cls-5" transform="translate(27.58 34.76)"><tspan x="0" y="0"> </tspan></text>
    <text class="cls-5" transform="translate(33.68 34.76)"><tspan class="cls-15" x="0" y="0">TU</tspan><tspan x="5.92" y="0">E</tspan></text>
    <text class="cls-5" transform="translate(42.11 34.76)"><tspan x="0" y="0"> </tspan></text>
    <text class="cls-5" transform="translate(47.68 34.76)"><tspan class="cls-18" x="0" y="0">WE</tspan><tspan x="6.88" y="0">D</tspan></text>
    <text class="cls-5" transform="translate(57.95 34.76)"><tspan x="0" y="0"> </tspan></text>
    <text class="cls-5" transform="translate(62.68 34.76)"><tspan class="cls-15" x="0" y="0">TH</tspan><tspan x="5.94" y="0">U</tspan></text>
    <text class="cls-5" transform="translate(71.91 34.76)"><tspan x="0" y="0"> </tspan></text>
    <text class="cls-5" transform="translate(79.68 34.76)"><tspan class="cls-13" x="0" y="0">FR</tspan><tspan class="cls-2" x="5.33" y="0">I</tspan></text>
    <text class="cls-5" transform="translate(86.25 34.76)"><tspan x="0" y="0"> </tspan></text>
    <text class="cls-5" transform="translate(93.68 34.76)"><tspan class="cls-15" x="0" y="0">S</tspan><tspan class="cls-12" x="2.56" y="0">A</tspan><tspan x="5.33" y="0">T</tspan></text>
    <text class="cls-7" transform="translate(2.61 46.02)"><tspan class="cls-1" x="0" y="0"> </tspan><tspan class="cls-20" x="7.99" y="0" xml:space="preserve">  </tspan><tspan class="cls-14" x="38" y="0"> </tspan></text>
    <text class="cls-7" transform="translate(52.02 46.02)"><tspan x="0" y="0">1</tspan></text>
    <text class="cls-7" transform="translate(55.61 46.02)"><tspan x="0" y="0"> </tspan></text>
    <text class="cls-7" transform="translate(67.02 46.02)"><tspan x="0" y="0">2</tspan></text>
    <text class="cls-7" transform="translate(70.61 46.02)"><tspan x="0" y="0"> </tspan></text>
    <text class="cls-7" transform="translate(83.02 46.02)"><tspan x="0" y="0">3</tspan></text>
    <text class="cls-7" transform="translate(86.61 46.02)"><tspan x="0" y="0"> </tspan></text>
    <text class="cls-7" transform="translate(98.02 46.02)"><tspan x="0" y="0">4</tspan></text>
    <text class="cls-7" transform="translate(2.61 59.02)"><tspan x="0" y="0"> </tspan></text>
    <text class="cls-4" transform="translate(7.02 59.02)"><tspan x="0" y="0">5</tspan></text>
    <text class="cls-7" transform="translate(10.61 59.02)"><tspan x="0" y="0"> </tspan></text>
    <text class="cls-7" transform="translate(22.02 59.02)"><tspan x="0" y="0">6</tspan></text>
    <text class="cls-7" transform="translate(25.61 59.02)"><tspan x="0" y="0"> </tspan></text>
    <text class="cls-7" transform="translate(37.02 59.02)"><tspan x="0" y="0">7</tspan></text>
    <text class="cls-7" transform="translate(40.61 59.02)"><tspan x="0" y="0"> </tspan></text>
    <text class="cls-7" transform="translate(52.02 59.02)"><tspan x="0" y="0">8</tspan></text>
    <text class="cls-7" transform="translate(55.61 59.02)"><tspan x="0" y="0"> </tspan></text>
    <text class="cls-7" transform="translate(67.02 59.02)"><tspan x="0" y="0">9</tspan></text>
    <text class="cls-7" transform="translate(70.62 59.02)"><tspan x="0" y="0"> </tspan></text>
    <text class="cls-7" transform="translate(79.43 59.02)"><tspan x="0" y="0">10</tspan></text>
    <text class="cls-7" transform="translate(86.61 59.02)"><tspan x="0" y="0"> </tspan></text>
    <text class="cls-7" transform="translate(94.43 59.02)"><tspan x="0" y="0">11</tspan></text>
    <text class="cls-4" transform="translate(2.61 72.02)"><tspan x="0" y="0"> </tspan></text>
    <text class="cls-4" transform="translate(3.43 72.02)"><tspan x="0" y="0">12</tspan></text>
    <text class="cls-7" transform="translate(10.61 72.02)"><tspan x="0" y="0"> </tspan></text>
    <text class="cls-7" transform="translate(18.43 72.02)"><tspan x="0" y="0">13</tspan></text>
    <text class="cls-7" transform="translate(25.61 72.02)"><tspan x="0" y="0"> </tspan></text>
    <text class="cls-7" transform="translate(33.43 72.02)"><tspan x="0" y="0">14</tspan></text>
    <text class="cls-7" transform="translate(40.61 72.02)"><tspan x="0" y="0"> </tspan></text>
    <text class="cls-7" transform="translate(48.43 72.02)"><tspan x="0" y="0">15</tspan></text>
    <text class="cls-7" transform="translate(55.61 72.02)"><tspan x="0" y="0"> </tspan></text>
    <text class="cls-7" transform="translate(63.43 72.02)"><tspan x="0" y="0">16</tspan></text>
    <text class="cls-7" transform="translate(70.62 72.02)"><tspan x="0" y="0"> </tspan></text>
    <text class="cls-7" transform="translate(79.43 72.02)"><tspan x="0" y="0">17</tspan></text>
    <text class="cls-7" transform="translate(86.61 72.02)"><tspan x="0" y="0"> </tspan></text>
    <text class="cls-7" transform="translate(94.43 72.02)"><tspan x="0" y="0">18</tspan></text>
    <text class="cls-4" transform="translate(2.61 85.02)"><tspan x="0" y="0"> </tspan></text>
    <text class="cls-4" transform="translate(3.43 85.02)"><tspan x="0" y="0">19</tspan></text>
    <text class="cls-7" transform="translate(10.61 85.02)"><tspan x="0" y="0"> </tspan></text>
    <text class="cls-7" transform="translate(18.43 85.02)"><tspan x="0" y="0">20</tspan></text>
    <text class="cls-7" transform="translate(25.61 85.02)"><tspan x="0" y="0"> </tspan></text>
    <text class="cls-7" transform="translate(33.43 85.02)"><tspan x="0" y="0">21</tspan></text>
    <text class="cls-7" transform="translate(40.61 85.02)"><tspan x="0" y="0"> </tspan></text>
    <text class="cls-7" transform="translate(48.43 85.02)"><tspan x="0" y="0">22</tspan></text>
    <text class="cls-7" transform="translate(55.61 85.02)"><tspan x="0" y="0"> </tspan></text>
    <text class="cls-7" transform="translate(63.43 85.02)"><tspan x="0" y="0">23</tspan></text>
    <text class="cls-7" transform="translate(70.62 85.02)"><tspan x="0" y="0"> </tspan></text>
    <text class="cls-7" transform="translate(79.43 85.02)"><tspan x="0" y="0">24</tspan></text>
    <text class="cls-7" transform="translate(86.61 85.02)"><tspan x="0" y="0"> </tspan></text>
    <text class="cls-7" transform="translate(94.43 85.02)"><tspan x="0" y="0">25</tspan></text>
    <text class="cls-4" transform="translate(2.61 98.01)"><tspan x="0" y="0"> </tspan></text>
    <text class="cls-4" transform="translate(3.43 98.01)"><tspan x="0" y="0">26</tspan></text>
    <text class="cls-7" transform="translate(10.61 98.01)"><tspan x="0" y="0"> </tspan></text>
    <text class="cls-7" transform="translate(18.43 98.01)"><tspan x="0" y="0">27</tspan></text>
    <text class="cls-7" transform="translate(25.61 98.01)"><tspan x="0" y="0"> </tspan></text>
    <text class="cls-7" transform="translate(33.43 98.01)"><tspan x="0" y="0">28</tspan></text>
    <text class="cls-7" transform="translate(40.61 98.01)"><tspan x="0" y="0"> </tspan></text>
    <text class="cls-7" transform="translate(48.43 98.01)"><tspan x="0" y="0">29</tspan></text>
    <text class="cls-7" transform="translate(55.61 98.01)"><tspan x="0" y="0"> </tspan></text>
    <text class="cls-7" transform="translate(63.43 98.01)"><tspan x="0" y="0">30</tspan></text>
    <text class="cls-7" transform="translate(70.62 98.01)"><tspan x="0" y="0"> </tspan></text>
    <text class="cls-7" transform="translate(79.44 98.01)"><tspan x="0" y="0">31</tspan></text>
    <circle class="cls-17" cx="84.78" cy="44.17" r="4.72" transform="translate(11.53 105.59) rotate(-67.5)"/>
  </g>
</svg>