<?xml version="1.0" encoding="UTF-8"?>
<svg id="Layer_2" data-name="Layer 2" xmlns="http://www.w3.org/2000/svg" viewBox="0 0 54.13 60.14">
  <defs>
    <style>
      .cls-1 {
        fill: none;
        stroke: #231f20;
        stroke-width: .21px;
      }
    </style>
  </defs>
  <g id="Layer_1-2" data-name="Layer 1">
    <g>
      <path class="cls-1" d="M24.48,4.44c.34-1.03,1.27-2.05,2.73-2.86,3.06-1.69,7.24-1.78,9.36-.2.37.27.65.58.84.92.58.97.43,2.13-.38,3.2-.48.65-1.22,1.27-2.17,1.8-1.77.98-3.91,1.42-5.82,1.31-.26-.01-.52-.04-.77-.07-1.08-.16-2.04-.5-2.76-1.04h0c-.96-.73-1.32-1.68-1.13-2.66.02-.13.06-.27.11-.4Z"/>
      <path class="cls-1" d="M24.33,4.84s-.35.55-.6,2.74c-.23,1.99-.13,4.74,4.13,5.48.09.01.19.03.29.05.14,0,.29.03.44.05.08.01.16.02.24.02.17.02.35.03.54.04.16.01.33.01.49.01,5.08-.01,9.36-4.24,9.37-6.15,0-.11-.01-.21-.04-.3-.6-2.03-.5-4.51-1.78-4.48h-.02"/>
      <path class="cls-1" d="M28.27,8.54c.06,1.33-.11,4.52-.11,4.52"/>
      <path class="cls-1" d="M29.04,8.65c.06,1.32-.21,4.53-.21,4.53"/>
      <path class="cls-1" d="M27.86,13.08c-.34,1.11-1.94,2.95-.68,3.08.5.05.84-.09,1.08-.32.36-.35.46-.9.44-1.22-.04-.54-.11-1.44-.11-1.44"/>
      <path class="cls-1" d="M25.53,7.46s.72-3.86,5.13-4.46c4.42-.6,6.29,2.44,6.29,2.44"/>
      <path class="cls-1" d="M24.41,4.42s-6.01.92-9.4,10.69S7.48,31.71,3.99,35.45c-2.73,2.92-3.35,6-2.3,8.15.29.61.71,1.14,1.26,1.57,1.77,1.41,3.79,1.42,4.81,1.31.34-.04.57-.09.64-.1.02-.01.03-.01.03-.01"/>
      <path class="cls-1" d="M1.57,43.66c-.41,1.1-1.88,1.84-1.1,3.29.79,1.45,3.13,3.81,4.48,3.09,1.28-.69,2.67-3.3,2.81-3.56.01-.01.01-.02.01-.02"/>
      <path class="cls-1" d="M16.28,15.23c0,.52-.13,1.53-.35,2.85-.33,2.02-.89,4.79-1.61,7.67-1.13,4.48-2.65,9.26-4.34,11.94-2.54,4.03-2.71,6.61-1.58,8.69.22.39.48.76.77,1.12.3.36.63.71,1,1.06,2.7,2.54,3.94,2.54,5.99,4.29.42.35.9.7,1.47,1.03.25.15.52.3.81.44,2.18,1.08,5.3,1.87,9.58,1.87,6.08,0,9.22-2.59,10.47-3.44.97-.66,2.74-1.11,3.76-2.13.3-.29.54-.63.67-1.04t0-.02"/>
      <path class="cls-1" d="M9.08,47.56c0,.8-2.44,1.95-.85,4.54,1.6,2.59,13.81,9.32,23.08,7.48,9.27-1.85,11.42-5.09,11.27-6.28-.19-1.51-.25-2.6-.25-2.6"/>
      <path class="cls-1" d="M41.13,16.91s-2.85,2.22-2.19,8.57c.09.83.23,1.72.45,2.69.4,1.77.66,3.3.82,4.63.63,5.04-.06,7.37.37,9.73.48,2.63,1.55,5.26,2.34,7.05.11.24.21.47.31.68.79,1.74.49,2.99.99,3.69.33.46,1.05.75,1.95.51.44-.11.93-.35,1.44-.76,1.55-1.25,4.09-1.3,4.74-1.2.22.03.43.13.63.16.4.06.73-.14.86-1.61.2-2.19-.49-6.38-1.79-10.27-1.3-3.88-1.7-14.35-1.89-16.85-.2-2.49-.45-8.57-4.79-12.46s-6.13-4.39-6.13-4.39"/>
      <path class="cls-1" d="M46.19,54.55c.35,1.04.02,3.42.75,3.53s3.35-.82,4.4-1.03c1.04-.2,1.82-.3,1.78-1.13-.03-.83-.27-2.77-.14-3.26v-.02"/>
      <path class="cls-1" d="M33.36,39.88c.46,0,2.46,4.35,2.86,5.65s.12,1.37-.78,1.86c-.9.5-1.42.64-1.7-.52-.29-1.16-1.3-4.44-2.39-6.19.14-.07,1.66-.78,2.01-.8Z"/>
      <path class="cls-1" d="M28.29,15.86c-.05.18-1,2.67-2.14,6.05-.8,2.34-1.68,5.11-2.43,7.82-.92,3.37-1.62,6.66-1.63,8.96-.05,6.83-2.09,8.62-2.99,10.37-.9,1.74-1.7,3.94-1.45,4.78"/>
      <path class="cls-1" d="M18.45,54.34s0-.01,0-.02c-.23-.85.57-3.03,1.46-4.76.89-1.75,2.94-3.54,2.99-10.37.01-2.35.74-5.73,1.69-9.17.74-2.7,1.63-5.43,2.41-7.74,1.13-3.32,2.05-5.75,2.1-5.93.12-.44.73-2.48.77-3.12v-.03"/>
      <path class="cls-1" d="M16.01,18.09c.33.55,5.76,2.38,8.87,3.35.41.13.83.29,1.27.47.27.12.55.24.84.37,2.73,1.22,6.17,3,11.92,3.2"/>
      <path class="cls-1" d="M14.26,25.68s.04.05.06.07c1.3,1.43,5.85,2.79,9.4,3.98.3.1.58.19.86.29.99.34,1.87.67,2.52.97,3.09,1.44,7.4,4.26,12.99,1.82"/>
      <path class="cls-1" d="M14.3,36.24c-.85,1.08-3.39,2.05-4.1,2.59s-.74.77-.17,1.82c.57,1.06,1.08.57,2.59,0s3.59-1.53,3.79-2.02c.2-.48.09-1.02-.57-1.82-.65-.8-.68-1.65-1.54-.57Z"/>
    </g>
  </g>
</svg>