<?xml version="1.0" encoding="UTF-8"?>
<svg id="Layer_2" data-name="Layer 2" xmlns="http://www.w3.org/2000/svg" viewBox="0 0 46.17 65.39">
  <defs>
    <style>
      .cls-1 {
        fill: none;
        stroke: #231f20;
        stroke-miterlimit: 10;
        stroke-width: .25px;
      }
    </style>
  </defs>
  <g id="Layer_1-2" data-name="Layer 1">
    <g>
      <path class="cls-1" d="M33.69,21.34c10.67,12.85,12.36,35.31,12.36,35.31-1.62,2.21-6.79,5.75-14.02,7.52v-.05c3.08-30.56-6.07-38.84-6.07-38.84l-.07-.06c.84-.91,2.21-2.09,4.03-2.63,3.06-.91,3.5-.9,3.77-1.25Z"/>
      <path class="cls-1" d="M37.96,6.59s.12.23-.76,1.97-4.07,3.61-4.75,3.57c-.15-.01-.31-.3-.47-.74,0,0,3.47-1.66,5.39-5.75h0c.36.56.58.95.58.95Z"/>
      <path class="cls-1" d="M20.84,3.82l-.34-.3,1.02-2.99.02-.04c.31.17.48.35.53.4l-.96,2.51,4.36,3.45,4.48-2.94-.58-2.68s-.03-.01-.08-.03l.08-.03c.23-.48,2.29-.7,4.39.45,1.43.78,2.86,2.8,3.62,4.01h0c-1.92,4.1-5.39,5.76-5.39,5.76-.19-.53-.37-1.29-.53-2.05-.04.8-.4,7.38.93,10.71-1.24.25-6.11,1.86-7.52,4.24h-.09s-3.1-3.3-7.46-5.05l1.08-3.77c.84-3.81.75-7.18.75-7.18h-.01c.25-.97.47-2.08.55-3.15l1.16-1.32ZM26.21,10.61c0-.65-.46-1.19-1.02-1.19s-1.03.54-1.03,1.19.46,1.2,1.03,1.2,1.02-.54,1.02-1.2ZM25.99,14.49c0-.66-.45-1.19-1.02-1.19s-1.02.53-1.02,1.19.46,1.19,1.02,1.19,1.02-.53,1.02-1.19ZM25.78,18.79c0-.66-.46-1.19-1.02-1.19s-1.03.53-1.03,1.19.46,1.2,1.03,1.2,1.02-.54,1.02-1.2Z"/>
      <path class="cls-1" d="M15.8,19.92c-.11-.26-.05-.52.11-.74.33-.43,1.22-.02,1.22-.02.06.02.12.05.18.08,4.36,1.75,7.46,5.05,7.46,5.05h.09c1.41-2.38,6.28-3.99,7.52-4.24.03,0,.05-.01.07-.01,1.13-.2,1.53.9,1.26,1.27,0,.01-.02.02-.02.03-.27.35-.71.34-3.77,1.25-1.82.54-3.19,1.72-4.03,2.63-.61.66-.94,1.17-.94,1.17,0,0-.7-.02-.77-.02-.19-.52-.5-1.02-.91-1.49-1.94-2.31-5.91-3.99-6.67-4.3-.44-.18-.7-.42-.8-.66Z"/>
      <path class="cls-1" d="M25.96,25.28s9.15,8.28,6.06,38.84v.05c-3.34.82-7.13,1.27-11.23,1.02-2.84-.17-5.43-.82-7.74-1.72l.03-.07c1-32.78,10.19-38.52,10.19-38.52.41.47.72.97.91,1.49.07,0,.77.02.77.02,0,0,.33-.51.94-1.17l.07.06Z"/>
      <path class="cls-1" d="M22.07.89h.01c3.53-.89,6.66.12,7.21.31.05.02.08.03.08.03l.58,2.68-4.48,2.94-4.36-3.45.96-2.51Z"/>
      <path class="cls-1" d="M25.19,9.42c.56,0,1.02.54,1.02,1.19s-.46,1.2-1.02,1.2-1.03-.54-1.03-1.2.46-1.19,1.03-1.19Z"/>
      <ellipse class="cls-1" cx="24.97" cy="14.49" rx="1.02" ry="1.19"/>
      <path class="cls-1" d="M24.76,17.6c.56,0,1.02.53,1.02,1.19s-.46,1.2-1.02,1.2-1.03-.54-1.03-1.2.46-1.19,1.03-1.19Z"/>
      <path class="cls-1" d="M21.54.49l-.02.04-1.02,2.99.34.3-1.16,1.32c-.08,1.07-.3,2.18-.55,3.15-.22.86-.46,1.61-.63,2.11h-.04c-3.24-1.28-5.06-5.46-5.17-5.72.8-1.02,2.92-3.52,4.99-4.24,1.61-.57,2.68-.26,3.26.05Z"/>
      <path class="cls-1" d="M16.6,20.58c.76.31,4.73,1.99,6.67,4.3,0,0-9.19,5.74-10.19,38.52l-.03.07C4.85,60.27.13,53.85.13,53.85c-.07-3.66,4.63-15.71,4.63-15.71,5.83-13.38,10.73-17.94,11.04-18.22.1.24.36.48.8.66Z"/>
      <path class="cls-1" d="M18.46,10.39h.04c-.14.43-.24.68-.24.68,0,0-.48.67-2.45-1.07-1.98-1.74-2.86-4.88-2.86-4.88,0,0,.12-.17.34-.44.11.26,1.93,4.44,5.17,5.71Z"/>
    </g>
  </g>
</svg>