<?xml version="1.0" encoding="UTF-8"?>
<svg id="Layer_2" data-name="Layer 2" xmlns="http://www.w3.org/2000/svg" viewBox="0 0 39.4 39.72">
  <defs>
    <style>
      .cls-1 {
        fill: none;
        stroke: #231f20;
        stroke-miterlimit: 10;
        stroke-width: .25px;
      }
    </style>
  </defs>
  <g id="Layer_1-2" data-name="Layer 1">
    <g>
      <path class="cls-1" d="M39.13,15.22c.79,2.13-1.75,10.46-2.04,10.6-.29.15-.79-.35-.79-.35h-.01s.03-.09.04-.14c2-6.79,1.24-11.14.99-12.2.07,0,1.05.04,1.81,2.09Z"/>
      <path class="cls-1" d="M25.64,15.78h.02c1.28.31,2.68.8,3.7,1.34,1.94,1.02,2.51,2.47,2.51,2.47,0,0,1.22-2.5.69-7.53-.53-5.02-1.59-4.77-3.3-3.37-2.59,2.37-3.57,6.84-3.62,7.09ZM24.03,15.5c.59-.46,1.01-1.05,1.34-1.74.59-1.21.95-2.74,1.68-4.5,1.14-2.75,2.79-3.99,6.11-2.72,3,1.15,3.98,5.63,4.14,6.46.01.08.02.13.02.13.25,1.06,1.01,5.41-.99,12.2-.01.05-.03.1-.04.14-3.03,10.06-11.23,13.85-16.44,14.11-5.13.26-6.66-4.48-6.02-9.13,0-.09.02-.18.03-.27.32-2.05,1.78-4.85,3.33-7.36.08-.13.15-.25.23-.37.25-.41.51-.8.75-1.17,1.61-2.44,3.08-4.35,3.26-4.57,0-.01.01-.02.01-.02,0,0,.21-.8,1.42-1.14.29-.08.69-.09,1.17-.05ZM34.43,25.62c.45-.12.51-.85.37-1.16-.15-.31-.36-.39-.46-.66s.05-.48,0-.82-.51-.9-.95-.71c-.43.18-2.47,2.7-2.47,2.7,0,0,3.05.77,3.51.65ZM33.77,27.79c.29-.16.65-.79.35-1.17s-3.2-1.64-3.2-1.64c0,0,.24,3.3.49,3.71.25.42.93.26,1.16.02s.25-.49.46-.67.45-.09.74-.25ZM32.58,21.65c.04-.49-.61-.78-.93-.73s-.47.24-.74.25c-.27.02-.42-.2-.74-.25s-.97.24-.94.73c.04.49,1.68,3.3,1.68,3.3,0,0,1.64-2.81,1.67-3.3ZM30.41,28.69c.25-.41.49-3.71.49-3.71,0,0-2.9,1.26-3.2,1.64s.06,1.01.35,1.17.51.1.74.25c.23.16.22.43.46.67.23.24.91.4,1.16-.02ZM30.89,24.97s-2.03-2.52-2.47-2.7c-.43-.19-.89.37-.94.71-.06.34.07.54,0,.82s-.32.35-.46.66c-.15.31-.08,1.04.37,1.16s3.5-.65,3.5-.65ZM27.04,21.21c1.43-1.84-.09-4.18-3.83-3.89,0,0-2.95,1.64-2.28,4.24.68,2.6,4.68,1.49,6.11-.35Z"/>
      <path class="cls-1" d="M34.8,24.46c.14.31.08,1.04-.37,1.16-.46.12-3.51-.65-3.51-.65,0,0,2.04-2.52,2.47-2.7.44-.19.9.37.95.71s-.1.55,0,.82.31.35.46.66Z"/>
      <path class="cls-1" d="M34.12,26.62c.3.38-.06,1.01-.35,1.17s-.53.07-.74.25-.23.43-.46.67-.91.4-1.16-.02c-.25-.41-.49-3.71-.49-3.71,0,0,2.9,1.26,3.2,1.64Z"/>
      <path class="cls-1" d="M32.56,12.06c.53,5.03-.69,7.53-.69,7.53,0,0-.57-1.45-2.51-2.47-1.02-.54-2.42-1.03-3.7-1.34h-.02c.05-.25,1.03-4.72,3.62-7.09,1.71-1.4,2.77-1.65,3.3,3.37Z"/>
      <path class="cls-1" d="M31.65,20.92c.32-.05.97.24.93.73-.03.49-1.67,3.3-1.67,3.3,0,0-1.64-2.81-1.68-3.3-.03-.49.62-.78.94-.73s.47.27.74.25c.27,0,.42-.2.74-.25Z"/>
      <path class="cls-1" d="M30.9,24.98s-.24,3.3-.49,3.71c-.25.42-.93.26-1.16.02-.24-.24-.23-.51-.46-.67-.23-.15-.45-.09-.74-.25s-.65-.79-.35-1.17,3.2-1.64,3.2-1.64Z"/>
      <path class="cls-1" d="M28.42,22.27c.44.18,2.47,2.7,2.47,2.7,0,0-3.05.77-3.5.65s-.52-.85-.37-1.16c.14-.31.39-.38.46-.66s-.06-.48,0-.82c.05-.34.51-.9.94-.71Z"/>
      <path class="cls-1" d="M23.21,17.32c3.74-.29,5.26,2.05,3.83,3.89s-5.43,2.95-6.11.35c-.67-2.6,2.28-4.24,2.28-4.24Z"/>
      <path class="cls-1" d="M12.02,8.98h0c1.49-.63,2.49-3.17,2.66-3.55.18-.38.91-3.15,3.04-4.76s5.29.85,5.29.85c3.91,4.15,2.36,12.24,2.36,12.24-.33.69-.75,1.28-1.34,1.74-.48-.04-.88-.03-1.17.05-1.21.34-1.42,1.14-1.42,1.14,0,0-.01.01-.01.02-.29-.53-1.45.48-2.28,1.31h-.01s1.22-1.76.86-2.52c-.37-.76-1.1-.12-1.36-.19-.26-.08-1.33-.65-1.72-.1-.38.51,1.16,3.38,1.33,3.7-.23-.34-2.18-3.24-2.91-2.76-.78.52-.31,1.2-.64,1.51-.34.31-1.04,1.4-.06,1.71.83.25,2.83-.17,3.41-.31-.73.21-3.65,1.08-3.47,1.87.2.91,1.09.7,1.24,1.13.15.41.48,1.12,1.37.76-1.55,2.51-3.01,5.31-3.33,7.36-.01.09-.03.18-.03.27h-.08c-.44.22-5.99,3.12-10.05,1.57S-.51,25.06,1.04,21.27c1.55-3.8,8.24-11.22,8.7-11.81.26-.32,1.07-.58,2.28-.48ZM13.72,9.3c.63.18,1.33.44,2.07.81,3.27,1.6,3.77,3.77,3.77,3.77,0,0,1.11-3.07,1.31-5.67.21-2.6,1.06-6.52-1.72-6.05-2.77.47-5.43,7.13-5.43,7.13h0ZM15.15,14.31c.82-2.48-.96-2.95-3.89-3.62,0,0-2.6.94-2.77,3.83-.18,2.89,5.84,2.28,6.66-.21Z"/>
      <path class="cls-1" d="M18.25,18.97s0-.01.02-.03c.09-.1.44-.49.88-.92.83-.83,1.99-1.84,2.28-1.31-.18.22-1.65,2.13-3.26,4.57l.06-2.26.02-.05Z"/>
      <path class="cls-1" d="M19.15,2.16c2.78-.47,1.93,3.45,1.72,6.05-.2,2.6-1.31,5.67-1.31,5.67,0,0-.5-2.17-3.77-3.77-.74-.37-1.44-.63-2.07-.81h0s2.66-6.67,5.43-7.14Z"/>
      <path class="cls-1" d="M20,15.5c.36.76-.86,2.51-.86,2.51h.01c-.44.44-.79.83-.88.93,0,0-.01-.01-.02-.03-.17-.32-1.71-3.19-1.33-3.7.39-.55,1.46.02,1.72.1.26.07.99-.57,1.36.19Z"/>
      <path class="cls-1" d="M18.25,18.91s.02.03.02.03c-.01.02-.02.03-.02.03l-.02.05h-.01l-.12.03s-.03.01-.05.01c-.58.14-2.58.56-3.41.31-.98-.31-.28-1.4.06-1.71.33-.31-.14-.99.64-1.51.73-.48,2.68,2.42,2.91,2.76Z"/>
      <path class="cls-1" d="M18.23,19.02l-.06,2.26c-.24.37-.5.76-.75,1.17.22-.78.81-3.43.81-3.43Z"/>
      <path class="cls-1" d="M18.22,19.02h.01s-.59,2.65-.81,3.43c-.08.12-.15.24-.23.37-.89.36-1.22-.35-1.37-.76-.15-.43-1.04-.22-1.24-1.13-.18-.79,2.74-1.66,3.47-1.87.02,0,.04,0,.05-.01l.12-.03Z"/>
      <path class="cls-1" d="M11.26,10.69c2.93.67,4.71,1.14,3.89,3.62-.82,2.49-6.84,3.1-6.66.21.17-2.89,2.77-3.83,2.77-3.83Z"/>
    </g>
  </g>
</svg>