<?xml version="1.0" encoding="UTF-8"?>
<svg id="Layer_2" data-name="Layer 2" xmlns="http://www.w3.org/2000/svg" viewBox="0 0 58.28 55.04">
  <defs>
    <style>
      .cls-1, .cls-2 {
        fill: none;
        stroke: #231f20;
        stroke-width: .1px;
      }

      .cls-2 {
        stroke-miterlimit: 10;
      }
    </style>
  </defs>
  <g id="Layer_1-2" data-name="Layer 1">
    <g>
      <g>
        <path class="cls-2" d="M57.45,28.89s1.14,2.35.67,4.64c-.47,2.28-4.64,4.3-5.11,4.43-.42.12-1.15-1.03-1.31-1.29.42-.25,5.53-3.49,3.93-8.44,1.13.42,1.82.66,1.82.66Z"/>
        <path class="cls-2" d="M55.63,28.23c1.6,4.95-3.51,8.19-3.93,8.44-.02-.03-.03-.05-.03-.05l-.03.04c-.62-.58-10.63-9.96-11.93-13.41l.77-2.05c4.68,2.99,11.83,5.8,15.15,7.03Z"/>
        <path class="cls-2" d="M52.41,39.24c.27.33,1,1.61-.74,3.96-1.75,2.35-5.78,3.5-7.26,3.76-1.4.26-2.19-1.54-2.62-2.07l.07-.07s7.74-.41,9.13-7c.25.23,1.19,1.13,1.42,1.42Z"/>
        <path class="cls-2" d="M51.67,36.62s0,.02.03.05c-.02,0-.03.02-.03.02l-.03-.03.03-.04Z"/>
        <path class="cls-2" d="M50.95,37.72l-.02.04.06.06c-1.39,6.59-9.13,7-9.13,7,0,0-.37-.58-.98-1.6-3.45-5.68-14.72-24.83-12.73-29.51l4.82-1.92c.88,2.05,2.19,4.48,4.05,6.62.8.92,2.01,1.86,3.46,2.79l-.77,2.05c1.3,3.45,11.31,12.83,11.93,13.41l-.69,1.06Z"/>
        <path class="cls-2" d="M51,37.76s-.01.04-.01.06l-.06-.06.02-.04s.05.04.05.04Z"/>
        <path class="cls-2" d="M41.86,44.82l-.07.07s-.05-.06-.07-.08c-.4-.4-2.28.74-2.28.74,0,0-.24-.43-.65-1.19l.11-.06,1.88-1.01.1-.07c.61,1.02.98,1.6.98,1.6Z"/>
        <path class="cls-2" d="M38.79,44.36c.41.76.65,1.19.65,1.19-3.97,4.71-9.07,5.92-14.11,6.59-4.08.54-4.95-.63-5.13-1.1-.39-3.55-1.88-14.68-2-15.63-.13-1.08-2.15-19.68-2.01-19.95l-.85-2.88c1.13-.32,2.36-.69,3.68-1.1,7.75-2.44,11.11-3.64,12.2-4.38l.15.03s.45,2.02,1.6,4.66l-4.82,1.92c-1.99,4.68,9.28,23.83,12.73,29.51l-.1.07-1.88,1.01-.11.06Z"/>
        <path class="cls-2" d="M20.2,51.04c.18.47,1.05,1.64,5.13,1.1,5.04-.67,10.14-1.88,14.11-6.59,0,0,.74.54.6,1.68-.13,1.15-2.82,5.31-9.61,6.65-6.78,1.35-9.87-.53-10.14-1.21-.23-.58-1.02-.16-1.23-.03-.02-.14-.05-.23-.05-.23l-.09-.8-.08-.62,1.31-.13s0,.07.05.18Z"/>
        <path class="cls-2" d="M31.65,6.5c.05.17-.07.36-.43.6-1.09.74-4.45,1.94-12.2,4.38-1.32.41-2.55.78-3.68,1.1-4.76,1.36-7.83,1.95-9.43,2.05-.98.07-1.41-.05-1.34-.27.18-.61-1.83-3.88-2.17-4.42,2.02.07,13.3,0,27.17-8.88l.14.03c-.35.92,1.75,4.79,1.94,5.41Z"/>
        <path class="cls-2" d="M29.1.06c1.54-.07,1.54.4.73.87-.05.03-.09.09-.12.16l-.14-.03C15.7,9.94,4.42,10.01,2.4,9.94c-.03-.05-.05-.08-.05-.08,0,0-1.21,0-.47-.87s6.85-3.96,6.85-3.96C23.52-.68,27.55.12,29.1.06Z"/>
        <path class="cls-2" d="M9.56,49.99c-3.27,2.12-7.74-1.32-8.71-2.13.94-1.18,2.73-3.47,5.66-8.96,4.84-9.07-.6-24.25-.6-24.25v-.02c1.6-.1,4.67-.69,9.43-2.05l.85,2.88c-.14.27,1.88,18.87,2.01,19.95.12.95,1.61,12.08,2,15.63-.05-.11-.05-.18-.05-.18l-1.31.13.08.62c-4.13,2.24-7.21.36-7.75-.02,0-.26.03-.65.04-1.13h-.06c-.74.33-1.48-.54-1.48-.54-.04.02-.07.05-.11.07Z"/>
        <path class="cls-2" d="M19.06,52.64c.05.27.06.71-.25.98-.47.4-4.03,1.88-6.39,1.2-2.35-.67-.94-1.54-1.27-2.68-.01-.04-.03-.08-.05-.12l.05-.02s0-.17.02-.41c.54.38,3.62,2.26,7.75.02l.09.8s.03.09.05.23Z"/>
        <path class="cls-2" d="M11.17,51.59c-.01.24-.01.38-.02.41l-.05.02c-.24-.49-.94-.19-1.89.14v-.02s.18-.82.35-2.15c.04-.02.07-.05.11-.07,0,0,.74.87,1.48.54h.06c-.01.48-.03.87-.04,1.13Z"/>
        <path class="cls-2" d="M9.56,49.99c-.17,1.33-.36,2.15-.36,2.15v.02c-.75.25-1.69.54-2.69.45-2.35-.2-6.32-2.29-6.45-3.29-.05-.4.19-.69.79-1.46.97.81,5.44,4.25,8.71,2.13Z"/>
      </g>
      <g>
        <line class="cls-2" x1="38.9" y1="44.3" x2="40.78" y2="43.29"/>
        <line class="cls-2" x1="50.96" y1="28.35" x2="51.9" y2="27.21"/>
        <path class="cls-2" d="M5.91,14.65s5.44,15.18.6,24.25c-2.93,5.49-4.72,7.78-5.66,8.96-.6.77-.84,1.06-.79,1.46.13,1,4.1,3.09,6.45,3.29,1,.09,1.94-.2,2.7-.45.95-.33,1.65-.63,1.89-.14.02.04.04.08.05.12.33,1.14-1.08,2.01,1.27,2.68,2.36.68,5.92-.8,6.39-1.2.31-.27.3-.71.25-.98-.02-.14-.05-.23-.05-.23l-.09-.8-.08-.62-1.58-13.63"/>
        <path class="cls-2" d="M11.15,52s0-.17.02-.41c0-.26.03-.65.04-1.13.11-4.32.26-16.48-.8-20.69"/>
        <path class="cls-2" d="M9.2,52.14s.19-.82.36-2.15c.26-2.11.45-5.5-.29-9"/>
        <path class="cls-2" d="M19.01,52.67s.02-.01.05-.03c.21-.13,1-.55,1.23.03.27.68,3.36,2.56,10.14,1.21,6.79-1.34,9.48-5.5,9.61-6.65.14-1.14-.6-1.68-.6-1.68,0,0,1.88-1.14,2.28-.74.02.02.04.05.07.08.43.53,1.22,2.33,2.62,2.07,1.48-.26,5.51-1.41,7.26-3.76,1.74-2.35,1.01-3.63.74-3.96-.23-.29-1.17-1.19-1.42-1.42l-.06-.06.02-.04.69-1.06.03-.04s0,.02.03.05c.16.26.89,1.41,1.31,1.29.47-.13,4.64-2.15,5.11-4.43.47-2.29-.67-4.64-.67-4.64,0,0-.69-.24-1.82-.66-3.32-1.23-10.47-4.04-15.15-7.03-1.45-.93-2.66-1.87-3.46-2.79-1.86-2.14-3.17-4.57-4.05-6.62-1.15-2.64-1.6-4.66-1.6-4.66"/>
        <path class="cls-2" d="M39.71,23.25c1.3,3.45,11.31,12.83,11.93,13.41l.03.03s0-.01.03-.02c.42-.25,5.53-3.49,3.93-8.44h0"/>
        <path class="cls-2" d="M28.15,13.71c-1.99,4.68,9.28,23.83,12.73,29.51.61,1.02.98,1.6.98,1.6,0,0,7.74-.41,9.13-7,0-.02.01-.04.01-.06,0,0-.02-.01-.05-.04-.42-.35-3.51-2.99-4.25-4.86"/>
        <path class="cls-2" d="M16.19,15.46c-.14.27,1.88,18.87,2.01,19.95.12.95,1.61,12.08,2,15.63.05.46.08.8.09.96"/>
        <path class="cls-2" d="M.66,47.7s.07.06.19.16c.97.81,5.44,4.25,8.71,2.13.04-.02.07-.05.11-.07,0,0,.74.87,1.48.54"/>
        <path class="cls-2" d="M11.08,51.53l.09.06c.54.38,3.62,2.26,7.75.02,0,0,0-.01.02-.01"/>
        <path class="cls-2" d="M18.74,51h.1s1.31-.14,1.31-.14c0,0,0,.07.05.18.18.47,1.05,1.64,5.13,1.1,5.04-.67,10.14-1.88,14.11-6.59,0,0-.24-.43-.65-1.19-2.71-4.97-12.88-24.13-12.59-30.31"/>
        <path class="cls-2" d="M7.64,6.73s-4.69,2.03-3.36,2.45S24.38,3.5,25.92,1.89s-5.46.91-9.03,2.1"/>
        <path class="cls-2" d="M29.71,1.09c.03-.07.07-.13.12-.16.81-.47.81-.94-.73-.87-1.55.06-5.58-.74-20.37,4.97,0,0-6.11,3.09-6.85,3.96s.47.87.47.87c0,0,.02.03.05.08.34.54,2.35,3.81,2.17,4.42-.07.22.36.34,1.34.27,1.6-.1,4.67-.69,9.43-2.05,1.13-.32,2.36-.69,3.68-1.1,7.75-2.44,11.11-3.64,12.2-4.38.36-.24.48-.43.43-.6-.19-.62-2.29-4.49-1.94-5.41Z"/>
        <path class="cls-2" d="M2.08,9.93s.11.01.32.01c2.02.07,13.3,0,27.17-8.88"/>
      </g>
    </g>
    <path class="cls-1" d="M12.13,8.71c.2.34,1.61,2.49,1.61,2.49l-1.61-2.49Z"/>
  </g>
</svg>