<?xml version="1.0" encoding="UTF-8"?>
<svg id="Layer_2" data-name="Layer 2" xmlns="http://www.w3.org/2000/svg" viewBox="0 0 53.84 59.85">
  <defs>
    <style>
      .cls-1, .cls-2 {
        fill: none;
      }

      .cls-2 {
        stroke: #231f20;
        stroke-width: .21px;
      }
    </style>
  </defs>
  <g id="Layer_1-2" data-name="Layer 1">
    <g>
      <g>
        <path class="cls-1" d="M52.84,52.51c-.2-.03-.41-.13-.63-.16-.65-.1-3.19-.05-4.74,1.2-.51.41-1,.65-1.44.76-.9.24-1.62-.05-1.95-.51-.5-.7-.2-1.95-.99-3.69-.1-.21-.2-.44-.31-.68-.79-1.79-1.86-4.42-2.34-7.05-.43-2.36.26-4.69-.37-9.73-.16-1.33-.42-2.86-.82-4.63-.22-.97-.36-1.86-.45-2.69h-.03c-5.75-.2-9.19-1.98-11.92-3.2,1.13-3.32,2.05-5.75,2.1-5.93.12-.44.73-2.48.77-3.12,5.08-.01,9.36-4.24,9.37-6.15h0s1.79.5,6.13,4.39,4.59,9.97,4.79,12.46c.19,2.5.59,12.97,1.89,16.85,1.3,3.89,1.99,8.08,1.79,10.27-.13,1.47-.46,1.67-.86,1.61Z"/>
        <path class="cls-1" d="M52.98,55.77c.04.83-.74.93-1.78,1.13-1.05.21-3.67,1.14-4.4,1.03s-.4-2.49-.75-3.53l-.02-.09c.44-.11.93-.35,1.44-.76,1.55-1.25,4.09-1.3,4.74-1.2.22.03.43.13.63.16-.13.49.11,2.43.14,3.26Z"/>
        <path class="cls-1" d="M18.3,54.17c2.18,1.08,5.3,1.87,9.58,1.87,6.08,0,9.22-2.59,10.47-3.44.97-.66,2.74-1.11,3.76-2.13l.08.08s.06,1.09.25,2.6c.15,1.19-2,4.43-11.27,6.28-9.27,1.84-21.48-4.89-23.08-7.48-1.59-2.59.85-3.74.85-4.54l.09-.06c.3.36.63.71,1,1.06,2.7,2.54,3.94,2.54,5.99,4.29.42.35.9.7,1.47,1.03.25.15.52.3.81.44Z"/>
        <path class="cls-1" d="M42.78,49.43c-.13.41-.37.75-.67,1.04-1.02,1.02-2.79,1.47-3.76,2.13-1.25.85-4.39,3.44-10.47,3.44-4.28,0-7.4-.79-9.58-1.87-.23-.85.57-3.03,1.46-4.76.89-1.75,2.94-3.54,2.99-10.37.01-2.35.74-5.73,1.69-9.17.99.34,1.87.67,2.52.97,3.09,1.44,7.4,4.26,12.99,1.82h.12c.63,5.03-.06,7.36.37,9.72.48,2.63,1.55,5.26,2.34,7.05ZM35.3,47.24c.9-.49,1.18-.56.78-1.86s-2.4-5.65-2.86-5.65c-.35.02-1.87.73-2.01.8,1.09,1.75,2.1,5.03,2.39,6.19.28,1.16.8,1.02,1.7.52Z"/>
        <path class="cls-1" d="M40.07,32.65h-.12c-5.59,2.45-9.9-.37-12.99-1.81-.65-.3-1.53-.63-2.52-.97.74-2.7,1.63-5.43,2.41-7.74,2.73,1.22,6.17,3,11.92,3.2h.03c.09.83.23,1.72.45,2.69.4,1.77.66,3.3.82,4.63Z"/>
        <path class="cls-1" d="M29.72,13.08c-.16,0-.33,0-.49-.01-.19-.01-.37-.02-.54-.04,0,0,.27-3.21.21-4.53v-.04c1.91.11,4.05-.33,5.82-1.31.95-.53,1.69-1.15,2.17-1.8.81-1.07.96-2.23.38-3.2,1.28-.03,1.18,2.45,1.78,4.48.03.09.04.19.04.3-.01,1.91-4.29,6.14-9.37,6.15Z"/>
        <path class="cls-1" d="M37.27,2.15c.58.97.43,2.13-.38,3.2l-.08-.06s-1.87-3.04-6.29-2.44c-4.41.6-5.13,4.46-5.13,4.46l-.03.03c-.96-.72-1.32-1.67-1.13-2.65.02-.13.06-.27.11-.4.34-1.03,1.27-2.05,2.73-2.86,3.06-1.69,7.24-1.78,9.36-.2.37.27.65.58.84.92Z"/>
        <path class="cls-1" d="M36.81,5.29l.08.06c-.48.65-1.22,1.27-2.17,1.8-1.77.98-3.91,1.42-5.82,1.31-.26-.01-.52-.04-.77-.07-1.08-.16-2.04-.5-2.76-1.04h0s.03-.04.03-.04c0,0,.72-3.86,5.13-4.46,4.42-.6,6.29,2.44,6.29,2.44Z"/>
        <path class="cls-1" d="M36.08,45.38c.4,1.3.12,1.37-.78,1.86-.9.5-1.42.64-1.7-.52-.29-1.16-1.3-4.44-2.39-6.19.14-.07,1.66-.78,2.01-.8.46,0,2.46,4.35,2.86,5.65Z"/>
        <path class="cls-1" d="M29.23,13.07c.16.01.33.01.49.01-.04.64-.65,2.68-.77,3.12-.05.18-.97,2.61-2.1,5.93-.29-.13-.57-.25-.84-.37,1.14-3.38,2.09-5.87,2.14-6.05l-.03-.02c.36-.35.46-.9.44-1.22-.04-.54-.11-1.44-.11-1.44v-.02c.08.01.16.02.24.02.17.02.35.03.54.04Z"/>
        <path class="cls-1" d="M28.9,8.5c.06,1.32-.21,4.53-.21,4.53-.08,0-.16-.01-.24-.02-.15-.02-.3-.04-.44-.05v-.05s.18-3.19.12-4.52c.25.03.51.06.77.07v.04Z"/>
        <path class="cls-1" d="M28.56,14.47c.02.32-.08.87-.44,1.22-.24.23-.58.37-1.08.32-1.26-.13.34-1.97.68-3.08v-.02c.09.01.19.03.29.05.14,0,.29.03.44.05v.02s.07.9.11,1.44Z"/>
        <path class="cls-1" d="M28.12,15.69l.03.02c-.05.18-1,2.67-2.14,6.05-.44-.18-.86-.34-1.27-.47-3.11-.97-8.54-2.8-8.87-3.35h-.08c.22-1.33.34-2.34.35-2.86l-1.27-.12c3.39-9.77,9.4-10.69,9.4-10.69l.07.02c-.05.13-.09.27-.11.4h-.04s-.35.55-.6,2.74c-.23,1.99-.13,4.74,4.13,5.48v.02c-.34,1.11-1.94,2.95-.68,3.08.5.05.84-.09,1.08-.32Z"/>
        <path class="cls-1" d="M28.13,8.39c.06,1.33-.11,4.52-.11,4.52v.05c-.11-.02-.21-.04-.3-.05-4.26-.74-4.36-3.49-4.13-5.48.25-2.19.6-2.74.6-2.74h.04c-.19.98.17,1.93,1.13,2.65h0c.72.55,1.68.89,2.76,1.05Z"/>
        <path class="cls-1" d="M26.01,21.76c.27.12.55.24.84.37-.78,2.31-1.67,5.04-2.41,7.74-.28-.1-.56-.19-.86-.29.75-2.71,1.63-5.48,2.43-7.82Z"/>
        <path class="cls-1" d="M24.74,21.29c.41.13.83.29,1.27.47-.8,2.34-1.68,5.11-2.43,7.82-3.55-1.19-8.1-2.55-9.4-3.98.72-2.88,1.28-5.65,1.61-7.67h.08c.33.56,5.76,2.39,8.87,3.36Z"/>
        <path class="cls-1" d="M23.58,29.58c.3.1.58.19.86.29-.95,3.44-1.68,6.82-1.69,9.17-.05,6.83-2.1,8.62-2.99,10.37-.89,1.73-1.69,3.91-1.46,4.76-.29-.14-.56-.29-.81-.44l.02-.04c-.25-.84.55-3.04,1.45-4.78.9-1.75,2.94-3.54,2.99-10.37.01-2.3.71-5.59,1.63-8.96Z"/>
        <path class="cls-1" d="M8.26,46.23c-1.13-2.08-.96-4.66,1.58-8.69,1.69-2.68,3.21-7.46,4.34-11.94,1.3,1.43,5.85,2.79,9.4,3.98-.92,3.37-1.62,6.66-1.63,8.96-.05,6.83-2.09,8.62-2.99,10.37-.9,1.74-1.7,3.94-1.45,4.78l-.02.04c-.57-.33-1.05-.68-1.47-1.03-2.05-1.75-3.29-1.75-5.99-4.29-.37-.35-.7-.7-1-1.06-.29-.36-.55-.73-.77-1.12ZM16.27,38.48c.2-.48.09-1.02-.57-1.82-.65-.8-.68-1.65-1.54-.57-.85,1.08-3.39,2.05-4.1,2.59s-.74.77-.17,1.82c.57,1.06,1.08.57,2.59,0s3.59-1.53,3.79-2.02Z"/>
        <path class="cls-1" d="M15.7,36.66c.66.8.77,1.34.57,1.82-.2.49-2.28,1.45-3.79,2.02s-2.02,1.06-2.59,0c-.57-1.05-.54-1.28.17-1.82s3.25-1.51,4.1-2.59c.86-1.08.89-.23,1.54.57Z"/>
        <path class="cls-1" d="M7.62,46.33c-1.02.11-3.04.1-4.81-1.31-.55-.43-.97-.96-1.26-1.57-1.05-2.15-.43-5.23,2.3-8.15,3.49-3.74,7.63-10.57,11.02-20.34l1.27.12c0,.52-.13,1.53-.35,2.85-.33,2.02-.89,4.79-1.61,7.67-1.13,4.48-2.65,9.26-4.34,11.94-2.54,4.03-2.71,6.61-1.58,8.69-.07.01-.3.06-.64.1Z"/>
        <path class="cls-1" d="M2.81,45.02c1.77,1.41,3.79,1.42,4.81,1.31-.14.26-1.53,2.87-2.81,3.56-1.35.72-3.69-1.64-4.48-3.09-.78-1.45.69-2.19,1.1-3.29l.12-.06c.29.61.71,1.14,1.26,1.57Z"/>
      </g>
      <g>
        <path class="cls-2" d="M24.34,4.29c.34-1.03,1.27-2.05,2.73-2.86,3.06-1.69,7.24-1.78,9.36-.2.37.27.65.58.84.92.58.97.43,2.13-.38,3.2-.48.65-1.22,1.27-2.17,1.8-1.77.98-3.91,1.42-5.82,1.31-.26-.01-.52-.04-.77-.07-1.08-.16-2.04-.5-2.76-1.04h0c-.96-.73-1.32-1.68-1.13-2.66.02-.13.06-.27.11-.4Z"/>
        <path class="cls-2" d="M24.19,4.69s-.35.55-.6,2.74c-.23,1.99-.13,4.74,4.13,5.48.09.01.19.03.29.05.14,0,.29.03.44.05.08.01.16.02.24.02.17.02.35.03.54.04.16.01.33.01.49.01,5.08-.01,9.36-4.24,9.37-6.15,0-.11-.01-.21-.04-.3-.6-2.03-.5-4.51-1.78-4.48h-.02"/>
        <path class="cls-2" d="M28.13,8.39c.06,1.33-.11,4.52-.11,4.52"/>
        <path class="cls-2" d="M28.9,8.5c.06,1.32-.21,4.53-.21,4.53"/>
        <path class="cls-2" d="M27.72,12.93c-.34,1.11-1.94,2.95-.68,3.08.5.05.84-.09,1.08-.32.36-.35.46-.9.44-1.22-.04-.54-.11-1.44-.11-1.44"/>
        <path class="cls-2" d="M25.39,7.31s.72-3.86,5.13-4.46c4.42-.6,6.29,2.44,6.29,2.44"/>
        <path class="cls-2" d="M24.27,4.27s-6.01.92-9.4,10.69S7.34,31.56,3.85,35.3c-2.73,2.92-3.35,6-2.3,8.15.29.61.71,1.14,1.26,1.57,1.77,1.41,3.79,1.42,4.81,1.31.34-.04.57-.09.64-.1.02-.01.03-.01.03-.01"/>
        <path class="cls-2" d="M1.43,43.51c-.41,1.1-1.88,1.84-1.1,3.29.79,1.45,3.13,3.81,4.48,3.09,1.28-.69,2.67-3.3,2.81-3.56.01-.01.01-.02.01-.02"/>
        <path class="cls-2" d="M16.14,15.08c0,.52-.13,1.53-.35,2.85-.33,2.02-.89,4.79-1.61,7.67-1.13,4.48-2.65,9.26-4.34,11.94-2.54,4.03-2.71,6.61-1.58,8.69.22.39.48.76.77,1.12.3.36.63.71,1,1.06,2.7,2.54,3.94,2.54,5.99,4.29.42.35.9.7,1.47,1.03.25.15.52.3.81.44,2.18,1.08,5.3,1.87,9.58,1.87,6.08,0,9.22-2.59,10.47-3.44.97-.66,2.74-1.11,3.76-2.13.3-.29.54-.63.67-1.04t0-.02"/>
        <path class="cls-2" d="M8.94,47.41c0,.8-2.44,1.95-.85,4.54,1.6,2.59,13.81,9.32,23.08,7.48,9.27-1.85,11.42-5.09,11.27-6.28-.19-1.51-.25-2.6-.25-2.6"/>
        <path class="cls-2" d="M40.99,16.76s-2.85,2.22-2.19,8.57c.09.83.23,1.72.45,2.69.4,1.77.66,3.3.82,4.63.63,5.04-.06,7.37.37,9.73.48,2.63,1.55,5.26,2.34,7.05.11.24.21.47.31.68.79,1.74.49,2.99.99,3.69.33.46,1.05.75,1.95.51.44-.11.93-.35,1.44-.76,1.55-1.25,4.09-1.3,4.74-1.2.22.03.43.13.63.16.4.06.73-.14.86-1.61.2-2.19-.49-6.38-1.79-10.27-1.3-3.88-1.7-14.35-1.89-16.85-.2-2.49-.45-8.57-4.79-12.46s-6.13-4.39-6.13-4.39"/>
        <path class="cls-2" d="M46.05,54.4c.35,1.04.02,3.42.75,3.53s3.35-.82,4.4-1.03c1.04-.2,1.82-.3,1.78-1.13-.03-.83-.27-2.77-.14-3.26v-.02"/>
        <path class="cls-2" d="M33.22,39.73c.46,0,2.46,4.35,2.86,5.65s.12,1.37-.78,1.86c-.9.5-1.42.64-1.7-.52-.29-1.16-1.3-4.44-2.39-6.19.14-.07,1.66-.78,2.01-.8Z"/>
        <path class="cls-2" d="M28.15,15.71c-.05.18-1,2.67-2.14,6.05-.8,2.34-1.68,5.11-2.43,7.82-.92,3.37-1.62,6.66-1.63,8.96-.05,6.83-2.09,8.62-2.99,10.37-.9,1.74-1.7,3.94-1.45,4.78"/>
        <path class="cls-2" d="M18.31,54.19s0-.01,0-.02c-.23-.85.57-3.03,1.46-4.76.89-1.75,2.94-3.54,2.99-10.37.01-2.35.74-5.73,1.69-9.17.74-2.7,1.63-5.43,2.41-7.74,1.13-3.32,2.05-5.75,2.1-5.93.12-.44.73-2.48.77-3.12v-.03"/>
        <path class="cls-2" d="M15.87,17.94c.33.55,5.76,2.38,8.87,3.35.41.13.83.29,1.27.47.27.12.55.24.84.37,2.73,1.22,6.17,3,11.92,3.2"/>
        <path class="cls-2" d="M14.12,25.53s.04.05.06.07c1.3,1.43,5.85,2.79,9.4,3.98.3.1.58.19.86.29.99.34,1.87.67,2.52.97,3.09,1.44,7.4,4.26,12.99,1.82"/>
        <path class="cls-2" d="M14.16,36.09c-.85,1.08-3.39,2.05-4.1,2.59s-.74.77-.17,1.82c.57,1.06,1.08.57,2.59,0s3.59-1.53,3.79-2.02c.2-.48.09-1.02-.57-1.82-.65-.8-.68-1.65-1.54-.57Z"/>
      </g>
    </g>
  </g>
</svg>