<?xml version="1.0" encoding="UTF-8"?>
<svg id="Layer_2" data-name="Layer 2" xmlns="http://www.w3.org/2000/svg" viewBox="0 0 71.23 54.68">
  <defs>
    <style>
      .cls-1, .cls-2 {
        fill: none;
      }

      .cls-2 {
        stroke: #231f20;
        stroke-width: .16px;
      }
    </style>
  </defs>
  <g id="Layer_1-2" data-name="Layer 1">
    <g>
      <g>
        <path class="cls-1" d="M67.62,33.39c-.8.68-1.5,1.19-1.83,1.28-.86.22-1.43-1.49-1.51-1.76,1.69-1.17,4.41-4.26,5.19-6.11l.04.02s2.04,1.92,1.57,2.97c-.3.67-2.02,2.41-3.46,3.6ZM66.67,32.97c0-.36-.31-.64-.7-.64s-.7.28-.7.64.32.64.7.64.7-.29.7-.64Z"/>
        <path class="cls-1" d="M64.28,32.91c-.41.29-.76.46-1,.48-1.45.12-3.2-2.09-4.13-3.6-.88-1.45-8.08-6.46-8.78-6.95l-.45-1.48-1.23.37c-.31-.97-.56-1.65-.56-1.65,0,0-5.87,1.54-7.27,2.02,0,0,.02.24.06.64l-1.37.14c0-.36-.32-.64-.7-.64s-.7.28-.7.64c0,.04,0,.09.01.13l-1.06.16c-1.34-5.39-2.62-11.08-2.62-11.08h-.03c-.15-.77-.66-3.98,1.08-4.54,1.92-.62,5.27,3.75,5.46,4.01-.1-.26-1.74-4.27-3.11-7.48l.04-.02c3.72-.06,12.22,3.14,18.09,7.97,5.88,4.83,13.56,12.05,13.68,13.86.01.24-.06.55-.22.91-.78,1.85-3.5,4.94-5.19,6.11ZM38.61,17.33c0-.35-.31-.64-.69-.64s-.7.29-.7.64.31.64.7.64.69-.29.69-.64Z"/>
        <ellipse class="cls-1" cx="65.97" cy="32.97" rx=".7" ry=".64"/>
        <path class="cls-1" d="M50.37,22.84l1.04,3.45s5.82,20.67,3.73,22.41c-2.1,1.75-11.11,4.6-11.52,3.61-.1-.24-.32-1.3-.61-2.85-.94-4.95-2.69-14.93-3.93-18.92-.56-1.8-1.28-4.54-1.98-7.37l1.06-.16c.07.29.35.51.69.51.38,0,.7-.29.7-.64l1.37-.14c.19,1.63.74,5.92,1.47,6.52.91.73,5.45.03,6.86-1.19.95-.84.09-4.25-.56-6.34l1.23-.37.45,1.48ZM45.09,44.76c0-.35-.31-.64-.69-.64s-.7.29-.7.64.31.64.7.64.69-.28.69-.64ZM43.31,36.42c0-.35-.31-.64-.7-.64s-.7.29-.7.64.32.64.7.64.7-.29.7-.64ZM41.72,30.02c0-.35-.31-.64-.7-.64s-.7.29-.7.64.31.64.7.64.7-.29.7-.64Z"/>
        <path class="cls-1" d="M48.69,21.73c.65,2.09,1.51,5.5.56,6.34-1.41,1.22-5.95,1.92-6.86,1.19-.73-.6-1.28-4.89-1.47-6.52-.04-.4-.06-.64-.06-.64,1.4-.48,7.27-2.02,7.27-2.02,0,0,.25.68.56,1.65Z"/>
        <path class="cls-1" d="M44.4,44.12c.38,0,.69.29.69.64s-.31.64-.69.64-.7-.28-.7-.64.31-.64.7-.64Z"/>
        <ellipse class="cls-1" cx="42.61" cy="36.42" rx=".7" ry=".64"/>
        <path class="cls-1" d="M34.47,12.22s-.01-.07-.02-.13h.03s1.28,5.69,2.62,11.08c.7,2.83,1.42,5.57,1.98,7.37,1.24,3.99,2.99,13.97,3.93,18.92-2.33-.34-5.68,1.16-5.68,1.16,0,0-6.22-31.2-6.51-32.36-.05-.21-.09-.48-.11-.77-.1-1.28.04-3.08,0-3.6-.06-.64-.81-1.97-2.44-3.02s-4.31-5.82-4.31-5.82c0,0,7.97-1.4,9.54-1.98s1.87.35,1.87.35c0,0-.64,1.74-1.4,3.61-.71,1.74.37,4.82.51,5.19Z"/>
        <ellipse class="cls-1" cx="41.02" cy="30.02" rx=".7" ry=".64"/>
        <path class="cls-1" d="M38.85,22.24c.38,0,.7.28.7.64s-.32.64-.7.64c-.34,0-.62-.22-.69-.51-.01-.04-.01-.09-.01-.13,0-.36.31-.64.7-.64Z"/>
        <path class="cls-1" d="M37.88,4.08c1.37,3.21,3.01,7.22,3.11,7.48-.19-.26-3.54-4.63-5.46-4.01-1.74.56-1.23,3.77-1.08,4.54,0,.06,0,.1.02.13-.14-.37-1.22-3.45-.51-5.19.76-1.87,1.4-3.61,1.4-3.61,0,0-.3-.93-1.87-.35s-9.54,1.98-9.54,1.98c0,0,2.68,4.77,4.31,5.82s2.38,2.38,2.44,3.02c.05.52-.09,2.32,0,3.6h-.07s-1.39-2.78-1.92-4.18c-.52-1.39-3.43-4.25-4.19-3.2-.75,1.05-3.37,4.89-3.37,4.89,0,0,.2-4.99.29-7.92.04-.97.06-1.71.06-1.97,0-1.05.64-2.97,2.15-2.86,1.51.12,4.77.24,7.04-.58,2.27-.81,4.89-1.75,5.3-1.57.16.07.96,1.85,1.88,3.98Z"/>
        <path class="cls-1" d="M37.92,16.69c.38,0,.69.29.69.64s-.31.64-.69.64-.7-.29-.7-.64.31-.64.7-.64Z"/>
        <path class="cls-1" d="M19.45,29.02h-.04s-2.73,4.03-4.19,8.91c-1.45,4.89-3.49,9.55-5.29,9.9-.15.03-.29.05-.43.06l.02.11s-.46,2.39-1.86,2.68c-.36.08-1.08-.05-1.92-.28h0c1.16-1.29.76-3.5.76-3.5v-.09c-.67.01-1.43-.08-2.22-.38-2.61-.99-3.84-1.05-3.84-1.05h0c-.11-.32-.23-.61-.33-.81-.35-.7,4.71-10.83,5.12-12.22.4-1.4,4.42-17.87,16.17-25.27h.06c-.09,2.93-.29,7.92-.29,7.92,0,0,2.62-3.84,3.37-4.89.76-1.05,3.67,1.81,4.19,3.2.53,1.4,1.92,4.19,1.92,4.19h.07c.02.28.06.55.11.76.29,1.16,6.51,32.36,6.51,32.36,0,0,1.11,2.86.18,3.03-.93.18-12.57,2.5-14.55-.87-1.98-3.38-2.85-19.21-3.43-23.23-.02-.17-.05-.35-.08-.53Z"/>
        <path class="cls-1" d="M6.5,46.9s.4,2.21-.76,3.49h0c-2.4-.65-5.87-2.22-5.35-2.73.49-.5.31-1.49.04-2.28h0s1.23.06,3.84,1.05c.79.3,1.55.39,2.22.38v.09ZM5.51,48.22c0-.36-.31-.64-.7-.64s-.69.28-.69.64.31.64.69.64.7-.29.7-.64Z"/>
        <path class="cls-1" d="M4.81,47.58c.39,0,.7.28.7.64s-.31.64-.7.64-.69-.29-.69-.64.31-.64.69-.64Z"/>
      </g>
      <g>
        <path class="cls-2" d="M34.48,12.26s0-.01,0-.04c-.14-.37-1.22-3.45-.51-5.19.76-1.87,1.4-3.61,1.4-3.61,0,0-.3-.93-1.87-.35s-9.54,1.98-9.54,1.98c0,0,2.68,4.77,4.31,5.82s2.38,2.38,2.44,3.02c.05.52-.09,2.32,0,3.6.02.29.06.56.11.77.29,1.16,6.51,32.36,6.51,32.36,0,0,1.11,2.86.18,3.03-.93.18-12.57,2.5-14.55-.87-1.98-3.38-2.85-19.21-3.43-23.23-.02-.17-.05-.35-.08-.53-.25-1.57-.65-3.51-1.05-5.3-.63-2.86-1.26-5.34-1.26-5.34"/>
        <path class="cls-2" d="M41,11.57h0c-.19-.27-3.54-4.64-5.46-4.02-1.74.56-1.23,3.77-1.08,4.54,0,.06,0,.1.02.13"/>
        <path class="cls-2" d="M30.64,17.5s-1.39-2.79-1.92-4.19c-.52-1.39-3.43-4.25-4.19-3.2-.75,1.05-3.37,4.89-3.37,4.89,0,0,.2-4.99.29-7.92.04-.97.06-1.71.06-1.97,0-1.05.64-2.97,2.15-2.86,1.51.12,4.77.24,7.04-.58,2.27-.81,4.89-1.75,5.3-1.57.16.07.96,1.85,1.88,3.98,1.37,3.21,3.01,7.22,3.11,7.48"/>
        <path class="cls-2" d="M18.48,23.79s-.03-.03-.08-.07c-.4-.37-2.14-2-2.24-3.13"/>
        <path class="cls-2" d="M19.41,29.03s-2.73,4.02-4.19,8.9c-1.45,4.89-3.49,9.55-5.29,9.9-.15.03-.29.05-.43.06-1.45.15-1.84-.58-1.84-.58"/>
        <path class="cls-2" d="M9.17,46.14s-1.11.63-2.67.67c-.67.01-1.43-.08-2.22-.38-2.61-.99-3.84-1.05-3.84-1.05"/>
        <path class="cls-2" d="M9.52,48s-.46,2.39-1.86,2.68c-.36.08-1.08-.05-1.92-.28-2.4-.66-5.87-2.23-5.35-2.74.49-.5.31-1.49.04-2.28-.11-.32-.23-.61-.33-.81-.35-.7,4.71-10.83,5.12-12.22.4-1.4,4.42-17.87,16.17-25.27"/>
        <path class="cls-2" d="M48.69,21.73c-.31-.97-.56-1.65-.56-1.65,0,0-5.87,1.54-7.27,2.02,0,0,.02.24.06.64.19,1.63.74,5.92,1.47,6.52.91.73,5.45.03,6.86-1.19.95-.84.09-4.25-.56-6.34Z"/>
        <path class="cls-2" d="M47.23,12.44l2.69,8.92.45,1.48,1.04,3.45s5.82,20.67,3.73,22.41c-2.1,1.75-11.11,4.6-11.52,3.61-.1-.24-.32-1.3-.61-2.85-.94-4.95-2.69-14.93-3.93-18.92-.56-1.8-1.28-4.54-1.98-7.37-1.34-5.39-2.62-11.08-2.62-11.08"/>
        <path class="cls-2" d="M6.5,46.9s.4,2.21-.76,3.49"/>
        <path class="cls-2" d="M50.31,22.8s.02.01.06.04c.7.49,7.9,5.5,8.78,6.95.93,1.51,2.68,3.72,4.13,3.6.24-.02.59-.19,1-.48,1.69-1.17,4.41-4.26,5.19-6.11.16-.36.23-.67.22-.91-.12-1.81-7.8-9.03-13.68-13.86-5.87-4.83-14.37-8.03-18.09-7.97"/>
        <path class="cls-2" d="M64.27,32.87s0,.01.01.04c.08.27.65,1.98,1.51,1.76.33-.09,1.03-.6,1.83-1.28,1.44-1.19,3.16-2.93,3.46-3.6.47-1.05-1.57-2.97-1.57-2.97"/>
        <path class="cls-2" d="M66.19,31.42s1.06,1.63,1.43,1.97c.04.03.07.05.09.06"/>
        <path class="cls-2" d="M37.33,50.62s3.35-1.5,5.68-1.16h.03"/>
        <path class="cls-2" d="M37.92,16.69c.38,0,.69.29.69.64s-.31.64-.69.64-.7-.29-.7-.64.31-.64.7-.64Z"/>
        <path class="cls-2" d="M38.16,23.01s-.01-.09-.01-.13c0-.36.31-.64.7-.64s.7.28.7.64-.32.64-.7.64c-.34,0-.62-.22-.69-.51Z"/>
        <ellipse class="cls-2" cx="41.02" cy="30.02" rx=".7" ry=".64"/>
        <ellipse class="cls-2" cx="42.61" cy="36.42" rx=".7" ry=".64"/>
        <path class="cls-2" d="M44.4,44.12c.38,0,.69.29.69.64s-.31.64-.69.64-.7-.28-.7-.64.31-.64.7-.64Z"/>
        <ellipse class="cls-2" cx="65.97" cy="32.97" rx=".7" ry=".64"/>
        <path class="cls-2" d="M4.81,47.58c.39,0,.7.28.7.64s-.31.64-.7.64-.69-.29-.69-.64.31-.64.69-.64Z"/>
      </g>
    </g>
  </g>
</svg>