<?xml version="1.0" encoding="UTF-8"?>
<svg id="Layer_2" data-name="Layer 2" xmlns="http://www.w3.org/2000/svg" viewBox="0 0 67.48 58.76">
  <defs>
    <style>
      .cls-1 {
        fill: none;
        stroke: #231f20;
        stroke-width: .17px;
      }
    </style>
  </defs>
  <g id="Layer_1-2" data-name="Layer 1">
    <path class="cls-1" d="M19.85,25.6s4.39-1.55,4.76-7.55c.37-6.01-6.25-9.47-9.9-6.13-3.65,3.34-5.75,5.63-4.46,8.79,1.3,3.16,6.87,6.19,9.59,4.89Z"/>
    <path class="cls-1" d="M14.6,12.23c-.19,0,3.53,2.41,2.72,5.45-.8,3.03,3.96,6.13,3.28,7.55"/>
    <path class="cls-1" d="M19.85,25.66s21.9,23.34,24.94,24.82c3.03,1.49,22.28,9.04,22.59,8.11.31-.93-3.28-22.1-4.52-23.58-1.24-1.48-38.73-14.55-38.73-14.55"/>
    <path class="cls-1" d="M22.27,12.23s2.41-4.08,2.17-8.79c-.25-4.7-3.77-3.59-4.7-1.86-.93,1.73-7.3,7.86-10.77,8.98-3.47,1.11-7.73,3.9-8.48,6.38-.74,2.48-.37,2.48.43,3.34.81.87.93,1.92.12,2.41-.8.5-1.86,3.9,1.86,4.15,3.71.25,4.02-3.96,4.33-5.26.31-1.3,2.23-2.35,2.85-1.73"/>
    <path class="cls-1" d="M10.14,17.74s-3.16.81-3.53,2.11c-.37,1.3-1.36,4.64-2.85,4.64s-1.73-2.54-.31-3.1c1.42-.56.81-2.97.68-3.4-.12-.43-.62-2.1,2.04-2.91,2.66-.8,7.92-3.84,10.83-6.87,2.91-3.03,3.22-4.46,4.27-4.58,1.05-.12.74,3.1-1.73,7.18"/>
    <line class="cls-1" x1="39.7" y1="25.91" x2="43.47" y2="49.45"/>
    <line class="cls-1" x1="49.29" y1="52.28" x2="44.96" y2="27.76"/>
  </g>
</svg>