<?xml version="1.0" encoding="UTF-8"?>
<svg id="Layer_2" data-name="Layer 2" xmlns="http://www.w3.org/2000/svg" xmlns:xlink="http://www.w3.org/1999/xlink" viewBox="0 0 133.48 132.35">
  <defs>
    <style>
      .cls-1 {
        fill: #fbaa1d;
      }

      .cls-2 {
        fill: #f05124;
      }

      .cls-3 {
        fill: #fff;
        font-family: PoppinsRegularEdited, 'Poppins Regular Edited';
        font-size: 13px;
      }

      .cls-4 {
        fill: #6dbbcf;
      }

      .cls-5 {
        stroke: #231f20;
        stroke-width: .54px;
      }

      .cls-5, .cls-6 {
        fill: none;
      }

      .cls-7 {
        fill: #ffc612;
      }

      .cls-8 {
        clip-path: url(#clippath-1);
      }

      .cls-9 {
        fill: #7bc143;
      }

      .cls-10 {
        fill: #c7e7e4;
      }

      .cls-11 {
        fill: #419fb4;
      }

      .cls-12 {
        clip-path: url(#clippath-2);
      }

      .cls-13 {
        fill: #fcfbe6;
      }

      .cls-14 {
        clip-path: url(#clippath);
      }

      .cls-15 {
        fill: #509241;
      }

      .cls-16 {
        fill: #e9f4e5;
      }
    </style>
    <clipPath id="clippath">
      <rect class="cls-6" width="133.48" height="111.87"/>
    </clipPath>
    <clipPath id="clippath-1">
      <rect class="cls-6" width="133.48" height="111.87"/>
    </clipPath>
    <clipPath id="clippath-2">
      <rect class="cls-6" width="133.48" height="111.87"/>
    </clipPath>
  </defs>
  <g id="Layer_1-2" data-name="Layer 1">
    <g class="cls-14">
      <path class="cls-9" d="M18.59,42.87l63.81.68.98-.55,29.18-19.18c-4.97-6.19-1.24-18.85-1.24-18.85L44.14,1.62s-25.9,19.77-26.6,20.48c-5.94,8.67,1.05,20.77,1.05,20.77"/>
      <path class="cls-10" d="M83.54,43.44s-6.92-9.61,2.68-20.08c.87,0,25.75-18.77,25.75-18.77,0,0-4.71,12.82,1.14,19.23l-29.57,19.62Z"/>
      <path class="cls-15" d="M18.08,22.1l68.13,1.26s-9.27,6.76-2.83,19.64c.1,1.09-.44,1.09-.44,1.09l-63.81-1.22s-7.54-11.88-1.05-20.77"/>
      <path class="cls-1" d="M19.14,42.87s-5.9,7.82,2.76,20.82c1.08.14,78.53-.14,78.53-.14,0,0-6.09-11.51,3.25-19.5.54,0-84.54-1.19-84.54-1.19"/>
      <polygon class="cls-7" points="83.54 43.44 110.04 26.05 130.62 26.95 103.67 44.06 83.54 43.44"/>
      <path class="cls-2" d="M21.9,63.69s-5.64,14.82-.98,21.06c.04.05-1.01,1.75.12.16-.36.72,67.69,1.44,67.69,1.44,0,0-10.83-10.29,3.79-22.2"/>
      <polygon class="cls-4" points="18.98 79.62 20.5 85.58 82.95 86.47 68.99 92.56 6.16 90.91 18.98 79.62"/>
      <path class="cls-2" d="M19.37,80.38l1.1,4.93,14.68.62s1.05-3.44.91-3.54c-.14-.1-.81-3.54-3.78-4.07-2.96-.53-9.18-.33-9.23-.1-.05.24-3.68,2.15-3.68,2.15"/>
      <path class="cls-11" d="M6.01,91.17s-4.66,12.57,2.22,19.06c.97.28,64.68-.74,64.68-.74,0,0-7.22-9.2-3.92-16.92-.51-.32-2.05-.26-2.05-.26l-60.92-1.14Z"/>
      <path class="cls-16" d="M100.72,63.63s-5.76-12.3,2.96-19.57c3.73-2.08,26.94-17.1,26.94-17.1,0,0-3.74,11.88,1.52,18.98-.48.41-31.42,17.69-31.42,17.69"/>
      <path class="cls-10" d="M92.98,63.67s-15.26,10.71-3.9,22.84l28.06-16.53s-6.26-5.33-3.02-13.67c-.66.11-13.18,7.41-13.18,7.41l-7.96-.06Z"/>
      <path class="cls-13" d="M83.9,86.1l-14.91,6.46s-3.74,8.32,4.21,16.42c.15.45,30.39-15.16,30.39-15.16,0,0-4.68-6.32-2.75-14.34-.22.22-11.52,6.91-11.52,6.91l-5.42-.29Z"/>
    </g>
    <polyline class="cls-5" points="18.08 22.1 86.69 23.44 111.76 5.07"/>
    <g class="cls-8">
      <path class="cls-5" d="M130.42,26.98s-3.45,12.44,1.43,19.04l-31.19,17.7-78.75.1s-8.52-11.96-2.78-20.86"/>
      <path class="cls-5" d="M114.16,55.88s-3.35,8.23,2.87,13.97l-27.75,16.56-68.61-.86s-4.12-7.94,1.24-21.63"/>
      <path class="cls-5" d="M103.82,44.02s-9.19,5.84-3.16,19.71"/>
      <path class="cls-5" d="M19.14,42.87l63.81,1.22,26.91-18.16,20.77.96-26.89,17.22-84.59-1.24s-7.94-13.11-.29-22.01L44.68,1.62l67.18,3.35s-4.4,11.39,1.24,18.85c0,0-1.26.84-3.27,2.17-7.7,5.11-26.3,17.45-26.3,17.45-6.6-14.74,3.06-20.1,3.06-20.1"/>
      <path class="cls-5" d="M92.63,63.92s-14.83,10.34-3.64,22.58"/>
      <path class="cls-5" d="M19.04,79.23l-12.92,11.48s-4.5,12.63,2.01,19.52l64.78-.86,30.72-15.69s-5.17-5.84-2.78-14.45"/>
    </g>
    <polyline class="cls-5" points="83.34 86.51 69.28 92.34 6.03 91.2"/>
    <g class="cls-12">
      <path class="cls-5" d="M68.99,92.44c-.38.1-3.35,8.04,4.02,16.75"/>
    </g>
    <text class="cls-3" transform="translate(22.12 38.44)"><tspan x="0" y="0">Science</tspan></text>
    <text class="cls-3" transform="translate(39.12 58.17)"><tspan x="0" y="0">Math</tspan></text>
    <text class="cls-3" transform="translate(29.99 79.44)"><tspan x="0" y="0">English</tspan></text>
    <text class="cls-3" transform="translate(15.32 105.8)"><tspan x="0" y="0">Soccer</tspan></text>
  </g>
</svg>