<?xml version="1.0" encoding="utf-8"?>
<!-- Generator: Adobe Illustrator 30.3.0, SVG Export Plug-In . SVG Version: 9.03 Build 0)  -->
<svg version="1.1" id="Layer_1" xmlns="http://www.w3.org/2000/svg" xmlns:xlink="http://www.w3.org/1999/xlink" x="0px" y="0px"
	 viewBox="0 0 40.552 38.471" style="enable-background:new 0 0 40.552 38.471;" xml:space="preserve">
<g>
	<path style="fill:#FFFFFF;" d="M20.276,36.429c9.495,0,17.193-7.698,17.193-17.193c0-9.495-7.698-17.193-17.193-17.193
		S3.083,9.741,3.083,19.236C3.083,28.731,10.781,36.429,20.276,36.429"/>
	<path style="fill:#00ADEE;" d="M20.276,36.429V35.65c4.535,0,8.634-1.836,11.607-4.808c2.972-2.973,4.808-7.072,4.808-11.607
		c0-4.535-1.836-8.634-4.808-11.607c-2.973-2.972-7.072-4.807-11.607-4.808c-4.535,0-8.634,1.836-11.606,4.808
		c-2.972,2.973-4.808,7.072-4.808,11.607c0,4.535,1.836,8.634,4.808,11.607c2.973,2.972,7.071,4.807,11.606,4.808V36.429v0.779
		c-9.925,0-17.971-8.046-17.972-17.971C2.306,9.31,10.351,1.265,20.276,1.264c9.925,0,17.971,8.046,17.972,17.972
		c0,9.925-8.046,17.971-17.972,17.971V36.429z"/>
	<path style="fill:#231F20;" d="M26.242,27.16c-2.937,0-4.26-2.963-4.26-7.673c0-5.503,1.535-8.176,4.286-8.176
		c2.831,0,4.287,2.619,4.287,7.62C30.555,23.562,29.047,27.16,26.242,27.16z M32.672,18.958c0-6.112-2.249-9.313-6.43-9.313
		c-4.207,0-6.376,3.254-6.376,9.499c0,5.927,2.064,9.684,6.403,9.684C30.502,28.827,32.672,24.964,32.672,18.958z M13.728,9.962
		h-1.667c-1.19,1.27-3.043,2.514-4.181,3.281l1.032,1.482c1.825-1.244,2.169-1.588,2.884-2.117v15.849h1.932V9.962z"/>
</g>
<g>
</g>
<g>
</g>
<g>
</g>
<g>
</g>
<g>
</g>
<g>
</g>
<g>
</g>
<g>
</g>
<g>
</g>
<g>
</g>
<g>
</g>
<g>
</g>
<g>
</g>
<g>
</g>
<g>
</g>
</svg>
