<?xml version="1.0" encoding="utf-8"?>
<!-- Generator: Adobe Illustrator 30.3.0, SVG Export Plug-In . SVG Version: 9.03 Build 0)  -->
<svg version="1.1" id="Layer_1" xmlns="http://www.w3.org/2000/svg" xmlns:xlink="http://www.w3.org/1999/xlink" x="0px" y="0px"
	 viewBox="0 0 40.552 38.471" style="enable-background:new 0 0 40.552 38.471;" xml:space="preserve">
<g>
	<path style="fill:#FFFFFF;" d="M20.276,35.936c9.224,0,16.7-7.477,16.7-16.701S29.5,2.535,20.276,2.535
		c-9.224,0-16.701,7.477-16.701,16.701S11.052,35.936,20.276,35.936"/>
	<path style="fill:#00ADEE;" d="M20.276,35.936V35.18c4.406,0,8.387-1.783,11.275-4.67c2.887-2.888,4.669-6.869,4.67-11.275
		c0-4.406-1.783-8.387-4.67-11.275c-2.888-2.887-6.869-4.67-11.275-4.67c-4.406,0-8.387,1.783-11.275,4.67
		c-2.887,2.888-4.669,6.869-4.67,11.275c0,4.406,1.783,8.387,4.67,11.275c2.888,2.887,6.869,4.67,11.275,4.67V35.936v0.756
		c-9.642,0-17.456-7.815-17.457-17.457c0-9.642,7.815-17.456,17.457-17.457c9.642,0.001,17.456,7.815,17.456,17.457
		c0,9.642-7.815,17.456-17.456,17.457V35.936z"/>
	<path style="fill:#231F20;" d="M31.969,26.449h-8.377c3.624-2.673,8.352-7.118,8.352-11.255c0-3.135-1.978-5.268-5.422-5.268
		c-3.084,0-5.062,1.568-5.859,4.574l1.85,0.565c0.668-2.184,2.133-3.392,3.957-3.392c1.953,0,3.341,1.388,3.341,3.443
		c0,3.598-4.574,7.94-9.097,11.435v1.645h11.255V26.449z M14.262,10.234h-1.619c-1.156,1.233-2.955,2.441-4.06,3.186l1.002,1.439
		c1.773-1.208,2.107-1.542,2.801-2.056v15.393h1.876V10.234z"/>
</g>
<g>
</g>
<g>
</g>
<g>
</g>
<g>
</g>
<g>
</g>
<g>
</g>
<g>
</g>
<g>
</g>
<g>
</g>
<g>
</g>
<g>
</g>
<g>
</g>
<g>
</g>
<g>
</g>
<g>
</g>
</svg>
