<?xml version="1.0" encoding="utf-8"?>
<!-- Generator: Adobe Illustrator 30.3.0, SVG Export Plug-In . SVG Version: 9.03 Build 0)  -->
<svg version="1.1" id="Layer_1" xmlns="http://www.w3.org/2000/svg" xmlns:xlink="http://www.w3.org/1999/xlink" x="0px" y="0px"
	 viewBox="0 0 40.552 38.471" style="enable-background:new 0 0 40.552 38.471;" xml:space="preserve">
<g>
	<path style="fill:#FFFFFF;" d="M20.277,36.336c9.444,0,17.1-7.656,17.1-17.1c0-9.445-7.656-17.101-17.1-17.101
		c-9.444,0-17.101,7.656-17.101,17.101C3.176,28.68,10.833,36.336,20.277,36.336"/>
	<path style="fill:#00ADEE;" d="M20.277,36.336v-0.774c4.511,0,8.587-1.826,11.544-4.782c2.956-2.957,4.781-7.033,4.782-11.544
		c0-4.511-1.826-8.588-4.782-11.545c-2.957-2.956-7.033-4.781-11.544-4.782c-4.511,0-8.588,1.826-11.545,4.782
		C5.776,10.648,3.95,14.725,3.95,19.236c0,4.511,1.826,8.587,4.782,11.544c2.957,2.956,7.034,4.781,11.545,4.782V36.336v0.774
		c-9.872-0.001-17.875-8.002-17.875-17.874c0-9.873,8.003-17.874,17.875-17.875c9.872,0,17.874,8.002,17.874,17.875
		c0,9.872-8.002,17.873-17.874,17.874V36.336z"/>
	<polygon style="fill:#231F20;" points="26.247,22.754 24.036,22.754 24.036,14.937 22.194,14.937 22.194,22.754 16.035,22.754 
		22.878,10.778 20.667,10.778 13.771,22.834 13.771,24.65 22.194,24.65 22.194,29.177 24.036,29.177 24.036,24.65 26.247,24.65 	"/>
</g>
<g>
</g>
<g>
</g>
<g>
</g>
<g>
</g>
<g>
</g>
<g>
</g>
<g>
</g>
<g>
</g>
<g>
</g>
<g>
</g>
<g>
</g>
<g>
</g>
<g>
</g>
<g>
</g>
<g>
</g>
</svg>
