<?xml version="1.0" encoding="UTF-8"?>
<svg id="Layer_2" data-name="Layer 2" xmlns="http://www.w3.org/2000/svg" xmlns:xlink="http://www.w3.org/1999/xlink" viewBox="0 0 112.06 83.45">
  <defs>
    <style>
      .cls-1 {
        stroke-miterlimit: 10;
      }

      .cls-1, .cls-2, .cls-3, .cls-4 {
        fill: none;
      }

      .cls-1, .cls-4 {
        stroke: #006a44;
        stroke-width: 1.08px;
      }

      .cls-5, .cls-6, .cls-7, .cls-8, .cls-9 {
        font-family: PoppinsRegularEdited, 'Poppins Regular Edited';
      }

      .cls-5, .cls-7 {
        font-size: 6.5px;
      }

      .cls-5, .cls-8 {
        fill: #ed1c2a;
      }

      .cls-6, .cls-7 {
        fill: #231f20;
      }

      .cls-6, .cls-8 {
        font-size: 6.28px;
      }

      .cls-10 {
        fill: #90c343;
      }

      .cls-11 {
        clip-path: url(#clippath-1);
      }

      .cls-3 {
        stroke: #d2232a;
        stroke-width: 1.16px;
      }

      .cls-12 {
        clip-path: url(#clippath-2);
      }

      .cls-13 {
        clip-path: url(#clippath);
      }

      .cls-9 {
        fill: #fff;
        font-size: 14.8px;
      }
    </style>
    <clipPath id="clippath">
      <path class="cls-2" d="M13.87,1.96S.88,1.96.88,14.43v56.01s0,12.47,13,12.47h84.65s13,0,13-12.47V14.43s0-12.47-13-12.47H13.87Z"/>
    </clipPath>
    <clipPath id="clippath-1">
      <rect class="cls-2" width="112.06" height="83.45"/>
    </clipPath>
    <clipPath id="clippath-2">
      <rect class="cls-2" width="112.06" height="83.45"/>
    </clipPath>
  </defs>
  <g id="Layer_1-2" data-name="Layer 1">
    <g class="cls-13">
      <path class="cls-10" d="M-.45,19.31s101.37-2,127.23,6.78c25.86,8.78-9.74-37.81-9.74-37.81,0,0-20.65-15.39-41.03-15.55-20.39-.15-55.11-8.08-63.93-2.33C3.27-23.85-4.62-25.08-7.51-10.66c-2.89,14.42-.27,21.72.67,23.43.94,1.71,6.39,6.54,6.39,6.54"/>
      <path class="cls-1" d="M-.45,19.31s101.37-2,127.23,6.78c25.86,8.78-9.74-37.81-9.74-37.81,0,0-20.65-15.39-41.03-15.55-20.39-.15-55.11-8.08-63.93-2.33C3.27-23.85-4.62-25.08-7.51-10.66c-2.89,14.42-.27,21.72.67,23.43.94,1.71,6.39,6.54,6.39,6.54Z"/>
    </g>
    <g class="cls-11">
      <path class="cls-4" d="M13.87,1.96S.88,1.96.88,14.43v56.01s0,12.47,12.99,12.47h84.66s12.99,0,12.99-12.47V14.43s0-12.47-12.99-12.47H13.87Z"/>
      <text class="cls-9" transform="translate(26.49 15.53)"><tspan x="0" y="0">AUGUST</tspan></text>
    </g>
    <text class="cls-8" transform="translate(4.54 29.91)"><tspan x="0" y="0">SUN</tspan></text>
    <text class="cls-6" transform="translate(20.21 29.91)"><tspan x="0" y="0">MON</tspan></text>
    <text class="cls-6" transform="translate(36.14 29.91)"><tspan x="0" y="0">TUE</tspan></text>
    <text class="cls-6" transform="translate(49.33 29.91)"><tspan x="0" y="0">WED</tspan></text>
    <text class="cls-6" transform="translate(65.37 29.91)"><tspan x="0" y="0">THU</tspan></text>
    <text class="cls-6" transform="translate(81.77 29.91)"><tspan x="0" y="0">FRI</tspan></text>
    <text class="cls-6" transform="translate(94.72 29.91)"><tspan x="0" y="0">SAT</tspan></text>
    <text class="cls-7" transform="translate(55.42 38.98)"><tspan x="0" y="0">1</tspan></text>
    <text class="cls-7" transform="translate(69.43 38.98)"><tspan x="0" y="0">2</tspan></text>
    <text class="cls-7" transform="translate(84.22 38.98)"><tspan x="0" y="0">3</tspan></text>
    <text class="cls-7" transform="translate(98.92 38.98)"><tspan x="0" y="0">4</tspan></text>
    <text class="cls-5" transform="translate(9.91 47.53)"><tspan x="0" y="0">5</tspan></text>
    <text class="cls-7" transform="translate(24.72 47.53)"><tspan x="0" y="0">6</tspan></text>
    <text class="cls-7" transform="translate(39.85 47.53)"><tspan x="0" y="0">7</tspan></text>
    <text class="cls-7" transform="translate(54.41 47.53)"><tspan x="0" y="0">8</tspan></text>
    <text class="cls-7" transform="translate(69.25 47.53)"><tspan x="0" y="0">9</tspan></text>
    <text class="cls-7" transform="translate(83.05 47.53)"><tspan x="0" y="0">10</tspan></text>
    <text class="cls-7" transform="translate(98.88 47.53)"><tspan x="0" y="0">11</tspan></text>
    <text class="cls-5" transform="translate(9.04 56.08)"><tspan x="0" y="0">12</tspan></text>
    <text class="cls-7" transform="translate(23.83 56.08)"><tspan x="0" y="0">13</tspan></text>
    <text class="cls-7" transform="translate(38.53 56.08)"><tspan x="0" y="0">14</tspan></text>
    <text class="cls-7" transform="translate(53.37 56.08)"><tspan x="0" y="0">15</tspan></text>
    <text class="cls-7" transform="translate(68.18 56.08)"><tspan x="0" y="0">16</tspan></text>
    <text class="cls-7" transform="translate(83.31 56.08)"><tspan x="0" y="0">17</tspan></text>
    <text class="cls-7" transform="translate(97.87 56.08)"><tspan x="0" y="0">18</tspan></text>
    <text class="cls-5" transform="translate(8.86 64.63)"><tspan x="0" y="0">19</tspan></text>
    <text class="cls-7" transform="translate(22.87 64.63)"><tspan x="0" y="0">20</tspan></text>
    <text class="cls-7" transform="translate(38.71 64.63)"><tspan x="0" y="0">21</tspan></text>
    <text class="cls-7" transform="translate(52.71 64.63)"><tspan x="0" y="0">22</tspan></text>
    <text class="cls-7" transform="translate(67.5 64.63)"><tspan x="0" y="0">23</tspan></text>
    <text class="cls-7" transform="translate(82.2 64.63)"><tspan x="0" y="0">24</tspan></text>
    <text class="cls-7" transform="translate(97.04 64.63)"><tspan x="0" y="0">25</tspan></text>
    <g class="cls-12">
      <text class="cls-5" transform="translate(8.03 73.17)"><tspan x="0" y="0">26</tspan></text>
      <text class="cls-7" transform="translate(23.15 73.17)"><tspan x="0" y="0">27</tspan></text>
      <text class="cls-7" transform="translate(37.71 73.17)"><tspan x="0" y="0">28</tspan></text>
      <text class="cls-7" transform="translate(52.55 73.17)"><tspan x="0" y="0">29</tspan></text>
      <text class="cls-7" transform="translate(67.34 73.17)"><tspan x="0" y="0">30</tspan></text>
      <text class="cls-7" transform="translate(83.18 73.17)"><tspan x="0" y="0">31</tspan></text>
      <circle class="cls-3" cx="86.02" cy="36.45" r="3.95"/>
    </g>
  </g>
</svg>