<?xml version="1.0" encoding="UTF-8"?>
<svg id="Layer_2" data-name="Layer 2" xmlns="http://www.w3.org/2000/svg" xmlns:xlink="http://www.w3.org/1999/xlink" viewBox="0 0 111.73 82.03">
  <defs>
    <style>
      .cls-1, .cls-2, .cls-3, .cls-4 {
        fill: none;
      }

      .cls-1, .cls-4 {
        stroke: #006a44;
        stroke-width: 1.03px;
      }

      .cls-5, .cls-6 {
        fill: #ed1c2a;
      }

      .cls-5, .cls-6, .cls-7, .cls-8 {
        font-family: PoppinsRegularEdited, 'Poppins Regular Edited';
      }

      .cls-5, .cls-7 {
        font-size: 6.18px;
      }

      .cls-9 {
        fill: #90c343;
      }

      .cls-6, .cls-8 {
        font-size: 5.97px;
      }

      .cls-10 {
        clip-path: url(#clippath-1);
      }

      .cls-3 {
        stroke: #ed1c2a;
      }

      .cls-7, .cls-8 {
        fill: #231f20;
      }

      .cls-11 {
        clip-path: url(#clippath-2);
      }

      .cls-12 {
        clip-path: url(#clippath);
      }

      .cls-4 {
        stroke-miterlimit: 10;
      }
    </style>
    <clipPath id="clippath">
      <path class="cls-2" d="M13.52.51S.51.51.51,12.99v56.04s0,12.48,13,12.48h84.7s13,0,13-12.48V12.99s0-12.48-13-12.48H13.52Z"/>
    </clipPath>
    <clipPath id="clippath-1">
      <rect class="cls-2" width="111.73" height="82.03"/>
    </clipPath>
    <clipPath id="clippath-2">
      <rect class="cls-2" width="111.73" height="82.03"/>
    </clipPath>
  </defs>
  <g id="Layer_1-2" data-name="Layer 1">
    <g class="cls-12">
      <path class="cls-9" d="M1.96,19.01s96.45-1.9,121.06,6.45c24.61,8.36-9.26-35.97-9.26-35.97,0,0-19.64-14.65-39.04-14.79-19.4-.14-52.44-7.69-60.83-2.22C5.5-22.05-2-23.22-4.75-9.5c-2.75,13.72-.26,20.66.64,22.29.89,1.63,6.08,6.22,6.08,6.22"/>
      <path class="cls-4" d="M1.96,19.01s96.45-1.9,121.06,6.45c24.61,8.36-9.26-35.97-9.26-35.97,0,0-19.64-14.65-39.04-14.79-19.4-.14-52.44-7.69-60.83-2.22C5.5-22.05-2-23.22-4.75-9.5c-2.75,13.72-.26,20.66.64,22.29.89,1.63,6.08,6.22,6.08,6.22Z"/>
    </g>
    <g class="cls-10">
      <path class="cls-1" d="M13.52.51S.51.51.51,12.99v56.04s0,12.48,13,12.48h84.7s13,0,13-12.48V12.99s0-12.48-13-12.48H13.52Z"/>
    </g>
    <text class="cls-6" transform="translate(4.2 28.17)"><tspan x="0" y="0">SUN</tspan></text>
    <text class="cls-8" transform="translate(18.88 28.17)"><tspan x="0" y="0">MON</tspan></text>
    <text class="cls-8" transform="translate(34.8 28.17)"><tspan x="0" y="0">TUE</tspan></text>
    <text class="cls-8" transform="translate(47 28.17)"><tspan x="0" y="0">WED</tspan></text>
    <text class="cls-8" transform="translate(63.04 28.17)"><tspan x="0" y="0">THU</tspan></text>
    <text class="cls-8" transform="translate(78.43 28.17)"><tspan x="0" y="0">FRI</tspan></text>
    <text class="cls-8" transform="translate(91.38 28.17)"><tspan x="0" y="0">SAT</tspan></text>
    <text class="cls-7" transform="translate(57.66 37.23)"><tspan x="0" y="0">1</tspan></text>
    <text class="cls-7" transform="translate(70.98 37.23)"><tspan x="0" y="0">2</tspan></text>
    <text class="cls-7" transform="translate(85.05 37.23)"><tspan x="0" y="0">3</tspan></text>
    <text class="cls-7" transform="translate(99.04 37.23)"><tspan x="0" y="0">4</tspan></text>
    <text class="cls-5" transform="translate(14.35 45.36)"><tspan x="0" y="0">5</tspan></text>
    <text class="cls-7" transform="translate(28.45 45.36)"><tspan x="0" y="0">6</tspan></text>
    <text class="cls-7" transform="translate(42.84 45.36)"><tspan x="0" y="0">7</tspan></text>
    <text class="cls-7" transform="translate(56.69 45.36)"><tspan x="0" y="0">8</tspan></text>
    <text class="cls-7" transform="translate(70.81 45.36)"><tspan x="0" y="0">9</tspan></text>
    <text class="cls-7" transform="translate(83.94 45.36)"><tspan x="0" y="0">10</tspan></text>
    <text class="cls-7" transform="translate(99.01 45.36)"><tspan x="0" y="0">11</tspan></text>
    <text class="cls-5" transform="translate(13.52 53.5)"><tspan x="0" y="0">12</tspan></text>
    <text class="cls-7" transform="translate(27.59 53.5)"><tspan x="0" y="0">13</tspan></text>
    <text class="cls-7" transform="translate(41.58 53.5)"><tspan x="0" y="0">14</tspan></text>
    <text class="cls-7" transform="translate(55.7 53.5)"><tspan x="0" y="0">15</tspan></text>
    <text class="cls-7" transform="translate(69.8 53.5)"><tspan x="0" y="0">16</tspan></text>
    <text class="cls-7" transform="translate(84.19 53.5)"><tspan x="0" y="0">17</tspan></text>
    <text class="cls-7" transform="translate(98.04 53.5)"><tspan x="0" y="0">18</tspan></text>
    <text class="cls-5" transform="translate(13.36 61.63)"><tspan x="0" y="0">19</tspan></text>
    <text class="cls-7" transform="translate(26.69 61.63)"><tspan x="0" y="0">20</tspan></text>
    <text class="cls-7" transform="translate(41.76 61.63)"><tspan x="0" y="0">21</tspan></text>
    <text class="cls-7" transform="translate(55.08 61.63)"><tspan x="0" y="0">22</tspan></text>
    <text class="cls-7" transform="translate(69.15 61.63)"><tspan x="0" y="0">23</tspan></text>
    <text class="cls-7" transform="translate(83.14 61.63)"><tspan x="0" y="0">24</tspan></text>
    <text class="cls-7" transform="translate(97.26 61.63)"><tspan x="0" y="0">25</tspan></text>
    <g class="cls-11">
      <text class="cls-5" transform="translate(12.56 69.76)"><tspan x="0" y="0">26</tspan></text>
      <text class="cls-7" transform="translate(26.95 69.76)"><tspan x="0" y="0">27</tspan></text>
      <text class="cls-7" transform="translate(40.81 69.76)"><tspan x="0" y="0">28</tspan></text>
      <text class="cls-7" transform="translate(54.92 69.76)"><tspan x="0" y="0">29</tspan></text>
      <text class="cls-7" transform="translate(69 69.76)"><tspan x="0" y="0">30</tspan></text>
      <text class="cls-7" transform="translate(84.07 69.76)"><tspan x="0" y="0">31</tspan></text>
      <path class="cls-3" d="M30.39,46.64c1.88,0,3.4-1.52,3.4-3.4s-1.52-3.4-3.4-3.4-3.4,1.53-3.4,3.4,1.52,3.4,3.4,3.4Z"/>
    </g>
  </g>
</svg>