<?xml version="1.0" encoding="UTF-8"?>
<svg id="Layer_2" data-name="Layer 2" xmlns="http://www.w3.org/2000/svg" xmlns:xlink="http://www.w3.org/1999/xlink" viewBox="0 0 111.73 82.03">
  <defs>
    <style>
      .cls-1, .cls-2 {
        font-size: 5.97px;
      }

      .cls-1, .cls-2, .cls-3, .cls-4 {
        font-family: MyriadPro-Regular, 'Myriad Pro';
      }

      .cls-1, .cls-3 {
        fill: #ed1c2a;
      }

      .cls-5, .cls-6, .cls-7 {
        fill: none;
      }

      .cls-5, .cls-7 {
        stroke: #006a44;
        stroke-width: 1.03px;
      }

      .cls-2, .cls-4 {
        fill: #231f20;
      }

      .cls-8 {
        letter-spacing: .02em;
      }

      .cls-9 {
        fill: #90c343;
      }

      .cls-10 {
        letter-spacing: .02em;
      }

      .cls-11 {
        letter-spacing: -.06em;
      }

      .cls-12 {
        letter-spacing: 0em;
      }

      .cls-13 {
        clip-path: url(#clippath-1);
      }

      .cls-14 {
        letter-spacing: .02em;
      }

      .cls-15 {
        letter-spacing: .02em;
      }

      .cls-3, .cls-4 {
        font-size: 6.18px;
      }

      .cls-16 {
        clip-path: url(#clippath);
      }

      .cls-7 {
        stroke-miterlimit: 10;
      }
    </style>
    <clipPath id="clippath">
      <path class="cls-6" d="M13.52.51S.51.51.51,12.99v56.04s0,12.48,13,12.48h84.7s13,0,13-12.48V12.99s0-12.48-13-12.48H13.52Z"/>
    </clipPath>
    <clipPath id="clippath-1">
      <rect class="cls-6" width="111.73" height="82.03"/>
    </clipPath>
  </defs>
  <g id="Layer_1-2" data-name="Layer 1">
    <g class="cls-16">
      <path class="cls-9" d="M1.96,19.01s96.45-1.9,121.06,6.45c24.61,8.36-9.26-35.97-9.26-35.97,0,0-19.64-14.65-39.04-14.79-19.4-.14-52.44-7.69-60.83-2.22C5.5-22.05-2-23.22-4.75-9.5c-2.75,13.72-.26,20.66.64,22.29.89,1.63,6.08,6.22,6.08,6.22"/>
      <path class="cls-7" d="M1.96,19.01s96.45-1.9,121.06,6.45c24.61,8.36-9.26-35.97-9.26-35.97,0,0-19.64-14.65-39.04-14.79-19.4-.14-52.44-7.69-60.83-2.22C5.5-22.05-2-23.22-4.75-9.5c-2.75,13.72-.26,20.66.64,22.29.89,1.63,6.08,6.22,6.08,6.22Z"/>
    </g>
    <g class="cls-13">
      <path class="cls-5" d="M13.52.51S.51.51.51,12.99v56.04s0,12.48,13,12.48h84.7s13,0,13-12.48V12.99s0-12.48-13-12.48H13.52Z"/>
    </g>
    <text class="cls-1" transform="translate(4.26 26.38)"><tspan class="cls-15" x="0" y="0">SU</tspan><tspan class="cls-12" x="7.05" y="0">N</tspan></text>
    <text class="cls-2" transform="translate(18.94 26.38)"><tspan class="cls-14" x="0" y="0">M</tspan><tspan class="cls-10" x="4.92" y="0">O</tspan><tspan x="9.15" y="0">N</tspan></text>
    <text class="cls-2" transform="translate(34.86 26.38)"><tspan class="cls-10" x="0" y="0">T</tspan><tspan class="cls-14" x="3.08" y="0">U</tspan><tspan x="7.07" y="0">E</tspan></text>
    <text class="cls-2" transform="translate(47.06 26.38)"><tspan class="cls-14" x="0" y="0">WE</tspan><tspan x="8.23" y="0">D</tspan></text>
    <text class="cls-2" transform="translate(63.1 26.38)"><tspan class="cls-10" x="0" y="0">TH</tspan><tspan x="7.09" y="0">U</tspan></text>
    <text class="cls-2" transform="translate(78.49 26.38)"><tspan class="cls-8" x="0" y="0">F</tspan><tspan class="cls-15" x="3.02" y="0">R</tspan><tspan class="cls-12" x="6.36" y="0">I</tspan></text>
    <text class="cls-2" transform="translate(91.44 26.38)"><tspan class="cls-10" x="0" y="0">S</tspan><tspan class="cls-11" x="3.06" y="0">A</tspan><tspan x="6.38" y="0">T</tspan></text>
    <text class="cls-4" transform="translate(57.06 35.37)"><tspan x="0" y="0">1</tspan></text>
    <text class="cls-4" transform="translate(71.17 35.37)"><tspan x="0" y="0">2</tspan></text>
    <text class="cls-4" transform="translate(85.29 35.37)"><tspan x="0" y="0">3</tspan></text>
    <text class="cls-4" transform="translate(99.4 35.37)"><tspan x="0" y="0">4</tspan></text>
    <text class="cls-3" transform="translate(14.71 43.51)"><tspan x="0" y="0">5</tspan></text>
    <text class="cls-4" transform="translate(28.82 43.51)"><tspan x="0" y="0">6</tspan></text>
    <text class="cls-4" transform="translate(42.94 43.51)"><tspan x="0" y="0">7</tspan></text>
    <text class="cls-4" transform="translate(57.05 43.51)"><tspan x="0" y="0">8</tspan></text>
    <text class="cls-4" transform="translate(71.16 43.51)"><tspan x="0" y="0">9</tspan></text>
    <text class="cls-4" transform="translate(83.69 43.51)"><tspan x="0" y="0">10</tspan></text>
    <text class="cls-4" transform="translate(97.8 43.51)"><tspan x="0" y="0">11</tspan></text>
    <text class="cls-3" transform="translate(13.11 51.64)"><tspan x="0" y="0">12</tspan></text>
    <text class="cls-4" transform="translate(27.23 51.64)"><tspan x="0" y="0">13</tspan></text>
    <text class="cls-4" transform="translate(41.34 51.64)"><tspan x="0" y="0">14</tspan></text>
    <text class="cls-4" transform="translate(55.45 51.64)"><tspan x="0" y="0">15</tspan></text>
    <text class="cls-4" transform="translate(69.57 51.64)"><tspan x="0" y="0">16</tspan></text>
    <text class="cls-4" transform="translate(83.68 51.64)"><tspan x="0" y="0">17</tspan></text>
    <text class="cls-4" transform="translate(97.79 51.64)"><tspan x="0" y="0">18</tspan></text>
    <text class="cls-3" transform="translate(13.1 59.78)"><tspan x="0" y="0">19</tspan></text>
    <text class="cls-4" transform="translate(27.21 59.78)"><tspan x="0" y="0">20</tspan></text>
    <text class="cls-4" transform="translate(41.33 59.78)"><tspan x="0" y="0">21</tspan></text>
    <text class="cls-4" transform="translate(55.44 59.78)"><tspan x="0" y="0">22</tspan></text>
    <text class="cls-4" transform="translate(69.55 59.78)"><tspan x="0" y="0">23</tspan></text>
    <text class="cls-4" transform="translate(83.67 59.78)"><tspan x="0" y="0">24</tspan></text>
    <text class="cls-4" transform="translate(97.78 59.78)"><tspan x="0" y="0">25</tspan></text>
    <text class="cls-3" transform="translate(13.09 67.91)"><tspan x="0" y="0">26</tspan></text>
    <text class="cls-4" transform="translate(27.2 67.91)"><tspan x="0" y="0">27</tspan></text>
    <text class="cls-4" transform="translate(41.32 67.91)"><tspan x="0" y="0">28</tspan></text>
    <text class="cls-4" transform="translate(55.43 67.91)"><tspan x="0" y="0">29</tspan></text>
    <text class="cls-4" transform="translate(69.54 67.91)"><tspan x="0" y="0">30</tspan></text>
    <text class="cls-4" transform="translate(83.65 67.91)"><tspan x="0" y="0">31</tspan></text>
  </g>
</svg>