<?xml version="1.0" encoding="UTF-8"?>
<svg id="Layer_2" data-name="Layer 2" xmlns="http://www.w3.org/2000/svg" xmlns:xlink="http://www.w3.org/1999/xlink" viewBox="0 0 104.48 267.61">
  <defs>
    <style>
      .cls-1 {
        clip-path: url(#clippath-6);
      }

      .cls-2 {
        stroke: #231f20;
        stroke-width: .6px;
      }

      .cls-2, .cls-3 {
        fill: none;
      }

      .cls-4 {
        clip-path: url(#clippath-4);
      }

      .cls-5 {
        fill: #231f20;
      }

      .cls-6 {
        fill: #bb4f9d;
      }

      .cls-6, .cls-7, .cls-8 {
        font-size: 32.6px;
      }

      .cls-6, .cls-7, .cls-8, .cls-9, .cls-10, .cls-11, .cls-12 {
        font-family: PoppinsRegularEdited, 'Poppins Regular Edited';
      }

      .cls-7 {
        fill: #2a5caa;
      }

      .cls-8, .cls-10 {
        fill: #90c343;
      }

      .cls-13 {
        clip-path: url(#clippath-1);
      }

      .cls-9 {
        fill: #d2232a;
      }

      .cls-9, .cls-10 {
        font-size: 32.6px;
      }

      .cls-14 {
        clip-path: url(#clippath-5);
      }

      .cls-15 {
        clip-path: url(#clippath-3);
      }

      .cls-11 {
        fill: #25408f;
      }

      .cls-11, .cls-12 {
        font-size: 32.6px;
      }

      .cls-16 {
        clip-path: url(#clippath-2);
      }

      .cls-17 {
        clip-path: url(#clippath);
      }

      .cls-12 {
        fill: #f28021;
      }
    </style>
    <clipPath id="clippath">
      <rect class="cls-3" width="104.48" height="267.61"/>
    </clipPath>
    <clipPath id="clippath-1">
      <rect class="cls-3" width="104.48" height="267.61"/>
    </clipPath>
    <clipPath id="clippath-2">
      <rect class="cls-3" width="104.48" height="267.61"/>
    </clipPath>
    <clipPath id="clippath-3">
      <rect class="cls-3" width="104.48" height="267.61"/>
    </clipPath>
    <clipPath id="clippath-4">
      <rect class="cls-3" width="104.48" height="267.61"/>
    </clipPath>
    <clipPath id="clippath-5">
      <rect class="cls-3" width="104.48" height="267.61"/>
    </clipPath>
    <clipPath id="clippath-6">
      <rect class="cls-3" width="104.48" height="267.61"/>
    </clipPath>
  </defs>
  <g id="Layer_1-2" data-name="Layer 1">
    <g>
      <g class="cls-17">
        <rect class="cls-2" x="56.83" y="3.26" width="43.01" height="36.9" rx="7.17" ry="7.17"/>
      </g>
      <text class="cls-7" transform="translate(75.19 38.24) rotate(-10)"><tspan x="0" y="0">1</tspan></text>
      <g>
        <path class="cls-5" d="M70.01,5.09v1.83h-.14c-.05-.35-.13-.63-.25-.84s-.29-.37-.52-.5-.46-.18-.7-.18c-.27,0-.49.08-.67.25s-.27.35-.27.56c0,.16.06.31.17.44.16.2.55.46,1.15.78.49.27.83.47,1.01.61s.32.31.42.5.15.39.15.61c0,.4-.16.75-.47,1.04s-.71.44-1.2.44c-.15,0-.3-.01-.43-.04-.08-.01-.25-.06-.5-.14s-.41-.12-.48-.12-.12.02-.15.06-.07.12-.08.24h-.14v-1.82h.14c.07.38.16.67.27.85s.29.35.53.47.49.19.78.19c.33,0,.58-.09.77-.26s.28-.38.28-.61c0-.13-.04-.26-.11-.39s-.18-.26-.33-.37c-.1-.08-.38-.24-.83-.5s-.78-.46-.97-.61-.34-.32-.44-.5-.15-.38-.15-.6c0-.38.15-.71.44-.98s.66-.41,1.11-.41c.28,0,.58.07.89.21.15.07.25.1.31.1.07,0,.12-.02.17-.06s.08-.12.1-.24h.14Z"/>
        <path class="cls-5" d="M74.18,6.93v2.17c0,.41,0,.67.03.76s.05.16.09.19.09.05.15.05c.08,0,.17-.02.27-.07l.05.14-1.07.44h-.18v-.76c-.31.33-.54.54-.7.63s-.33.13-.51.13c-.2,0-.37-.06-.52-.17s-.25-.26-.31-.45-.09-.44-.09-.77v-1.6c0-.17-.02-.29-.05-.35s-.09-.12-.16-.15-.2-.05-.39-.05v-.14h1.25v2.39c0,.33.06.55.17.66s.26.16.42.16c.11,0,.24-.04.38-.11s.31-.2.51-.4v-2.03c0-.2-.04-.34-.11-.41s-.23-.11-.46-.12v-.14h1.22Z"/>
        <path class="cls-5" d="M76.08,7.58c.42-.5.82-.76,1.2-.76.2,0,.36.05.5.15s.25.26.34.48c.06.16.09.4.09.72v1.53c0,.23.02.38.05.46.03.07.07.12.14.15s.18.05.35.05v.14h-1.77v-.14h.07c.17,0,.28-.03.35-.08s.11-.13.14-.22c.01-.04.02-.16.02-.37v-1.46c0-.33-.04-.56-.13-.71s-.23-.22-.43-.22c-.31,0-.62.17-.93.51v1.89c0,.24.01.39.04.45.04.08.09.13.15.17s.19.05.39.05v.14h-1.77v-.14h.08c.18,0,.31-.05.37-.14s.1-.27.1-.53v-1.33c0-.43,0-.69-.03-.79s-.05-.16-.09-.19-.09-.05-.16-.05c-.07,0-.16.02-.26.06l-.06-.14,1.08-.44h.17v.76Z"/>
        <path class="cls-5" d="M81.57,10.11c-.17.18-.35.31-.51.39s-.35.12-.54.12c-.39,0-.73-.16-1.02-.49s-.44-.75-.44-1.26.16-.98.48-1.41.74-.64,1.25-.64c.31,0,.58.1.78.3v-.66c0-.41,0-.66-.03-.75s-.05-.16-.09-.19-.09-.05-.16-.05c-.07,0-.16.02-.27.06l-.05-.14,1.07-.44h.18v4.14c0,.42,0,.67.03.77s.05.16.09.19.09.05.15.05c.07,0,.16-.02.28-.07l.04.14-1.06.44h-.18v-.51ZM81.57,9.83v-1.84c-.02-.18-.06-.34-.14-.48s-.18-.26-.31-.33-.25-.11-.38-.11c-.23,0-.43.1-.61.31-.24.27-.36.67-.36,1.19s.11.93.34,1.21.48.42.77.42c.24,0,.47-.12.69-.36Z"/>
        <path class="cls-5" d="M85.07,9.99c-.37.28-.6.45-.69.49-.14.07-.29.1-.45.1-.25,0-.45-.08-.61-.25s-.24-.39-.24-.67c0-.17.04-.33.12-.45.11-.18.29-.34.56-.5s.7-.35,1.32-.57v-.14c0-.36-.06-.6-.17-.73s-.28-.2-.49-.2c-.16,0-.29.04-.39.13-.1.09-.15.19-.15.3v.23c0,.12-.02.21-.08.28s-.14.1-.24.1-.18-.03-.24-.1-.09-.16-.09-.28c0-.22.11-.43.34-.62s.55-.28.96-.28c.32,0,.58.05.78.16.15.08.27.21.34.38.05.11.07.34.07.69v1.21c0,.34,0,.55.02.63s.03.13.06.15.06.04.1.04c.04,0,.08,0,.11-.03.05-.03.16-.13.32-.29v.22c-.29.39-.57.59-.84.59-.13,0-.23-.04-.3-.13s-.11-.24-.12-.45ZM85.07,9.74v-1.36c-.39.16-.65.27-.76.33-.21.11-.35.23-.44.36s-.13.26-.13.41c0,.19.06.34.17.47s.24.19.39.19c.2,0,.46-.13.78-.39Z"/>
        <path class="cls-5" d="M86.39,6.93h1.67v.14h-.08c-.12,0-.21.03-.26.08s-.09.11-.09.19c0,.1.04.24.13.42l.87,1.8.8-1.98c.04-.11.07-.21.07-.32,0-.05,0-.08-.03-.11-.02-.03-.05-.05-.1-.07s-.12-.03-.23-.03v-.14h1.16v.14c-.1.01-.17.03-.22.06s-.11.09-.17.18c-.02.04-.07.14-.13.3l-1.46,3.57c-.14.35-.32.61-.55.79s-.45.27-.66.27c-.15,0-.28-.04-.38-.13s-.15-.19-.15-.3.04-.2.11-.26.17-.1.29-.1c.09,0,.2.03.35.09.1.04.17.06.2.06.08,0,.16-.04.26-.12s.19-.24.28-.47l.25-.62-1.29-2.7c-.04-.08-.1-.18-.19-.3-.06-.09-.12-.15-.16-.18-.06-.04-.16-.08-.29-.11v-.14Z"/>
      </g>
      <g class="cls-13">
        <rect class="cls-2" x="15.35" y="39.86" width="43.01" height="36.9" rx="7.17" ry="7.17"/>
      </g>
      <text class="cls-9" transform="translate(25.22 70.28) rotate(16)"><tspan x="0" y="0">2</tspan></text>
      <g>
        <path class="cls-5" d="M26.8,47.1l-2.05-4.46v3.54c0,.33.04.53.11.61.1.11.25.16.46.16h.19v.14h-1.84v-.14h.19c.22,0,.38-.07.48-.2.06-.08.09-.27.09-.57v-3.46c0-.23-.03-.4-.08-.51-.04-.08-.1-.14-.2-.19s-.25-.08-.47-.08v-.14h1.5l1.92,4.14,1.89-4.14h1.5v.14h-.18c-.23,0-.39.07-.48.2-.06.08-.09.27-.09.57v3.46c0,.33.04.53.11.61.1.11.25.16.46.16h.18v.14h-2.25v-.14h.19c.23,0,.39-.07.48-.2.06-.08.09-.27.09-.57v-3.54l-2.04,4.46h-.13Z"/>
        <path class="cls-5" d="M32.64,43.42c.54,0,.98.21,1.3.62.28.35.42.75.42,1.21,0,.32-.08.64-.23.97s-.37.58-.63.74-.57.25-.9.25c-.54,0-.97-.21-1.29-.64-.27-.36-.4-.77-.4-1.22,0-.33.08-.65.24-.98s.38-.56.64-.72.55-.23.84-.23ZM32.52,43.67c-.14,0-.28.04-.42.12s-.25.23-.34.43-.13.47-.13.79c0,.52.1.97.31,1.35s.48.57.82.57c.25,0,.46-.1.62-.31s.25-.57.25-1.07c0-.64-.14-1.14-.41-1.5-.19-.25-.42-.38-.71-.38Z"/>
        <path class="cls-5" d="M35.93,44.18c.42-.5.82-.76,1.2-.76.2,0,.36.05.5.15s.25.26.34.48c.06.16.09.4.09.72v1.53c0,.23.02.38.05.46.03.07.07.12.14.15s.18.05.35.05v.14h-1.77v-.14h.07c.17,0,.28-.03.35-.08s.11-.13.14-.22c.01-.04.02-.16.02-.37v-1.46c0-.33-.04-.56-.13-.71s-.23-.22-.43-.22c-.31,0-.62.17-.93.51v1.89c0,.24.01.39.04.45.04.08.09.13.15.17s.19.05.39.05v.14h-1.77v-.14h.08c.18,0,.31-.05.37-.14s.1-.27.1-.53v-1.33c0-.43,0-.69-.03-.79s-.05-.16-.09-.19-.09-.05-.16-.05c-.07,0-.16.02-.26.06l-.06-.14,1.08-.44h.17v.76Z"/>
        <path class="cls-5" d="M41.42,46.7c-.17.18-.35.31-.51.39s-.35.12-.54.12c-.39,0-.73-.16-1.02-.49s-.44-.75-.44-1.26.16-.98.48-1.41.74-.64,1.25-.64c.31,0,.58.1.78.3v-.66c0-.41,0-.66-.03-.75s-.05-.16-.09-.19-.09-.05-.16-.05c-.07,0-.16.02-.27.06l-.05-.14,1.07-.44h.18v4.14c0,.42,0,.67.03.77s.05.16.09.19.09.05.15.05c.07,0,.16-.02.28-.07l.04.14-1.06.44h-.18v-.51ZM41.42,46.43v-1.84c-.02-.18-.06-.34-.14-.48s-.18-.26-.31-.33-.25-.11-.38-.11c-.23,0-.43.1-.61.31-.24.27-.36.67-.36,1.19s.11.93.34,1.21.48.42.77.42c.24,0,.47-.12.69-.36Z"/>
        <path class="cls-5" d="M44.92,46.59c-.37.28-.6.45-.69.49-.14.07-.29.1-.45.1-.25,0-.45-.08-.61-.25s-.24-.39-.24-.67c0-.17.04-.33.12-.45.11-.18.29-.34.56-.5s.7-.35,1.32-.57v-.14c0-.36-.06-.6-.17-.73s-.28-.2-.49-.2c-.16,0-.29.04-.39.13-.1.09-.15.19-.15.3v.23c0,.12-.02.21-.08.28s-.14.1-.24.1-.18-.03-.24-.1-.09-.16-.09-.28c0-.22.11-.43.34-.62s.55-.28.96-.28c.32,0,.58.05.78.16.15.08.27.21.34.38.05.11.07.34.07.69v1.21c0,.34,0,.55.02.63s.03.13.06.15.06.04.1.04c.04,0,.08,0,.11-.03.05-.03.16-.13.32-.29v.22c-.29.39-.57.59-.84.59-.13,0-.23-.04-.3-.13s-.11-.24-.12-.45ZM44.92,46.33v-1.36c-.39.16-.65.27-.76.33-.21.11-.35.23-.44.36s-.13.26-.13.41c0,.19.06.34.17.47s.24.19.39.19c.2,0,.46-.13.78-.39Z"/>
        <path class="cls-5" d="M46.24,43.53h1.67v.14h-.08c-.12,0-.21.03-.26.08s-.09.11-.09.19c0,.1.04.24.13.42l.87,1.8.8-1.98c.04-.11.07-.21.07-.32,0-.05,0-.08-.03-.11-.02-.03-.05-.05-.1-.07s-.12-.03-.23-.03v-.14h1.16v.14c-.1.01-.17.03-.22.06s-.11.09-.17.18c-.02.04-.07.14-.13.3l-1.46,3.57c-.14.35-.32.61-.55.79s-.45.27-.66.27c-.15,0-.28-.04-.38-.13s-.15-.19-.15-.3.04-.2.11-.26.17-.1.29-.1c.09,0,.2.03.35.09.1.04.17.06.2.06.08,0,.16-.04.26-.12s.19-.24.28-.47l.25-.62-1.29-2.7c-.04-.08-.1-.18-.19-.3-.06-.09-.12-.15-.16-.18-.06-.04-.16-.08-.29-.11v-.14Z"/>
      </g>
      <g class="cls-16">
        <rect class="cls-2" x="56.83" y="76.45" width="43.01" height="36.9" rx="7.17" ry="7.17"/>
      </g>
      <text class="cls-8" transform="translate(71.41 112.78) rotate(-10)"><tspan x="0" y="0">3</tspan></text>
      <g>
        <path class="cls-5" d="M69.56,78.4l.06,1.24h-.15c-.03-.22-.07-.38-.12-.47-.08-.15-.19-.26-.32-.33s-.31-.11-.53-.11h-.75v4.05c0,.33.04.53.11.61.1.11.25.16.46.16h.18v.14h-2.25v-.14h.19c.22,0,.38-.07.48-.2.06-.08.09-.27.09-.57v-4.05h-.64c-.25,0-.42.02-.53.05-.14.05-.25.14-.35.29s-.15.33-.17.57h-.15l.06-1.24h4.32Z"/>
        <path class="cls-5" d="M72.92,80.12v2.17c0,.41,0,.67.03.76s.05.16.09.19.09.05.15.05c.08,0,.17-.02.27-.07l.05.14-1.07.44h-.18v-.76c-.31.33-.54.54-.7.63s-.33.13-.51.13c-.2,0-.37-.06-.52-.17s-.25-.26-.31-.45-.09-.44-.09-.77v-1.6c0-.17-.02-.29-.05-.35s-.09-.12-.16-.15-.2-.05-.39-.05v-.14h1.25v2.39c0,.33.06.55.17.66s.26.16.42.16c.11,0,.24-.04.38-.11s.31-.2.51-.4v-2.03c0-.2-.04-.34-.11-.41s-.23-.11-.46-.12v-.14h1.22Z"/>
        <path class="cls-5" d="M74.39,81.47c0,.53.13.95.39,1.25s.57.45.92.45c.23,0,.44-.06.61-.19s.32-.35.44-.66l.12.08c-.05.36-.21.68-.48.97s-.59.44-.99.44c-.43,0-.8-.17-1.1-.5s-.46-.78-.46-1.35c0-.61.16-1.09.47-1.43s.71-.51,1.18-.51c.4,0,.73.13.99.4s.39.62.39,1.06h-2.47ZM74.39,81.24h1.66c-.01-.23-.04-.39-.08-.48-.06-.15-.16-.26-.29-.34s-.26-.12-.4-.12c-.22,0-.41.08-.58.25s-.27.4-.3.7Z"/>
        <path class="cls-5" d="M79.65,80.01v1.22h-.13c-.1-.38-.23-.64-.38-.78s-.35-.21-.59-.21c-.18,0-.33.05-.44.14s-.17.2-.17.32c0,.15.04.27.12.38.08.11.24.22.49.34l.57.28c.53.26.79.6.79,1.02,0,.33-.12.59-.37.79s-.52.3-.83.3c-.22,0-.47-.04-.75-.12-.09-.03-.16-.04-.21-.04-.06,0-.11.03-.14.1h-.13v-1.28h.13c.07.36.21.64.42.82s.44.28.69.28c.18,0,.33-.05.44-.16s.17-.23.17-.38c0-.18-.06-.33-.19-.45s-.38-.28-.76-.46-.62-.36-.74-.51c-.12-.15-.18-.34-.18-.56,0-.29.1-.54.3-.74s.46-.3.78-.3c.14,0,.31.03.51.09.13.04.22.06.27.06.04,0,.07,0,.1-.03s.05-.06.08-.12h.13Z"/>
        <path class="cls-5" d="M82.98,83.3c-.17.18-.35.31-.51.39s-.35.12-.54.12c-.39,0-.73-.16-1.02-.49s-.44-.75-.44-1.26.16-.98.48-1.41.74-.64,1.25-.64c.31,0,.58.1.78.3v-.66c0-.41,0-.66-.03-.75s-.05-.16-.09-.19-.09-.05-.16-.05c-.07,0-.16.02-.27.06l-.05-.14,1.07-.44h.18v4.14c0,.42,0,.67.03.77s.05.16.09.19.09.05.15.05c.07,0,.16-.02.28-.07l.04.14-1.06.44h-.18v-.51ZM82.98,83.02v-1.84c-.02-.18-.06-.34-.14-.48s-.18-.26-.31-.33-.25-.11-.38-.11c-.23,0-.43.1-.61.31-.24.27-.36.67-.36,1.19s.11.93.34,1.21.48.42.77.42c.24,0,.47-.12.69-.36Z"/>
        <path class="cls-5" d="M86.48,83.18c-.37.28-.6.45-.69.49-.14.07-.29.1-.45.1-.25,0-.45-.08-.61-.25s-.24-.39-.24-.67c0-.17.04-.33.12-.45.11-.18.29-.34.56-.5s.7-.35,1.32-.57v-.14c0-.36-.06-.6-.17-.73s-.28-.2-.49-.2c-.16,0-.29.04-.39.13-.1.09-.15.19-.15.3v.23c0,.12-.02.21-.08.28s-.14.1-.24.1-.18-.03-.24-.1-.09-.16-.09-.28c0-.22.11-.43.34-.62s.55-.28.96-.28c.32,0,.58.05.78.16.15.08.27.21.34.38.05.11.07.34.07.69v1.21c0,.34,0,.55.02.63s.03.13.06.15.06.04.1.04c.04,0,.08,0,.11-.03.05-.03.16-.13.32-.29v.22c-.29.39-.57.59-.84.59-.13,0-.23-.04-.3-.13s-.11-.24-.12-.45ZM86.48,82.93v-1.36c-.39.16-.65.27-.76.33-.21.11-.35.23-.44.36s-.13.26-.13.41c0,.19.06.34.17.47s.24.19.39.19c.2,0,.46-.13.78-.39Z"/>
        <path class="cls-5" d="M87.8,80.12h1.67v.14h-.08c-.12,0-.21.03-.26.08s-.09.11-.09.19c0,.1.04.24.13.42l.87,1.8.8-1.98c.04-.11.07-.21.07-.32,0-.05,0-.08-.03-.11-.02-.03-.05-.05-.1-.07s-.12-.03-.23-.03v-.14h1.16v.14c-.1.01-.17.03-.22.06s-.11.09-.17.18c-.02.04-.07.14-.13.3l-1.46,3.57c-.14.35-.32.61-.55.79s-.45.27-.66.27c-.15,0-.28-.04-.38-.13s-.15-.19-.15-.3.04-.2.11-.26.17-.1.29-.1c.09,0,.2.03.35.09.1.04.17.06.2.06.08,0,.16-.04.26-.12s.19-.24.28-.47l.25-.62-1.29-2.7c-.04-.08-.1-.18-.19-.3-.06-.09-.12-.15-.16-.18-.06-.04-.16-.08-.29-.11v-.14Z"/>
      </g>
      <g class="cls-15">
        <rect class="cls-2" x="15.35" y="113.05" width="43.01" height="36.9" rx="7.17" ry="7.17"/>
      </g>
      <text class="cls-6" transform="translate(28.75 149.09) rotate(-10)"><tspan x="0" y="0">4</tspan></text>
      <g>
        <path class="cls-5" d="M26.01,115v.14c-.14,0-.25.02-.34.07s-.17.14-.25.28c-.05.09-.13.31-.25.65l-1.48,4.27h-.16l-1.21-3.39-1.2,3.39h-.14l-1.57-4.4c-.12-.33-.19-.52-.22-.58-.05-.1-.12-.17-.21-.22s-.21-.07-.37-.07v-.14h1.96v.14h-.09c-.14,0-.24.03-.32.09s-.11.14-.11.23.06.3.17.63l1.04,2.97.88-2.53-.16-.45-.12-.36c-.05-.13-.12-.25-.18-.34-.03-.05-.08-.09-.12-.12-.06-.05-.13-.08-.2-.1-.05-.02-.13-.02-.23-.02v-.14h2.06v.14h-.14c-.15,0-.25.03-.32.09s-.1.15-.1.25c0,.13.06.36.18.7l1.02,2.88,1.01-2.92c.11-.32.17-.55.17-.67,0-.06-.02-.12-.06-.17s-.09-.09-.14-.11c-.1-.04-.23-.05-.39-.05v-.14h1.58Z"/>
        <path class="cls-5" d="M26.28,118.06c0,.53.13.95.39,1.25s.57.45.92.45c.23,0,.44-.06.61-.19s.32-.35.44-.66l.12.08c-.05.36-.21.68-.48.97s-.59.44-.99.44c-.43,0-.8-.17-1.1-.5s-.46-.78-.46-1.35c0-.61.16-1.09.47-1.43s.71-.51,1.18-.51c.4,0,.73.13.99.4s.39.62.39,1.06h-2.47ZM26.28,117.84h1.66c-.01-.23-.04-.39-.08-.48-.06-.15-.16-.26-.29-.34s-.26-.12-.4-.12c-.22,0-.41.08-.58.25s-.27.4-.3.7Z"/>
        <path class="cls-5" d="M31.76,119.89c-.17.18-.35.31-.51.39s-.35.12-.54.12c-.39,0-.73-.16-1.02-.49s-.44-.75-.44-1.26.16-.98.48-1.41.74-.64,1.25-.64c.31,0,.58.1.78.3v-.66c0-.41,0-.66-.03-.75s-.05-.16-.09-.19-.09-.05-.16-.05c-.07,0-.16.02-.27.06l-.05-.14,1.07-.44h.18v4.14c0,.42,0,.67.03.77s.05.16.09.19.09.05.15.05c.07,0,.16-.02.28-.07l.04.14-1.06.44h-.18v-.51ZM31.76,119.62v-1.84c-.02-.18-.06-.34-.14-.48s-.18-.26-.31-.33-.25-.11-.38-.11c-.23,0-.43.1-.61.31-.24.27-.36.67-.36,1.19s.11.93.34,1.21.48.42.77.42c.24,0,.47-.12.69-.36Z"/>
        <path class="cls-5" d="M34.27,117.37c.42-.5.82-.76,1.2-.76.2,0,.36.05.5.15s.25.26.34.48c.06.16.09.4.09.72v1.53c0,.23.02.38.05.46.03.07.07.12.14.15s.18.05.35.05v.14h-1.77v-.14h.07c.17,0,.28-.03.35-.08s.11-.13.14-.22c.01-.04.02-.16.02-.37v-1.46c0-.33-.04-.56-.13-.71s-.23-.22-.43-.22c-.31,0-.62.17-.93.51v1.89c0,.24.01.39.04.45.04.08.09.13.15.17s.19.05.39.05v.14h-1.77v-.14h.08c.18,0,.31-.05.37-.14s.1-.27.1-.53v-1.33c0-.43,0-.69-.03-.79s-.05-.16-.09-.19-.09-.05-.16-.05c-.07,0-.16.02-.26.06l-.06-.14,1.08-.44h.17v.76Z"/>
        <path class="cls-5" d="M37.83,118.06c0,.53.13.95.39,1.25s.57.45.92.45c.23,0,.44-.06.61-.19s.32-.35.44-.66l.12.08c-.05.36-.21.68-.48.97s-.59.44-.99.44c-.43,0-.8-.17-1.1-.5s-.46-.78-.46-1.35c0-.61.16-1.09.47-1.43s.71-.51,1.18-.51c.4,0,.73.13.99.4s.39.62.39,1.06h-2.47ZM37.83,117.84h1.66c-.01-.23-.04-.39-.08-.48-.06-.15-.16-.26-.29-.34s-.26-.12-.4-.12c-.22,0-.41.08-.58.25s-.27.4-.3.7Z"/>
        <path class="cls-5" d="M43.09,116.61v1.22h-.13c-.1-.38-.23-.64-.38-.78s-.35-.21-.59-.21c-.18,0-.33.05-.44.14s-.17.2-.17.32c0,.15.04.27.12.38.08.11.24.22.49.34l.57.28c.53.26.79.6.79,1.02,0,.33-.12.59-.37.79s-.52.3-.83.3c-.22,0-.47-.04-.75-.12-.09-.03-.16-.04-.21-.04-.06,0-.11.03-.14.1h-.13v-1.28h.13c.07.36.21.64.42.82s.44.28.69.28c.18,0,.33-.05.44-.16s.17-.23.17-.38c0-.18-.06-.33-.19-.45s-.38-.28-.76-.46-.62-.36-.74-.51c-.12-.15-.18-.34-.18-.56,0-.29.1-.54.3-.74s.46-.3.78-.3c.14,0,.31.03.51.09.13.04.22.06.27.06.04,0,.07,0,.1-.03s.05-.06.08-.12h.13Z"/>
        <path class="cls-5" d="M46.42,119.89c-.17.18-.35.31-.51.39s-.35.12-.54.12c-.39,0-.73-.16-1.02-.49s-.44-.75-.44-1.26.16-.98.48-1.41.74-.64,1.25-.64c.31,0,.58.1.78.3v-.66c0-.41,0-.66-.03-.75s-.05-.16-.09-.19-.09-.05-.16-.05c-.07,0-.16.02-.27.06l-.05-.14,1.07-.44h.18v4.14c0,.42,0,.67.03.77s.05.16.09.19.09.05.15.05c.07,0,.16-.02.28-.07l.04.14-1.06.44h-.18v-.51ZM46.42,119.62v-1.84c-.02-.18-.06-.34-.14-.48s-.18-.26-.31-.33-.25-.11-.38-.11c-.23,0-.43.1-.61.31-.24.27-.36.67-.36,1.19s.11.93.34,1.21.48.42.77.42c.24,0,.47-.12.69-.36Z"/>
        <path class="cls-5" d="M49.92,119.78c-.37.28-.6.45-.69.49-.14.07-.29.1-.45.1-.25,0-.45-.08-.61-.25s-.24-.39-.24-.67c0-.17.04-.33.12-.45.11-.18.29-.34.56-.5s.7-.35,1.32-.57v-.14c0-.36-.06-.6-.17-.73s-.28-.2-.49-.2c-.16,0-.29.04-.39.13-.1.09-.15.19-.15.3v.23c0,.12-.02.21-.08.28s-.14.1-.24.1-.18-.03-.24-.1-.09-.16-.09-.28c0-.22.11-.43.34-.62s.55-.28.96-.28c.32,0,.58.05.78.16.15.08.27.21.34.38.05.11.07.34.07.69v1.21c0,.34,0,.55.02.63s.03.13.06.15.06.04.1.04c.04,0,.08,0,.11-.03.05-.03.16-.13.32-.29v.22c-.29.39-.57.59-.84.59-.13,0-.23-.04-.3-.13s-.11-.24-.12-.45ZM49.92,119.52v-1.36c-.39.16-.65.27-.76.33-.21.11-.35.23-.44.36s-.13.26-.13.41c0,.19.06.34.17.47s.24.19.39.19c.2,0,.46-.13.78-.39Z"/>
        <path class="cls-5" d="M51.24,116.72h1.67v.14h-.08c-.12,0-.21.03-.26.08s-.09.11-.09.19c0,.1.04.24.13.42l.87,1.8.8-1.98c.04-.11.07-.21.07-.32,0-.05,0-.08-.03-.11-.02-.03-.05-.05-.1-.07s-.12-.03-.23-.03v-.14h1.16v.14c-.1.01-.17.03-.22.06s-.11.09-.17.18c-.02.04-.07.14-.13.3l-1.46,3.57c-.14.35-.32.61-.55.79s-.45.27-.66.27c-.15,0-.28-.04-.38-.13s-.15-.19-.15-.3.04-.2.11-.26.17-.1.29-.1c.09,0,.2.03.35.09.1.04.17.06.2.06.08,0,.16-.04.26-.12s.19-.24.28-.47l.25-.62-1.29-2.7c-.04-.08-.1-.18-.19-.3-.06-.09-.12-.15-.16-.18-.06-.04-.16-.08-.29-.11v-.14Z"/>
      </g>
      <g class="cls-4">
        <rect class="cls-2" x="56.83" y="149.64" width="43.01" height="36.9" rx="7.17" ry="7.17"/>
      </g>
      <text class="cls-11" transform="translate(67.3 183.82) rotate(2)"><tspan x="0" y="0">5</tspan></text>
      <g>
        <path class="cls-5" d="M67.86,151.59l.06,1.24h-.15c-.03-.22-.07-.38-.12-.47-.08-.15-.19-.26-.32-.33s-.31-.11-.53-.11h-.75v4.05c0,.33.04.53.11.61.1.11.25.16.46.16h.18v.14h-2.25v-.14h.19c.22,0,.38-.07.48-.2.06-.08.09-.27.09-.57v-4.05h-.64c-.25,0-.42.02-.53.05-.14.05-.25.14-.35.29s-.15.33-.17.57h-.15l.06-1.24h4.32Z"/>
        <path class="cls-5" d="M69.42,151.33v2.62c.29-.32.52-.52.69-.61s.34-.13.51-.13c.2,0,.38.06.52.17s.25.29.32.53c.05.17.07.47.07.91v1.27c0,.23.02.38.05.46.03.06.07.11.13.15s.18.05.34.05v.14h-1.76v-.14h.08c.17,0,.28-.03.35-.08s.11-.13.14-.22c0-.04.01-.16.01-.37v-1.27c0-.39-.02-.65-.06-.77s-.1-.21-.19-.28-.2-.09-.32-.09-.26.03-.4.1-.3.2-.5.41v1.89c0,.25.01.4.04.46s.08.11.15.15.2.06.38.06v.14h-1.77v-.14c.16,0,.28-.02.38-.07.05-.03.09-.08.12-.15s.05-.22.05-.45v-3.24c0-.41,0-.66-.03-.75s-.05-.16-.09-.19-.09-.05-.16-.05c-.05,0-.14.02-.27.06l-.05-.14,1.07-.44h.18Z"/>
        <path class="cls-5" d="M75.51,153.31v2.17c0,.41,0,.67.03.76s.05.16.09.19.09.05.15.05c.08,0,.17-.02.27-.07l.05.14-1.07.44h-.18v-.76c-.31.33-.54.54-.7.63s-.33.13-.51.13c-.2,0-.37-.06-.52-.17s-.25-.26-.31-.45-.09-.44-.09-.77v-1.6c0-.17-.02-.29-.05-.35s-.09-.12-.16-.15-.2-.05-.39-.05v-.14h1.25v2.39c0,.33.06.55.17.66s.26.16.42.16c.11,0,.24-.04.38-.11s.31-.2.51-.4v-2.03c0-.2-.04-.34-.11-.41s-.23-.11-.46-.12v-.14h1.22Z"/>
        <path class="cls-5" d="M77.42,153.2v.8c.3-.54.61-.8.92-.8.14,0,.26.04.36.13s.14.19.14.3c0,.1-.03.19-.1.26s-.15.11-.24.11-.19-.04-.31-.13-.2-.13-.25-.13c-.05,0-.1.03-.15.08-.12.11-.24.28-.36.53v1.71c0,.2.02.35.07.45.03.07.09.13.18.18s.21.07.37.07v.14h-1.83v-.14c.18,0,.32-.03.41-.09.06-.04.11-.11.14-.2.01-.04.02-.17.02-.38v-1.39c0-.42,0-.67-.03-.74s-.05-.14-.09-.17-.1-.05-.17-.05c-.08,0-.17.02-.27.06l-.04-.14,1.08-.44h.16Z"/>
        <path class="cls-5" d="M81.35,153.2v1.22h-.13c-.1-.38-.23-.64-.38-.78s-.35-.21-.59-.21c-.18,0-.33.05-.44.14s-.17.2-.17.32c0,.15.04.27.12.38.08.11.24.22.49.34l.57.28c.53.26.79.6.79,1.02,0,.33-.12.59-.37.79s-.52.3-.83.3c-.22,0-.47-.04-.75-.12-.09-.03-.16-.04-.21-.04-.06,0-.11.03-.14.1h-.13v-1.28h.13c.07.36.21.64.42.82s.44.28.69.28c.18,0,.33-.05.44-.16s.17-.23.17-.38c0-.18-.06-.33-.19-.45s-.38-.28-.76-.46-.62-.36-.74-.51c-.12-.15-.18-.34-.18-.56,0-.29.1-.54.3-.74s.46-.3.78-.3c.14,0,.31.03.51.09.13.04.22.06.27.06.04,0,.07,0,.1-.03s.05-.06.08-.12h.13Z"/>
        <path class="cls-5" d="M84.67,156.49c-.17.18-.35.31-.51.39s-.35.12-.54.12c-.39,0-.73-.16-1.02-.49s-.44-.75-.44-1.26.16-.98.48-1.41.74-.64,1.25-.64c.31,0,.58.1.78.3v-.66c0-.41,0-.66-.03-.75s-.05-.16-.09-.19-.09-.05-.16-.05c-.07,0-.16.02-.27.06l-.05-.14,1.07-.44h.18v4.14c0,.42,0,.67.03.77s.05.16.09.19.09.05.15.05c.07,0,.16-.02.28-.07l.04.14-1.06.44h-.18v-.51ZM84.67,156.21v-1.84c-.02-.18-.06-.34-.14-.48s-.18-.26-.31-.33-.25-.11-.38-.11c-.23,0-.43.1-.61.31-.24.27-.36.67-.36,1.19s.11.93.34,1.21.48.42.77.42c.24,0,.47-.12.69-.36Z"/>
        <path class="cls-5" d="M88.17,156.37c-.37.28-.6.45-.69.49-.14.07-.29.1-.45.1-.25,0-.45-.08-.61-.25s-.24-.39-.24-.67c0-.17.04-.33.12-.45.11-.18.29-.34.56-.5s.7-.35,1.32-.57v-.14c0-.36-.06-.6-.17-.73s-.28-.2-.49-.2c-.16,0-.29.04-.39.13-.1.09-.15.19-.15.3v.23c0,.12-.02.21-.08.28s-.14.1-.24.1-.18-.03-.24-.1-.09-.16-.09-.28c0-.22.11-.43.34-.62s.55-.28.96-.28c.32,0,.58.05.78.16.15.08.27.21.34.38.05.11.07.34.07.69v1.21c0,.34,0,.55.02.63s.03.13.06.15.06.04.1.04c.04,0,.08,0,.11-.03.05-.03.16-.13.32-.29v.22c-.29.39-.57.59-.84.59-.13,0-.23-.04-.3-.13s-.11-.24-.12-.45ZM88.17,156.12v-1.36c-.39.16-.65.27-.76.33-.21.11-.35.23-.44.36s-.13.26-.13.41c0,.19.06.34.17.47s.24.19.39.19c.2,0,.46-.13.78-.39Z"/>
        <path class="cls-5" d="M89.49,153.31h1.67v.14h-.08c-.12,0-.21.03-.26.08s-.09.11-.09.19c0,.1.04.24.13.42l.87,1.8.8-1.98c.04-.11.07-.21.07-.32,0-.05,0-.08-.03-.11-.02-.03-.05-.05-.1-.07s-.12-.03-.23-.03v-.14h1.16v.14c-.1.01-.17.03-.22.06s-.11.09-.17.18c-.02.04-.07.14-.13.3l-1.46,3.57c-.14.35-.32.61-.55.79s-.45.27-.66.27c-.15,0-.28-.04-.38-.13s-.15-.19-.15-.3.04-.2.11-.26.17-.1.29-.1c.09,0,.2.03.35.09.1.04.17.06.2.06.08,0,.16-.04.26-.12s.19-.24.28-.47l.25-.62-1.29-2.7c-.04-.08-.1-.18-.19-.3-.06-.09-.12-.15-.16-.18-.06-.04-.16-.08-.29-.11v-.14Z"/>
      </g>
      <g class="cls-14">
        <rect class="cls-2" x="15.35" y="186.24" width="43.01" height="36.9" rx="7.17" ry="7.17"/>
        <text class="cls-12" transform="translate(26.56 220.62) rotate(-2)"><tspan x="0" y="0">6</tspan></text>
      </g>
      <g>
        <path class="cls-5" d="M28.05,188.48v2.08h.96c.22,0,.38-.05.49-.15s.17-.29.21-.58h.14v1.79h-.14c0-.21-.03-.36-.08-.45s-.12-.17-.21-.22-.22-.07-.4-.07h-.96v1.66c0,.27.02.45.05.53.03.07.08.12.16.17.11.06.23.09.36.09h.19v.14h-2.27v-.14h.19c.22,0,.38-.06.48-.19.06-.08.09-.28.09-.6v-3.42c0-.27-.02-.45-.05-.53-.03-.07-.08-.12-.16-.17-.11-.06-.23-.09-.36-.09h-.19v-.14h3.94l.05,1.16h-.14c-.07-.25-.15-.43-.24-.54s-.2-.2-.33-.25-.34-.08-.61-.08h-1.17Z"/>
        <path class="cls-5" d="M32.16,189.8v.8c.3-.54.61-.8.92-.8.14,0,.26.04.36.13s.14.19.14.3c0,.1-.03.19-.1.26s-.15.11-.24.11-.19-.04-.31-.13-.2-.13-.25-.13c-.05,0-.1.03-.15.08-.12.11-.24.28-.36.53v1.71c0,.2.02.35.07.45.03.07.09.13.18.18s.21.07.37.07v.14h-1.83v-.14c.18,0,.32-.03.41-.09.06-.04.11-.11.14-.2.01-.04.02-.17.02-.38v-1.39c0-.42,0-.67-.03-.74s-.05-.14-.09-.17-.1-.05-.17-.05c-.08,0-.17.02-.27.06l-.04-.14,1.08-.44h.16Z"/>
        <path class="cls-5" d="M35.01,189.8v2.88c0,.22.02.37.05.45s.08.13.14.17.18.05.35.05v.14h-1.74v-.14c.17,0,.29-.02.35-.05s.11-.09.14-.17.05-.23.05-.45v-1.38c0-.39-.01-.64-.04-.75-.02-.08-.05-.14-.09-.17s-.09-.05-.16-.05c-.07,0-.16.02-.27.06l-.05-.14,1.08-.44h.17ZM34.69,187.93c.11,0,.2.04.28.12s.12.17.12.28-.04.2-.12.28-.17.12-.28.12-.2-.04-.28-.12-.12-.17-.12-.28.04-.2.12-.28.17-.12.28-.12Z"/>
        <path class="cls-5" d="M38.53,193.08c-.17.18-.35.31-.51.39s-.35.12-.54.12c-.39,0-.73-.16-1.02-.49s-.44-.75-.44-1.26.16-.98.48-1.41.74-.64,1.25-.64c.31,0,.58.1.78.3v-.66c0-.41,0-.66-.03-.75s-.05-.16-.09-.19-.09-.05-.16-.05c-.07,0-.16.02-.27.06l-.05-.14,1.07-.44h.18v4.14c0,.42,0,.67.03.77s.05.16.09.19.09.05.15.05c.07,0,.16-.02.28-.07l.04.14-1.06.44h-.18v-.51ZM38.53,192.81v-1.84c-.02-.18-.06-.34-.14-.48s-.18-.26-.31-.33-.25-.11-.38-.11c-.23,0-.43.1-.61.31-.24.27-.36.67-.36,1.19s.11.93.34,1.21.48.42.77.42c.24,0,.47-.12.69-.36Z"/>
        <path class="cls-5" d="M42.03,192.97c-.37.28-.6.45-.69.49-.14.07-.29.1-.45.1-.25,0-.45-.08-.61-.25s-.24-.39-.24-.67c0-.17.04-.33.12-.45.11-.18.29-.34.56-.5s.7-.35,1.32-.57v-.14c0-.36-.06-.6-.17-.73s-.28-.2-.49-.2c-.16,0-.29.04-.39.13-.1.09-.15.19-.15.3v.23c0,.12-.02.21-.08.28s-.14.1-.24.1-.18-.03-.24-.1-.09-.16-.09-.28c0-.22.11-.43.34-.62s.55-.28.96-.28c.32,0,.58.05.78.16.15.08.27.21.34.38.05.11.07.34.07.69v1.21c0,.34,0,.55.02.63s.03.13.06.15.06.04.1.04c.04,0,.08,0,.11-.03.05-.03.16-.13.32-.29v.22c-.29.39-.57.59-.84.59-.13,0-.23-.04-.3-.13s-.11-.24-.12-.45ZM42.03,192.71v-1.36c-.39.16-.65.27-.76.33-.21.11-.35.23-.44.36s-.13.26-.13.41c0,.19.06.34.17.47s.24.19.39.19c.2,0,.46-.13.78-.39Z"/>
        <path class="cls-5" d="M43.35,189.91h1.67v.14h-.08c-.12,0-.21.03-.26.08s-.09.11-.09.19c0,.1.04.24.13.42l.87,1.8.8-1.98c.04-.11.07-.21.07-.32,0-.05,0-.08-.03-.11-.02-.03-.05-.05-.1-.07s-.12-.03-.23-.03v-.14h1.16v.14c-.1.01-.17.03-.22.06s-.11.09-.17.18c-.02.04-.07.14-.13.3l-1.46,3.57c-.14.35-.32.61-.55.79s-.45.27-.66.27c-.15,0-.28-.04-.38-.13s-.15-.19-.15-.3.04-.2.11-.26.17-.1.29-.1c.09,0,.2.03.35.09.1.04.17.06.2.06.08,0,.16-.04.26-.12s.19-.24.28-.47l.25-.62-1.29-2.7c-.04-.08-.1-.18-.19-.3-.06-.09-.12-.15-.16-.18-.06-.04-.16-.08-.29-.11v-.14Z"/>
      </g>
      <g class="cls-1">
        <rect class="cls-2" x="56.83" y="222.83" width="43.01" height="36.9" rx="7.17" ry="7.17"/>
        <text class="cls-10" transform="translate(66.49 255.61) rotate(16)"><tspan x="0" y="0">7</tspan></text>
      </g>
      <g>
        <path class="cls-5" d="M67.79,224.66v1.83h-.14c-.05-.35-.13-.63-.25-.84s-.29-.37-.52-.5-.46-.18-.7-.18c-.27,0-.49.08-.67.25s-.27.35-.27.56c0,.16.06.31.17.44.16.2.55.46,1.15.78.49.27.83.47,1.01.61s.32.31.42.5.15.39.15.61c0,.4-.16.75-.47,1.04s-.71.44-1.2.44c-.15,0-.3-.01-.43-.04-.08-.01-.25-.06-.5-.14s-.41-.12-.48-.12-.12.02-.15.06-.07.12-.08.24h-.14v-1.82h.14c.07.38.16.67.27.85s.29.35.53.47.49.19.78.19c.33,0,.58-.09.77-.26s.28-.38.28-.61c0-.13-.04-.26-.11-.39s-.18-.26-.33-.37c-.1-.08-.38-.24-.83-.5s-.78-.46-.97-.61-.34-.32-.44-.5-.15-.38-.15-.6c0-.38.15-.71.44-.98s.66-.41,1.11-.41c.28,0,.58.07.89.21.15.07.25.1.31.1.07,0,.12-.02.17-.06s.08-.12.1-.24h.14Z"/>
        <path class="cls-5" d="M70.85,229.56c-.37.28-.6.45-.69.49-.14.07-.29.1-.45.1-.25,0-.45-.08-.61-.25s-.24-.39-.24-.67c0-.17.04-.33.12-.45.11-.18.29-.34.56-.5s.7-.35,1.32-.57v-.14c0-.36-.06-.6-.17-.73s-.28-.2-.49-.2c-.16,0-.29.04-.39.13-.1.09-.15.19-.15.3v.23c0,.12-.02.21-.08.28s-.14.1-.24.1-.18-.03-.24-.1-.09-.16-.09-.28c0-.22.11-.43.34-.62s.55-.28.96-.28c.32,0,.58.05.78.16.15.08.27.21.34.38.05.11.07.34.07.69v1.21c0,.34,0,.55.02.63s.03.13.06.15.06.04.1.04c.04,0,.08,0,.11-.03.05-.03.16-.13.32-.29v.22c-.29.39-.57.59-.84.59-.13,0-.23-.04-.3-.13s-.11-.24-.12-.45ZM70.85,229.31v-1.36c-.39.16-.65.27-.76.33-.21.11-.35.23-.44.36s-.13.26-.13.41c0,.19.06.34.17.47s.24.19.39.19c.2,0,.46-.13.78-.39Z"/>
        <path class="cls-5" d="M73.41,225.33v1.18h.84v.27h-.84v2.32c0,.23.03.39.1.47s.15.12.26.12c.09,0,.17-.03.25-.08s.14-.13.19-.24h.15c-.09.25-.22.45-.39.58s-.34.19-.52.19c-.12,0-.24-.03-.35-.1s-.2-.16-.25-.29-.08-.31-.08-.57v-2.41h-.57v-.13c.14-.06.29-.15.44-.29s.28-.3.4-.49c.06-.1.14-.28.25-.54h.12Z"/>
        <path class="cls-5" d="M77.73,226.5v2.17c0,.41,0,.67.03.76s.05.16.09.19.09.05.15.05c.08,0,.17-.02.27-.07l.05.14-1.07.44h-.18v-.76c-.31.33-.54.54-.7.63s-.33.13-.51.13c-.2,0-.37-.06-.52-.17s-.25-.26-.31-.45-.09-.44-.09-.77v-1.6c0-.17-.02-.29-.05-.35s-.09-.12-.16-.15-.2-.05-.39-.05v-.14h1.25v2.39c0,.33.06.55.17.66s.26.16.42.16c.11,0,.24-.04.38-.11s.31-.2.51-.4v-2.03c0-.2-.04-.34-.11-.41s-.23-.11-.46-.12v-.14h1.22Z"/>
        <path class="cls-5" d="M79.64,226.4v.8c.3-.54.61-.8.92-.8.14,0,.26.04.36.13s.14.19.14.3c0,.1-.03.19-.1.26s-.15.11-.24.11-.19-.04-.31-.13-.2-.13-.25-.13c-.05,0-.1.03-.15.08-.12.11-.24.28-.36.53v1.71c0,.2.02.35.07.45.03.07.09.13.18.18s.21.07.37.07v.14h-1.83v-.14c.18,0,.32-.03.41-.09.06-.04.11-.11.14-.2.01-.04.02-.17.02-.38v-1.39c0-.42,0-.67-.03-.74s-.05-.14-.09-.17-.1-.05-.17-.05c-.08,0-.17.02-.27.06l-.04-.14,1.08-.44h.16Z"/>
        <path class="cls-5" d="M83.78,229.68c-.17.18-.35.31-.51.39s-.35.12-.54.12c-.39,0-.73-.16-1.02-.49s-.44-.75-.44-1.26.16-.98.48-1.41.74-.64,1.25-.64c.31,0,.58.1.78.3v-.66c0-.41,0-.66-.03-.75s-.05-.16-.09-.19-.09-.05-.16-.05c-.07,0-.16.02-.27.06l-.05-.14,1.07-.44h.18v4.14c0,.42,0,.67.03.77s.05.16.09.19.09.05.15.05c.07,0,.16-.02.28-.07l.04.14-1.06.44h-.18v-.51ZM83.78,229.4v-1.84c-.02-.18-.06-.34-.14-.48s-.18-.26-.31-.33-.25-.11-.38-.11c-.23,0-.43.1-.61.31-.24.27-.36.67-.36,1.19s.11.93.34,1.21.48.42.77.42c.24,0,.47-.12.69-.36Z"/>
        <path class="cls-5" d="M87.28,229.56c-.37.28-.6.45-.69.49-.14.07-.29.1-.45.1-.25,0-.45-.08-.61-.25s-.24-.39-.24-.67c0-.17.04-.33.12-.45.11-.18.29-.34.56-.5s.7-.35,1.32-.57v-.14c0-.36-.06-.6-.17-.73s-.28-.2-.49-.2c-.16,0-.29.04-.39.13-.1.09-.15.19-.15.3v.23c0,.12-.02.21-.08.28s-.14.1-.24.1-.18-.03-.24-.1-.09-.16-.09-.28c0-.22.11-.43.34-.62s.55-.28.96-.28c.32,0,.58.05.78.16.15.08.27.21.34.38.05.11.07.34.07.69v1.21c0,.34,0,.55.02.63s.03.13.06.15.06.04.1.04c.04,0,.08,0,.11-.03.05-.03.16-.13.32-.29v.22c-.29.39-.57.59-.84.59-.13,0-.23-.04-.3-.13s-.11-.24-.12-.45ZM87.28,229.31v-1.36c-.39.16-.65.27-.76.33-.21.11-.35.23-.44.36s-.13.26-.13.41c0,.19.06.34.17.47s.24.19.39.19c.2,0,.46-.13.78-.39Z"/>
        <path class="cls-5" d="M88.6,226.5h1.67v.14h-.08c-.12,0-.21.03-.26.08s-.09.11-.09.19c0,.1.04.24.13.42l.87,1.8.8-1.98c.04-.11.07-.21.07-.32,0-.05,0-.08-.03-.11-.02-.03-.05-.05-.1-.07s-.12-.03-.23-.03v-.14h1.16v.14c-.1.01-.17.03-.22.06s-.11.09-.17.18c-.02.04-.07.14-.13.3l-1.46,3.57c-.14.35-.32.61-.55.79s-.45.27-.66.27c-.15,0-.28-.04-.38-.13s-.15-.19-.15-.3.04-.2.11-.26.17-.1.29-.1c.09,0,.2.03.35.09.1.04.17.06.2.06.08,0,.16-.04.26-.12s.19-.24.28-.47l.25-.62-1.29-2.7c-.04-.08-.1-.18-.19-.3-.06-.09-.12-.15-.16-.18-.06-.04-.16-.08-.29-.11v-.14Z"/>
      </g>
    </g>
  </g>
</svg>