<?xml version="1.0" encoding="UTF-8"?>
<svg id="Layer_2" data-name="Layer 2" xmlns="http://www.w3.org/2000/svg" viewBox="0 0 85.09 260.65">
  <defs>
    <style>
      .cls-1 {
        fill: none;
        stroke: #231f20;
        stroke-width: .6px;
      }

      .cls-2 {
        fill: #25408f;
      }

      .cls-2, .cls-3, .cls-4, .cls-5, .cls-6, .cls-7, .cls-8 {
        font-family: MyriadPro-Regular, 'Myriad Pro';
      }

      .cls-2, .cls-6 {
        font-size: 32.6px;
      }

      .cls-3 {
        fill: #bb4f9d;
      }

      .cls-3, .cls-4, .cls-5 {
        font-size: 32.6px;
      }

      .cls-4, .cls-8 {
        fill: #90c343;
      }

      .cls-9 {
        letter-spacing: -.08em;
      }

      .cls-5 {
        fill: #2a5caa;
      }

      .cls-10 {
        fill: #231f20;
        font-family: TimesNewRomanPSMT, 'Times New Roman';
        font-size: 8px;
      }

      .cls-6 {
        fill: #f28021;
      }

      .cls-11 {
        letter-spacing: -.03em;
      }

      .cls-7 {
        fill: #d2232a;
      }

      .cls-7, .cls-8 {
        font-size: 32.6px;
      }
    </style>
  </defs>
  <g id="Layer_1-2" data-name="Layer 1">
    <g>
      <rect class="cls-1" x="41.78" y="3.88" width="43.01" height="36.9" rx="7.17" ry="7.17"/>
      <text class="cls-5" transform="translate(55.34 29.77) rotate(-10)"><tspan x="0" y="0">1</tspan></text>
    </g>
    <text class="cls-10" transform="translate(51.29 11.12)"><tspan x="0" y="0">Sunday</tspan></text>
    <rect class="cls-1" x=".3" y="40.48" width="43.01" height="36.9" rx="7.17" ry="7.17"/>
    <text class="cls-7" transform="translate(13.83 61.78) rotate(16)"><tspan x="0" y="0">2</tspan></text>
    <text class="cls-10" transform="translate(8.47 47.72)"><tspan x="0" y="0">Monday</tspan></text>
    <rect class="cls-1" x="41.78" y="77.07" width="43.01" height="36.9" rx="7.17" ry="7.17"/>
    <text class="cls-4" transform="translate(55.88 103.55) rotate(-10)"><tspan x="0" y="0">3</tspan></text>
    <text class="cls-10" transform="translate(49.88 84.31)"><tspan class="cls-11" x="0" y="0">T</tspan><tspan x="4.61" y="0">uesday</tspan></text>
    <rect class="cls-1" x=".3" y="113.67" width="43.01" height="36.9" rx="7.17" ry="7.17"/>
    <text class="cls-3" transform="translate(13.86 139.75) rotate(-10)"><tspan x="0" y="0">4</tspan></text>
    <text class="cls-10" transform="translate(3.47 120.91)"><tspan class="cls-9" x="0" y="0">W</tspan><tspan x="6.91" y="0">ednesday</tspan></text>
    <rect class="cls-1" x="41.78" y="150.26" width="43.01" height="36.9" rx="7.17" ry="7.17"/>
    <text class="cls-2" transform="translate(54.46 174.73) rotate(2)"><tspan x="0" y="0">5</tspan></text>
    <text class="cls-10" transform="translate(48.18 157.5)"><tspan x="0" y="0">Thursday</tspan></text>
    <rect class="cls-1" x=".3" y="186.86" width="43.01" height="36.9" rx="7.17" ry="7.17"/>
    <text class="cls-6" transform="translate(13.15 211.4) rotate(-2)"><tspan x="0" y="0">6</tspan></text>
    <text class="cls-10" transform="translate(11.36 194.1)"><tspan x="0" y="0">Friday</tspan></text>
    <rect class="cls-1" x="41.78" y="223.45" width="43.01" height="36.9" rx="7.17" ry="7.17"/>
    <text class="cls-8" transform="translate(54.65 246.97) rotate(16)"><tspan x="0" y="0">7</tspan></text>
    <text class="cls-10" transform="translate(49.07 230.7)"><tspan x="0" y="0">Saturday</tspan></text>
  </g>
</svg>