<?xml version="1.0" encoding="utf-8"?>
<!-- Generator: Adobe Illustrator 30.3.0, SVG Export Plug-In . SVG Version: 9.03 Build 0)  -->
<svg version="1.1" id="Layer_1" xmlns="http://www.w3.org/2000/svg" xmlns:xlink="http://www.w3.org/1999/xlink" x="0px" y="0px"
	 viewBox="0 0 40.552 38.471" style="enable-background:new 0 0 40.552 38.471;" xml:space="preserve">
<g>
	<path style="fill:#FFFFFF;" d="M20.277,36.336c9.444,0,17.1-7.656,17.1-17.1c0-9.445-7.656-17.101-17.1-17.101
		S3.176,9.791,3.176,19.236C3.176,28.68,10.833,36.336,20.277,36.336"/>
	<path style="fill:#00ADEE;" d="M20.277,36.336v-0.774c4.511,0,8.587-1.826,11.544-4.782c2.956-2.957,4.781-7.033,4.782-11.544
		c0-4.511-1.826-8.588-4.782-11.545c-2.957-2.956-7.033-4.781-11.544-4.782c-4.511,0-8.588,1.826-11.545,4.782
		C5.776,10.648,3.95,14.725,3.95,19.236c0,4.511,1.826,8.587,4.782,11.544c2.957,2.956,7.034,4.781,11.545,4.782V36.336v0.774
		c-9.872-0.001-17.875-8.002-17.875-17.874C2.402,9.363,10.405,1.362,20.277,1.361c9.872,0,17.873,8.002,17.874,17.875
		c0,9.872-8.002,17.873-17.874,17.874V36.336z"/>
	<path style="fill:#231F20;" d="M23.957,24.623c0,1.921-1.553,3.132-3.948,3.132c-2.553,0-4.211-1.29-4.211-3.343
		c0-1.711,1.132-2.895,3.791-3.948C22.984,21.965,23.957,22.86,23.957,24.623z M23.273,14.753c0,1.527-1.369,2.869-3.422,3.975
		c-2.369-1.105-3.475-2.343-3.475-3.869c0-1.685,1.343-2.79,3.343-2.79C21.852,12.068,23.273,13.095,23.273,14.753z M14.271,14.7
		c0,2.264,1,3.632,3.58,4.922c-2.316,0.842-4.053,2.316-4.053,4.843c0,3.027,2.553,5.08,6.291,5.08c3.659,0,5.975-1.869,5.975-4.843
		c0-2.369-1.316-3.974-4.264-5.185c2.5-1.263,3.58-2.658,3.58-4.659c0-2.658-2.237-4.448-5.501-4.448
		C16.245,10.41,14.271,11.936,14.271,14.7z"/>
</g>
<g>
</g>
<g>
</g>
<g>
</g>
<g>
</g>
<g>
</g>
<g>
</g>
<g>
</g>
<g>
</g>
<g>
</g>
<g>
</g>
<g>
</g>
<g>
</g>
<g>
</g>
<g>
</g>
<g>
</g>
</svg>
