<?xml version="1.0" encoding="utf-8"?>
<!-- Generator: Adobe Illustrator 30.3.0, SVG Export Plug-In . SVG Version: 9.03 Build 0)  -->
<svg version="1.1" id="Layer_1" xmlns="http://www.w3.org/2000/svg" xmlns:xlink="http://www.w3.org/1999/xlink" x="0px" y="0px"
	 viewBox="0 0 40.552 38.471" style="enable-background:new 0 0 40.552 38.471;" xml:space="preserve">
<g>
	<path style="fill:#FFFFFF;" d="M20.276,36.336c9.444,0,17.1-7.656,17.1-17.1c0-9.445-7.656-17.101-17.1-17.101
		c-9.444,0-17.101,7.656-17.101,17.101C3.176,28.68,10.833,36.336,20.276,36.336"/>
	<path style="fill:#00ADEE;" d="M20.276,36.336v-0.774c4.511,0,8.587-1.826,11.544-4.782c2.956-2.957,4.781-7.033,4.782-11.544
		c0-4.511-1.826-8.588-4.782-11.545c-2.957-2.956-7.034-4.781-11.544-4.782c-4.511,0-8.587,1.826-11.544,4.782
		C5.776,10.648,3.95,14.725,3.95,19.236c0,4.511,1.826,8.587,4.782,11.544c2.957,2.956,7.034,4.781,11.544,4.782V36.336v0.774
		C10.405,37.11,2.402,29.108,2.402,19.236c0-9.873,8.003-17.875,17.875-17.875c9.872,0,17.874,8.002,17.874,17.875
		c0,9.872-8.002,17.874-17.874,17.874V36.336z"/>
	<path style="fill:#231F20;" d="M23.168,17.227c-0.052,2-1.895,3.369-3.896,3.369c-2.08,0-3.343-1.395-3.343-3.659
		c0-2.79,1.553-4.633,3.922-4.633c2,0,3.422,1.342,3.369,3.238L23.168,17.227z M22.957,29.177h1.974l0.342-13.45
		c0.105-3.764-2.422-5.212-5.527-5.212c-3.554,0-5.923,2.422-5.923,6.054c0,3.527,2.159,5.922,5.317,5.922
		c1.526,0,2.737-0.395,4.106-1.764L22.957,29.177z"/>
</g>
<g>
</g>
<g>
</g>
<g>
</g>
<g>
</g>
<g>
</g>
<g>
</g>
<g>
</g>
<g>
</g>
<g>
</g>
<g>
</g>
<g>
</g>
<g>
</g>
<g>
</g>
<g>
</g>
<g>
</g>
</svg>
