<?xml version="1.0" encoding="UTF-8"?>
<svg id="Layer_2" data-name="Layer 2" xmlns="http://www.w3.org/2000/svg" viewBox="0 0 125.45 329.64">
  <defs>
    <style>
      .cls-1 {
        stroke-width: .83px;
      }

      .cls-1, .cls-2 {
        fill: none;
        stroke: #231f20;
      }

      .cls-3 {
        fill: #231f20;
      }

      .cls-4 {
        fill: #fff;
      }

      .cls-5 {
        fill: #c7c8ca;
      }

      .cls-2 {
        stroke-width: .84px;
      }
    </style>
  </defs>
  <g id="Layer_1-2" data-name="Layer 1">
    <g>
      <path class="cls-5" d="M50.41,58.59L45.85,2.47l-3.2.44c.05,1.65-.52,3.03-1.35,3.14-.83.11-1.61-1.08-1.83-2.71l-3.57.49c.05,1.65-.52,3.03-1.35,3.14-.83.11-1.61-1.08-1.83-2.71l-3.57.49c.05,1.65-.52,3.03-1.35,3.14s-1.61-1.08-1.83-2.71l-3.57.49c.05,1.65-.52,3.03-1.35,3.14-.83.11-1.61-1.08-1.83-2.71l-3.57.49c.05,1.65-.52,3.03-1.35,3.14-.83.11-1.61-1.08-1.83-2.71l-3.57.49c.05,1.65-.52,3.03-1.35,3.14-.83.11-1.61-1.08-1.83-2.71l-3.2.44,4.56,56.11,43.36-5.9Z"/>
      <path class="cls-4" d="M48.39,56.82L43.81.47l-3.2.44c.05,1.66-.52,3.04-1.35,3.15-.83.11-1.61-1.09-1.83-2.72l-3.57.49c.05,1.66-.52,3.04-1.35,3.16-.83.11-1.61-1.09-1.83-2.72l-3.57.49c.05,1.66-.52,3.04-1.35,3.15s-1.61-1.09-1.83-2.72l-3.57.49c.05,1.66-.52,3.04-1.35,3.15-.83.11-1.61-1.09-1.83-2.72l-3.57.49c.05,1.66-.52,3.04-1.35,3.15-.83.11-1.61-1.09-1.83-2.72l-3.57.49c.05,1.66-.52,3.04-1.35,3.15s-1.61-1.09-1.83-2.72l-3.2.44,4.58,56.35,43.36-5.9Z"/>
      <path class="cls-1" d="M48.39,56.82L43.81.47l-3.2.44c.05,1.66-.52,3.04-1.35,3.15-.83.11-1.61-1.09-1.83-2.72l-3.57.49c.05,1.66-.52,3.04-1.35,3.16-.83.11-1.61-1.09-1.83-2.72l-3.57.49c.05,1.66-.52,3.04-1.35,3.15-.83.11-1.61-1.09-1.83-2.72l-3.57.49c.05,1.66-.52,3.04-1.35,3.15s-1.61-1.09-1.83-2.72l-3.57.49c.05,1.66-.52,3.04-1.35,3.15-.83.11-1.61-1.09-1.83-2.72l-3.57.49c.05,1.66-.52,3.04-1.35,3.15-.83.11-1.61-1.09-1.83-2.72l-3.2.44,4.58,56.35,43.36-5.9Z"/>
      <path class="cls-3" d="M25.79,22.96l2.02,24.88-5.84.79-2.02-24.88,5.84-.79Z"/>
      <g>
        <path class="cls-3" d="M7.37,11.8l1.41-.19.41,5.1c.13,1.61-.56,2.57-1.71,2.73-1.19.16-2.1-.62-2.23-2.31l1.4-.19c.05.64.29.92.66.87.34-.05.51-.35.47-.91l-.41-5.1Z"/>
        <path class="cls-3" d="M11.79,12.66c.69-.09,1.21.25,1.5.74l-.07-.84,1.41-.19.48,5.96-1.41.19-.07-.84c-.21.56-.67,1.03-1.35,1.12-1.12.15-2.12-.92-2.27-2.8-.15-1.88.65-3.18,1.78-3.33ZM12.33,14.2c-.53.07-.96.65-.89,1.6s.6,1.42,1.13,1.35c.54-.07.96-.66.89-1.61s-.59-1.41-1.13-1.34Z"/>
        <path class="cls-3" d="M19.05,14.52c-.07-.81-.45-1.21-.99-1.14-.54.07-.85.57-.78,1.38l.26,3.24-1.41.19-.48-5.96,1.41-.19.06.79c.24-.54.71-.96,1.33-1.04,1.06-.14,1.85.7,1.98,2.3l.28,3.48-1.4.19-.26-3.24Z"/>
        <path class="cls-3" d="M26.24,16.81l-1.41.19-.07-.81c-.24.55-.7.98-1.32,1.07-1.06.14-1.86-.71-1.99-2.3l-.28-3.48,1.4-.19.26,3.24c.07.81.46,1.21.99,1.14.54-.07.85-.57.79-1.38l-.26-3.24,1.41-.19.48,5.96Z"/>
        <path class="cls-3" d="M28.52,10.39c.69-.09,1.21.25,1.5.74l-.07-.84,1.41-.19.48,5.96-1.41.19-.07-.84c-.21.56-.67,1.03-1.35,1.12-1.12.15-2.12-.92-2.27-2.8s.65-3.18,1.78-3.33ZM29.06,11.92c-.53.07-.96.65-.89,1.6s.6,1.42,1.13,1.35c.54-.07.96-.66.89-1.61s-.59-1.41-1.13-1.34Z"/>
        <path class="cls-3" d="M34.28,15.72l-1.41.19-.48-5.96,1.41-.19.08.99c.27-.67.74-1.17,1.36-1.25l.16,1.93-.39.05c-.67.09-1.03.44-.95,1.47l.22,2.77Z"/>
        <path class="cls-3" d="M39.09,9.04l1.53-.21-2.18,9.18-1.52.21.81-3.18-2.34-5.5,1.58-.21,1.37,3.58.75-3.87Z"/>
      </g>
      <path class="cls-5" d="M111.13,58.59l-4.56-56.11-3.2.44c.05,1.65-.52,3.03-1.35,3.14-.83.11-1.61-1.08-1.83-2.71l-3.57.49c.05,1.65-.52,3.03-1.35,3.14-.83.11-1.61-1.08-1.83-2.71l-3.57.49c.05,1.65-.52,3.03-1.35,3.14-.83.11-1.61-1.08-1.83-2.71l-3.57.49c.05,1.65-.52,3.03-1.35,3.14s-1.61-1.08-1.83-2.71l-3.57.49c.05,1.65-.52,3.03-1.35,3.14-.83.11-1.61-1.08-1.83-2.71l-3.57.49c.05,1.65-.52,3.03-1.35,3.14-.83.11-1.61-1.08-1.83-2.71l-3.2.44,4.56,56.11,43.36-5.9Z"/>
      <path class="cls-4" d="M109.11,56.82L104.54.47l-3.2.44c.05,1.66-.52,3.04-1.35,3.15-.83.11-1.61-1.09-1.83-2.72l-3.57.49c.05,1.66-.52,3.04-1.35,3.16-.83.11-1.61-1.09-1.83-2.72l-3.57.49c.05,1.66-.52,3.04-1.35,3.15-.83.11-1.61-1.09-1.83-2.72l-3.57.49c.05,1.66-.52,3.04-1.35,3.15-.83.11-1.61-1.09-1.83-2.72l-3.57.49c.05,1.66-.52,3.04-1.35,3.15-.83.11-1.61-1.09-1.83-2.72l-3.57.49c.05,1.66-.52,3.04-1.35,3.15s-1.61-1.09-1.83-2.72l-3.2.44,4.58,56.35,43.36-5.9Z"/>
      <path class="cls-1" d="M109.11,56.82L104.54.47l-3.2.44c.05,1.66-.52,3.04-1.35,3.15s-1.61-1.09-1.83-2.72l-3.57.49c.05,1.66-.52,3.04-1.35,3.16-.83.11-1.61-1.09-1.83-2.72l-3.57.49c.05,1.66-.52,3.04-1.35,3.15-.83.11-1.61-1.09-1.83-2.72l-3.57.49c.05,1.66-.52,3.04-1.35,3.15-.83.11-1.61-1.09-1.83-2.72l-3.57.49c.05,1.66-.52,3.04-1.35,3.15-.83.11-1.61-1.09-1.83-2.72l-3.57.49c.05,1.66-.52,3.04-1.35,3.15-.83.11-1.61-1.09-1.83-2.72l-3.2.44,4.58,56.35,43.36-5.9Z"/>
      <path class="cls-3" d="M77.77,44.57c4.76-5.07,9.86-10.15,9.52-14.35-.15-1.81-1.03-2.87-2.75-2.63-1.68.23-2.56,1.73-2.37,4.09l-5.45.74c-.33-6.07,3.26-9.18,7.65-9.78,5.48-.75,8.19,2.24,8.54,6.44.44,5.47-3.92,10.48-7.51,14.05l8.92-1.21.39,4.75-16.58,2.25-.35-4.34Z"/>
      <g>
        <path class="cls-3" d="M64.48,12.29l3.77-.51.12,1.46-2.36.32.13,1.58,1.77-.24.12,1.42-1.77.24.25,3.03-1.41.19-.61-7.5Z"/>
        <path class="cls-3" d="M71.65,18.98c-1.35.18-2.42-.86-2.58-2.75-.15-1.89.71-3.19,2.08-3.38,1.35-.18,2.39.84,2.54,2.66.01.17.02.35.02.54l-3.2.43c.11.77.51,1.08.97,1.02.4-.05.6-.34.69-.68l1.5-.2c-.13,1.19-.87,2.2-2.02,2.36ZM70.44,15.46l1.77-.24c-.05-.65-.48-.97-.95-.91-.46.06-.79.47-.82,1.15Z"/>
        <path class="cls-3" d="M77.03,12.05c1.14-.15,2.13.9,2.28,2.78.15,1.88-.65,3.2-1.78,3.35-.68.09-1.2-.24-1.49-.73l.07.83-1.41.19-.64-7.9,1.41-.19.23,2.79c.21-.57.68-1.03,1.34-1.12ZM76.73,13.7c-.53.07-.96.66-.89,1.61.08.95.6,1.41,1.13,1.34.54-.07.97-.67.9-1.62-.08-.95-.6-1.4-1.13-1.32Z"/>
        <path class="cls-3" d="M81.7,17.53l-1.41.19-.48-5.96,1.41-.19.08.99c.27-.67.74-1.17,1.36-1.25l.16,1.93-.39.05c-.67.09-1.03.44-.95,1.47l.22,2.77Z"/>
        <path class="cls-3" d="M88.37,16.62l-1.41.19-.07-.81c-.24.55-.7.98-1.32,1.07-1.06.14-1.86-.71-1.99-2.3l-.28-3.48,1.4-.19.26,3.24c.07.81.46,1.21.99,1.14.54-.07.85-.57.79-1.38l-.26-3.24,1.41-.19.48,5.96Z"/>
        <path class="cls-3" d="M90.64,10.2c.69-.09,1.21.25,1.5.74l-.07-.84,1.41-.19.48,5.96-1.41.19-.07-.84c-.21.56-.67,1.03-1.35,1.12-1.12.15-2.12-.92-2.27-2.8-.15-1.88.65-3.18,1.78-3.33ZM91.19,11.74c-.53.07-.97.65-.89,1.6.08.95.6,1.42,1.13,1.35.54-.07.96-.66.89-1.61-.08-.95-.59-1.41-1.13-1.34Z"/>
        <path class="cls-3" d="M96.4,15.53l-1.41.19-.48-5.96,1.41-.19.08.99c.27-.67.74-1.17,1.36-1.25l.16,1.93-.39.05c-.67.09-1.03.44-.95,1.47l.22,2.77Z"/>
        <path class="cls-3" d="M101.22,8.85l1.53-.21-2.18,9.18-1.52.21.81-3.18-2.34-5.5,1.58-.21,1.37,3.58.75-3.87Z"/>
      </g>
      <path class="cls-5" d="M46.37,121.34l7.57-55.57-3.17-.72c-.3,1.61-1.15,2.73-1.97,2.54-.82-.19-1.32-1.61-1.18-3.26l-3.54-.81c-.3,1.61-1.15,2.73-1.97,2.54-.82-.19-1.32-1.61-1.18-3.26l-3.54-.81c-.3,1.61-1.15,2.73-1.97,2.54-.82-.19-1.32-1.61-1.18-3.26l-3.54-.81c-.3,1.61-1.15,2.73-1.97,2.54-.82-.19-1.32-1.61-1.18-3.26l-3.54-.81c-.3,1.61-1.15,2.73-1.97,2.54-.82-.19-1.32-1.61-1.18-3.26l-3.54-.81c-.3,1.61-1.15,2.73-1.97,2.54-.82-.19-1.32-1.61-1.18-3.26l-3.17-.72-7.57,55.57,42.94,9.79Z"/>
      <path class="cls-4" d="M44.8,118.92l7.6-55.79-3.17-.72c-.3,1.61-1.15,2.74-1.97,2.55-.82-.19-1.32-1.62-1.18-3.27l-3.54-.81c-.3,1.61-1.15,2.74-1.97,2.55-.82-.19-1.32-1.62-1.18-3.27l-3.54-.81c-.3,1.61-1.15,2.74-1.97,2.55-.82-.19-1.32-1.62-1.18-3.27l-3.54-.81c-.3,1.61-1.15,2.74-1.97,2.55-.82-.19-1.32-1.62-1.18-3.27l-3.54-.81c-.3,1.61-1.15,2.74-1.97,2.55-.82-.19-1.32-1.62-1.18-3.27l-3.54-.81c-.3,1.61-1.15,2.74-1.97,2.55-.82-.19-1.32-1.62-1.18-3.27l-3.17-.72L1.86,109.12l42.94,9.79Z"/>
      <path class="cls-2" d="M44.8,118.92l7.6-55.79-3.17-.72c-.3,1.61-1.15,2.74-1.97,2.55-.82-.19-1.32-1.62-1.18-3.27l-3.54-.81c-.3,1.61-1.15,2.74-1.97,2.55-.82-.19-1.32-1.62-1.18-3.27l-3.54-.81c-.3,1.61-1.15,2.74-1.97,2.55-.82-.19-1.32-1.62-1.18-3.27l-3.54-.81c-.3,1.61-1.15,2.74-1.97,2.55-.82-.19-1.32-1.62-1.18-3.27l-3.54-.81c-.3,1.61-1.15,2.74-1.97,2.55-.82-.19-1.32-1.62-1.18-3.27l-3.54-.81c-.3,1.61-1.15,2.74-1.97,2.55-.82-.19-1.32-1.62-1.18-3.27l-3.17-.72L1.86,109.12l42.94,9.79Z"/>
      <path class="cls-3" d="M28.08,77.15c5.04,1.15,7.34,4.75,6.84,8.47-.44,3.25-2.64,4.53-4.35,4.73l-.02.13c2.28,1.36,3.65,3.62,3.21,6.87-.57,4.16-3.85,6.48-8.85,5.34-4.97-1.13-8.24-4.39-7.64-10.01l5.43,1.24c-.23,1.94.61,3.45,2.67,3.92,1.73.39,2.84-.54,3.06-2.16.3-2.2-.86-3.37-3.77-4.04l-1.05-.24.64-4.7,1.05.24c1.9.43,3.79.38,4.1-1.86.23-1.66-.6-2.79-2.1-3.13-1.8-.41-2.64.79-2.92,2.13l-5.46-1.25c.86-4.83,4.3-6.8,9.17-5.69Z"/>
      <g>
        <path class="cls-3" d="M17.02,61.49l1.65.38.91,5.5,2.29-4.77,1.64.38-1.01,7.42-1.4-.32.61-4.45-1.89,4.16-1.13-.26-.68-4.75-.61,4.46-1.4-.32,1.01-7.42Z"/>
        <path class="cls-3" d="M26.05,65.03c.68.15,1.1.67,1.28,1.24l.11-.83,1.4.32-.8,5.9-1.4-.32.11-.83c-.32.46-.86.75-1.54.6-1.11-.25-1.84-1.64-1.59-3.5.25-1.86,1.3-2.82,2.42-2.56ZM26.25,66.7c-.52-.12-1.06.28-1.19,1.22-.13.94.27,1.58.8,1.7.53.12,1.07-.29,1.2-1.23.13-.94-.27-1.56-.8-1.69Z"/>
        <path class="cls-3" d="M30.46,72.2l-1.4-.32.8-5.9,1.4.32-.13.98c.4-.55.96-.86,1.57-.72l-.26,1.91-.38-.09c-.66-.15-1.09.06-1.22,1.07l-.37,2.74Z"/>
        <path class="cls-3" d="M35.38,67.16c1.14.26,1.84,1.26,1.89,2.72l-1.49-.34c-.06-.44-.25-.75-.64-.84-.5-.11-.91.32-1.04,1.3-.13.98.14,1.57.64,1.68.38.09.64-.11.82-.51l1.49.34c-.42,1.31-1.35,1.98-2.49,1.72-1.34-.31-2.13-1.68-1.87-3.55.25-1.86,1.36-2.82,2.7-2.51Z"/>
        <path class="cls-3" d="M38.57,65.99l1.4.32-.37,2.72c.35-.44.89-.68,1.52-.54,1.04.24,1.6,1.33,1.39,2.91l-.47,3.44-1.39-.32.44-3.2c.11-.8-.17-1.33-.7-1.45-.53-.12-.93.24-1.04,1.05l-.44,3.2-1.4-.32,1.07-7.82Z"/>
      </g>
      <path class="cls-5" d="M107.09,121.34l7.57-55.57-3.17-.72c-.3,1.61-1.15,2.73-1.97,2.54-.82-.19-1.32-1.61-1.18-3.26l-3.54-.81c-.3,1.61-1.15,2.73-1.97,2.54-.82-.19-1.32-1.61-1.18-3.26l-3.54-.81c-.3,1.61-1.15,2.73-1.97,2.54-.82-.19-1.32-1.61-1.18-3.26l-3.54-.81c-.3,1.61-1.15,2.73-1.97,2.54-.82-.19-1.32-1.61-1.18-3.26l-3.54-.81c-.3,1.61-1.15,2.73-1.97,2.54-.82-.19-1.32-1.61-1.18-3.26l-3.54-.81c-.3,1.61-1.15,2.73-1.97,2.54-.82-.19-1.32-1.61-1.18-3.26l-3.17-.72-7.57,55.57,42.94,9.79Z"/>
      <path class="cls-4" d="M105.53,118.92l7.6-55.79-3.17-.72c-.3,1.61-1.15,2.74-1.97,2.55-.82-.19-1.32-1.62-1.18-3.27l-3.54-.81c-.3,1.61-1.15,2.74-1.97,2.55-.82-.19-1.32-1.62-1.18-3.27l-3.54-.81c-.3,1.61-1.15,2.74-1.97,2.55-.82-.19-1.32-1.62-1.18-3.27l-3.54-.81c-.3,1.61-1.15,2.74-1.97,2.55-.82-.19-1.32-1.62-1.18-3.27l-3.54-.81c-.3,1.61-1.15,2.74-1.97,2.55-.82-.19-1.32-1.62-1.18-3.27l-3.54-.81c-.3,1.61-1.15,2.74-1.97,2.55-.82-.19-1.32-1.62-1.18-3.27l-3.17-.72-7.6,55.79,42.94,9.79Z"/>
      <path class="cls-2" d="M105.53,118.92l7.6-55.79-3.17-.72c-.3,1.61-1.15,2.74-1.97,2.55-.82-.19-1.32-1.62-1.18-3.27l-3.54-.81c-.3,1.61-1.15,2.74-1.97,2.55-.82-.19-1.32-1.62-1.18-3.27l-3.54-.81c-.3,1.61-1.15,2.74-1.97,2.55-.82-.19-1.32-1.62-1.18-3.27l-3.54-.81c-.3,1.61-1.15,2.74-1.97,2.55-.82-.19-1.32-1.62-1.18-3.27l-3.54-.81c-.3,1.61-1.15,2.74-1.97,2.55-.82-.19-1.32-1.62-1.18-3.27l-3.54-.81c-.3,1.61-1.15,2.74-1.97,2.55-.82-.19-1.32-1.62-1.18-3.27l-3.17-.72-7.6,55.79,42.94,9.79Z"/>
      <path class="cls-3" d="M94.48,98.57l-2.16-.49-.78,5.75-5.2-1.19.78-5.75-10.33-2.36.59-4.33,9.76-12.46,5.04,1.15-9.64,12.38,5.2,1.19.75-5.48,5.1,1.16-.75,5.48,2.26.51-.6,4.43Z"/>
      <g>
        <path class="cls-3" d="M84.03,69.22l-2.14-.49-.52,1.23-1.46-.33,3.09-6.95,1.62.37,1.06,7.89-1.48-.34-.17-1.39ZM83.53,64.86l-1.07,2.56,1.41.32-.34-2.88Z"/>
        <path class="cls-3" d="M89.93,65.75c1.12.26,1.85,1.62,1.6,3.48-.25,1.86-1.3,2.84-2.42,2.58-.67-.15-1.1-.67-1.28-1.23l-.5,3.64-1.4-.32,1.19-8.71,1.4.32-.11.83c.32-.46.86-.75,1.53-.6ZM89.3,67.23c-.52-.12-1.07.29-1.2,1.23-.13.94.28,1.57.8,1.69.53.12,1.08-.3,1.21-1.24.13-.94-.28-1.56-.81-1.68Z"/>
        <path class="cls-3" d="M93.26,72.67l-1.4-.32.8-5.9,1.4.32-.13.98c.4-.55.96-.86,1.57-.72l-.26,1.91-.38-.09c-.66-.15-1.09.06-1.22,1.07l-.37,2.74Z"/>
        <path class="cls-3" d="M96.16,67.26l1.4.32-.8,5.9-1.4-.32.8-5.9ZM96.25,65.64c.08-.55.47-.91.97-.79.49.11.77.62.69,1.17-.07.54-.47.9-.96.78-.5-.11-.77-.62-.7-1.16Z"/>
        <path class="cls-3" d="M98.84,65.88l1.4.32-1.07,7.82-1.4-.32,1.07-7.82Z"/>
      </g>
      <path class="cls-5" d="M63.73,165.2l-7.57-55.57-3.17.72c.14,1.64-.36,3.07-1.18,3.26-.82.19-1.67-.93-1.97-2.54l-3.54.81c.14,1.64-.36,3.07-1.18,3.26-.82.19-1.67-.93-1.97-2.54l-3.54.81c.14,1.64-.36,3.07-1.18,3.26-.82.19-1.67-.93-1.97-2.54l-3.54.81c.14,1.64-.36,3.07-1.18,3.26-.82.19-1.67-.93-1.97-2.54l-3.54.81c.14,1.64-.36,3.07-1.18,3.26-.82.19-1.67-.93-1.97-2.54l-3.54.81c.14,1.64-.36,3.07-1.18,3.26-.82.19-1.67-.93-1.97-2.54l-3.17.72,7.57,55.57,42.94-9.79Z"/>
      <path class="cls-4" d="M61.61,163.62l-7.6-55.79-3.17.72c.14,1.65-.36,3.08-1.18,3.27-.82.19-1.67-.94-1.97-2.55l-3.54.81c.14,1.65-.36,3.08-1.18,3.27-.82.19-1.67-.94-1.97-2.55l-3.54.81c.14,1.65-.36,3.08-1.18,3.27-.82.19-1.67-.94-1.97-2.55l-3.54.81c.14,1.65-.36,3.08-1.18,3.27-.82.19-1.67-.94-1.97-2.55l-3.54.81c.14,1.65-.36,3.08-1.18,3.27-.82.19-1.67-.94-1.97-2.55l-3.54.81c.14,1.65-.36,3.08-1.18,3.27-.82.19-1.67-.94-1.97-2.55l-3.17.72,7.6,55.79,42.94-9.79Z"/>
      <path class="cls-2" d="M61.61,163.62l-7.6-55.79-3.17.72c.14,1.65-.36,3.08-1.18,3.27-.82.19-1.67-.94-1.97-2.55l-3.54.81c.14,1.65-.36,3.08-1.18,3.27-.82.19-1.67-.94-1.97-2.55l-3.54.81c.14,1.65-.36,3.08-1.18,3.27-.82.19-1.67-.94-1.97-2.55l-3.54.81c.14,1.65-.36,3.08-1.18,3.27-.82.19-1.67-.94-1.97-2.55l-3.54.81c.14,1.65-.36,3.08-1.18,3.27-.82.19-1.67-.94-1.97-2.55l-3.54.81c.14,1.65-.36,3.08-1.18,3.27-.82.19-1.67-.94-1.97-2.55l-3.17.72,7.6,55.79,42.94-9.79Z"/>
      <path class="cls-3" d="M41.62,130.79l.61,4.47-7.1,1.62.16,2.89c2.65-.6,4.82-.26,6.48,1.03,1.66,1.29,2.64,3.03,2.94,5.23.34,2.47-.28,4.84-1.9,7.1-1.62,2.22-3.69,3.63-6.2,4.21-1.21.28-2.28.34-3.24.22-.97-.16-2.09-.47-3.31-1.03l-.23-5.67c2.83,1.21,4.94,1.63,6.41,1.29,1.05-.24,1.87-.85,2.55-1.8.68-.96.95-1.96.8-3.01-.16-1.15-.68-2.01-1.57-2.61-.89-.6-1.92-.75-3.1-.48-1.41.32-2.86,1-4.37,2.08l-.54-12.89,11.61-2.65Z"/>
      <g>
        <path class="cls-3" d="M24.71,120.95l1.65-.38,2.31,4.77.89-5.5,1.64-.38,1.01,7.42-1.4.32-.61-4.45-.68,4.74-1.13.26-1.9-4.17.61,4.46-1.4.32-1.01-7.42Z"/>
        <path class="cls-3" d="M34.14,120.28c.68-.16,1.21.14,1.53.6l-.11-.83,1.4-.32.8,5.9-1.4.32-.11-.83c-.18.58-.61,1.09-1.29,1.24-1.11.25-2.16-.73-2.42-2.59-.25-1.86.48-3.23,1.6-3.48ZM34.77,121.76c-.52.12-.93.73-.8,1.67.13.94.67,1.36,1.2,1.24.53-.12.93-.74.8-1.68-.13-.94-.66-1.35-1.19-1.23Z"/>
        <path class="cls-3" d="M41.12,118.77l1.51-.34-1.67,9.35-1.5.34.64-3.24-2.63-5.27,1.56-.36,1.56,3.45.54-3.93Z"/>
      </g>
      <path class="cls-5" d="M124.45,165.2l-7.57-55.57-3.17.72c.14,1.64-.36,3.07-1.18,3.26-.82.19-1.67-.93-1.97-2.54l-3.54.81c.14,1.64-.36,3.07-1.18,3.26-.82.19-1.67-.93-1.97-2.54l-3.54.81c.14,1.64-.36,3.07-1.18,3.26-.82.19-1.67-.93-1.97-2.54l-3.54.81c.14,1.64-.36,3.07-1.18,3.26-.82.19-1.67-.93-1.97-2.54l-3.54.81c.14,1.64-.36,3.07-1.18,3.26-.82.19-1.67-.93-1.97-2.54l-3.54.81c.14,1.64-.36,3.07-1.18,3.26-.82.19-1.67-.93-1.97-2.54l-3.17.72,7.57,55.57,42.94-9.79Z"/>
      <path class="cls-4" d="M122.34,163.62l-7.6-55.79-3.17.72c.14,1.65-.36,3.08-1.18,3.27-.82.19-1.67-.94-1.97-2.55l-3.54.81c.14,1.65-.36,3.08-1.18,3.27-.82.19-1.67-.94-1.97-2.55l-3.54.81c.14,1.65-.36,3.08-1.18,3.27-.82.19-1.67-.94-1.97-2.55l-3.54.81c.14,1.65-.36,3.08-1.18,3.27-.82.19-1.67-.94-1.97-2.55l-3.54.81c.14,1.65-.36,3.08-1.18,3.27-.82.19-1.67-.94-1.97-2.55l-3.54.81c.14,1.65-.36,3.08-1.18,3.27-.82.19-1.67-.94-1.97-2.55l-3.17.72,7.6,55.79,42.94-9.79Z"/>
      <path class="cls-2" d="M122.34,163.62l-7.6-55.79-3.17.72c.14,1.65-.36,3.08-1.18,3.27-.82.19-1.67-.94-1.97-2.55l-3.54.81c.14,1.65-.36,3.08-1.18,3.27-.82.19-1.67-.94-1.97-2.55l-3.54.81c.14,1.65-.36,3.08-1.18,3.27-.82.19-1.67-.94-1.97-2.55l-3.54.81c.14,1.65-.36,3.08-1.18,3.27-.82.19-1.67-.94-1.97-2.55l-3.54.81c.14,1.65-.36,3.08-1.18,3.27-.82.19-1.67-.94-1.97-2.55l-3.54.81c.14,1.65-.36,3.08-1.18,3.27-.82.19-1.67-.94-1.97-2.55l-3.17.72,7.6,55.79,42.94-9.79Z"/>
      <path class="cls-3" d="M101,131.2l-4.67,9.51c.76-.35,1.47-.58,2.13-.73,2.03-.46,3.87-.08,5.55,1.14,1.68,1.22,2.66,2.92,2.95,5.08.34,2.5-.22,4.8-1.73,6.81-1.51,2.05-3.59,3.37-6.24,3.97-2.45.56-4.55.24-6.38-1.02-1.82-1.26-2.92-3.13-3.26-5.64-.24-1.79-.07-3.72.46-5.79.53-2.07,1.18-3.93,1.98-5.54l3.04-6.38,6.18-1.41ZM100.24,144.88c-.79-.59-1.66-.77-2.64-.55-1.08.25-1.91.82-2.56,1.74-.61.94-.85,1.94-.7,3.02.15,1.08.63,1.91,1.45,2.5.82.58,1.79.74,2.87.5.95-.22,1.71-.81,2.3-1.71.58-.94.82-1.93.67-2.98-.15-1.08-.63-1.91-1.39-2.51Z"/>
      <g>
        <path class="cls-3" d="M86.36,120.74l1.4-.32.69,5.05c.22,1.6-.42,2.61-1.55,2.87-1.18.27-2.12-.43-2.35-2.1l1.39-.32c.09.63.34.89.7.81.33-.08.49-.4.42-.95l-.69-5.05Z"/>
        <path class="cls-3" d="M94.4,126.55l-1.4.32-.11-.8c-.21.57-.65,1.04-1.26,1.18-1.05.24-1.89-.54-2.11-2.11l-.47-3.44,1.39-.32.44,3.2c.11.8.52,1.17,1.04,1.05.54-.12.82-.65.71-1.45l-.44-3.2,1.4-.32.8,5.9Z"/>
        <path class="cls-3" d="M98.11,122.4c-.11-.8-.51-1.17-1.04-1.05-.53.12-.81.64-.7,1.45l.44,3.2-1.4.32-.8-5.9,1.4-.32.11.78c.21-.56.65-1.02,1.27-1.16,1.05-.24,1.88.53,2.1,2.12l.47,3.45-1.39.32-.44-3.2Z"/>
        <path class="cls-3" d="M102.95,124.69c-1.34.3-2.46-.64-2.72-2.51-.25-1.87.53-3.25,1.89-3.56,1.33-.3,2.43.62,2.67,2.42.02.17.04.35.05.53l-3.16.72c.15.76.57,1.04,1.02.93.39-.09.58-.39.65-.74l1.49-.34c-.06,1.2-.75,2.27-1.89,2.53ZM101.56,121.29l1.75-.4c-.09-.64-.53-.92-1-.82-.46.1-.76.54-.75,1.22Z"/>
      </g>
      <path class="cls-5" d="M54.37,227.76l7.57-55.57-3.17-.72c-.3,1.61-1.15,2.73-1.97,2.54-.82-.19-1.32-1.61-1.18-3.26l-3.54-.81c-.3,1.61-1.15,2.73-1.97,2.54-.82-.19-1.32-1.61-1.18-3.26l-3.54-.81c-.3,1.61-1.15,2.73-1.97,2.54-.82-.19-1.32-1.61-1.18-3.26l-3.54-.81c-.3,1.61-1.15,2.73-1.97,2.54-.82-.19-1.32-1.61-1.18-3.26l-3.54-.81c-.3,1.61-1.15,2.73-1.97,2.54-.82-.19-1.32-1.61-1.18-3.26l-3.54-.81c-.3,1.61-1.15,2.73-1.97,2.54-.82-.19-1.32-1.61-1.18-3.26l-3.17-.72-7.57,55.57,42.94,9.79Z"/>
      <path class="cls-4" d="M52.8,225.34l7.6-55.79-3.17-.72c-.3,1.61-1.15,2.74-1.97,2.55-.82-.19-1.32-1.62-1.18-3.27l-3.54-.81c-.3,1.61-1.15,2.74-1.97,2.55-.82-.19-1.32-1.62-1.18-3.27l-3.54-.81c-.3,1.61-1.15,2.74-1.97,2.55-.82-.19-1.32-1.62-1.18-3.27l-3.54-.81c-.3,1.61-1.15,2.74-1.97,2.55-.82-.19-1.32-1.62-1.18-3.27l-3.54-.81c-.3,1.61-1.15,2.74-1.97,2.55-.82-.19-1.32-1.62-1.18-3.27l-3.54-.81c-.3,1.61-1.15,2.74-1.97,2.55-.82-.19-1.32-1.62-1.18-3.27l-3.17-.72-7.6,55.79,42.94,9.79Z"/>
      <path class="cls-2" d="M52.8,225.34l7.6-55.79-3.17-.72c-.3,1.61-1.15,2.74-1.97,2.55-.82-.19-1.32-1.62-1.18-3.27l-3.54-.81c-.3,1.61-1.15,2.74-1.97,2.55-.82-.19-1.32-1.62-1.18-3.27l-3.54-.81c-.3,1.61-1.15,2.74-1.97,2.55-.82-.19-1.32-1.62-1.18-3.27l-3.54-.81c-.3,1.61-1.15,2.74-1.97,2.55-.82-.19-1.32-1.62-1.18-3.27l-3.54-.81c-.3,1.61-1.15,2.74-1.97,2.55-.82-.19-1.32-1.62-1.18-3.27l-3.54-.81c-.3,1.61-1.15,2.74-1.97,2.55-.82-.19-1.32-1.62-1.18-3.27l-3.17-.72-7.6,55.79,42.94,9.79Z"/>
      <path class="cls-3" d="M44.04,186.01l-.59,4.3-10.98,18.5-5.72-1.31,10.99-17.83-10.17-2.32.67-4.94,15.79,3.6Z"/>
      <g>
        <path class="cls-3" d="M31.81,169.46l1.4.32-.69,5.05c-.22,1.6-1.08,2.27-2.22,2.01-1.18-.27-1.88-1.34-1.65-3.01l1.39.32c-.09.63.08.99.44,1.07.33.08.57-.15.64-.7l.69-5.05Z"/>
        <path class="cls-3" d="M37.83,178.48l-1.4-.32.11-.8c-.35.44-.89.69-1.5.55-1.05-.24-1.64-1.34-1.42-2.92l.47-3.45,1.39.32-.44,3.2c-.11.8.18,1.33.7,1.45.54.12.94-.24,1.05-1.04l.44-3.2,1.4.32-.8,5.9Z"/>
        <path class="cls-3" d="M39.9,170.89l1.4.32-1.07,7.82-1.4-.32,1.07-7.82Z"/>
        <path class="cls-3" d="M45.19,174.08l1.51.34-4.04,8.05-1.5-.34,1.46-2.76-1.08-6.12,1.56.36.55,3.93,1.55-3.45Z"/>
      </g>
      <path class="cls-5" d="M115.09,227.76l7.57-55.57-3.17-.72c-.3,1.61-1.15,2.73-1.97,2.54-.82-.19-1.32-1.61-1.18-3.26l-3.54-.81c-.3,1.61-1.15,2.73-1.97,2.54-.82-.19-1.32-1.61-1.18-3.26l-3.54-.81c-.3,1.61-1.15,2.73-1.97,2.54-.82-.19-1.32-1.61-1.18-3.26l-3.54-.81c-.3,1.61-1.15,2.73-1.97,2.54-.82-.19-1.32-1.61-1.18-3.26l-3.54-.81c-.3,1.61-1.15,2.73-1.97,2.54-.82-.19-1.32-1.61-1.18-3.26l-3.54-.81c-.3,1.61-1.15,2.73-1.97,2.54-.82-.19-1.32-1.61-1.18-3.26l-3.17-.72-7.57,55.57,42.94,9.79Z"/>
      <path class="cls-4" d="M113.53,225.34l7.6-55.79-3.17-.72c-.3,1.61-1.15,2.74-1.97,2.55-.82-.19-1.32-1.62-1.18-3.27l-3.54-.81c-.3,1.61-1.15,2.74-1.97,2.55-.82-.19-1.32-1.62-1.18-3.27l-3.54-.81c-.3,1.61-1.15,2.74-1.97,2.55-.82-.19-1.32-1.62-1.18-3.27l-3.54-.81c-.3,1.61-1.15,2.74-1.97,2.55-.82-.19-1.32-1.62-1.18-3.27l-3.54-.81c-.3,1.61-1.15,2.74-1.97,2.55-.82-.19-1.32-1.62-1.18-3.27l-3.54-.81c-.3,1.61-1.15,2.74-1.97,2.55-.82-.19-1.32-1.62-1.18-3.27l-3.17-.72-7.6,55.79,42.94,9.79Z"/>
      <path class="cls-2" d="M113.53,225.34l7.6-55.79-3.17-.72c-.3,1.61-1.15,2.74-1.97,2.55-.82-.19-1.32-1.62-1.18-3.27l-3.54-.81c-.3,1.61-1.15,2.74-1.97,2.55-.82-.19-1.32-1.62-1.18-3.27l-3.54-.81c-.3,1.61-1.15,2.74-1.97,2.55-.82-.19-1.32-1.62-1.18-3.27l-3.54-.81c-.3,1.61-1.15,2.74-1.97,2.55-.82-.19-1.32-1.62-1.18-3.27l-3.54-.81c-.3,1.61-1.15,2.74-1.97,2.55-.82-.19-1.32-1.62-1.18-3.27l-3.54-.81c-.3,1.61-1.15,2.74-1.97,2.55-.82-.19-1.32-1.62-1.18-3.27l-3.17-.72-7.6,55.79,42.94,9.79Z"/>
      <path class="cls-3" d="M87.7,188.4c.48-3.52,3.55-6.03,9.18-4.74s7.82,4.99,7.34,8.51c-.35,2.54-1.87,4.04-3.8,4.61,2.16,1.68,3.22,4.05,2.84,6.86-.67,4.94-5.01,6.81-9.88,5.7s-8.45-4.79-7.78-9.73c.38-2.81,2.01-4.6,4.45-5.2-1.69-1.43-2.71-3.41-2.35-6.01ZM91.03,200.57c-.25,1.86.83,3.54,2.99,4.03,2.13.49,3.56-.65,3.81-2.48.28-2.03-.93-3.56-2.93-4.02-2-.45-3.59.37-3.88,2.47ZM98.67,191.81c.25-1.86-.75-3.17-2.42-3.55-1.67-.38-2.95.41-3.21,2.3-.24,1.79.82,3.12,2.42,3.48,1.6.37,2.96-.44,3.2-2.23Z"/>
      <g>
        <path class="cls-3" d="M86.75,174.43l-2.14-.49-.52,1.23-1.46-.33,3.09-6.95,1.62.37,1.06,7.89-1.48-.34-.17-1.39ZM86.24,170.08l-1.07,2.56,1.41.32-.34-2.88Z"/>
        <path class="cls-3" d="M93.52,177.33l-1.4-.32.11-.8c-.35.44-.89.69-1.5.55-1.05-.24-1.64-1.34-1.42-2.92l.47-3.45,1.39.32-.44,3.2c-.11.8.18,1.33.7,1.45.54.12.94-.24,1.05-1.04l.44-3.2,1.4.32-.8,5.9Z"/>
        <path class="cls-3" d="M97.08,171.97c.67.15,1.11.66,1.28,1.24l.11-.83,1.4.32-.8,5.89c-.21,1.57-1.1,2.76-2.68,2.4-1.36-.31-2.12-1.4-2.05-2.83l1.38.31c.03.46.33.83.82.94.53.12,1-.14,1.13-1.14l.11-.83c-.32.46-.86.76-1.53.61-1.12-.25-1.85-1.64-1.59-3.5.25-1.86,1.3-2.82,2.42-2.56ZM97.27,173.64c-.52-.12-1.07.28-1.19,1.22-.13.94.27,1.58.8,1.7.53.12,1.07-.29,1.19-1.23.13-.94-.27-1.56-.8-1.69Z"/>
        <path class="cls-3" d="M104.58,179.85l-1.4-.32.11-.8c-.35.44-.89.69-1.5.55-1.05-.24-1.64-1.34-1.42-2.92l.47-3.45,1.39.32-.44,3.2c-.11.8.18,1.33.7,1.45.54.12.94-.24,1.05-1.04l.44-3.2,1.4.32-.8,5.9Z"/>
        <path class="cls-3" d="M107.43,180.59c-1.22-.28-1.91-1.34-1.82-2.5l1.38.31c-.02.42.23.76.61.85.36.08.58-.09.61-.35.13-.95-2.45-.83-2.15-3,.14-1,.91-1.68,2.1-1.41,1.18.27,1.71,1.26,1.65,2.45l-1.29-.29c.01-.41-.19-.73-.58-.82-.33-.07-.53.05-.57.34-.13.94,2.43.84,2.15,3.04-.14,1.03-.95,1.64-2.09,1.38Z"/>
        <path class="cls-3" d="M110.97,176.78l-.55-.13.2-1.5.55.13.2-1.44,1.4.32-.2,1.44.92.21-.2,1.5-.92-.21-.32,2.37c-.05.35.05.52.36.59l.5.11-.21,1.53-.71-.16c-.95-.22-1.54-.89-1.33-2.42l.32-2.35Z"/>
      </g>
      <path class="cls-5" d="M64.73,268.87l-7.57-55.57-3.17.72c.14,1.64-.36,3.07-1.18,3.26-.82.19-1.67-.93-1.97-2.54l-3.54.81c.14,1.64-.36,3.07-1.18,3.26-.82.19-1.67-.93-1.97-2.54l-3.54.81c.14,1.64-.36,3.07-1.18,3.26-.82.19-1.67-.93-1.97-2.54l-3.54.81c.14,1.64-.36,3.07-1.18,3.26-.82.19-1.67-.93-1.97-2.54l-3.54.81c.14,1.64-.36,3.07-1.18,3.26-.82.19-1.67-.93-1.97-2.54l-3.54.81c.14,1.64-.36,3.07-1.18,3.26-.82.19-1.67-.93-1.97-2.54l-3.17.72,7.57,55.57,42.94-9.79Z"/>
      <path class="cls-4" d="M62.61,267.29l-7.6-55.79-3.17.72c.14,1.65-.36,3.08-1.18,3.27-.82.19-1.67-.94-1.97-2.55l-3.54.81c.14,1.65-.36,3.08-1.18,3.27-.82.19-1.67-.94-1.97-2.55l-3.54.81c.14,1.65-.36,3.08-1.18,3.27-.82.19-1.67-.94-1.97-2.55l-3.54.81c.14,1.65-.36,3.08-1.18,3.27-.82.19-1.67-.94-1.97-2.55l-3.54.81c.14,1.65-.36,3.08-1.18,3.27-.82.19-1.67-.94-1.97-2.55l-3.54.81c.14,1.65-.36,3.08-1.18,3.27-.82.19-1.67-.94-1.97-2.55l-3.17.72,7.6,55.79,42.94-9.79Z"/>
      <path class="cls-2" d="M62.61,267.29l-7.6-55.79-3.17.72c.14,1.65-.36,3.08-1.18,3.27-.82.19-1.67-.94-1.97-2.55l-3.54.81c.14,1.65-.36,3.08-1.18,3.27-.82.19-1.67-.94-1.97-2.55l-3.54.81c.14,1.65-.36,3.08-1.18,3.27-.82.19-1.67-.94-1.97-2.55l-3.54.81c.14,1.65-.36,3.08-1.18,3.27-.82.19-1.67-.94-1.97-2.55l-3.54.81c.14,1.65-.36,3.08-1.18,3.27-.82.19-1.67-.94-1.97-2.55l-3.54.81c.14,1.65-.36,3.08-1.18,3.27-.82.19-1.67-.94-1.97-2.55l-3.17.72,7.6,55.79,42.94-9.79Z"/>
      <path class="cls-3" d="M34.2,261.88l4.78-9.71c-1.09.39-1.8.62-2.1.69-2.13.49-4,.11-5.65-1.15-1.69-1.25-2.67-3.05-2.99-5.39-.33-2.44.27-4.67,1.85-6.74,1.54-2.06,3.65-3.41,6.26-4.01,2.52-.57,4.69-.2,6.49,1.1,1.83,1.33,2.91,3.28,3.27,5.95.26,1.93.07,3.96-.58,6.1-.69,2.15-1.27,3.78-1.8,4.88l-3.18,6.83-6.34,1.45ZM39.57,241.18c-.82-.58-1.79-.74-2.87-.5-.95.22-1.75.78-2.33,1.72-.58.94-.82,1.93-.67,2.98.15,1.08.63,1.88,1.42,2.47.82.58,1.72.72,2.7.5,1.05-.24,1.85-.8,2.5-1.72.62-.91.89-1.88.75-2.93-.15-1.08-.67-1.94-1.49-2.52Z"/>
      <g>
        <path class="cls-3" d="M18.31,234.02c-1.01.23-1.91-.38-2.15-1.87l1.22-.28c.11.56.38.79.7.71.34-.08.51-.39.46-.82-.19-1.37-2.44-.1-2.79-2.73-.19-1.41.43-2.35,1.42-2.58,1.03-.23,1.83.41,2.07,1.82l-1.24.28c-.08-.47-.34-.71-.65-.65-.28.05-.46.32-.39.79.18,1.29,2.43.18,2.76,2.66.17,1.25-.31,2.42-1.41,2.67Z"/>
        <path class="cls-3" d="M22.39,233.1c-1.1.25-2.05-.73-2.3-2.6s.36-3.21,1.48-3.46c1.09-.25,2.02.72,2.27,2.51.02.17.04.35.05.53l-2.6.59c.15.76.5,1.05.86.97.32-.07.47-.37.52-.71l1.22-.28c-.02,1.19-.57,2.23-1.5,2.44ZM21.16,229.67l1.44-.33c-.09-.64-.46-.94-.84-.85-.38.09-.61.51-.59,1.18Z"/>
        <path class="cls-3" d="M26.33,225.95c.92-.21,1.81.79,2.06,2.65s-.32,3.21-1.24,3.42c-.55.12-1-.2-1.28-.64l.5,3.63-1.15.26-1.19-8.71,1.15-.26.11.83c.14-.57.48-1.06,1.03-1.18ZM26.21,227.6c-.43.1-.75.7-.62,1.64.13.94.59,1.37,1.02,1.27.44-.1.75-.72.62-1.66s-.59-1.36-1.02-1.26Z"/>
        <path class="cls-3" d="M28.98,226.98l-.46.1-.2-1.5.46-.1-.2-1.44,1.15-.26.2,1.44.75-.17.2,1.5-.75.17.32,2.37c.05.35.16.48.42.42l.41-.09.21,1.53-.58.13c-.78.18-1.39-.22-1.6-1.75l-.32-2.34Z"/>
        <path class="cls-3" d="M33.79,230.5c-1.1.25-2.05-.73-2.31-2.6s.36-3.21,1.48-3.46c1.09-.25,2.02.72,2.27,2.51.02.17.04.35.05.53l-2.6.59c.15.76.5,1.05.86.97.32-.07.47-.37.52-.71l1.22-.28c-.02,1.19-.57,2.23-1.5,2.44ZM32.56,227.07l1.44-.33c-.09-.64-.46-.94-.84-.85-.38.09-.62.51-.59,1.18Z"/>
        <path class="cls-3" d="M40.97,225.48c-.11-.77-.44-1.13-.88-1.03s-.66.59-.56,1.36l.44,3.2-1.14.26-.44-3.2c-.1-.77-.44-1.13-.88-1.03s-.66.59-.56,1.36l.44,3.2-1.15.26-.8-5.9,1.15-.26.1.74c.16-.53.49-.94.98-1.05.56-.13,1.07.16,1.42.81.16-.68.57-1.26,1.11-1.39.93-.21,1.65.58,1.87,2.17l.47,3.45-1.14.26-.44-3.2Z"/>
        <path class="cls-3" d="M44.83,221.73c.93-.21,1.81.79,2.06,2.65s-.32,3.21-1.24,3.42c-.55.13-1-.17-1.28-.64l.11.82-1.15.26-1.07-7.82,1.15-.26.38,2.76c.14-.58.49-1.06,1.03-1.18ZM44.7,223.39c-.43.1-.75.7-.62,1.64.13.94.59,1.37,1.02,1.27.44-.1.75-.72.62-1.66-.13-.94-.59-1.36-1.02-1.26Z"/>
        <path class="cls-3" d="M49.57,226.9c-1.1.25-2.05-.73-2.31-2.6s.36-3.21,1.48-3.46c1.09-.25,2.02.72,2.27,2.51.02.17.04.35.05.53l-2.6.59c.15.76.5,1.05.86.97.32-.07.47-.37.52-.71l1.22-.28c-.02,1.19-.57,2.23-1.5,2.44ZM48.34,223.47l1.44-.33c-.09-.64-.46-.94-.84-.85-.38.09-.62.51-.59,1.18Z"/>
        <path class="cls-3" d="M53.17,226l-1.15.26-.8-5.9,1.15-.26.13.98c.18-.68.53-1.2,1.03-1.31l.26,1.91-.31.07c-.54.12-.82.49-.68,1.51l.37,2.74Z"/>
      </g>
      <path class="cls-5" d="M125.45,268.87l-7.57-55.57-3.17.72c.14,1.64-.36,3.07-1.18,3.26-.82.19-1.67-.93-1.97-2.54l-3.54.81c.14,1.64-.36,3.07-1.18,3.26-.82.19-1.67-.93-1.97-2.54l-3.54.81c.14,1.64-.36,3.07-1.18,3.26-.82.19-1.67-.93-1.97-2.54l-3.54.81c.14,1.64-.36,3.07-1.18,3.26-.82.19-1.67-.93-1.97-2.54l-3.54.81c.14,1.64-.36,3.07-1.18,3.26-.82.19-1.67-.93-1.97-2.54l-3.54.81c.14,1.64-.36,3.07-1.18,3.26-.82.19-1.67-.93-1.97-2.54l-3.17.72,7.57,55.57,42.94-9.79Z"/>
      <path class="cls-4" d="M123.34,267.29l-7.6-55.79-3.17.72c.14,1.65-.36,3.08-1.18,3.27-.82.19-1.67-.94-1.97-2.55l-3.54.81c.14,1.65-.36,3.08-1.18,3.27-.82.19-1.67-.94-1.97-2.55l-3.54.81c.14,1.65-.36,3.08-1.18,3.27-.82.19-1.67-.94-1.97-2.55l-3.54.81c.14,1.65-.36,3.08-1.18,3.27-.82.19-1.67-.94-1.97-2.55l-3.54.81c.14,1.65-.36,3.08-1.18,3.27-.82.19-1.67-.94-1.97-2.55l-3.54.81c.14,1.65-.36,3.08-1.18,3.27-.82.19-1.67-.94-1.97-2.55l-3.17.72,7.6,55.79,42.94-9.79Z"/>
      <path class="cls-2" d="M123.34,267.29l-7.6-55.79-3.17.72c.14,1.65-.36,3.08-1.18,3.27-.82.19-1.67-.94-1.97-2.55l-3.54.81c.14,1.65-.36,3.08-1.18,3.27-.82.19-1.67-.94-1.97-2.55l-3.54.81c.14,1.65-.36,3.08-1.18,3.27-.82.19-1.67-.94-1.97-2.55l-3.54.81c.14,1.65-.36,3.08-1.18,3.27-.82.19-1.67-.94-1.97-2.55l-3.54.81c.14,1.65-.36,3.08-1.18,3.27-.82.19-1.67-.94-1.97-2.55l-3.54.81c.14,1.65-.36,3.08-1.18,3.27-.82.19-1.67-.94-1.97-2.55l-3.17.72,7.6,55.79,42.94-9.79Z"/>
      <g>
        <path class="cls-3" d="M88.32,237.98l3.36,24.63-5.79,1.32-3.36-24.63,5.79-1.32Z"/>
        <path class="cls-3" d="M102.82,234.08c6.8-1.55,9.91,3.18,10.89,10.42,1,7.31-.67,13.13-7.47,14.68-6.8,1.55-9.91-3.18-10.9-10.49-.99-7.24.68-13.06,7.48-14.62ZM103.56,239.5c-3.3.75-3.24,4.16-2.73,7.95.54,3.92,1.37,7.08,4.67,6.33,3.3-.75,3.25-4.09,2.72-8.02-.52-3.79-1.36-7.02-4.66-6.26Z"/>
      </g>
      <g>
        <path class="cls-3" d="M82.29,233.28c-1.63.37-3.16-.9-3.47-3.13-.3-2.23.81-4.1,2.43-4.47,1.63-.37,3.15.89,3.45,3.12.3,2.23-.79,4.1-2.41,4.47ZM82.07,231.63c.91-.21,1.39-1.2,1.22-2.5s-.89-2.02-1.8-1.81c-.93.21-1.41,1.18-1.23,2.5s.88,2.02,1.81,1.81Z"/>
        <path class="cls-3" d="M87.19,225.92c1.14-.26,2.06.37,2.49,1.72l-1.49.34c-.17-.39-.44-.6-.82-.51-.5.11-.77.7-.64,1.68.13.98.55,1.41,1.04,1.3.38-.09.57-.38.64-.84l1.49-.34c-.05,1.42-.74,2.46-1.89,2.72-1.34.3-2.45-.64-2.7-2.51-.25-1.86.53-3.25,1.87-3.56Z"/>
        <path class="cls-3" d="M90.56,226.79l-.56.13-.2-1.5.56-.13-.2-1.44,1.4-.32.2,1.44.91-.21.2,1.5-.91.21.32,2.37c.05.35.18.47.49.4l.5-.11.21,1.53-.71.16c-.95.22-1.68-.15-1.89-1.68l-.32-2.35Z"/>
        <path class="cls-3" d="M96.35,230.09c-1.34.31-2.51-.62-2.77-2.5-.25-1.87.62-3.27,1.96-3.58,1.34-.3,2.53.62,2.78,2.49.25,1.87-.63,3.27-1.97,3.58ZM96.13,228.52c.5-.11.9-.7.76-1.69-.14-1-.66-1.36-1.15-1.25-.51.12-.88.68-.75,1.69.13.99.62,1.37,1.13,1.26Z"/>
        <path class="cls-3" d="M101.45,222.67c1.13-.26,2.17.71,2.42,2.57.25,1.86-.48,3.25-1.59,3.5-.67.15-1.21-.13-1.53-.59l.11.82-1.4.32-1.07-7.82,1.4-.32.38,2.76c.18-.59.63-1.09,1.28-1.24ZM101.25,224.34c-.52.12-.93.74-.8,1.68.13.94.67,1.35,1.2,1.23.53-.12.93-.76.8-1.7-.13-.94-.67-1.34-1.2-1.22Z"/>
        <path class="cls-3" d="M107.06,227.64c-1.34.31-2.46-.64-2.72-2.51-.25-1.87.53-3.25,1.89-3.56,1.33-.3,2.43.62,2.67,2.42.02.17.04.35.05.53l-3.16.72c.15.76.57,1.04,1.02.93.39-.09.58-.39.65-.74l1.49-.34c-.06,1.2-.75,2.27-1.89,2.53ZM105.66,224.25l1.75-.4c-.09-.64-.53-.92-1-.82-.46.1-.76.54-.75,1.22Z"/>
        <path class="cls-3" d="M111.45,226.56l-1.4.32-.8-5.9,1.4-.32.13.98c.23-.7.67-1.23,1.29-1.37l.26,1.91-.38.09c-.66.15-1,.53-.87,1.55l.37,2.74Z"/>
      </g>
      <path class="cls-5" d="M51.37,329.64l7.57-55.57-3.17-.72c-.3,1.61-1.15,2.73-1.97,2.54-.82-.19-1.32-1.61-1.18-3.26l-3.54-.81c-.3,1.61-1.15,2.73-1.97,2.54-.82-.19-1.32-1.61-1.18-3.26l-3.54-.81c-.3,1.61-1.15,2.73-1.97,2.54-.82-.19-1.32-1.61-1.18-3.26l-3.54-.81c-.3,1.61-1.15,2.73-1.97,2.54-.82-.19-1.32-1.61-1.18-3.26l-3.54-.81c-.3,1.61-1.15,2.73-1.97,2.54-.82-.19-1.32-1.61-1.18-3.26l-3.54-.81c-.3,1.61-1.15,2.73-1.97,2.54-.82-.19-1.32-1.61-1.18-3.26l-3.17-.72-7.57,55.57,42.94,9.79Z"/>
      <path class="cls-4" d="M49.8,327.22l7.6-55.79-3.17-.72c-.3,1.61-1.15,2.74-1.97,2.55-.82-.19-1.32-1.62-1.18-3.27l-3.54-.81c-.3,1.61-1.15,2.74-1.97,2.55-.82-.19-1.32-1.62-1.18-3.27l-3.54-.81c-.3,1.61-1.15,2.74-1.97,2.55-.82-.19-1.32-1.62-1.18-3.27l-3.54-.81c-.3,1.61-1.15,2.74-1.97,2.55-.82-.19-1.32-1.62-1.18-3.27l-3.54-.81c-.3,1.61-1.15,2.74-1.97,2.55-.82-.19-1.32-1.62-1.18-3.27l-3.54-.81c-.3,1.61-1.15,2.74-1.97,2.55-.82-.19-1.32-1.62-1.18-3.27l-3.17-.72-7.6,55.79,42.94,9.79Z"/>
      <path class="cls-2" d="M49.8,327.22l7.6-55.79-3.17-.72c-.3,1.61-1.15,2.74-1.97,2.55-.82-.19-1.32-1.62-1.18-3.27l-3.54-.81c-.3,1.61-1.15,2.74-1.97,2.55-.82-.19-1.32-1.62-1.18-3.27l-3.54-.81c-.3,1.61-1.15,2.74-1.97,2.55-.82-.19-1.32-1.62-1.18-3.27l-3.54-.81c-.3,1.61-1.15,2.74-1.97,2.55-.82-.19-1.32-1.62-1.18-3.27l-3.54-.81c-.3,1.61-1.15,2.74-1.97,2.55-.82-.19-1.32-1.62-1.18-3.27l-3.54-.81c-.3,1.61-1.15,2.74-1.97,2.55-.82-.19-1.32-1.62-1.18-3.27l-3.17-.72-7.6,55.79,42.94,9.79Z"/>
      <g>
        <path class="cls-3" d="M29.15,285.22l-3.36,24.63-5.79-1.32,3.36-24.63,5.79,1.32Z"/>
        <path class="cls-3" d="M41.44,288.02l-3.36,24.63-5.79-1.32,3.36-24.63,5.79,1.32Z"/>
      </g>
      <g>
        <path class="cls-3" d="M21.17,269.6l-1.01,7.42-1.17-.27-1.34-5.02-.62,4.58-1.17-.27,1.01-7.42,1.17.27,1.34,5.05.63-4.6,1.17.27Z"/>
        <path class="cls-3" d="M22.74,277.69c-1.13-.26-1.82-1.61-1.57-3.49.25-1.87,1.29-2.83,2.41-2.58,1.13.26,1.83,1.62,1.58,3.49-.25,1.87-1.29,2.83-2.42,2.58ZM22.95,276.13c.42.09.88-.29,1.01-1.28.14-1-.18-1.56-.6-1.65-.43-.1-.86.28-1,1.29-.14.99.16,1.55.58,1.65Z"/>
        <path class="cls-3" d="M27.08,272.51l.26,4.4,1.41-4.02,1.25.29-2.17,5.59-1.45-.33-.56-6.21,1.26.29Z"/>
        <path class="cls-3" d="M31.37,279.66c-1.13-.26-1.78-1.61-1.52-3.48.25-1.87,1.21-2.85,2.35-2.59,1.12.25,1.76,1.58,1.51,3.37-.02.17-.06.35-.09.52l-2.66-.61c-.06.78.2,1.21.57,1.3.33.08.55-.14.69-.43l1.25.29c-.34,1.11-1.15,1.84-2.1,1.62ZM31.1,275.88l1.47.33c.09-.64-.19-1.09-.58-1.18-.38-.09-.73.2-.89.84Z"/>
        <path class="cls-3" d="M39.63,278.16c.1-.77-.13-1.26-.57-1.36-.45-.1-.79.25-.9,1.03l-.44,3.2-1.17-.27.44-3.2c.1-.77-.13-1.26-.57-1.36-.45-.1-.79.25-.9,1.03l-.44,3.2-1.17-.27.8-5.9,1.17.27-.1.74c.29-.42.73-.66,1.23-.55.58.13.99.63,1.15,1.4.34-.57.89-.93,1.44-.8.95.22,1.43,1.29,1.22,2.87l-.47,3.45-1.17-.27.44-3.2Z"/>
        <path class="cls-3" d="M44.35,276.37c.95.22,1.53,1.55,1.28,3.41-.25,1.86-1.16,2.87-2.1,2.66-.56-.13-.92-.61-1.06-1.18l-.11.82-1.17-.27,1.07-7.82,1.17.27-.38,2.76c.29-.48.76-.77,1.31-.65ZM43.79,277.86c-.44-.1-.91.33-1.04,1.27-.13.94.2,1.55.64,1.65.45.1.92-.33,1.05-1.28.13-.94-.2-1.54-.65-1.64Z"/>
        <path class="cls-3" d="M47.54,283.35c-1.13-.26-1.78-1.61-1.52-3.48.25-1.87,1.21-2.85,2.35-2.59,1.12.25,1.76,1.58,1.51,3.37-.02.17-.06.35-.09.52l-2.66-.61c-.06.78.2,1.21.57,1.3.33.08.55-.14.69-.43l1.25.29c-.34,1.11-1.14,1.84-2.1,1.62ZM47.26,279.57l1.47.33c.09-.64-.19-1.09-.58-1.18-.38-.09-.73.2-.89.84Z"/>
        <path class="cls-3" d="M51.25,284.11l-1.17-.27.8-5.9,1.17.27-.13.98c.35-.56.83-.89,1.34-.77l-.26,1.91-.32-.07c-.56-.13-.92.09-1.06,1.11l-.37,2.74Z"/>
      </g>
      <path class="cls-5" d="M112.09,329.64l7.57-55.57-3.17-.72c-.3,1.61-1.15,2.73-1.97,2.54-.82-.19-1.32-1.61-1.18-3.26l-3.54-.81c-.3,1.61-1.15,2.73-1.97,2.54-.82-.19-1.32-1.61-1.18-3.26l-3.54-.81c-.3,1.61-1.15,2.73-1.97,2.54-.82-.19-1.32-1.61-1.18-3.26l-3.54-.81c-.3,1.61-1.15,2.73-1.97,2.54-.82-.19-1.32-1.61-1.18-3.26l-3.54-.81c-.3,1.61-1.15,2.73-1.97,2.54-.82-.19-1.32-1.61-1.18-3.26l-3.54-.81c-.3,1.61-1.15,2.73-1.97,2.54-.82-.19-1.32-1.61-1.18-3.26l-3.17-.72-7.57,55.57,42.94,9.79Z"/>
      <path class="cls-4" d="M110.53,327.22l7.6-55.79-3.17-.72c-.3,1.61-1.15,2.74-1.97,2.55-.82-.19-1.32-1.62-1.18-3.27l-3.54-.81c-.3,1.61-1.15,2.74-1.97,2.55-.82-.19-1.32-1.62-1.18-3.27l-3.54-.81c-.3,1.61-1.15,2.74-1.97,2.55-.82-.19-1.32-1.62-1.18-3.27l-3.54-.81c-.3,1.61-1.15,2.74-1.97,2.55-.82-.19-1.32-1.62-1.18-3.27l-3.54-.81c-.3,1.61-1.15,2.74-1.97,2.55-.82-.19-1.32-1.62-1.18-3.27l-3.54-.81c-.3,1.61-1.15,2.74-1.97,2.55-.82-.19-1.32-1.62-1.18-3.27l-3.17-.72-7.6,55.79,42.94,9.79Z"/>
      <path class="cls-2" d="M110.53,327.22l7.6-55.79-3.17-.72c-.3,1.61-1.15,2.74-1.97,2.55-.82-.19-1.32-1.62-1.18-3.27l-3.54-.81c-.3,1.61-1.15,2.74-1.97,2.55-.82-.19-1.32-1.62-1.18-3.27l-3.54-.81c-.3,1.61-1.15,2.74-1.97,2.55-.82-.19-1.32-1.62-1.18-3.27l-3.54-.81c-.3,1.61-1.15,2.74-1.97,2.55-.82-.19-1.32-1.62-1.18-3.27l-3.54-.81c-.3,1.61-1.15,2.74-1.97,2.55-.82-.19-1.32-1.62-1.18-3.27l-3.54-.81c-.3,1.61-1.15,2.74-1.97,2.55-.82-.19-1.32-1.62-1.18-3.27l-3.17-.72-7.6,55.79,42.94,9.79Z"/>
      <g>
        <path class="cls-3" d="M86.69,284.49l-3.36,24.63-5.79-1.32,3.36-24.63,5.79,1.32Z"/>
        <path class="cls-3" d="M89.16,305.67c5.66-3.17,11.64-6.24,12.21-10.4.24-1.79-.38-3.12-2.08-3.51-1.67-.38-2.83.75-3.15,3.08l-5.39-1.23c.98-5.95,5.09-7.67,9.44-6.67,5.43,1.24,7.4,5.07,6.83,9.23-.74,5.41-6,8.68-10.21,10.82l8.83,2.01-.64,4.7-16.42-3.74.59-4.3Z"/>
      </g>
      <g>
        <path class="cls-3" d="M81.48,273.33c-.3,2.2-1.51,3.48-3.06,3.13l-1.83-.42,1.01-7.42,1.83.42c1.56.35,2.35,2.08,2.05,4.29ZM78.55,274.87c.9.2,1.53-.46,1.72-1.82.19-1.36-.23-2.29-1.13-2.49l-.56-.13-.59,4.31.56.13Z"/>
        <path class="cls-3" d="M83.35,277.67c-1.14-.26-1.8-1.61-1.55-3.48.26-1.87,1.22-2.85,2.37-2.59,1.13.26,1.78,1.58,1.53,3.38-.02.17-.06.35-.09.52l-2.69-.61c-.06.78.2,1.21.58,1.3.33.08.56-.13.7-.43l1.26.29c-.34,1.11-1.15,1.84-2.12,1.62ZM83.07,273.89l1.49.34c.09-.64-.2-1.09-.59-1.18-.39-.09-.74.2-.9.84Z"/>
        <path class="cls-3" d="M88.44,272.57c.97.22,1.55,1.19,1.56,2.64l-1.26-.29c-.04-.43-.2-.74-.53-.82-.42-.1-.78.34-.92,1.33-.13.98.09,1.56.51,1.65.33.07.55-.13.71-.54l1.26.29c-.39,1.32-1.19,2.02-2.16,1.79-1.14-.26-1.79-1.61-1.53-3.48.25-1.86,1.22-2.85,2.36-2.59Z"/>
        <path class="cls-3" d="M91.83,279.6c-1.14-.26-1.8-1.61-1.55-3.48.26-1.87,1.22-2.85,2.37-2.59,1.13.26,1.78,1.58,1.53,3.38-.02.17-.06.35-.09.52l-2.69-.61c-.06.78.2,1.21.58,1.3.33.08.56-.13.7-.43l1.26.29c-.34,1.11-1.15,1.84-2.12,1.62ZM91.55,275.82l1.49.34c.09-.64-.2-1.09-.59-1.18-.39-.09-.74.2-.9.84Z"/>
        <path class="cls-3" d="M100.18,278.11c.11-.77-.13-1.26-.58-1.36-.45-.1-.8.25-.91,1.02l-.44,3.2-1.18-.27.44-3.2c.11-.77-.13-1.26-.58-1.36-.45-.1-.8.25-.91,1.03l-.44,3.2-1.19-.27.8-5.9,1.19.27-.1.74c.29-.42.73-.66,1.24-.54.58.13,1,.63,1.17,1.4.34-.57.89-.93,1.46-.8.96.22,1.45,1.29,1.23,2.88l-.47,3.45-1.18-.27.44-3.2Z"/>
        <path class="cls-3" d="M104.96,276.34c.96.22,1.55,1.55,1.3,3.41-.25,1.86-1.17,2.87-2.12,2.65-.57-.13-.93-.62-1.07-1.18l-.11.82-1.19-.27,1.07-7.82,1.19.27-.38,2.76c.29-.48.77-.77,1.32-.65ZM104.39,277.83c-.44-.1-.92.33-1.05,1.27-.13.94.2,1.55.65,1.65.45.1.93-.33,1.06-1.27.13-.94-.21-1.54-.66-1.64Z"/>
        <path class="cls-3" d="M108.19,283.33c-1.14-.26-1.8-1.61-1.55-3.48.26-1.87,1.22-2.85,2.37-2.59,1.13.26,1.78,1.58,1.53,3.38-.02.17-.05.35-.09.52l-2.69-.61c-.06.78.2,1.21.58,1.3.33.08.56-.13.7-.43l1.26.29c-.34,1.11-1.15,1.84-2.12,1.62ZM107.91,279.55l1.49.34c.09-.64-.2-1.09-.59-1.18-.39-.09-.74.2-.9.84Z"/>
        <path class="cls-3" d="M111.94,284.1l-1.19-.27.8-5.9,1.19.27-.13.98c.36-.56.84-.89,1.36-.77l-.26,1.91-.33-.07c-.56-.13-.93.09-1.07,1.11l-.37,2.74Z"/>
      </g>
    </g>
  </g>
</svg>