<?xml version="1.0" encoding="UTF-8"?>
<svg id="Layer_2" data-name="Layer 2" xmlns="http://www.w3.org/2000/svg" xmlns:xlink="http://www.w3.org/1999/xlink" viewBox="0 0 125.45 329.64">
  <defs>
    <style>
      .cls-1 {
        font-size: 8.34px;
      }

      .cls-1, .cls-2, .cls-3, .cls-4, .cls-5, .cls-6, .cls-7 {
        fill: #231f20;
        font-family: MyriadPro-Regular, 'Myriad Pro';
      }

      .cls-8 {
        stroke-width: .83px;
      }

      .cls-8, .cls-9, .cls-10 {
        fill: none;
      }

      .cls-8, .cls-10 {
        stroke: #231f20;
      }

      .cls-2 {
        font-size: 7.07px;
      }

      .cls-11 {
        letter-spacing: 0em;
      }

      .cls-12 {
        letter-spacing: .02em;
      }

      .cls-13 {
        letter-spacing: 0em;
      }

      .cls-14 {
        letter-spacing: 0em;
      }

      .cls-15 {
        letter-spacing: 0em;
      }

      .cls-16 {
        fill: #fff;
      }

      .cls-17 {
        letter-spacing: -.03em;
      }

      .cls-18 {
        letter-spacing: 0em;
      }

      .cls-19 {
        fill: #c7c8ca;
      }

      .cls-3 {
        font-size: 7.15px;
      }

      .cls-20 {
        letter-spacing: 0em;
      }

      .cls-21 {
        letter-spacing: 0em;
      }

      .cls-22 {
        letter-spacing: 0em;
      }

      .cls-23 {
        letter-spacing: 0em;
      }

      .cls-24 {
        letter-spacing: 0em;
      }

      .cls-25 {
        letter-spacing: 0em;
      }

      .cls-26 {
        letter-spacing: .02em;
      }

      .cls-27 {
        letter-spacing: 0em;
      }

      .cls-28 {
        letter-spacing: 0em;
      }

      .cls-10 {
        stroke-width: .84px;
      }

      .cls-29 {
        letter-spacing: 0em;
      }

      .cls-30 {
        letter-spacing: .01em;
      }

      .cls-4 {
        font-size: 8.42px;
      }

      .cls-31 {
        letter-spacing: -.01em;
      }

      .cls-32 {
        letter-spacing: 0em;
      }

      .cls-5 {
        font-size: 6.9px;
      }

      .cls-33 {
        letter-spacing: 0em;
      }

      .cls-6 {
        font-size: 33.67px;
      }

      .cls-7 {
        font-size: 33.37px;
      }

      .cls-34 {
        clip-path: url(#clippath);
      }
    </style>
    <clipPath id="clippath">
      <rect class="cls-9" width="125.45" height="329.64"/>
    </clipPath>
  </defs>
  <g id="Layer_1-2" data-name="Layer 1">
    <g class="cls-34">
      <path class="cls-19" d="M50.41,58.59L45.85,2.47l-3.2.44c.05,1.65-.52,3.03-1.35,3.14-.83.11-1.61-1.08-1.83-2.71l-3.57.49c.05,1.65-.52,3.03-1.35,3.14-.83.11-1.61-1.08-1.83-2.71l-3.57.49c.05,1.65-.52,3.03-1.35,3.14s-1.61-1.08-1.83-2.71l-3.57.49c.05,1.65-.52,3.03-1.35,3.14s-1.61-1.08-1.83-2.71l-3.57.49c.05,1.65-.52,3.03-1.35,3.14-.83.11-1.61-1.08-1.83-2.71l-3.57.49c.05,1.65-.52,3.03-1.35,3.14-.83.11-1.61-1.08-1.83-2.71l-3.2.44,4.56,56.11,43.36-5.9Z"/>
      <path class="cls-16" d="M48.39,56.82L43.81.47l-3.2.44c.05,1.66-.52,3.04-1.35,3.15-.83.11-1.61-1.09-1.83-2.72l-3.57.49c.05,1.66-.52,3.04-1.35,3.16-.83.11-1.61-1.09-1.83-2.72l-3.57.49c.05,1.66-.52,3.04-1.35,3.15s-1.61-1.09-1.83-2.72l-3.57.49c.05,1.66-.52,3.04-1.35,3.15-.83.11-1.61-1.09-1.83-2.72l-3.57.49c.05,1.66-.52,3.04-1.35,3.15-.83.11-1.61-1.09-1.83-2.72l-3.57.49c.05,1.66-.52,3.04-1.35,3.15-.83.11-1.61-1.09-1.83-2.72l-3.2.44,4.58,56.35,43.36-5.9Z"/>
      <path class="cls-8" d="M48.39,56.82L43.81.47l-3.2.44c.05,1.66-.52,3.04-1.35,3.15-.83.11-1.61-1.09-1.83-2.72l-3.57.49c.05,1.66-.52,3.04-1.35,3.16-.83.11-1.61-1.09-1.83-2.72l-3.57.49c.05,1.66-.52,3.04-1.35,3.15-.83.11-1.61-1.09-1.83-2.72l-3.57.49c.05,1.66-.52,3.04-1.35,3.15-.83.11-1.61-1.09-1.83-2.72l-3.57.49c.05,1.66-.52,3.04-1.35,3.15-.83.11-1.61-1.09-1.83-2.72l-3.57.49c.05,1.66-.52,3.04-1.35,3.15-.83.11-1.61-1.09-1.83-2.72l-3.2.44,4.58,56.35,43.36-5.9Z"/>
      <text class="cls-7" transform="translate(16.05 36.48) rotate(-7.74) scale(1 1.03) skewX(-3.18)"><tspan x="0" y="0">1</tspan></text>
      <text class="cls-1" transform="translate(9.45 15.85) rotate(-7.74) scale(1 1.28) skewX(-3.98)"><tspan x="0" y="0">Janua</tspan><tspan class="cls-26" x="20.36" y="0">r</tspan><tspan x="23.29" y="0">y</tspan></text>
      <path class="cls-19" d="M111.13,58.59l-4.56-56.11-3.2.44c.05,1.65-.52,3.03-1.35,3.14-.83.11-1.61-1.08-1.83-2.71l-3.57.49c.05,1.65-.52,3.03-1.35,3.14-.83.11-1.61-1.08-1.83-2.71l-3.57.49c.05,1.65-.52,3.03-1.35,3.14s-1.61-1.08-1.83-2.71l-3.57.49c.05,1.65-.52,3.03-1.35,3.14-.83.11-1.61-1.08-1.83-2.71l-3.57.49c.05,1.65-.52,3.03-1.35,3.14-.83.11-1.61-1.08-1.83-2.71l-3.57.49c.05,1.65-.52,3.03-1.35,3.14-.83.11-1.61-1.08-1.83-2.71l-3.2.44,4.56,56.11,43.36-5.9Z"/>
      <path class="cls-16" d="M109.11,56.82L104.53.47l-3.2.44c.05,1.66-.52,3.04-1.35,3.15-.83.11-1.61-1.09-1.83-2.72l-3.57.49c.05,1.66-.52,3.04-1.35,3.16-.83.11-1.61-1.09-1.83-2.72l-3.57.49c.05,1.66-.52,3.04-1.35,3.15s-1.61-1.09-1.83-2.72l-3.57.49c.05,1.66-.52,3.04-1.35,3.16-.83.11-1.61-1.09-1.83-2.72l-3.57.49c.05,1.66-.52,3.04-1.35,3.15-.83.11-1.61-1.09-1.83-2.72l-3.57.49c.05,1.66-.52,3.04-1.35,3.15s-1.61-1.09-1.83-2.72l-3.2.44,4.58,56.35,43.36-5.9Z"/>
      <path class="cls-8" d="M109.11,56.82L104.53.47l-3.2.44c.05,1.66-.52,3.04-1.35,3.15-.83.11-1.61-1.09-1.83-2.72l-3.57.49c.05,1.66-.52,3.04-1.35,3.16-.83.11-1.61-1.09-1.83-2.72l-3.57.49c.05,1.66-.52,3.04-1.35,3.15-.83.11-1.61-1.09-1.83-2.72l-3.57.49c.05,1.66-.52,3.04-1.35,3.16s-1.61-1.09-1.83-2.72l-3.57.49c.05,1.66-.52,3.04-1.35,3.15-.83.11-1.61-1.09-1.83-2.72l-3.57.49c.05,1.66-.52,3.04-1.35,3.15-.83.11-1.61-1.09-1.83-2.72l-3.2.44,4.58,56.35,43.36-5.9Z"/>
      <text class="cls-7" transform="translate(76.78 36.48) rotate(-7.74) scale(1 1.03) skewX(-3.18)"><tspan x="0" y="0">2</tspan></text>
      <text class="cls-1" transform="translate(68.33 16.1) rotate(-7.74) scale(1 1.28) skewX(-3.98)"><tspan class="cls-17" x="0" y="0">F</tspan><tspan x="3.8" y="0">ebrua</tspan><tspan class="cls-12" x="24.08" y="0">r</tspan><tspan x="27" y="0">y</tspan></text>
      <path class="cls-19" d="M46.37,121.34l7.57-55.57-3.17-.72c-.3,1.61-1.15,2.73-1.97,2.54-.82-.19-1.32-1.61-1.18-3.26l-3.54-.81c-.3,1.61-1.15,2.73-1.97,2.54-.82-.19-1.32-1.61-1.18-3.26l-3.54-.81c-.3,1.61-1.15,2.73-1.97,2.54-.82-.19-1.32-1.61-1.18-3.26l-3.54-.81c-.3,1.61-1.15,2.73-1.97,2.54-.82-.19-1.32-1.61-1.18-3.26l-3.54-.81c-.3,1.61-1.15,2.73-1.97,2.54-.82-.19-1.32-1.61-1.18-3.26l-3.54-.81c-.3,1.61-1.15,2.73-1.97,2.54-.82-.19-1.32-1.61-1.18-3.26l-3.17-.72-7.57,55.57,42.94,9.79Z"/>
      <path class="cls-16" d="M44.8,118.92l7.6-55.79-3.17-.72c-.3,1.61-1.15,2.74-1.97,2.55-.82-.19-1.32-1.62-1.18-3.27l-3.54-.81c-.3,1.61-1.15,2.74-1.97,2.55-.82-.19-1.32-1.62-1.18-3.27l-3.54-.81c-.3,1.61-1.15,2.74-1.97,2.55-.82-.19-1.32-1.62-1.18-3.27l-3.54-.81c-.3,1.61-1.15,2.74-1.97,2.55-.82-.19-1.32-1.62-1.18-3.27l-3.54-.81c-.3,1.61-1.15,2.74-1.97,2.55-.82-.19-1.32-1.62-1.18-3.27l-3.54-.81c-.3,1.61-1.15,2.74-1.97,2.55-.82-.19-1.32-1.62-1.18-3.27l-3.17-.72L1.86,109.12l42.94,9.79Z"/>
      <path class="cls-10" d="M44.8,118.92l7.6-55.79-3.17-.72c-.3,1.61-1.15,2.74-1.97,2.55-.82-.19-1.32-1.62-1.18-3.27l-3.54-.81c-.3,1.61-1.15,2.74-1.97,2.55-.82-.19-1.32-1.62-1.18-3.27l-3.54-.81c-.3,1.61-1.15,2.74-1.97,2.55-.82-.19-1.32-1.62-1.18-3.27l-3.54-.81c-.3,1.61-1.15,2.74-1.97,2.55-.82-.19-1.32-1.62-1.18-3.27l-3.54-.81c-.3,1.61-1.15,2.74-1.97,2.55-.82-.19-1.32-1.62-1.18-3.27l-3.54-.81c-.3,1.61-1.15,2.74-1.97,2.55-.82-.19-1.32-1.62-1.18-3.27l-3.17-.72L1.86,109.12l42.94,9.79Z"/>
      <text class="cls-6" transform="translate(18.05 87.84) rotate(12.85) scale(1 1.01) skewX(5.16)"><tspan x="0" y="0">3</tspan></text>
      <text class="cls-4" transform="translate(18.76 66.26) rotate(12.85) scale(1 1.26) skewX(6.44)"><tspan class="cls-21" x="0" y="0">M</tspan><tspan x="6.82" y="0">a</tspan><tspan class="cls-14" x="10.87" y="0">r</tspan><tspan x="13.55" y="0">ch</tspan></text>
      <path class="cls-19" d="M107.09,121.34l7.57-55.57-3.17-.72c-.3,1.61-1.15,2.73-1.97,2.54-.82-.19-1.32-1.61-1.18-3.26l-3.54-.81c-.3,1.61-1.15,2.73-1.97,2.54-.82-.19-1.32-1.61-1.18-3.26l-3.54-.81c-.3,1.61-1.15,2.73-1.97,2.54-.82-.19-1.32-1.61-1.18-3.26l-3.54-.81c-.3,1.61-1.15,2.73-1.97,2.54-.82-.19-1.32-1.61-1.18-3.26l-3.54-.81c-.3,1.61-1.15,2.73-1.97,2.54-.82-.19-1.32-1.61-1.18-3.26l-3.54-.81c-.3,1.61-1.15,2.73-1.97,2.54-.82-.19-1.32-1.61-1.18-3.26l-3.17-.72-7.57,55.57,42.94,9.79Z"/>
      <path class="cls-16" d="M105.53,118.92l7.6-55.79-3.17-.72c-.3,1.61-1.15,2.74-1.97,2.55-.82-.19-1.32-1.62-1.18-3.27l-3.54-.81c-.3,1.61-1.15,2.74-1.97,2.55-.82-.19-1.32-1.62-1.18-3.27l-3.54-.81c-.3,1.61-1.15,2.74-1.97,2.55-.82-.19-1.32-1.62-1.18-3.27l-3.54-.81c-.3,1.61-1.15,2.74-1.97,2.55-.82-.19-1.32-1.62-1.18-3.27l-3.54-.81c-.3,1.61-1.15,2.74-1.97,2.55-.82-.19-1.32-1.62-1.18-3.27l-3.54-.81c-.3,1.61-1.15,2.74-1.97,2.55-.82-.19-1.32-1.62-1.18-3.27l-3.17-.72-7.6,55.79,42.94,9.79Z"/>
      <path class="cls-10" d="M105.53,118.92l7.6-55.79-3.17-.72c-.3,1.61-1.15,2.74-1.97,2.55-.82-.19-1.32-1.62-1.18-3.27l-3.54-.81c-.3,1.61-1.15,2.74-1.97,2.55-.82-.19-1.32-1.62-1.18-3.27l-3.54-.81c-.3,1.61-1.15,2.74-1.97,2.55-.82-.19-1.32-1.62-1.18-3.27l-3.54-.81c-.3,1.61-1.15,2.74-1.97,2.55-.82-.19-1.32-1.62-1.18-3.27l-3.54-.81c-.3,1.61-1.15,2.74-1.97,2.55-.82-.19-1.32-1.62-1.18-3.27l-3.54-.81c-.3,1.61-1.15,2.74-1.97,2.55-.82-.19-1.32-1.62-1.18-3.27l-3.17-.72-7.6,55.79,42.94,9.79Z"/>
      <text class="cls-6" transform="translate(78.78 87.84) rotate(12.85) scale(1 1.01) skewX(5.16)"><tspan x="0" y="0">4</tspan></text>
      <text class="cls-4" transform="translate(82.07 66.85) rotate(12.85) scale(1 1.26) skewX(6.44)"><tspan class="cls-28" x="0" y="0">A</tspan><tspan x="5.13" y="0">p</tspan><tspan class="cls-15" x="9.92" y="0">r</tspan><tspan class="cls-22" x="12.7" y="0">il</tspan></text>
      <path class="cls-19" d="M63.73,165.2l-7.57-55.57-3.17.72c.14,1.64-.36,3.07-1.18,3.26-.82.19-1.67-.93-1.97-2.54l-3.54.81c.14,1.64-.36,3.07-1.18,3.26-.82.19-1.67-.93-1.97-2.54l-3.54.81c.14,1.64-.36,3.07-1.18,3.26-.82.19-1.67-.93-1.97-2.54l-3.54.81c.14,1.64-.36,3.07-1.18,3.26-.82.19-1.67-.93-1.97-2.54l-3.54.81c.14,1.64-.36,3.07-1.18,3.26-.82.19-1.67-.93-1.97-2.54l-3.54.81c.14,1.64-.36,3.07-1.18,3.26-.82.19-1.67-.93-1.97-2.54l-3.17.72,7.57,55.57,42.94-9.79Z"/>
      <path class="cls-16" d="M61.61,163.62l-7.6-55.79-3.17.72c.14,1.65-.36,3.08-1.18,3.27-.82.19-1.67-.94-1.97-2.55l-3.54.81c.14,1.65-.36,3.08-1.18,3.27-.82.19-1.67-.94-1.97-2.55l-3.54.81c.14,1.65-.36,3.08-1.18,3.27-.82.19-1.67-.94-1.97-2.55l-3.54.81c.14,1.65-.36,3.08-1.18,3.27-.82.19-1.67-.94-1.97-2.55l-3.54.81c.14,1.65-.36,3.08-1.18,3.27-.82.19-1.67-.94-1.97-2.55l-3.54.81c.14,1.65-.36,3.08-1.18,3.27-.82.19-1.67-.94-1.97-2.55l-3.17.72,7.6,55.79,42.94-9.79Z"/>
      <path class="cls-10" d="M61.61,163.62l-7.6-55.79-3.17.72c.14,1.65-.36,3.08-1.18,3.27-.82.19-1.67-.94-1.97-2.55l-3.54.81c.14,1.65-.36,3.08-1.18,3.27-.82.19-1.67-.94-1.97-2.55l-3.54.81c.14,1.65-.36,3.08-1.18,3.27-.82.19-1.67-.94-1.97-2.55l-3.54.81c.14,1.65-.36,3.08-1.18,3.27-.82.19-1.67-.94-1.97-2.55l-3.54.81c.14,1.65-.36,3.08-1.18,3.27-.82.19-1.67-.94-1.97-2.55l-3.54.81c.14,1.65-.36,3.08-1.18,3.27-.82.19-1.67-.94-1.97-2.55l-3.17.72,7.6,55.79,42.94-9.79Z"/>
      <text class="cls-6" transform="translate(28.27 146.25) rotate(-12.85) scale(1 1.01) skewX(-5.16)"><tspan x="0" y="0">5</tspan></text>
      <text class="cls-4" transform="translate(26.72 124.87) rotate(-12.85) scale(1 1.26) skewX(-6.44)"><tspan class="cls-21" x="0" y="0">M</tspan><tspan class="cls-18" x="6.82" y="0">a</tspan><tspan x="10.82" y="0">y</tspan></text>
      <path class="cls-19" d="M124.45,165.2l-7.57-55.57-3.17.72c.14,1.64-.36,3.07-1.18,3.26-.82.19-1.67-.93-1.97-2.54l-3.54.81c.14,1.64-.36,3.07-1.18,3.26-.82.19-1.67-.93-1.97-2.54l-3.54.81c.14,1.64-.36,3.07-1.18,3.26-.82.19-1.67-.93-1.97-2.54l-3.54.81c.14,1.64-.36,3.07-1.18,3.26-.82.19-1.67-.93-1.97-2.54l-3.54.81c.14,1.64-.36,3.07-1.18,3.26-.82.19-1.67-.93-1.97-2.54l-3.54.81c.14,1.64-.36,3.07-1.18,3.26-.82.19-1.67-.93-1.97-2.54l-3.17.72,7.57,55.57,42.94-9.79Z"/>
      <path class="cls-16" d="M122.34,163.62l-7.6-55.79-3.17.72c.14,1.65-.36,3.08-1.18,3.27-.82.19-1.67-.94-1.97-2.55l-3.54.81c.14,1.65-.36,3.08-1.18,3.27-.82.19-1.67-.94-1.97-2.55l-3.54.81c.14,1.65-.36,3.08-1.18,3.27-.82.19-1.67-.94-1.97-2.55l-3.54.81c.14,1.65-.36,3.08-1.18,3.27-.82.19-1.67-.94-1.97-2.55l-3.54.81c.14,1.65-.36,3.08-1.18,3.27-.82.19-1.67-.94-1.97-2.55l-3.54.81c.14,1.65-.36,3.08-1.18,3.27-.82.19-1.67-.94-1.97-2.55l-3.17.72,7.6,55.79,42.94-9.79Z"/>
      <path class="cls-10" d="M122.34,163.62l-7.6-55.79-3.17.72c.14,1.65-.36,3.08-1.18,3.27-.82.19-1.67-.94-1.97-2.55l-3.54.81c.14,1.65-.36,3.08-1.18,3.27-.82.19-1.67-.94-1.97-2.55l-3.54.81c.14,1.65-.36,3.08-1.18,3.27-.82.19-1.67-.94-1.97-2.55l-3.54.81c.14,1.65-.36,3.08-1.18,3.27-.82.19-1.67-.94-1.97-2.55l-3.54.81c.14,1.65-.36,3.08-1.18,3.27-.82.19-1.67-.94-1.97-2.55l-3.54.81c.14,1.65-.36,3.08-1.18,3.27-.82.19-1.67-.94-1.97-2.55l-3.17.72,7.6,55.79,42.94-9.79Z"/>
      <text class="cls-6" transform="translate(88.99 146.25) rotate(-12.85) scale(1 1.01) skewX(-5.16)"><tspan x="0" y="0">6</tspan></text>
      <text class="cls-4" transform="translate(86.54 125.07) rotate(-12.85) scale(1 1.26) skewX(-6.44)"><tspan x="0" y="0">June</tspan></text>
      <path class="cls-19" d="M54.37,227.76l7.57-55.57-3.17-.72c-.3,1.61-1.15,2.73-1.97,2.54-.82-.19-1.32-1.61-1.18-3.26l-3.54-.81c-.3,1.61-1.15,2.73-1.97,2.54-.82-.19-1.32-1.61-1.18-3.26l-3.54-.81c-.3,1.61-1.15,2.73-1.97,2.54-.82-.19-1.32-1.61-1.18-3.26l-3.54-.81c-.3,1.61-1.15,2.73-1.97,2.54-.82-.19-1.32-1.61-1.18-3.26l-3.54-.81c-.3,1.61-1.15,2.73-1.97,2.54-.82-.19-1.32-1.61-1.18-3.26l-3.54-.81c-.3,1.61-1.15,2.73-1.97,2.54-.82-.19-1.32-1.61-1.18-3.26l-3.17-.72-7.57,55.57,42.94,9.79Z"/>
      <path class="cls-16" d="M52.8,225.33l7.6-55.79-3.17-.72c-.3,1.61-1.15,2.74-1.97,2.55-.82-.19-1.32-1.62-1.18-3.27l-3.54-.81c-.3,1.61-1.15,2.74-1.97,2.55-.82-.19-1.32-1.62-1.18-3.27l-3.54-.81c-.3,1.61-1.15,2.74-1.97,2.55-.82-.19-1.32-1.62-1.18-3.27l-3.54-.81c-.3,1.61-1.15,2.74-1.97,2.55-.82-.19-1.32-1.62-1.18-3.27l-3.54-.81c-.3,1.61-1.15,2.74-1.97,2.55-.82-.19-1.32-1.62-1.18-3.27l-3.54-.81c-.3,1.61-1.15,2.74-1.97,2.55-.82-.19-1.32-1.62-1.18-3.27l-3.17-.72-7.6,55.79,42.94,9.79Z"/>
      <path class="cls-10" d="M52.8,225.33l7.6-55.79-3.17-.72c-.3,1.61-1.15,2.74-1.97,2.55-.82-.19-1.32-1.62-1.18-3.27l-3.54-.81c-.3,1.61-1.15,2.74-1.97,2.55-.82-.19-1.32-1.62-1.18-3.27l-3.54-.81c-.3,1.61-1.15,2.74-1.97,2.55-.82-.19-1.32-1.62-1.18-3.27l-3.54-.81c-.3,1.61-1.15,2.74-1.97,2.55-.82-.19-1.32-1.62-1.18-3.27l-3.54-.81c-.3,1.61-1.15,2.74-1.97,2.55-.82-.19-1.32-1.62-1.18-3.27l-3.54-.81c-.3,1.61-1.15,2.74-1.97,2.55-.82-.19-1.32-1.62-1.18-3.27l-3.17-.72-7.6,55.79,42.94,9.79Z"/>
      <text class="cls-6" transform="translate(26.06 194.26) rotate(12.85) scale(1 1.01) skewX(5.16)"><tspan x="0" y="0">7</tspan></text>
      <text class="cls-4" transform="translate(30.78 173.6) rotate(12.85) scale(1 1.26) skewX(6.44)"><tspan x="0" y="0">July</tspan></text>
      <path class="cls-19" d="M115.09,227.76l7.57-55.57-3.17-.72c-.3,1.61-1.15,2.73-1.97,2.54-.82-.19-1.32-1.61-1.18-3.26l-3.54-.81c-.3,1.61-1.15,2.73-1.97,2.54-.82-.19-1.32-1.61-1.18-3.26l-3.54-.81c-.3,1.61-1.15,2.73-1.97,2.54-.82-.19-1.32-1.61-1.18-3.26l-3.54-.81c-.3,1.61-1.15,2.73-1.97,2.54-.82-.19-1.32-1.61-1.18-3.26l-3.54-.81c-.3,1.61-1.15,2.73-1.97,2.54-.82-.19-1.32-1.61-1.18-3.26l-3.54-.81c-.3,1.61-1.15,2.73-1.97,2.54-.82-.19-1.32-1.61-1.18-3.26l-3.17-.72-7.57,55.57,42.94,9.79Z"/>
      <path class="cls-16" d="M113.53,225.33l7.6-55.79-3.17-.72c-.3,1.61-1.15,2.74-1.97,2.55-.82-.19-1.32-1.62-1.18-3.27l-3.54-.81c-.3,1.61-1.15,2.74-1.97,2.55-.82-.19-1.32-1.62-1.18-3.27l-3.54-.81c-.3,1.61-1.15,2.74-1.97,2.55-.82-.19-1.32-1.62-1.18-3.27l-3.54-.81c-.3,1.61-1.15,2.74-1.97,2.55-.82-.19-1.32-1.62-1.18-3.27l-3.54-.81c-.3,1.61-1.15,2.74-1.97,2.55-.82-.19-1.32-1.62-1.18-3.27l-3.54-.81c-.3,1.61-1.15,2.74-1.97,2.55-.82-.19-1.32-1.62-1.18-3.27l-3.17-.72-7.6,55.79,42.94,9.79Z"/>
      <path class="cls-10" d="M113.53,225.33l7.6-55.79-3.17-.72c-.3,1.61-1.15,2.74-1.97,2.55-.82-.19-1.32-1.62-1.18-3.27l-3.54-.81c-.3,1.61-1.15,2.74-1.97,2.55-.82-.19-1.32-1.62-1.18-3.27l-3.54-.81c-.3,1.61-1.15,2.74-1.97,2.55-.82-.19-1.32-1.62-1.18-3.27l-3.54-.81c-.3,1.61-1.15,2.74-1.97,2.55-.82-.19-1.32-1.62-1.18-3.27l-3.54-.81c-.3,1.61-1.15,2.74-1.97,2.55-.82-.19-1.32-1.62-1.18-3.27l-3.54-.81c-.3,1.61-1.15,2.74-1.97,2.55-.82-.19-1.32-1.62-1.18-3.27l-3.17-.72-7.6,55.79,42.94,9.79Z"/>
      <text class="cls-6" transform="translate(86.78 194.26) rotate(12.85) scale(1 1.01) skewX(5.16)"><tspan x="0" y="0">8</tspan></text>
      <text class="cls-4" transform="translate(85.95 172.33) rotate(12.85) scale(1 1.26) skewX(6.44)"><tspan class="cls-31" x="0" y="0">A</tspan><tspan x="5.05" y="0">ugust</tspan></text>
      <path class="cls-19" d="M64.73,268.87l-7.57-55.57-3.17.72c.14,1.64-.36,3.07-1.18,3.26-.82.19-1.67-.93-1.97-2.54l-3.54.81c.14,1.64-.36,3.07-1.18,3.26-.82.19-1.67-.93-1.97-2.54l-3.54.81c.14,1.64-.36,3.07-1.18,3.26-.82.19-1.67-.93-1.97-2.54l-3.54.81c.14,1.64-.36,3.07-1.18,3.26-.82.19-1.67-.93-1.97-2.54l-3.54.81c.14,1.64-.36,3.07-1.18,3.26-.82.19-1.67-.93-1.97-2.54l-3.54.81c.14,1.64-.36,3.07-1.18,3.26-.82.19-1.67-.93-1.97-2.54l-3.17.72,7.57,55.57,42.94-9.79Z"/>
      <path class="cls-16" d="M62.61,267.28l-7.6-55.79-3.17.72c.14,1.65-.36,3.08-1.18,3.27-.82.19-1.67-.94-1.97-2.55l-3.54.81c.14,1.65-.36,3.08-1.18,3.27-.82.19-1.67-.94-1.97-2.55l-3.54.81c.14,1.65-.36,3.08-1.18,3.27-.82.19-1.67-.94-1.97-2.55l-3.54.81c.14,1.65-.36,3.08-1.18,3.27-.82.19-1.67-.94-1.97-2.55l-3.54.81c.14,1.65-.36,3.08-1.18,3.27-.82.19-1.67-.94-1.97-2.55l-3.54.81c.14,1.65-.36,3.08-1.18,3.27-.82.19-1.67-.94-1.97-2.55l-3.17.72,7.6,55.79,42.94-9.79Z"/>
      <path class="cls-10" d="M62.61,267.28l-7.6-55.79-3.17.72c.14,1.65-.36,3.08-1.18,3.27-.82.19-1.67-.94-1.97-2.55l-3.54.81c.14,1.65-.36,3.08-1.18,3.27-.82.19-1.67-.94-1.97-2.55l-3.54.81c.14,1.65-.36,3.08-1.18,3.27-.82.19-1.67-.94-1.97-2.55l-3.54.81c.14,1.65-.36,3.08-1.18,3.27-.82.19-1.67-.94-1.97-2.55l-3.54.81c.14,1.65-.36,3.08-1.18,3.27-.82.19-1.67-.94-1.97-2.55l-3.54.81c.14,1.65-.36,3.08-1.18,3.27-.82.19-1.67-.94-1.97-2.55l-3.17.72,7.6,55.79,42.94-9.79Z"/>
      <text class="cls-6" transform="translate(29.27 249.92) rotate(-12.85) scale(1 1.01) skewX(-5.16)"><tspan x="0" y="0">9</tspan></text>
      <text class="cls-5" transform="translate(19.39 230.43) rotate(-12.85) scale(1 1.54) skewX(-7.84)"><tspan class="cls-33" x="0" y="0">S</tspan><tspan class="cls-24" x="3.44" y="0">ep</tspan><tspan class="cls-27" x="10.82" y="0">t</tspan><tspan x="13.07" y="0">ember</tspan></text>
      <path class="cls-19" d="M125.45,268.87l-7.57-55.57-3.17.72c.14,1.64-.36,3.07-1.18,3.26-.82.19-1.67-.93-1.97-2.54l-3.54.81c.14,1.64-.36,3.07-1.18,3.26-.82.19-1.67-.93-1.97-2.54l-3.54.81c.14,1.64-.36,3.07-1.18,3.26-.82.19-1.67-.93-1.97-2.54l-3.54.81c.14,1.64-.36,3.07-1.18,3.26-.82.19-1.67-.93-1.97-2.54l-3.54.81c.14,1.64-.36,3.07-1.18,3.26-.82.19-1.67-.93-1.97-2.54l-3.54.81c.14,1.64-.36,3.07-1.18,3.26-.82.19-1.67-.93-1.97-2.54l-3.17.72,7.57,55.57,42.94-9.79Z"/>
      <path class="cls-16" d="M123.34,267.28l-7.6-55.79-3.17.72c.14,1.65-.36,3.08-1.18,3.27-.82.19-1.67-.94-1.97-2.55l-3.54.81c.14,1.65-.36,3.08-1.18,3.27-.82.19-1.67-.94-1.97-2.55l-3.54.81c.14,1.65-.36,3.08-1.18,3.27-.82.19-1.67-.94-1.97-2.55l-3.54.81c.14,1.65-.36,3.08-1.18,3.27-.82.19-1.67-.94-1.97-2.55l-3.54.81c.14,1.65-.36,3.08-1.18,3.27-.82.19-1.67-.94-1.97-2.55l-3.54.81c.14,1.65-.36,3.08-1.18,3.27-.82.19-1.67-.94-1.97-2.55l-3.17.72,7.6,55.79,42.94-9.79Z"/>
      <path class="cls-10" d="M123.34,267.28l-7.6-55.79-3.17.72c.14,1.65-.36,3.08-1.18,3.27-.82.19-1.67-.94-1.97-2.55l-3.54.81c.14,1.65-.36,3.08-1.18,3.27-.82.19-1.67-.94-1.97-2.55l-3.54.81c.14,1.65-.36,3.08-1.18,3.27-.82.19-1.67-.94-1.97-2.55l-3.54.81c.14,1.65-.36,3.08-1.18,3.27-.82.19-1.67-.94-1.97-2.55l-3.54.81c.14,1.65-.36,3.08-1.18,3.27-.82.19-1.67-.94-1.97-2.55l-3.54.81c.14,1.65-.36,3.08-1.18,3.27-.82.19-1.67-.94-1.97-2.55l-3.17.72,7.6,55.79,42.94-9.79Z"/>
      <text class="cls-6" transform="translate(81.61 251.83) rotate(-12.85) scale(1 1.01) skewX(-5.16)"><tspan x="0" y="0">10</tspan></text>
      <text class="cls-4" transform="translate(81.63 230.09) rotate(-12.85) scale(1 1.26) skewX(-6.44)"><tspan class="cls-25" x="0" y="0">O</tspan><tspan class="cls-30" x="5.83" y="0">c</tspan><tspan class="cls-11" x="9.7" y="0">t</tspan><tspan x="12.44" y="0">ober</tspan></text>
      <path class="cls-19" d="M51.37,329.64l7.57-55.57-3.17-.72c-.3,1.61-1.15,2.73-1.97,2.54-.82-.19-1.32-1.61-1.18-3.26l-3.54-.81c-.3,1.61-1.15,2.73-1.97,2.54-.82-.19-1.32-1.61-1.18-3.26l-3.54-.81c-.3,1.61-1.15,2.73-1.97,2.54-.82-.19-1.32-1.61-1.18-3.26l-3.54-.81c-.3,1.61-1.15,2.73-1.97,2.54-.82-.19-1.32-1.61-1.18-3.26l-3.54-.81c-.3,1.61-1.15,2.73-1.97,2.54-.82-.19-1.32-1.61-1.18-3.26l-3.54-.81c-.3,1.61-1.15,2.73-1.97,2.54-.82-.19-1.32-1.61-1.18-3.26l-3.17-.72-7.57,55.57,42.94,9.79Z"/>
      <path class="cls-16" d="M49.8,327.22l7.6-55.79-3.17-.72c-.3,1.61-1.15,2.74-1.97,2.55-.82-.19-1.32-1.62-1.18-3.27l-3.54-.81c-.3,1.61-1.15,2.74-1.97,2.55-.82-.19-1.32-1.62-1.18-3.27l-3.54-.81c-.3,1.61-1.15,2.74-1.97,2.55-.82-.19-1.32-1.62-1.18-3.27l-3.54-.81c-.3,1.61-1.15,2.74-1.97,2.55-.82-.19-1.32-1.62-1.18-3.27l-3.54-.81c-.3,1.61-1.15,2.74-1.97,2.55-.82-.19-1.32-1.62-1.18-3.27l-3.54-.81c-.3,1.61-1.15,2.74-1.97,2.55-.82-.19-1.32-1.62-1.18-3.27l-3.17-.72-7.6,55.79,42.94,9.79Z"/>
      <path class="cls-10" d="M49.8,327.22l7.6-55.79-3.17-.72c-.3,1.61-1.15,2.74-1.97,2.55-.82-.19-1.32-1.62-1.18-3.27l-3.54-.81c-.3,1.61-1.15,2.74-1.97,2.55-.82-.19-1.32-1.62-1.18-3.27l-3.54-.81c-.3,1.61-1.15,2.74-1.97,2.55-.82-.19-1.32-1.62-1.18-3.27l-3.54-.81c-.3,1.61-1.15,2.74-1.97,2.55-.82-.19-1.32-1.62-1.18-3.27l-3.54-.81c-.3,1.61-1.15,2.74-1.97,2.55-.82-.19-1.32-1.62-1.18-3.27l-3.54-.81c-.3,1.61-1.15,2.74-1.97,2.55-.82-.19-1.32-1.62-1.18-3.27l-3.17-.72-7.6,55.79,42.94,9.79Z"/>
      <text class="cls-6" transform="translate(14.67 294.23) rotate(12.85) scale(1 1.01) skewX(5.16)"><tspan x="0" y="0">11</tspan></text>
      <text class="cls-2" transform="translate(19.32 273.55) rotate(12.85) scale(1 1.5) skewX(7.65)"><tspan x="0" y="0">N</tspan><tspan class="cls-29" x="4.65" y="0">o</tspan><tspan class="cls-20" x="8.48" y="0">v</tspan><tspan x="11.82" y="0">ember</tspan></text>
      <path class="cls-19" d="M112.09,329.64l7.57-55.57-3.17-.72c-.3,1.61-1.15,2.73-1.97,2.54-.82-.19-1.32-1.61-1.18-3.26l-3.54-.81c-.3,1.61-1.15,2.73-1.97,2.54-.82-.19-1.32-1.61-1.18-3.26l-3.54-.81c-.3,1.61-1.15,2.73-1.97,2.54-.82-.19-1.32-1.61-1.18-3.26l-3.54-.81c-.3,1.61-1.15,2.73-1.97,2.54-.82-.19-1.32-1.61-1.18-3.26l-3.54-.81c-.3,1.61-1.15,2.73-1.97,2.54-.82-.19-1.32-1.61-1.18-3.26l-3.54-.81c-.3,1.61-1.15,2.73-1.97,2.54-.82-.19-1.32-1.61-1.18-3.26l-3.17-.72-7.57,55.57,42.94,9.79Z"/>
      <path class="cls-16" d="M110.53,327.22l7.6-55.79-3.17-.72c-.3,1.61-1.15,2.74-1.97,2.55-.82-.19-1.32-1.62-1.18-3.27l-3.54-.81c-.3,1.61-1.15,2.74-1.97,2.55-.82-.19-1.32-1.62-1.18-3.27l-3.54-.81c-.3,1.61-1.15,2.74-1.97,2.55-.82-.19-1.32-1.62-1.18-3.27l-3.54-.81c-.3,1.61-1.15,2.74-1.97,2.55-.82-.19-1.32-1.62-1.18-3.27l-3.54-.81c-.3,1.61-1.15,2.74-1.97,2.55-.82-.19-1.32-1.62-1.18-3.27l-3.54-.81c-.3,1.61-1.15,2.74-1.97,2.55-.82-.19-1.32-1.62-1.18-3.27l-3.17-.72-7.6,55.79,42.94,9.79Z"/>
      <path class="cls-10" d="M110.53,327.22l7.6-55.79-3.17-.72c-.3,1.61-1.15,2.74-1.97,2.55-.82-.19-1.32-1.62-1.18-3.27l-3.54-.81c-.3,1.61-1.15,2.74-1.97,2.55-.82-.19-1.32-1.62-1.18-3.27l-3.54-.81c-.3,1.61-1.15,2.74-1.97,2.55-.82-.19-1.32-1.62-1.18-3.27l-3.54-.81c-.3,1.61-1.15,2.74-1.97,2.55-.82-.19-1.32-1.62-1.18-3.27l-3.54-.81c-.3,1.61-1.15,2.74-1.97,2.55-.82-.19-1.32-1.62-1.18-3.27l-3.54-.81c-.3,1.61-1.15,2.74-1.97,2.55-.82-.19-1.32-1.62-1.18-3.27l-3.17-.72-7.6,55.79,42.94,9.79Z"/>
      <text class="cls-6" transform="translate(75.4 294.23) rotate(12.85) scale(1 1.01) skewX(5.16)"><tspan x="0" y="0">12</tspan></text>
      <text class="cls-3" transform="translate(80.07 273.56) rotate(12.85) scale(1 1.49) skewX(7.56)"><tspan class="cls-32" x="0" y="0">D</tspan><tspan x="4.79" y="0">e</tspan><tspan class="cls-13" x="8.38" y="0">c</tspan><tspan class="cls-23" x="11.55" y="0">ember</tspan></text>
    </g>
  </g>
</svg>