<?xml version="1.0" encoding="utf-8"?>
<!-- Generator: Adobe Illustrator 30.3.0, SVG Export Plug-In . SVG Version: 9.03 Build 0)  -->
<svg version="1.1" id="Layer_1" xmlns="http://www.w3.org/2000/svg" xmlns:xlink="http://www.w3.org/1999/xlink" x="0px" y="0px"
	 viewBox="0 0 40.552 38.471" style="enable-background:new 0 0 40.552 38.471;" xml:space="preserve">
<g>
	<path style="fill:#FFFFFF;" d="M20.277,36.336c9.444,0,17.1-7.656,17.1-17.1c0-9.445-7.656-17.101-17.1-17.101
		S3.176,9.791,3.176,19.236C3.176,28.68,10.833,36.336,20.277,36.336"/>
	<path style="fill:#00ADEE;" d="M20.277,36.336v-0.774c4.511,0,8.587-1.826,11.544-4.782c2.956-2.957,4.781-7.033,4.782-11.544
		c0-4.511-1.826-8.588-4.782-11.545c-2.957-2.956-7.033-4.781-11.544-4.782c-4.511,0-8.588,1.826-11.545,4.782
		C5.776,10.648,3.95,14.725,3.95,19.236c0,4.511,1.826,8.587,4.782,11.544c2.957,2.956,7.034,4.781,11.545,4.782V36.336v0.774
		c-9.872-0.001-17.875-8.002-17.875-17.874c0-9.873,8.003-17.874,17.875-17.875c9.872,0,17.874,8.002,17.874,17.875
		c0,9.872-8.002,17.873-17.874,17.874V36.336z"/>
	<path style="fill:#231F20;" d="M16.903,12.7h7.712v-1.895h-9.555l-0.079,9.318l1.79,0.658c1.027-1,1.606-1.237,2.974-1.237
		c2.106,0,3.58,1.553,3.58,3.817c0,2.658-1.553,4.317-4.001,4.317c-1.632,0-2.737-0.5-4.475-2.027l-1.237,1.316
		c1.316,1.632,3.553,2.606,5.896,2.606c3.316,0,5.922-2.527,5.922-6.107c0-3.527-2.238-5.896-5.633-5.896
		c-1.316,0-1.843,0.158-3.027,0.816L16.903,12.7z"/>
</g>
<g>
</g>
<g>
</g>
<g>
</g>
<g>
</g>
<g>
</g>
<g>
</g>
<g>
</g>
<g>
</g>
<g>
</g>
<g>
</g>
<g>
</g>
<g>
</g>
<g>
</g>
<g>
</g>
<g>
</g>
</svg>
