<?xml version="1.0" encoding="UTF-8"?>
<svg id="Layer_2" data-name="Layer 2" xmlns="http://www.w3.org/2000/svg" viewBox="0 0 45.75 47.09">
  <defs>
    <style>
      .cls-1 {
        fill: none;
        stroke: #000;
        stroke-miterlimit: 10;
        stroke-width: .25px;
      }
    </style>
  </defs>
  <g id="Layer_1-2" data-name="Layer 1">
    <path class="cls-1" d="M28.22,46.51c-2.2.44-5.89.09-5.89.09,0,0-.97.44-4.4.35-3.42-.09-4.83-1.93-4.83-1.93,0,0-.53.17-3.43.08-2.9-.08-4.92-2.81-4.92-2.81,0,0-3.6-.26-4.57-2.28C-.73,38.09,10.14,3.48,11.18.19c7.35,4.71,19.7,5.71,26.7.11h.02c1,4.37,9.02,39.55,7.54,42.34-1.58,2.99-6.42,1.94-8.44,2.64s-6.06.35-6.06.35c0,0-.53.44-2.72.88Z"/>
    <line class="cls-1" x1="15.64" y1="23" x2="13.26" y2="44.88"/>
    <line class="cls-1" x1="22.22" y1="46.2" x2="20.12" y2="27.09"/>
    <line class="cls-1" x1="30.39" y1="45.41" x2="26.84" y2="26.69"/>
    <line class="cls-1" x1="4.57" y1="42.11" x2="6.94" y2="24.58"/>
  </g>
</svg>