<?xml version="1.0" encoding="UTF-8"?>
<svg id="Layer_2" data-name="Layer 2" xmlns="http://www.w3.org/2000/svg" viewBox="0 0 38.7 40.04">
  <defs>
    <style>
      .cls-1 {
        fill: none;
        stroke: #231f20;
        stroke-width: .35px;
      }
    </style>
  </defs>
  <g id="Layer_1-2" data-name="Layer 1">
    <g>
      <path class="cls-1" d="M19.59,17.52c-.14-1.91-.19-3.17-.12-3.18.28-.06,4.98-1.68,5.26-3.7"/>
      <path class="cls-1" d="M37.16.29s.32,5.47.64,12.06c.09,1.91.19,3.92.27,5.91.13,3.09.24,6.16.31,8.79.1,4.29.07,7.46-.21,7.84-.95,1.28-13.55,2.52-15.4,1.84-1.4-.51-2.74-13.11-3.18-19.18"/>
      <path class="cls-1" d="M19.75,14.69s-.07,1.14-.16,2.83v.03c-.2,3.7-.48,9.96-.29,12.43.28,3.6.84,7.46-1.73,9.19-2.58,1.74-12.49-.57-14.78-1.92-2.2-1.29-2.45-4.19-2.41-5.27,0-.05,0-.09,0-.13.03-.42-.04-3.56-.09-7.26-.03-2.14-.05-4.46-.03-6.55.01-2.69.07-5,.23-6.05.51-3.28.67-8.75.67-8.75"/>
      <path class="cls-1" d="M.32,18.04c.23.05,4.15,1.34,5.04,1.45.9.11,1.4.06,1.4.06,0,0-.03,2.86-.16,5.95-.14,3.36-.41,6.99-.9,7.54-.95,1.06-4.65.39-5.26-1.06"/>
      <path class="cls-1" d="M.27,24.59h.02c.36.13,4.86,1.62,6.31.91.02,0,.03-.01.05-.02"/>
      <path class="cls-1" d="M37.89,12.32l-.09.03c-.58.21-3.88,1.42-4.45,2.49-.29.55-.12,2.96.2,5.48.36,2.86.93,5.86,1.26,6.39.59.96,3,.81,3.57.34.03,0,.05-.04.07-.06"/>
      <path class="cls-1" d="M33.47,20.33s.04,0,.08-.01c.56-.03,3.61-.38,4.45-2.06"/>
    </g>
  </g>
</svg>