<?xml version="1.0" encoding="UTF-8"?>
<svg id="Layer_2" data-name="Layer 2" xmlns="http://www.w3.org/2000/svg" xmlns:xlink="http://www.w3.org/1999/xlink" viewBox="0 0 57.69 175.14">
  <defs>
    <style>
      .cls-1 {
        stroke: #231f20;
        stroke-width: .35px;
      }

      .cls-1, .cls-2 {
        fill: none;
      }

      .cls-3 {
        clip-path: url(#clippath-1);
      }

      .cls-4 {
        clip-path: url(#clippath);
      }
    </style>
    <clipPath id="clippath">
      <rect class="cls-2" width="57.69" height="175.14"/>
    </clipPath>
    <clipPath id="clippath-1">
      <rect class="cls-2" width="57.69" height="175.14"/>
    </clipPath>
  </defs>
  <g id="Layer_1-2" data-name="Layer 1">
    <g class="cls-4">
      <path class="cls-1" d="M14.87,26.96s1.34-1.57,2.24-1.29c.9.28.84,1.34.84,1.34"/>
      <path class="cls-1" d="M16.83,25.68s-.73,1.12,0,2.02"/>
      <path class="cls-1" d="M14.65,28.7s-3.86,1.96-6.83.11c-2.97-1.85,6.61-9.8,6.61-9.8"/>
      <path class="cls-1" d="M15.77,24.44s-4.26-10.52-1.18-15.45c3.08-4.93,11.31-7.95,17.92-5.21,6.61,2.74,7.28,11.2,7.28,11.2"/>
      <path class="cls-1" d="M14.42,20.64s13.1-15.45,25.36-5.99c0,0,1.46,3.3,1.29,6.16"/>
      <path class="cls-1" d="M26.68,12.24s-1.01-2.18.73-2.85c1.73-.67,3.25,1.06,3.58,2.18"/>
      <path class="cls-1" d="M19.91,15.93s1.34,4.26-1.23,9.07c0,0-2.57-1.96-3.97.17-1.4,2.13,0,5.49,3.53,4.53"/>
      <path class="cls-1" d="M18.01,18.17c-.11.34.67,1.85-.22,3.36"/>
      <path class="cls-1" d="M17.78,29.76s1.18,9.07,12.04,9.18c10.86.11,10.8-10.64,10.8-10.64"/>
      <path class="cls-1" d="M39.84,28.64c3.36-.39,3.64-6.66,2.13-7.61-1.51-.95-2.07.73-2.07.73,0,0-.06-6.61-2.58-8.57"/>
      <path class="cls-1" d="M40.45,23.77s.11-.9.95-.67c.84.22.62,1.46.62,1.46"/>
      <path class="cls-1" d="M41.57,23.27s-1.57,1.74-.62,2.24"/>
      <path class="cls-1" d="M33.4,16.61l.17.95s2.63-.67,3.25,1.57c0,0,.28-3.02-3.41-2.52Z"/>
      <path class="cls-1" d="M25.39,16.89l.09.96s-2.71.05-2.72,2.37c0,0-1.07-2.84,2.63-3.33Z"/>
      <path class="cls-1" d="M31.55,22.26c-.06.22-1.74,3.42-.17,4.76"/>
      <path class="cls-1" d="M30.38,28.08s2.13-.9,2.24.78c.11,1.68-2.35,3.19-4.14,1.4"/>
      <path class="cls-1" d="M25.79,32.67s3.19,2.07,7.17,0"/>
      <path class="cls-1" d="M34.94,21.09c1.1,0,1.99,1.25,1.99,2.8s-.89,2.8-1.99,2.8-1.99-1.25-1.99-2.8.89-2.8,1.99-2.8Z"/>
      <ellipse class="cls-1" cx="23.59" cy="24.47" rx="1.99" ry="2.8"/>
      <path class="cls-1" d="M23.41,24.39c.39,0,.7.5.7,1.12s-.31,1.12-.7,1.12-.7-.5-.7-1.12.31-1.12.7-1.12Z"/>
      <path class="cls-1" d="M34.59,23.3c.39,0,.7.5.7,1.12s-.31,1.12-.7,1.12-.7-.5-.7-1.12.31-1.12.7-1.12Z"/>
      <path class="cls-1" d="M23.94,37.94c.06,0-.34.78-.22,2.02.11,1.23,1.18,7.73,3.92,8.29,2.74.56,6.44-5.88,5.88-9.68"/>
      <path class="cls-1" d="M23.55,37.54s-1.9.67-2.91,2.97c-1.01,2.3-.95,5.04-.84,6.72.11,1.68,1.46,3.19,1.46,3.19,0,0,2.3-3.64,4.48-3.75"/>
      <path class="cls-1" d="M30.88,46.39s1.57.28,2.8,1.29c1.23,1.01,2.02,2.57,2.02,2.57,0,0,1.01-1.23.9-5.77-.11-4.53-1.62-6.61-1.62-6.61"/>
      <path class="cls-1" d="M20.64,40.57s-10.13,2.69-11.7,7.89c-1.57,5.21-7.89,23.96-6.72,31.29,1.18,7.33,11.2,22.39,11.48,22.51.28.11-1.68-12.15-.28-13.04"/>
      <path class="cls-1" d="M12.97,90.39s-3.19-.22-4.14,4.31"/>
      <path class="cls-1" d="M13.08,89.72s.84-18.7-.06-24.24c-.9-5.54-2.18-9.29-.73-12.49"/>
      <path class="cls-1" d="M6.14,89.78s2.91-3.69,6.89-3.69"/>
      <path class="cls-1" d="M6.03,74.94c.39,0,4.37-1.85,7.17,2.69"/>
      <path class="cls-1" d="M7.82,71.58c.34.11,3.97,1.57,4.65,3.81"/>
      <path class="cls-1" d="M13.02,86.76s13.21,4.2,23.01,2.63c9.8-1.57,10.13-5.88,10.13-5.88,0,0-6.05-26.93-3.42-31.86"/>
      <path class="cls-1" d="M36.37,41.69s7.11,1.18,8.12,3.42c1.01,2.24,8.96,24.97,9.29,27.66.34,2.69-3.36,12.99-4.37,15.29-1.01,2.29-1.51,3.86-1.51,3.86l-3.47-5.99"/>
    </g>
    <line class="cls-1" x1="46.05" y1="83.4" x2="49.41" y2="87.99"/>
    <g class="cls-3">
      <path class="cls-1" d="M30.55,89.95s.84-8.79-.28-12.6c-1.12-3.81-1.51-11.14-1.62-12.65-.11-1.51-1.06-16.68-1.06-16.68"/>
      <path class="cls-1" d="M47.73,91.63s1.96,33.31,1.01,34.6c-.95,1.29-13.55,2.52-15.4,1.85-1.85-.67-3.58-22.34-3.3-22.39.28-.06,4.98-1.68,5.26-3.69"/>
      <path class="cls-1" d="M30.32,109.26s-.73,10.19-.45,13.33c.28,3.13.84,6.49-1.73,8.01-2.58,1.51-12.49-.5-14.78-1.68s-2.46-3.86-2.41-4.7-.39-14.44.11-17.3c.5-2.86.67-7.61.67-7.61"/>
      <path class="cls-1" d="M10.9,109.37c.22.06,4.14,1.34,5.04,1.46.9.11,1.4.06,1.4.06,0,0-.11,12.43-1.06,13.49-.95,1.06-4.65.39-5.26-1.06"/>
      <path class="cls-1" d="M10.84,115.92s4.93,1.68,6.38.9"/>
      <path class="cls-1" d="M48.46,103.66s-3.92,1.34-4.54,2.52c-.62,1.18.84,10.86,1.46,11.87.62,1.01,3.25.78,3.64.28"/>
      <path class="cls-1" d="M44.04,111.67c.22,0,3.64-.28,4.53-2.07"/>
      <path class="cls-1" d="M44.99,127.18s-.52,29.57,1.56,33.49c0,0,1.5,1.75,3.92,2.09,2.42.33,5.67,2.25,5.92,4,.25,1.75-1,4.42-3.75,4.92-2.75.5-9.09-1.67-11.35-2.59-2.25-.92-3.42-3-3.34-4.67.08-1.67-3-19.11-3.34-23.19-.33-4.09-1-13.1-1-13.1"/>
      <path class="cls-1" d="M25.19,130.88s-1.5,30.45-.5,33.62c1,3.17-3.59,7.59-6.93,8.59-3.34,1-5.09.17-6.76-.33-1.67-.5-2.5-3.67-.83-4.92,1.67-1.25,7.18-3.5,7.18-6.34s-3-32.2-3-32.2"/>
      <path class="cls-1" d="M15.43,173.51s-1.67-1.42-.92-2.67c.75-1.25,2.34-1.75,2.34-1.75"/>
      <path class="cls-1" d="M12.43,173.18s-.75.17-.42-1.5c.33-1.67,1.59-2.42,1.59-2.42"/>
      <path class="cls-1" d="M10.43,172.18s-.42-1.17.33-2.34c.75-1.17,2-1.5,2-1.5"/>
      <path class="cls-1" d="M49.64,167.92s1.33,0,2.34.75c1,.75,1.33,2.25,1.33,2.25"/>
      <path class="cls-1" d="M52.06,167.67s1.25-.83,1.84.17c.58,1,.58,2.84.58,2.84"/>
      <path class="cls-1" d="M53.14,166s2.5.75,2.5,1.92"/>
      <path class="cls-1" d="M53.89,165.25c.33.08,1.92,1.34,1.92,1.34"/>
    </g>
  </g>
</svg>