<?xml version="1.0" encoding="UTF-8"?>
<svg id="Layer_2" data-name="Layer 2" xmlns="http://www.w3.org/2000/svg" viewBox="0 0 34.52 78.53">
  <defs>
    <style>
      .cls-1 {
        stroke-width: .32px;
      }

      .cls-1, .cls-2, .cls-3 {
        fill: none;
      }

      .cls-1, .cls-3 {
        stroke: #231f20;
      }

      .cls-3 {
        stroke-miterlimit: 10;
        stroke-width: .25px;
      }
    </style>
  </defs>
  <g id="Layer_1-2" data-name="Layer 1">
    <g>
      <g>
        <path class="cls-3" d="M24.25,3.79c-6.27,4.54-14.08,1.58-15.23,1.19-.02-1.5-.04-3.05-.07-4.65.53.59,4.57,4.55,15.12.23.03.68.07,1.28.12,1.82.04.46.09.93.13,1.4h-.07Z"/>
        <path class="cls-2" d="M1.05,16.76c2.64,1.7,5.96,3.16,7.15,3.16l4.99,3.71c.16,0,.83.16,1.76.18-1.19,3.95-1.5,46.48-1.06,48.15.46,1.71.91,4.55-1.14,5.81-2.04,1.25-7.85.56-11.26-2.17s.91-32.21,0-37.21c-.88-4.86-.47-20.7-.44-21.63Z"/>
        <path class="cls-2" d="M24.32,3.78c.49,6.09.57,13.41,1.77,13.55.73.09,3.25-1.34,5.33-2.81.08,2.58.48,17.53-.35,23.87-.91,6.94,4.44,34.6,3.07,36.19-1.36,1.59-11.49,2.5-12.97,2.39s.12-4.9-1.13-15.02c-1.2-9.64-3.93-35.69-4.19-38.17-.32.03-.62.03-.9.03-.93-.02-1.6-.18-1.76-.18l-4.99-3.71c.16,0,.28-.03.36-.09.43-.34.53-6.68.46-14.85,1.15.39,8.96,3.35,15.23-1.19h.07Z"/>
      </g>
      <g>
        <path class="cls-1" d="M8.89,4.93s.06.02.13.05c1.15.39,8.96,3.35,15.23-1.19"/>
        <path class="cls-1" d="M15.62,9.82c-.3.45.83,9.64.83,9.64"/>
        <path class="cls-1" d="M1.05,16.72v.03h0c-.03.94-.44,16.78.44,21.64.91,5-3.41,34.48,0,37.21s9.22,3.42,11.26,2.17c2.05-1.26,1.6-4.1,1.14-5.81-.44-1.67-.13-44.2,1.06-48.15.02-.1.05-.17.08-.22"/>
        <path class="cls-1" d="M15.83,23.59s.01.07.02.19c.26,2.48,2.99,28.53,4.19,38.17,1.25,10.12-.35,14.91,1.13,15.02s11.61-.8,12.97-2.39c1.37-1.59-3.98-29.25-3.07-36.19.83-6.34.43-21.29.35-23.87-.01-.25-.01-.38-.01-.38"/>
      </g>
    </g>
    <path class="cls-1" d="M12.42,23.41c.16,0,.83.15,1.76.17.28,0,.58,0,.9-.03,1.15-.1,2.5-.46,3.71-1.47"/>
  </g>
</svg>