<?xml version="1.0" encoding="UTF-8"?>
<svg id="Layer_2" data-name="Layer 2" xmlns="http://www.w3.org/2000/svg" viewBox="0 0 52.25 58.5">
  <defs>
    <style>
      .cls-1 {
        stroke: #231f20;
        stroke-width: .35px;
      }

      .cls-1, .cls-2 {
        fill: none;
      }
    </style>
  </defs>
  <g id="Layer_1-2" data-name="Layer 1">
    <g>
      <g>
        <path class="cls-2" d="M44.44,46.17c-.03.24-.27,1.32-1.63,2.53-1.37,1.22-3.89,2.56-8.49,3.3-9.17,1.47-21.32-2.11-22.85-2.58.01-.23.02-.47.03-.72h-.19c-3.86-.01-6.71,3.46-6.88,3.68-1.89-3.63-3.5-7.34-3.93-10.01-1.17-7.34,5.15-26.09,6.72-31.3,1.52-5.04,11.08-7.72,11.67-7.88-.98,2.28-.92,4.99-.81,6.65.11,1.68,1.46,3.19,1.46,3.19,0,0,2.29-3.64,4.47-3.75h0c.52.82,1.15,1.42,1.9,1.57,1.04.21,2.21-.58,3.24-1.85,0,0,1.57.28,2.8,1.29,1.24,1.01,2.02,2.57,2.02,2.57,0,0,1.01-1.23.89-5.76-.03-1.07-.13-1.99-.27-2.79h.05s7.11,1.16,8.12,3.4,8.96,24.97,9.29,27.66c.34,2.68-3.34,12.94-4.35,15.26l-3.27-4.46Z"/>
        <path class="cls-2" d="M44.44,46.17l3.27,4.46s-.01.01-.01.02c-1.01,2.3-1.52,3.87-1.52,3.87l-3.37-5.82c1.36-1.21,1.6-2.29,1.63-2.53Z"/>
        <path class="cls-2" d="M11.47,49.42c-.06,1.78-.11,2.91-.11,2.91h.04c-.06.19-.1.42-.13.68h-.02s-3.17-.23-4.13,4.26c-.9-1.54-1.83-3.21-2.69-4.89.17-.22,3.02-3.69,6.88-3.69h.19c-.01.26-.02.5-.03.73Z"/>
      </g>
      <g>
        <path class="cls-1" d="M21.83.16s-1.9.67-2.91,2.96c-.01.02-.02.05-.03.07-.98,2.28-.92,4.99-.81,6.65.11,1.68,1.46,3.19,1.46,3.19,0,0,2.29-3.64,4.47-3.75"/>
        <path class="cls-1" d="M29.16,9s1.57.28,2.8,1.29c1.24,1.01,2.02,2.57,2.02,2.57,0,0,1.01-1.23.89-5.76-.03-1.07-.13-1.99-.27-2.79-.47-2.61-1.35-3.82-1.35-3.82"/>
        <path class="cls-1" d="M18.92,3.18c-3.59,1.51-7.59,2.51-10.59,5.51C3.33,17.69,2.33,26.69.33,35.69c-1,8,3,16,7.46,22.71"/>
        <path class="cls-1" d="M11.25,53.01s-3.17-.23-4.13,4.26c0,.02,0,.03,0,.05"/>
        <path class="cls-1" d="M11.36,52.33s.05-1.13.11-2.91c.01-.23.02-.47.03-.72.19-5.72.45-16.6-.19-20.61-.9-5.54-2.19-9.29-.73-12.48"/>
        <path class="cls-1" d="M4.42,52.39h0c.17-.23,3.02-3.7,6.88-3.7"/>
        <path class="cls-1" d="M4.31,37.55c.39,0,4.37-1.84,7.16,2.69"/>
        <path class="cls-1" d="M6.1,34.19c.34.12,3.97,1.57,4.65,3.81"/>
        <path class="cls-1" d="M11.31,49.37s.05.02.16.05c1.53.47,13.68,4.05,22.85,2.58,4.6-.74,7.12-2.08,8.49-3.3,1.36-1.21,1.6-2.29,1.63-2.53,0-.03,0-.05,0-.05,0,0-6.05-26.93-3.42-31.86"/>
        <path class="cls-1" d="M34.65,4.3s7.11,1.17,8.12,3.41,8.96,24.97,9.29,27.66c.34,2.68-3.34,12.94-4.35,15.26,0,.01-.01.01-.01.02-1.01,2.3-1.52,3.87-1.52,3.87l-3.37-5.82-.1-.17"/>
        <polyline class="cls-1" points="44.43 46.15 44.44 46.17 47.71 50.63 47.79 50.74"/>
      </g>
    </g>
  </g>
</svg>