<?xml version="1.0" encoding="UTF-8"?>
<svg id="Layer_2" data-name="Layer 2" xmlns="http://www.w3.org/2000/svg" viewBox="0 0 44.2 103.43">
  <defs>
    <style>
      .cls-1 {
        fill: none;
        stroke: #231f20;
        stroke-width: .32px;
      }
    </style>
  </defs>
  <g id="Layer_1-2" data-name="Layer 1">
    <g>
      <path class="cls-1" d="M13.17,1.95c-2.98,1.27-6.46,3.11-7.05,4.9C5.05,10.07-.25,22.27.29,23.73c.53,1.46,6.21,4.99,7.9,3.68,1.55-1.2,3.24-5.25,3.49-5.89.03-.06.04-.09.04-.09"/>
      <path class="cls-1" d="M17.63.25s-.64.21-1.62.57c-.78.28-1.77.67-2.83,1.11"/>
      <path class="cls-1" d="M13.18,1.93h-.01v.02c-.1.34-1.48,5.02-2.29,10.04-.65,3.97.31,6.79.8,9.53.16.86.27,1.71.27,2.59s-.08,1.96-.22,3.08c-.17,1.31-.41,2.71-.69,4.07-.47,2.23-1.04,4.34-1.54,5.74-1.08,3-4.45,19.42-4.53,34.46s-2,26.02,1.53,29.24,11.13,2.23,18.81,2.46c7.67.23,15.57-1.31,16.5-4.91.92-3.61-1.31-45.59-2.77-52.88-1.27-6.35-3.53-11.42-4.45-14.14-.13-.41-.24-.76-.31-1.06-.17-.72-.21-1.65-.18-2.59.04-1.65.28-3.31.37-3.92.03-.15.04-.24.04-.24"/>
      <path class="cls-1" d="M32.6,2.78s-.02.03-.04.08c-.34.65-2.55,5.18-1.27,11.28.32,2.34,1.86,6.46,3.18,9.52.89,2.05,1.68,3.63,1.96,3.91.69.69,7.45-2.69,7.52-4,.08-1.3-5.21-15.34-6.9-17.95-.67-1.04-2.51-1.99-4.49-2.76-1.14-.44-2.33-.82-3.36-1.13-1.69-.5-2.97-.79-2.97-.79"/>
      <path class="cls-1" d="M35.21,10.68c-.16.46-.39,5.53-1.46,7.91"/>
      <path class="cls-1" d="M11.03,31.25h.01c.4.25,10.1,6.05,23.55-.02.05-.01.1-.04.15-.06"/>
      <path class="cls-1" d="M11.72,27.18h.01c.4.24,9.86,5.57,22.02.39"/>
      <path class="cls-1" d="M16.02.78s0,.01-.01.04c-.11.68-1.62,9.74.01,10.55,1.69.85,10.05,1.23,11.36-.38,1.3-1.61,1.76-9.06,1.76-9.06"/>
    </g>
  </g>
</svg>