<?xml version="1.0" encoding="UTF-8"?>
<svg id="Layer_2" data-name="Layer 2" xmlns="http://www.w3.org/2000/svg" viewBox="0 0 43.95 102.66">
  <defs>
    <style>
      .cls-1 {
        stroke-miterlimit: 10;
        stroke-width: .25px;
      }

      .cls-1, .cls-2 {
        fill: none;
        stroke: #231f20;
      }

      .cls-2 {
        stroke-width: .32px;
      }
    </style>
  </defs>
  <g id="Layer_1-2" data-name="Layer 1">
    <path class="cls-1" d="M27.25,10.31c1.22-1.56,1.69-8.37,1.75-9.23v-.02s.05.01.07.02c1.03.31,2.22.69,3.36,1.13-.34.65-2.55,5.18-1.27,11.28.32,2.34,1.86,6.46,3.18,9.52-.09.61-.33,2.27-.37,3.92h-.35c-12.16,5.17-21.62-.16-22.02-.39.14-1.12.22-2.18.22-3.08s-.11-1.73-.27-2.59c-.49-2.74-1.45-5.56-.8-9.53.81-5.02,2.19-9.7,2.29-10.04h0v-.02c1.04-.43,2.02-.81,2.79-1.09-.29,1.83-1.44,9.75.06,10.51,1.69.87,10.05,1.26,11.36-.39Z"/>
    <path class="cls-1" d="M34.34,23.01c-1.32-3.06-2.86-7.18-3.18-9.52-1.28-6.1.93-10.63,1.27-11.28,1.98.77,3.82,1.72,4.49,2.76,1.69,2.61,6.98,16.65,6.9,17.95-.07,1.31-6.83,4.69-7.52,4-.28-.28-1.07-1.86-1.96-3.91Z"/>
    <path class="cls-1" d="M38.91,44.72c1.46,7.29,3.69,49.27,2.77,52.88-.93,3.6-8.83,5.14-16.5,4.91-7.68-.23-15.28.76-18.81-2.46s-1.61-14.2-1.53-29.24,3.45-31.46,4.53-34.46c.5-1.4,1.07-3.51,1.54-5.74.4.24,10.1,6.04,23.55-.03.92,2.72,3.18,7.79,4.45,14.14Z"/>
    <path class="cls-1" d="M13.04,1.3c-.1.34-1.48,5.02-2.29,10.04-.65,3.97.31,6.79.8,9.53-.25.64-1.94,4.69-3.49,5.89-1.69,1.31-7.37-2.22-7.9-3.68-.54-1.46,4.76-13.66,5.83-16.88.59-1.79,4.07-3.63,7.05-4.9Z"/>
    <path class="cls-1" d="M34.08,29.53c.07.3.18.65.31,1.06-13.45,6.07-23.15.27-23.55.03.28-1.36.52-2.76.69-4.07.4.23,9.86,5.56,22.02.38h.35c-.03.95.01,1.88.18,2.6Z"/>
    <path class="cls-2" d="M37.14,11.77c-.16.46-.39,5.53-1.46,7.91"/>
  </g>
</svg>