<?xml version="1.0" encoding="UTF-8"?>
<svg id="Layer_2" data-name="Layer 2" xmlns="http://www.w3.org/2000/svg" viewBox="0 0 56.22 69.64">
  <defs>
    <style>
      .cls-1 {
        fill: none;
        stroke: #231f20;
        stroke-width: .32px;
      }
    </style>
  </defs>
  <g id="Layer_1-2" data-name="Layer 1">
    <g>
      <path class="cls-1" d="M24.74,1.97s-5.2,6.57-4.57,18.22c.22,4.08.48,11.23.67,18.83.37,14.09.53,29.73-.16,30.28-1.06.83-11.91-4.63-11.15-7.13.37-1.2,1.13-5.66,1.73-11.07.64-5.87,1.09-12.86.62-17.99-.91-9.87-2.13-17.3-2.13-17.3"/>
      <path class="cls-1" d="M19.31,13.59s.01.11.01.17c-.08,1.74-2.13,2.27-2.66,4.93-.03.12-.04.27-.04.45-.08,3.76,4.21,19.88,4.21,19.88"/>
      <path class="cls-1" d="M23.34,1.24s-7.31,8.48-7.85,9.85c-.04.08-.05.13-.04.16.21.58,3.65.75,3.86,2.31"/>
      <path class="cls-1" d="M19.92,4.96s-11.23,3.18-11.76,6.37c-.11.7-.39,2.24-.77,4.3-1.34,7.34-3.88,21.21-4.54,26.43-.83,6.68-3.26,9.71-2.43,11.84.84,2.12,5.24,5.76,7.13,5.23,1.65-.46,3.29-6.44,3.71-8.03.06-.25.09-.39.09-.39"/>
      <path class="cls-1" d="M4.14,34.55s2.58,4.85,4.25,5.16"/>
      <path class="cls-1" d="M32.82.93s2.28,6.98,3.19,17.61c.41,4.81.39,10.79.3,16.49-.01.09-.01.17-.01.25-.11,6.8-.32,13.16.01,16.57.61,6.29.61,14.79,1.9,14.94,1.29.16,8.35-4.55,8.42-5.61.03-.34-.2-3.35-.51-7.45-.68-8.82-1.74-22.7-1.54-26.01.31-4.86-.3-11.54-.3-11.54"/>
      <path class="cls-1" d="M33.35.48s.94,1.46,2.13,3.38c1.92,3.12,4.47,7.45,4.62,8.67.01.06.01.12.01.16-.13,1.23-1.3,1.92-1.74,2.13-.1.05-.16.07-.16.07,0,0,2.62,2.49,2.7,4.83.02.24,0,.48-.05.71-.49,2.33-4.07,13.33-4.56,14.85l-.06.18"/>
      <path class="cls-1" d="M35.32,3.82s.06.02.16.04c.05.02.11.04.18.06,1.8.57,10.16,3.43,10.97,8.09.91,5.24,5.46,28.83,7.66,33.99s1.98,7.36.84,9.11c-1.14,1.74-5.24,3.03-6.45,2.81-.93-.18-2.07-2.9-2.56-4.19-.16-.41-.25-.67-.25-.67"/>
      <path class="cls-1" d="M23.34,1s-1.61,1.87-3.38,3.99c-2.2,2.65-4.64,5.69-4.51,6.03.01.02.02.04.04.07.45.55,3.9.75,3.83,2.43,0,.01,0,.03-.01.04v.03c-.13,1.69-2.13,2.25-2.65,4.87-.03.17-.05.4-.04.68.09,4.15,4.21,19.65,4.21,19.65"/>
      <path class="cls-1" d="M33.35.25s1.04,1.61,2.31,3.67c1.99,3.25,4.54,7.61,4.45,8.54,0,.02-.01.05-.01.07-.2,1.47-1.89,2.13-1.89,2.13l.16.16c.59.61,2.63,2.86,2.54,4.9,0,.16-.02.32-.05.48-.49,2.32-4.04,13.25-4.55,14.83-.05.12-.07.19-.07.19"/>
    </g>
  </g>
</svg>