<?xml version="1.0" encoding="UTF-8"?>
<svg id="Layer_2" data-name="Layer 2" xmlns="http://www.w3.org/2000/svg" viewBox="0 0 44.21 103.43">
  <defs>
    <style>
      .cls-1 {
        fill: none;
        stroke: #231f20;
        stroke-width: .32px;
      }
    </style>
  </defs>
  <g id="Layer_1-2" data-name="Layer 1">
    <g>
      <path class="cls-1" d="M13.17,1.95c-2.98,1.28-6.45,3.11-7.05,4.9C5.05,10.07-.25,22.27.29,23.73s6.22,4.99,7.91,3.69c1.54-1.2,3.23-5.26,3.49-5.9.03-.06.04-.09.04-.09"/>
      <path class="cls-1" d="M17.63.25s-.64.21-1.62.57c-.78.29-1.77.67-2.83,1.12"/>
      <path class="cls-1" d="M34.48,23.66c.03-.15.04-.23.04-.23"/>
      <path class="cls-1" d="M13.18,1.94h-.01c-.08.3-1.47,4.99-2.29,10.05-.64,3.97.32,6.79.81,9.53.16.86.27,1.72.27,2.6s-.08,1.95-.23,3.07c-.16,1.3-.4,2.71-.69,4.06-.46,2.24-1.03,4.36-1.54,5.76-1.07,2.99-4.45,19.41-4.53,34.46-.07,15.04-1.99,26.01,1.54,29.23,3.53,3.23,11.12,2.23,18.8,2.46,7.67.23,15.58-1.3,16.5-4.91s-1.31-45.59-2.76-52.88c-1.27-6.34-3.53-11.4-4.44-14.13-.14-.41-.25-.76-.32-1.06-.17-.72-.21-1.66-.18-2.6.04-1.64.28-3.3.37-3.91"/>
      <path class="cls-1" d="M32.6,2.78s-.02.03-.04.08c-.34.65-2.55,5.18-1.27,11.28.32,2.34,1.86,6.46,3.19,9.52h0c.89,2.05,1.69,3.63,1.96,3.91.69.69,7.44-2.69,7.52-3.99.07-1.31-5.22-15.35-6.91-17.96-.67-1.03-2.51-1.99-4.49-2.76-1.14-.44-2.32-.82-3.35-1.13-1.7-.5-2.98-.79-2.98-.79"/>
      <path class="cls-1" d="M35.21,10.69c-.15.46-.39,5.52-1.46,7.9"/>
      <path class="cls-1" d="M11.04,31.25s9.83,6.18,23.57-.01c.05-.02.09-.04.14-.06"/>
      <path class="cls-1" d="M11.73,27.19s9.59,5.67,22.02.38"/>
      <path class="cls-1" d="M16.02.79s0,.01-.01.03c-.1.61-1.61,9.74.01,10.56,1.69.84,10.06,1.22,11.36-.39,1.31-1.61,1.77-9.05,1.77-9.05"/>
    </g>
  </g>
</svg>