<?xml version="1.0" encoding="UTF-8"?>
<svg id="Layer_2" data-name="Layer 2" xmlns="http://www.w3.org/2000/svg" viewBox="0 0 37.04 13.32">
  <defs>
    <style>
      .cls-1 {
        fill: none;
        stroke: #231f20;
        stroke-width: .32px;
      }
    </style>
  </defs>
  <g id="Layer_1-2" data-name="Layer 1">
    <g>
      <path class="cls-1" d="M16.71,4.35c-.24-.8-.72-1.57-1.12-2.11-.34-.48-.62-.78-.62-.78"/>
      <path class="cls-1" d="M6.25,1.69s-.31.27-.79.71c-.91.83-2.44,2.29-3.6,3.69-.77.93-1.38,1.85-1.52,2.53,0,.02-.01.03-.01.05-.38,2.2,2.35,4.85,5.76,4.32,3.42-.53,9.26-4.55,10.47-6.52.39-.64.37-1.39.15-2.11"/>
      <path class="cls-1" d="M5.51,2.45c.54.15.4,1.67,2.54,1.74,2,.08,6.94-1.73,7.54-1.95.04-.01.06-.02.06-.02"/>
      <path class="cls-1" d="M1.84,6.09h.02c.45.03,7.83.61,8.86,3.11"/>
      <path class="cls-1" d="M.25,8.44s.03.07.09.18c.44.82,2.56,4.05,7.42,2.25,1.11-.41,2.14-.92,3.07-1.49,3.52-2.07,5.67-4.76,5.88-5.02h0v-.02"/>
      <path class="cls-1" d="M23.24,1.23s-.45,10.63,6.38,10.93c6.82.3,7.66-3.04,6.98-6.22-.02-.08-.04-.17-.07-.25-.7-2.72-3.2-4.88-3.76-5.34-.08-.07-.12-.1-.12-.1"/>
      <path class="cls-1" d="M23.29,1.08l.05.1c.06.1.17.27.33.47.64.8,2.21,2.14,5.25,1.71,3.99-.57,3.89-2.72,3.85-3.01v-.03"/>
      <path class="cls-1" d="M23.62,1.31s.01.12.05.34c.17,1.06.8,4.39,2.4,6.81,1.1,1.66,2.65,2.89,4.83,2.64,6-.69,5.7-3.42,5.7-3.42"/>
      <path class="cls-1" d="M26.2,8.37s3.57-4.41,10.24-2.66"/>
    </g>
  </g>
</svg>