<?xml version="1.0" encoding="UTF-8"?>
<svg id="Layer_2" data-name="Layer 2" xmlns="http://www.w3.org/2000/svg" viewBox="0 0 45.99 47.83">
  <defs>
    <style>
      .cls-1 {
        fill: none;
        stroke: #231f20;
        stroke-width: .37px;
      }
    </style>
  </defs>
  <g id="Layer_1-2" data-name="Layer 1">
    <g>
      <polyline class="cls-1" points="15.79 23.91 15.41 27.46 13.42 45.79"/>
      <line class="cls-1" x1="22.38" y1="47.11" x2="20.27" y2="27.99"/>
      <line class="cls-1" x1="30.55" y1="46.32" x2="26.99" y2="27.6"/>
      <polyline class="cls-1" points="4.72 43.02 4.74 42.9 7.1 25.49"/>
      <path class="cls-1" d="M11.54.42c6.97,6.97,18.83,5.07,26.25-.13.02-.01.04-.03.06-.04"/>
      <path class="cls-1" d="M11.37.56S-.67,38.61.3,40.63c.86,1.79,3.8,2.21,4.44,2.27.09.02.13.02.13.02,0,0,2.02,2.72,4.92,2.81s3.43-.09,3.43-.09c0,0,.05.07.17.19.46.47,1.91,1.68,4.66,1.74,3.43.09,4.39-.35,4.39-.35,0,0,3.7.35,5.89-.09,2.2-.44,2.73-.87,2.73-.87,0,0,4.04.35,6.06-.36,2.02-.7,6.85.36,8.44-2.63,1.58-2.99-7.65-42.8-7.65-42.8"/>
      <path class="cls-1" d="M39.67,45.39c-1.14-7.16-2.28-14.32-3.42-21.48"/>
    </g>
  </g>
</svg>