<?xml version="1.0" encoding="UTF-8"?>
<svg id="Layer_2" data-name="Layer 2" xmlns="http://www.w3.org/2000/svg" xmlns:xlink="http://www.w3.org/1999/xlink" viewBox="0 0 63.1 167.75">
  <defs>
    <style>
      .cls-1, .cls-2 {
        fill: none;
      }

      .cls-3 {
        clip-path: url(#clippath-1);
      }

      .cls-4 {
        clip-path: url(#clippath-3);
      }

      .cls-2 {
        stroke: #231f20;
        stroke-width: .37px;
      }

      .cls-5 {
        clip-path: url(#clippath-2);
      }

      .cls-6 {
        clip-path: url(#clippath);
      }
    </style>
    <clipPath id="clippath">
      <rect class="cls-1" width="63.1" height="167.75"/>
    </clipPath>
    <clipPath id="clippath-1">
      <rect class="cls-1" width="63.1" height="167.75"/>
    </clipPath>
    <clipPath id="clippath-2">
      <rect class="cls-1" width="63.1" height="167.75"/>
    </clipPath>
    <clipPath id="clippath-3">
      <rect class="cls-1" width="63.1" height="167.75"/>
    </clipPath>
  </defs>
  <g id="Layer_1-2" data-name="Layer 1">
    <g class="cls-6">
      <path class="cls-2" d="M25.43,24.52s-1.58-3.03-2.77-1.45c-1.19,1.58-.26,6.33,1.58,6.85,1.85.53,2.77-.79,2.77-.79"/>
      <path class="cls-2" d="M24.24,25.18s-2.37.53-1.05,2.11"/>
      <path class="cls-2" d="M23.45,25.84s.79.4,1.05,1.58"/>
      <path class="cls-2" d="M26.09,29.53s5.67,11.86,14.49,10.15c8.83-1.71,10.8-14.5,10.8-15.55s-3.56-11.34-5.14-12.13c-1.58-.79-5.27,1.85-5.27,1.85l.92-2.77-8.7,4.09s6.06-6.06,5.8-6.99c0,0-8.83.66-8.7,3.56.13,2.9-3.63,9.75-5.83,10.54"/>
    </g>
    <line class="cls-2" x1="23.68" y1="22.8" x2="29.92" y2="22.28"/>
    <g class="cls-3">
      <path class="cls-2" d="M30.19,21.66s-1.23,3.52-.09,4.57c1.14,1.05,5.1,2.99,7.29,1.05s1.58-5.01.97-5.36c-.62-.35-5.1-1.67-8.17-.26Z"/>
      <path class="cls-2" d="M43.37,21.93s-1.41,5.27.18,6.33c1.58,1.05,4.04,1.67,5.54.26,1.49-1.41,1.41-3.16,1.23-4.22-.18-1.05-3.43-2.99-6.94-2.37Z"/>
    </g>
    <line class="cls-2" x1="43.45" y1="21.93" x2="38.71" y2="22.19"/>
    <line class="cls-2" x1="38.62" y1="22.8" x2="43.02" y2="22.63"/>
    <line class="cls-2" x1="50.22" y1="24.21" x2="51.36" y2="23.95"/>
    <line class="cls-2" x1="50.4" y1="25.44" x2="51.36" y2="25.09"/>
    <line class="cls-2" x1="29.66" y1="23.16" x2="25" y2="23.68"/>
    <g class="cls-5">
      <path class="cls-2" d="M35.9,17.53s.26,1.14-.18,1.06c-.44-.09-3.78-1.06-4.22.35,0,0-.18-2.55,4.39-1.41Z"/>
      <path class="cls-2" d="M44.14,18.18s-.38.92.06.91c.45-.02,3.86-.4,4.15.83,0,0,.45-2.11-4.21-1.74Z"/>
      <path class="cls-2" d="M22.36,44.68s-10.19-12.3-5.8-15.99c4.39-3.69,2.99-16.7,10.9-22.06,7.91-5.36,19.16-5.54,23.29,3.95,4.13,9.49,4.31,16.08,5.71,18.98,1.41,2.9-2.81,12.3-8.61,15.55"/>
      <path class="cls-2" d="M38.71,30.45c.35.09.44,1.23,2.46.79,2.02-.44,2.11-.97,1.32-1.58-.79-.62-1.41-5.01-.09-6.94"/>
      <path class="cls-2" d="M35.55,32.03s.7.62-.35,1.06"/>
      <path class="cls-2" d="M35.72,32.65c.35,0,3.95,2.02,7.12.79"/>
      <path class="cls-2" d="M38.18,35.11s.79,1.06,1.67.35"/>
      <path class="cls-2" d="M30.89,36.07s-1.49,9.75,4.74,11.78c0,0,5.54-2.46,4.83-8.26"/>
      <path class="cls-2" d="M30.54,38.8s-1.23.79-2.02,2.55c-.79,1.76-.26,10.37,1.93,10.72,2.2.35,4.31-4.57,4.31-4.57"/>
      <path class="cls-2" d="M35.72,47.85s1.67,5.19,3.78,4.92,3.69-2.81,4.13-4.39c.44-1.58-2.02-8.79-2.02-8.79"/>
      <path class="cls-2" d="M28.6,41.35s-8.79,3.34-10.28,7.91c-1.49,4.57-6.68,14.06-5.98,16.34.7,2.28,5.62,5.71,7.47,5.97,1.85.26,2.46-.26,2.46-.26"/>
      <path class="cls-2" d="M20.08,55.76s2.9,17.75,1.49,22.94c0,0,7.38,5.8,16.17,3.87,8.79-1.93,10.46-4.13,10.46-4.13l3.6-24.78"/>
      <path class="cls-2" d="M42.22,42.93c.61,0,8.26,2.02,10.19,5.27,1.93,3.25,8,16.87,7.47,19.51-.53,2.64-9.93,5.62-10.72,5.18"/>
      <path class="cls-2" d="M21.75,78.52s-12.04,38.05-11.07,40.07c.97,2.02,4.57,2.28,4.57,2.28,0,0,2.02,2.72,4.92,2.81,2.9.09,3.43-.09,3.43-.09,0,0,1.41,1.84,4.83,1.93,3.43.09,4.39-.35,4.39-.35,0,0,3.69.35,5.89-.09,2.2-.44,2.72-.88,2.72-.88,0,0,4.04.35,6.06-.35,2.02-.7,6.85.35,8.44-2.64,1.58-2.99-7.65-42.79-7.65-42.79"/>
      <path class="cls-2" d="M56.11,70.78s2.55,11.78,2.2,15.29c-.35,3.51-1.49,5.98-.18,8.7,1.32,2.72,3.87,8.44,2.9,10.11-.97,1.67-1.14,1.32-1.85.7-.7-.62-.18-3.43-.18-3.43"/>
      <path class="cls-2" d="M59.18,105.41s.53.7-.57.88c-1.1.18-1.32-.44-1.14-.88.18-.44.35-2.81.35-2.81"/>
      <path class="cls-2" d="M57.56,105.93s-.66.7-1.49.04c-.84-.66-.26-4.35-.26-4.35"/>
      <path class="cls-2" d="M56.55,96.75c-.26.09-1.67,4.35-.18,4.88s2.24-2.77,1.71-3.74"/>
      <path class="cls-2" d="M55.05,101.54s3.03,1.32,4.66-.09"/>
      <path class="cls-2" d="M55.85,105.54s-.44.48-1.27.13c-.84-.35-.92-2.46-.92-2.46"/>
      <path class="cls-2" d="M52.51,97.94s.88-2.72.26-4.57c-.62-1.84-4.31-17.49-4.31-17.49"/>
    </g>
    <line class="cls-2" x1="25.82" y1="101.76" x2="23.45" y2="123.64"/>
    <line class="cls-2" x1="32.41" y1="124.96" x2="30.3" y2="105.85"/>
    <line class="cls-2" x1="40.58" y1="124.17" x2="37.02" y2="105.45"/>
    <line class="cls-2" x1="14.76" y1="120.87" x2="17.13" y2="103.34"/>
    <g class="cls-4">
      <path class="cls-2" d="M20.42,71.71s-2.9,11.6-4.88,14.76c-1.98,3.16-2.24,4.48-1.71,5.8.53,1.32,1.98,3.95.53,4.75-1.45.79-1.05-3.03-3.16-1.98-2.11,1.05-3.82,5.01-4.48,6.72-.66,1.71-1.71,2.37-1.71-.13s1.45-5.67,1.45-5.67"/>
      <path class="cls-2" d="M5.4,102.51s-.35,2.29-1.06.7-.53-4.92.53-6.33"/>
      <path class="cls-2" d="M4.17,102.42s-.44,1.85-1.14.7c-.7-1.14,1.05-6.15,1.23-6.59"/>
      <path class="cls-2" d="M2.94,101.45s-1.85-3.95-.09-7.29c1.76-3.34,6.06-4.48,6.68-7.64.62-3.16,1.85-13.18,5.1-18.28"/>
      <path class="cls-2" d="M18.41,123.33s-.26,26.27.09,27.77c.35,1.49.61.62,3.16,1.32,2.55.7,2.73,3.78,3.87,3.34,1.14-.44,2.55-30.32,2.55-30.32"/>
      <path class="cls-2" d="M25.35,155.67s.44,2.9-.97,4.92c-1.41,2.02-2.2,4.31-7.56,5.18-5.36.88-7.56-1.14-6.68-4.13.88-2.99,8.44-7.56,8.35-10.11"/>
      <path class="cls-2" d="M9.62,162.96s2.9,3.69,8.26,1.49c5.36-2.2,7.12-9.05,7.12-9.05"/>
      <path class="cls-2" d="M17.53,155.49l-1.58,2.46s2.81,1.85,3.51,1.67c.7-.18,2.02-2.02,1.76-2.9-.26-.88-2.9-2.55-3.69-1.23Z"/>
      <path class="cls-2" d="M39.5,124.65s1.23,18.98.88,23.38c-.35,4.39-2.11,8.17-1.41,9.4.7,1.23,4.31,2.37,5.54,4.13,1.23,1.76,5.45,3.87,9.4,2.02,3.95-1.85,2.02-4.22.7-5.62-1.32-1.41-6.85-3.78-6.59-5.01.26-1.23,1.43-25.66.46-29.44l-3.43-21.49"/>
      <path class="cls-2" d="M40.29,139.24s3.34,3.95,8.52,1.06"/>
      <path class="cls-2" d="M18.23,140.38s3.6,2.64,8.61.35"/>
      <path class="cls-2" d="M47.94,153.47s-1.32,1.58-3.52,1.41c-2.2-.18-4.57-3.08-4.57-3.08"/>
      <path class="cls-2" d="M43.89,154.88s-.35,2.02,2.2,2.11c2.55.09,4.83-1.67,4.83-1.67"/>
    </g>
  </g>
</svg>