<?xml version="1.0" encoding="UTF-8"?>
<svg id="Layer_2" data-name="Layer 2" xmlns="http://www.w3.org/2000/svg" viewBox="0 0 33.12 27.36">
  <defs>
    <style>
      .cls-1 {
        fill: none;
        stroke: #231f20;
        stroke-width: .35px;
      }
    </style>
  </defs>
  <g id="Layer_1-2" data-name="Layer 1">
    <g>
      <path class="cls-1" d="M7.65,26.21s-3.86,1.95-6.83.11c-2.68-1.67,4.86-8.31,6.35-9.59.16-.14.25-.21.25-.21"/>
      <path class="cls-1" d="M32.75,12.13c.01.11.02.19.03.25"/>
      <path class="cls-1" d="M8.77,21.95s-.02-.04-.05-.12c-.16-.42-.71-1.87-1.22-3.78-.11-.42-.23-.86-.33-1.32-.78-3.37-1.23-7.6.42-10.23C10.67,1.57,18.9-1.45,25.51,1.29c5.77,2.41,7.01,9.17,7.24,10.83"/>
      <path class="cls-1" d="M7.42,18.14s.03-.03.08-.09c1.08-1.23,13.54-14.92,25.25-5.93h0l.03.03s.03.08.09.22"/>
      <path class="cls-1" d="M8.95,21.76c-.08.02-.15.04-.23.07-.37.13-.72.39-1.02.85-.72,1.11-.69,2.51,0,3.49.03.05.06.09.1.14"/>
      <path class="cls-1" d="M12.91,13.44s.01.04.03.11"/>
    </g>
  </g>
</svg>