<?xml version="1.0" encoding="UTF-8"?>
<svg id="Layer_2" data-name="Layer 2" xmlns="http://www.w3.org/2000/svg" viewBox="0 0 53.14 55.04">
  <defs>
    <style>
      .cls-1 {
        fill: none;
        stroke: #231f20;
        stroke-width: .35px;
      }
    </style>
  </defs>
  <g id="Layer_1-2" data-name="Layer 1">
    <g>
      <path class="cls-1" d="M32.44,1.47c.06.02.12.04.18.05.26.08.54.12.84.13.4.01.74-.06,1.07-.19.1-.03.19-.07.28-.12"/>
      <path class="cls-1" d="M23.02.65c.06,0-.33.78-.22,2.01.08.89.67,4.56,2.03,6.72.51.81,1.14,1.42,1.89,1.57,1.04.21,2.22-.58,3.24-1.86,1.63-2.01,2.89-5.22,2.66-7.57,0-.06,0-.12-.01-.17"/>
      <path class="cls-1" d="M22.63.25s-.26.1-.65.34c-.65.4-1.63,1.2-2.26,2.63,0,.02-.02.05-.03.07-.98,2.28-.92,4.99-.81,6.65.11,1.68,1.46,3.19,1.46,3.19,0,0,2.29-3.64,4.48-3.75"/>
      <path class="cls-1" d="M29.97,9.1s1.56.28,2.8,1.29c1.23,1,2.01,2.57,2.01,2.57,0,0,1.01-1.23.9-5.77-.03-1.06-.13-1.99-.27-2.78-.25-1.35-.6-2.33-.88-2.95-.04-.07-.06-.12-.09-.18"/>
      <path class="cls-1" d="M19.72,3.28s-.02,0-.03.01c-4.11.95-8.09,1.96-10.09,4.95C4.27,16.9-.17,27.78.29,37.88c.22,5.06,1.67,9.92,4.86,14.22"/>
      <path class="cls-1" d="M5.22,52.49s.05-.06.13-.16c.61-.71,3.28-3.54,6.76-3.54"/>
      <path class="cls-1" d="M5.11,37.65c.39,0,4.37-1.85,7.17,2.69"/>
      <path class="cls-1" d="M6.9,34.29c.34.11,3.98,1.57,4.65,3.81"/>
      <path class="cls-1" d="M12.11,49.46s13.21,4.2,23.01,2.64c4.61-.73,7.12-2.08,8.49-3.3,1.54-1.37,1.64-2.58,1.64-2.58,0,0-6.05-26.93-3.42-31.86"/>
      <path class="cls-1" d="M35.45,4.4s7.11,1.17,8.12,3.41,8.96,24.97,9.29,27.66c.34,2.69-3.36,12.99-4.36,15.28-1.01,2.3-1.51,3.87-1.51,3.87l-3.38-5.82-.1-.18"/>
      <path class="cls-1" d="M12.09,49.82s.01-.13.01-.36c.01-.17.02-.39.03-.67.07-1.58.19-4.82.26-8.45.11-5.5.11-11.89-.36-14.76-.89-5.54-2.18-9.29-.72-12.48"/>
    </g>
    <path class="cls-1" d="M29.67,52.39s.84-8.68-.28-12.44c-1.12-3.76-1.51-11-1.62-12.49-.11-1.49-1.06-16.47-1.06-16.47"/>
  </g>
</svg>