<?xml version="1.0" encoding="UTF-8"?>
<svg id="Layer_2" data-name="Layer 2" xmlns="http://www.w3.org/2000/svg" viewBox="0 0 38.24 47.7">
  <defs>
    <style>
      .cls-1 {
        fill: none;
        stroke: #231f20;
        stroke-width: .35px;
      }
    </style>
  </defs>
  <g id="Layer_1-2" data-name="Layer 1">
    <g>
      <path class="cls-1" d="M36.73.27s0,.11,0,.32c.09,1.74.48,10.26.8,19.13.11,2.9.21,5.83.29,8.58.06,2.26.1,4.39.13,6.27.06,4.17,0,7.12-.24,7.52-.94,1.55-13.38,3.04-15.21,2.23-1.41-.63-2.76-16.42-3.17-23.59-.12-2.11-.16-3.46-.1-3.48.03-.01.12-.04.26-.1,1-.4,4.45-2.08,4.91-4.14.02-.07.03-.14.04-.22"/>
      <path class="cls-1" d="M19.51,16.82s0,.11-.02.32c-.02.58-.09,1.9-.16,3.58-.19,4.55-.44,11.83-.26,14.75.28,4.39.83,9.1-1.72,11.22-2.54,2.11-12.33-.71-14.6-2.35-1.51-1.1-2.09-3.14-2.29-4.72-.1-.8-.11-1.46-.09-1.86.02-.38,0-2.63-.05-5.64-.03-1.99-.06-4.31-.07-6.63-.03-5.04,0-10.1.24-11.95.49-4,.66-10.66.66-10.66"/>
      <path class="cls-1" d="M.32,25.48c.22.05,4.09,1.35,4.98,1.46.88.12,1.38.06,1.38.06,0,0-.03,2.89-.16,6.01-.15,3.39-.41,7.06-.9,7.61-.93,1.07-4.49.41-5.17-1.01l-.03-.06"/>
      <path class="cls-1" d="M.27,32.1s.02.01.06.02c.55.19,4.83,1.59,6.21.9.02-.01.03-.01.04-.02"/>
      <path class="cls-1" d="M37.44,19.72s-3.87,1.35-4.48,2.54c-.38.73.02,4.68.52,7.87.32,2.01.67,3.71.91,4.11.59.98,3.06.8,3.56.32.02-.01.03-.03.04-.04"/>
      <path class="cls-1" d="M33.49,30.14c.21,0,3.27-.25,4.33-1.84.06-.08.11-.16.15-.25"/>
      <path class="cls-1" d="M1.08,2.84s.05.01.08.02c7.26,2.09,15.06,3.61,22.65,2.89.71-.06,1.42-.14,2.12-.25,3.06-.46,9.48-1.4,10.81-4.91.05-.11.09-.22.12-.34"/>
    </g>
  </g>
</svg>