<?xml version="1.0" encoding="UTF-8"?>
<svg id="Layer_2" data-name="Layer 2" xmlns="http://www.w3.org/2000/svg" xmlns:xlink="http://www.w3.org/1999/xlink" viewBox="0 0 52.11 168.99">
  <defs>
    <style>
      .cls-1, .cls-2 {
        fill: none;
      }

      .cls-2 {
        stroke: #231f20;
        stroke-width: .32px;
      }

      .cls-3 {
        clip-path: url(#clippath);
      }
    </style>
    <clipPath id="clippath">
      <rect class="cls-1" width="52.11" height="168.99"/>
    </clipPath>
  </defs>
  <g id="Layer_1-2" data-name="Layer 1">
    <g class="cls-3">
      <path class="cls-2" d="M29.68,146.17s-1.02.24-1.14,1.32c-.12,1.08-.06,5.63.48,6.17.54.54,9.23.18,10-.78.78-.96.6-6.95.36-7.19-.24-.24-1.44,0-1.44,0"/>
      <path class="cls-2" d="M29.38,147.07s4.07,1.38,9.23-1.02"/>
      <path class="cls-2" d="M20.51,153.78s1.14,2.82.66,4.55c-.48,1.74-3.23,5.75-7.19,6.47s-7.13-1.32-6.47-4.19,6.35-6.71,6.35-6.71"/>
      <path class="cls-2" d="M12.79,154.8s1.5,1.86,4.01,1.8c2.52-.06,3.95-1.74,3.95-1.74"/>
      <path class="cls-2" d="M30.58,153.9c.06.24.06,2.64.06,2.64,0,0-.36,1.8,1.02,1.98,1.38.18,4.31.9,5.57.48,1.26-.42,2.16-2.34,2.16-2.34,0,0-1.2-.3-1.5-.66-.3-.36-.48-2.46-.48-2.46"/>
      <path class="cls-2" d="M30.46,156.47s-.78.12-.96.6c-.18.48-1.38,3.71-.72,4.55.66.84,12.64,4.25,14.86,3.23,2.22-1.02,3-3.29,1.86-4.79-1.14-1.5-5.45-3.47-6.35-3.35"/>
      <path class="cls-2" d="M37.29,158.99s2.58,1.2,3.59.72c1.02-.48,1.2-2.16,1.2-2.16"/>
      <path class="cls-2" d="M28.6,160.31s13.78,7.73,17.37.78"/>
      <path class="cls-2" d="M7.39,161.26s3.53,4.07,8.21,1.56c4.67-2.52,5.63-5.63,5.63-5.63"/>
      <path class="cls-2" d="M13.39,155.33s-3.3,3.24-2.82,3.59c.48.36,2.82.9,4.19.3,1.38-.6,2.7-2.82,2.7-2.82"/>
    </g>
  </g>
</svg>