<?xml version="1.0" encoding="UTF-8"?>
<svg id="Layer_2" data-name="Layer 2" xmlns="http://www.w3.org/2000/svg" xmlns:xlink="http://www.w3.org/1999/xlink" viewBox="0 0 65.86 172.58">
  <defs>
    <style>
      .cls-1 {
        stroke: #231f20;
        stroke-width: .32px;
      }

      .cls-1, .cls-2 {
        fill: none;
      }

      .cls-3 {
        clip-path: url(#clippath);
      }
    </style>
    <clipPath id="clippath">
      <rect class="cls-2" width="65.86" height="172.58"/>
    </clipPath>
  </defs>
  <g id="Layer_1-2" data-name="Layer 1">
    <g class="cls-3">
      <path class="cls-1" d="M44.69,24.99c1.38,1.44,4.01-.94,3.32-3.76-.69-2.82-2.5-.5-2.5-.5,0,0-.5-2.94-2.25-4.63-1.75-1.69-1.69-5.07-1.94-4.63-.25.44-3.32.94-3.82,1,1.38-.12,3.13-1.94,3.13-1.94,0,0-3.88,1.63-8.14,1.19-4.26-.44-5.38-2.57-7.33-.38-1.94,2.19-2.07,9.96-2.07,9.96,0,0-1.94-1.69-2.63.06-.69,1.75,0,5.45,2.82,5.57l.81-.25"/>
      <path class="cls-1" d="M22.53,22.68s-1.57,1.06-.88,1.88"/>
      <path class="cls-1" d="M21.84,23.24s1.13.63.81,1.5"/>
      <path class="cls-1" d="M20.77,20.92s-1.5-7.7-.19-11.21c1.32-3.51,2.44-2.38,2.44-2.38,0,0,.06-1.13.75-1.63.69-.5.94.56,1.82-.12.88-.69,6.45-4.63,14.21-2,7.76,2.63,8.89,6.83,7.39,16.34"/>
      <path class="cls-1" d="M47.32,21.11c-.25.12-1.44.88-1.25,1.57"/>
      <path class="cls-1" d="M46.51,21.55c.12.31.94.63.19,1.63"/>
      <path class="cls-1" d="M36.37,16.6l.88.69s2.63-1.07,3.13.31c0,0-.56-2.25-4.01-1Z"/>
      <path class="cls-1" d="M29.46,16.71l-.69.88s-2.81-.41-2.97,1.04c0,0,.02-2.32,3.66-1.92Z"/>
      <path class="cls-1" d="M31.04,20.23s.38,3.26-.06,4.38c-.44,1.13-1.25,3.38.38,3.57,1.63.19,2.69-.56,2.69-.88"/>
      <path class="cls-1" d="M29.92,29.69c.31.12,4.01,3.07,8.08-.88"/>
      <path class="cls-1" d="M26.03,23.99s-.94-3.01,1.31-3.88c2.25-.88,2.94,2.32,2.32,3.57-.63,1.25-3.07.88-3.63.31Z"/>
      <path class="cls-1" d="M36.43,23.61s-.94-3.01,1.31-3.88c2.25-.88,2.94,2.32,2.32,3.57-.63,1.25-3.07.88-3.63.31Z"/>
      <path class="cls-1" d="M23.4,26.81s2.98,9.95,12.21,8.39c7.76-1.32,9.83-9.83,9.83-9.83"/>
      <path class="cls-1" d="M31.11,34.95s-5.2,6.58-4.57,18.22c.63,11.65,1.58,48.27.51,49.11-1.06.83-11.91-4.63-11.15-7.13.76-2.5,3.26-19.2,2.35-29.06-.91-9.86-2.12-17.3-2.12-17.3"/>
      <path class="cls-1" d="M29.7,34.22s-8.12,9.41-7.89,10.02,3.94.76,3.87,2.5c-.08,1.75-2.12,2.28-2.66,4.93-.53,2.66,4.17,20.33,4.17,20.33"/>
      <path class="cls-1" d="M26.29,37.94s-11.23,3.19-11.76,6.37c-.53,3.19-4.48,24.05-5.31,30.73-.83,6.68-3.26,9.71-2.43,11.84.83,2.12,5.23,5.77,7.13,5.24,1.9-.53,3.79-8.42,3.79-8.42"/>
      <path class="cls-1" d="M10.51,67.53s2.58,4.86,4.25,5.16"/>
      <path class="cls-1" d="M7.02,87.26s-2.12,4.63-3.49,5.92c-1.37,1.29-2.12,2.96-2.35,4.4-.23,1.44.38,1.9.38,1.9"/>
      <path class="cls-1" d="M2.92,95.53c-.15.38-1.82,3.79-1.37,5.24.45,1.44.84.61.84.61"/>
      <path class="cls-1" d="M4.44,96.74c-.08.38-2.66,5.54-1.67,5.84.99.3,3.64-4.02,4.78-4.86,1.14-.83,1.44-.99,1.44-.99,0,0-.23,3.41,1.21,3.72,1.44.3.38-2.05.76-3.64.38-1.59,1.82-5.01,1.82-5.01"/>
      <path class="cls-1" d="M39.19,33.92s2.28,6.98,3.19,17.6c.91,10.62-.3,27.01.3,33.31.61,6.3.61,14.79,1.9,14.95,1.29.15,8.35-4.55,8.42-5.61.08-1.06-2.35-28.61-2.05-33.46.3-4.86-.3-11.53-.3-11.53"/>
      <path class="cls-1" d="M39.72,33.46s6.9,10.7,6.75,12.22c-.15,1.52-1.9,2.2-1.9,2.2,0,0,3.19,3.04,2.66,5.54-.53,2.5-4.63,15.02-4.63,15.02"/>
      <path class="cls-1" d="M41.69,36.8s10.4,2.96,11.31,8.2c.91,5.24,5.46,28.83,7.66,33.99,2.2,5.16,1.97,7.36.83,9.1-1.14,1.75-5.24,3.04-6.45,2.81-1.21-.23-2.81-4.86-2.81-4.86"/>
      <path class="cls-1" d="M54.59,90.44s-.99,3.57-.23,5.01c.76,1.44,1.75.76,1.67-.23-.08-.99.15-2.28,1.74-1.44,1.59.83,2.2,5.99,2.2,5.99,0,0,.53,1.82,1.67,1.21,1.14-.61-.76-6.75-.76-6.75"/>
      <path class="cls-1" d="M62.03,99.4s1.74-1.37-.08-5.92"/>
      <path class="cls-1" d="M61.19,88.55s3.72,5.39,1.37,7.97"/>
      <path class="cls-1" d="M30.46,35.74s4.1,3.26,9.03-.45c0,0,1.06,6.9-.83,6.6-1.9-.3-4.63-3.49-4.63-3.49,0,0-2.5,4.25-3.41,3.11-.91-1.14-1.44-3.26-1.44-3.26"/>
      <path class="cls-1" d="M32.06,40.97s-.53,3.04,2.35,2.81c2.88-.23,2.28-2.96,2.28-2.96"/>
      <path class="cls-1" d="M32.82,43.48s-3.26,26.33-.76,27.85c2.5,1.52,3.49.53,3.95-1.52.46-2.05-.45-26.4-.45-26.4"/>
      <path class="cls-1" d="M27.37,82.7s3.87,5.01,15.36.23"/>
      <path class="cls-1" d="M27.37,87.37c.45.11,8.76,3.64,15.36-1.14"/>
      <path class="cls-1" d="M34.11,92.26c-.3.46.83,9.64.83,9.64"/>
      <path class="cls-1" d="M31.68,106.07c.38,0,3.72.91,6.37-1.37"/>
      <path class="cls-1" d="M19.54,99.17s-.47,16.66.44,21.66c.91,5.01-3.41,34.48,0,37.22,3.41,2.73,9.21,3.41,11.26,2.16s1.59-4.1,1.14-5.81c-.46-1.71-.11-46.32,1.14-48.37"/>
      <path class="cls-1" d="M34.31,106.04s2.96,28.23,4.21,38.35c1.25,10.13-.34,14.91,1.14,15.02,1.48.11,11.6-.8,12.97-2.39,1.37-1.59-3.98-29.25-3.07-36.19.91-6.94.34-24.24.34-24.24"/>
      <path class="cls-1" d="M23.03,159.79s-5.54,4.78-5.92,6.98c-.38,2.2,2.35,4.86,5.77,4.32,3.41-.53,9.26-4.55,10.47-6.53s-1.59-5.01-1.59-5.01"/>
      <path class="cls-1" d="M26.67,160.55c.3.15.23,1.67,1.44,1.75s4.33-1.97,4.33-1.97"/>
      <path class="cls-1" d="M18.63,164.2s7.81.53,8.88,3.11"/>
      <path class="cls-1" d="M17.03,166.55s1.97,4.48,7.51,2.43c5.54-2.05,8.95-6.53,8.95-6.53"/>
      <path class="cls-1" d="M40.02,159.34s-.46,10.62,6.37,10.93c6.83.3,7.66-3.03,6.98-6.22-.68-3.19-3.94-5.69-3.94-5.69"/>
      <path class="cls-1" d="M41.47,159.19s.99,2.88,4.1,2.28c3.11-.61,2.81-3.03,2.81-3.03"/>
      <path class="cls-1" d="M40.4,159.41s1.29,10.47,7.28,9.79c5.99-.68,5.69-3.41,5.69-3.41"/>
      <path class="cls-1" d="M42.98,166.47s3.57-4.4,10.24-2.66"/>
      <ellipse class="cls-1" cx="27.94" cy="23.16" rx=".93" ry="1.12"/>
      <ellipse class="cls-1" cx="38.26" cy="22.93" rx=".93" ry="1.12"/>
    </g>
  </g>
</svg>