<?xml version="1.0" encoding="UTF-8"?>
<svg id="Layer_2" data-name="Layer 2" xmlns="http://www.w3.org/2000/svg" viewBox="0 0 48.14 44.88">
  <defs>
    <style>
      .cls-1 {
        fill: none;
        stroke: #231f20;
        stroke-width: .37px;
      }
    </style>
  </defs>
  <g id="Layer_1-2" data-name="Layer 1">
    <g>
      <path class="cls-1" d="M18.7.25v.22c.03,2.8.69,7.02,4.02,8.69.27.14.57.26.88.36,0,0,.02,0,.07-.04.64-.3,5.37-2.78,4.78-8.13,0-.03-.01-.06-.01-.09"/>
      <path class="cls-1" d="M16.47,3.06c-.77,1.83-.24,10.33,1.95,10.68,2.2.35,4.3-4.57,4.3-4.57"/>
      <path class="cls-1" d="M18.51.47s-1.23.79-2.02,2.55c-.01.01-.01.02-.01.04"/>
      <path class="cls-1" d="M23.69,9.52s1.67,5.19,3.78,4.92c2.11-.26,3.69-2.81,4.13-4.39.23-.84-.35-3.28-.95-5.38-.53-1.84-1.07-3.41-1.07-3.41"/>
      <path class="cls-1" d="M16.57,3.02s-.03.01-.09.04h-.01c-.97.38-8.77,3.59-10.18,7.87-.53,1.6-1.51,3.82-2.53,6.11C1.88,21.28-.14,25.79.32,27.27c.7,2.29,5.62,5.71,7.47,5.98,1.04.15,1.69.04,2.06-.08.28-.09.4-.19.4-.19"/>
      <path class="cls-1" d="M8.05,17.43s1.43,8.74,1.8,15.74c.15,2.98.11,5.65-.31,7.2,0,0,7.38,5.8,16.17,3.86,8.79-1.93,10.46-4.13,10.46-4.13l.81-5.55,2.79-19.23"/>
      <path class="cls-1" d="M30.19,4.6c.07,0,.23.03.46.07,1.81.4,8.02,2.32,9.74,5.2.52.88,1.34,2.51,2.25,4.48,2.47,5.33,5.6,13.11,5.22,15.03-.53,2.64-9.93,5.63-10.72,5.19"/>
    </g>
  </g>
</svg>