<?xml version="1.0" encoding="UTF-8"?>
<svg id="Layer_2" data-name="Layer 2" xmlns="http://www.w3.org/2000/svg" xmlns:xlink="http://www.w3.org/1999/xlink" viewBox="0 0 57.69 175.14">
  <defs>
    <style>
      .cls-1 {
        stroke: #231f20;
        stroke-width: .35px;
      }

      .cls-1, .cls-2 {
        fill: none;
      }

      .cls-3 {
        clip-path: url(#clippath);
      }
    </style>
    <clipPath id="clippath">
      <rect class="cls-2" width="57.69" height="175.14"/>
    </clipPath>
  </defs>
  <g id="Layer_1-2" data-name="Layer 1">
    <g class="cls-3">
      <path class="cls-1" d="M30.55,89.95s.84-8.79-.28-12.6c-1.12-3.81-1.51-11.14-1.62-12.65-.11-1.51-1.06-16.68-1.06-16.68"/>
      <path class="cls-1" d="M47.73,91.63s1.96,33.31,1.01,34.6c-.95,1.29-13.55,2.52-15.4,1.85-1.85-.67-3.58-22.34-3.3-22.39.28-.06,4.98-1.68,5.26-3.69"/>
      <path class="cls-1" d="M30.32,109.26s-.73,10.19-.45,13.33c.28,3.13.84,6.49-1.74,8.01-2.58,1.51-12.48-.5-14.78-1.68-2.3-1.18-2.46-3.86-2.41-4.7.06-.84-.39-14.44.11-17.3.5-2.86.67-7.61.67-7.61"/>
      <path class="cls-1" d="M10.9,109.37c.22.06,4.14,1.34,5.04,1.46.9.11,1.4.06,1.4.06,0,0-.11,12.43-1.06,13.49-.95,1.06-4.65.39-5.26-1.06"/>
      <path class="cls-1" d="M10.84,115.92s4.93,1.68,6.38.9"/>
      <path class="cls-1" d="M48.46,103.66s-3.92,1.34-4.53,2.52c-.62,1.18.84,10.86,1.46,11.87.62,1.01,3.25.78,3.64.28"/>
      <path class="cls-1" d="M44.04,111.67c.22,0,3.64-.28,4.53-2.07"/>
      <path class="cls-1" d="M44.99,127.18s-.52,29.57,1.56,33.49c0,0,1.5,1.75,3.92,2.09,2.42.33,5.67,2.25,5.92,4,.25,1.75-1,4.42-3.75,4.92-2.75.5-9.09-1.67-11.35-2.59-2.25-.92-3.42-3-3.34-4.67.08-1.67-3-19.11-3.34-23.19-.33-4.09-1-13.1-1-13.1"/>
      <path class="cls-1" d="M25.19,130.88s-1.5,30.45-.5,33.62c1,3.17-3.59,7.59-6.92,8.59-3.34,1-5.09.17-6.76-.33-1.67-.5-2.5-3.67-.83-4.92,1.67-1.25,7.17-3.5,7.17-6.34s-3-32.2-3-32.2"/>
      <path class="cls-1" d="M15.43,173.51s-1.67-1.42-.92-2.67c.75-1.25,2.34-1.75,2.34-1.75"/>
      <path class="cls-1" d="M12.43,173.18s-.75.17-.42-1.5c.33-1.67,1.59-2.42,1.59-2.42"/>
      <path class="cls-1" d="M10.43,172.18s-.42-1.17.33-2.34c.75-1.17,2-1.5,2-1.5"/>
      <path class="cls-1" d="M49.64,167.92s1.33,0,2.34.75,1.33,2.25,1.33,2.25"/>
      <path class="cls-1" d="M52.06,167.67s1.25-.83,1.84.17c.58,1,.58,2.84.58,2.84"/>
      <path class="cls-1" d="M53.14,166s2.5.75,2.5,1.92"/>
      <path class="cls-1" d="M53.89,165.25c.33.08,1.92,1.34,1.92,1.34"/>
    </g>
  </g>
</svg>