<?xml version="1.0" encoding="UTF-8"?>
<svg id="Layer_2" data-name="Layer 2" xmlns="http://www.w3.org/2000/svg" viewBox="0 0 34.68 83.36">
  <defs>
    <style>
      .cls-1 {
        fill: #7f1517;
      }

      .cls-1, .cls-2 {
        stroke: #231f20;
        stroke-width: .32px;
      }

      .cls-2 {
        fill: none;
      }
    </style>
  </defs>
  <g id="Layer_1-2" data-name="Layer 1">
    <g>
      <g>
        <path class="cls-1" d="M15.75,14.51c-.3.46.83,9.64.83,9.64"/>
        <path class="cls-2" d="M1.18,6.28s-1.04,20.92-.13,27.17c.91,6.25-2.84,42.9.57,46.31,3.41,3.41,9.21,4.26,11.26,2.7s1.59-5.11,1.14-7.24c-.46-2.13,4.07-62.45,1.67-66.74"/>
        <path class="cls-2" d="M15.16,14.36s3.75,35.58,5.01,48.35c1.25,12.77-.34,18.8,1.14,18.94,1.48.14,11.6-1,12.97-3.01,1.37-2.01-3.5-36.7-2.48-44.82,1.09-8.73-.25-31.37-.25-31.37"/>
        <rect class="cls-2" x="1.43" y=".16" width="29.87" height="14.21"/>
      </g>
      <path class="cls-2" d="M8.9,4.02s3.87,5.01,15.36.23"/>
      <path class="cls-2" d="M8.9,8.69c.45.11,8.76,3.64,15.36-1.14"/>
    </g>
  </g>
</svg>