<?xml version="1.0" encoding="UTF-8"?>
<svg id="Layer_2" data-name="Layer 2" xmlns="http://www.w3.org/2000/svg" viewBox="0 0 32.78 27.11">
  <defs>
    <style>
      .cls-1 {
        fill: none;
        stroke: #231f20;
        stroke-miterlimit: 10;
        stroke-width: .25px;
      }
    </style>
  </defs>
  <g id="Layer_1-2" data-name="Layer 1">
    <g>
      <path class="cls-1" d="M7.32,17.71c-.09-.36-.19-.72-.27-1.11-.74-3.19-1.26-7.55.42-10.23C9.76,2.69,14.92.12,20.01.12c1.91,0,3.72.35,5.38,1.04,5.69,2.37,6.97,8.89,7.23,10.83-.76-.59-1.56-1.1-2.37-1.52-1.94-1-4.02-1.51-6.17-1.51h-.2c-.3-1-1.44-2.35-2.8-2.35-.26,0-.53.05-.79.15-1.26.49-1.08,1.77-.86,2.49.07.23.14.37.14.37-2.24.72-4.55,1.9-6.86,3.56-2.99,2.12-4.96,4.32-5.32,4.74l-.06-.21Z"/>
      <path class="cls-1" d="M30.25,10.47c-2.15-1.11-4.3-1.54-6.37-1.51v-.02c-.34-1.12-1.85-2.85-3.59-2.18-1.73.67-.73,2.86-.73,2.86v.04c-2.57.78-4.92,2.13-6.86,3.52-2.94,2.09-4.92,4.28-5.32,4.74-.11-.42-.23-.86-.33-1.32-.78-3.37-1.23-7.6.42-10.23C10.55,1.44,18.78-1.58,25.39,1.16c5.78,2.41,7.01,9.18,7.23,10.83-.79-.61-1.58-1.11-2.37-1.52Z"/>
      <path class="cls-1" d="M3.67,26.99c-1.13,0-2.13-.27-2.97-.79-.35-.22-.54-.53-.57-.92-.18-2.38,5.25-7.23,6.92-8.67.08.38.18.75.27,1.11l.06.21c.57,2.1,1.15,3.61,1.22,3.77-.41.16-.74.44-1.02.86-.71,1.08-.72,2.49-.03,3.51-.04.03-1.83.92-3.88.92Z"/>
      <path class="cls-1" d="M.7,26.19c-2.68-1.67,4.86-8.31,6.35-9.59.1.46.22.9.33,1.32.51,1.89,1.05,3.34,1.22,3.77-.37.14-.72.4-1.02.86-.72,1.1-.7,2.52-.03,3.51l-.02.02s-3.86,1.96-6.83.11Z"/>
      <path class="cls-1" d="M19.58,9.7h0c1.39-.47,2.83-.71,4.29-.71.05,0,.1,0,.16,0-.05,0-.1,0-.16,0-1.46,0-2.91.24-4.3.71Z"/>
      <path class="cls-1" d="M19.58,9.7c1.43-.48,2.94-.72,4.45-.71"/>
    </g>
  </g>
</svg>