<?xml version="1.0" encoding="UTF-8"?>
<svg id="Layer_2" data-name="Layer 2" xmlns="http://www.w3.org/2000/svg" xmlns:xlink="http://www.w3.org/1999/xlink" viewBox="0 0 52.11 168.99">
  <defs>
    <style>
      .cls-1, .cls-2 {
        fill: none;
      }

      .cls-3 {
        clip-path: url(#clippath-1);
      }

      .cls-4 {
        clip-path: url(#clippath-2);
      }

      .cls-2 {
        stroke: #231f20;
        stroke-width: .32px;
      }

      .cls-5 {
        clip-path: url(#clippath);
      }
    </style>
    <clipPath id="clippath">
      <rect class="cls-1" width="52.11" height="168.99"/>
    </clipPath>
    <clipPath id="clippath-1">
      <rect class="cls-1" width="52.11" height="168.99"/>
    </clipPath>
    <clipPath id="clippath-2">
      <rect class="cls-1" width="52.11" height="168.99"/>
    </clipPath>
  </defs>
  <g id="Layer_1-2" data-name="Layer 1">
    <g class="cls-5">
      <path class="cls-2" d="M11,20.53s1.61-.58,2.19.58"/>
      <path class="cls-2" d="M12.38,20.64s-.92.81.23,1.61"/>
      <path class="cls-2" d="M13.54,23.98s1.5,9.21,10.01,8.75c8.51-.46,10.01-7.14,10.01-7.14"/>
      <path class="cls-2" d="M33.56,26.17s2.3.46,3.34-1.96c1.04-2.42-.23-6.33-2.65-4.14,0,0-1.61-3.11-1.03-4.26.57-1.15-1.96-1.73-5.75-3.8-3.8-2.07-3.8-4.83-3.8-4.83l-1.96,3.22.57-3.34s-1.38.12-4.26,2.76c-2.88,2.65-4.49,7.02-4.14,9.67,0,0-1.73-2.19-3.22-.35-1.5,1.84-.35,4.72,2.76,5.07l.92-.23"/>
      <path class="cls-2" d="M29.07,15.69c-1.04-1.04-3.11-.46-3.11-.46l.4.77s1.25-.92,2.71-.31Z"/>
      <path class="cls-2" d="M15.95,14.89s1.27-.69,2.3-.23c1.04.46-.49.81-.49.81,0,0-.89-.73-1.81-.58Z"/>
      <path class="cls-2" d="M20.6,18.23s.69,4.22-.23,4.76c-.92.54-1.46,2.69.31,2.84,1.76.15,2.38-.69,2.38-.69"/>
      <path class="cls-2" d="M19.15,26.98c.31,0,2.3,2.3,6.75-.23"/>
      <ellipse class="cls-2" cx="17.57" cy="20.18" rx="1.88" ry="2.49"/>
      <ellipse class="cls-2" cx="27.47" cy="19.88" rx="1.96" ry="2.26"/>
      <path class="cls-2" d="M26.86,19.38c.44,0,.81.38.81.84s-.36.84-.81.84-.81-.38-.81-.84.36-.84.81-.84Z"/>
      <path class="cls-2" d="M16.81,19.61c.44,0,.81.38.81.84s-.36.84-.81.84-.81-.38-.81-.84.36-.84.81-.84Z"/>
      <path class="cls-2" d="M34.11,22.14s1.99-1.61,2.07.61"/>
      <path class="cls-2" d="M35.49,21.68s-1.07,1.07-.54,1.77"/>
      <path class="cls-2" d="M12.16,18.61c0-.31-2.38-5.29,1.38-10.28C17.3,3.34,23.6.96,29.97,2.57c6.37,1.61,9.06,10.51,8.83,12.2-.23,1.69-2.76,4.6-2.76,4.6"/>
      <path class="cls-2" d="M37.26,21.22s1.23.23,2.46-1.84c1.23-2.07-.69-4.68-.84-4.68"/>
      <path class="cls-2" d="M37.72,21.22s-1.23,6.45,1.53,8.29,4.14,1.84,4.14,1.84l-2.3-2.15,2.61,1-1.84-2.23,3.07,1.31s-.84-6.6-5.37-9.67"/>
      <path class="cls-2" d="M12.55,24.06s.69,5.53-1.61,7.52c-2.3,1.99-2.84,1.84-2.84,1.84,0,0,1.69-1.84,1.38-1.76-.31.08-2.38,1.46-2.38,1.46l.46-1.84-2,1s-.31-9.21,4.84-10.28"/>
      <path class="cls-2" d="M20.07,32.12s-1,4.22,0,5.3c1,1.07,4.51.69,6.6.23,3.15-.69,1.54-5.83,1.54-5.83"/>
      <path class="cls-2" d="M19.61,35.19s-10.44,3.38-11.51,6.6c-1.08,3.22-6.37,15.42-5.83,16.88.54,1.46,6.22,4.99,7.9,3.68,1.69-1.31,3.53-5.99,3.53-5.99"/>
      <path class="cls-2" d="M15.16,36.88s-1.46,4.84-2.3,10.05c-.84,5.22,1.07,8.44,1.07,12.13s-1.38,9.9-2.46,12.89c-1.07,2.99-4.45,19.42-4.53,34.46-.08,15.04-2,26.02,1.53,29.24,3.53,3.22,11.13,2.23,18.8,2.46,7.67.23,15.58-1.31,16.5-4.91.92-3.61-1.31-45.58-2.76-52.88-1.46-7.29-4.22-12.89-4.76-15.19-.54-2.3.23-6.75.23-6.75"/>
      <path class="cls-2" d="M34.57,37.72s-2.69,4.76-1.31,11.36c.54,3.91,4.45,12.74,5.14,13.43.69.69,7.44-2.69,7.52-3.99.08-1.3-5.22-15.35-6.91-17.96-1.69-2.61-10.82-4.68-10.82-4.68"/>
      <path class="cls-2" d="M37.18,45.62c-.15.46-.38,5.53-1.46,7.9"/>
      <path class="cls-2" d="M40.02,62.2s-.77,4.68-2.99,5.6"/>
      <path class="cls-2" d="M45.62,58.98s5.52,7.67-4.99,19.34"/>
      <path class="cls-2" d="M9.48,62.66s-1.15,2.3,2.76,7.21"/>
      <path class="cls-2" d="M2.8,59.13s-1.84,3.15-.08,8.67c1.76,5.53,7.06,12.12,7.06,12.12"/>
      <path class="cls-2" d="M13.01,66.19s9.9,6.22,23.71-.08"/>
      <path class="cls-2" d="M13.7,62.12s9.59,5.68,22.02.38"/>
      <path class="cls-2" d="M18,35.72s-1.69,9.75,0,10.59c1.69.85,10.05,1.23,11.36-.38,1.31-1.61,1.76-9.06,1.76-9.06"/>
    </g>
    <line class="cls-2" x1="23.98" y1="38.18" x2="23.83" y2="45.47"/>
    <line class="cls-2" x1="12.37" y1="137.42" x2="12.49" y2="147.25"/>
    <line class="cls-2" x1="20.15" y1="138.02" x2="19.91" y2="147.19"/>
    <g class="cls-3">
      <path class="cls-2" d="M19.97,145.99s.9.06,1.08.78c.18.72.48,5.63-.3,6.89-.78,1.26-10.01.24-10.24-.6-.24-.84-.54-5.39,0-6.05.54-.66,2.04-.54,2.04-.54"/>
      <path class="cls-2" d="M12.07,147.07s6.35,2.34,8.51-.48"/>
    </g>
    <line class="cls-2" x1="29.68" y1="138.14" x2="29.86" y2="147.31"/>
    <line class="cls-2" x1="37.59" y1="136.94" x2="37.95" y2="146.41"/>
    <g class="cls-4">
      <path class="cls-2" d="M29.68,146.17s-1.02.24-1.14,1.32c-.12,1.08-.06,5.63.48,6.17s9.23.18,10-.78c.78-.96.6-6.95.36-7.19-.24-.24-1.44,0-1.44,0"/>
      <path class="cls-2" d="M29.38,147.07s4.07,1.38,9.23-1.02"/>
      <path class="cls-2" d="M20.51,153.78s1.14,2.82.66,4.55c-.48,1.74-3.24,5.75-7.19,6.47-3.95.72-7.13-1.32-6.47-4.19.66-2.88,6.35-6.71,6.35-6.71"/>
      <path class="cls-2" d="M12.79,154.8s1.5,1.86,4.01,1.8,3.95-1.74,3.95-1.74"/>
      <path class="cls-2" d="M30.58,153.9c.06.24.06,2.64.06,2.64,0,0-.36,1.8,1.02,1.98,1.38.18,4.31.9,5.57.48,1.26-.42,2.16-2.34,2.16-2.34,0,0-1.2-.3-1.5-.66-.3-.36-.48-2.46-.48-2.46"/>
      <path class="cls-2" d="M30.46,156.47s-.78.12-.96.6c-.18.48-1.38,3.71-.72,4.55.66.84,12.64,4.25,14.86,3.23,2.22-1.02,3-3.29,1.86-4.79-1.14-1.5-5.45-3.47-6.35-3.35"/>
      <path class="cls-2" d="M37.29,158.99s2.58,1.2,3.59.72c1.02-.48,1.2-2.16,1.2-2.16"/>
      <path class="cls-2" d="M28.6,160.31s13.78,7.73,17.37.78"/>
      <path class="cls-2" d="M7.39,161.26s3.53,4.07,8.21,1.56c4.67-2.52,5.63-5.63,5.63-5.63"/>
      <path class="cls-2" d="M13.39,155.33s-3.3,3.24-2.82,3.59c.48.36,2.82.9,4.19.3,1.38-.6,2.7-2.82,2.7-2.82"/>
    </g>
  </g>
</svg>