<?xml version="1.0" encoding="UTF-8"?>
<svg id="Layer_2" data-name="Layer 2" xmlns="http://www.w3.org/2000/svg" viewBox="0 0 51.98 49.61">
  <defs>
    <style>
      .cls-1 {
        fill: none;
        stroke: #231f20;
        stroke-miterlimit: 10;
        stroke-width: .25px;
      }
    </style>
  </defs>
  <g id="Layer_1-2" data-name="Layer 1">
    <path class="cls-1" d="M44.21,43.17c-.03.24-.27,1.32-1.63,2.53-1.37,1.22-3.89,2.56-8.49,3.3-9.17,1.47-21.32-2.11-22.85-2.58.01-.23.02-.47.03-.72h-.19c-3.86-.01-6.71,3.46-6.88,3.68-1.89-3.63-3.5-7.34-3.93-10.01-1.17-7.34,5.15-26.09,6.72-31.3C8.51,3.03,18.07.35,18.66.19c-.98,2.28-.92,4.99-.81,6.65.11,1.68,1.46,3.19,1.46,3.19,0,0,2.29-3.64,4.47-3.75h0c.52.82,1.15,1.42,1.9,1.57,1.04.21,2.21-.58,3.24-1.85,0,0,1.57.28,2.8,1.29,1.24,1.01,2.02,2.57,2.02,2.57,0,0,1.01-1.23.89-5.76-.03-1.07-.13-1.99-.27-2.79h.05s7.11,1.16,8.12,3.4,8.96,24.97,9.29,27.66c.34,2.68-3.34,12.94-4.35,15.26l-3.27-4.46Z"/>
  </g>
</svg>