<?xml version="1.0" encoding="UTF-8"?>
<svg id="Layer_2" data-name="Layer 2" xmlns="http://www.w3.org/2000/svg" viewBox="0 0 38.38 47.72">
  <defs>
    <style>
      .cls-1 {
        fill: none;
        stroke: #231f20;
        stroke-miterlimit: 10;
        stroke-width: .2px;
      }
    </style>
  </defs>
  <g id="Layer_1-2" data-name="Layer 1">
    <g>
      <path class="cls-1" d="M6.45,33.32c-.14,3.36-.41,6.99-.9,7.54-.95,1.06-4.65.39-5.27-1.06h-.06c0-1.45-.08-4.37-.11-7.39h.01s4.82,1.65,6.33.91Z"/>
      <path class="cls-1" d="M.11,32.41c-.02-2.34-.02-4.74.04-6.55h.02c.23.05,4.15,1.34,5.04,1.45.9.11,1.4.06,1.4.06,0,0-.03,2.86-.16,5.95-1.51.74-6.33-.91-6.33-.91h-.01Z"/>
      <path class="cls-1" d="M33.4,28.14c.59-.03,3.61-.39,4.45-2.06h.07c.13,3.09.24,6.16.31,8.79-.57.47-2.99.62-3.57-.34-.33-.53-.9-3.53-1.26-6.39Z"/>
      <path class="cls-1" d="M37.92,26.08h-.07c-.84,1.67-3.86,2.03-4.45,2.06-.32-2.52-.49-4.93-.2-5.48.57-1.07,3.87-2.28,4.45-2.49.09,1.91.19,3.92.27,5.91Z"/>
      <path class="cls-1" d="M33.4,28.14c.36,2.86.93,5.86,1.26,6.39.58.96,3,.81,3.57.34.1,4.29.07,7.46-.21,7.84-.95,1.28-13.55,2.52-15.4,1.84-1.31-.47-2.56-11.49-3.08-17.89-.17,2.58-.62,9.85-.39,12.41.28,3.13.84,6.49-1.73,8-2.58,1.52-12.49-.5-14.78-1.68-2.3-1.17-2.47-3.86-2.41-4.7.01-.11,0-.42-.01-.89h.06c.62,1.45,4.32,2.12,5.27,1.06.49-.55.76-4.18.9-7.54.13-3.09.16-5.95.16-5.95,0,0-.5.05-1.4-.06-.89-.11-4.81-1.4-5.04-1.45h-.02c.04-1.08.1-1.95.19-2.47.47-2.66.65-6.98.67-7.55v-.06c.45-4.18.9-8.34,1.35-12.52.03.01.06.02.11.03,1.57.48,13.69,4.05,22.84,2.58C34.15,4.45,35.29.81,35.42.11l.22.03c.43,2.66.89,5.31,1.39,7.97h-.02s.32,5.47.64,12.06c-.58.21-3.88,1.42-4.45,2.49-.29.55-.12,2.96.2,5.48Z"/>
    </g>
  </g>
</svg>