<?xml version="1.0" encoding="UTF-8"?>
<svg id="Layer_2" data-name="Layer 2" xmlns="http://www.w3.org/2000/svg" viewBox="0 0 17.68 8.82">
  <defs>
    <style>
      .cls-1 {
        fill: none;
        stroke: #231f20;
        stroke-miterlimit: 10;
        stroke-width: .25px;
      }
    </style>
  </defs>
  <g id="Layer_1-2" data-name="Layer 1">
    <g>
      <path class="cls-1" d="M13.6,1.35c-.08.39-.36,1.44-1.18,1.79-.88.37-2.91-.37-3.46-.59,1.03-.47,1.78-1.88,1.93-2.18.54.05,1.6.44,2.71.98Z"/>
      <path class="cls-1" d="M15.17,8.51C12.96,9.53.98,6.12.32,5.28c-.21-.26-.23-.75-.17-1.32.45.25,13.8,7.6,17.35.8.27,1.37-.58,2.95-2.33,3.75Z"/>
      <path class="cls-1" d="M2.18.19s-.36,1.79,1.01,1.97c1.38.18,4.32.9,5.57.48.07-.02.14-.05.2-.09.55.22,2.58.96,3.46.59.82-.35,1.1-1.4,1.18-1.79,1.38.68,2.83,1.59,3.43,2.37.24.32.4.67.47,1.04C13.95,11.56.6,4.2.15,3.95c.16-1.27.77-2.91.89-3.23.18-.48.96-.6.96-.6h.18v.06Z"/>
    </g>
  </g>
</svg>