<?xml version="1.0" encoding="UTF-8"?>
<svg id="Layer_2" data-name="Layer 2" xmlns="http://www.w3.org/2000/svg" viewBox="0 0 14.09 10.5">
  <defs>
    <style>
      .cls-1 {
        fill: none;
        stroke: #000;
        stroke-miterlimit: 10;
        stroke-width: .2px;
      }
    </style>
  </defs>
  <g id="Layer_1-2" data-name="Layer 1">
    <g>
      <path class="cls-1" d="M13.96,2.65c.01.41-.02.79-.12,1.14-.48,1.73-3.23,5.75-7.19,6.46C3.03,10.91.06,9.26.1,6.76c.36.38,3.75,3.89,8.17,1.52,4.68-2.52,5.63-5.63,5.63-5.63h.06Z"/>
      <path class="cls-1" d="M13.99,2.62h-.06s-.95,3.11-5.63,5.63C3.88,10.62.49,7.11.13,6.73c0-.23.02-.46.08-.7C.68,3.98,3.73,1.43,5.43.14l.06.08s.2.25.57.57c-.34.34-3.24,3.22-2.79,3.56.48.36,2.82.9,4.19.3,1.18-.51,2.31-2.2,2.62-2.68,2.16-.27,3.37-1.69,3.37-1.69l.12-.03c.19.66.4,1.54.42,2.37Z"/>
      <path class="cls-1" d="M9.5,2.02c.2,0,.4-.02.58-.05-.31.48-1.44,2.17-2.62,2.68-1.37.6-3.71.06-4.19-.3-.45-.34,2.45-3.22,2.79-3.56h.01c.66.54,1.84,1.27,3.43,1.23Z"/>
    </g>
  </g>
</svg>