<?xml version="1.0" encoding="UTF-8"?>
<svg id="Layer_2" data-name="Layer 2" xmlns="http://www.w3.org/2000/svg" viewBox="0 0 14.12 10.53">
  <defs>
    <style>
      .cls-1, .cls-2 {
        fill: none;
        stroke: #231f20;
        stroke-width: .25px;
      }

      .cls-2 {
        stroke-miterlimit: 10;
      }
    </style>
  </defs>
  <g id="Layer_1-2" data-name="Layer 1">
    <g>
      <g>
        <path class="cls-2" d="M6.07.82c.65.54,1.84,1.28,3.44,1.24.2,0,.4-.02.58-.05-.31.48-1.44,2.17-2.62,2.68-1.38.6-3.71.06-4.19-.3-.46-.34,2.51-3.3,2.79-3.57Z"/>
        <path class="cls-2" d="M8.31,8.29c4.67-2.52,5.63-5.63,5.63-5.63h.06c0,.4-.02.79-.12,1.13-.48,1.74-3.24,5.75-7.19,6.47C3.07,10.92.09,9.27.13,6.77c.36.38,3.76,3.89,8.18,1.52Z"/>
        <path class="cls-2" d="M10.09,2.01c2.15-.27,3.37-1.69,3.37-1.69l.12-.03c.19.66.39,1.54.42,2.37h-.06s-.96,3.11-5.63,5.63C3.89,10.66.49,7.15.13,6.77c0-.22.03-.46.09-.7C.69,4.02,3.73,1.47,5.43.18l.06.08s.2.25.58.56c-.28.27-3.25,3.23-2.79,3.57.48.36,2.81.9,4.19.3,1.18-.51,2.31-2.2,2.62-2.68Z"/>
      </g>
      <g>
        <path class="cls-1" d="M.1,6.73s.01.01.03.04c.36.38,3.76,3.89,8.18,1.52,4.67-2.52,5.63-5.63,5.63-5.63"/>
        <path class="cls-1" d="M6.09.8l-.02.02c-.28.27-3.25,3.23-2.79,3.57.48.36,2.81.9,4.19.3,1.18-.51,2.31-2.2,2.62-2.68.05-.08.08-.13.08-.13"/>
      </g>
    </g>
  </g>
</svg>