<?xml version="1.0" encoding="UTF-8"?>
<svg id="Layer_2" data-name="Layer 2" xmlns="http://www.w3.org/2000/svg" viewBox="0 0 46 47.41">
  <defs>
    <style>
      .cls-1 {
        stroke: #231f20;
        stroke-width: .37px;
      }

      .cls-1, .cls-2 {
        fill: none;
      }

      .cls-2 {
        stroke: #151515;
        stroke-miterlimit: 10;
        stroke-width: .5px;
      }
    </style>
  </defs>
  <g id="Layer_1-2" data-name="Layer 1">
    <g>
      <path class="cls-2" d="M28.34,46.71c-2.2.44-5.89.09-5.89.09,0,0-.97.44-4.4.35-3.42-.09-4.83-1.93-4.83-1.93,0,0-.53.17-3.43.08-2.9-.08-4.92-2.81-4.92-2.81,0,0-3.6-.26-4.57-2.28C-.61,38.29,10.26,3.68,11.3.39c7.35,4.71,19.7,5.71,26.7.11h.02c1,4.37,9.02,39.55,7.54,42.34-1.58,2.99-6.42,1.94-8.44,2.64s-6.06.35-6.06.35c0,0-.53.44-2.72.88Z"/>
      <line class="cls-1" x1="15.76" y1="23.19" x2="13.38" y2="45.07"/>
      <line class="cls-1" x1="22.34" y1="46.39" x2="20.24" y2="27.28"/>
      <line class="cls-1" x1="30.51" y1="45.6" x2="26.96" y2="26.88"/>
      <line class="cls-1" x1="4.69" y1="42.3" x2="7.06" y2="24.77"/>
    </g>
  </g>
</svg>