<?xml version="1.0" encoding="UTF-8"?>
<svg id="Layer_2" data-name="Layer 2" xmlns="http://www.w3.org/2000/svg" viewBox="0 0 11.25 8.19">
  <defs>
    <style>
      .cls-1 {
        fill: none;
        stroke: #231f20;
        stroke-width: .2px;
      }
    </style>
  </defs>
  <g id="Layer_1-2" data-name="Layer 1">
    <path class="cls-1" d="M10.94.62c-.05-.18-.13-.32-.25-.43-.02-.02-.05-.03-.07-.05-.74.8-1.81,1.33-3.18,1.41-.07.01-.16.01-.23.02-.13.02-.27.02-.41.03-.08,0-.15.01-.23.02-.08,0-.16.02-.25.02-.03,0-.05,0-.07,0-.04,0-.07,0-.11,0-.44,0-.85-.05-1.24-.14-.32-.05-.62-.13-.9-.22-.71-.16-1.31-.46-1.81-.86-.05-.04-.12-.07-.17-.11-.03,0-.06,0-.09,0-.48.02-1.19.13-1.53.54C-.14,1.52.16,6.07.4,6.91c.24.84,9.46,1.85,10.24.6.78-1.26.48-6.17.3-6.89Z"/>
  </g>
</svg>