<?xml version="1.0" encoding="UTF-8"?>
<svg id="Layer_2" data-name="Layer 2" xmlns="http://www.w3.org/2000/svg" viewBox="0 0 11.42 13.74">
  <defs>
    <style>
      .cls-1 {
        stroke-width: .32px;
      }

      .cls-1, .cls-2 {
        fill: none;
        stroke: #231f20;
      }

      .cls-2 {
        stroke-width: .1px;
      }
    </style>
  </defs>
  <g id="Layer_1-2" data-name="Layer 1">
    <g>
      <path class="cls-1" d="M11.05.26c-.09-.09-.33-.11-.59-.1-.29.23-.61.43-.97.59-.34.2-.71.36-1.12.46-.35.16-.75.27-1.18.34-.26.09-.55.16-.85.21h0c-.32.08-.66.12-1.02.13-.34.07-.69.12-1.07.12-.49,0-.94-.07-1.36-.18-.82-.11-1.52-.39-2.09-.8-.16.12-.33.28-.45.52-.07.14-.13.32-.15.52-.12,1.08-.06,5.63.48,6.17.13.13.72.2,1.56.23,1.86.07,4.92-.09,6.81-.44.84-.15,1.45-.34,1.63-.57.78-.96.6-6.95.36-7.19Z"/>
      <path class="cls-1" d="M9.61.7s-.09.04-.13.06c-.33.19-.7.35-1.1.46-.35.16-.75.26-1.16.33-.27.09-.55.16-.85.21-.32.08-.66.12-1.03.14-.33.07-.69.12-1.07.12-.52,0-.99-.07-1.43-.19-.36-.05-.7-.14-1.02-.26l-.76.08s4.07,1.38,9.23-1.02l-.67.07Z"/>
      <path class="cls-2" d="M2.25,8.47c.06.24.06,2.64.06,2.64,0,0-.36,1.79,1.02,1.97,1.37.18,4.31.9,5.57.48,1.25-.42,2.15-2.33,2.15-2.33,0,0-1.19-.3-1.49-.66s-.48-2.46-.48-2.46"/>
    </g>
  </g>
</svg>