<?xml version="1.0" encoding="UTF-8"?>
<svg id="Layer_2" data-name="Layer 2" xmlns="http://www.w3.org/2000/svg" viewBox="0 0 47.89 44.52">
  <defs>
    <style>
      .cls-1 {
        fill: none;
        stroke: #231f20;
        stroke-miterlimit: 10;
        stroke-width: .25px;
      }
    </style>
  </defs>
  <g id="Layer_1-2" data-name="Layer 1">
    <g>
      <path class="cls-1" d="M18.38.24l.04-.05s.11.09.16.13c.05,2.81.72,6.96,4.03,8.61h0s-2.11,4.93-4.3,4.58c-2.18-.35-2.72-8.85-1.96-10.68h.01s0-.03,0-.04c.79-1.76,2.02-2.55,2.02-2.55Z"/>
      <path class="cls-1" d="M29.72,1.83c.21.63.51,1.58.8,2.61.61,2.09,1.19,4.53.96,5.38-.44,1.58-2.02,4.13-4.13,4.39s-3.78-4.92-3.78-4.92l-.02-.04c.59-.28,4.6-2.38,4.81-6.83.48-.16.93-.36,1.36-.59Z"/>
      <path class="cls-1" d="M36.86,34.31l-.81,5.56s-1.67,2.2-10.46,4.13-16.17-3.87-16.17-3.87c.42-1.55.46-4.21.31-7.19-.36.12-1.01.22-2.07.07-1.84-.26-6.76-3.69-7.47-5.97-.7-2.29,4.49-11.78,5.98-16.35,1.39-4.27,9.17-7.46,10.17-7.86-.76,1.83-.22,10.33,1.96,10.68,2.19.35,4.3-4.57,4.3-4.57h0c.27.13.56.25.87.35,0,0,.02,0,.07-.04l.02.04s1.67,5.18,3.78,4.92,3.69-2.81,4.13-4.39c.23-.85-.35-3.29-.96-5.38,1.8.39,8.02,2.31,9.74,5.2,1.94,3.25,8,16.87,7.47,19.51-.52,2.63-9.93,5.62-10.72,5.18l-.15-.02Z"/>
    </g>
  </g>
</svg>