<?xml version="1.0" encoding="UTF-8"?>
<svg id="Layer_2" data-name="Layer 2" xmlns="http://www.w3.org/2000/svg" xmlns:xlink="http://www.w3.org/1999/xlink" viewBox="0 0 111.49 76.81">
  <defs>
    <style>
      .cls-1, .cls-2 {
        fill: none;
      }

      .cls-3 {
        clip-path: url(#clippath-1);
      }

      .cls-4 {
        fill: #030202;
      }

      .cls-5 {
        clip-path: url(#clippath-3);
      }

      .cls-2 {
        stroke: #231f20;
        stroke-width: .39px;
      }

      .cls-6 {
        clip-path: url(#clippath-2);
      }

      .cls-7 {
        clip-path: url(#clippath);
      }
    </style>
    <clipPath id="clippath">
      <rect class="cls-1" width="111.49" height="76.81"/>
    </clipPath>
    <clipPath id="clippath-1">
      <rect class="cls-1" width="111.49" height="76.81"/>
    </clipPath>
    <clipPath id="clippath-2">
      <rect class="cls-1" width="111.49" height="76.81"/>
    </clipPath>
    <clipPath id="clippath-3">
      <rect class="cls-1" width="111.49" height="76.81"/>
    </clipPath>
  </defs>
  <g id="Layer_1-2" data-name="Layer 1">
    <g class="cls-7">
      <path class="cls-2" d="M21.37,26.02c-.35.84-2.81.8-2.84-2.32-.02-3.12,1.15-3.52,2.27-3.56,1.13-.05,1.85.89,1.95,1.76.09.87.23,1.85.4,2.04.16.19,1.52-.38,1.45-.61-.07-.23-1.05-3.59-.94-4.83.12-1.24,1.2-2.63,1.24-2.79"/>
      <path class="cls-2" d="M28.48,10.19s.54,1.31-.07,2.79c-.61,1.48-1.83,1.43-1.52,1.22.31-.21,1.31-3.33.4-3.99-.91-.66-.42,5.79-5.3,8.02"/>
      <path class="cls-2" d="M26.86,18.05s-.02-.75.52-1.08c.54-.33,1.31-.42,1.31-.42l-.3-.8s-1.95.63-1.52,2.3Z"/>
      <path class="cls-2" d="M26.76,22.9c0,.6,1.73.82,2.06.07.33-.75.73-3.38-.3-3.59-1.03-.21-1.76,2.2-1.76,3.52Z"/>
      <path class="cls-2" d="M19.68,22.01c.12-.05.74-.15,1.29.13.51.26.96.88.82,1.04-.3.33-.96-.68-1.38-.26-.42.42.07,2.3,1.66,1.78"/>
      <path class="cls-2" d="M17.41,6.21s5.2-.28,5.37.09-.63,6.59-.99,7.83c-.35,1.24-1.71,1.67-2.27-.02-.56-1.69-1.83-7.97-2.11-7.95-.28.02-9.42-1.22-11.75,2.42-2.32,3.63-4.41,10.46-4.55,12.12-.14,1.66-.14,5.42,2.11,7.88,2.25,2.46,5.86,4.76,6.94,5.2"/>
      <path class="cls-2" d="M18.93,25.34s-.02.59.24,1.91c.26,1.31-.46,3.66-.99,4.01-.52.35-.79-1.12-.92-.96-.13.15-1.03,2.43-1.99,3.06-.96.64-1.12-.31-1.27-.33-.15-.02-1.62.83-3.28,1.29s-2.61-.2-2.3-.53c.31-.33,1.01-.37,1.01-.37"/>
      <path class="cls-2" d="M28.68,11.88s1.82,2.43,2.01,3.37c.2.94-.13,4.96.29,5.96.92,2.19,2.28,1.97,2.36,3.04.09,1.07-2.15,1.16-2.34,1.44-.2.28-.53,1.84-.39,2.08.13.24-.48.42-1.2.37-.72-.04-1.25-.35-1.33-.66"/>
      <path class="cls-2" d="M28.33,27.01c-.07.11-.48.79-.39,1.03"/>
      <path class="cls-2" d="M30.1,28.1s.07,1.69-1.07,1.64c-.22,0-.3,3.18-2.24,3.54-.83.15-1.48-.03-2.64-.67-1.16-.64-2.17-1.42-2.65-.79-.13.17-1.6,1.99-1.73,2.91"/>
      <path class="cls-2" d="M10.25,34.41s-4.75,12.31-4.56,25.34"/>
      <path class="cls-2" d="M16.8,40.5c-.09.07-1.78,2.2-1.85,4.6s1.45,11.14,1.5,11.67c.05.54,2.74.4,5.63-.23,2.88-.63,4.69-1.36,4.62-1.85-.07-.49-1.29-4.41-1.71-7.99-.42-3.59-1.38-6.82-4.78-7.74"/>
      <path class="cls-2" d="M24.28,43.32s-1.29-3.89-1.62-4.36c-.33-.47-5.88-4.81-11.02-4.92"/>
      <path class="cls-2" d="M15.89,32.79s5.93,2.56,6.49,3.82c.56,1.27.38,2.53.38,2.53"/>
      <path class="cls-2" d="M17.69,57.08s1.08,4.6,2.25,7.27"/>
      <path class="cls-2" d="M26.13,55.25s.84,5.67,1.97,7.92"/>
    </g>
    <polygon class="cls-2" points="49.57 6.63 89.04 9.22 88.32 43.1 49.06 36.34 49.57 6.63"/>
    <g class="cls-3">
      <path class="cls-2" d="M62.56,45.83s-1.1-.4-1.43-.42c-.33-.02-9.26,1.83-8.2,2.27,1.05.45,17.63,4.85,18.85,4.78,1.22-.07,5.51-2.81,5.06-3.07-.45-.26-6-1.95-6.07-1.95l.3-7.34"/>
    </g>
    <polyline class="cls-2" points="70.78 46.79 110.51 54.6 94.55 60.29 94.55 75.83"/>
    <g class="cls-6">
      <path class="cls-2" d="M62.48,45.24c-.35,0-16.81-3.52-16.81-3.52l-15.89,2.67v10.62"/>
    </g>
    <line class="cls-2" x1="29.78" y1="44.4" x2="94.62" y2="60.5"/>
    <g class="cls-5">
      <path class="cls-4" d="M94.67,2.99c.45,0,.81.36.81.81s-.36.81-.81.81-.81-.36-.81-.81.36-.81.81-.81"/>
      <path class="cls-2" d="M94.67,2.99c.45,0,.81.36.81.81s-.36.81-.81.81-.81-.36-.81-.81.36-.81.81-.81Z"/>
      <path class="cls-4" d="M44.46.98c.45,0,.81.36.81.81s-.36.81-.81.81-.81-.36-.81-.81.36-.81.81-.81"/>
      <path class="cls-2" d="M44.46.98c.45,0,.81.36.81.81s-.36.81-.81.81-.81-.36-.81-.81.36-.81.81-.81Z"/>
      <path class="cls-4" d="M43.19,38.82c.45,0,.81.36.81.81s-.36.81-.81.81-.81-.36-.81-.81.36-.81.81-.81"/>
      <path class="cls-2" d="M43.19,38.82c.45,0,.81.36.81.81s-.36.81-.81.81-.81-.36-.81-.81.36-.81.81-.81Z"/>
      <path class="cls-4" d="M94.25,48.8c.45,0,.81.36.81.81s-.36.81-.81.81-.81-.36-.81-.81.36-.81.81-.81"/>
      <path class="cls-2" d="M94.25,48.8c.45,0,.81.36.81.81s-.36.81-.81.81-.81-.36-.81-.81.36-.81.81-.81Z"/>
      <path class="cls-2" d="M22.75,6.23s5.11.55,6.08,1.33c.97.78,1.71,3.3,1.81,4.07.1.78-1.39.91-1.65.71"/>
      <path class="cls-4" d="M29.06,21.83c0,.26-.13.46-.3.46s-.3-.21-.3-.46.13-.46.3-.46.3.21.3.46"/>
      <path class="cls-2" d="M29.06,21.83c0,.26-.13.46-.3.46s-.3-.21-.3-.46.13-.46.3-.46.3.21.3.46Z"/>
      <polyline class="cls-2" points="70.6 47.42 68.55 47.1 68.95 39.64"/>
      <line class="cls-2" x1="62.35" y1="45.7" x2="68.55" y2="47.1"/>
      <line class="cls-2" x1="62.56" y1="45.83" x2="62.94" y2="38.8"/>
      <line class="cls-2" x1="94.01" y1="49.52" x2="70.93" y2="45.32"/>
      <line class="cls-2" x1="62.67" y1="43.13" x2="43.23" y2="39.73"/>
    </g>
  </g>
</svg>