<?xml version="1.0" encoding="UTF-8"?>
<svg id="Layer_2" data-name="Layer 2" xmlns="http://www.w3.org/2000/svg" xmlns:xlink="http://www.w3.org/1999/xlink" viewBox="0 0 74.26 73.75">
  <defs>
    <style>
      .cls-1 {
        fill: #231f20;
      }

      .cls-2, .cls-3, .cls-4 {
        fill: none;
      }

      .cls-3 {
        stroke: #fff;
        stroke-width: .14px;
      }

      .cls-4 {
        stroke: #231f20;
        stroke-width: .28px;
      }

      .cls-5 {
        clip-path: url(#clippath);
      }
    </style>
    <clipPath id="clippath">
      <rect class="cls-2" width="74.26" height="73.75"/>
    </clipPath>
  </defs>
  <g id="Layer_1-2" data-name="Layer 1">
    <g class="cls-5">
      <path class="cls-4" d="M13.93,22.88c-.4,1.75-4.04.37-4.17-1.82-.06-1.04-.02-2.53,1.7-3.11,1.74-.59,3.62.67,3.65.89"/>
      <path class="cls-4" d="M14.87,17.78c.07.82.67,3.57,1.04,3.55.37-.02,2.81-1.14,2.67-1.36-.13-.22-1.53-4.24-1.33-4.44.2-.2,2.84-1.4,3.77-3.94.92-2.54.61-3.23.72-3.23s2.44,1.48,3.52,1.4c1.08-.08.4-.83.27-.83"/>
      <path class="cls-4" d="M23.92,14.55c-.02-.1.24-.5.84-.84.61-.34,1.87-.56,1.87-.56,0,0,.02-.69-.07-.64-.09.05-2.79-.03-2.64,2.04Z"/>
      <path class="cls-4" d="M24.41,19.93c.02.47.79.77,1.45.77.56,0,.99-.24,1.18-.63.4-.84.77-3.65-.47-3.7-1.24-.05-2.24,1.43-2.15,3.57Z"/>
      <path class="cls-4" d="M11.49,19.56c.24-.35,2.22.02,2.17,1.41"/>
      <path class="cls-4" d="M13.19,19.97c-.03.07-1.62.44-1.35,1.63.27,1.19,1.5.77,1.5.77"/>
      <path class="cls-4" d="M23.03,3.95c2.02.77,5.03-.66,6.73,1.46s-1.3,5.94-6.34,2.42"/>
      <path class="cls-4" d="M25.99,26.02s-.62.82-.37,1.28"/>
      <path class="cls-4" d="M25.65,26.58s1.35.81,2,.84c.28.01.87.09,1.4-.04.69-.17,1.31-.6,1.21-.88-.17-.5-.57-.99-.17-1.92.04-.09,1.03-.12,2.02-1.19.99-1.08.98-2.31.6-2.31s-3.2-.66-3.08-1.92c.02-.18,1.93-4.04,1.19-5.77-.74-1.73-3.04-4.17-3.04-4.17"/>
      <path class="cls-4" d="M45.51,60.87s1.45.12,2.05,0c.61-.12,4.37-1.95,5.5-2.61"/>
      <path class="cls-4" d="M54.91,58.18s-4.96,3.77-5.37,3.97c-.4.2-2.74.74-2.86.74"/>
      <path class="cls-4" d="M54.76,58.41s.54.88-.93,2.22c-1.46,1.35-4.49,3.53-7.54,3.36"/>
      <path class="cls-4" d="M52.42,61.79s-1.18,1.87-3.4,2.69c-2.22.82-3.55,1.11-4.74.89-1.2-.22-6.85-1.28-7.42-1.23-.57.05-6.07,2.91-14.62,3.35-8.55.44-10.43-1.28-11.31-2.52-.88-1.24-6.83-22.61-2.93-24.06"/>
      <path class="cls-4" d="M18.05,59.11c.9-.29,2.41-.46,4.91-.35,5.55.24,12.62.27,13.91-.25.22-.07.82-.86,1.57-2.1.74-1.24.82-1.45,1.2-1.5.37-.05,1.72-.32,2.66-.81.94-.49,1.21-.35,1.29.07.09.42-.18,1.46-1.24,2.09-1.06.62-1.31.59-1.29.84.02.25,1.28,1.33,1.72,1.4.44.07,3.28.46,4.54.25,1.26-.2,4.44-1.8,4.73-1.03.29.77-1.21,1.67-1.21,1.67"/>
      <path class="cls-4" d="M25.57,58.88s-1.88-12.18-3.87-16.83c-1.98-4.64-2.39-6.29-2.39-6.29l-8.38-4.71s-2.96,3.53-5.45,7.4c-2.49,3.87-2.79,6.39-3.36,15.41-.57,9.02-.03,18.27-.03,18.27"/>
      <path class="cls-4" d="M19.58,58.81s-1.48-6.09-1.99-10.16c-.51-4.07-1.31-8.14-2.59-8.92"/>
      <path class="cls-4" d="M16.72,40.44c.54,1.14.61,2.59.24,4.14"/>
      <path class="cls-4" d="M9.89,62.05s.54-3.1,4-4.58c3.47-1.48,5.38.03,5.38.03"/>
      <path class="cls-4" d="M25.4,67.19s-.71,4.11-.47,5.86"/>
      <path class="cls-4" d="M9.32,33.04s10.36,5.52,11.37,6.63"/>
      <path class="cls-4" d="M25.3,4.22S21.03.7,14.83,1.07C8.64,1.44,1.85,8.98,1.27,12.75c-.57,3.77-.07,5.62-.03,6.9.03,1.28.44,2.56,1.52,3.63,1.08,1.08,1.51,2.22,3.94,3.1,2.42.88,5.59,1.01,5.01.77-.57-.23-.88-.5-.4-.4.47.1,1.55.44,1.35,0-.2-.44-.88-2.05-.67-1.78s.84.77.67.27c-.17-.5-.34-1.41-.71-1.68"/>
      <path class="cls-4" d="M12.45,26.95c.13.37-.2,3.16-1.38,4.14"/>
      <path class="cls-4" d="M19.28,35.73s.44-2.59,1.51-4.31c.06-.09,1.77.74,3.64,1,1.54.21,3.3-.09,3.46-.69.37-1.35.03-2.59.51-2.83.47-.24.98-.84.67-1.58"/>
      <path d="M26.79,17.92c.3,0,.54.37.54.83s-.24.83-.54.83-.54-.37-.54-.83.24-.83.54-.83"/>
      <path class="cls-4" d="M26.79,17.92c.3,0,.54.37.54.83s-.24.83-.54.83-.54-.37-.54-.83.24-.83.54-.83Z"/>
      <path class="cls-4" d="M52.93,58.32s2.07-1.4,2-.03"/>
      <path class="cls-1" d="M33.82,26.36c0,.5-.45.91-1,.91s-1-.41-1-.91.45-.91,1-.91,1,.41,1,.91"/>
      <path class="cls-3" d="M33.82,26.36c0,.5-.45.91-1,.91s-1-.41-1-.91.45-.91,1-.91,1,.41,1,.91Z"/>
      <path class="cls-1" d="M41.87,20.47c0,.5-.45.91-1,.91s-1-.41-1-.91.45-.91,1-.91,1,.41,1,.91"/>
      <path class="cls-3" d="M41.87,20.47c0,.5-.45.91-1,.91s-1-.41-1-.91.45-.91,1-.91,1,.41,1,.91Z"/>
      <path class="cls-1" d="M62.84,25.69c0,.5-.45.91-1,.91s-1-.41-1-.91.45-.91,1-.91,1,.41,1,.91"/>
      <path class="cls-3" d="M62.84,25.69c0,.5-.45.91-1,.91s-1-.41-1-.91.45-.91,1-.91,1,.41,1,.91Z"/>
      <path class="cls-1" d="M73.84,53.38c0,.5-.45.91-1,.91s-1-.41-1-.91.45-.91,1-.91,1,.41,1,.91"/>
      <path class="cls-3" d="M73.84,53.38c0,.5-.45.91-1,.91s-1-.41-1-.91.45-.91,1-.91,1,.41,1,.91Z"/>
      <path class="cls-1" d="M73.84,20.85c0,.5-.45.91-1,.91s-1-.41-1-.91.45-.91,1-.91,1,.41,1,.91"/>
      <path class="cls-3" d="M73.84,20.85c0,.5-.45.91-1,.91s-1-.41-1-.91.45-.91,1-.91,1,.41,1,.91Z"/>
      <path class="cls-1" d="M63.18,58.1c0,.5-.45.91-1,.91s-1-.41-1-.91.45-.91,1-.91,1,.41,1,.91"/>
      <path class="cls-3" d="M63.18,58.1c0,.5-.45.91-1,.91s-1-.41-1-.91.45-.91,1-.91,1,.41,1,.91Z"/>
      <path class="cls-1" d="M32.98,57.05c0,.5-.45.91-1,.91s-1-.41-1-.91.45-.91,1-.91,1,.41,1,.91"/>
      <path class="cls-3" d="M32.98,57.05c0,.5-.45.91-1,.91s-1-.41-1-.91.45-.91,1-.91,1,.41,1,.91Z"/>
    </g>
    <line class="cls-4" x1="41.22" y1="57.44" x2="62.25" y2="57.79"/>
    <line class="cls-4" x1="37.79" y1="57.35" x2="32.11" y2="57.35"/>
  </g>
</svg>