<?xml version="1.0" encoding="UTF-8"?>
<svg id="Layer_2" data-name="Layer 2" xmlns="http://www.w3.org/2000/svg" xmlns:xlink="http://www.w3.org/1999/xlink" viewBox="0 0 85.94 88.26">
  <defs>
    <style>
      .cls-1, .cls-2 {
        fill: none;
      }

      .cls-3 {
        clip-path: url(#clippath);
      }

      .cls-2 {
        stroke: #231f20;
        stroke-width: .32px;
      }
    </style>
    <clipPath id="clippath">
      <rect class="cls-1" width="85.94" height="88.26"/>
    </clipPath>
  </defs>
  <g id="Layer_1-2" data-name="Layer 1">
    <g class="cls-3">
      <path class="cls-2" d="M23.16,35.77c-1.11.86-4.87.19-4.93-3.91-.04-2.96.73-4.34,3.03-4.57,2.3-.23,3.59.96,3.41,3.31-.18,2.35-.23,2.8.08,3.06.3.25,3-.68,2.78-1.09-.23-.4-.73-3.79-.3-3.97s2.68-2.25,2.75-3.21c.08-.96-.18-6.26-2.15-6.97"/>
      <path class="cls-2" d="M19.67,29.99c.09-.08.5-.8,1.97-.5,1.47.3,1.76,1.74,1.76,1.74,0,0-1.56-1.18-2.32.09-.76,1.27.97,2.1,2.03,2.32"/>
      <path class="cls-2" d="M36.42,25.49s.09-.42,1.11-.86,2.14-.1,2.14-.1l-.1-.6s-2.53-.54-3.15,1.57Z"/>
      <path class="cls-2" d="M34.8,32.12c-.07.39,2.48,1.37,2.8.85.32-.53,1.62-3.35.72-4.16-.87-.77-2.93-.03-3.52,3.31Z"/>
      <path class="cls-2" d="M35.15,38.82c-.14.08-1.13,1.11-.86,1.46"/>
      <path class="cls-2" d="M34.53,39.52c.04.08.6,1.09,2.27,1.21,1.67.12,2.33-.49,2.31-.82-.02-.33-.31-2.06,0-2,.31.06,2.31.1,3.21-.97s.99-2.49.41-2.74c-.58-.25-2.57-1.75-2.41-2.51.15-.76,3.61-7.48,1.24-10.77"/>
      <path class="cls-2" d="M39.17,13.71c.29,1.72-1.3,4.52-2.21,5.64-.91,1.12-.82,1.26-1.24,1.6-.42.34.7.53,2.74-1.18,2.57-2.16,3.01-3.11,2.9-3.18"/>
      <path class="cls-2" d="M28.86,19.43s2.23,1.03,5.75-.35c3.52-1.38,4.24-3.24,4.24-3.24"/>
      <path class="cls-2" d="M15.74,38.3c-.66.04-2.51-.27-6.41-2.9-3.91-2.62-6-4.61-5.85-8.57.16-3.96,1.73-13.43,4.45-13.9,0,0-1.22-.6-.85-1.11.37-.51,1.75-.29,1.75-.29,0,0-1.52-1.54-.72-2.18.8-.64,1.05-.04,1.89.75,7.72-9.3,17.7-4.5,22.39-2.1,4.69,2.4,7.3.82,9.49,1.58,2.19.76,2.92,7.78,1.24,10.04-1.68,2.27-5.01,2.17-4.76,1.98s1.73-2.86,1.66-3.26"/>
      <path class="cls-2" d="M14.32,38.04s-.51.68-.82.76c-.49.12.27,1.53,1.69,1.34,1.42-.19,1.96-1.69,1.96-1.53s-.33,1.53.27,1.36c.6-.18,2.53-2.9,2.39-4.62"/>
      <path class="cls-2" d="M10.93,57.57c-.02.21-.02,3.61,1.98,6.79,2,3.17,8.76,9.98,9.34,10.24.58.25,2.65-.55,5.41-3.06,2.76-2.51,3.75-4.42,3.4-4.99-.35-.57-4-5.98-6.72-9.85-2.71-3.87-4.67-5.61-7.02-5.77"/>
      <path class="cls-2" d="M31.03,67.34c.09.02,11.73-.39,17.09-2.18.22-.08,1.59-4.09,2.39-4.65.8-.55,3.98-2.81,4.49-3.13.51-.32.74-.32,1.15.25.41.58.35.97-.46,1.91-.81.94-1.24,1.36-1.24,1.36l15.67,3.89"/>
      <path class="cls-2" d="M60.32,62.34s-1.59,1.52-4.24,1.98"/>
      <path class="cls-2" d="M55.58,61.21s-1.52.62-1.48.78"/>
      <path class="cls-2" d="M62.19,62.8c0,.16-1.13,2.25-4.43,3.34"/>
      <path class="cls-2" d="M63.16,63.04s-1.21,3.73-5.6,5.56"/>
      <path class="cls-2" d="M62.54,64.51c-.51,1.09-4,8.71-14.11,7.54-.24-.03-4.97,2.44-9.53,4.03-3.76,1.32-6.09,1.99-8.43,1.61-2.35-.39-6.96-3.46-6.8-3.5"/>
      <path class="cls-2" d="M27.52,76.45c-.04.23.27,11,.27,11"/>
      <path class="cls-2" d="M26.25,59.42s5.56.95,12.34-.82c.17-.04,1.19-3.28,2.64-3.93,1.46-.64,2.33-.86,2.76-1.42s1.5-.62,1.44.72c-.06,1.34-2.35,2.95-2.37,3.46-.02.51.74,2.25-1.44,3.56"/>
      <path class="cls-2" d="M43.96,56.33c.08-.02,7.89,3.29,7.95,3.21"/>
      <path class="cls-2" d="M47.17,58.84c.06-.1,1.11-.45,1.28-.68"/>
      <path class="cls-2" d="M50.78,59.13s-1.71,4.78-9.29,4.7c-.12,0-7.29,3.42-7.27,3.32"/>
      <path class="cls-2" d="M41.14,54.74s-5.79-3.26-5.79-3.26"/>
      <path class="cls-2" d="M25.4,58.28c-.04-.1-1.21-4.68-1.44-6.38-.23-1.69-1.44-3.75-5.07-6.35-3.63-2.6-4.99-4-5.32-3.83-.33.17-7.51,4.68-10.13,17.74-2.62,13.06-1.92,22.27-1.98,22.8"/>
      <path class="cls-2" d="M11.35,43.53c.08.27,6.96,6.18,13.06,10.65"/>
      <path class="cls-2" d="M21.98,48.23s2.72-5.44,3.93-4.78c1.2.66,2.37,3.38,5.87,2.53,3.5-.86,5.69-5.03,5.38-5.25"/>
      <path class="cls-2" d="M15.12,40.12s-.04.36-.26.78c-.26.51-.69,1.1-.69,1.1"/>
      <path class="cls-2" d="M52.93,58.82c.23-.41,12.94-24.95,12.94-24.95"/>
      <path class="cls-2" d="M9.67,59.04c-.04,3.87,1.31,6.39,4.87,7.53"/>
      <path d="M52.46,22.14c.44,0,.8.36.8.8s-.36.8-.8.8-.8-.36-.8-.8.36-.8.8-.8"/>
      <path d="M44.37,36.09c.44,0,.8.36.8.8s-.36.8-.8.8-.8-.36-.8-.8.36-.8.8-.8"/>
      <path d="M35.13,50.24c.44,0,.8.36.8.8s-.36.8-.8.8-.8-.36-.8-.8.36-.8.8-.8"/>
      <path d="M66.31,32.53c.44,0,.8.36.8.8s-.36.8-.8.8-.8-.36-.8-.8.36-.8.8-.8"/>
      <path d="M85.14,31.07c.44,0,.8.36.8.8s-.36.8-.8.8-.8-.36-.8-.8.36-.8.8-.8"/>
      <path d="M78.44,48.12c.44,0,.8.36.8.8s-.36.8-.8.8-.8-.36-.8-.8.36-.8.8-.8"/>
      <path d="M70.91,63.88c.44,0,.8.36.8.8s-.36.8-.8.8-.8-.36-.8-.8.36-.8.8-.8"/>
      <path d="M37.66,30.55c.39,0,.7.32.7.7s-.31.7-.7.7-.7-.32-.7-.7.31-.7.7-.7"/>
    </g>
  </g>
</svg>