<?xml version="1.0" encoding="UTF-8"?>
<svg id="Layer_2" data-name="Layer 2" xmlns="http://www.w3.org/2000/svg" xmlns:xlink="http://www.w3.org/1999/xlink" viewBox="0 0 81.55 83.08">
  <defs>
    <style>
      .cls-1, .cls-2 {
        fill: none;
      }

      .cls-2 {
        stroke: #231f20;
        stroke-width: .3px;
      }

      .cls-3 {
        fill: #030202;
      }

      .cls-4 {
        clip-path: url(#clippath);
      }
    </style>
    <clipPath id="clippath">
      <rect class="cls-1" width="81.55" height="83.08"/>
    </clipPath>
  </defs>
  <g id="Layer_1-2" data-name="Layer 1">
    <g class="cls-4">
      <path class="cls-2" d="M2.31,39.67s18.59-2.65,37.28-3.66c19.05-1.03,39.74-.46,39.74-.46"/>
      <path class="cls-2" d="M49.3,38.1c-.55.15-.18,3.15.36,3.15s1.15-.65,3.79.25c2.65.9,2.15.75,2.93.82.79.07-1.32-5.8-7.09-4.22Z"/>
      <path class="cls-2" d="M31.51,38.89c.55.15.18,3.15-.36,3.15s-1.15-.65-3.79.25c-2.65.9-2.15.75-2.93.82-.79.07,1.32-5.8,7.09-4.22Z"/>
      <path class="cls-2" d="M29.69,45.13c2.3,0,4.17,1.87,4.17,4.17s-1.87,4.17-4.17,4.17-4.17-1.87-4.17-4.17,1.87-4.17,4.17-4.17Z"/>
      <path class="cls-2" d="M51.52,44.06c2.3,0,4.17,1.87,4.17,4.17s-1.87,4.17-4.17,4.17-4.17-1.87-4.17-4.17,1.87-4.17,4.17-4.17Z"/>
      <path class="cls-2" d="M41.61,49.51c4.24,0,7.63,3.49,7.58,7.76-.05,4.21-3.44,7.59-7.58,7.59s-7.54-3.38-7.59-7.59c-.05-4.26,3.35-7.76,7.59-7.76Z"/>
      <path class="cls-2" d="M53.99,61.01c-.07-.14-6.98,5.05-12.28,4.94-5.3-.11-10.24-3.01-11.31-5.33-1.07-2.33-5.18-.14-5.73,2.4-.72,3.33,2.83,4.01,3.18,4.04.36.04,5.3,7.73,15.46,6.8,10.16-.93,12.81-5.58,13.6-5.76.79-.18,4.62-2.93,3.01-6.94-1.61-4.01-5.91-3.79-5.94-.14Z"/>
      <path class="cls-2" d="M28.94,63.01s-1.61.25-1.22,1"/>
      <path class="cls-2" d="M27.86,63.4s4.12,5.73,13.67,6.01c9.56.29,15.11-4.69,15.03-6.8"/>
      <path class="cls-2" d="M55.85,62.04c.25-.07,1.22.79,1,1.47"/>
      <path class="cls-2" d="M64.98,35.41s-1.45.54-1.61,2.79c-.16,2.25,2.09,2.68,2.09,2.68,0,0-1.61-.38-2.15,2.26-.54,2.63,3.6,4.46,3.6,4.46,0,0-.8.27-.86,1.24-.05.97,1.14,1.43,1.61.32,1.23-2.9,6.82-1.83,6.87,2.36.05,3.92-1.72,7.09-3.92,7.52-2.2.43-2.41-.7-2.41-.7,0,9.99-9.5,24-30.22,21.58-21.59-2.52-22.01-22.13-21.79-21.79.22.34-1.08,2.22-4.74.74s-5.08-7.52-2.37-10.26c2.71-2.74,7.36-.62,7.61,1.29.25,1.91,1.43-.48.58-2.1,0,0,1.04-2.14.95-3.53-.1-1.39-.7-1.07-.7-1.07,0,0,2.39-1.44,2.61-3.4.22-1.96-.22-2.19-.22-2.19"/>
      <path class="cls-2" d="M71.26,50.93c-.86-1.4-3.38.43-3.11.81.27.38,1.93-.05,2.85.91.91.97.48,2.95.05,3.44"/>
      <path class="cls-2" d="M9.8,52.22c.97-1.56,3.7-1.34,4.51.81"/>
      <path class="cls-2" d="M13.18,51.63s-2.04.48-1.34,2.42c.7,1.93,2.15,2.52,3.6,1.88"/>
      <path class="cls-2" d="M8.74,38.91s-1.47,1.02-1.54,2.09c-.07,1.07.47,1.54.47,1.54,0,0-3.48.17-3.45,3.03.03,2.86,3.93,4.5,3.93,4.5"/>
      <path class="cls-2" d="M75.27,35.53s1.76,1.24,1.59,2.83c-.17,1.59-1.49,2.11-1.37,2.16.12.05,3.3,1.14,3.13,4.2-.17,3.06-3.16,3.6-3.16,3.6,0,0-.12,1.99-1.14,2.04"/>
      <path class="cls-3" d="M80.33,33.62c.68,0,1.23.55,1.23,1.23s-.55,1.23-1.23,1.23-1.23-.55-1.23-1.23.55-1.23,1.23-1.23"/>
      <path class="cls-3" d="M61.07,26.32c.68,0,1.23.55,1.23,1.23s-.55,1.23-1.23,1.23-1.23-.55-1.23-1.23.55-1.23,1.23-1.23"/>
      <path class="cls-3" d="M38.09,0c.68,0,1.23.55,1.23,1.23s-.55,1.23-1.23,1.23-1.23-.55-1.23-1.23.55-1.23,1.23-1.23"/>
      <path class="cls-3" d="M16.55,27.07c.68,0,1.23.55,1.23,1.23s-.55,1.23-1.23,1.23-1.23-.55-1.23-1.23.55-1.23,1.23-1.23"/>
      <path class="cls-3" d="M1.23,38.1c.68,0,1.23.55,1.23,1.23s-.55,1.23-1.23,1.23S0,40,0,39.32s.55-1.23,1.23-1.23"/>
      <path class="cls-3" d="M29.32,49.08c.68,0,1.23.55,1.23,1.23s-.55,1.23-1.23,1.23-1.23-.55-1.23-1.23.55-1.23,1.23-1.23"/>
      <path class="cls-3" d="M51.09,48.23c.68,0,1.23.55,1.23,1.23s-.55,1.23-1.23,1.23-1.23-.55-1.23-1.23.55-1.23,1.23-1.23"/>
      <path class="cls-3" d="M56.92,9.21c.68,0,1.23.55,1.23,1.23s-.55,1.23-1.23,1.23-1.23-.55-1.23-1.23.55-1.23,1.23-1.23"/>
      <path class="cls-3" d="M18.23,9.36c.68,0,1.23.55,1.23,1.23s-.55,1.23-1.23,1.23-1.23-.55-1.23-1.23.55-1.23,1.23-1.23"/>
    </g>
  </g>
</svg>